<svg xmlns="http://www.w3.org/2000/svg" width="485" height="381.986" viewBox="0 0 485 381.986"><g transform="translate(-219 -1437.014)"><g transform="translate(-764.453 1010.741)"><g transform="translate(994.579 446.802)"><path d="M860.473,479.46c17.456,0,33.8,7.954,46.024,22.4,7.942,9.383,13.787,20.791,17.871,34.879,6.145,5.706,11.9,10.736,17.833,15.543,10.014,8.106,21.78,17.319,34.708,24.068,4.838,2.528,9.585,4.8,14.489,4.8l1.085-.037a8,8,0,0,1,4.8,1.209c5.684,3.574,11.2,7.185,16.18,12.043,16.292,15.888,20.586,36.622,12.091,58.382a84.2,84.2,0,0,1-22.577,32.437,43.666,43.666,0,0,1-29.945,11.332,56.474,56.474,0,0,1-8.481-.661l-1.666-.158c-9.4-.679-19.235-1.392-28.813-1.477l-3.5-.016c-17.559,0-31.751,1.3-44.663,4.1-9.677,10.517-19.76,18.21-30.784,23.428a66.388,66.388,0,0,1-28.406,6.852,57.4,57.4,0,0,1-16.529-2.456c-14.793-4.45-26.963-14.3-36.174-29.266-9.932-16.141-15.354-35.358-16.576-58.748a176.079,176.079,0,0,1,2.807-41.123c5.4-29.215,15.724-53.947,31.564-75.609,11.757-16.075,24.841-27.507,40-34.949A64.754,64.754,0,0,1,860.473,479.46ZM826.387,705.535a42.74,42.74,0,0,0,16.058-3.447c10.362-4.227,19.857-11.538,29.029-22.349,13.8-16.272,23.582-35.751,29.894-59.548a157.033,157.033,0,0,0,4.94-55.323c-1.818-18.961-6.647-33.33-15.2-45.22-6.749-9.386-14.8-14.8-24.6-16.552-8.858-1.583-17.686.212-27.446,5.582-11.265,6.2-21.227,15.644-30.455,28.873-12.165,17.444-20.361,37.191-25.057,60.368-.951,4.7-1.647,9.461-2.241,14.223a132.287,132.287,0,0,0-1.029,17c.044,19.406,3.12,34.917,9.682,48.836,4.054,8.6,8.917,15.033,14.866,19.659C811.667,702.952,818.718,705.535,826.387,705.535Zm164.4-108.4c-8.258-.159-15.3-3.485-21.279-6.607-14.234-7.431-26.752-17.221-37.368-25.814-3.665-2.966-7.26-6.014-10.824-9.1q.544,3.757.924,7.726a172.96,172.96,0,0,1-5.4,60.952c-5.821,21.949-14.4,40.639-26.1,56.8A240.947,240.947,0,0,1,930.57,678.2l3.646.017c10.085.09,20.173.821,29.928,1.529,1.518.128,2.175.189,2.826.29a40.426,40.426,0,0,0,6.062.478,27.744,27.744,0,0,0,19.285-7.264,68.346,68.346,0,0,0,18.332-26.324c6.184-15.839,3.372-29.67-8.358-41.108A71.392,71.392,0,0,0,990.782,597.135Z" transform="translate(-663.783 -479.984)" fill="#00274d"/><path d="M781.291,531.481a11.444,11.444,0,0,1,3.852.715c15.394,4.517,29.317,8.82,42.689,13.2l2.147.7c11.844,3.872,24.09,7.876,35.86,13.186a16.646,16.646,0,0,1,6.286,4.085c7.191,8.027,15.316,17.833,21.046,29.685,1.863,3.852,3.94,9.057,3.46,15.16a71.078,71.078,0,0,1-6.672,25.411c-6.178,12.8-15.38,20.99-27.353,24.333a137.6,137.6,0,0,1-29.635,5,113.811,113.811,0,0,1-12.186,21.238,23.878,23.878,0,0,1-19.768,9.9c-.1,0-.982-.017-1.083-.021-1.237,1.493-1.314,1.832-1.321,1.867a12.3,12.3,0,0,1-.905,6.208c-8.076,21.118-14.68,37.305-21.411,52.481-2.035,4.586-4.442,8.835-6.769,12.945-1.865,3.293-3.736,6.581-5.357,10a21.11,21.11,0,0,1-4.95,6.614,11.741,11.741,0,0,1-7.958,3.458,11.939,11.939,0,0,1-7.487-2.937,32.038,32.038,0,0,1-16.4-9.586,70.055,70.055,0,0,1-13.709-22.407,14.587,14.587,0,0,1,1.19-13.326,33.807,33.807,0,0,1,5.716-6.924,34.185,34.185,0,0,1,3.445-9.764c5.526-11.479,12.451-22.238,18.8-31.884-2.638-5.3-1.642-11.441,2.931-16.25.364-.383.733-.752,1.051-1.159,4.684-6.018,6.03-10.43,4.638-15.223-.874-3.008-2.877-5.741-6.659-9.057a8.84,8.84,0,0,1-3.536-11.87,8,8,0,0,1,9.847-3.917l2.572.941a56.428,56.428,0,0,0,11.448,3.368,20.578,20.578,0,0,0,2.818.208,10.056,10.056,0,0,0,5.937-1.614,4.163,4.163,0,0,0,1.112-2.1,16.777,16.777,0,0,1,3.129-6.186c7.454-9.529,15.624-21.135,19.655-34.9,3.582-12.237,2.557-22.1-3.226-31.031-3.539-5.464-8.675-10.069-15.7-14.076a9.805,9.805,0,0,1-5.44-5.229,8,8,0,0,1,5.044-10.815A12.163,12.163,0,0,1,781.291,531.481Zm48.665,115.584a120.139,120.139,0,0,0,28.348-4.521c7.558-2.11,13.037-7.153,17.244-15.873a54.407,54.407,0,0,0,5.133-19.715c.141-1.8-.431-3.874-1.914-6.94-4.865-10.063-12.113-18.778-18.561-25.976-11.93-5.13-23.759-9-35.2-12.737l-2.153-.7q-6.417-2.1-13.034-4.187c6.652,12.063,7.765,25.882,3.3,41.133-4.652,15.891-13.487,28.776-21.682,39.335,10.319,1.439,23.27,3.771,36.025,8.66A7.982,7.982,0,0,1,829.956,647.065Zm-43.847,5.2a8.027,8.027,0,0,1-1.2-.158l-4.8-1.005a27.185,27.185,0,0,1-13.26,2.734c3.728,13.023-2.443,23.014-7.417,29.4-.426.546-.881,1.066-1.348,1.573a11.766,11.766,0,0,1,.987,1.668,8,8,0,0,1,7.87,11.369l-21.081,45.023,11.947,12.9c1.413-2.556,2.73-5.069,3.873-7.644,6.581-14.838,13.055-30.7,20.976-51.407a17.908,17.908,0,0,1,2.8-10.2c3.286-5.614,8.1-8.46,14.3-8.461l1.268.024a8.016,8.016,0,0,0,6.966-3.5,91.645,91.645,0,0,0,8.966-15.147l-30.838-7.175Zm-56.441,97.877a21.612,21.612,0,0,1-.664-3.159c-.174.245-.334.488-.482.731Q729.074,748.941,729.668,750.145Z" transform="translate(-443.281 -430.114)" fill="#00274d"/><path d="M979.45,483.821c-4.409,2.456-8.021,5.931-11.617,9.368-25.024,23.909-40.513,53.136-47.993,86.743-5.044,22.664-5.833,45.568-3.379,68.615.372,3.5.766,6.988,1.463,10.5.482-5.49.842-10.992,1.459-16.464C924.4,598.094,934.8,555.19,956.922,515.77a177.134,177.134,0,0,1,21.384-30.218c.452-.515,1.1-.9,1.226-1.663Z" transform="translate(-915.12 -483.472)" fill="#ffeb00"/><path d="M979.45,479.821a4,4,0,0,1,2.558.924l.082.068a4,4,0,0,1,1.389,3.725,6.127,6.127,0,0,1-2.025,3.516,173.2,173.2,0,0,0-21.044,29.673c-19.571,34.872-31.344,74.687-37.051,125.3-.414,3.673-.711,7.36-1.008,11.048l-.441,5.318a4,4,0,0,1-7.908.43c-.721-3.627-1.132-7.237-1.517-10.853a216.163,216.163,0,0,1,3.452-69.908c7.845-35.245,24.376-65.11,49.134-88.766,3.82-3.652,7.632-7.3,12.433-9.97A3.994,3.994,0,0,1,979.45,479.821ZM919.308,614.464c6.227-36.305,16.241-66.956,30.817-94.573-12.5,17.813-21.321,38.185-26.379,60.909A194,194,0,0,0,919.308,614.464Z" transform="translate(-915.12 -483.472)" fill="#00274d"/><path d="M786.646,654.8a36.579,36.579,0,0,1-5.008-.359,69.358,69.358,0,0,1-14.8-4.208l-1.5-.549a8.034,8.034,0,0,1-2.005-.729l-.083-.032a8.022,8.022,0,0,1-2.729-1.257l-3.3-2.362a8,8,0,0,1,5.447-14.464c1.2.1,1.859.164,2.51.264a40.414,40.414,0,0,0,6.062.478,27.745,27.745,0,0,0,19.286-7.264,68.348,68.348,0,0,0,18.332-26.324c6.184-15.839,3.372-29.67-8.358-41.108-3.857-3.762-8.6-6.855-13.526-9.953a8,8,0,0,1-2.51-11.037,10.953,10.953,0,0,1,9.315-5.4,12.26,12.26,0,0,1,5.784,1.537,6.579,6.579,0,0,1,3.293,1.227,7.939,7.939,0,0,1,2.179,1.5c.2.1.361.177.434.219,9.309,5.308,16.245,11.614,21.211,19.281,8.268,12.774,10,27.652,5.15,44.222-4.791,16.366-14.019,29.544-22.415,40.276-1.5,5.151-4.18,9.148-7.8,11.626A25.986,25.986,0,0,1,786.646,654.8Z" transform="translate(-461.995 -431.057)" fill="#00274d"/><path d="M906.87,630.276c.21-2.388.4-4.732.623-7.075,2.907-29.895,9.321-58.92,21.575-86.48a152.841,152.841,0,0,1,24.272-38.832c.245-.28.441-.6.758-1.036-1.359-.153-1.97.793-2.7,1.393-19.13,15.775-31.9,35.83-39.606,59.231a148.822,148.822,0,0,0-7.21,43.8,183.181,183.181,0,0,0,1.453,27.607C906.1,629.346,905.834,630.025,906.87,630.276Z" transform="translate(-868.968 -470.995)" fill="#ffeb00"/><path d="M906.87,634.276a4,4,0,0,1-.941-.112,4.885,4.885,0,0,1-3.881-5.016,186.2,186.2,0,0,1-1.463-27.952,153.679,153.679,0,0,1,7.41-44.97c8.21-24.933,21.957-45.479,40.86-61.067a6.93,6.93,0,0,1,4.956-2.323,4.611,4.611,0,0,1,3.58,2.382,4.01,4.01,0,0,1-.057,3.985,15.332,15.332,0,0,1-.982,1.317,147.921,147.921,0,0,0-23.629,37.825c-11.162,25.106-18.113,52.989-21.248,85.242l-.619,7.037a4,4,0,0,1-3.985,3.65Zm16.442-94.308a137.226,137.226,0,0,0-12.794,39.711A253.872,253.872,0,0,1,923.312,539.968Z" transform="translate(-868.968 -470.995)" fill="#00274d"/><path d="M931.364,509.8c-1.7-.235-2.45,1.081-3.367,1.916-13.5,12.29-22.285,27.435-27.047,44.98-4.115,15.164-4.558,30.553-2.7,46.071.1.838.35,1.657.509,2.378C901.838,570.809,909.193,537.877,931.364,509.8Z" transform="translate(-831.854 -458.593)" fill="#ffeb00"/><path d="M930.973,505.774a8.975,8.975,0,0,1,.938.065,4,4,0,0,1,2.593,6.442c-23.26,29.453-29.11,63.653-31.765,93.224a4,4,0,0,1-7.89.5,23.846,23.846,0,0,1-.574-2.757c-2.078-17.4-1.156-32.965,2.815-47.6,5.071-18.686,14.564-34.462,28.214-46.89C926.452,507.557,928.136,505.774,930.973,505.774Z" transform="translate(-831.854 -458.593)" fill="#00274d"/><path d="M775.687,531.285a7.992,7.992,0,0,1,.9.051c3.445.327,7.169,3.094,8.052,6.372a8,8,0,0,1-9.4,9.9,8.3,8.3,0,0,1-6.947-5.285,8,8,0,0,1,7.4-11.041Z" transform="translate(-439.403 -430.302)" fill="#00274d"/><path d="M793.325,599.422h0a9.7,9.7,0,0,1-7-3.648A8,8,0,0,1,791.83,583a10.526,10.526,0,0,1,1.475-.134,8.812,8.812,0,0,1,8.235,6.84,8,8,0,0,1-3.276,8.141A9.346,9.346,0,0,1,793.325,599.422Z" transform="translate(-489.523 -380.85)" fill="#00274d"/><path d="M792.6,583.042h0a9.193,9.193,0,0,1,8.306,6.431,8,8,0,0,1-2.2,7.878,9.637,9.637,0,0,1-6.042,2.516c-3.772,0-7.451-3.382-8.241-7.071a8.013,8.013,0,0,1,5.359-9.3A10.517,10.517,0,0,1,792.6,583.042Z" transform="translate(-488.09 -380.686)" fill="#00274d"/><path d="M873.865,718.068h0c-11.2,0-21.76-3.79-31.374-11.264-7.982-6.207-14.366-14.538-19.518-25.469-7.494-15.9-11.16-34.083-11.209-55.6a148.234,148.234,0,0,1,1.152-19.044c.644-5.161,1.405-10.321,2.436-15.417,5.14-25.368,14.173-47.07,27.615-66.346,10.666-15.291,22.4-26.326,35.865-33.738,9.926-5.461,19.406-8.116,28.982-8.116a51.256,51.256,0,0,1,8.992.8c13.9,2.485,25.6,10.21,34.773,22.962,10.273,14.285,16.035,31.137,18.135,53.034a172.964,172.964,0,0,1-5.4,60.953c-6.935,26.148-17.782,47.671-33.159,65.8-10.876,12.82-22.385,21.591-35.187,26.813A58.587,58.587,0,0,1,873.865,718.068Zm32.277-212.882a42.871,42.871,0,0,0-18.12,4.258c-11.573,5.388-21.75,14.253-31.112,27.1-11.957,16.412-19.971,35.253-24.5,57.6a143.459,143.459,0,0,0-2.926,29.141c.033,18.224,3.247,33.482,9.827,46.674,4.272,8.565,9.483,14.865,15.929,19.26a35.79,35.79,0,0,0,20.648,6.736,44.026,44.026,0,0,0,17.217-3.85c11.607-4.958,21.536-13.318,31.245-26.31,12.875-17.226,21.315-37.118,25.8-60.814a135.823,135.823,0,0,0,1.8-41.5c-2.145-18.438-7.192-32.075-15.883-42.917C928.013,510.5,917.662,505.186,906.142,505.186Z" transform="translate(-711.261 -476.517)" fill="#00274d"/><path d="M809.39,610.606A8,8,0,0,1,816.636,622l-22.888,48.874a8,8,0,0,1-15.14-2.1c-1.557-9.5,18-51.53,26.494-56.922A7.985,7.985,0,0,1,809.39,610.606Z" transform="translate(-492.983 -354.261)" fill="#00274d"/><path d="M805.568,671.131h0c-11.828,0-24.088-15.493-24.264-26.626a8,8,0,0,1,13.87-5.561l17.27,18.653a8,8,0,0,1-4.258,13.272A13.009,13.009,0,0,1,805.568,671.131Z" transform="translate(-495.721 -329.555)" fill="#00274d"/><path d="M790,609.622a8.016,8.016,0,0,1-1.818-.209l-36.677-8.534a8,8,0,0,1,2.861-15.723c10.676,1.41,24.7,3.707,38.492,8.995A8,8,0,0,1,790,609.622Z" transform="translate(-408.677 -378.725)" fill="#00274d"/><path d="M777.829,601.506a8.013,8.013,0,0,1-1.642-.17l-5.075-1.062a8,8,0,0,1,1.692-15.83,16.5,16.5,0,0,1,9.368,2.346,8,8,0,0,1-4.344,14.716Z" transform="translate(-434.562 -379.341)" fill="#00274d"/><path d="M875.015,708.966h0a51.971,51.971,0,0,1-29.661-9.516c-8.763-5.974-15.709-14.262-21.233-25.338-7.708-15.452-11.473-33.037-11.51-53.76a159.418,159.418,0,0,1,3.244-32.373c4.994-24.649,13.908-45.533,27.249-63.844,11-15.1,23.2-25.624,37.291-32.186a58.726,58.726,0,0,1,24.872-5.752c16.309,0,31.374,7.591,42.42,21.373,10.653,13.29,16.783,29.52,19.29,51.074A153.665,153.665,0,0,1,965,604.97c-4.951,26.143-14.341,48.195-28.707,67.415-11.31,15.133-23.667,25.419-37.777,31.446A59.864,59.864,0,0,1,875.015,708.966ZM905.1,509.317l-.863.01c-7.374.178-14.741,2.918-22.521,8.377-10.829,7.6-19.86,18.066-27.608,32a145.92,145.92,0,0,0-18.277,64.632c-.857,18.161,1.71,33.591,7.847,47.172,3.563,7.886,7.938,13.739,13.375,17.893,5.717,4.367,11.59,6.49,17.954,6.49a36.152,36.152,0,0,0,13.753-3c10.374-4.295,19.5-11.892,28.73-23.909a108.671,108.671,0,0,0,7.145-10.535q-1.123-.2-2.213-.461c-16.757-3.938-26.583-15.083-28.413-32.23a57.456,57.456,0,0,1,11.75-41.609c8.225-10.794,20.509-14.72,34.683-10.933q1.954.522,3.919,1.223c-1.137-13.77-4.415-28.246-13.562-40.931C923.916,513.957,915.51,509.317,905.1,509.317Zm32.4,123.935a7.994,7.994,0,0,1,2.514.406,160.625,160.625,0,0,0,9.266-31.664,152.337,152.337,0,0,0,2.248-16.7,8,8,0,0,1-2.424-.847L946.453,583a43.036,43.036,0,0,0-10.14-4.334,24.093,24.093,0,0,0-6.162-.889c-4.808,0-8.515,1.926-11.666,6.062a41.187,41.187,0,0,0-8.566,30.211c1.117,10.465,5.952,15.954,16.165,18.354a38.572,38.572,0,0,0,8.93.88l2.261-.033C937.348,633.252,937.423,633.251,937.5,633.251Z" transform="translate(-710.383 -473.526)" fill="#00274d"/><path d="M871.519,698.4h0c-9.868,0-19.177-3.289-27.668-9.776-7.594-5.8-13.561-13.659-18.242-24.018-7.2-15.937-10.227-33.769-9.248-54.514a161.782,161.782,0,0,1,20.277-71.654c8.95-16.093,19.548-28.3,32.4-37.319,10.447-7.331,20.694-11.02,31.326-11.276l1.248-.015c15.478,0,28.852,7.2,38.676,20.829,14.721,20.417,16.926,43.4,17.14,63.181a8,8,0,0,1-11.814,7.119l-2.649-1.442a43.037,43.037,0,0,0-10.141-4.334,24.093,24.093,0,0,0-6.162-.889c-4.808,0-8.515,1.926-11.666,6.062a41.186,41.186,0,0,0-8.566,30.211c1.117,10.465,5.951,15.954,16.165,18.354a38.574,38.574,0,0,0,8.931.88l2.26-.033a8,8,0,0,1,7.46,11.408,129.969,129.969,0,0,1-14.553,24.062c-11.007,14.335-22.224,23.533-35.3,28.947A51.993,51.993,0,0,1,871.519,698.4Zm30.092-192.572c-8.237.188-15.6,2.928-23.384,8.388-10.829,7.6-19.86,18.065-27.608,32a145.921,145.921,0,0,0-18.277,64.632c-.857,18.162,1.71,33.591,7.847,47.172,3.563,7.886,7.939,13.739,13.375,17.893,5.716,4.367,11.59,6.49,17.955,6.49a36.148,36.148,0,0,0,13.753-3c10.374-4.3,19.5-11.892,28.729-23.909a108.622,108.622,0,0,0,7.145-10.535q-1.123-.2-2.213-.461c-16.757-3.938-26.583-15.083-28.413-32.231a57.455,57.455,0,0,1,11.75-41.609c8.225-10.793,20.509-14.72,34.683-10.933q1.954.522,3.919,1.223c-1.137-13.77-4.415-28.246-13.562-40.931C920.427,510.472,912.021,505.832,901.611,505.832Z" transform="translate(-706.894 -470.041)" fill="#00274d"/></g><g transform="translate(994.579 446.802)"><path d="M993.025,589.086c-7.282.494-13.624-2.413-19.818-5.649-13.045-6.81-24.652-15.724-36.039-24.941-6.025-4.877-11.86-9.979-17.675-15.1a8.906,8.906,0,0,1-2.809-4.43c-3.386-11.681-8.371-22.577-16.294-31.938-16.93-20-41.419-25.022-65.056-13.417-15.279,7.5-27.149,18.928-37.068,32.49-15.849,21.674-25.3,46.058-30.155,72.341a167.309,167.309,0,0,0-2.685,39.251c1.016,19.453,5.039,38.135,15.4,54.973,7.537,12.249,17.606,21.569,31.664,25.8,13.572,4.08,26.614,2,39.21-3.966,11-5.2,20.194-12.79,28.349-21.692a7.4,7.4,0,0,1,4.162-2.323c16.462-3.569,33.148-4.419,49.932-4.268,9.868.088,19.7.8,29.529,1.516.693.069,1.393.1,2.08.21,11.926,1.812,22.777-.582,31.895-8.728a76.1,76.1,0,0,0,20.454-29.38c7.341-18.8,3.739-36.129-10.224-49.746C1003.426,595.742,998.255,592.375,993.025,589.086Zm-220.74,40.1a139.717,139.717,0,0,1,1.091-18.035c.619-4.961,1.348-9.923,2.339-14.821,4.626-22.834,12.954-44.167,26.336-63.356,8.871-12.717,19.422-23.745,33.16-31.3,10.189-5.606,20.993-8.542,32.709-6.448,12.735,2.276,22.3,9.48,29.685,19.757,10.541,14.659,14.974,31.475,16.666,49.127a164.194,164.194,0,0,1-5.171,58.138c-6.123,23.085-15.973,44.338-31.526,62.673-8.908,10.5-19.2,19.316-32.108,24.581-16.163,6.593-31.513,5.367-45.544-5.541-7.69-5.98-13.076-13.832-17.191-22.563C774.939,664.862,772.327,647.274,772.286,629.186Z" transform="translate(-670.45 -479.943)" fill="#ffeb00"/><path d="M748.386,640.867c-.607,1.2.6,1.322,1.12,1.767,4.284,3.669,8.005,7.762,9.619,13.319,2.509,8.64-.866,15.763-6.013,22.376-.48.615-1.022,1.185-1.561,1.751-2.7,2.836-2.977,6.019-.357,8.916,1.273,1.406.956,2.211.082,3.533-7.2,10.906-14.365,21.837-20.049,33.644-1.424,2.956-2.856,5.939-2.9,9.329-.012.944-.719,1.353-1.275,1.861a28.627,28.627,0,0,0-5.363,6.189,6.638,6.638,0,0,0-.568,6.258,62.5,62.5,0,0,0,12.15,19.9,26.515,26.515,0,0,0,12.949,7.59,6.767,6.767,0,0,1,2.534,1.144c2.086,1.659,3.126,1.6,5.094-.188a13.215,13.215,0,0,0,3.091-4.109c3.678-7.768,8.548-14.89,12.044-22.769,7.609-17.156,14.553-34.578,21.253-52.1a4.956,4.956,0,0,0,.447-2.5,9.583,9.583,0,0,1,1.667-6.213c1.78-3.042,3.968-4.64,7.886-4.493a16.072,16.072,0,0,0,14.147-6.683,110.969,110.969,0,0,0,12.433-22.28,2.946,2.946,0,0,1,3.128-2.041,127.381,127.381,0,0,0,30.51-4.82c10.643-2.971,17.6-10.375,22.3-20.1a62.812,62.812,0,0,0,5.9-22.564c.31-3.937-1.011-7.584-2.687-11.051-5.024-10.391-12.161-19.3-19.8-27.831a10.112,10.112,0,0,0-3.616-2.129C850.484,561.13,837.9,557.105,825.343,553q-21.054-6.892-42.325-13.08a3.847,3.847,0,0,0-2.268-.356c.386.9,1.332,1.024,2.051,1.434,7.378,4.207,13.8,9.492,18.454,16.678,7.652,11.822,8.019,24.538,4.188,37.626-4.133,14.118-12.087,26.152-21.038,37.594a8.852,8.852,0,0,0-1.685,3.275,11.645,11.645,0,0,1-4.334,6.679c-4.254,2.911-9.227,3.439-14.367,2.728C758.547,644.817,753.514,642.712,748.386,640.867Zm11.3,53.592c-7.745,16.533-15.319,32.706-22.887,48.878C735.788,737.154,753.864,698.159,759.689,694.459Zm-5.559,69.133c-6.313,1.3-17.142-10.493-17.271-18.654C742.641,751.184,748.343,757.342,754.131,763.592ZM824.6,653.01q-18.339-4.266-36.676-8.534C800.423,646.128,812.763,648.472,824.6,653.01Zm-38.056-8.731-5.075-1.062A8.975,8.975,0,0,1,786.544,644.279Z" transform="translate(-443.281 -430.114)" fill="#ffeb00"/><path d="M979.45,483.821c-4.409,2.456-8.021,5.931-11.617,9.368-25.024,23.909-40.513,53.136-47.993,86.743-5.044,22.664-5.833,45.568-3.379,68.615.372,3.5.766,6.988,1.463,10.5.482-5.49.842-10.992,1.459-16.464C924.4,598.094,934.8,555.19,956.922,515.77a177.134,177.134,0,0,1,21.384-30.218c.452-.515,1.1-.9,1.226-1.663Z" transform="translate(-915.12 -483.472)" fill="#ffeb00"/><path d="M767.1,641.81c5.128,1.845,10.161,3.951,15.634,4.707,5.14.711,10.113.182,14.367-2.728a11.645,11.645,0,0,0,4.335-6.679,8.852,8.852,0,0,1,1.684-3.275c8.951-11.442,16.905-23.476,21.038-37.594,3.831-13.088,3.465-25.8-4.187-37.626-4.654-7.186-11.076-12.471-18.454-16.678-.719-.409-1.665-.535-2.051-1.434l.041.041c-.439-.094-.987.078-1.226-.5a3.932,3.932,0,0,1-2.34-.874c-1.9-1.06-3.475-.956-4.7.993,5.23,3.289,10.4,6.656,14.852,11,13.963,13.617,17.565,30.943,10.224,49.746a76.1,76.1,0,0,1-20.454,29.38c-9.118,8.146-19.968,10.539-31.895,8.728-.687-.106-1.387-.141-2.08-.21l3.3,2.362c.358.02.85-.357.987.327l-.024-.012c.46-.149.805-.063.944.452Z" transform="translate(-459.67 -429.514)" fill="#f9f9f9"/><path d="M906.87,630.276c.21-2.388.4-4.732.623-7.075,2.907-29.895,9.321-58.92,21.575-86.48a152.841,152.841,0,0,1,24.272-38.832c.245-.28.441-.6.758-1.036-1.359-.153-1.97.793-2.7,1.393-19.13,15.775-31.9,35.83-39.606,59.231a148.822,148.822,0,0,0-7.21,43.8,183.181,183.181,0,0,0,1.453,27.607C906.1,629.346,905.834,630.025,906.87,630.276Z" transform="translate(-868.968 -470.995)" fill="#ffeb00"/><path d="M931.364,509.8c-1.7-.235-2.45,1.081-3.367,1.916-13.5,12.29-22.285,27.435-27.047,44.98-4.115,15.164-4.558,30.553-2.7,46.071.1.838.35,1.657.509,2.378C901.838,570.809,909.193,537.877,931.364,509.8Z" transform="translate(-831.854 -458.593)" fill="#ffeb00"/><path d="M775.688,539.285c.239.582.787.409,1.226.5C776.724,539.083,776.129,539.371,775.688,539.285Z" transform="translate(-439.403 -430.302)" fill="#010000"/><path d="M793.7,591.283c-.137-.684-.629-.307-.987-.327C792.962,591.291,793.22,591.614,793.7,591.283Z" transform="translate(-489.523 -380.85)" fill="#010000"/><path d="M793.183,591.56c-.139-.515-.484-.6-.944-.452C792.359,591.665,792.474,592.235,793.183,591.56Z" transform="translate(-488.09 -380.686)" fill="#010000"/><path d="M915.016,484.06l.358-.2-.255-.213c-.061.119-.12.237-.182.352Z" transform="translate(-850.603 -483.643)" fill="#fefaf9"/><path d="M819.763,625.719c.041,18.088,2.654,35.677,10.445,52.206,4.115,8.732,9.5,16.584,17.191,22.564,14.032,10.908,29.382,12.134,45.544,5.541,12.905-5.265,23.2-14.081,32.108-24.581,15.554-18.335,25.4-39.588,31.526-62.673a164.2,164.2,0,0,0,5.171-58.139c-1.692-17.651-6.125-34.468-16.666-49.127-7.39-10.277-16.95-17.481-29.685-19.757-11.717-2.094-22.52.842-32.709,6.448-13.738,7.56-24.289,18.588-33.16,31.3-13.382,19.189-21.71,40.523-26.336,63.356-.991,4.9-1.72,9.86-2.339,14.821A139.719,139.719,0,0,0,819.763,625.719Zm1.724-2.391a150.714,150.714,0,0,1,3.085-30.771c4.46-22.011,12.588-42.487,25.874-60.722,9.1-12.492,19.978-23.022,34.2-29.644,21.259-9.9,42.986-4.954,57.672,13.372,10.98,13.7,15.6,29.893,17.587,47a144.85,144.85,0,0,1-1.89,43.913c-4.421,23.345-12.953,44.98-27.255,64.114-9.211,12.326-20.149,22.744-34.511,28.878-15.734,6.72-31.078,6.211-45.513-3.633-8.277-5.643-14.155-13.425-18.582-22.3C824.273,657.731,821.518,640.81,821.486,623.327Z" transform="translate(-711.195 -476.496)" fill="#fff"/><path d="M873.865,710.568h0a40.591,40.591,0,0,1-13.714-2.375,47.408,47.408,0,0,1-13.058-7.311c-7.028-5.466-12.7-12.906-17.336-22.745a100.874,100.874,0,0,1-4.938-12.65,111.756,111.756,0,0,1-3.23-12.99,146.314,146.314,0,0,1-2.325-26.778,140.8,140.8,0,0,1,1.095-18.1c.726-5.816,1.471-10.538,2.345-14.858a184.294,184.294,0,0,1,9.912-33.135,161.159,161.159,0,0,1,7.364-15.576,154.789,154.789,0,0,1,9.139-14.832,119.14,119.14,0,0,1,14.817-17.66,91.8,91.8,0,0,1,8.723-7.467,83.269,83.269,0,0,1,9.789-6.331c8.789-4.836,17.087-7.187,25.366-7.187a43.735,43.735,0,0,1,7.672.684,44.248,44.248,0,0,1,9.074,2.632,43.188,43.188,0,0,1,7.968,4.326,53.452,53.452,0,0,1,12.961,13,80.5,80.5,0,0,1,6.856,11.449A89.141,89.141,0,0,1,957.21,534.8a122.258,122.258,0,0,1,5.036,25.79,157.023,157.023,0,0,1,.019,29.39,176.85,176.85,0,0,1-5.2,28.924c-1.56,5.88-3.355,11.6-5.336,17a166.576,166.576,0,0,1-6.926,16.213,149.456,149.456,0,0,1-8.7,15.325,141.256,141.256,0,0,1-10.665,14.332,101.72,101.72,0,0,1-14.627,14.323,72.558,72.558,0,0,1-17.674,10.4A51.151,51.151,0,0,1,873.865,710.568Zm33.948-218.992c-8.106,0-16.246,2.31-24.884,7.063a82.26,82.26,0,0,0-9.67,6.254,90.788,90.788,0,0,0-8.628,7.385,118.151,118.151,0,0,0-14.693,17.513,153.778,153.778,0,0,0-9.08,14.736,160.16,160.16,0,0,0-7.318,15.479,183.293,183.293,0,0,0-9.857,32.955c-.869,4.3-1.61,8.993-2.333,14.784a139.8,139.8,0,0,0-1.087,17.971,145.337,145.337,0,0,0,2.308,26.6,110.76,110.76,0,0,0,3.2,12.873,99.877,99.877,0,0,0,4.889,12.524c4.569,9.694,10.144,17.015,17.046,22.382a46.411,46.411,0,0,0,12.781,7.159,39.594,39.594,0,0,0,13.377,2.316h0a50.158,50.158,0,0,0,18.889-4,71.572,71.572,0,0,0,17.433-10.257,100.737,100.737,0,0,0,14.483-14.185,140.246,140.246,0,0,0,10.589-14.23,148.45,148.45,0,0,0,8.644-15.222,165.578,165.578,0,0,0,6.884-16.116c1.97-5.37,3.756-11.059,5.308-16.909a175.857,175.857,0,0,0,5.175-28.76,156.02,156.02,0,0,0-.019-29.2,121.28,121.28,0,0,0-4.993-25.581,88.139,88.139,0,0,0-4.811-11.995,79.488,79.488,0,0,0-6.771-11.307,52.459,52.459,0,0,0-12.715-12.759,42.19,42.19,0,0,0-7.783-4.226,43.249,43.249,0,0,0-8.869-2.572A42.736,42.736,0,0,0,907.813,491.576ZM875.89,704.456a42.422,42.422,0,0,1-12.91-2.008,48.458,48.458,0,0,1-12.525-6.2c-7.678-5.234-13.81-12.591-18.747-22.489a94.424,94.424,0,0,1-5.014-12.116,103.065,103.065,0,0,1-3.307-12.48,131.792,131.792,0,0,1-2.4-25.83,151.97,151.97,0,0,1,3.095-30.871,170.2,170.2,0,0,1,9.656-31.871,146.955,146.955,0,0,1,7.251-14.91,140.824,140.824,0,0,1,9.053-14.136,106.838,106.838,0,0,1,15.252-17.1,82.611,82.611,0,0,1,9.012-6.994,76.081,76.081,0,0,1,10.132-5.706,51.291,51.291,0,0,1,21.707-5.052,43.664,43.664,0,0,1,19.807,4.7,50.845,50.845,0,0,1,16.76,13.864,72.3,72.3,0,0,1,7.15,10.792,80.441,80.441,0,0,1,5.1,11.576A114.425,114.425,0,0,1,960.4,562.5a136.657,136.657,0,0,1,.733,22.11,158.207,158.207,0,0,1-2.629,21.954c-1.121,5.919-2.508,11.714-4.124,17.224a159.738,159.738,0,0,1-5.828,16.512,146.408,146.408,0,0,1-7.689,15.725,141,141,0,0,1-9.705,14.86,105.085,105.085,0,0,1-15.4,16.84,78.282,78.282,0,0,1-9.089,6.794,70.98,70.98,0,0,1-10.229,5.4A52.433,52.433,0,0,1,875.89,704.456Zm30.252-206.77a50.3,50.3,0,0,0-21.284,4.958,75.073,75.073,0,0,0-10,5.631,81.613,81.613,0,0,0-8.9,6.909,105.855,105.855,0,0,0-15.109,16.944,139.83,139.83,0,0,0-8.988,14.035,145.925,145.925,0,0,0-7.2,14.809,169.2,169.2,0,0,0-9.6,31.683,150.973,150.973,0,0,0-3.075,30.669,130.817,130.817,0,0,0,2.381,25.637,102.067,102.067,0,0,0,3.274,12.359,93.412,93.412,0,0,0,4.961,11.987c4.859,9.742,10.883,16.974,18.416,22.109a47.46,47.46,0,0,0,12.266,6.078,41.423,41.423,0,0,0,12.606,1.961A51.444,51.444,0,0,0,896.053,699a69.978,69.978,0,0,0,10.084-5.329,77.28,77.28,0,0,0,8.973-6.707,104.106,104.106,0,0,0,15.25-16.682A139.994,139.994,0,0,0,940,655.532a145.385,145.385,0,0,0,7.636-15.617,158.7,158.7,0,0,0,5.791-16.409c1.606-5.478,2.986-11.241,4.1-17.128a157.209,157.209,0,0,0,2.612-21.815,135.649,135.649,0,0,0-.727-21.947,113.445,113.445,0,0,0-5.4-24.667,79.434,79.434,0,0,0-5.032-11.432,71.284,71.284,0,0,0-7.051-10.642,49.854,49.854,0,0,0-16.429-13.6A42.674,42.674,0,0,0,906.142,497.686Z" transform="translate(-711.195 -476.496)" fill="#fff"/><path d="M809.392,618.606c-5.825,3.7-23.9,42.695-22.889,48.876C794.073,651.312,801.647,635.139,809.392,618.606Z" transform="translate(-489.983 -352.659)" fill="#eee"/><path d="M806.571,663.032c-5.788-6.25-11.489-12.408-17.271-18.654C789.429,652.54,800.258,664.331,806.571,663.032Z" transform="translate(-495.721 -329.555)" fill="#f6f6f6"/><path d="M790,601.621c-11.838-4.538-24.177-6.883-36.676-8.534Q771.66,597.356,790,601.621Z" transform="translate(-408.677 -378.725)" fill="#eee"/><path d="M777.826,593.506a8.977,8.977,0,0,0-5.075-1.062Z" transform="translate(-434.562 -379.341)" fill="#e63300"/><path d="M934.008,637.766a51.058,51.058,0,0,1-13.245-1.056c-13.244-3.112-20.793-11.274-22.289-25.292a49.149,49.149,0,0,1,10.157-35.91c6.693-8.783,15.838-10.837,26.256-8.054a51.034,51.034,0,0,1,12.04,5.114c.725.413,1.465.8,2.5,1.359-.229-21.114-3.085-41.19-15.63-58.589-8.113-11.252-19-17.837-33.242-17.495-10,.241-18.846,4.158-26.924,9.827-12.882,9.039-22.427,21.032-30,34.658a153.218,153.218,0,0,0-19.277,68.143c-.828,17.557,1.234,34.658,8.548,50.843,3.686,8.158,8.626,15.467,15.808,20.955,12.261,9.366,25.637,10.316,39.625,4.524,13.34-5.523,23.373-15.174,32.014-26.428A122.5,122.5,0,0,0,934.008,637.766Z" transform="translate(-706.894 -470.041)" fill="#fefefe"/></g><g transform="matrix(0.999, 0.035, -0.035, 0.999, 1020.814, 459.135)"><path d="M860.473,485.46a50.708,50.708,0,0,1,22.344,5.147,58.716,58.716,0,0,1,19.1,15.125c7.385,8.725,12.844,19.413,16.688,32.673a6.9,6.9,0,0,0,2.21,3.487c5.84,5.146,11.582,10.169,17.611,15.049,10.24,8.288,22.288,17.718,35.706,24.723,5.3,2.771,11.006,5.477,17.266,5.477.5,0,1-.017,1.49-.05a2,2,0,0,1,1.2.3c5.4,3.4,10.625,6.812,15.184,11.259,7.246,7.066,11.843,15.126,13.664,23.956s.82,18.234-2.973,27.949A78.256,78.256,0,0,1,998.98,680.7a38.245,38.245,0,0,1-12.254,7.455,39.456,39.456,0,0,1-13.693,2.352,50.7,50.7,0,0,1-7.58-.594c-.4-.062-.827-.1-1.276-.135-.219-.018-.444-.037-.673-.059l-.083-.006c-9.6-.7-19.525-1.416-29.293-1.5-1.2-.011-2.4-.016-3.556-.016-18,0-32.594,1.347-45.934,4.239a5.42,5.42,0,0,0-3.112,1.72c-9.184,10.025-18.66,17.269-28.968,22.148a68.93,68.93,0,0,1-12.715,4.618,54.276,54.276,0,0,1-13.125,1.657,51.4,51.4,0,0,1-14.8-2.2A52.795,52.795,0,0,1,792.926,710.1a60.877,60.877,0,0,1-7.484-7.551,75.739,75.739,0,0,1-6.319-8.838,96.037,96.037,0,0,1-6.776-13.234,105.869,105.869,0,0,1-4.659-13.81,141.214,141.214,0,0,1-4.26-28.873,164.045,164.045,0,0,1,.187-19.941,177.4,177.4,0,0,1,2.529-19.778c1.24-6.707,2.779-13.278,4.577-19.532a183.376,183.376,0,0,1,6.495-18.761,168.531,168.531,0,0,1,8.587-17.9,162.549,162.549,0,0,1,10.849-16.961c11.17-15.272,23.534-26.1,37.8-33.1A58.814,58.814,0,0,1,860.473,485.46ZM991.4,591.141c-7.166,0-13.374-2.93-19.118-5.931-13.745-7.176-25.981-16.749-36.371-25.159-6.088-4.928-11.865-9.982-17.739-15.157a10.921,10.921,0,0,1-3.408-5.375,98.153,98.153,0,0,0-6.316-16.506,72,72,0,0,0-9.584-14.7,54.746,54.746,0,0,0-17.8-14.112,46.74,46.74,0,0,0-20.6-4.745,54.856,54.856,0,0,0-24.257,5.943c-13.671,6.712-25.556,17.139-36.335,31.875A158.529,158.529,0,0,0,789.3,543.82a164.532,164.532,0,0,0-8.382,17.478,179.347,179.347,0,0,0-6.352,18.35c-1.762,6.13-3.272,12.575-4.488,19.154a173.4,173.4,0,0,0-2.472,19.331,160.028,160.028,0,0,0-.182,19.453,137.287,137.287,0,0,0,4.133,28.062,101.862,101.862,0,0,0,4.481,13.287,92.024,92.024,0,0,0,6.493,12.681,71.734,71.734,0,0,0,5.982,8.37,56.87,56.87,0,0,0,6.989,7.054,48.795,48.795,0,0,0,17.565,9.506,47.4,47.4,0,0,0,13.65,2.032,50.273,50.273,0,0,0,12.155-1.538,64.935,64.935,0,0,0,11.973-4.353c9.832-4.653,18.9-11.6,27.73-21.235a9.33,9.33,0,0,1,5.211-2.926c13.628-2.954,28.493-4.33,46.783-4.33,1.168,0,2.376.005,3.592.016,9.895.088,19.885.813,29.547,1.513l.109.008.052,0c.207.021.416.038.638.056.5.042,1.014.084,1.549.167a46.678,46.678,0,0,0,6.975.547,35.471,35.471,0,0,0,12.31-2.1,34.265,34.265,0,0,0,10.973-6.685,75.664,75.664,0,0,0,11.666-13.116,74.5,74.5,0,0,0,8.257-15.5c3.507-8.983,4.443-17.625,2.781-25.686-1.656-8.033-5.875-15.4-12.539-21.9a82.99,82.99,0,0,0-13.983-10.4C992.132,591.133,991.764,591.141,991.4,591.141Zm-93.8-78.165a2,2,0,0,1,1.625.832,5.31,5.31,0,0,1,.406.7,115.116,115.116,0,0,1,9.761,23.656c3.974,11.011,6.284,19.671,6.866,25.743a158.527,158.527,0,0,1,.02,29.671,178.362,178.362,0,0,1-5.248,29.171c-1.571,5.925-3.381,11.688-5.377,17.13a168.1,168.1,0,0,1-6.989,16.36,150.944,150.944,0,0,1-8.79,15.48A142.762,142.762,0,0,1,879.1,686.209c-.7.822-1.248,1.471-2.262,1.471a2.021,2.021,0,0,1-1.746-1.009,2.069,2.069,0,0,1-.16-1.693,3.387,3.387,0,0,1,.161-.4c.083-.177.2-.4.369-.706.288-.522.717-1.261,1.259-2.2,2.134-3.682,6.107-10.534,10.606-19.75a255.78,255.78,0,0,0,13.7-33.8,189.009,189.009,0,0,0,8.737-42.617,142.236,142.236,0,0,0,.013-22.963,120.556,120.556,0,0,0-4.184-23.138c-3.881-10.737-8.279-20.633-9.488-23.015l-.242-.437a2,2,0,0,1,1.746-2.974ZM896.5,651.525c1.951-4.18,3.765-8.546,5.406-13.019,1.955-5.326,3.726-10.971,5.266-16.777q.286-1.08.559-2.159-1.317,4.857-2.9,9.773C902.477,636.672,899.687,644.1,896.5,651.525Z" transform="translate(-664.83 -509.965)" fill="#00274d"/><path d="M781.291,537.481a5.678,5.678,0,0,1,1.907.391c.138.047.268.092.381.125,15.211,4.457,29.075,8.741,42.386,13.1l2.149.7c11.692,3.823,23.783,7.775,35.258,12.952.18.081.363.161.557.245a10.015,10.015,0,0,1,3.726,2.373c6.913,7.717,14.709,17.113,20.115,28.294a32.873,32.873,0,0,1,2.217,5.694,18.453,18.453,0,0,1,.663,6.384,69.949,69.949,0,0,1-1.952,11.9,61.548,61.548,0,0,1-4.144,11.378,44.368,44.368,0,0,1-9.349,13.173,33.8,33.8,0,0,1-14.212,7.987,140.008,140.008,0,0,1-15.32,3.385,121.659,121.659,0,0,1-15.668,1.508,2.032,2.032,0,0,0-.916.15c-.056.035-.212.174-.44.695-2.857,6.5-6.878,14.957-12.665,22.676a17.98,17.98,0,0,1-14.967,7.5c-.282,0-.57-.005-.856-.016-.139-.005-.278-.008-.412-.008-2.636,0-4.173.952-5.672,3.513-1.2,2.044-1.605,3.475-1.41,4.938a6.847,6.847,0,0,1-.561,3.481c-8.038,21.021-14.605,37.119-21.293,52.2-1.916,4.317-4.249,8.436-6.505,12.42-1.91,3.373-3.886,6.86-5.559,10.394a15.14,15.14,0,0,1-3.555,4.735,6,6,0,0,1-3.93,1.9,6.159,6.159,0,0,1-3.752-1.634,4.93,4.93,0,0,0-1.822-.782,28.486,28.486,0,0,1-13.89-8.165,64.17,64.17,0,0,1-12.54-20.53,8.973,8.973,0,0,1-.628-4.152,9.142,9.142,0,0,1,1.351-3.873,30.051,30.051,0,0,1,5.726-6.629c.118-.108.238-.209.343-.3s.2-.173.28-.245c.083-3.786,1.614-6.962,3.095-10.036,5.872-12.2,13.474-23.715,20.181-33.877a5.182,5.182,0,0,0,.411-.7,2.606,2.606,0,0,0-.307-.394c-3.259-3.6-3.113-7.953.39-11.636l.006-.007c.519-.546,1.009-1.061,1.427-1.6a31.773,31.773,0,0,0,5.549-9.8,17.972,17.972,0,0,0,.121-10.784,20.161,20.161,0,0,0-3.475-6.709,37.472,37.472,0,0,0-5.478-5.609c-.039-.022-.106-.057-.157-.084a3.592,3.592,0,0,1-1.413-1.15,2.825,2.825,0,0,1-.08-2.994,2,2,0,0,1,2.462-.979c.846.3,1.7.62,2.525.924a60.763,60.763,0,0,0,12.706,3.683,26.7,26.7,0,0,0,3.638.264,15.969,15.969,0,0,0,9.325-2.662,9.631,9.631,0,0,0,3.529-5.535,10.752,10.752,0,0,1,2.046-4A156.89,156.89,0,0,0,795,614.088a86.053,86.053,0,0,0,8.52-19.353c4.053-13.845,2.762-25.613-3.947-35.977-4.074-6.291-9.885-11.534-17.766-16.027-.094-.054-.25-.12-.415-.19a4.2,4.2,0,0,1-2.483-2.192,2,2,0,0,1,1.261-2.7A3.869,3.869,0,0,1,781.291,537.481Zm19.727,146.607a13.989,13.989,0,0,0,11.766-5.9c5.541-7.392,9.432-15.578,12.2-21.884a5.22,5.22,0,0,1,1.969-2.47,5.679,5.679,0,0,1,2.93-.765,117.632,117.632,0,0,0,15.152-1.459,135.977,135.977,0,0,0,14.88-3.289c9.211-2.571,16.092-8.8,21.034-19.044a57.538,57.538,0,0,0,3.873-10.636,65.947,65.947,0,0,0,1.838-11.215c.29-3.688-1.1-7.136-2.494-10.023-5.19-10.733-12.766-19.857-19.493-27.367a6.84,6.84,0,0,0-2.341-1.373c-.2-.086-.4-.175-.607-.267-11.279-5.088-23.265-9.007-34.856-12.8l-2.15-.7c-10.485-3.432-21.314-6.82-32.88-10.282a48.839,48.839,0,0,1,11.093,11.97,43.413,43.413,0,0,1,4.634,9.464,41.708,41.708,0,0,1,2.079,9.782,47.861,47.861,0,0,1-.181,9.967,62.41,62.41,0,0,1-2.1,10.062,89.987,89.987,0,0,1-8.9,20.247,160.749,160.749,0,0,1-12.477,18.017,6.9,6.9,0,0,0-1.325,2.551,15.4,15.4,0,0,1-2.01,4.563,9.539,9.539,0,0,1,4.861,1.284,2,2,0,0,1,.681-.027c10.349,1.367,23.922,3.586,37.13,8.649a2,2,0,0,1-1.169,3.815q-18.339-4.266-36.676-8.534a1.884,1.884,0,0,0-1.337-.188l-5.075-1.062a2,2,0,0,1-1.271-.873q-.135.1-.273.194a20.1,20.1,0,0,1-11.584,3.361,30.712,30.712,0,0,1-4.186-.3,47.34,47.34,0,0,1-8.395-2.059c.558.624,1.073,1.246,1.554,1.873a24.085,24.085,0,0,1,4.141,8.026,21.972,21.972,0,0,1-.15,13.112,35.575,35.575,0,0,1-6.205,11.05c-.54.692-1.122,1.3-1.684,1.895l-.006.006a5.134,5.134,0,0,0-1.624,3.162,4.239,4.239,0,0,0,1.3,3.034,4.481,4.481,0,0,1,1.36,3.248,5.53,5.53,0,0,1-1.092,2.73c-6.637,10.056-14.16,21.454-19.915,33.408-1.37,2.843-2.663,5.528-2.7,8.487a4.013,4.013,0,0,1-1.7,3.114c-.085.072-.166.14-.23.2a26.306,26.306,0,0,0-5,5.753,4.626,4.626,0,0,0-.412,4.49,60.25,60.25,0,0,0,11.76,19.278,22.356,22.356,0,0,0,5.466,4.358,28.11,28.11,0,0,0,6.542,2.656A8.651,8.651,0,0,1,750,776.881c.933.742,1.231.764,1.262.764.012,0,.3-.01,1.244-.869a11.162,11.162,0,0,0,2.627-3.484c1.736-3.665,3.748-7.218,5.693-10.653,2.209-3.9,4.493-7.932,6.329-12.071,6.658-15.01,13.2-31.049,21.213-52a3.172,3.172,0,0,0,.333-1.52,11.5,11.5,0,0,1,1.923-7.49,11.342,11.342,0,0,1,3.628-4.016,9.858,9.858,0,0,1,5.5-1.476c.184,0,.373,0,.563.011C800.549,684.083,800.786,684.087,801.018,684.087Zm-41.329,8.372a2,2,0,0,1,1.812,2.848c-6.777,14.468-14.78,31.555-22.794,48.681,5.652,6.106,11.231,12.131,16.892,18.245a2,2,0,0,1-1.064,3.318,7.005,7.005,0,0,1-1.408.14,11.968,11.968,0,0,1-6.293-2.153,27.058,27.058,0,0,1-5.7-5c-3.866-4.422-6.212-9.493-6.277-13.565a1.4,1.4,0,0,0-.031-1.308c-.192-1.17-.15-3.555,2.42-10.724,1.616-4.508,3.967-10.125,6.62-15.815,2.67-5.727,5.482-11.176,7.918-15.344a66.38,66.38,0,0,1,3.592-5.593,13.349,13.349,0,0,1,3.238-3.415A2,2,0,0,1,759.689,692.459ZM746.4,758.192l-3.342-3.609q.516.668,1.085,1.319A26.335,26.335,0,0,0,746.4,758.192Z" transform="translate(-442.039 -451.618)" fill="#00274d"/><path d="M775.688,538.285a1,1,0,0,1,.184.017h.044l.124,0c.064,0,.128,0,.19,0h0a1.582,1.582,0,0,1,1.649,1.232,1,1,0,0,1-1.175,1.238,1.889,1.889,0,0,0-.2-.017,1.784,1.784,0,0,1-1.74-1.085,1,1,0,0,1,.925-1.38Z" transform="translate(-439.403 -430.302)" fill="#00274d"/><path d="M793.325,592.422h0a1.779,1.779,0,0,1-1.414-.863,1,1,0,0,1,.8-1.6h.008l.087-.019a2.246,2.246,0,0,1,.5-.067,1.382,1.382,0,0,1,1.371,1.216,1,1,0,0,1-.409,1.018A1.637,1.637,0,0,1,793.325,592.422Z" transform="translate(-489.523 -380.85)" fill="#00274d"/><path d="M792.6,590.042a1.568,1.568,0,0,1,1.548,1.257,1,1,0,0,1-.276.985,1.8,1.8,0,0,1-1.213.583,1.3,1.3,0,0,1-1.19-.827,3.569,3.569,0,0,1-.206-.71l0-.013a1,1,0,0,1,.67-1.161A2.157,2.157,0,0,1,792.6,590.042Z" transform="translate(-488.09 -380.686)" fill="#00274d"/><path d="M809.391,617.606a1,1,0,0,1,.906,1.424c-8.724,18.624-16,34.155-22.889,48.876a1,1,0,0,1-1.893-.262,11.339,11.339,0,0,1,.47-4.123,63.91,63.91,0,0,1,1.906-6.1c1.606-4.48,3.945-10.066,6.585-15.729,2.657-5.7,5.454-11.12,7.875-15.261,2.8-4.789,4.988-7.705,6.5-8.668A1,1,0,0,1,809.391,617.606Zm-19.679,40.662c4.56-9.738,9.365-20,14.7-31.39-2.427,4.091-5.273,9.544-8.123,15.657-2.615,5.609-4.929,11.135-6.515,15.559Z" transform="translate(-492.983 -354.261)" fill="#00274d"/><path d="M805.567,664.131h0a11.011,11.011,0,0,1-5.757-2,26.053,26.053,0,0,1-5.48-4.817c-3.715-4.249-5.969-9.08-6.03-12.922a1,1,0,0,1,1.734-.7c5.782,6.246,11.483,12.4,17.271,18.654a1,1,0,0,1-.532,1.659A6,6,0,0,1,805.567,664.131ZM790.85,647.525a18.41,18.41,0,0,0,1.044,2.612A27.092,27.092,0,0,0,795.836,656a24.039,24.039,0,0,0,5.047,4.446,11.435,11.435,0,0,0,3.328,1.509Z" transform="translate(-495.721 -329.555)" fill="#00274d"/><path d="M790,602.621a1,1,0,0,1-.227-.026q-18.339-4.266-36.676-8.534a1,1,0,0,1,.358-1.965c7.173.948,13.106,1.964,18.671,3.2a127.876,127.876,0,0,1,18.232,5.392,1,1,0,0,1-.357,1.934Z" transform="translate(-408.677 -378.725)" fill="#00274d"/><path d="M777.826,594.506a1,1,0,0,1-.205-.021l-5.075-1.062a1,1,0,0,1,.2-1.979h.007a9.984,9.984,0,0,1,5.611,1.222,1,1,0,0,1-.543,1.84Z" transform="translate(-434.562 -379.341)" fill="#00274d"/><path d="M-16.168,175.264c-.03-.167-2.992-16.965-4.869-39.228-1.1-13.083-1.622-25.476-1.544-36.835a220.706,220.706,0,0,1,3.1-37.615A139.644,139.644,0,0,1-8.442,27.962,197.525,197.525,0,0,1,7.809-.253C19-16.543,29.959-27.811,33.242-30.45l2.506,3.117A93.2,93.2,0,0,0,26.564-17.9,214.843,214.843,0,0,0,11.106,2.012,193.519,193.519,0,0,0-4.816,29.652,135.657,135.657,0,0,0-15.542,62.307a216.707,216.707,0,0,0-3.039,36.9c-.079,11.232.435,23.5,1.526,36.453,1.861,22.089,4.8,38.739,4.825,38.9Z" transform="translate(17.018 0.153) rotate(7)" fill="#00274d"/><path d="M-19.683,131.275c-.013-.131-1.354-13.3-2.2-30.753-.5-10.256-.734-19.97-.7-28.873.045-11.152.517-21.062,1.4-29.453a170.935,170.935,0,0,1,4.988-26.32A204.328,204.328,0,0,1-8.833-6.262c5.081-12.815,10.08-21.707,11.58-23.8L6-27.725C3.571-24.348-13.373,6.338-17.2,42.616c-.872,8.258-1.337,18.032-1.381,29.049-.035,8.833.2,18.476.694,28.663.844,17.35,2.174,30.409,2.188,30.539Z" transform="matrix(0.974, 0.225, -0.225, 0.974, 50.836, 36.035)" fill="#00274d"/><path d="M-1.252,71.674A303.718,303.718,0,0,1-13.731,43.706a171.291,171.291,0,0,1-7.523-24.115A77.294,77.294,0,0,1-22.98,8.06a36,36,0,0,1,.612-10.134c2.724-11.988,5.4-22.281,7.731-29.766,3.742-12,5.9-14.622,7.354-15.566l2.174,3.358c-.032.021-.812.553-2.265,3.833a93.311,93.311,0,0,0-3.444,9.566c-2.3,7.386-4.948,17.573-7.649,29.461-2,8.8.926,23.814,8.457,43.424a299.434,299.434,0,0,0,12.3,27.587Z" transform="translate(70.543 80.675) rotate(18)" fill="#00274d"/></g></g><rect width="485" height="381" transform="translate(219 1438)" fill="none"/></g></svg>