<svg xmlns="http://www.w3.org/2000/svg" width="485" height="381" viewBox="0 0 485 381"><g transform="translate(30 -2551)"><g transform="translate(-916.458 2216.987)"><g transform="translate(974.547 382.692) rotate(7)"><path d="M3.753,0A3.745,3.745,0,0,0,0,3.753V215.376a3.745,3.745,0,0,0,3.753,3.754h331.07a3.745,3.745,0,0,0,3.754-3.754V3.753A3.745,3.745,0,0,0,334.824,0ZM137.936,29.574h62.707a1.991,1.991,0,0,1,1.995,2v6.886a1.99,1.99,0,0,1-1.995,1.995H137.936a1.991,1.991,0,0,1-2-1.995V31.569A1.991,1.991,0,0,1,137.936,29.574Z" transform="translate(0 37.243)" fill="#0099db"/><path d="M3.753-8h331.07A11.767,11.767,0,0,1,346.577,3.753V215.376a11.767,11.767,0,0,1-11.754,11.754H3.753A11.767,11.767,0,0,1-8,215.376V3.753A11.767,11.767,0,0,1,3.753-8ZM330.577,8H8V211.13H330.577ZM137.936,21.574h62.707a10.006,10.006,0,0,1,9.995,10v6.886a10.006,10.006,0,0,1-9.995,9.995H137.936a10.006,10.006,0,0,1-10-9.995V31.569A10.007,10.007,0,0,1,137.936,21.574Z" transform="translate(0 37.243)" fill="#00274d"/><rect width="93.501" height="116.98" rx="10.957" transform="translate(37.894 97.432)" fill="#fff"/><path d="M10.957-8H82.544A18.978,18.978,0,0,1,101.5,10.957v95.066A18.978,18.978,0,0,1,82.544,124.98H10.957A18.978,18.978,0,0,1-8,106.023V10.957A18.978,18.978,0,0,1,10.957-8ZM82.544,108.98a2.96,2.96,0,0,0,2.957-2.957V10.957A2.96,2.96,0,0,0,82.544,8H10.957A2.96,2.96,0,0,0,8,10.957v95.066a2.96,2.96,0,0,0,2.957,2.957Z" transform="translate(37.894 97.432)" fill="#00274d"/><path d="M1.545,0A1.542,1.542,0,0,0,0,1.545V73.022a1.542,1.542,0,0,0,1.545,1.545H29.7a1.541,1.541,0,0,0,1.545-1.545V1.545A1.542,1.542,0,0,0,29.7,0Zm14.08,5.971a4.878,4.878,0,1,1-4.879,4.879A4.878,4.878,0,0,1,15.625,5.971Z" transform="translate(153.664 0)" fill="#ff4e00"/><path d="M1.545-8H29.7a9.556,9.556,0,0,1,9.545,9.545V73.022A9.556,9.556,0,0,1,29.7,82.567H1.545A9.556,9.556,0,0,1-8,73.022V1.545A9.556,9.556,0,0,1,1.545-8Zm14.08,31.728A12.811,12.811,0,0,1,8,21.222V66.567H23.249V21.223A12.811,12.811,0,0,1,15.625,23.728Z" transform="translate(153.664 0)" fill="#00274d"/><rect width="105.346" height="10.34" transform="translate(198.373 113.109)" fill="#fff"/><path d="M0-8H105.346a8,8,0,0,1,8,8V10.34a8,8,0,0,1-8,8H0a8,8,0,0,1-8-8V0A8,8,0,0,1,0-8Z" transform="translate(198.373 113.109)" fill="#00274d"/><rect width="75.151" height="10.34" transform="translate(198.373 133.79)" fill="#fff"/><path d="M0-8H75.151a8,8,0,0,1,8,8V10.34a8,8,0,0,1-8,8H0a8,8,0,0,1-8-8V0A8,8,0,0,1,0-8Z" transform="translate(198.373 133.79)" fill="#00274d"/><rect width="106.016" height="10.34" transform="translate(198.373 154.471)" fill="#fff"/><path d="M0-8H106.016a8,8,0,0,1,8,8V10.34a8,8,0,0,1-8,8H0a8,8,0,0,1-8-8V0A8,8,0,0,1,0-8Z" transform="translate(198.373 154.471)" fill="#00274d"/><rect width="54.349" height="10.34" transform="translate(198.373 173.946)" fill="#fff"/><path d="M0-8H54.349a8,8,0,0,1,8,8V10.34a8,8,0,0,1-8,8H0a8,8,0,0,1-8-8V0A8,8,0,0,1,0-8Z" transform="translate(198.373 173.946)" fill="#00274d"/><g transform="translate(54.035 110.189)"><circle cx="18.125" cy="18.125" r="18.125" transform="translate(12.485 0)" fill="#ddd"/><path d="M18.125-8A26.125,26.125,0,1,1-8,18.125,26.155,26.155,0,0,1,18.125-8Zm0,36.25A10.125,10.125,0,1,0,8,18.125,10.137,10.137,0,0,0,18.125,28.25Z" transform="translate(12.485 0)" fill="#00274d"/><path d="M17.044,0A17.006,17.006,0,0,0,0,17.044V49.691H61.22V17.044A17.006,17.006,0,0,0,44.177,0Z" transform="translate(0 41.77)" fill="#ddd"/><path d="M17.044-8H44.177A25.072,25.072,0,0,1,69.22,17.044V49.691a8,8,0,0,1-8,8H0a8,8,0,0,1-8-8V17.044A25.072,25.072,0,0,1,17.044-8ZM53.22,41.691V17.044A9.054,9.054,0,0,0,44.177,8H17.044A9.054,9.054,0,0,0,8,17.044V41.691Z" transform="translate(0 41.77)" fill="#00274d"/></g></g><g transform="matrix(0.978, 0.208, -0.208, 0.978, 978.169, 351.013)"><path d="M4.064-1.5H362.512a5.555,5.555,0,0,1,5.564,5.564V233.187a5.555,5.555,0,0,1-5.564,5.564H4.064A5.555,5.555,0,0,1-1.5,233.187V4.064A5.555,5.555,0,0,1,4.064-1.5ZM362.512,235.751a2.567,2.567,0,0,0,2.564-2.564V4.064A2.567,2.567,0,0,0,362.512,1.5H4.064A2.567,2.567,0,0,0,1.5,4.064V233.187a2.567,2.567,0,0,0,2.564,2.564ZM149.343,30.52h67.893a3.664,3.664,0,0,1,3.66,3.66v7.456a3.664,3.664,0,0,1-3.66,3.66H149.343a3.664,3.664,0,0,1-3.66-3.66V34.18A3.664,3.664,0,0,1,149.343,30.52ZM217.236,42.3a.653.653,0,0,0,.66-.66V34.18a.653.653,0,0,0-.66-.66H149.343a.653.653,0,0,0-.66.66v7.456a.653.653,0,0,0,.66.66Z" transform="translate(0 40.322)" fill="#fff"/><path d="M10.957-1.5H90.276a12.457,12.457,0,0,1,12.457,12.457V115.7a12.457,12.457,0,0,1-12.457,12.457H10.957A12.457,12.457,0,0,1-1.5,115.7V10.957A12.457,12.457,0,0,1,10.957-1.5ZM90.276,125.153a9.468,9.468,0,0,0,9.457-9.457V10.957A9.467,9.467,0,0,0,90.276,1.5H10.957A9.467,9.467,0,0,0,1.5,10.957V115.7a9.468,9.468,0,0,0,9.457,9.457Z" transform="translate(41.028 105.489)" fill="#fff"/><path d="M1.673-1.5H32.16a3.176,3.176,0,0,1,3.173,3.173V79.061a3.176,3.176,0,0,1-3.173,3.173H1.673A3.176,3.176,0,0,1-1.5,79.061V1.673A3.176,3.176,0,0,1,1.673-1.5ZM32.16,79.234a.169.169,0,0,0,.173-.173V1.673A.169.169,0,0,0,32.16,1.5H1.673a.169.169,0,0,0-.173.173V79.061a.169.169,0,0,0,.173.173ZM16.917,4.965a6.782,6.782,0,1,1-6.782,6.782A6.79,6.79,0,0,1,16.917,4.965Zm0,10.564a3.782,3.782,0,1,0-3.782-3.782A3.786,3.786,0,0,0,16.917,15.528Z" transform="translate(166.371 0)" fill="#fff"/><path d="M0-1.5H114.058a1.5,1.5,0,0,1,1.5,1.5V11.2a1.5,1.5,0,0,1-1.5,1.5H0a1.5,1.5,0,0,1-1.5-1.5V0A1.5,1.5,0,0,1,0-1.5Zm112.558,3H1.5V9.7H112.558Z" transform="translate(214.778 122.463)" fill="#fff"/><path d="M0-1.5H81.365a1.5,1.5,0,0,1,1.5,1.5V11.2a1.5,1.5,0,0,1-1.5,1.5H0a1.5,1.5,0,0,1-1.5-1.5V0A1.5,1.5,0,0,1,0-1.5Zm79.865,3H1.5V9.7H79.865Z" transform="translate(214.778 144.854)" fill="#fff"/><path d="M0-1.5H114.783a1.5,1.5,0,0,1,1.5,1.5V11.2a1.5,1.5,0,0,1-1.5,1.5H0a1.5,1.5,0,0,1-1.5-1.5V0A1.5,1.5,0,0,1,0-1.5Zm113.283,3H1.5V9.7H113.283Z" transform="translate(214.778 167.245)" fill="#fff"/><path d="M0-1.5H58.844a1.5,1.5,0,0,1,1.5,1.5V11.2a1.5,1.5,0,0,1-1.5,1.5H0a1.5,1.5,0,0,1-1.5-1.5V0A1.5,1.5,0,0,1,0-1.5Zm57.344,3H1.5V9.7H57.344Z" transform="translate(214.778 188.331)" fill="#fff"/><g transform="translate(58.503 119.301)"><path d="M19.624-1.5A21.118,21.118,0,0,1,34.561,34.561,21.124,21.124,0,1,1,11.4.161,20.993,20.993,0,0,1,19.624-1.5Zm0,39.248A18.124,18.124,0,0,0,32.44,6.808,18.124,18.124,0,1,0,6.808,32.44,18.005,18.005,0,0,0,19.624,37.748Z" transform="translate(13.518 0)" fill="#fff"/><path d="M18.453-1.5H47.83A19.908,19.908,0,0,1,67.783,18.453V53.8a1.5,1.5,0,0,1-1.5,1.5H0a1.5,1.5,0,0,1-1.5-1.5V18.453A19.908,19.908,0,0,1,18.453-1.5Zm46.33,53.8V18.453A16.912,16.912,0,0,0,47.83,1.5H18.453A16.912,16.912,0,0,0,1.5,18.453V52.3Z" transform="translate(0 45.224)" fill="#fff"/></g></g><g transform="translate(974.547 382.692) rotate(7)"><path d="M3.753,0A3.745,3.745,0,0,0,0,3.753V215.376a3.745,3.745,0,0,0,3.753,3.754h331.07a3.745,3.745,0,0,0,3.754-3.754V3.753A3.745,3.745,0,0,0,334.824,0ZM137.936,29.574h62.707a1.991,1.991,0,0,1,1.995,2v6.886a1.99,1.99,0,0,1-1.995,1.995H137.936a1.991,1.991,0,0,1-2-1.995V31.569A1.991,1.991,0,0,1,137.936,29.574Z" transform="translate(0 37.243)" fill="#0099db"/><rect width="93.501" height="116.98" rx="10.957" transform="translate(37.894 97.432)" fill="#fff"/><path d="M1.545,0A1.542,1.542,0,0,0,0,1.545V73.022a1.542,1.542,0,0,0,1.545,1.545H29.7a1.541,1.541,0,0,0,1.545-1.545V1.545A1.542,1.542,0,0,0,29.7,0Zm14.08,5.971a4.878,4.878,0,1,1-4.879,4.879A4.878,4.878,0,0,1,15.625,5.971Z" transform="translate(153.664 0)" fill="#ff4e00"/><rect width="105.346" height="10.34" transform="translate(198.373 113.109)" fill="#fff"/><rect width="75.151" height="10.34" transform="translate(198.373 133.79)" fill="#fff"/><rect width="106.016" height="10.34" transform="translate(198.373 154.471)" fill="#fff"/><rect width="54.349" height="10.34" transform="translate(198.373 173.946)" fill="#fff"/><g transform="translate(54.035 110.189)"><circle cx="18.125" cy="18.125" r="18.125" transform="translate(12.485 0)" fill="#ddd"/><path d="M17.044,0A17.006,17.006,0,0,0,0,17.044V49.691H61.22V17.044A17.006,17.006,0,0,0,44.177,0Z" transform="translate(0 41.77)" fill="#ddd"/></g></g><g transform="translate(980.458 370.985) rotate(7)"><path d="M3.865-1.5H344.815a5.357,5.357,0,0,1,5.365,5.365V221.8a5.357,5.357,0,0,1-5.365,5.366H3.865A5.357,5.357,0,0,1-1.5,221.8V3.865A5.357,5.357,0,0,1,3.865-1.5ZM344.815,224.169a2.368,2.368,0,0,0,2.365-2.366V3.865A2.368,2.368,0,0,0,344.815,1.5H3.865A2.368,2.368,0,0,0,1.5,3.865V221.8a2.368,2.368,0,0,0,2.365,2.366ZM142.052,28.956h64.579a3.559,3.559,0,0,1,3.555,3.555V39.6a3.559,3.559,0,0,1-3.555,3.555H142.052A3.559,3.559,0,0,1,138.5,39.6V32.511A3.559,3.559,0,0,1,142.052,28.956Zm64.579,11.2a.549.549,0,0,0,.555-.555V32.511a.549.549,0,0,0-.555-.555H142.052a.549.549,0,0,0-.555.555V39.6a.549.549,0,0,0,.555.555Z" transform="translate(0 38.354)" fill="#00274d"/><path d="M10.957-1.5H85.334A12.457,12.457,0,0,1,97.791,10.957v98.557A12.457,12.457,0,0,1,85.334,121.97H10.957A12.457,12.457,0,0,1-1.5,109.514V10.957A12.457,12.457,0,0,1,10.957-1.5ZM85.334,118.97a9.468,9.468,0,0,0,9.457-9.457V10.957A9.468,9.468,0,0,0,85.334,1.5H10.957A9.468,9.468,0,0,0,1.5,10.957v98.557a9.468,9.468,0,0,0,9.457,9.457Z" transform="translate(39.025 100.339)" fill="#00274d"/><path d="M1.591-1.5h29a3.094,3.094,0,0,1,3.091,3.091V75.2a3.094,3.094,0,0,1-3.091,3.091h-29A3.094,3.094,0,0,1-1.5,75.2V1.591A3.094,3.094,0,0,1,1.591-1.5Zm29,76.792a.088.088,0,0,0,.091-.091V1.591A.088.088,0,0,0,30.59,1.5h-29a.088.088,0,0,0-.091.091V75.2a.088.088,0,0,0,.091.091ZM16.091,4.649a6.524,6.524,0,1,1-6.524,6.524A6.531,6.531,0,0,1,16.091,4.649Zm0,10.048a3.524,3.524,0,1,0-3.524-3.524A3.528,3.528,0,0,0,16.091,14.7Z" transform="translate(158.249 0)" fill="#00274d"/><path d="M0-1.5H108.49a1.5,1.5,0,0,1,1.5,1.5V10.649a1.5,1.5,0,0,1-1.5,1.5H0a1.5,1.5,0,0,1-1.5-1.5V0A1.5,1.5,0,0,1,0-1.5Zm106.99,3H1.5V9.149H106.99Z" transform="translate(204.293 116.484)" fill="#00274d"/><path d="M0-1.5H77.393a1.5,1.5,0,0,1,1.5,1.5V10.649a1.5,1.5,0,0,1-1.5,1.5H0a1.5,1.5,0,0,1-1.5-1.5V0A1.5,1.5,0,0,1,0-1.5Zm75.893,3H1.5V9.149H75.893Z" transform="translate(204.293 137.782)" fill="#00274d"/><path d="M0-1.5H109.18a1.5,1.5,0,0,1,1.5,1.5V10.649a1.5,1.5,0,0,1-1.5,1.5H0a1.5,1.5,0,0,1-1.5-1.5V0A1.5,1.5,0,0,1,0-1.5Zm107.68,3H1.5V9.149H107.68Z" transform="translate(204.293 159.08)" fill="#00274d"/><path d="M0-1.5H55.971a1.5,1.5,0,0,1,1.5,1.5V10.649a1.5,1.5,0,0,1-1.5,1.5H0a1.5,1.5,0,0,1-1.5-1.5V0A1.5,1.5,0,0,1,0-1.5Zm54.471,3H1.5V9.149H54.471Z" transform="translate(204.293 179.137)" fill="#00274d"/><g transform="translate(55.647 113.477)"><path d="M18.666-1.5A20.16,20.16,0,0,1,32.925,32.925,20.166,20.166,0,1,1,10.816.085,20.041,20.041,0,0,1,18.666-1.5Zm0,37.332A17.166,17.166,0,0,0,30.8,6.528,17.166,17.166,0,1,0,6.528,30.8,17.054,17.054,0,0,0,18.666,35.832Z" transform="translate(12.858 0)" fill="#00274d"/><path d="M17.553-1.5H45.495A19.009,19.009,0,0,1,64.547,17.553V51.174a1.5,1.5,0,0,1-1.5,1.5H0a1.5,1.5,0,0,1-1.5-1.5V17.553A19.009,19.009,0,0,1,17.553-1.5ZM61.547,49.674V17.553A16.013,16.013,0,0,0,45.495,1.5H17.553A16.013,16.013,0,0,0,1.5,17.553V49.674Z" transform="translate(0 43.016)" fill="#00274d"/></g></g></g><rect width="485" height="381" transform="translate(-30 2551)" fill="none"/></g></svg>