<svg xmlns="http://www.w3.org/2000/svg" width="485" height="381" viewBox="0 0 485 381"><g transform="translate(42 -3661)"><g transform="translate(-29.737 3704.982)"><g transform="translate(-2.263 9.525)" style="isolation:isolate"><g transform="translate(286.564 66.436)"><path d="M352.442,136.68c-15.144.256-27.582,2.048-38.152,5.084-10.535,3.109-25.093,9.8-24.508,13.315.585,3.4,13.168,5.45,28.02,6.988,14.814,1.317,43.566,1.974,60.282,1.426,16.57-.621,29.19-2.267,38.553-4.937-24.508,1.792-45.395,2.634-63.794,2.816-18.4.037-35.883-.951-45.54-2.122-9.693-1.207-12.255-2.562-11.925-4.9.256-2.451,4.5-6.145,14.01-9.108C319.009,142.239,333.128,139.387,352.442,136.68Z" transform="translate(-289.765 -64.256)" fill="#fff" fill-rule="evenodd"/><path d="M380.28,135.433c15.144-1.134,27.983-1.134,38.957,0,10.9,1.061,22.46,4.1,26.373,6.731,3.841,2.634.366,6.218-3.365,8.779-3.877,2.414-10.389,4.316-19.68,5.853,9.364-2.6,15.327-5.158,18.436-7.535,3-2.451,3.512-5.011-.439-7.1-4.28-2.268-14.157-4.756-24.252-5.889a233.145,233.145,0,0,0-36.03-.842Z" transform="translate(-288.309 -64.289)" fill="#fff" fill-rule="evenodd"/><path d="M418.062,139.13c10.9,2.341,16.022,4.536,15.509,6.731-.768,2.158-8.742,4.243-18.838,6.254-10.1,1.866-23.593,3.548-41.042,5.049,16.68-2.268,29.19-4.316,38.115-6.292,8.816-2.012,13.461-3.548,14.632-5.45.988-2.012-1.756-4.061-8.377-6.292Z" transform="translate(-288.415 -64.216)" fill="#fff" fill-rule="evenodd"/><path d="M389.384,139.961a385.333,385.333,0,0,0-40.639,1.28c-12.108.988-24.069,3.035-30.544,5.011-6.548,1.975-9.254,4.353-7.535,6.292,1.829,1.792,7.865,3.328,18.4,4.609-10.315-1.83-15.474-3.548-15.876-5.45-.256-1.9,6.218-4.316,13.79-5.853,7.389-1.646,20.083-2.854,30.581-3.768,10.462-.952,20.923-1.757,31.824-2.122Z" transform="translate(-289.437 -64.204)" fill="#fff" fill-rule="evenodd"/><path d="M330.86,170.127c9.108,5.45,17.485,8.889,25.532,10.462,7.938,1.5,13.315,1.134,22.2-1.244,8.889-2.562,18.875-6.84,30.544-13.426-14.779,5.487-26.594,9.073-35.995,10.9-9.4,1.719-13.1,1.061-20.119,0a97.34,97.34,0,0,1-22.167-6.694Z" transform="translate(-289.104 -63.785)" fill="#fff" fill-rule="evenodd"/><path d="M356.877,71.558a251.426,251.426,0,0,0-20.484,31.824,114.023,114.023,0,0,0-10.9,27.215c8.779-16.534,15.619-29.373,20.923-39.359C351.646,81.251,355.084,74.923,356.877,71.558Z" transform="translate(-289.19 -65.303)" fill="#fff" fill-rule="evenodd"/><path d="M372.87,66.23c9.693,14.485,18.436,26.666,26.373,37.237S414.021,122.27,420.2,129c-8.633-12.876-16.827-24.18-24.727-34.751C387.465,83.751,380.113,74.46,372.87,66.23Z" transform="translate(-288.428 -65.389)" fill="#fff" fill-rule="evenodd"/><path d="M364.286,65.4c-1.39,15.217-2.414,27.727-2.927,38.518a236.683,236.683,0,0,0-.439,25.094c1.939-12.949,3.146-24.436,3.768-35.153a199.9,199.9,0,0,0-.4-28.458Z" transform="translate(-288.623 -65.402)" fill="#fff" fill-rule="evenodd"/></g><g transform="translate(0 151.175)"><path d="M70.414,220.08c-15.144.256-27.582,2.048-38.152,5.084-10.535,3.109-25.093,9.8-24.508,13.315.585,3.4,13.168,5.45,28.02,6.988,14.815,1.317,43.566,1.974,60.282,1.426,16.57-.621,29.19-2.267,38.553-4.937-24.508,1.792-45.395,2.634-63.794,2.816-18.4.037-35.883-.951-45.54-2.122-9.693-1.207-12.255-2.562-11.925-4.9.256-2.451,4.5-6.145,14.01-9.108C36.981,225.639,51.1,222.787,70.414,220.08Z" transform="translate(-7.737 -147.654)" fill="#fff" fill-rule="evenodd"/><path d="M98.258,218.833c15.144-1.134,27.983-1.134,38.957,0,10.9,1.061,22.46,4.1,26.373,6.731,3.841,2.634.366,6.218-3.365,8.779-3.877,2.414-10.389,4.316-19.68,5.853,9.364-2.6,15.327-5.158,18.436-7.535,3-2.451,3.512-5.011-.439-7.1-4.28-2.268-14.157-4.756-24.252-5.889a233.143,233.143,0,0,0-36.03-.842Z" transform="translate(-6.281 -147.687)" fill="#fff" fill-rule="evenodd"/><path d="M136.042,222.52c10.9,2.341,16.022,4.536,15.51,6.731-.768,2.158-8.742,4.243-18.838,6.254-10.1,1.866-23.593,3.548-41.042,5.049,16.68-2.268,29.19-4.316,38.115-6.292,8.816-2.012,13.461-3.548,14.632-5.45.988-2.012-1.756-4.061-8.377-6.292Z" transform="translate(-6.387 -147.614)" fill="#fff" fill-rule="evenodd"/><path d="M107.364,223.351a385.333,385.333,0,0,0-40.639,1.28c-12.108.988-24.069,3.035-30.543,5.011-6.548,1.975-9.255,4.353-7.535,6.292,1.829,1.792,7.864,3.328,18.4,4.609-10.315-1.83-15.474-3.548-15.876-5.45-.256-1.9,6.218-4.316,13.79-5.853,7.389-1.646,20.083-2.854,30.581-3.768,10.462-.952,20.923-1.757,31.824-2.122Z" transform="translate(-7.409 -147.602)" fill="#fff" fill-rule="evenodd"/><path d="M48.83,253.517c9.108,5.45,17.485,8.889,25.532,10.462,7.938,1.5,13.315,1.134,22.2-1.244,8.889-2.562,18.875-6.84,30.545-13.425-14.779,5.487-26.594,9.073-35.995,10.9-9.4,1.719-13.1,1.061-20.118,0A97.339,97.339,0,0,1,48.83,253.517Z" transform="translate(-7.076 -147.183)" fill="#fff" fill-rule="evenodd"/><path d="M74.851,154.95a251.421,251.421,0,0,0-20.484,31.824,114.023,114.023,0,0,0-10.9,27.215c8.779-16.534,15.619-29.373,20.923-39.359C69.62,164.643,73.058,158.315,74.851,154.95Z" transform="translate(-7.162 -148.701)" fill="#fff" fill-rule="evenodd"/><path d="M90.842,149.62c9.693,14.485,18.436,26.666,26.373,37.237s14.778,18.8,20.96,25.533c-8.633-12.876-16.827-24.18-24.727-34.751-8.011-10.5-15.363-19.789-22.606-28.02Z" transform="translate(-6.4 -148.787)" fill="#fff" fill-rule="evenodd"/><path d="M82.259,148.8c-1.39,15.217-2.414,27.727-2.927,38.518a236.69,236.69,0,0,0-.439,25.094c1.939-12.949,3.146-24.436,3.768-35.153a199.908,199.908,0,0,0-.4-28.458Z" transform="translate(-6.595 -148.8)" fill="#fff" fill-rule="evenodd"/></g><g transform="translate(133.648 0)"><path d="M190.5,222.3c-5.194,3.584-7.974,7.206-8.779,10.863-.768,3.659-.695,7.756,4.17,10.9,4.828,3,15.327,6.218,24.727,7.133,9.437.622,23.008-.219,30.983-2.523,7.718-2.268,12.876-5.854,15.473-10.9l-9.217-12.108,5.048,12.548c-4.464,3.658-10.1,6.218-17.595,7.535-7.535,1.17-18.582,1.17-26.777.4-8.34-.732-18.326-1.939-22.2-4.609-3.731-2.816-1.244-8.925-.439-11.705.622-2.78,3.8-3.841,4.609-5.012q1.1-1.977,0-2.524Z" transform="translate(-138.593 3.557)" fill="#fff" fill-rule="evenodd"/><path d="M180.308,227.23c-5.926,1.171-9.876,3.073-12.144,5.853-2.231,2.78-4.572,6.658-1.244,10.5,3.329,3.768,10.681,9.218,20.923,11.706,10.279,2.195,27.727,2.561,39.8,2.085a118.263,118.263,0,0,0,30.981-5.011c-18.106,2.707-33.176,3.694-46.053,3.365a95.153,95.153,0,0,1-30.58-5.889c-7.5-2.963-13.571-7.572-13.827-11.3-.255-3.805,3.694-7.573,12.144-11.3Z" transform="translate(-138.852 3.637)" fill="#fff" fill-rule="evenodd"/><path d="M204.568,218.99c-5.67.989-8.925,2.342-10.059,4.208-1.1,1.829-.878,5.048,3.329,6.694,4.207,1.462,14.485,2.487,21.362,2.523a70.781,70.781,0,0,0,18.838-2.523,186.16,186.16,0,0,1-28.458.4c-6.877-.657-11.3-2.378-12.144-4.17-.769-1.9,1.427-4.28,7.133-7.134Z" transform="translate(-138.39 3.504)" fill="#fff" fill-rule="evenodd"/><path d="M157.469,243.41a8.687,8.687,0,0,0-2.926,8.377c.512,3.182-.037,7.279,6.255,11.3,6.365,3.987,16.79,10.425,30.982,12.547,14.046,1.975,39.433,1.134,52.748-.4,13.132-1.609,19.058-5.011,25.971-9.218a38.275,38.275,0,0,0,14.668-16.351l-8.376-11.3,5.449,11.742c-1.61,3.292-5.341,6.731-11.34,10.463-6.109,3.731-13.681,9.473-24.691,11.705-11.193,2.012-29.995,1.536-41.444.841A101.532,101.532,0,0,1,177.99,268.1c-7.755-2.635-15.875-6.4-19.277-10.463-3.438-4.1-3.8-8.889-1.245-14.229Z" transform="translate(-139.026 3.816)" fill="#fff" fill-rule="evenodd"/><path d="M147.653,242.07c-5.56,4.207-8.3,9-8.377,14.669-.11,5.669,1.134,13.461,7.974,18.837,6.84,5.121,18.509,9.73,32.629,12.144,14.046,2.379,30.8,3.073,51.1,2.086-19.754-.4-36.177-2.268-50.261-5.45-14.156-3.292-27.434-7.939-33.47-13.79-5.926-6.035-2.3-16.5-2.122-21.361q.058-7.136,2.525-7.135Z" transform="translate(-139.27 3.875)" fill="#fff" fill-rule="evenodd"/><path d="M239,287.336a132.14,132.14,0,0,0,25.532-6.731c8.413-3.146,19.46-7.572,24.691-12.144,5.084-4.828,6.914-11.3,5.889-15.912-1.207-4.681-5.267-8.486-12.583-11.705,7.535,1.573,12.511,4.316,15.071,8.377,2.451,4.059,2.78,10.863,0,15.911-2.89,4.938-6.95,9.547-16.717,13.389-9.913,3.694-23.594,6.583-41.883,8.816Z" transform="translate(-137.666 3.856)" fill="#fff" fill-rule="evenodd"/><path d="M258.37,228.06c6.291,1.39,10.425,3.292,12.547,5.853,2.049,2.562,1.573,6.292,0,9.218-1.718,2.817-5.011,5.23-10.022,7.535,5.705-2.963,8.3-6.255,7.938-10.023C268.356,236.8,264.919,232.742,258.37,228.06Z" transform="translate(-137.354 3.65)" fill="#fff" fill-rule="evenodd"/><path d="M233.64,217.77c5.67.293,9.108,1.317,10.462,2.926,1.353,1.646.477,3.731-2.486,6.694,1.866-2.341,2.194-4.243.841-5.853-1.354-1.647-4.244-2.853-8.817-3.768Z" transform="translate(-137.752 3.485)" fill="#fff" fill-rule="evenodd"/><path d="M229.93,216.492c2.231-20.155,3.585-41.407,4.609-64.89.878-23.7,1.353-53.443.841-74.951-.585-21.435-1.975-38.554-4.17-52.345,1.28,26.227,1.829,54.8,1.645,87.095-.291,32.336-1.133,66.758-2.925,105.094Z" transform="translate(-137.811 0.373)" fill="#fff" fill-rule="evenodd"/><path d="M209.41,219.052c-1.28-33.836-1.975-66.575-2.085-99.641-.219-33.141.329-65.184,1.244-97.556-2.963,38.006-4.353,72.646-4.17,105.9C204.582,160.853,206.118,190.776,209.41,219.052Z" transform="translate(-138.222 0.333)" fill="#fff" fill-rule="evenodd"/><path d="M177.19,12.987C188.273,6.513,198.881,2.562,209.855.843a76.757,76.757,0,0,1,32.226,2.085A55.389,55.389,0,0,1,266.37,17.157,85.2,85.2,0,0,0,235.826,5.013c-11.047-2.048-24.472-1.39-34.349,0-9.8,1.39-17.851,3.914-24.287,7.974Z" transform="translate(-138.66 -0.018)" fill="#fff" fill-rule="evenodd"/><path d="M173.91,16.058,186.018,33.25a34.523,34.523,0,0,1,8.816-6.292A41.4,41.4,0,0,1,205.7,23.191a70.3,70.3,0,0,0-11.705,1.683c-3.182.8-5.56,1.646-7.133,2.926L173.91,16.058Z" transform="translate(-138.713 0.24)" fill="#fff" fill-rule="evenodd"/><path d="M231.19,21.9a32.972,32.972,0,0,1,10.462,1.683,38.923,38.923,0,0,1,10.022,5.011l13.425-9.62L252.955,33.606c-6.474-3.694-11.45-6.438-15.071-8.377A54.97,54.97,0,0,0,231.19,21.9Z" transform="translate(-137.791 0.287)" fill="#fff" fill-rule="evenodd"/><path d="M219.27,12.386a55.45,55.45,0,0,0-2.524,18.4,106.2,106.2,0,0,0,2.926,22.606c.879-13.973,1.245-24.069,1.245-30.982-.073-6.877-.622-10.169-1.647-10.023Z" transform="translate(-138.024 0.181)" fill="#fff" fill-rule="evenodd"/></g><g transform="translate(43.134 24.456)"><path d="M50.189,121.182a102.624,102.624,0,0,1,32.162-16.848,94.935,94.935,0,0,1,35.176-3.912c26.143-14.835,57.1-27.044,94.866-37.324,37.742-10.233,80.121-18.073,129.531-23.723a39.32,39.32,0,0,1,23.41-14.063c9.821-2.032,21.217-1.571,34.963,1.617-12.273-1.345-23-.709-32.737,1.9A59.4,59.4,0,0,0,342.3,42.47c-41.227,6.373-74.789,12.37-102.484,18.312-27.592,5.916-41.293,9.787-61.895,17.024a506.587,506.587,0,0,0-61.215,26.03,97.2,97.2,0,0,0-31.434,3.389,163.765,163.765,0,0,0-35.087,13.956Z" transform="translate(-50.188 -24.087)" fill="#fff" fill-rule="evenodd"/><path d="M59.236,125.084c12.588,1.261,22.939.924,31.615-1.161,8.551-2.132,15.151-5.777,19.86-11.273A161.62,161.62,0,0,1,82,123.1C73.288,125.194,65.889,125.857,59.236,125.084Z" transform="translate(-50.042 -22.662)" fill="#fff" fill-rule="evenodd"/><path d="M125,108.185c35.655-15.346,65.756-26.807,91.979-35.151,26.078-8.187,42.625-10.583,63.456-14.287,20.7-3.909,40.267-6.715,59.787-8.709-30.532,4.505-57.478,9.449-82.6,15.3-25.084,5.842-44.234,11.893-66.483,19.172C168.77,91.744,147.186,99.4,125,108.185Z" transform="translate(-48.985 -23.669)" fill="#fff" fill-rule="evenodd"/></g></g><g transform="translate(7.491 -0.229)" style="isolation:isolate"><g transform="translate(286.564 66.436)"><path d="M352.443,133.68a3,3,0,0,1,.415,5.971c-18.65,2.614-32.974,5.458-42.577,8.452-9.033,2.814-11.663,5.85-11.919,6.581.145-.247,1.812.654,9.311,1.588a409.8,409.8,0,0,0,44.177,2.1c20.58-.195,41.385-1.113,64.567-2.809a3,3,0,0,1,1.042,5.877c-9.722,2.773-22.565,4.424-39.264,5.05-4.065.133-8.816.2-13.906.2-16.721,0-35.948-.671-46.754-1.632-24.9-2.577-30-5.315-30.71-9.467-1.389-8.335,25.471-16.363,26.615-16.7,11.328-3.254,24.062-4.955,38.95-5.207Z" transform="translate(-289.765 -64.256)" fill="#00274d"/><path d="M401.322,131.583a178.775,178.775,0,0,1,18.223.866c11.326,1.1,23.259,4.209,27.74,7.226a6.1,6.1,0,0,1,3,5.138c0,2.861-2.074,5.675-6.341,8.6-4.276,2.666-11.072,4.716-20.888,6.339a3,3,0,0,1-1.291-5.851c10.667-2.958,15.358-5.455,17.415-7.027a4.455,4.455,0,0,0,1.182-1.308c-.1-.024-.414-.337-1.2-.751-3.523-1.867-12.616-4.375-23.187-5.561a199.829,199.829,0,0,0-22.272-1.134h0c-4.191,0-8.61.1-13.289.307a3,3,0,0,1-.356-5.989C387.667,131.872,394.822,131.583,401.322,131.583Z" transform="translate(-288.309 -64.289)" fill="#00274d"/><path d="M418.06,136.13a3.009,3.009,0,0,1,.632.067c13.01,2.794,15.95,4.989,17.19,6.945a4.435,4.435,0,0,1,.611,3.4c-1.109,3.174-4.648,5.223-21.174,8.514-10.485,1.938-24,3.6-41.371,5.1a3,3,0,0,1-.661-5.962c16.819-2.287,29.207-4.331,37.871-6.248,6.976-1.592,10.274-2.7,11.76-3.451a27.206,27.206,0,0,0-5.814-2.518,3,3,0,0,1,.955-5.844Z" transform="translate(-288.415 -64.216)" fill="#00274d"/><path d="M381.346,136.893c2.653,0,5.329.023,8.088.069a3,3,0,0,1,.05,6c-11.855.4-23.143,1.336-31.652,2.111-11,.958-23.188,2.146-30.2,3.708a51.809,51.809,0,0,0-9.77,2.813,111.764,111.764,0,0,0,11.727,2.608,3,3,0,0,1-.886,5.932c-14.67-1.784-18.411-3.753-20.137-5.444a4.77,4.77,0,0,1-1.229-4.589c.783-2.762,3.959-4.9,10-6.718,7.022-2.144,19.26-4.158,31.166-5.129C358.769,137.338,369.522,136.893,381.346,136.893Z" transform="translate(-289.437 -64.204)" fill="#00274d"/><path d="M409.139,162.918a3,3,0,0,1,1.475,5.613c-11.472,6.474-21.674,10.954-31.188,13.7a54.378,54.378,0,0,1-14.436,2.256,48.522,48.522,0,0,1-9.156-.947c-8.409-1.643-17.076-5.186-26.516-10.835a3,3,0,0,1,2.708-5.338,94.5,94.5,0,0,0,21.485,6.5,62.531,62.531,0,0,0,9.711,1.017,51.53,51.53,0,0,0,9.382-1.008c9.179-1.786,20.8-5.309,35.49-10.763A2.994,2.994,0,0,1,409.139,162.918Z" transform="translate(-289.104 -63.785)" fill="#00274d"/><path d="M356.879,68.558a3,3,0,0,1,2.646,4.411l-1.631,3.046c-1.966,3.662-4.885,9.1-8.821,16.615L328.142,132a3,3,0,0,1-5.566-2.11,117.527,117.527,0,0,1,11.178-27.939c5.076-9.659,11.661-19.893,20.707-32.175A3,3,0,0,1,356.879,68.558Z" transform="translate(-289.19 -65.303)" fill="#00274d"/><path d="M372.869,63.23a3,3,0,0,1,2.254,1.018c6.424,7.3,13.437,15.992,22.739,28.182,9.656,12.92,17.309,23.677,24.834,34.9a3,3,0,0,1-4.7,3.7c-6.66-7.251-13.578-15.677-21.149-25.761-9.031-12.027-17.689-24.251-26.468-37.37a3,3,0,0,1,2.492-4.669Z" transform="translate(-288.428 -65.389)" fill="#00274d"/><path d="M364.286,62.4a3,3,0,0,1,2.988,2.726,204.106,204.106,0,0,1,.41,28.887c-.643,11.085-1.885,22.672-3.8,35.443a3,3,0,0,1-5.963-.285,238.691,238.691,0,0,1,.44-25.428c.456-9.6,1.307-20.8,2.935-38.616A3,3,0,0,1,364.286,62.4Z" transform="translate(-288.623 -65.402)" fill="#00274d"/></g><g transform="translate(0 151.175)"><path d="M70.415,217.08a3,3,0,0,1,.416,5.971c-18.65,2.614-32.975,5.458-42.577,8.452-9.033,2.814-11.663,5.85-11.919,6.581.145-.247,1.811.654,9.311,1.588a409.816,409.816,0,0,0,44.177,2.1c20.579-.195,41.384-1.113,64.567-2.809a3,3,0,0,1,1.042,5.877c-9.722,2.773-22.565,4.424-39.264,5.05-4.065.133-8.815.2-13.9.2-16.722,0-35.948-.671-46.755-1.632-24.9-2.577-30-5.315-30.711-9.467-1.389-8.335,25.471-16.363,26.615-16.7,11.328-3.254,24.062-4.955,38.95-5.207Z" transform="translate(-7.737 -147.654)" fill="#00274d"/><path d="M119.3,214.983a178.775,178.775,0,0,1,18.223.866c11.326,1.1,23.259,4.209,27.74,7.226a6.1,6.1,0,0,1,3,5.138c0,2.861-2.074,5.675-6.341,8.6-4.276,2.666-11.072,4.716-20.888,6.339a3,3,0,0,1-1.291-5.851c10.667-2.958,15.358-5.454,17.415-7.027a4.456,4.456,0,0,0,1.182-1.308c-.1-.024-.414-.337-1.2-.751-3.523-1.867-12.616-4.375-23.187-5.561a199.828,199.828,0,0,0-22.272-1.134h0c-4.191,0-8.61.1-13.289.307a3,3,0,0,1-.356-5.989C105.645,215.272,112.8,214.983,119.3,214.983Z" transform="translate(-6.281 -147.687)" fill="#00274d"/><path d="M136.04,219.519a3.009,3.009,0,0,1,.632.067c13.01,2.794,15.95,4.989,17.19,6.945a4.435,4.435,0,0,1,.611,3.4c-1.109,3.174-4.648,5.223-21.174,8.515-10.485,1.938-24,3.6-41.371,5.1a3,3,0,0,1-.661-5.962c16.82-2.287,29.207-4.331,37.871-6.248,6.976-1.592,10.274-2.7,11.76-3.451a27.2,27.2,0,0,0-5.814-2.518,3,3,0,0,1,.955-5.844Z" transform="translate(-6.387 -147.614)" fill="#00274d"/><path d="M99.327,220.283c2.627-.014,5.328.023,8.087.069a3,3,0,0,1,.05,6c-11.855.4-23.143,1.337-31.652,2.111-11,.958-23.188,2.146-30.2,3.708a51.809,51.809,0,0,0-9.769,2.813,111.764,111.764,0,0,0,11.727,2.608,3,3,0,0,1-.886,5.932c-14.67-1.784-18.411-3.753-20.137-5.444a4.77,4.77,0,0,1-1.229-4.589c.783-2.762,3.959-4.9,10-6.718,7.022-2.144,19.259-4.158,31.166-5.129C76.75,220.728,87.5,220.283,99.327,220.283Z" transform="translate(-7.409 -147.602)" fill="#00274d"/><path d="M127.11,246.308a3,3,0,0,1,1.475,5.613c-11.473,6.474-21.674,10.954-31.188,13.7a54.377,54.377,0,0,1-14.436,2.256,48.524,48.524,0,0,1-9.156-.947c-8.409-1.644-17.076-5.187-26.516-10.835A3,3,0,0,1,50,250.753a94.5,94.5,0,0,0,21.485,6.5,62.537,62.537,0,0,0,9.711,1.017,51.528,51.528,0,0,0,9.382-1.008c9.179-1.786,20.8-5.309,35.49-10.763A2.994,2.994,0,0,1,127.11,246.308Z" transform="translate(-7.076 -147.183)" fill="#00274d"/><path d="M74.853,151.95A3,3,0,0,1,77.5,156.36l-1.632,3.047c-1.966,3.662-4.885,9.1-8.82,16.614L46.116,215.4a3,3,0,0,1-5.566-2.11,117.526,117.526,0,0,1,11.178-27.939c5.076-9.659,11.661-19.893,20.707-32.175A3,3,0,0,1,74.853,151.95Z" transform="translate(-7.162 -148.701)" fill="#00274d"/><path d="M90.841,146.62a3,3,0,0,1,2.254,1.018c6.424,7.3,13.437,15.992,22.739,28.182,9.656,12.92,17.309,23.676,24.834,34.9a3,3,0,0,1-4.7,3.7c-6.66-7.251-13.578-15.677-21.149-25.761-9.031-12.027-17.689-24.251-26.468-37.37a3,3,0,0,1,2.492-4.669Z" transform="translate(-6.4 -148.787)" fill="#00274d"/><path d="M82.259,145.8a3,3,0,0,1,2.988,2.726,204.117,204.117,0,0,1,.41,28.887c-.643,11.085-1.885,22.672-3.8,35.443a3,3,0,0,1-5.963-.285,238.7,238.7,0,0,1,.44-25.428c.456-9.6,1.307-20.8,2.935-38.616A3,3,0,0,1,82.259,145.8Z" transform="translate(-6.595 -148.8)" fill="#00274d"/></g><g transform="translate(133.648 0)"><path d="M190.5,219.3a3,3,0,0,1,1.338.315,5.131,5.131,0,0,1,2.027,2.357,5.65,5.65,0,0,1-.741,4.307,8.162,8.162,0,0,1-2.325,2.211c-.895.632-1.82,1.286-1.98,2l-.379,1.267c-.677,2.151-1.936,6.156-.3,7.389,3.671,2.525,16.457,3.647,20.659,4.015,3.6.337,7.741.522,11.882.522a97.628,97.628,0,0,0,14.172-.9,35.489,35.489,0,0,0,14.416-5.577l-4.193-10.421a3,3,0,0,1,5.17-2.937l9.217,12.108a3,3,0,0,1,.281,3.19c-2.946,5.727-8.765,9.9-17.295,12.407-7.26,2.1-17.851,2.843-25.346,2.843-2.354,0-4.615-.069-6.681-.2-9.444-.917-20.63-4.172-26.113-7.578-7.463-4.825-6-11.781-5.523-14.066,1.016-4.617,4.289-8.768,10.011-12.716A3,3,0,0,1,190.5,219.3Z" transform="translate(-138.593 3.557)" fill="#00274d"/><path d="M180.31,224.23a3,3,0,0,1,1.21,5.745c-6.643,2.933-10.517,6.058-10.363,8.359.118,1.72,4.332,5.709,11.936,8.713,5.876,2.287,15.8,5.134,29.6,5.682,1.513.038,3.1.059,4.722.059a275.915,275.915,0,0,0,40.769-3.393,3,3,0,0,1,1.343,5.829,121.016,121.016,0,0,1-31.761,5.147c-3.018.119-6.365.186-9.854.186-12.556,0-23.743-.851-30.691-2.335-10.691-2.6-18.641-8.236-22.545-12.654-3.581-4.131-3.187-8.956,1.152-14.362,2.735-3.352,7.277-5.609,13.9-6.918A3.008,3.008,0,0,1,180.31,224.23Z" transform="translate(-138.852 3.637)" fill="#00274d"/><path d="M204.57,215.99a3,3,0,0,1,1.34,5.683c-5.044,2.523-5.634,3.873-5.657,3.929.318-.319,3.4,1.111,9.612,1.705,2.809.227,6.147.358,9.983.358,5.377,0,11.419-.257,17.958-.765a3,3,0,0,1,1.035,5.882,73.806,73.806,0,0,1-19.625,2.632c-7.156-.037-17.72-1.075-22.363-2.689-3.6-1.406-4.982-3.6-5.528-5.2a7,7,0,0,1,.612-5.869c1.652-2.717,5.386-4.446,12.116-5.62A3.011,3.011,0,0,1,204.57,215.99Z" transform="translate(-138.39 3.504)" fill="#00274d"/><path d="M276.789,235.362a3,3,0,0,1,2.412,1.214l8.376,11.3a3,3,0,0,1,.31,3.05,41.41,41.41,0,0,1-15.763,17.608c-7.9,4.81-14.027,8.056-27.232,9.675a299.14,299.14,0,0,1-31.4,1.58,168.737,168.737,0,0,1-22.135-1.185c-15.032-2.247-26.172-9.226-32.157-12.975-6.616-4.231-7.127-8.958-7.465-12.086l-.159-1.283a11.693,11.693,0,0,1,3.879-11.081,3,3,0,0,1,4.714,3.524c-2.083,4.346-1.817,7.842.837,11,2.534,3.025,9.242,6.594,17.945,9.551a99.3,99.3,0,0,0,26.011,4.859c5.258.319,12.11.592,19.046.592a132.2,132.2,0,0,0,21.667-1.393c8.65-1.754,14.988-5.8,20.58-9.375l3.078-1.938c4.671-2.906,7.871-5.612,9.526-8.054l-4.793-10.328a3,3,0,0,1,2.719-4.263Z" transform="translate(-139.026 3.816)" fill="#00274d"/><path d="M147.653,239.07a3,3,0,0,1,1.81,5.392q-.495.374-.957.755a17.222,17.222,0,0,0-.378,4.011,40.18,40.18,0,0,1-.532,4.449c-.777,4.982-1.745,11.182,1.794,14.786,4.818,4.67,16.2,9.295,32.009,12.97,14.27,3.224,30.514,4.983,49.642,5.373a3,3,0,0,1,.085,6q-9.013.438-17.121.438a207.143,207.143,0,0,1-34.626-2.562c-13.971-2.389-26.335-7.018-33.926-12.7-6.2-4.87-9.351-12.22-9.176-21.3.073-5.69,2.515-10.771,7.257-15.092A4.691,4.691,0,0,1,147.653,239.07Z" transform="translate(-139.27 3.875)" fill="#00274d"/><path d="M239,290.336a3,3,0,0,1-.466-5.963,128.312,128.312,0,0,0,24.963-6.582c5.009-1.873,18.345-6.86,23.755-11.589,4.411-4.192,5.67-9.7,4.935-13-.939-3.635-4.5-6.811-10.863-9.611a3,3,0,0,1,1.821-5.683c8.424,1.758,13.984,4.936,17,9.714,3.2,5.306,3.229,13.258.09,18.958-2.859,4.888-7.228,10.4-18.246,14.734-10.217,3.808-24.141,6.746-42.618,9A3.03,3.03,0,0,1,239,290.336Z" transform="translate(-137.666 3.856)" fill="#00274d"/><path d="M258.369,225.06a3,3,0,0,1,.648.071c7.114,1.572,11.63,3.754,14.209,6.868,2.625,3.28,2.739,8.074.332,12.552-2.1,3.448-5.7,6.212-11.41,8.84A3,3,0,0,1,259.512,248c6.684-3.471,6.421-6.18,6.334-7.07-.345-2.77-3.45-6.306-9.221-10.433a3,3,0,0,1,1.744-5.441Z" transform="translate(-137.354 3.65)" fill="#00274d"/><path d="M233.638,214.77q.078,0,.157,0c6.595.34,10.6,1.609,12.6,3.992,3.648,4.437-1.1,9.186-2.661,10.746a3,3,0,0,1-4.468-3.991c.581-.729,1.207-1.677.891-2.053-.5-.612-2.066-1.747-7.108-2.756a3,3,0,0,1,.586-5.942Z" transform="translate(-137.752 3.485)" fill="#00274d"/><path d="M229.933,219.492q-.118,0-.238-.009a3,3,0,0,1-2.762-3.131c1.648-35.252,2.6-69.591,2.922-104.978.183-32.111-.354-60.546-1.642-86.921a3,3,0,0,1,5.959-.618c2.247,14.118,3.623,31.368,4.206,52.734.56,23.52-.068,54.237-.842,75.144-1.161,26.631-2.588,46.705-4.625,65.109A3,3,0,0,1,229.933,219.492Z" transform="translate(-137.811 0.373)" fill="#00274d"/><path d="M209.407,222.052a3,3,0,0,1-2.977-2.653c-3.2-27.455-4.841-57.428-5.031-91.631-.182-33.025,1.185-67.745,4.179-106.146a3,3,0,0,1,5.99.318c-1.043,36.937-1.438,67.9-1.243,97.452.109,32.827.79,65.386,2.083,99.548a3,3,0,0,1-2.768,3.1C209.562,222.049,209.484,222.052,209.407,222.052Z" transform="translate(-138.222 0.333)" fill="#00274d"/><path d="M266.368,20.157a2.989,2.989,0,0,1-1.617-.475A81.8,81.8,0,0,0,235.269,7.961a85.407,85.407,0,0,0-15.382-1.249A131.621,131.621,0,0,0,201.9,7.984c-7.879,1.117-14.284,2.937-19.576,5.564q-1.8.969-3.617,2.03a3,3,0,0,1-3.114-5.128q1.9-1.2,3.973-2.232A92.7,92.7,0,0,1,209.391-2.121a78.691,78.691,0,0,1,11.717-.861A77.329,77.329,0,0,1,242.94.054a58.492,58.492,0,0,1,25.54,14.971,3,3,0,0,1-2.112,5.133Z" transform="translate(-138.66 -0.018)" fill="#00274d"/><path d="M173.91,13.058a2.993,2.993,0,0,1,2.015.778l11.266,10.216a29.571,29.571,0,0,1,6.065-2.086A73.1,73.1,0,0,1,205.467,20.2a3,3,0,0,1,.849,5.927,38.265,38.265,0,0,0-10.082,3.485,31.686,31.686,0,0,0-8.11,5.775,3,3,0,0,1-4.559-.409L171.457,17.785a3,3,0,0,1,2.453-4.727Z" transform="translate(-138.713 0.24)" fill="#00274d"/><path d="M265.1,15.974a3,3,0,0,1,2.31,4.916L255.263,35.522a3,3,0,0,1-3.8.69c-6.444-3.677-11.4-6.408-15-8.338-1.31-.706-5.272-2.843-6.119-3.094a3,3,0,0,1,.78-5.879,36.684,36.684,0,0,1,11.407,1.815,42.639,42.639,0,0,1,9.07,4.236l11.745-8.417A2.991,2.991,0,0,1,265.1,15.974Z" transform="translate(-137.791 0.287)" fill="#00274d"/><path d="M219.336,9.381c4.134,0,4.5,5.146,4.581,13,0,7.522-.421,18.01-1.25,31.2a3,3,0,0,1-5.922.467,108.238,108.238,0,0,1-3-23.245,58.222,58.222,0,0,1,2.674-19.352,3,3,0,0,1,2.426-2.033Z" transform="translate(-138.024 0.181)" fill="#00274d"/></g><g transform="translate(43.134 24.456)"><path d="M50.2,124.178A3,3,0,0,1,48.37,118.8a105.538,105.538,0,0,1,33.082-17.324,97.349,97.349,0,0,1,35.375-4.1C143.1,82.57,174.112,70.409,211.6,60.2c38.085-10.326,80.219-18.071,128.776-23.67a42.582,42.582,0,0,1,24.334-14.156,65.374,65.374,0,0,1,13.211-1.291,101.78,101.78,0,0,1,23.049,2.921,3,3,0,0,1-1,5.9,107.084,107.084,0,0,0-11.666-.667,76.215,76.215,0,0,0-19.968,2.484,56.261,56.261,0,0,0-24.01,12.956,3,3,0,0,1-1.565.75C301.57,51.8,268.1,57.782,240.448,63.715c-26.6,5.7-40.4,9.5-61.53,16.922a502.718,502.718,0,0,0-60.861,25.88,3,3,0,0,1-1.542.314,94.029,94.029,0,0,0-30.473,3.3,160.628,160.628,0,0,0-34.456,13.71A2.989,2.989,0,0,1,50.2,124.178Z" transform="translate(-50.188 -24.087)" fill="#00274d"/><path d="M72.893,128.821c-3.755,0-7.742-.19-11.984-.566l-.035,0-1.937-.183h0l-.047,0a3,3,0,0,1,.645-5.965l1.887.178c5.812.421,12.238-.258,19.877-2.094a158.3,158.3,0,0,0,28.161-10.26,3,3,0,0,1,3.531,4.678c-5.055,5.9-12.059,9.9-21.413,12.232A79.393,79.393,0,0,1,72.893,128.821Z" transform="translate(-50.042 -22.662)" fill="#00274d"/><path d="M125,111.186a3,3,0,0,1-1.187-5.756C159.2,90.2,189.372,78.671,216.07,70.175c23.158-7.27,38.626-9.971,56.536-13.1l7.3-1.283c20.259-3.825,39.9-6.686,60.008-8.74a3,3,0,0,1,.743,5.952c-30.972,4.57-57.911,9.56-82.356,15.254-25.227,5.876-44.135,11.873-66.231,19.1-23.2,7.5-44.772,15.223-65.97,23.613A2.993,2.993,0,0,1,125,111.186Z" transform="translate(-48.985 -23.669)" fill="#00274d"/></g></g><g transform="translate(7.491 -0.229)"><path d="M340.239,137.108c-13.717,2.086-24.142,4.464-31.824,7.134-7.755,2.634-12.034,6.548-13.826,8.779-1.866,2.085-1.5,2.78,3.365,4.208,4.9,1.353,13.461,2.742,25.972,4.17,3.731,7.134,9.913,11.961,18.838,15.071,8.961,3,21.581,6,34.311,2.926,12.583-3.256,25.935-10.314,40.639-21.765a60.512,60.512,0,0,0,18.4-4.609c4.792-2.23,13.644-6,10.462-8.779-3.4-2.963-18.437-7.023-29.7-8.377-11.3-1.353-24.435.146-37.274.4-12.914.145-25.754.475-39.361.839Z" transform="translate(-3.14 2.158)" fill="#ff4e00" fill-rule="evenodd"/><g transform="translate(286.564 66.436)"><path d="M352.442,136.68c-15.144.256-27.582,2.048-38.152,5.084-10.535,3.109-25.093,9.8-24.508,13.315.585,3.4,13.168,5.45,28.02,6.988,14.814,1.317,43.566,1.974,60.282,1.426,16.57-.621,29.19-2.267,38.553-4.937-24.508,1.792-45.395,2.634-63.794,2.816-18.4.037-35.883-.951-45.54-2.122-9.693-1.207-12.255-2.562-11.925-4.9.256-2.451,4.5-6.145,14.01-9.108C319.009,142.239,333.128,139.387,352.442,136.68Z" transform="translate(-289.765 -64.256)" fill="#fff" fill-rule="evenodd"/><path d="M380.28,135.433c15.144-1.134,27.983-1.134,38.957,0,10.9,1.061,22.46,4.1,26.373,6.731,3.841,2.634.366,6.218-3.365,8.779-3.877,2.414-10.389,4.316-19.68,5.853,9.364-2.6,15.327-5.158,18.436-7.535,3-2.451,3.512-5.011-.439-7.1-4.28-2.268-14.157-4.756-24.252-5.889a233.145,233.145,0,0,0-36.03-.842Z" transform="translate(-288.309 -64.289)" fill="#fff" fill-rule="evenodd"/><path d="M401.322,134.083a176.277,176.277,0,0,1,17.966.853,107.506,107.506,0,0,1,15.88,2.788c4.952,1.275,8.759,2.7,10.721,4.025a3.72,3.72,0,0,1,1.894,3.064c0,1.947-1.768,4.148-5.255,6.542l-.019.012c-3.88,2.416-10.377,4.353-19.862,5.921l-.215-.975c8.867-2.459,15.011-4.964,18.259-7.446,1.535-1.256,2.291-2.469,2.187-3.509-.1-.986-.956-1.912-2.549-2.752a46.862,46.862,0,0,0-9.831-3.327,114.334,114.334,0,0,0-14.243-2.508,202.3,202.3,0,0,0-22.551-1.149h0c-4.237,0-8.745.1-13.4.31l-.059-1C387.792,134.37,394.884,134.083,401.322,134.083Zm40.649,16.441c3.1-2.132,4.812-4.159,4.812-5.711a2.754,2.754,0,0,0-1.456-2.237c-1.839-1.238-5.634-2.655-10.408-3.884a106.485,106.485,0,0,0-15.731-2.762q-3.17-.328-6.584-.529,1.9.17,3.761.377c9.87,1.108,19.916,3.552,24.431,5.944,1.907,1.006,2.943,2.2,3.077,3.536.141,1.411-.719,2.887-2.556,4.388l-.013.01a37.793,37.793,0,0,1-9.6,4.77A37.15,37.15,0,0,0,441.971,150.524Z" transform="translate(-288.309 -64.289)" fill="#00274d"/><path d="M418.062,139.13c10.9,2.341,16.022,4.536,15.509,6.731-.768,2.158-8.742,4.243-18.838,6.254-10.1,1.866-23.593,3.548-41.042,5.049,16.68-2.268,29.19-4.316,38.115-6.292,8.816-2.012,13.461-3.548,14.632-5.45.988-2.012-1.756-4.061-8.377-6.292Z" transform="translate(-288.415 -64.216)" fill="#fff" fill-rule="evenodd"/><path d="M418.167,138.641c9.4,2.019,14.358,3.874,15.6,5.839a1.905,1.905,0,0,1,.288,1.494l-.006.027-.009.027c-.266.748-1.2,1.924-6.244,3.492-3.019.939-7.261,1.948-12.968,3.085h-.007c-10.364,1.915-23.8,3.569-41.09,5.055l-.11-.994c16.888-2.3,29.343-4.352,38.075-6.284a91.012,91.012,0,0,0,10.12-2.748c2.293-.831,3.661-1.635,4.181-2.456a1.218,1.218,0,0,0,.029-1.054,5.314,5.314,0,0,0-2.366-2.106,34.18,34.18,0,0,0-5.76-2.417Zm14.924,7.078a.929.929,0,0,0-.164-.7c-.354-.558-1.409-1.456-4.43-2.563-1.24-.455-2.741-.919-4.491-1.39a6.3,6.3,0,0,1,2.946,2.679,2.215,2.215,0,0,1-.065,1.9l-.023.042c-.641,1.042-2.136,1.961-4.7,2.892a91.9,91.9,0,0,1-10.242,2.784c-4.518,1-10.026,2.032-16.619,3.113,7.435-.892,13.9-1.844,19.34-2.849,5.67-1.129,9.878-2.13,12.863-3.058C431.9,147.2,432.9,146.2,433.091,145.719Z" transform="translate(-288.415 -64.216)" fill="#00274d"/><path d="M389.384,139.961a385.333,385.333,0,0,0-40.639,1.28c-12.108.988-24.069,3.035-30.544,5.011-6.548,1.975-9.254,4.353-7.535,6.292,1.829,1.792,7.865,3.328,18.4,4.609-10.315-1.83-15.474-3.548-15.876-5.45-.256-1.9,6.218-4.316,13.79-5.853,7.389-1.646,20.083-2.854,30.581-3.768,10.462-.952,20.923-1.757,31.824-2.122Z" transform="translate(-289.437 -64.204)" fill-rule="evenodd"/><path d="M381.346,139.393h0c2.624,0,5.33.023,8.044.068l.008,1c-11.918.4-23.252,1.342-31.8,2.12-11.077.964-23.363,2.164-30.518,3.758l-.009,0a57.424,57.424,0,0,0-9.741,2.762c-2.761,1.126-3.692,2.055-3.655,2.517.105.432.76,1.3,3.888,2.362a83.677,83.677,0,0,0,11.582,2.679l-.148.989c-10.635-1.294-16.749-2.847-18.689-4.748l-.024-.025a2.168,2.168,0,0,1-.549-2.1c.64-2.257,4.875-3.968,8.314-5.006,6.768-2.066,19.085-4.088,30.647-5.031C358.916,139.835,369.6,139.393,381.346,139.393Zm-54.471,5.969c7.213-1.606,19.537-2.81,30.642-3.777,4.733-.431,8.875-.773,12.524-1.046-7.413.2-14.436.595-21.252,1.2-11.5.938-23.734,2.944-30.442,4.992a25.8,25.8,0,0,0-5.517,2.246c-1.526.9-2,1.626-2.126,2.076a1.165,1.165,0,0,0,.324,1.147,11.1,11.1,0,0,0,4.321,1.985c-1.613-.742-2.467-1.514-2.649-2.378l-.006-.037c-.159-1.182,1.236-2.357,4.266-3.593A58.415,58.415,0,0,1,326.875,145.361Z" transform="translate(-289.437 -64.204)" fill="#00274d"/><path d="M330.86,170.127c9.108,5.45,17.485,8.889,25.532,10.462,7.938,1.5,13.315,1.134,22.2-1.244,8.889-2.562,18.875-6.84,30.544-13.426-14.779,5.487-26.594,9.073-35.995,10.9-9.4,1.719-13.1,1.061-20.119,0a97.34,97.34,0,0,1-22.167-6.694Z" transform="translate(-289.104 -63.785)" fill="#fff" fill-rule="evenodd"/><path d="M356.877,71.558a251.426,251.426,0,0,0-20.484,31.824,114.023,114.023,0,0,0-10.9,27.215c8.779-16.534,15.619-29.373,20.923-39.359C351.646,81.251,355.084,74.923,356.877,71.558Z" transform="translate(-289.19 -65.303)" fill="#fff" fill-rule="evenodd"/><path d="M356.474,71.261l.844.532c-.442.83-.991,1.854-1.628,3.039-1.948,3.629-4.892,9.114-8.832,16.638-2.2,4.137-4.612,8.677-7.408,13.934-3.924,7.378-8.372,15.74-13.516,25.428l-1.855,3.494.928-3.846a115.052,115.052,0,0,1,10.945-27.333C340.984,93.571,347.505,83.439,356.474,71.261Zm-29.348,55.192c4.277-8.053,8.054-15.152,11.44-21.519,2.8-5.257,5.211-9.8,7.407-13.931,2.827-5.4,5.141-9.746,6.943-13.113a228.183,228.183,0,0,0-16.081,25.724l0,.005A120.8,120.8,0,0,0,327.126,126.453Z" transform="translate(-289.19 -65.303)" fill="#00274d"/><path d="M372.87,66.23c9.693,14.485,18.436,26.666,26.373,37.237S414.021,122.27,420.2,129c-8.633-12.876-16.827-24.18-24.727-34.751C387.465,83.751,380.113,74.46,372.87,66.23Z" transform="translate(-288.428 -65.389)" fill="#fff" fill-rule="evenodd"/><path d="M373.245,65.9c6.384,7.255,13.363,15.9,22.628,28.047l0,0c9.611,12.861,17.242,23.585,24.742,34.772l-.784.617c-6.6-7.19-13.47-15.554-20.991-25.571-9-11.991-17.635-24.179-26.389-37.26ZM395.076,94.55c-6.567-8.606-11.982-15.453-16.85-21.291,7.07,10.347,14.121,20.192,21.417,29.908,5.612,7.475,10.858,14.025,15.9,19.851C409.367,114.011,402.874,104.984,395.076,94.55Z" transform="translate(-288.428 -65.389)" fill="#00274d"/><path d="M364.286,65.4c-1.39,15.217-2.414,27.727-2.927,38.518a236.683,236.683,0,0,0-.439,25.094c1.939-12.949,3.146-24.436,3.768-35.153a199.9,199.9,0,0,0-.4-28.458Z" transform="translate(-288.623 -65.402)" fill="#fff" fill-rule="evenodd"/><path d="M364.784,65.356a201.619,201.619,0,0,1,.4,28.53c-.638,10.993-1.872,22.506-3.772,35.2l-.731,4.884-.263-4.931a236.374,236.374,0,0,1,.439-25.147c.456-9.595,1.3-20.76,2.929-38.537Zm-3.531,57.82c1.433-10.423,2.4-20.072,2.935-29.345a212.355,212.355,0,0,0,.043-22.252c-1.268,14.292-1.973,23.937-2.373,32.364v.005C361.413,111.572,361.213,117.925,361.253,123.177Z" transform="translate(-288.623 -65.402)" fill="#00274d"/></g><path d="M58.209,220.5c-13.717,2.086-24.142,4.464-31.824,7.134-7.755,2.634-12.035,6.548-13.826,8.779-1.866,2.085-1.5,2.78,3.365,4.208,4.9,1.353,13.461,2.742,25.972,4.17,3.731,7.134,9.913,11.961,18.838,15.071,8.961,3,21.581,6,34.311,2.926,12.583-3.256,25.935-10.314,40.639-21.765a60.513,60.513,0,0,0,18.4-4.609c4.792-2.23,13.644-6,10.462-8.779-3.4-2.963-18.437-7.023-29.7-8.377-11.3-1.353-24.435.146-37.274.4-12.914.145-25.754.475-39.361.839Z" transform="translate(-7.676 3.5)" fill="#ff4e00" fill-rule="evenodd"/><g transform="translate(0 151.175)"><path d="M70.414,220.08c-15.144.256-27.582,2.048-38.152,5.084-10.535,3.109-25.093,9.8-24.508,13.315.585,3.4,13.168,5.45,28.02,6.988,14.815,1.317,43.566,1.974,60.282,1.426,16.57-.621,29.19-2.267,38.553-4.937-24.508,1.792-45.395,2.634-63.794,2.816-18.4.037-35.883-.951-45.54-2.122-9.693-1.207-12.255-2.562-11.925-4.9.256-2.451,4.5-6.145,14.01-9.108C36.981,225.639,51.1,222.787,70.414,220.08Z" transform="translate(-7.737 -147.654)" fill="#00274d" fill-rule="evenodd"/><path d="M98.258,218.833c15.144-1.134,27.983-1.134,38.957,0,10.9,1.061,22.46,4.1,26.373,6.731,3.841,2.634.366,6.218-3.365,8.779-3.877,2.414-10.389,4.316-19.68,5.853,9.364-2.6,15.327-5.158,18.436-7.535,3-2.451,3.512-5.011-.439-7.1-4.28-2.268-14.157-4.756-24.252-5.889a233.143,233.143,0,0,0-36.03-.842Z" transform="translate(-6.281 -147.687)" fill="#fff" fill-rule="evenodd"/><path d="M136.042,222.52c10.9,2.341,16.022,4.536,15.51,6.731-.768,2.158-8.742,4.243-18.838,6.254-10.1,1.866-23.593,3.548-41.042,5.049,16.68-2.268,29.19-4.316,38.115-6.292,8.816-2.012,13.461-3.548,14.632-5.45.988-2.012-1.756-4.061-8.377-6.292Z" transform="translate(-6.387 -147.614)" fill="#fff" fill-rule="evenodd"/><path d="M107.364,223.351a385.333,385.333,0,0,0-40.639,1.28c-12.108.988-24.069,3.035-30.543,5.011-6.548,1.975-9.255,4.353-7.535,6.292,1.829,1.792,7.864,3.328,18.4,4.609-10.315-1.83-15.474-3.548-15.876-5.45-.256-1.9,6.218-4.316,13.79-5.853,7.389-1.646,20.083-2.854,30.581-3.768,10.462-.952,20.923-1.757,31.824-2.122Z" transform="translate(-7.409 -147.602)" fill="#fff" fill-rule="evenodd"/><path d="M48.83,253.517c9.108,5.45,17.485,8.889,25.532,10.462,7.938,1.5,13.315,1.134,22.2-1.244,8.889-2.562,18.875-6.84,30.545-13.425-14.779,5.487-26.594,9.073-35.995,10.9-9.4,1.719-13.1,1.061-20.118,0A97.339,97.339,0,0,1,48.83,253.517Z" transform="translate(-7.076 -147.183)" fill="#00274d" fill-rule="evenodd"/><path d="M126.936,248.84l.42.9c-11.3,6.377-21.327,10.783-30.652,13.47l-.009,0a51.92,51.92,0,0,1-13.734,2.156,46.108,46.108,0,0,1-8.691-.9c-8.1-1.584-16.509-5.026-25.7-10.524l.451-.89a96.947,96.947,0,0,0,22.05,6.661l.631.1a61.036,61.036,0,0,0,9.489.955,53.863,53.863,0,0,0,9.828-1.048C100.369,257.9,112.118,254.342,126.936,248.84Zm-30.5,13.412a132.47,132.47,0,0,0,24.6-10.2A215,215,0,0,1,91.211,260.7h-.006a54.813,54.813,0,0,1-10.011,1.065,61.77,61.77,0,0,1-9.638-.966l-.64-.1a89.559,89.559,0,0,1-15.443-4.064,71.931,71.931,0,0,0,18.985,6.848,45.128,45.128,0,0,0,8.5.886A50.31,50.31,0,0,0,96.432,262.253Z" transform="translate(-7.076 -147.183)" fill="#00274d"/><path d="M74.851,154.95a251.421,251.421,0,0,0-20.484,31.824,114.023,114.023,0,0,0-10.9,27.215c8.779-16.534,15.619-29.373,20.923-39.359C69.62,164.643,73.058,158.315,74.851,154.95Z" transform="translate(-7.162 -148.701)" fill="#fff" fill-rule="evenodd"/><path d="M90.842,149.62c9.693,14.485,18.436,26.666,26.373,37.237s14.778,18.8,20.96,25.533c-8.633-12.876-16.827-24.18-24.727-34.751-8.011-10.5-15.363-19.789-22.606-28.02Z" transform="translate(-6.4 -148.787)" fill="#fff" fill-rule="evenodd"/><path d="M82.259,148.8c-1.39,15.217-2.414,27.727-2.927,38.518a236.69,236.69,0,0,0-.439,25.094c1.939-12.949,3.146-24.436,3.768-35.153a199.908,199.908,0,0,0-.4-28.458Z" transform="translate(-6.595 -148.8)" fill="#fff" fill-rule="evenodd"/></g><path d="M175.713,16.725A65.61,65.61,0,0,1,203.33,3.337c9.913-2.122,21.509-1.792,31.824.4a85.014,85.014,0,0,1,29.3,12.144l-8.779,14.229A71.6,71.6,0,0,0,243.97,25.1a41.962,41.962,0,0,0-10.5-2.085c1.353,10.9,2.011,26.849,2.122,48.54.037,21.765-.989,55.71-1.683,80.8-.841,24.947-1.683,47.187-2.926,67.854a23.554,23.554,0,0,1,10.462,2.378,29.9,29.9,0,0,1,9.218,7.133c6.766.329,11.887,1.39,15.911,3.329,3.877,1.939,6.439,4.463,7.535,7.974a31.323,31.323,0,0,1,11.706,4.17c3.768,2.231,9.328,5.3,10.9,9.218,1.427,3.876,2.086,8.816-2.122,13.826a54.365,54.365,0,0,1-23.447,15.474,200.013,200.013,0,0,1-48.138,8.816c-16.643.621-36.579-.914-50.223-4.609-13.681-3.841-25.569-11.632-30.58-17.595-4.938-6-2.158-13.461.841-17.594,2.853-4.208,8.3-6.438,16.351-7.1,1.427-2.414,4.06-4.792,8.34-7.133a91.362,91.362,0,0,1,16.753-7.134c.476-.732,2.707-1.974,7.133-3.731,4.353-1.866,10.5-4.243,18.838-7.133-2.158-24.107-3.365-48.1-3.768-73.268-.439-25.276.768-55.565,1.244-76.633.476-21,.768-36.908,1.28-48.431-5.377,1.427-9.8,2.817-13.424,4.17a47.156,47.156,0,0,0-8.377,3.768q-5.818-6.694-11.705-13.388Z" transform="translate(-5.618 0.013)" fill="#ff4e00" fill-rule="evenodd"/><g transform="translate(133.648 0)"><path d="M180.308,227.23c-5.926,1.171-9.876,3.073-12.144,5.853-2.231,2.78-4.572,6.658-1.244,10.5,3.329,3.768,10.681,9.218,20.923,11.706,10.279,2.195,27.727,2.561,39.8,2.085a118.263,118.263,0,0,0,30.981-5.011c-18.106,2.707-33.176,3.694-46.053,3.365a95.153,95.153,0,0,1-30.58-5.889c-7.5-2.963-13.571-7.572-13.827-11.3-.255-3.805,3.694-7.573,12.144-11.3Z" transform="translate(-138.852 3.637)" fill="#fff" fill-rule="evenodd"/><path d="M204.568,218.99c-5.67.989-8.925,2.342-10.059,4.208-1.1,1.829-.878,5.048,3.329,6.694,4.207,1.462,14.485,2.487,21.362,2.523a70.781,70.781,0,0,0,18.838-2.523,186.16,186.16,0,0,1-28.458.4c-6.877-.657-11.3-2.378-12.144-4.17-.769-1.9,1.427-4.28,7.133-7.134Z" transform="translate(-138.39 3.504)" fill="#fff" fill-rule="evenodd"/><path d="M157.469,243.41a8.687,8.687,0,0,0-2.926,8.377c.512,3.182-.037,7.279,6.255,11.3,6.365,3.987,16.79,10.425,30.982,12.547,14.046,1.975,39.433,1.134,52.748-.4,13.132-1.609,19.058-5.011,25.971-9.218a38.275,38.275,0,0,0,14.668-16.351l-8.376-11.3,5.449,11.742c-1.61,3.292-5.341,6.731-11.34,10.463-6.109,3.731-13.681,9.473-24.691,11.705-11.193,2.012-29.995,1.536-41.444.841A101.532,101.532,0,0,1,177.99,268.1c-7.755-2.635-15.875-6.4-19.277-10.463-3.438-4.1-3.8-8.889-1.245-14.229Z" transform="translate(-139.026 3.816)" fill="#fff" fill-rule="evenodd"/><path d="M147.653,242.07c-5.56,4.207-8.3,9-8.377,14.669-.11,5.669,1.134,13.461,7.974,18.837,6.84,5.121,18.509,9.73,32.629,12.144,14.046,2.379,30.8,3.073,51.1,2.086-19.754-.4-36.177-2.268-50.261-5.45-14.156-3.292-27.434-7.939-33.47-13.79-5.926-6.035-2.3-16.5-2.122-21.361q.058-7.136,2.525-7.135Z" transform="translate(-139.27 3.875)" fill="#fff" fill-rule="evenodd"/><path d="M239,287.336a132.14,132.14,0,0,0,25.532-6.731c8.413-3.146,19.46-7.572,24.691-12.144,5.084-4.828,6.914-11.3,5.889-15.912-1.207-4.681-5.267-8.486-12.583-11.705,7.535,1.573,12.511,4.316,15.071,8.377,2.451,4.059,2.78,10.863,0,15.911-2.89,4.938-6.95,9.547-16.717,13.389-9.913,3.694-23.594,6.583-41.883,8.816Z" transform="translate(-137.666 3.856)" fill="#00274d" fill-rule="evenodd"/><path d="M239.061,287.832l-.139-.99a130.744,130.744,0,0,0,25.437-6.706c8.739-3.268,19.425-7.59,24.527-12.045a19.8,19.8,0,0,0,5.1-7.832,14.322,14.322,0,0,0,.64-7.594,12.659,12.659,0,0,0-3.855-6.152,29.9,29.9,0,0,0-8.443-5.212l-4.369-1.923,4.673.975c7.726,1.613,12.76,4.426,15.391,8.6l.005.008a15.83,15.83,0,0,1,2.033,7.836,17.506,17.506,0,0,1-2.024,8.575l-.006.011a27.471,27.471,0,0,1-5.884,7.231,37.759,37.759,0,0,1-11.081,6.371l-.008,0C271.077,282.708,257.34,285.6,239.061,287.832Zm47.92-45.3a24.938,24.938,0,0,1,4.472,3.255,13.624,13.624,0,0,1,4.144,6.642l0,.016a15.322,15.322,0,0,1-.669,8.145,20.807,20.807,0,0,1-5.364,8.238l-.015.014c-5.221,4.564-16.02,8.936-24.845,12.236-3.987,1.472-7.852,2.719-11.708,3.772,11.4-1.878,20.536-4.121,27.7-6.792,9.991-3.931,13.817-8.652,16.461-13.169a16.5,16.5,0,0,0,1.9-8.072,14.825,14.825,0,0,0-1.887-7.329C295.242,246.422,291.888,244.127,286.981,242.528Z" transform="translate(-137.666 3.856)" fill="#00274d"/><path d="M258.37,228.06c6.291,1.39,10.425,3.292,12.547,5.853,2.049,2.562,1.573,6.292,0,9.218-1.718,2.817-5.011,5.23-10.022,7.535,5.705-2.963,8.3-6.255,7.938-10.023C268.356,236.8,264.919,232.742,258.37,228.06Z" transform="translate(-137.354 3.65)" fill="#fff" fill-rule="evenodd"/><path d="M233.64,217.77c5.67.293,9.108,1.317,10.462,2.926,1.353,1.646.477,3.731-2.486,6.694,1.866-2.341,2.194-4.243.841-5.853-1.354-1.647-4.244-2.853-8.817-3.768Z" transform="translate(-137.752 3.485)" fill-rule="evenodd"/><path d="M233.666,217.271c5.694.294,9.334,1.338,10.819,3.1l0,0c1.938,2.357-.328,5.174-2.519,7.365l-.745-.665c2.284-2.866,1.579-4.352.85-5.219l0,0c-1.251-1.521-4.041-2.7-8.528-3.595Zm10.052,3.746a7.519,7.519,0,0,0-3.887-1.933,8.238,8.238,0,0,1,3.011,2.134,3.729,3.729,0,0,1,.935,2.668,4.977,4.977,0,0,0,.234-.515A2.178,2.178,0,0,0,243.717,221.016Z" transform="translate(-137.752 3.485)" fill="#00274d"/><path d="M229.93,216.492c2.231-20.155,3.585-41.407,4.609-64.89.878-23.7,1.353-53.443.841-74.951-.585-21.435-1.975-38.554-4.17-52.345,1.28,26.227,1.829,54.8,1.645,87.095-.291,32.336-1.133,66.758-2.925,105.094Z" transform="translate(-137.811 0.373)" fill="#fff" fill-rule="evenodd"/><path d="M209.41,219.052c-1.28-33.836-1.975-66.575-2.085-99.641-.219-33.141.329-65.184,1.244-97.556-2.963,38.006-4.353,72.646-4.17,105.9C204.582,160.853,206.118,190.776,209.41,219.052Z" transform="translate(-138.222 0.333)" fill="#fff" fill-rule="evenodd"/><path d="M177.19,12.987C188.273,6.513,198.881,2.562,209.855.843a76.757,76.757,0,0,1,32.226,2.085A55.389,55.389,0,0,1,266.37,17.157,85.2,85.2,0,0,0,235.826,5.013c-11.047-2.048-24.472-1.39-34.349,0-9.8,1.39-17.851,3.914-24.287,7.974Z" transform="translate(-138.66 -0.018)" fill="#fff" fill-rule="evenodd"/><path d="M173.91,16.058,186.018,33.25a34.523,34.523,0,0,1,8.816-6.292A41.4,41.4,0,0,1,205.7,23.191a70.3,70.3,0,0,0-11.705,1.683c-3.182.8-5.56,1.646-7.133,2.926L173.91,16.058Z" transform="translate(-138.713 0.24)" fill="#fff" fill-rule="evenodd"/><path d="M231.19,21.9a32.972,32.972,0,0,1,10.462,1.683,38.923,38.923,0,0,1,10.022,5.011l13.425-9.62L252.955,33.606c-6.474-3.694-11.45-6.438-15.071-8.377A54.97,54.97,0,0,0,231.19,21.9Z" transform="translate(-137.791 0.287)" fill="#fff" fill-rule="evenodd"/><path d="M219.27,12.386a55.45,55.45,0,0,0-2.524,18.4,106.2,106.2,0,0,0,2.926,22.606c.879-13.973,1.245-24.069,1.245-30.982-.073-6.877-.622-10.169-1.647-10.023Z" transform="translate(-138.024 0.181)" fill="#fff" fill-rule="evenodd"/></g><g transform="translate(42.633 24.456)"><path d="M345.035,48.221a37.143,37.143,0,0,0,22.643.8c7.8-2.129,15.679-6.478,24.027-13.309a121.92,121.92,0,0,1-25.247,10.44,59.368,59.368,0,0,1-21.424,2.065Z" transform="translate(-44.945 -23.9)" fill="#00274d" fill-rule="evenodd"/><path d="M357.4,50.426a36.323,36.323,0,0,1-12.369-2.188l-.135-.049.142.014c1.673.162,3.378.243,5.067.243a62.644,62.644,0,0,0,16.351-2.308A122.047,122.047,0,0,0,391.7,35.7l.02.03c-8.331,6.817-16.193,11.172-24.034,13.312A40.544,40.544,0,0,1,357.4,50.426Zm-12.222-2.173A36.271,36.271,0,0,0,357.4,50.39a40.507,40.507,0,0,0,10.276-1.382c7.792-2.127,15.6-6.442,23.88-13.191a121.752,121.752,0,0,1-25.09,10.357,62.68,62.68,0,0,1-16.36,2.309C348.462,48.482,346.8,48.405,345.176,48.252Z" transform="translate(-44.945 -23.9)" fill="#00274d"/><path d="M50.7,121.5a128.566,128.566,0,0,1,32.612-15.169,116.8,116.8,0,0,1,34.449-5.076,581.409,581.409,0,0,1,73.856-30.336c23.818-7.9,43.149-11.442,68.477-16.511,25.4-5.089,52.39-9.723,82.561-13.893,3.524-5.7,9.894-9.642,19.63-12.131,9.7-2.479,22.238-3.241,38.172-2.438q3.179,1.3,1.139,4.248c-1.5,2-4.612,4.871-9.609,7.608-5.122,2.691-12.942,6.7-20.493,8.487a88.663,88.663,0,0,1-24.632,1.766c-37.323,5.327-68.624,11.038-95.457,17.388-26.787,6.379-41.2,12.8-64.018,20.35-22.9,7.533-46.741,15.48-72.4,24.392A87.482,87.482,0,0,1,86.27,123.834a90.687,90.687,0,0,1-32.16,2.226c-2.145.295-3.591-.037-4.117-.735-.536-.736-.373-2.1.709-3.826Z" transform="translate(-49.696 -24.062)" fill="#ff4e00" fill-rule="evenodd"/><g transform="translate(0.5)"><path d="M50.189,121.182a102.624,102.624,0,0,1,32.162-16.848,94.935,94.935,0,0,1,35.176-3.912c26.143-14.835,57.1-27.044,94.866-37.324,37.742-10.233,80.121-18.073,129.531-23.723a39.32,39.32,0,0,1,23.41-14.063c9.821-2.032,21.217-1.571,34.963,1.617-12.273-1.345-23-.709-32.737,1.9A59.4,59.4,0,0,0,342.3,42.47c-41.227,6.373-74.789,12.37-102.484,18.312-27.592,5.916-41.293,9.787-61.895,17.024a506.587,506.587,0,0,0-61.215,26.03,97.2,97.2,0,0,0-31.434,3.389,163.765,163.765,0,0,0-35.087,13.956Z" transform="translate(-50.188 -24.087)" fill="#fff" fill-rule="evenodd"/><path d="M50.145,121.845l-.792-.792.572-.3a103.075,103.075,0,0,1,32.276-16.9,93.09,93.09,0,0,1,28.021-4.188c2.349,0,4.767.082,7.189.244,26.224-14.863,57.251-27.063,94.85-37.3,38.22-10.363,80.552-18.12,129.4-23.714a39.134,39.134,0,0,1,10.246-8.962,42.941,42.941,0,0,1,13.321-5.116,62.856,62.856,0,0,1,12.7-1.238,99.335,99.335,0,0,1,22.484,2.856l-.167.984a110.18,110.18,0,0,0-11.938-.682,78.677,78.677,0,0,0-20.615,2.569,62.533,62.533,0,0,0-13.483,5.3,57.915,57.915,0,0,0-11.566,8.228l-.112.1-.149.023c-41.241,6.375-74.754,12.363-102.456,18.307C213.208,67,199.339,70.813,178.09,78.278a505.164,505.164,0,0,0-61.156,26l-.121.061-.136-.009c-1.831-.118-3.7-.178-5.543-.178A99.728,99.728,0,0,0,85.4,107.708,163,163,0,0,0,50.465,121.6Zm60.077-21.176A92.1,92.1,0,0,0,82.5,104.812a100.809,100.809,0,0,0-26.917,13.082,156.361,156.361,0,0,1,29.568-11.153,100.7,100.7,0,0,1,25.983-3.584c1.823,0,3.663.058,5.471.172a506.046,506.046,0,0,1,61.154-25.995c21.294-7.481,35.191-11.3,61.955-17.041C267.4,54.353,300.887,48.368,342.078,42a58.9,58.9,0,0,1,11.654-8.268,63.533,63.533,0,0,1,13.7-5.382,79.663,79.663,0,0,1,20.874-2.6q1.9,0,3.86.075a87.929,87.929,0,0,0-14.239-1.234A61.852,61.852,0,0,0,365.435,25.8a41.941,41.941,0,0,0-13.01,4.995,38.171,38.171,0,0,0-10.111,8.891l-.129.161-.2.023c-48.887,5.59-91.233,13.345-129.458,23.708C174.944,73.809,143.951,86,117.774,100.857l-.131.074-.15-.01C115.044,100.754,112.6,100.67,110.222,100.67Z" transform="translate(-50.188 -24.087)" fill="#00274d"/><path d="M59.236,125.084c12.588,1.261,22.939.924,31.615-1.161,8.551-2.132,15.151-5.777,19.86-11.273A161.62,161.62,0,0,1,82,123.1C73.288,125.194,65.889,125.857,59.236,125.084Z" transform="translate(-50.042 -22.662)" fill="#fff" fill-rule="evenodd"/><path d="M125,108.185c35.655-15.346,65.756-26.807,91.979-35.151,26.078-8.187,42.625-10.583,63.456-14.287,20.7-3.909,40.267-6.715,59.787-8.709-30.532,4.505-57.478,9.449-82.6,15.3-25.084,5.842-44.234,11.893-66.483,19.172C168.77,91.744,147.186,99.4,125,108.185Z" transform="translate(-48.985 -23.669)" fill="#fff" fill-rule="evenodd"/></g></g><path d="M60.19,5.616c31.48,0,52.1.521,52.1,4.387S88.48,17.682,57,17.682,3.7,17.866,3.7,14,28.71,5.616,60.19,5.616Z" transform="translate(23.527 222.021)" fill="#fff"/><path d="M60.19,6.616A269.118,269.118,0,0,0,20.854,9.259,81.9,81.9,0,0,0,8.884,11.852C5.225,13.036,4.746,13.905,4.7,14.005c.032.066.386.642,2.972,1.194a64.292,64.292,0,0,0,9.175,1c7.9.446,18.773.481,32.174.481H57a290.578,290.578,0,0,0,38.854-2.314A76.918,76.918,0,0,0,107.4,12c3.54-1.117,3.879-1.953,3.9-2.005-.006-.048-.1-.214-.471-.442a9.153,9.153,0,0,0-2.48-.9,65.589,65.589,0,0,0-10.362-1.3c-9.657-.652-23.869-.742-37.789-.742m0-1c31.48,0,52.1.521,52.1,4.387S88.48,17.682,57,17.682,3.7,17.866,3.7,14,28.71,5.616,60.19,5.616Z" transform="translate(23.527 222.021)" fill="#707070"/></g><g transform="translate(17.244 -9.982)" style="isolation:isolate"><g transform="translate(286.564 66.436)"><path d="M352.442,136.68c-15.144.256-27.582,2.048-38.152,5.084-10.535,3.109-25.093,9.8-24.508,13.315.585,3.4,13.168,5.45,28.02,6.988,14.814,1.317,43.566,1.974,60.282,1.426,16.57-.621,29.19-2.267,38.553-4.937-24.508,1.792-45.395,2.634-63.794,2.816-18.4.037-35.883-.951-45.54-2.122-9.693-1.207-12.255-2.562-11.925-4.9.256-2.451,4.5-6.145,14.01-9.108C319.009,142.239,333.128,139.387,352.442,136.68Z" transform="translate(-289.765 -64.256)" fill="#00274d" fill-rule="evenodd"/><path d="M380.28,135.433c15.144-1.134,27.983-1.134,38.957,0,10.9,1.061,22.46,4.1,26.373,6.731,3.841,2.634.366,6.218-3.365,8.779-3.877,2.414-10.389,4.316-19.68,5.853,9.364-2.6,15.327-5.158,18.436-7.535,3-2.451,3.512-5.011-.439-7.1-4.28-2.268-14.157-4.756-24.252-5.889a233.145,233.145,0,0,0-36.03-.842Z" transform="translate(-288.309 -64.289)" fill="#00274d" fill-rule="evenodd"/><path d="M418.062,139.13c10.9,2.341,16.022,4.536,15.509,6.731-.768,2.158-8.742,4.243-18.838,6.254-10.1,1.866-23.593,3.548-41.042,5.049,16.68-2.268,29.19-4.316,38.115-6.292,8.816-2.012,13.461-3.548,14.632-5.45.988-2.012-1.756-4.061-8.377-6.292Z" transform="translate(-288.415 -64.216)" fill="#00274d" fill-rule="evenodd"/><path d="M389.384,139.961a385.333,385.333,0,0,0-40.639,1.28c-12.108.988-24.069,3.035-30.544,5.011-6.548,1.975-9.254,4.353-7.535,6.292,1.829,1.792,7.865,3.328,18.4,4.609-10.315-1.83-15.474-3.548-15.876-5.45-.256-1.9,6.218-4.316,13.79-5.853,7.389-1.646,20.083-2.854,30.581-3.768,10.462-.952,20.923-1.757,31.824-2.122Z" transform="translate(-289.437 -64.204)" fill="#00274d" fill-rule="evenodd"/><path d="M330.86,170.127c9.108,5.45,17.485,8.889,25.532,10.462,7.938,1.5,13.315,1.134,22.2-1.244,8.889-2.562,18.875-6.84,30.544-13.426-14.779,5.487-26.594,9.073-35.995,10.9-9.4,1.719-13.1,1.061-20.119,0a97.34,97.34,0,0,1-22.167-6.694Z" transform="translate(-289.104 -63.785)" fill="#00274d" fill-rule="evenodd"/><path d="M356.877,71.558a251.426,251.426,0,0,0-20.484,31.824,114.023,114.023,0,0,0-10.9,27.215c8.779-16.534,15.619-29.373,20.923-39.359C351.646,81.251,355.084,74.923,356.877,71.558Z" transform="translate(-289.19 -65.303)" fill="#00274d" fill-rule="evenodd"/><path d="M372.87,66.23c9.693,14.485,18.436,26.666,26.373,37.237S414.021,122.27,420.2,129c-8.633-12.876-16.827-24.18-24.727-34.751C387.465,83.751,380.113,74.46,372.87,66.23Z" transform="translate(-288.428 -65.389)" fill="#00274d" fill-rule="evenodd"/><path d="M364.286,65.4c-1.39,15.217-2.414,27.727-2.927,38.518a236.683,236.683,0,0,0-.439,25.094c1.939-12.949,3.146-24.436,3.768-35.153a199.9,199.9,0,0,0-.4-28.458Z" transform="translate(-288.623 -65.402)" fill="#00274d" fill-rule="evenodd"/></g><g transform="translate(0 151.175)"><path d="M70.414,220.08c-15.144.256-27.582,2.048-38.152,5.084-10.535,3.109-25.093,9.8-24.508,13.315.585,3.4,13.168,5.45,28.02,6.988,14.815,1.317,43.566,1.974,60.282,1.426,16.57-.621,29.19-2.267,38.553-4.937-24.508,1.792-45.395,2.634-63.794,2.816-18.4.037-35.883-.951-45.54-2.122-9.693-1.207-12.255-2.562-11.925-4.9.256-2.451,4.5-6.145,14.01-9.108C36.981,225.639,51.1,222.787,70.414,220.08Z" transform="translate(-7.737 -147.654)" fill="#00274d" fill-rule="evenodd"/><path d="M98.258,218.833c15.144-1.134,27.983-1.134,38.957,0,10.9,1.061,22.46,4.1,26.373,6.731,3.841,2.634.366,6.218-3.365,8.779-3.877,2.414-10.389,4.316-19.68,5.853,9.364-2.6,15.327-5.158,18.436-7.535,3-2.451,3.512-5.011-.439-7.1-4.28-2.268-14.157-4.756-24.252-5.889a233.143,233.143,0,0,0-36.03-.842Z" transform="translate(-6.281 -147.687)" fill="#00274d" fill-rule="evenodd"/><path d="M136.042,222.52c10.9,2.341,16.022,4.536,15.51,6.731-.768,2.158-8.742,4.243-18.838,6.254-10.1,1.866-23.593,3.548-41.042,5.049,16.68-2.268,29.19-4.316,38.115-6.292,8.816-2.012,13.461-3.548,14.632-5.45.988-2.012-1.756-4.061-8.377-6.292Z" transform="translate(-6.387 -147.614)" fill="#00274d" fill-rule="evenodd"/><path d="M107.364,223.351a385.333,385.333,0,0,0-40.639,1.28c-12.108.988-24.069,3.035-30.543,5.011-6.548,1.975-9.255,4.353-7.535,6.292,1.829,1.792,7.864,3.328,18.4,4.609-10.315-1.83-15.474-3.548-15.876-5.45-.256-1.9,6.218-4.316,13.79-5.853,7.389-1.646,20.083-2.854,30.581-3.768,10.462-.952,20.923-1.757,31.824-2.122Z" transform="translate(-7.409 -147.602)" fill="#00274d" fill-rule="evenodd"/><path d="M48.83,253.517c9.108,5.45,17.485,8.889,25.532,10.462,7.938,1.5,13.315,1.134,22.2-1.244,8.889-2.562,18.875-6.84,30.545-13.425-14.779,5.487-26.594,9.073-35.995,10.9-9.4,1.719-13.1,1.061-20.118,0A97.339,97.339,0,0,1,48.83,253.517Z" transform="translate(-7.076 -147.183)" fill="#00274d" fill-rule="evenodd"/><path d="M74.851,154.95a251.421,251.421,0,0,0-20.484,31.824,114.023,114.023,0,0,0-10.9,27.215c8.779-16.534,15.619-29.373,20.923-39.359C69.62,164.643,73.058,158.315,74.851,154.95Z" transform="translate(-7.162 -148.701)" fill="#00274d" fill-rule="evenodd"/><path d="M90.842,149.62c9.693,14.485,18.436,26.666,26.373,37.237s14.778,18.8,20.96,25.533c-8.633-12.876-16.827-24.18-24.727-34.751-8.011-10.5-15.363-19.789-22.606-28.02Z" transform="translate(-6.4 -148.787)" fill="#00274d" fill-rule="evenodd"/><path d="M82.259,148.8c-1.39,15.217-2.414,27.727-2.927,38.518a236.69,236.69,0,0,0-.439,25.094c1.939-12.949,3.146-24.436,3.768-35.153a199.908,199.908,0,0,0-.4-28.458Z" transform="translate(-6.595 -148.8)" fill="#00274d" fill-rule="evenodd"/></g><g transform="translate(133.648 0)"><path d="M-1408.41,3901.646c-3.839-19.744-24.68,13.163,0,14.26,9.576.426,16.541,2.8,24.68,2.742a82.022,82.022,0,0,0,31.261-6.582C-1340.4,3906.583-1404.571,3921.39-1408.41,3901.646Z" transform="translate(1455.125 -3658.225)" fill="#fff"/><path d="M180.308,227.23c-5.926,1.171-9.876,3.073-12.144,5.853-2.231,2.78-4.572,6.658-1.244,10.5,3.329,3.768,10.681,9.218,20.923,11.706,10.279,2.195,27.727,2.561,39.8,2.085a118.263,118.263,0,0,0,30.981-5.011c-18.106,2.707-33.176,3.694-46.053,3.365a95.153,95.153,0,0,1-30.58-5.889c-7.5-2.963-13.571-7.572-13.827-11.3-.255-3.805,3.694-7.573,12.144-11.3Z" transform="translate(-138.852 3.637)" fill="#00274d" fill-rule="evenodd"/><path d="M204.568,218.99c-5.67.989-8.925,2.342-10.059,4.208-1.1,1.829-.878,5.048,3.329,6.694,4.207,1.462,14.485,2.487,21.362,2.523a70.781,70.781,0,0,0,18.838-2.523,186.16,186.16,0,0,1-28.458.4c-6.877-.657-11.3-2.378-12.144-4.17-.769-1.9,1.427-4.28,7.133-7.134Z" transform="translate(-138.39 3.504)" fill="#00274d" fill-rule="evenodd"/><path d="M157.469,243.41a8.687,8.687,0,0,0-2.926,8.377c.512,3.182-.037,7.279,6.255,11.3,6.365,3.987,16.79,10.425,30.982,12.547,14.046,1.975,39.433,1.134,52.748-.4,13.132-1.609,19.058-5.011,25.971-9.218a38.275,38.275,0,0,0,14.668-16.351l-8.376-11.3,5.449,11.742c-1.61,3.292-5.341,6.731-11.34,10.463-6.109,3.731-13.681,9.473-24.691,11.705-11.193,2.012-29.995,1.536-41.444.841A101.532,101.532,0,0,1,177.99,268.1c-7.755-2.635-15.875-6.4-19.277-10.463-3.438-4.1-3.8-8.889-1.245-14.229Z" transform="translate(-139.026 3.816)" fill="#00274d" fill-rule="evenodd"/><path d="M147.653,242.07c-5.56,4.207-8.3,9-8.377,14.669-.11,5.669,1.134,13.461,7.974,18.837,6.84,5.121,18.509,9.73,32.629,12.144,14.046,2.379,30.8,3.073,51.1,2.086-19.754-.4-36.177-2.268-50.261-5.45-14.156-3.292-27.434-7.939-33.47-13.79-5.926-6.035-2.3-16.5-2.122-21.361q.058-7.136,2.525-7.135Z" transform="translate(-139.27 3.875)" fill="#00274d" fill-rule="evenodd"/><path d="M239,287.336a132.14,132.14,0,0,0,25.532-6.731c8.413-3.146,19.46-7.572,24.691-12.144,5.084-4.828,6.914-11.3,5.889-15.912-1.207-4.681-5.267-8.486-12.583-11.705,7.535,1.573,12.511,4.316,15.071,8.377,2.451,4.059,2.78,10.863,0,15.911-2.89,4.938-6.95,9.547-16.717,13.389-9.913,3.694-23.594,6.583-41.883,8.816Z" transform="translate(-137.666 3.856)" fill="#00274d" fill-rule="evenodd"/><path d="M258.37,228.06c6.291,1.39,10.425,3.292,12.547,5.853,2.049,2.562,1.573,6.292,0,9.218-1.718,2.817-5.011,5.23-10.022,7.535,5.705-2.963,8.3-6.255,7.938-10.023C268.356,236.8,264.919,232.742,258.37,228.06Z" transform="translate(-137.354 3.65)" fill="#00274d" fill-rule="evenodd"/><path d="M233.64,217.77c5.67.293,9.108,1.317,10.462,2.926,1.353,1.646.477,3.731-2.486,6.694,1.866-2.341,2.194-4.243.841-5.853-1.354-1.647-4.244-2.853-8.817-3.768Z" transform="translate(-137.752 3.485)" fill="#00274d" fill-rule="evenodd"/><path d="M229.93,216.492c2.231-20.155,3.585-41.407,4.609-64.89.878-23.7,1.353-53.443.841-74.951-.585-21.435-1.975-38.554-4.17-52.345,1.28,26.227,1.829,54.8,1.645,87.095-.291,32.336-1.133,66.758-2.925,105.094Z" transform="translate(-137.811 0.373)" fill="#00274d" fill-rule="evenodd"/><path d="M209.41,219.052c-1.28-33.836-1.975-66.575-2.085-99.641-.219-33.141.329-65.184,1.244-97.556-2.963,38.006-4.353,72.646-4.17,105.9C204.582,160.853,206.118,190.776,209.41,219.052Z" transform="translate(-138.222 0.333)" fill="#00274d" fill-rule="evenodd"/><path d="M177.19,12.987C188.273,6.513,198.881,2.562,209.855.843a76.757,76.757,0,0,1,32.226,2.085A55.389,55.389,0,0,1,266.37,17.157,85.2,85.2,0,0,0,235.826,5.013c-11.047-2.048-24.472-1.39-34.349,0-9.8,1.39-17.851,3.914-24.287,7.974Z" transform="translate(-138.66 -0.018)" fill="#00274d" fill-rule="evenodd"/><path d="M173.91,16.058,186.018,33.25a34.523,34.523,0,0,1,8.816-6.292A41.4,41.4,0,0,1,205.7,23.191a70.3,70.3,0,0,0-11.705,1.683c-3.182.8-5.56,1.646-7.133,2.926L173.91,16.058Z" transform="translate(-138.713 0.24)" fill="#00274d" fill-rule="evenodd"/><path d="M231.19,21.9a32.972,32.972,0,0,1,10.462,1.683,38.923,38.923,0,0,1,10.022,5.011l13.425-9.62L252.955,33.606c-6.474-3.694-11.45-6.438-15.071-8.377A54.97,54.97,0,0,0,231.19,21.9Z" transform="translate(-137.791 0.287)" fill="#00274d" fill-rule="evenodd"/><path d="M219.27,12.386a55.45,55.45,0,0,0-2.524,18.4,106.2,106.2,0,0,0,2.926,22.606c.879-13.973,1.245-24.069,1.245-30.982-.073-6.877-.622-10.169-1.647-10.023Z" transform="translate(-138.024 0.181)" fill="#00274d" fill-rule="evenodd"/><path d="M190.5,222.3c-5.194,3.584-7.974,7.206-8.779,10.863-.768,3.659-.695,7.756,4.17,10.9,4.828,3,15.327,6.218,24.727,7.133,9.437.622,23.008-.219,30.983-2.523,7.718-2.268,12.876-5.854,15.473-10.9l-9.217-12.108,5.048,12.548c-4.464,3.658-10.1,6.218-17.595,7.535-7.535,1.17-18.582,1.17-26.777.4-8.34-.732-18.326-1.939-22.2-4.609-3.731-2.816-1.244-8.925-.439-11.705.622-2.78,3.8-3.841,4.609-5.012q1.1-1.977,0-2.524Z" transform="translate(-148.346 13.311)" fill="#00274d" fill-rule="evenodd"/><path d="M190.464,221.721l.264.132a1.427,1.427,0,0,1,.755.861,3.137,3.137,0,0,1-.54,2.353l-.025.041a6.307,6.307,0,0,1-1.556,1.341c-1.161.821-2.606,1.842-2.977,3.5l-.008.03c-.09.309-.2.661-.317,1.033a23.051,23.051,0,0,0-1.208,5.424c-.118,2.17.463,3.709,1.776,4.7,3.879,2.662,14.386,3.853,21.955,4.516,3.712.348,7.9.531,12.1.531a98.723,98.723,0,0,0,14.551-.929c6.958-1.223,12.548-3.579,17.074-7.2l-6.293-15.644,11.653,15.308-.144.281a18.566,18.566,0,0,1-5.973,6.674,33.492,33.492,0,0,1-9.8,4.479c-5.855,1.691-15.3,2.741-24.641,2.741-2.317,0-4.509-.067-6.516-.2h-.016a79.107,79.107,0,0,1-14.171-2.8,46.594,46.594,0,0,1-10.772-4.4l-.008,0a9.706,9.706,0,0,1-4.407-5.542,12.075,12.075,0,0,1,.019-5.882,13.953,13.953,0,0,1,2.842-5.668,28.6,28.6,0,0,1,6.142-5.5Zm-.383,2.838c.516-.937.5-1.373.447-1.549a.382.382,0,0,0-.039-.089,27.148,27.148,0,0,0-5.628,5.095,12.965,12.965,0,0,0-2.646,5.255,11.124,11.124,0,0,0-.035,5.4,8.752,8.752,0,0,0,3.984,4.972,45.64,45.64,0,0,0,10.523,4.291,78.088,78.088,0,0,0,13.978,2.766c1.983.13,4.151.2,6.443.2,9.257,0,18.592-1.035,24.361-2.7a32.5,32.5,0,0,0,9.508-4.337,17.686,17.686,0,0,0,5.512-6.035l-6.779-8.9,3.8,9.45-.284.233c-4.714,3.863-10.544,6.362-17.825,7.641l-.01,0a99.694,99.694,0,0,1-14.709.941c-4.236,0-8.451-.185-12.191-.535-8.334-.731-18.419-1.926-22.44-4.695l-.018-.013c-1.583-1.194-2.316-3.066-2.181-5.563a23.847,23.847,0,0,1,1.252-5.669c.113-.361.221-.7.306-1,.46-2.023,2.142-3.212,3.372-4.081A6.208,6.208,0,0,0,190.081,224.559Z" transform="translate(-148.346 13.311)" fill="#00274d"/><path d="M190.5,222.3c-5.194,3.584-7.974,7.206-8.779,10.863-.768,3.659-.695,7.756,4.17,10.9,4.828,3,15.327,6.218,24.727,7.133,9.437.622,23.008-.219,30.983-2.523,7.718-2.268,12.876-5.854,15.473-10.9l-9.217-12.108,5.048,12.548c-4.464,3.658-10.1,6.218-17.595,7.535-7.535,1.17-18.582,1.17-26.777.4-8.34-.732-18.326-1.939-22.2-4.609-3.731-2.816-1.244-8.925-.439-11.705.622-2.78,3.8-3.841,4.609-5.012q1.1-1.977,0-2.524Z" transform="translate(-138.593 3.557)" fill="#00274d" fill-rule="evenodd"/></g><g transform="translate(43.134 24.456)"><path d="M50.189,121.182a102.624,102.624,0,0,1,32.162-16.848,94.935,94.935,0,0,1,35.176-3.912c26.143-14.835,57.1-27.044,94.866-37.324,37.742-10.233,80.121-18.073,129.531-23.723a39.32,39.32,0,0,1,23.41-14.063c9.821-2.032,21.217-1.571,34.963,1.617-12.273-1.345-23-.709-32.737,1.9A59.4,59.4,0,0,0,342.3,42.47c-41.227,6.373-74.789,12.37-102.484,18.312-27.592,5.916-41.293,9.787-61.895,17.024a506.587,506.587,0,0,0-61.215,26.03,97.2,97.2,0,0,0-31.434,3.389,163.765,163.765,0,0,0-35.087,13.956Z" transform="translate(-50.188 -24.087)" fill="#00274d" fill-rule="evenodd"/><path d="M59.236,125.084c12.588,1.261,22.939.924,31.615-1.161,8.551-2.132,15.151-5.777,19.86-11.273A161.62,161.62,0,0,1,82,123.1C73.288,125.194,65.889,125.857,59.236,125.084Z" transform="translate(-50.042 -22.662)" fill="#00274d" fill-rule="evenodd"/><path d="M125,108.185c35.655-15.346,65.756-26.807,91.979-35.151,26.078-8.187,42.625-10.583,63.456-14.287,20.7-3.909,40.267-6.715,59.787-8.709-30.532,4.505-57.478,9.449-82.6,15.3-25.084,5.842-44.234,11.893-66.483,19.172C168.77,91.744,147.186,99.4,125,108.185Z" transform="translate(-48.985 -23.669)" fill="#00274d" fill-rule="evenodd"/></g></g></g><rect width="485" height="381" transform="translate(-42 3661)" fill="none"/></g></svg>