<svg xmlns="http://www.w3.org/2000/svg" width="485" height="381" viewBox="0 0 485 381"><g transform="translate(193 -6839)"><g transform="translate(-1139 6420.311)"><g transform="translate(989.62 470.391)"><path d="M175.476,111.317l133.889,72.816,129.613,81-18.3,32.087L286.759,224.4,157.165,143.378ZM417.465,270.552,301.3,197.944,181.6,132.859l-2.915,5.1L294.823,210.59l119.721,65.083Z" transform="translate(-39.178 -19.33)" fill="#00274d"/><path d="M183.928,109.664a12.409,12.409,0,0,1,6.013,1.622,11.97,11.97,0,0,1,4.606,15.52,143.807,143.807,0,0,1-13.75,24.067,12.181,12.181,0,0,1-9.984,5.367,11.629,11.629,0,0,1-5.81-1.565,12.011,12.011,0,0,1-5.664-7.74,11.444,11.444,0,0,1,1.708-8.957,129.8,129.8,0,0,0,12.409-21.76A11.536,11.536,0,0,1,183.928,109.664Z" transform="translate(-38.977 -18.338)" fill="#00274d"/><path d="M107.184-11.6l7.3,5.635c29.343,22.64,37.343,27.311,71.337,41.646l8.32,3.509L185.266,54.7a19.81,19.81,0,0,1-4.978,5.48,14.225,14.225,0,0,0-1.356,1.2c-.1.215-.327,1.426-.478,2.227a26.578,26.578,0,0,1-1.521,5.567,43.622,43.622,0,0,1-3.452,6.327c-.459.734-.92,1.466-1.348,2.214l-35.056,61.374c-.411.726-.806,1.5-1.2,2.262a43.745,43.745,0,0,1-3.713,6.24,26.4,26.4,0,0,1-4.015,4.112,13.938,13.938,0,0,0-1.7,1.63,14.5,14.5,0,0,0-.557,2.35,26.6,26.6,0,0,1-1.52,5.563,40.836,40.836,0,0,1-3.54,6.475c-1.26,1.881-3.755,5.6-8.866,5.6a11.667,11.667,0,0,1-4.5-.992c-32.865-13.776-42.231-19.259-71.6-41.91-3.185-2.416-5.552-7.046-2.494-12.68l3.565-6.244a19.811,19.811,0,0,1,4.982-5.486,14.2,14.2,0,0,0,1.356-1.2c.1-.216.329-1.427.48-2.229a26.843,26.843,0,0,1,1.509-5.543,44.029,44.029,0,0,1,3.474-6.345c.464-.739.931-1.478,1.366-2.236L85.126,27.1c.428-.75.828-1.524,1.23-2.3a44.376,44.376,0,0,1,3.7-6.2,26.388,26.388,0,0,1,4-4.1A13.8,13.8,0,0,0,95.8,12.818a15.56,15.56,0,0,0,.536-2.329A27.121,27.121,0,0,1,97.8,5.013a45.05,45.05,0,0,1,3.421-6.254c.482-.771.967-1.542,1.414-2.332Zm64.06,58.461c-25.9-11.171-36.537-17.365-59-34.392-.061.306-.122.635-.183.959a22.389,22.389,0,0,1-2.381,7.343,22.4,22.4,0,0,1-5.094,5.771,14.9,14.9,0,0,0-1.711,1.633,28.367,28.367,0,0,0-2.324,4c-.5.962-1,1.922-1.535,2.856L63.982,96.411c-.549.956-1.123,1.874-1.7,2.789a28.06,28.06,0,0,0-2.261,4,15.29,15.29,0,0,0-.551,2.348,22.375,22.375,0,0,1-2.375,7.294,19.824,19.824,0,0,1-4.989,5.5,14.2,14.2,0,0,0-1.356,1.2l-.846,1.485c23.654,18.076,32.948,23.492,59.4,34.713.107-.224.208-.448.3-.675a14.9,14.9,0,0,0,.557-2.354,22.389,22.389,0,0,1,2.374-7.3,21.975,21.975,0,0,1,5.094-5.776,14.765,14.765,0,0,0,1.718-1.638,27.775,27.775,0,0,0,2.3-3.991c.491-.951.984-1.9,1.511-2.832l35.071-61.4c.534-.935,1.1-1.851,1.678-2.767a27.683,27.683,0,0,0,2.251-4.005,14.745,14.745,0,0,0,.563-2.369,22.381,22.381,0,0,1,2.374-7.3,19.829,19.829,0,0,1,4.99-5.5C170.471,47.537,170.953,47.138,171.244,46.861Z" transform="translate(-9.387 7.962)" fill="#00274d"/><path d="M122.013,10.342h0a10.383,10.383,0,0,1,6.394,2.167c27.4,21.425,33.529,25,65.581,38.312a10.547,10.547,0,0,1,5.933,6.393,11.34,11.34,0,0,1-.934,9.35,10.943,10.943,0,0,1-9.611,5.481,12.067,12.067,0,0,1-4.732-.972c-33.05-13.7-40.817-18.235-69.2-40.4a11.237,11.237,0,0,1,6.566-20.329Z" transform="translate(-27.748 3.932)" fill="#00274d"/><path d="M53.479,129.029a10.491,10.491,0,0,1,6.4,2.169c27.38,21.4,33.506,24.982,65.6,38.31a10.564,10.564,0,0,1,5.9,6.353,11.391,11.391,0,0,1-.86,9.314,10.985,10.985,0,0,1-9.664,5.557,12,12,0,0,1-4.758-.987C83.034,176.037,75.267,171.5,46.932,149.356a11.313,11.313,0,0,1-3.167-14.637A11.174,11.174,0,0,1,53.479,129.029Z" transform="translate(-11.799 -22.68)" fill="#00274d"/><path d="M4.711-8H8.057l2.828,2.6c1.573,1.581,6.36,6.391,6.16,47.9C16.8,92.905,10.476,92.936,4.358,92.965l-3.348.016-2.845-2.614C-3.407,88.786-8.2,83.975-8,42.466-7.752-7.94-1.426-7.971,4.691-8Z" transform="matrix(0.5, -0.866, 0.866, 0.5, 101.946, 7.837)" fill="#00274d"/><path d="M6.861,295.624h.7l1.137.161a263.684,263.684,0,0,0,47.614,4.682c14.729,0,30.147-1.449,49.99-4.7l.642-.105,1.079-.036c3.5,0,8.255,1.613,11.032,9.3,1.976,5.559,3.738,11.122,3.738,18.463,0,17.293-7.377,21.251-11.775,22.071-21.506,4.054-38.425,5.863-54.844,5.863-16.553,0-33.226-1.874-52.473-5.9-4.316-.893-11.583-4.948-11.583-22.037,0-7.341,1.762-12.9,3.724-18.425C-1.4,297.242,3.357,295.624,6.861,295.624Zm99.2,34.483a27.021,27.021,0,0,0,.727-6.718,32.809,32.809,0,0,0-2.154-11.207c-18.342,2.939-33.594,4.284-48.326,4.284A272.167,272.167,0,0,1,10.264,312.3a32.256,32.256,0,0,0-2.151,11.088,26.636,26.636,0,0,0,.76,6.767,233.473,233.473,0,0,0,47.3,5.166C71.049,335.322,86.511,333.71,106.061,330.107Z" transform="translate(-0.113 -60.034)" fill="#00274d"/><path d="M52.194-8c60.194,0,60.194,11.061,60.194,15.785s0,15.785-60.194,15.785S-8,12.508-8,7.785-8-8,52.194-8Z" transform="translate(5.242 236.79)" fill="#00274d"/></g><g transform="translate(980 469.309)"><path d="M178.714,120.069l1.291.7,136.05,73.993,117.887,71.979-12.8,22.437L298.508,225.413l-.051-.032-132.55-82.89Zm135.809,77.275L179.862,124.108l-9.92,17.369L300,222.806l119.968,62.38,9.927-17.4Z" transform="translate(-33.752 -12.065)" fill="#fff"/><path d="M185.12,116.164h0a5.7,5.7,0,0,1,2.872.772,5.4,5.4,0,0,1,2.526,3.39,6.264,6.264,0,0,1-.434,4.143,147.89,147.89,0,0,1-14.141,24.75,5.979,5.979,0,0,1-4.867,2.683,5.376,5.376,0,0,1-2.685-.728l-.007,0a5.749,5.749,0,0,1-2.7-3.7,5.1,5.1,0,0,1,.752-4.046,145.038,145.038,0,0,0,13.87-24.318A5.2,5.2,0,0,1,185.12,116.164ZM171.078,148.9a2.987,2.987,0,0,0,2.4-1.384A143.587,143.587,0,0,0,187.367,123.2a2.791,2.791,0,0,0-.888-3.675,2.693,2.693,0,0,0-1.358-.361h0a2.252,2.252,0,0,0-2.09,1.208,149.37,149.37,0,0,1-14.116,24.748,2.132,2.132,0,0,0-.3,1.7,2.777,2.777,0,0,0,1.279,1.763A2.34,2.34,0,0,0,171.078,148.9Z" transform="translate(-33.597 -11.316)" fill="#fff"/><path d="M114.071-1.875,115.44-.819c15.543,11.993,26.052,19.71,37.053,26.133,11.023,6.436,22.878,11.774,40.9,19.373l1.56.658-5.545,9.687a14.692,14.692,0,0,1-3.7,3.931,12.3,12.3,0,0,0-3,3.105,15.217,15.217,0,0,0-1.4,4.7,22.07,22.07,0,0,1-1.2,4.53,39.554,39.554,0,0,1-3.173,5.768c-.535.855-1.089,1.74-1.589,2.615q-.62,1.086-1.241,2.176c-1.13,1.983-2.3,4.034-3.464,6.045-.78,1.366-1.574,2.761-2.341,4.111s-1.558,2.739-2.337,4.1l-.385.674c-1.407,2.465-2.863,5.013-4.293,7.539l-.007.013c-1.481,2.557-3.018,5.24-4.7,8.2l0,0c-1.731,3.031-3.175,5.56-4.677,8.213l0,.005c-.59,1.032-1.193,2.081-1.775,3.1-.962,1.674-1.956,3.405-2.925,5.116l0,0-4.68,8.193c-.945,1.668-1.912,3.352-2.848,4.981-.609,1.061-1.24,2.158-1.855,3.235-.5.874-.971,1.8-1.431,2.687a39.654,39.654,0,0,1-3.353,5.687,21.858,21.858,0,0,1-3.285,3.311,14.775,14.775,0,0,0-3.317,3.572,15.223,15.223,0,0,0-1.4,4.7,22.081,22.081,0,0,1-1.2,4.53,37.153,37.153,0,0,1-3.2,5.817l-.012.018a12.29,12.29,0,0,1-1.363,1.807,3,3,0,0,1-2.2.959,5.43,5.43,0,0,1-2.1-.521c-16.491-6.912-28.2-12.184-39.256-18.68-10.75-6.315-20.876-13.75-35.8-25.259a3.312,3.312,0,0,1-1.434-2.29,4.171,4.171,0,0,1,.654-2.325l.016-.029,3.726-6.522a14.688,14.688,0,0,1,3.7-3.932,12.289,12.289,0,0,0,3-3.105,15.2,15.2,0,0,0,1.4-4.7,22.331,22.331,0,0,1,1.194-4.527,39.965,39.965,0,0,1,3.183-5.756c.54-.86,1.1-1.749,1.6-2.631l4.677-8.186c1.48-2.613,2.984-5.247,4.438-7.793L66.3,81.8c1.585-2.758,3.129-5.46,4.7-8.215s3.148-5.535,4.679-8.216c.954-1.685,1.931-3.385,2.876-5.029.6-1.047,1.223-2.129,1.83-3.192.8-1.4,1.618-2.839,2.408-4.226.745-1.31,1.515-2.664,2.273-3.991q.627-1.1,1.254-2.2c1.126-1.977,2.291-4.021,3.453-6.024.755-1.322,1.524-2.673,2.267-3.98.79-1.389,1.607-2.826,2.411-4.233.5-.876.984-1.807,1.452-2.707a40.282,40.282,0,0,1,3.353-5.665,21.872,21.872,0,0,1,3.273-3.306,15.19,15.19,0,0,0,3.331-3.579,15.235,15.235,0,0,0,1.4-4.733,22.617,22.617,0,0,1,1.166-4.485l.008-.02a41.06,41.06,0,0,1,3.107-5.607c.564-.9,1.147-1.835,1.671-2.76Zm76.6,48.669C173.4,39.491,161.821,34.235,150.98,27.9c-10.819-6.317-21.118-13.831-36.028-25.312-.287.469-.576.932-.861,1.387A38.3,38.3,0,0,0,111.2,9.164a20.14,20.14,0,0,0-.989,3.89,17.674,17.674,0,0,1-1.746,5.668l0,.008a17.633,17.633,0,0,1-3.958,4.344,19.343,19.343,0,0,0-2.845,2.843,37.462,37.462,0,0,0-3.094,5.253c-.481.926-.979,1.884-1.509,2.812-.8,1.4-1.619,2.84-2.408,4.228-.745,1.309-1.515,2.663-2.272,3.989l0,.009c-1.157,1.994-2.319,4.035-3.443,6.008q-.628,1.1-1.255,2.2c-.757,1.324-1.526,2.678-2.27,3.986-.79,1.389-1.607,2.825-2.41,4.231-.609,1.066-1.231,2.15-1.833,3.2-.943,1.641-1.917,3.337-2.867,5.015l0,0c-1.531,2.68-3.114,5.452-4.677,8.212l0,0c-1.575,2.758-3.12,5.462-4.706,8.221l-.242.424c-1.453,2.545-2.956,5.176-4.434,7.785l0,0L59.546,99.7c-.538.937-1.112,1.851-1.667,2.735a37.147,37.147,0,0,0-2.955,5.317,19.792,19.792,0,0,0-1.015,3.928,17.658,17.658,0,0,1-1.742,5.629,14.687,14.687,0,0,1-3.7,3.935,12.289,12.289,0,0,0-3,3.105l-3.719,6.51a3.823,3.823,0,0,0-.27.578,2.1,2.1,0,0,0,.239.205l.01.007C56.55,143.084,66.6,150.463,77.213,156.7c10.912,6.411,22.524,11.637,38.893,18.5a3.127,3.127,0,0,0,.936.289,8.772,8.772,0,0,0,1.075-1.428,33.793,33.793,0,0,0,2.941-5.33,19.552,19.552,0,0,0,1.017-3.928,17.675,17.675,0,0,1,1.741-5.63,17.231,17.231,0,0,1,3.954-4.351,19.32,19.32,0,0,0,2.854-2.847,36.837,36.837,0,0,0,3.089-5.265c.474-.917.963-1.866,1.488-2.792l0,0c.618-1.082,1.249-2.181,1.86-3.244.934-1.626,1.9-3.307,2.841-4.968l0,0,4.68-8.193c.973-1.718,1.969-3.452,2.932-5.129.582-1.013,1.184-2.061,1.772-3.089,1.622-2.865,3.316-5.83,4.678-8.214,1.682-2.97,3.222-5.66,4.707-8.223,1.432-2.528,2.887-5.077,4.3-7.542l.385-.674c.778-1.362,1.569-2.753,2.334-4.1s1.564-2.749,2.346-4.118l0-.008c1.161-2,2.328-4.05,3.456-6.031q.622-1.091,1.242-2.178c.53-.927,1.1-1.838,1.651-2.718a36.708,36.708,0,0,0,2.947-5.33l0-.007a19.532,19.532,0,0,0,1.016-3.926,17.669,17.669,0,0,1,1.741-5.629,14.693,14.693,0,0,1,3.7-3.935,12.3,12.3,0,0,0,3-3.105Z" transform="translate(-10.902 8.551)" fill="#fff"/><path d="M122.239,16.842h0a4.111,4.111,0,0,1,2.534.852l.008.006C139.58,29.27,148.9,36.2,158.8,41.98c9.869,5.763,20.471,10.47,37.792,17.662a4.193,4.193,0,0,1,2.373,2.592,5.147,5.147,0,0,1-.415,4.184,4.688,4.688,0,0,1-4.184,2.358,5.975,5.975,0,0,1-2.3-.478c-35.019-14.518-42.478-18.872-72.5-42.321a5.8,5.8,0,0,1-2.036-2.908,4.685,4.685,0,0,1,.42-3.686A5.055,5.055,0,0,1,122.239,16.842Zm.7,3.226a1.123,1.123,0,0,0-.7-.226,2.065,2.065,0,0,0-1.69,1.033A2.182,2.182,0,0,0,121.4,23.6l.008.006c14.818,11.574,24.148,18.5,34.018,24.268,9.9,5.78,20.494,10.479,37.794,17.651l.011,0a2.954,2.954,0,0,0,1.138.243,1.732,1.732,0,0,0,1.585-.856l0-.008a2.166,2.166,0,0,0,.169-1.714,1.242,1.242,0,0,0-.676-.783l-.006,0C160.348,47.84,152.893,43.486,122.939,20.068Z" transform="translate(-24.985 5.507)" fill="#fff"/><path d="M53.7,135.529h0a4.109,4.109,0,0,1,2.533.852l.008.006c14.789,11.562,24.113,18.491,34.03,24.279,9.866,5.757,20.472,10.465,37.806,17.664a4.188,4.188,0,0,1,2.348,2.571,5.2,5.2,0,0,1-.384,4.192l0,.006a4.7,4.7,0,0,1-4.2,2.364,5.9,5.9,0,0,1-2.3-.48c-35.07-14.54-42.525-18.892-72.5-42.319a5.8,5.8,0,0,1-2.036-2.907,4.685,4.685,0,0,1,.415-3.678A5,5,0,0,1,53.7,135.529Zm.7,3.226a1.121,1.121,0,0,0-.7-.226h0a2.009,2.009,0,0,0-1.66,1.02l-.008.014a2.182,2.182,0,0,0,.849,2.728l.008.006c14.8,11.565,24.118,18.493,34.009,24.267s20.49,10.474,37.8,17.651l.017.007a2.878,2.878,0,0,0,1.123.241,1.742,1.742,0,0,0,1.593-.854,2.216,2.216,0,0,0,.154-1.735,1.238,1.238,0,0,0-.661-.774C91.789,166.507,84.331,162.153,54.4,138.755Z" transform="translate(-12.752 -14.596)" fill="#fff"/><path d="M5.061-1.5h.006a2.2,2.2,0,0,1,1.58.7C7.211-.234,7.958.91,8.73,4.749a99.064,99.064,0,0,1,1.346,10.084c.769,8.414,1.163,19.294,1.108,30.637A322.921,322.921,0,0,1,9.6,77.8,76.836,76.836,0,0,1,7.979,87.76a14.154,14.154,0,0,1-1.045,2.978,2.678,2.678,0,0,1-2.3,1.733h-.01a2.2,2.2,0,0,1-1.58-.7c-.564-.567-1.311-1.71-2.083-5.55A99.064,99.064,0,0,1-.387,76.139C-1.156,67.725-1.55,56.845-1.495,45.5A322.921,322.921,0,0,1,.087,13.173,76.835,76.835,0,0,1,1.71,3.211,14.154,14.154,0,0,1,2.755.233,2.678,2.678,0,0,1,5.057-1.5ZM4.632,88.495c.539-1.534,1.39-5.009,2.166-12.7.84-8.325,1.332-19.1,1.386-30.336.054-11.221-.333-21.978-1.09-30.291C6.395,7.489,5.58,4.014,5.057,2.477c-.539,1.534-1.39,5.009-2.166,12.7-.84,8.325-1.332,19.1-1.386,30.336-.054,11.221.333,21.978,1.09,30.291C3.295,83.483,4.109,86.958,4.632,88.495Z" transform="matrix(0.5, -0.866, 0.866, 0.5, 105.477, 8.391)" fill="#fff"/><g transform="translate(0 245.104)"><path d="M7.333,302.124a4.674,4.674,0,0,1,.712.056h.006a326.817,326.817,0,0,0,52.193,4.509c16.168,0,33.026-1.392,54.661-4.512a4.7,4.7,0,0,1,.672-.049,4.428,4.428,0,0,1,3.5,1.763,11.5,11.5,0,0,1,1.644,2.955l0,.008a60.6,60.6,0,0,1,2.566,7.414,31.046,31.046,0,0,1,1.034,7.993,32.479,32.479,0,0,1-.964,8.114,12.652,12.652,0,0,1-1.937,4.236,6.118,6.118,0,0,1-3.964,2.525c-22.568,3.748-40.259,5.42-57.36,5.42-17.2,0-34.574-1.724-54.67-5.425a6.2,6.2,0,0,1-3.916-2.56,12.8,12.8,0,0,1-1.927-4.225,32.176,32.176,0,0,1-.971-8.084,31.046,31.046,0,0,1,1.034-7.993,60.6,60.6,0,0,1,2.566-7.414,11.494,11.494,0,0,1,1.638-2.966A4.4,4.4,0,0,1,7.333,302.124Zm.249,3.02a1.663,1.663,0,0,0-.249-.02c-.827,0-1.527.854-2.34,2.855-1.849,4.583-3.38,8.823-3.38,14.281,0,5.132,1.141,11.333,4.355,11.919,19.915,3.668,37.114,5.376,54.129,5.376,16.93,0,34.47-1.659,56.872-5.38,1.552-.255,2.728-1.8,3.5-4.6a29.431,29.431,0,0,0,.857-7.318c0-5.457-1.531-9.7-3.381-14.282-.82-2-1.527-2.85-2.363-2.85a1.69,1.69,0,0,0-.242.018c-21.784,3.142-38.774,4.543-55.091,4.543a329.725,329.725,0,0,1-52.664-4.546Z" transform="translate(-0.113 -297.213)" fill="#fff"/><path d="M55.851-1.5A321.208,321.208,0,0,1,95.539.663,77.582,77.582,0,0,1,107.758,3.05a15.081,15.081,0,0,1,3.62,1.548A3.319,3.319,0,0,1,113.2,7.34a3.319,3.319,0,0,1-1.824,2.741,15.081,15.081,0,0,1-3.62,1.548,77.582,77.582,0,0,1-12.219,2.388A321.208,321.208,0,0,1,55.851,16.18a321.208,321.208,0,0,1-39.688-2.163A77.583,77.583,0,0,1,3.944,11.63a15.081,15.081,0,0,1-3.62-1.548A3.319,3.319,0,0,1-1.5,7.34,3.319,3.319,0,0,1,.324,4.6,15.081,15.081,0,0,1,3.944,3.05,77.583,77.583,0,0,1,16.163.663,321.208,321.208,0,0,1,55.851-1.5Zm54.211,8.84c-.369-.311-1.444-.98-4.421-1.778A90.9,90.9,0,0,0,93.7,3.453,327.833,327.833,0,0,0,55.851,1.5,327.833,327.833,0,0,0,18.005,3.453,90.9,90.9,0,0,0,6.061,5.562C3.084,6.36,2.009,7.029,1.64,7.34c.369.311,1.444.98,4.421,1.778a90.9,90.9,0,0,0,11.945,2.109A327.833,327.833,0,0,0,55.851,13.18,327.833,327.833,0,0,0,93.7,11.227a90.9,90.9,0,0,0,11.945-2.109C108.617,8.32,109.693,7.651,110.062,7.34Z" transform="translate(5.609)" fill="#fff"/></g></g><g transform="translate(989.62 470.391)"><ellipse cx="52.194" cy="7.785" rx="52.194" ry="7.785" transform="translate(5.241 236.79)" fill="#fefefe"/><path d="M52.194-.108A263.792,263.792,0,0,1,89.117,2.173a63.893,63.893,0,0,1,11.206,2.479c2.77.977,4.174,2.03,4.174,3.132s-1.4,2.155-4.174,3.132A63.893,63.893,0,0,1,89.117,13.4a263.792,263.792,0,0,1-36.923,2.281A263.792,263.792,0,0,1,15.271,13.4,63.893,63.893,0,0,1,4.066,10.917C1.3,9.94-.108,8.886-.108,7.785S1.3,5.629,4.066,4.653A63.893,63.893,0,0,1,15.271,2.173,263.792,263.792,0,0,1,52.194-.108Zm0,15.569a263.574,263.574,0,0,0,36.891-2.279c9.657-1.44,15.2-3.408,15.2-5.4s-5.538-3.957-15.2-5.4A263.574,263.574,0,0,0,52.194.108,263.574,263.574,0,0,0,15.3,2.387C5.646,3.827.108,5.795.108,7.785s5.538,3.957,15.2,5.4A263.574,263.574,0,0,0,52.194,15.461Z" transform="translate(5.241 236.79)" fill="#2b2a29"/><path d="M178.537,122.088,167.924,140.67l122.656,76.7,127.028,69.072,10.613-18.6L305.543,191.16Z" transform="translate(-39.178 -19.33)" fill="#ff4e00" fill-rule="evenodd"/><path d="M178.5,121.943l127.1,69.126L428.367,267.8,417.65,286.591l-.093-.051L290.524,217.465,167.779,140.707Zm127,69.313L178.579,122.234l-10.509,18.4,122.569,76.648L417.567,286.3l10.509-18.422-122.59-76.626Z" transform="translate(-39.178 -19.33)" fill="#2b2a29"/><path d="M180.706,119.6a137.5,137.5,0,0,1-13.07,22.914,3.748,3.748,0,0,0,1.37,5.233,3.915,3.915,0,0,0,5.2-1.407A136.112,136.112,0,0,0,187.3,123.427a3.988,3.988,0,0,0-1.392-5.234A3.7,3.7,0,0,0,180.706,119.6Z" transform="translate(-38.977 -18.338)" fill="#fefefe" fill-rule="evenodd"/><path d="M109.6.369c-1.457,2.572-3.241,4.97-4.393,7.674-1.152,2.815-.979,6.136-2.48,8.775-1.522,2.638-4.458,4.156-6.263,6.575-1.762,2.353-2.936,5.124-4.393,7.675s-2.915,5.124-4.372,7.675c-1.479,2.551-2.936,5.124-4.393,7.675s-2.914,5.124-4.372,7.675-2.935,5.1-4.393,7.675c-1.457,2.551-2.914,5.1-4.371,7.675-1.457,2.551-2.915,5.1-4.393,7.675-1.457,2.551-2.915,5.1-4.372,7.675l-4.372,7.652c-1.478,2.573-3.261,4.97-4.393,7.675-1.174,2.815-1,6.136-2.5,8.774s-4.763,3.936-6.263,6.575l-3.48,6.091c-.608,1.121-.7,1.737.348,2.529,28.315,21.837,37.21,27.2,69.788,40.858,1.957.814,2.3.33,3.588-1.583a32.84,32.84,0,0,0,2.871-5.212c1.174-2.793,1-6.135,2.5-8.774s4.436-4.134,6.263-6.576c1.761-2.353,2.915-5.1,4.372-7.674,1.457-2.552,2.936-5.1,4.393-7.675l4.372-7.653c1.457-2.572,2.935-5.124,4.393-7.675,1.457-2.572,2.914-5.124,4.371-7.675,1.457-2.572,2.915-5.123,4.393-7.675,1.457-2.572,2.915-5.123,4.372-7.675s2.914-5.123,4.371-7.674c1.479-2.552,2.936-5.124,4.393-7.675s3.241-4.948,4.372-7.675c1.175-2.793,1-6.136,2.5-8.775s4.763-3.936,6.263-6.575l4.393-7.675C147.984,28.406,139.525,23.458,109.6.369Z" transform="translate(-9.387 7.962)" fill="#ff4e00" fill-rule="evenodd"/><path d="M109.567.207l.1.076c14.56,11.234,24.409,18.466,34.744,24.5,10.356,6.047,21.467,11.051,38.348,18.169l.112.047-4.454,7.781A12.745,12.745,0,0,1,175.26,54.1a12.586,12.586,0,0,0-3.107,3.257,15.366,15.366,0,0,0-1.455,4.792,19.63,19.63,0,0,1-1.041,3.971,35.941,35.941,0,0,1-2.867,5.2c-.507.81-1.031,1.647-1.51,2.486q-.58,1.016-1.161,2.036c-1.055,1.851-2.146,3.765-3.232,5.64-.729,1.276-1.47,2.579-2.187,3.839s-1.456,2.56-2.184,3.834l-.366.641c-1.313,2.3-2.671,4.677-4.005,7.034-1.385,2.39-2.822,4.9-4.393,7.675-1.622,2.84-2.974,5.208-4.371,7.675-.549.961-1.111,1.939-1.654,2.885-.9,1.567-1.831,3.187-2.739,4.79l-4.372,7.653c-.881,1.556-1.785,3.129-2.659,4.651-.57.991-1.159,2.017-1.734,3.024-.475.839-.926,1.712-1.361,2.556a36.058,36.058,0,0,1-3.018,5.13,19.434,19.434,0,0,1-2.882,2.892,14.952,14.952,0,0,0-3.373,3.672,15.372,15.372,0,0,0-1.455,4.793,19.649,19.649,0,0,1-1.04,3.97,33.5,33.5,0,0,1-2.88,5.229c-.87,1.3-1.349,2.011-2.251,2.011a3.987,3.987,0,0,1-1.469-.387c-15.348-6.433-26.241-11.338-36.506-17.368-9.982-5.864-19.407-12.785-33.307-23.5-1.1-.833-1-1.524-.377-2.666l3.481-6.093a12.74,12.74,0,0,1,3.157-3.317,12.582,12.582,0,0,0,3.107-3.258,15.356,15.356,0,0,0,1.456-4.791,19.877,19.877,0,0,1,1.038-3.971,36.347,36.347,0,0,1,2.874-5.186c.511-.813,1.039-1.654,1.525-2.5l4.371-7.652c1.376-2.43,2.775-4.88,4.128-7.249l.243-.426c1.484-2.583,2.925-5.1,4.393-7.675s2.941-5.171,4.371-7.675c.889-1.57,1.8-3.157,2.682-4.691.562-.978,1.143-1.99,1.711-2.984.75-1.313,1.513-2.653,2.25-3.95.7-1.223,1.414-2.487,2.122-3.725q.585-1.025,1.171-2.054c1.052-1.845,2.139-3.754,3.222-5.622.707-1.238,1.427-2.5,2.123-3.727.737-1.3,1.5-2.635,2.248-3.947.48-.841.938-1.722,1.381-2.574a36.645,36.645,0,0,1,3.019-5.112,19.451,19.451,0,0,1,2.873-2.889,15.328,15.328,0,0,0,3.383-3.675,15.371,15.371,0,0,0,1.459-4.825A20.147,20.147,0,0,1,105.107,8a37.374,37.374,0,0,1,2.81-5.06C108.45,2.088,109,1.2,109.506.316Zm72.994,42.9c-16.827-7.1-27.917-12.095-38.26-18.134C133.979,18.943,124.145,11.726,109.632.53c-.489.856-1.019,1.7-1.533,2.526a37.212,37.212,0,0,0-2.793,5.029,19.987,19.987,0,0,0-1,3.894,15.53,15.53,0,0,1-1.484,4.892,15.488,15.488,0,0,1-3.428,3.73,19.29,19.29,0,0,0-2.842,2.856,36.484,36.484,0,0,0-3,5.082c-.444.854-.9,1.737-1.385,2.581-.749,1.312-1.511,2.651-2.248,3.946-.7,1.224-1.416,2.489-2.123,3.728-1.083,1.868-2.17,3.776-3.222,5.621q-.586,1.029-1.171,2.054c-.707,1.238-1.426,2.5-2.121,3.725-.737,1.3-1.5,2.637-2.25,3.95-.568.994-1.149,2.006-1.711,2.984-.881,1.534-1.792,3.12-2.682,4.69-1.43,2.5-2.909,5.093-4.371,7.675s-2.909,5.092-4.393,7.675l-.243.425c-1.353,2.369-2.752,4.819-4.128,7.249L57.129,92.5c-.489.85-1.018,1.693-1.529,2.508a36.187,36.187,0,0,0-2.858,5.155,19.718,19.718,0,0,0-1.025,3.928,15.515,15.515,0,0,1-1.481,4.858,12.741,12.741,0,0,1-3.157,3.318,12.582,12.582,0,0,0-3.107,3.258l-3.48,6.092c-.609,1.122-.652,1.652.32,2.389,13.893,10.715,23.313,17.631,33.285,23.49,10.254,6.024,21.141,10.925,36.48,17.355a3.8,3.8,0,0,0,1.386.37c.757,0,1.158-.553,2.071-1.914a33.3,33.3,0,0,0,2.861-5.193,19.487,19.487,0,0,0,1.027-3.926,15.532,15.532,0,0,1,1.48-4.86,15.113,15.113,0,0,1,3.419-3.728,19.273,19.273,0,0,0,2.851-2.859,35.893,35.893,0,0,0,3-5.1c.437-.846.888-1.72,1.365-2.563.576-1.008,1.165-2.033,1.734-3.025.874-1.521,1.777-3.094,2.659-4.65l4.372-7.653c.908-1.6,1.839-3.224,2.739-4.791.543-.945,1.1-1.923,1.654-2.884,1.4-2.467,2.749-4.835,4.371-7.675,1.571-2.775,3.009-5.285,4.393-7.675,1.335-2.356,2.692-4.734,4.005-7.033l.366-.641c.728-1.274,1.468-2.575,2.183-3.834s1.458-2.564,2.187-3.84c1.087-1.874,2.177-3.788,3.232-5.639q.581-1.019,1.161-2.036c.482-.843,1.007-1.682,1.515-2.494a35.775,35.775,0,0,0,2.851-5.169,19.469,19.469,0,0,0,1.028-3.928,15.525,15.525,0,0,1,1.479-4.859,12.745,12.745,0,0,1,3.157-3.317,12.586,12.586,0,0,0,3.107-3.258Z" transform="translate(-9.387 7.962)" fill="#434242"/><path d="M119.219,20.011a3.389,3.389,0,0,0,1.152,4.354c27.9,21.792,34.774,25.817,67.4,39.341a3.3,3.3,0,0,0,4.306-1.165c.87-1.5.456-3.673-1.152-4.333-32.622-13.546-39.494-17.548-67.4-39.363A3.025,3.025,0,0,0,119.219,20.011Z" transform="translate(-27.748 3.932)" fill="#fff" fill-rule="evenodd"/><path d="M50.705,138.7a3.389,3.389,0,0,0,1.153,4.354c27.88,21.792,34.774,25.816,67.4,39.34a3.3,3.3,0,0,0,4.306-1.165c.848-1.495.435-3.673-1.153-4.332C89.786,163.35,82.892,159.347,54.99,137.533A3,3,0,0,0,50.705,138.7Z" transform="translate(-11.799 -22.68)" fill="#fefefe" fill-rule="evenodd"/><path d="M4.73,0c2.5-.012,4.428,19,4.315,42.461S6.816,84.953,4.32,84.965-.108,65.967,0,42.5,2.233.012,4.73,0Z" transform="matrix(0.5, -0.866, 0.866, 0.5, 101.946, 7.837)" fill="#ff4e00"/><path d="M7.312,303.664c37.189,6.707,63.068,6.091,100.279,0,2.131-.352,3.2,1.935,3.936,3.98,1.892,5.322,3.262,9.874,3.262,15.745,0,3.761-.522,13.326-5.241,14.206-38.385,7.235-65.809,8.027-104.214,0C.657,336.628.113,327.15.113,323.389c0-5.871,1.37-10.423,3.262-15.745C4.115,305.577,5.18,303.29,7.312,303.664Z" transform="translate(-0.113 -60.034)" fill="#ff4e00" fill-rule="evenodd"/><path d="M6.861,303.516a2.728,2.728,0,0,1,.47.042,271.178,271.178,0,0,0,48.977,4.8c15.173,0,30.984-1.481,51.265-4.8a2.746,2.746,0,0,1,.446-.038c1.879,0,2.879,2.066,3.609,4.087,1.788,5.031,3.269,9.69,3.269,15.782a37.179,37.179,0,0,1-.854,8.209c-.888,3.662-2.393,5.715-4.475,6.1-21.021,3.962-37.489,5.729-53.4,5.729-16,0-32.157-1.821-50.859-5.729-2.063-.427-3.559-2.491-4.446-6.136A36.81,36.81,0,0,1,0,323.389c0-6.092,1.48-10.751,3.268-15.781C4,305.584,4.99,303.516,6.861,303.516Zm49.447,5.059a271.387,271.387,0,0,1-49.015-4.8,2.508,2.508,0,0,0-.432-.039c-1.737,0-2.685,2-3.384,3.949C1.7,312.691.221,317.332.221,323.389c0,3.059.37,13.115,5.134,14.1,18.687,3.906,34.834,5.725,50.815,5.725,15.895,0,32.351-1.766,53.358-5.725,1.991-.371,3.439-2.37,4.305-5.942a36.959,36.959,0,0,0,.848-8.158c0-6.058-1.475-10.7-3.256-15.709a11.168,11.168,0,0,0-1.3-2.694,2.577,2.577,0,0,0-2.1-1.25,2.53,2.53,0,0,0-.411.035C87.315,307.093,71.493,308.574,56.308,308.574Z" transform="translate(-0.113 -60.034)" fill="#2b2a29"/></g><g transform="translate(999.24 459.689)"><path d="M178.714,120.069l1.291.7,136.05,73.993,117.887,71.979-12.8,22.437L298.508,225.413l-.051-.032-132.55-82.89Zm135.809,77.275L179.862,124.108l-9.92,17.369L300,222.806l119.968,62.38,9.927-17.4Z" transform="translate(-33.752 -12.065)" fill="#00274d"/><path d="M185.12,116.164h0a5.7,5.7,0,0,1,2.872.772,5.4,5.4,0,0,1,2.526,3.39,6.264,6.264,0,0,1-.434,4.143,147.89,147.89,0,0,1-14.141,24.75,5.979,5.979,0,0,1-4.867,2.683,5.376,5.376,0,0,1-2.685-.728l-.007,0a5.749,5.749,0,0,1-2.7-3.7,5.1,5.1,0,0,1,.752-4.046,145.038,145.038,0,0,0,13.87-24.318A5.2,5.2,0,0,1,185.12,116.164ZM171.078,148.9a2.987,2.987,0,0,0,2.4-1.384A143.587,143.587,0,0,0,187.367,123.2a2.791,2.791,0,0,0-.888-3.675,2.693,2.693,0,0,0-1.358-.361h0a2.252,2.252,0,0,0-2.09,1.208,149.37,149.37,0,0,1-14.116,24.748,2.132,2.132,0,0,0-.3,1.7,2.777,2.777,0,0,0,1.279,1.763A2.34,2.34,0,0,0,171.078,148.9Z" transform="translate(-33.597 -11.316)" fill="#00274d"/><path d="M114.071-1.875,115.44-.819c15.543,11.993,26.052,19.71,37.053,26.133,11.023,6.436,22.878,11.774,40.9,19.373l1.56.658-5.545,9.687a14.692,14.692,0,0,1-3.7,3.931,12.3,12.3,0,0,0-3,3.105,15.217,15.217,0,0,0-1.4,4.7,22.07,22.07,0,0,1-1.2,4.53,39.554,39.554,0,0,1-3.173,5.768c-.535.855-1.089,1.74-1.589,2.615q-.62,1.086-1.241,2.176c-1.13,1.983-2.3,4.034-3.464,6.045-.78,1.366-1.574,2.761-2.341,4.111s-1.558,2.739-2.337,4.1l-.385.674c-1.407,2.465-2.863,5.013-4.293,7.539l-.007.013c-1.481,2.557-3.018,5.24-4.7,8.2l0,0c-1.731,3.031-3.175,5.56-4.677,8.213l0,.005c-.59,1.032-1.193,2.081-1.775,3.1-.962,1.674-1.956,3.405-2.925,5.116l0,0-4.68,8.193c-.945,1.668-1.912,3.352-2.848,4.981-.609,1.061-1.24,2.158-1.855,3.235-.5.874-.971,1.8-1.431,2.687a39.654,39.654,0,0,1-3.353,5.687,21.858,21.858,0,0,1-3.285,3.311,14.775,14.775,0,0,0-3.317,3.572,15.223,15.223,0,0,0-1.4,4.7,22.081,22.081,0,0,1-1.2,4.53,37.153,37.153,0,0,1-3.2,5.817l-.012.018a12.29,12.29,0,0,1-1.363,1.807,3,3,0,0,1-2.2.959,5.43,5.43,0,0,1-2.1-.521c-16.491-6.912-28.2-12.184-39.256-18.68-10.75-6.315-20.876-13.75-35.8-25.259a3.312,3.312,0,0,1-1.434-2.29,4.171,4.171,0,0,1,.654-2.325l.016-.029,3.726-6.522a14.688,14.688,0,0,1,3.7-3.932,12.289,12.289,0,0,0,3-3.105,15.2,15.2,0,0,0,1.4-4.7,22.331,22.331,0,0,1,1.194-4.527,39.965,39.965,0,0,1,3.183-5.756c.54-.86,1.1-1.749,1.6-2.631l4.677-8.186c1.48-2.613,2.984-5.247,4.438-7.793L66.3,81.8c1.585-2.758,3.129-5.46,4.7-8.215s3.148-5.535,4.679-8.216c.954-1.685,1.931-3.385,2.876-5.029.6-1.047,1.223-2.129,1.83-3.192.8-1.4,1.618-2.839,2.408-4.226.745-1.31,1.515-2.664,2.273-3.991q.627-1.1,1.254-2.2c1.126-1.977,2.291-4.021,3.453-6.024.755-1.322,1.524-2.673,2.267-3.98.79-1.389,1.607-2.826,2.411-4.233.5-.876.984-1.807,1.452-2.707a40.282,40.282,0,0,1,3.353-5.665,21.872,21.872,0,0,1,3.273-3.306,15.19,15.19,0,0,0,3.331-3.579,15.235,15.235,0,0,0,1.4-4.733,22.617,22.617,0,0,1,1.166-4.485l.008-.02a41.06,41.06,0,0,1,3.107-5.607c.564-.9,1.147-1.835,1.671-2.76Zm76.6,48.669C173.4,39.491,161.821,34.235,150.98,27.9c-10.819-6.317-21.118-13.831-36.028-25.312-.287.469-.576.932-.861,1.387A38.3,38.3,0,0,0,111.2,9.164a20.14,20.14,0,0,0-.989,3.89,17.674,17.674,0,0,1-1.746,5.668l0,.008a17.633,17.633,0,0,1-3.958,4.344,19.343,19.343,0,0,0-2.845,2.843,37.462,37.462,0,0,0-3.094,5.253c-.481.926-.979,1.884-1.509,2.812-.8,1.4-1.619,2.84-2.408,4.228-.745,1.309-1.515,2.663-2.272,3.989l0,.009c-1.157,1.994-2.319,4.035-3.443,6.008q-.628,1.1-1.255,2.2c-.757,1.324-1.526,2.678-2.27,3.986-.79,1.389-1.607,2.825-2.41,4.231-.609,1.066-1.231,2.15-1.833,3.2-.943,1.641-1.917,3.337-2.867,5.015l0,0c-1.531,2.68-3.114,5.452-4.677,8.212l0,0c-1.575,2.758-3.12,5.462-4.706,8.221l-.242.424c-1.453,2.545-2.956,5.176-4.434,7.785l0,0L59.546,99.7c-.538.937-1.112,1.851-1.667,2.735a37.147,37.147,0,0,0-2.955,5.317,19.792,19.792,0,0,0-1.015,3.928,17.658,17.658,0,0,1-1.742,5.629,14.687,14.687,0,0,1-3.7,3.935,12.289,12.289,0,0,0-3,3.105l-3.719,6.51a3.823,3.823,0,0,0-.27.578,2.1,2.1,0,0,0,.239.205l.01.007C56.55,143.084,66.6,150.463,77.213,156.7c10.912,6.411,22.524,11.637,38.893,18.5a3.127,3.127,0,0,0,.936.289,8.772,8.772,0,0,0,1.075-1.428,33.793,33.793,0,0,0,2.941-5.33,19.552,19.552,0,0,0,1.017-3.928,17.675,17.675,0,0,1,1.741-5.63,17.231,17.231,0,0,1,3.954-4.351,19.32,19.32,0,0,0,2.854-2.847,36.837,36.837,0,0,0,3.089-5.265c.474-.917.963-1.866,1.488-2.792l0,0c.618-1.082,1.249-2.181,1.86-3.244.934-1.626,1.9-3.307,2.841-4.968l0,0,4.68-8.193c.973-1.718,1.969-3.452,2.932-5.129.582-1.013,1.184-2.061,1.772-3.089,1.622-2.865,3.316-5.83,4.678-8.214,1.682-2.97,3.222-5.66,4.707-8.223,1.432-2.528,2.887-5.077,4.3-7.542l.385-.674c.778-1.362,1.569-2.753,2.334-4.1s1.564-2.749,2.346-4.118l0-.008c1.161-2,2.328-4.05,3.456-6.031q.622-1.091,1.242-2.178c.53-.927,1.1-1.838,1.651-2.718a36.708,36.708,0,0,0,2.947-5.33l0-.007a19.532,19.532,0,0,0,1.016-3.926,17.669,17.669,0,0,1,1.741-5.629,14.693,14.693,0,0,1,3.7-3.935,12.3,12.3,0,0,0,3-3.105Z" transform="translate(-10.902 8.551)" fill="#00274d"/><path d="M122.239,16.842h0a4.111,4.111,0,0,1,2.534.852l.008.006C139.58,29.27,148.9,36.2,158.8,41.98c9.869,5.763,20.471,10.47,37.792,17.662a4.193,4.193,0,0,1,2.373,2.592,5.147,5.147,0,0,1-.415,4.184,4.688,4.688,0,0,1-4.184,2.358,5.975,5.975,0,0,1-2.3-.478c-35.019-14.518-42.478-18.872-72.5-42.321a5.8,5.8,0,0,1-2.036-2.908,4.685,4.685,0,0,1,.42-3.686A5.055,5.055,0,0,1,122.239,16.842Zm.7,3.226a1.123,1.123,0,0,0-.7-.226,2.065,2.065,0,0,0-1.69,1.033A2.182,2.182,0,0,0,121.4,23.6l.008.006c14.818,11.574,24.148,18.5,34.018,24.268,9.9,5.78,20.494,10.479,37.794,17.651l.011,0a2.954,2.954,0,0,0,1.138.243,1.732,1.732,0,0,0,1.585-.856l0-.008a2.166,2.166,0,0,0,.169-1.714,1.242,1.242,0,0,0-.676-.783l-.006,0C160.348,47.84,152.893,43.486,122.939,20.068Z" transform="translate(-24.985 5.507)" fill="#00274d"/><path d="M53.7,135.529h0a4.109,4.109,0,0,1,2.533.852l.008.006c14.789,11.562,24.113,18.491,34.03,24.279,9.866,5.757,20.472,10.465,37.806,17.664a4.188,4.188,0,0,1,2.348,2.571,5.2,5.2,0,0,1-.384,4.192l0,.006a4.7,4.7,0,0,1-4.2,2.364,5.9,5.9,0,0,1-2.3-.48c-35.07-14.54-42.525-18.892-72.5-42.319a5.8,5.8,0,0,1-2.036-2.907,4.685,4.685,0,0,1,.415-3.678A5,5,0,0,1,53.7,135.529Zm.7,3.226a1.121,1.121,0,0,0-.7-.226h0a2.009,2.009,0,0,0-1.66,1.02l-.008.014a2.182,2.182,0,0,0,.849,2.728l.008.006c14.8,11.565,24.118,18.493,34.009,24.267s20.49,10.474,37.8,17.651l.017.007a2.878,2.878,0,0,0,1.123.241,1.742,1.742,0,0,0,1.593-.854,2.216,2.216,0,0,0,.154-1.735,1.238,1.238,0,0,0-.661-.774C91.789,166.507,84.331,162.153,54.4,138.755Z" transform="translate(-12.752 -14.596)" fill="#00274d"/><path d="M5.061-1.5h.006a2.2,2.2,0,0,1,1.58.7C7.211-.234,7.958.91,8.73,4.749a99.064,99.064,0,0,1,1.346,10.084c.769,8.414,1.163,19.294,1.108,30.637A322.921,322.921,0,0,1,9.6,77.8,76.836,76.836,0,0,1,7.979,87.76a14.154,14.154,0,0,1-1.045,2.978,2.678,2.678,0,0,1-2.3,1.733h-.01a2.2,2.2,0,0,1-1.58-.7c-.564-.567-1.311-1.71-2.083-5.55A99.064,99.064,0,0,1-.387,76.139C-1.156,67.725-1.55,56.845-1.495,45.5A322.921,322.921,0,0,1,.087,13.173,76.835,76.835,0,0,1,1.71,3.211,14.154,14.154,0,0,1,2.755.233,2.678,2.678,0,0,1,5.057-1.5ZM4.632,88.495c.539-1.534,1.39-5.009,2.166-12.7.84-8.325,1.332-19.1,1.386-30.336.054-11.221-.333-21.978-1.09-30.291C6.395,7.489,5.58,4.014,5.057,2.477c-.539,1.534-1.39,5.009-2.166,12.7-.84,8.325-1.332,19.1-1.386,30.336-.054,11.221.333,21.978,1.09,30.291C3.295,83.483,4.109,86.958,4.632,88.495Z" transform="matrix(0.5, -0.866, 0.866, 0.5, 105.477, 8.391)" fill="#00274d"/><g transform="translate(0 245.104)"><path d="M7.333,302.124a4.674,4.674,0,0,1,.712.056h.006a326.817,326.817,0,0,0,52.193,4.509c16.168,0,33.026-1.392,54.661-4.512a4.7,4.7,0,0,1,.672-.049,4.428,4.428,0,0,1,3.5,1.763,11.5,11.5,0,0,1,1.644,2.955l0,.008a60.6,60.6,0,0,1,2.566,7.414,31.046,31.046,0,0,1,1.034,7.993,32.479,32.479,0,0,1-.964,8.114,12.652,12.652,0,0,1-1.937,4.236,6.118,6.118,0,0,1-3.964,2.525c-22.568,3.748-40.259,5.42-57.36,5.42-17.2,0-34.574-1.724-54.67-5.425a6.2,6.2,0,0,1-3.916-2.56,12.8,12.8,0,0,1-1.927-4.225,32.176,32.176,0,0,1-.971-8.084,31.046,31.046,0,0,1,1.034-7.993,60.6,60.6,0,0,1,2.566-7.414,11.494,11.494,0,0,1,1.638-2.966A4.4,4.4,0,0,1,7.333,302.124Zm.249,3.02a1.663,1.663,0,0,0-.249-.02c-.827,0-1.527.854-2.34,2.855-1.849,4.583-3.38,8.823-3.38,14.281,0,5.132,1.141,11.333,4.355,11.919,19.915,3.668,37.114,5.376,54.129,5.376,16.93,0,34.47-1.659,56.872-5.38,1.552-.255,2.728-1.8,3.5-4.6a29.431,29.431,0,0,0,.857-7.318c0-5.457-1.531-9.7-3.381-14.282-.82-2-1.527-2.85-2.363-2.85a1.69,1.69,0,0,0-.242.018c-21.784,3.142-38.774,4.543-55.091,4.543a329.725,329.725,0,0,1-52.664-4.546Z" transform="translate(-0.113 -297.213)" fill="#00274d"/><path d="M55.851-1.5A321.208,321.208,0,0,1,95.539.663,77.582,77.582,0,0,1,107.758,3.05a15.081,15.081,0,0,1,3.62,1.548A3.319,3.319,0,0,1,113.2,7.34a3.319,3.319,0,0,1-1.824,2.741,15.081,15.081,0,0,1-3.62,1.548,77.582,77.582,0,0,1-12.219,2.388A321.208,321.208,0,0,1,55.851,16.18a321.208,321.208,0,0,1-39.688-2.163A77.583,77.583,0,0,1,3.944,11.63a15.081,15.081,0,0,1-3.62-1.548A3.319,3.319,0,0,1-1.5,7.34,3.319,3.319,0,0,1,.324,4.6,15.081,15.081,0,0,1,3.944,3.05,77.583,77.583,0,0,1,16.163.663,321.208,321.208,0,0,1,55.851-1.5Zm54.211,8.84c-.369-.311-1.444-.98-4.421-1.778A90.9,90.9,0,0,0,93.7,3.453,327.833,327.833,0,0,0,55.851,1.5,327.833,327.833,0,0,0,18.005,3.453,90.9,90.9,0,0,0,6.061,5.562C3.084,6.36,2.009,7.029,1.64,7.34c.369.311,1.444.98,4.421,1.778a90.9,90.9,0,0,0,11.945,2.109A327.833,327.833,0,0,0,55.851,13.18,327.833,327.833,0,0,0,93.7,11.227a90.9,90.9,0,0,0,11.945-2.109C108.617,8.32,109.693,7.651,110.062,7.34Z" transform="translate(5.609)" fill="#00274d"/></g></g></g><rect width="485" height="381" transform="translate(-193 6839)" fill="none"/></g></svg>