<svg xmlns="http://www.w3.org/2000/svg" width="434.916" height="418.311" viewBox="0 0 434.916 418.311">
    <defs>
        <filter id="Path_1250" width="159.245" height="244.166" x="0" y="140.716" filterUnits="userSpaceOnUse">
            <feOffset/>
            <feGaussianBlur result="blur" stdDeviation="5"/>
            <feFlood flood-opacity=".161"/>
            <feComposite in2="blur" operator="in"/>
            <feComposite in="SourceGraphic"/>
        </filter>
        <style>
            .cls-1{fill:#fc425d}.cls-2{fill:#2c224f}.cls-3{fill:#fff}.cls-4{fill:#f38c65}.cls-5{fill:#ffb288}.cls-7{fill:#dad4f4}.cls-8{fill:#5e5e92}.cls-10{fill:#161616}
        </style>
    </defs>
    <g id="img" transform="translate(-89.765 -109.147)">
        <g id="Group_706" transform="translate(164.14 233.911)">
            <path id="Path_1226" d="M342.315 376.588c-15.5-14.075-28.587-30.583-40.021-46.249l-1.742-2.392c-7.192-9.895-14.631-20.126-24.514-27.7a65.9 65.9 0 0 0-43.264-13.283c-7.188.414-13.382 2.04-18.41 4.831-7.692 4.269-14.111 12.482-19.376 19.874l3.256.331c5.079-7.132 10.232-13.863 17.433-17.859 4.67-2.593 10.475-4.1 17.254-4.5a63.138 63.138 0 0 1 41.463 12.73c9.574 7.338 16.895 17.408 23.976 27.147l1.744 2.4c11.969 16.4 25.738 33.715 42.2 48.285z" class="cls-1" transform="translate(-194.988 -286.862)"/>
        </g>
        <g id="Group_707" transform="translate(187.486 268.104)">
            <path id="Path_1227" d="M343.244 413.927c10.473-7.959 20.367-15.477 29.947-22.527 7.887-5.8 17.963-6.735 27.643-2.566 10.8 4.677 18.93 14.567 20.222 24.662.994 7.817-6.786 17.232-13.608 22.251-20.253 14.9-33.924 23.937-53.233 35.986-1.252.782-2.531 1.586-3.791 2.373l-28.94-43.725c7.257-5.434 14.562-10.981 21.76-16.454z" class="cls-2" transform="translate(-256.024 -350.671)"/>
            <path id="Path_1228" d="M293.7 415.274c-7.525 5.635-15 11.144-22.242 16.3-2.817-28.891-2.438-51.979.036-74.442 1.077-9.789-1.963-17.136-6.14-21.568h-22.239c-4.688 4.309-8.273 11.4-9.345 21.155-.531 4.836-.216 1.469-.817 6.511-4.473 37.478-9.546 79.957 4.39 115.595a20.4 20.4 0 0 0 8.945 10.192 26.788 26.788 0 0 0 5.574 2.427 32.824 32.824 0 0 0 27.8-4.477c15.022-10.434 29.219-19.376 42.98-27.97z" class="cls-2" transform="translate(-228.242 -335.566)"/>
        </g>
        <g id="Group_709" transform="translate(278.869 289.062)">
            <g id="Group_708">
                <path id="Path_1229" d="M491.762 603.815l8.866-229.005c-16.158-4.928-32.692-8.828-49.784-9.348a71.846 71.846 0 0 0-27.862 4.247L406.5 603.815z" class="cls-3" transform="translate(-372.737 -365.419)"/>
                <path id="Path_1230" d="M549.213 607.8c-.547-40.269-.239-84.59 16.86-119.67 7.26-14.9 16.7-29.073 21.28-44.8s3.357-34.041-8.724-45.752c-7.77-7.534-18.861-11.317-29.548-14.863-4.066-1.349-8.155-2.667-12.268-3.921L527.948 607.8z" class="cls-2" transform="translate(-408.923 -369.404)"/>
                <path id="Path_1231" d="M408.455 374.349l.2-2.821c-70.175 26.559-50.235 169.792-37.73 234.107h12.813c-3.646-77.567-.379-157.329 24.717-231.286z" class="cls-2" transform="translate(-358.408 -367.239)"/>
                <path id="Path_1232" d="M418.676 375.546c-25.1 73.957-28.363 153.72-24.718 231.286h8.434z" class="cls-3" transform="translate(-368.63 -368.436)"/>
            </g>
        </g>
        <g id="Group_710" transform="translate(310.991 109.147)">
            <path id="Path_1233" d="M454.164 329.76a21.54 21.54 0 0 0 6.27 1.08l.854.01c.3 0 .6-.058.894-.069v.079c.185-.033.383-.087.569-.123a26.432 26.432 0 0 0 11.1-3.417c11.938-5.025 24.3-14.671 30.116-29.268a2.393 2.393 0 0 0 .286-.212l-.38 25.683-.1 7c-5.026 2.829-14.234 8.348-24.7 8.229-10.82-.126-20.104-5.367-24.909-8.992z" class="cls-4" transform="translate(-419.061 -165.369)"/>
            <path id="Path_1234" d="M424.761 187.111a25.7 25.7 0 0 0-8.253 12.507 65.507 65.507 0 0 0-1.529 15.339l-.02 1.338-.529 35.8-.007.552c-.169 11.392 10.581 35.785 27.085 41.659l7.426 43.9 41.249-14.929 1.745-27.987c-5.025 2.828-14.233 8.347-24.7 8.228-10.812-.122-20.1-5.363-24.9-8.988a21.542 21.542 0 0 0 6.27 1.08l.854.01c.3 0 .6-.058.894-.069v.079c.185-.033.383-.087.569-.123a26.432 26.432 0 0 0 11.1-3.417c11.938-5.025 24.3-14.671 30.116-29.268l.321-21.756c-.053 0 .084-9.278.084-9.278a2.778 2.778 0 0 1-1.189.268 2.828 2.828 0 0 1-2.787-2.884l.292-19.762c-.046-.158-.071-.319-.121-.475-.9-2.807-1.824-5.588-2.987-8.3a6.062 6.062 0 0 0-.793-1.289 20.334 20.334 0 0 0-2.266-3.048c-.477-9.161 6.608-16.693 6.608-16.693L472.6 192.9c-16.014 2.664-31.85-6.846-47.839-5.789zm48.323 24.624a3.8 3.8 0 0 1-.138 4.4 2.683 2.683 0 0 1-1.4 1.555 14.9 14.9 0 0 0-18.615-10.129 2.687 2.687 0 0 1 .532-2.019 3.785 3.785 0 0 1 3.606-2.539 17.963 17.963 0 0 1 16.015 8.732zm-7.225 51.577c-2.315 2.277-5.781 2.964-9 2.763-2.195-.137-5.579-.408-7.4-1.535.9-1.694 5.079-2.323 6.792-3.392a19.67 19.67 0 0 0 5.843-5.578 5.758 5.758 0 0 1 1.195-1.441 3.084 3.084 0 0 1 4.1.793 5.312 5.312 0 0 1 .7 4.452 8.258 8.258 0 0 1-2.23 3.938zm1.556-36.6l-7.791-.749c.192-2.927 1.979-5.209 4.086-5.161 2.178.063 3.87 2.6 3.785 5.7-.002.081-.065.136-.079.214zm-29.124 21.548a2.114 2.114 0 0 1 .024-.948l5.782-21.833a2.139 2.139 0 1 1 4.134 1.1l-5.383 20.321 8.168.093a1.652 1.652 0 0 1 1.516 1.781 1.669 1.669 0 0 1-1.568 1.749l-11.224-.128a1.658 1.658 0 0 1-1.516-1.783 1.87 1.87 0 0 1 .068-.348zm-14.341-22.38c.083-3.082 1.936-5.527 4.12-5.478s3.865 2.6 3.779 5.7c0 .022-.019.035-.02.058zm-3.63-18.392a18.623 18.623 0 0 1 18.109 2.108 3.786 3.786 0 0 1 1.49 4.134 2.7 2.7 0 0 1-.727 1.966 14.893 14.893 0 0 0-21.049-2.435 2.708 2.708 0 0 1-.24-2.07 3.807 3.807 0 0 1 2.417-3.702z" class="cls-5" transform="translate(-407.219 -130.142)"/>
            <path id="Path_1235" d="M404.166 155.772c.257 16.609 8 31.226 8 31.226a31.817 31.817 0 0 1 1.282-8.375 25.7 25.7 0 0 1 8.253-12.507c15.99-1.057 31.826 8.453 47.842 5.785l16.684-13.284s-7.085 7.532-6.608 16.693a20.333 20.333 0 0 1 2.266 3.048 6.062 6.062 0 0 1 .793 1.289c1.163 2.71 2.084 5.49 2.987 8.3.051.157.076.317.121.475l-.292 19.762a2.828 2.828 0 0 0 2.787 2.884 2.778 2.778 0 0 0 1.189-.268 2.857 2.857 0 0 0 1.682-2.553l.237-16c3.507-1.8 10.424-3.794 12.694 6.87a37.7 37.7 0 0 1-.537 6.35q-.347 1.684-.756 3.367c-1.611 5.736-5.227 11.78-13.4 11.246l-.322 21.756a2.4 2.4 0 0 0 .286-.212c1.925-1.512 12.06-9.083 15.63-26.027 2.232-5.293 3.022-12.133 6.847-14.646l-2.843 1.868a284.582 284.582 0 0 0 3.581-43.28l-3.022.435a35.946 35.946 0 0 1 .553-14.853l-6.436 2.7a10.75 10.75 0 0 1 .039-14.556 48.372 48.372 0 0 0-10.951 4.558l.18-14a19.64 19.64 0 0 0-15.75 4.593 14.4 14.4 0 0 1 5.1-15.94 35.685 35.685 0 0 0-30.833 10.7 14.619 14.619 0 0 1 4.743-14.022 44.526 44.526 0 0 0-26.2 15.733l-1.778-3.93a31.629 31.629 0 0 1-11.694 6.858 30.742 30.742 0 0 0-7.487 12.662 25.372 25.372 0 0 0-4.867 15.295zm73.272.885c.037-.017.074-.025.112-.041a.208.208 0 0 1-.114.082l.002-.041z" class="cls-2" transform="translate(-404.163 -109.147)"/>
            <path id="Path_1236" d="M525.64 245.456a2.857 2.857 0 0 0 1.682-2.553l.237-16c3.507-1.8 10.424-3.794 12.694 6.87a37.705 37.705 0 0 1-.537 6.35q-.348 1.684-.756 3.367c-1.61 5.736-5.227 11.78-13.4 11.246-.06-.002.08-9.28.08-9.28z" class="cls-4" transform="translate(-440.328 -143.805)"/>
            <path id="Path_1237" fill="#683726" d="M508.646 176.8c-.037.016-.074.025-.112.041a.2.2 0 0 1 .114-.082.4.4 0 0 1-.002.041z" transform="translate(-435.26 -129.293)"/>
            <path id="Path_1238" d="M482.895 238.288c2.178.063 3.87 2.6 3.785 5.7 0 .081-.065.136-.08.214l-7.791-.749c.191-2.931 1.979-5.213 4.086-5.165z" class="cls-2" transform="translate(-426.404 -147.625)"/>
            <path id="Path_1239" d="M489.411 221.659a3.8 3.8 0 0 1-.138 4.4 2.683 2.683 0 0 1-1.4 1.555 14.9 14.9 0 0 0-18.615-10.129 2.687 2.687 0 0 1 .532-2.019 3.785 3.785 0 0 1 3.606-2.539 17.962 17.962 0 0 1 16.015 8.732z" class="cls-2" transform="translate(-423.546 -140.066)"/>
            <path id="Path_1240" d="M439.866 220.819a3.786 3.786 0 0 1 1.49 4.134 2.7 2.7 0 0 1-.727 1.966 14.893 14.893 0 0 0-21.049-2.435 2.708 2.708 0 0 1-.24-2.07 3.807 3.807 0 0 1 2.417-3.7 18.623 18.623 0 0 1 18.109 2.105z" class="cls-2" transform="translate(-408.657 -141.364)"/>
            <path id="Path_1241" d="M432.114 237.714c2.177.062 3.865 2.6 3.779 5.7 0 .022-.019.035-.02.058l-7.878-.275c.082-3.087 1.935-5.532 4.119-5.483z" class="cls-2" transform="translate(-411.263 -147.454)"/>
            <path id="Path_1242" d="M454.2 244.27a2.139 2.139 0 1 1 4.134 1.1l-5.384 20.319 8.168.093a1.652 1.652 0 0 1 1.516 1.781 1.669 1.669 0 0 1-1.568 1.749l-11.224-.128a1.658 1.658 0 0 1-1.516-1.783 1.87 1.87 0 0 1 .067-.35 2.114 2.114 0 0 1 .024-.948z" class="cls-4" transform="translate(-417.322 -148.929)"/>
            <path id="Path_1243" d="M471.727 297.5c-2.195-.137-5.579-.408-7.4-1.535.9-1.694 5.079-2.323 6.792-3.392a19.669 19.669 0 0 0 5.843-5.578 5.758 5.758 0 0 1 1.195-1.441 3.084 3.084 0 0 1 4.1.793 5.312 5.312 0 0 1 .7 4.452 8.259 8.259 0 0 1-2.224 3.939c-2.318 2.271-5.784 2.962-9.006 2.762z" class="cls-3" transform="translate(-422.089 -161.563)"/>
        </g>
        <g id="Group_712" transform="translate(364.328 292.512)">
            <g id="Group_711">
                <path id="Path_1244" d="M510.4 370.333l-30.269 20.89s12.514 17.409 22.08 3.558c.005 0 17.433-18.108 8.189-24.448z" class="cls-7" transform="translate(-480.136 -370.333)"/>
            </g>
        </g>
        <g id="Group_714" transform="translate(348.248 291.379)">
            <g id="Group_713">
                <path id="Path_1245" d="M476.907 394.726l-6.789 2.728c-3.248 1.305-7.109 0-8.429-2.9a51.352 51.352 0 0 1-4.238-25.835z" class="cls-7" transform="translate(-457.233 -368.719)"/>
            </g>
        </g>
        <path id="Path_1246" d="M476.306 589.271a49.878 49.878 0 0 0 11.556-25.771c1.468-9.612-.187-19.839-3.314-28.688-3.212-8.913-7.633-16.78-12.055-24.106-4.433-7.36-8.892-14.3-12.6-21.389a74.183 74.183 0 0 1-7.866-21.858 70.122 70.122 0 0 1-.4-22.909c2.326-15.026 9.579-29.14 21.327-38.582-12.9 7.807-22.366 21.158-26.744 36.761a74.492 74.492 0 0 0-2.423 24.868 83.361 83.361 0 0 0 6.162 25.588c3.225 8.162 7.1 15.845 10.573 23.295 3.509 7.451 6.526 14.731 8.194 21.707 1.574 6.983 1.77 13.481.107 19.342a29.817 29.817 0 0 1-9.015 14.661z" class="cls-1" transform="translate(-104.923 -88.44)"/>
        <g id="Group_715" transform="translate(369.162 316.339)">
            <path id="Path_1247" d="M568.588 478.4c-7.667-9.942-14.909-19.336-21.7-28.432-5.588-7.488-6.516-17.074-2.544-26.3 4.456-10.289 13.92-18.057 23.6-19.317 7.5-.97 16.553 6.407 21.389 12.883 14.358 19.23 23.066 32.212 34.683 50.552.754 1.189 1.529 2.4 2.287 3.6l-41.865 27.668c-5.238-6.88-10.579-13.816-15.85-20.654z" class="cls-2" transform="translate(-503.377 -404.272)"/>
            <path id="Path_1248" d="M487.13 562.876c.83-6.893 9.922-15.646 25.237-14.023 21.558 2.287 43.711 2.579 71.421-.186-4.969-6.878-10.277-13.974-15.706-21.118l41.865-27.668c8.286 13.07 16.907 26.553 26.963 40.817a31.027 31.027 0 0 1 4.377 26.443 25.42 25.42 0 0 1-2.313 5.312 19.519 19.519 0 0 1-9.752 8.542c-34.151 13.367-74.922 8.665-110.893 4.52-4.839-.557-1.608-.267-6.249-.759-17.437-1.847-26.14-11.988-24.95-21.88z" class="cls-2" transform="translate(-487.023 -432.759)"/>
        </g>
        <g id="Group_717" transform="translate(347.046 406.643)">
            <g id="Group_716">
                <path id="Path_1249" d="M489.065 539.922l2.585 10.086a25.71 25.71 0 0 0-4.2-1.062 6.119 6.119 0 0 0-2.137-.511l-23.985-1.208-.97-.04a4.317 4.317 0 0 0-4.671 5.133 6.99 6.99 0 0 0 6.296 5.68l2.027.1c-.165.311-.338.617-.48.935l-1.772-.093c.013.034-1.031-.027-1.031-.027a4.726 4.726 0 0 0-5.138 5.637 7.633 7.633 0 0 0 6.514 6.2c.058.293.1.586.163.884l-.448-.027a4.309 4.309 0 0 0-4.671 5.133 6.945 6.945 0 0 0 6.287 5.685l3.948.2c.234.3.48.609.734.917l-.419-.027-.789-.021a3.561 3.561 0 0 0-3.861 4.249 5.749 5.749 0 0 0 5.166 4.688l12.917.651 13.507.67c12.277-1.162 19.252-12.2 15.616-24.633a27.247 27.247 0 0 0-3.681-7.682 7.574 7.574 0 0 0-.213-1.54l-5.3-20.669c-.957-3.693-4.407-6.514-7.716-6.321s-5.226 3.328-4.278 7.013z" class="cls-5" transform="translate(-455.52 -532.902)"/>
            </g>
        </g>
        <g filter="url(#Path_1250)" transform="translate(89.76 109.15)">
            <path id="Path_1250-2" d="M234.227 330.949h-49.876v3.532h3.4a4.252 4.252 0 1 1 0 8.5h-23.098a4.252 4.252 0 1 1 0-8.5h4.172v-3.532h-52.98c-3 0-5.432 2.873-5.432 6.416v202.542a5.324 5.324 0 0 0 5.432 5.208h118.382a5.324 5.324 0 0 0 5.432-5.208V337.365c0-3.543-2.432-6.416-5.432-6.416zm-57.7 20.9a48.079 48.079 0 0 1 32.209 83.989q-1.666 1.485-3.466 2.816a48.2 48.2 0 1 1-28.743-86.8zM127.3 460.3h53.46a3.672 3.672 0 1 1 0 7.344H127.3a3.672 3.672 0 1 1 0-7.344zm38.226 66.871h-37.678a3.672 3.672 0 1 1 0-7.344h37.675a3.672 3.672 0 1 1 0 7.344zm-41.194-20.68a3.69 3.69 0 0 1 3.687-3.672h28.8a3.672 3.672 0 1 1 0 7.343h-28.8a3.69 3.69 0 0 1-3.691-3.672zm47.62-12.755h-44.1a3.672 3.672 0 1 1 0-7.345h44.1a3.672 3.672 0 1 1 0 7.345zm51.992-18.168h-98.2a1.546 1.546 0 1 1 0-3.092h98.2a1.546 1.546 0 1 1 0 3.092zm-1.553-7.924H193.86a3.672 3.672 0 1 1 0-7.344h28.527a3.672 3.672 0 1 1 0 7.344zm6.528-117.5h-24.068a4.445 4.445 0 1 1 0-8.89h24.063a4.445 4.445 0 1 1 0 8.89z" class="cls-3" transform="translate(-95.41 -175.23)"/>
        </g>
        <path id="Path_1251" d="M132.9 522.516h53.464a3.672 3.672 0 1 0 0-7.344H132.9a3.672 3.672 0 1 0 0 7.344z" class="cls-8" transform="translate(-11.249 -120.976)"/>
        <path id="Path_1252" d="M267.1 345.6h-24.063a4.445 4.445 0 1 0 0 8.891H267.1a4.445 4.445 0 1 0 0-8.891z" class="cls-8" transform="translate(-43.834 -70.451)"/>
        <path id="Path_1253" d="M256.237 515.172H227.71a3.672 3.672 0 1 0 0 7.344h28.527a3.672 3.672 0 1 0 0-7.344z" class="cls-8" transform="translate(-39.499 -120.976)"/>
        <path id="Path_1254" d="M177.783 552.337h-44.1a3.672 3.672 0 1 0 0 7.344h44.1a3.672 3.672 0 1 0 0-7.344z" class="cls-8" transform="translate(-11.483 -132.05)"/>
        <path id="Path_1255" d="M133.921 583.081h28.8a3.672 3.672 0 1 0 0-7.344h-28.8a3.672 3.672 0 1 0 0 7.344z" class="cls-8" transform="translate(-11.554 -139.022)"/>
        <path id="Path_1256" d="M171.357 599.963h-37.675a3.672 3.672 0 1 0 0 7.344h37.675a3.672 3.672 0 1 0 0-7.344z" class="cls-8" transform="translate(-11.483 -146.24)"/>
        <path id="Path_1257" d="M229.787 532.516h-98.2a1.546 1.546 0 1 0 0 3.092h98.2a1.546 1.546 0 1 0 0-3.092z" class="cls-8" transform="translate(-11.496 -126.144)"/>
        <path id="Path_1258" d="M203.011 342.527H192.58a2.549 2.549 0 0 1-2.547-2.537v-4.035h-4.172a4.252 4.252 0 1 0 0 8.5h23.094a4.252 4.252 0 1 0 0-8.5h-3.4v4.035a2.549 2.549 0 0 1-2.544 2.537z" class="cls-3" transform="translate(-26.856 -67.578)"/>
        <path id="Path_1259" d="M152.055 440.505c3.446-2.619 6.7-5.092 9.853-7.411a8.752 8.752 0 0 1 1.385-.831 20.14 20.14 0 0 1 13.865-5.647l-.881-5.209c-5.43-1.932-8.967-9.958-8.912-13.706v-.182l.174-11.779.006-.44a21.539 21.539 0 0 1 .5-5.047 10.5 10.5 0 0 0-.422 2.756A25.566 25.566 0 0 1 165 382.734a8.351 8.351 0 0 1 1.6-5.035 10.113 10.113 0 0 1 2.463-4.166 10.406 10.406 0 0 0 3.847-2.256l.586 1.293a14.649 14.649 0 0 1 8.621-5.176 4.809 4.809 0 0 0-1.56 4.613 11.743 11.743 0 0 1 10.145-3.519 4.739 4.739 0 0 0-1.678 5.245 6.461 6.461 0 0 1 5.182-1.512l-.059 4.607a15.951 15.951 0 0 1 3.6-1.5 3.537 3.537 0 0 0-.013 4.789l2.117-.889a11.827 11.827 0 0 0-.182 4.887l.994-.143a93.486 93.486 0 0 1-1.178 14.24l.936-.614c-1.259.827-1.519 3.078-2.253 4.819a14.115 14.115 0 0 1-5.142 8.564l-.126 8.45-.034 2.3-.246 3.946.089-.079c.986.676 1.024 1.984.63 3.441 2.085.59 4.15 1.248 6.2 1.928 3.517 1.167 7.165 2.412 9.722 4.89a11.253 11.253 0 0 1 1.163 1.332 13.585 13.585 0 0 1 1.867 2.015c1.484 1.987 2.784 3.772 3.989 5.472a48.315 48.315 0 1 0-66.77-2.242c.851-.642 1.702-1.287 2.545-1.929z" class="cls-7" transform="translate(-13.198 -74.948)"/>
        <path id="Path_1260" fill="#6ac3d1" d="M202.687 465.651l-.165.06.039.052z" transform="translate(-33.093 -106.221)"/>
        <path id="Path_1261" d="M210.245 432.391a18.033 18.033 0 0 1-9.909 9.63 8.7 8.7 0 0 1-3.652 1.124c-.061.012-.126.029-.187.041a1.289 1.289 0 0 0-.294 0h-.282a7.082 7.082 0 0 1-2.063-.355 14.517 14.517 0 0 0 8.193 2.957c3.445.039 6.475-1.777 8.128-2.707l.034-2.3.126-8.45a1.056 1.056 0 0 0-.095.079z" class="cls-4" transform="translate(-30.511 -96.291)"/>
        <path id="Path_1262" d="M190.743 437.1l5.3 7.086.165-.06 7.058-6.248 2.77-2.452.246-3.946c-1.653.93-4.683 2.746-8.128 2.707a14.517 14.517 0 0 1-8.193-2.957 7.082 7.082 0 0 0 2.063.355h.281c.1 0 .2-.02.294-.023a.434.434 0 0 0 .187-.014 8.7 8.7 0 0 0 3.652-1.124 18.033 18.033 0 0 0 9.909-9.63l.106-7.158c-.018 0 .027-3.053.027-3.053a.915.915 0 0 1-.391.088.931.931 0 0 1-.917-.949l.1-6.5c-.015-.052-.023-.1-.04-.156-.3-.924-.6-1.839-.983-2.73a1.98 1.98 0 0 0-.261-.424 6.69 6.69 0 0 0-.746-1 8.439 8.439 0 0 1 2.175-5.492l-5.49 4.371c-5.27.878-10.48-2.251-15.741-1.9a8.455 8.455 0 0 0-2.717 4.109 21.54 21.54 0 0 0-.5 5.047l-.006.44-.174 11.779v.182c-.055 3.748 3.481 11.774 8.912 13.706l.881 5.209.155.916c-.001-.056.001-.115.006-.179zm7.7-17.439a2.71 2.71 0 0 1-.732 1.3 3.849 3.849 0 0 1-2.961.91 6.065 6.065 0 0 1-2.435-.505c.295-.557 1.671-.765 2.235-1.116a6.475 6.475 0 0 0 1.922-1.835 1.881 1.881 0 0 1 .393-.475 1.015 1.015 0 0 1 1.349.261 1.748 1.748 0 0 1 .225 1.464zm-2.783-10.991c.063-.963.651-1.714 1.344-1.7.717.02 1.273.856 1.245 1.874 0 .027-.022.045-.027.071zm-2.028-6.719a1.247 1.247 0 0 1 1.187-.835 5.909 5.909 0 0 1 5.269 2.872 1.249 1.249 0 0 1-.045 1.449.885.885 0 0 1-.461.511 4.9 4.9 0 0 0-6.125-3.333.887.887 0 0 1 .17-.66zm-7.117 6.781l-2.593-.091c.027-1.014.637-1.818 1.356-1.8s1.271.856 1.243 1.874c-.004.009-.01.014-.011.021zm-4.5-4.242a.892.892 0 0 1-.079-.682 1.251 1.251 0 0 1 .8-1.218 6.126 6.126 0 0 1 5.958.693 1.247 1.247 0 0 1 .491 1.361.886.886 0 0 1-.239.647 4.9 4.9 0 0 0-6.939-.797zm7.106 12.218a.545.545 0 0 1-.5-.587.575.575 0 0 1 .022-.115.7.7 0 0 1 .008-.312l1.9-7.183a.7.7 0 1 1 1.361.362l-1.772 6.686 2.688.031a.586.586 0 0 1-.018 1.161z" class="cls-5" transform="translate(-26.615 -84.7)"/>
        <path id="Path_1263" d="M183.179 388.982c5.261-.348 10.472 2.781 15.741 1.9l5.49-4.371a8.439 8.439 0 0 0-2.175 5.492 6.7 6.7 0 0 1 .746 1 1.981 1.981 0 0 1 .261.424c.383.892.686 1.806.983 2.73.017.051.025.1.04.156l-.1 6.5a.931.931 0 0 0 .917.949.914.914 0 0 0 .391-.088.939.939 0 0 0 .554-.84l.078-5.265c1.154-.593 3.429-1.248 4.176 2.26a12.4 12.4 0 0 1-.177 2.09q-.115.554-.249 1.107c-.53 1.888-1.72 3.876-4.41 3.7l-.106 7.158a.839.839 0 0 0 .095-.069 14.114 14.114 0 0 0 5.142-8.564c.734-1.741.994-3.992 2.253-4.819l-.936.614a93.488 93.488 0 0 0 1.178-14.24l-.994.143a11.827 11.827 0 0 1 .182-4.887l-2.117.889a3.537 3.537 0 0 1 .013-4.789 15.951 15.951 0 0 0-3.6 1.5l.059-4.607a6.461 6.461 0 0 0-5.182 1.511 4.739 4.739 0 0 1 1.678-5.245 11.743 11.743 0 0 0-10.145 3.519 4.809 4.809 0 0 1 1.56-4.613 14.649 14.649 0 0 0-8.621 5.176l-.586-1.293a10.406 10.406 0 0 1-3.847 2.256 10.113 10.113 0 0 0-2.463 4.166 8.351 8.351 0 0 0-1.6 5.035 25.566 25.566 0 0 0 2.633 10.274 10.5 10.5 0 0 1 .422-2.756 8.455 8.455 0 0 1 2.716-4.103z" class="cls-2" transform="translate(-25.61 -77.793)"/>
        <path id="Path_1264" d="M221.753 414.438q.134-.554.249-1.107a12.4 12.4 0 0 0 .177-2.09c-.747-3.508-3.022-2.853-4.176-2.26l-.078 5.265a.939.939 0 0 1-.554.84l-.045 3.053c2.707.175 3.897-1.813 4.427-3.701z" class="cls-4" transform="translate(-37.503 -89.196)"/>
        <path id="Path_1265" d="M204.558 414.6c.027-1.018-.529-1.853-1.245-1.874-.694-.016-1.281.735-1.344 1.7l2.563.247c.004-.026.025-.044.026-.073z" class="cls-2" transform="translate(-32.927 -90.453)"/>
        <path id="Path_1266" d="M204.95 409.217a.885.885 0 0 0 .461-.511 1.249 1.249 0 0 0 .045-1.449 5.909 5.909 0 0 0-5.269-2.872 1.247 1.247 0 0 0-1.187.835.886.886 0 0 0-.175.664 4.9 4.9 0 0 1 6.125 3.333z" class="cls-2" transform="translate(-31.987 -87.966)"/>
        <path id="Path_1267" d="M189.645 408.34a1.247 1.247 0 0 0-.491-1.361 6.126 6.126 0 0 0-5.958-.693 1.251 1.251 0 0 0-.8 1.218.892.892 0 0 0 .079.682 4.9 4.9 0 0 1 6.926.8.886.886 0 0 0 .244-.646z" class="cls-2" transform="translate(-27.088 -88.393)"/>
        <path id="Path_1268" d="M186.6 412.539c-.718-.016-1.328.788-1.356 1.8l2.593.091c.038-1.035-.517-1.871-1.237-1.891z" class="cls-2" transform="translate(-27.946 -90.396)"/>
        <path id="Path_1269" d="M196.646 422.36a.543.543 0 0 0-.5-.586l-2.688-.031 1.772-6.686a.7.7 0 1 0-1.361-.362l-1.9 7.183a.7.7 0 0 0-.008.312.575.575 0 0 0-.022.115.545.545 0 0 0 .5.587l3.693.042a.549.549 0 0 0 .514-.574z" class="cls-4" transform="translate(-29.939 -90.882)"/>
        <path id="Path_1270" d="M201.754 428.277a1.882 1.882 0 0 0-.393.475 6.475 6.475 0 0 1-1.922 1.835c-.564.352-1.94.559-2.235 1.116a6.065 6.065 0 0 0 2.435.505 3.849 3.849 0 0 0 2.961-.91 2.709 2.709 0 0 0 .732-1.3 1.748 1.748 0 0 0-.229-1.464 1.015 1.015 0 0 0-1.349-.257z" class="cls-3" transform="translate(-31.508 -95.038)"/>
        <path id="Path_1271" d="M200.408 461.925l-.126.112-.039-.052-5.3-7.086c-.006.061-.008.12-.013.18a16.891 16.891 0 0 0 1.407 8.32 2.175 2.175 0 0 0 2.774.954l2.231-.9c1.452 1.361 3.983 2.9 6.084-.141a25.668 25.668 0 0 0 3.531-6.728c.394-1.457.355-2.765-.63-3.441l-.089.079-2.77 2.452z" class="cls-8" transform="translate(-30.813 -102.495)"/>
        <path id="Path_1272" d="M216.264 465.17a11.248 11.248 0 0 0-1.163-1.332c-2.557-2.479-6.205-3.724-9.722-4.89-2.049-.68-4.114-1.338-6.2-1.929a25.667 25.667 0 0 1-3.531 6.728c-2.1 3.041-4.632 1.5-6.084.141l-2.231.9a2.175 2.175 0 0 1-2.774-.954 16.891 16.891 0 0 1-1.407-8.32l-.155-.916a20.139 20.139 0 0 0-13.865 5.647 8.749 8.749 0 0 0-1.385.831c-3.152 2.32-6.408 4.793-9.853 7.411-.843.642-1.694 1.287-2.544 1.931a48.414 48.414 0 0 0 63.3 5.058q1.8-1.329 3.466-2.816c-1.2-1.7-2.5-3.485-3.989-5.472a13.584 13.584 0 0 0-1.863-2.018z" class="cls-2" transform="translate(-19.037 -102.927)"/>
        <path id="Path_1273" d="M139.612 372.3a4.238 4.238 0 0 0-3.829-3.4l-24.256-2.368c-.183-.987-.485-2.515-.779-3.512l21.98 2.167a4.249 4.249 0 0 0 4.421-2.593 4.144 4.144 0 0 0-3.464-5.617l-30.917-3.027.4.522-3.009-.293a4.118 4.118 0 0 0-2.491.559 16.976 16.976 0 0 0-2.182.69 1.714 1.714 0 0 1-.105.315c-6.6 11.441-4.154 26.957 1.917 39.048a5.6 5.6 0 0 0 4.4 3.048c-.039.043 18.059 2.176 18.059 2.176a4.249 4.249 0 0 0 4.421-2.592 4.146 4.146 0 0 0-3.465-5.619l-9.413-1.156c.187-.852.646-2.913.7-3.27l17.092 1.668a4.246 4.246 0 0 0 4.418-2.592 4.146 4.146 0 0 0-3.465-5.619l-17.544-1.713q.013-2.1-.091-4.2l22.7 2.216a4.152 4.152 0 0 0 4.502-4.838z" class="cls-5" transform="translate(0 -72.941)"/>
        <rect id="Rectangle_124" width="9.831" height="46.815" class="cls-5" rx="3.164" transform="rotate(-179.977 52.535 156.336)"/>
        <g id="Group_718" transform="translate(173.376 221.515)">
            <path id="Path_1274" d="M414.09 373.4a81.006 81.006 0 0 1-10.145-2.414c-36.706-11.041-65.608-38.485-89.04-63.875l-2.005-2.181c-8.154-8.868-16.584-18.037-26.938-24.235a63.179 63.179 0 0 0-42.654-7.918c-6.689 1.161-12.282 3.326-16.623 6.433-6.693 4.791-11.04 12.066-15.265 19.73l-3.273.042c4.38-7.944 9.813-16.834 16.964-21.953 4.674-3.345 10.64-5.666 17.733-6.9a65.941 65.941 0 0 1 44.507 8.262c10.689 6.4 19.255 15.713 27.537 24.723l2.006 2.178c23.184 25.122 51.75 52.267 87.834 63.121 9.3 2.8 16.7 3.621 23.285 2.586 8.216-1.289 15.28-5.949 18.437-12.16.882-1.738 2.2-5.133 1.09-8.353a6.1 6.1 0 0 0-4.925-4.049 1.34 1.34 0 1 1 .21-2.67 8.732 8.732 0 0 1 7.266 5.848c1.06 3.078.621 6.784-1.234 10.435-3.594 7.075-11.229 12.158-20.423 13.6a44.72 44.72 0 0 1-14.344-.25z" class="cls-1" transform="translate(-208.144 -269.205)"/>
        </g>
        <path id="Path_1275" d="M193.616 332.526a2.55 2.55 0 0 0 2.547 2.537h10.431a2.549 2.549 0 0 0 2.547-2.537v-19.085a2.549 2.549 0 0 0-2.547-2.537h-10.431a2.55 2.55 0 0 0-2.547 2.537v19.085z" class="cls-8" transform="translate(-30.439 -60.114)"/>
        <g id="Group_719" transform="translate(321.236 194.204)">
            <path id="Path_1276" d="M435.935 250.192h-14.26a2.916 2.916 0 0 1-2.919-2.907v-14.076a2.917 2.917 0 0 1 2.919-2.907h14.26a2.917 2.917 0 0 1 2.919 2.907v14.075a2.916 2.916 0 0 1-2.919 2.908zm-14.26-18.6a1.62 1.62 0 0 0-1.622 1.615v14.075a1.62 1.62 0 0 0 1.622 1.615h14.26a1.62 1.62 0 0 0 1.622-1.615v-14.073a1.62 1.62 0 0 0-1.622-1.615z" class="cls-10" transform="translate(-418.756 -230.302)"/>
        </g>
        <g id="Group_720" transform="translate(354.011 194.204)">
            <path id="Path_1277" d="M489.863 250.192h-21.5a2.916 2.916 0 0 1-2.918-2.907v-14.076a2.916 2.916 0 0 1 2.918-2.907h21.5a2.916 2.916 0 0 1 2.918 2.907v14.075a2.916 2.916 0 0 1-2.918 2.908zm-21.5-18.6a1.62 1.62 0 0 0-1.621 1.615v14.075a1.62 1.62 0 0 0 1.621 1.615h21.5a1.62 1.62 0 0 0 1.622-1.615v-14.073a1.62 1.62 0 0 0-1.622-1.615z" class="cls-10" transform="translate(-465.441 -230.302)"/>
        </g>
        <rect id="Rectangle_125" width="1.835" height="11.688" class="cls-3" rx=".604" transform="rotate(90 84.271 293.891)"/>
        <rect id="Rectangle_126" width="5.876" height="1.455" class="cls-3" rx=".479" transform="translate(323.726 196.526)"/>
    </g>
</svg>
