<svg xmlns="http://www.w3.org/2000/svg" width="494.416" height="376.968" viewBox="0 0 494.416 376.968">
    <defs>
        <style>
            .cls-1{fill:#dadfe3}.cls-10,.cls-2{fill:#f0f5f9}.cls-3{fill:#dfe4e8}.cls-4{fill:#b8c0c9}.cls-5{fill:#02629e}.cls-6{fill:#0270ab}.cls-7{fill:#d0dae4}.cls-9{fill:#004679}.cls-10{opacity:.1}.cls-11{fill:#6e331b}.cls-12{fill:#18853c}.cls-13{fill:#1c9a46}.cls-14{fill:#04486b}.cls-15{fill:#05568d}.cls-16{fill:#0773a4}
        </style>
    </defs>
    <g id="img" transform="translate(-860.836 -432.795)">
        <g id="Group_704" transform="translate(586.438 509.729)">
            <g id="Group_684" transform="translate(297.804 55.9)">
                <g id="Group_666">
                    <path id="Rectangle_78" d="M0 0H26.48V230.655H0z" class="cls-1" transform="translate(48.193 5.643)"/>
                    <g id="Group_665">
                        <path id="Rectangle_79" d="M0 0H48.193V230.655H0z" class="cls-2" transform="translate(0 5.643)"/>
                        <path id="Rectangle_80" d="M0 0H48.193V5.643H0z" class="cls-3"/>
                        <path id="Rectangle_81" d="M0 0H26.48V5.643H0z" class="cls-4" transform="translate(48.193)"/>
                        <g id="Group_664" transform="translate(15.589 29.283)">
                            <g id="Group_657">
                                <g id="Group_656">
                                    <path id="Rectangle_82" d="M0 0H17.015V26.4H0z" class="cls-5"/>
                                    <path id="Rectangle_83" d="M0 0H4.57V26.4H0z" class="cls-6"/>
                                </g>
                                <path id="Rectangle_84" d="M0 0H17.015V4.093H0z" class="cls-4" transform="translate(0 26.4)"/>
                            </g>
                            <g id="Group_659" transform="translate(0 50.04)">
                                <g id="Group_658">
                                    <path id="Rectangle_85" d="M0 0H17.015V26.399H0z" class="cls-5"/>
                                    <path id="Rectangle_86" d="M0 0H4.57V26.399H0z" class="cls-6"/>
                                </g>
                                <path id="Rectangle_87" d="M0 0H17.015V4.093H0z" class="cls-4" transform="translate(0 26.399)"/>
                            </g>
                            <g id="Group_661" transform="translate(0 100.08)">
                                <g id="Group_660">
                                    <path id="Rectangle_88" d="M0 0H17.015V26.4H0z" class="cls-5"/>
                                    <path id="Rectangle_89" d="M0 0H4.57V26.4H0z" class="cls-6"/>
                                </g>
                                <path id="Rectangle_90" d="M0 0H17.015V4.093H0z" class="cls-4" transform="translate(0 26.4)"/>
                            </g>
                            <g id="Group_663" transform="translate(0 150.12)">
                                <g id="Group_662">
                                    <path id="Rectangle_91" d="M0 0H17.015V26.4H0z" class="cls-5"/>
                                    <path id="Rectangle_92" d="M0 0H4.57V26.4H0z" class="cls-6"/>
                                </g>
                                <path id="Rectangle_93" d="M0 0H17.015V4.093H0z" class="cls-4" transform="translate(0 26.4)"/>
                            </g>
                        </g>
                        <path id="Rectangle_94" d="M0 0H48.193V5.713H0z" class="cls-7" transform="translate(0 230.584)"/>
                    </g>
                </g>
                <g id="Group_676" transform="translate(97.975)">
                    <path id="Rectangle_95" d="M0 0H26.48V230.655H0z" class="cls-1" transform="translate(48.193 5.643)"/>
                    <path id="Rectangle_96" d="M0 0H48.193V230.655H0z" class="cls-2" transform="translate(0 5.643)"/>
                    <path id="Rectangle_97" d="M0 0H48.193V5.643H0z" class="cls-3"/>
                    <path id="Rectangle_98" d="M0 0H26.48V5.643H0z" class="cls-4" transform="translate(48.193)"/>
                    <g id="Group_675" transform="translate(15.589 29.283)">
                        <g id="Group_668">
                            <g id="Group_667">
                                <path id="Rectangle_99" d="M0 0H17.015V26.4H0z" class="cls-5"/>
                                <path id="Rectangle_100" d="M0 0H4.57V26.4H0z" class="cls-6"/>
                            </g>
                            <path id="Rectangle_101" d="M0 0H17.015V4.093H0z" class="cls-4" transform="translate(0 26.4)"/>
                        </g>
                        <g id="Group_670" transform="translate(0 50.04)">
                            <g id="Group_669">
                                <path id="Rectangle_102" d="M0 0H17.015V26.399H0z" class="cls-5"/>
                                <path id="Rectangle_103" d="M0 0H4.57V26.399H0z" class="cls-6"/>
                            </g>
                            <path id="Rectangle_104" d="M0 0H17.015V4.093H0z" class="cls-4" transform="translate(0 26.399)"/>
                        </g>
                        <g id="Group_672" transform="translate(0 100.08)">
                            <g id="Group_671">
                                <path id="Rectangle_105" d="M0 0H17.015V26.4H0z" class="cls-5"/>
                                <path id="Rectangle_106" d="M0 0H4.57V26.4H0z" class="cls-6"/>
                            </g>
                            <path id="Rectangle_107" d="M0 0H17.015V4.093H0z" class="cls-4" transform="translate(0 26.4)"/>
                        </g>
                        <g id="Group_674" transform="translate(0 150.12)">
                            <g id="Group_673">
                                <path id="Rectangle_108" d="M0 0H17.015V26.4H0z" class="cls-5"/>
                                <path id="Rectangle_109" d="M0 0H4.57V26.4H0z" class="cls-6"/>
                            </g>
                            <path id="Rectangle_110" d="M0 0H17.015V4.093H0z" class="cls-4" transform="translate(0 26.4)"/>
                        </g>
                    </g>
                    <path id="Rectangle_111" d="M0 0H48.193V5.713H0z" class="cls-7" transform="translate(0 230.584)"/>
                    <path id="Rectangle_112" d="M0 0H26.48V5.713H0z" class="cls-4" transform="translate(48.193 230.584)"/>
                </g>
                <g id="Group_683" transform="translate(48.149 5.643)">
                    <path id="Rectangle_113" d="M0 0H49.782V225.146H0z" class="cls-5" transform="translate(.044 5.508)"/>
                    <path id="Rectangle_114" d="M0 0H13.24V225.547H0z" class="cls-6" transform="translate(.044 5.508)"/>
                    <path id="Rectangle_115" d="M0 0H6.62V225.547H0z" class="cls-6" transform="translate(24.935 5.508)"/>
                    <path id="Rectangle_116" fill="#00579c" d="M0 0H49.782V5.508H0z" transform="translate(.044)"/>
                    <g id="Group_682" transform="translate(.044 36.84)">
                        <g id="Group_681">
                            <g id="Group_677">
                                <path id="Rectangle_117" d="M0 0H49.782V3.017H0z" class="cls-9"/>
                            </g>
                            <g id="Group_678" transform="translate(0 53.155)">
                                <path id="Rectangle_118" d="M0 0H49.782V3.017H0z" class="cls-9"/>
                            </g>
                            <g id="Group_679" transform="translate(0 106.311)">
                                <path id="Rectangle_119" d="M0 0H49.782V3.017H0z" class="cls-9"/>
                            </g>
                            <g id="Group_680" transform="translate(0 159.466)">
                                <path id="Rectangle_120" d="M0 0H49.782V3.017H0z" class="cls-9"/>
                            </g>
                        </g>
                    </g>
                    <path id="Path_1212" d="M380.525 168L330.7 217.869v-18.581l49.826-49.872z" class="cls-10" transform="translate(-330.699 -36.208)"/>
                    <path id="Path_1213" d="M380.525 146.516L330.7 196.389V64.675h49.826z" class="cls-10" transform="translate(-330.699 -59.166)"/>
                </g>
            </g>
            <g id="Group_685" transform="translate(459.503 241.217)">
                <path id="Rectangle_121" d="M0 0H2.323V14.263H0z" class="cls-11" transform="translate(3.374 36.718)"/>
                <path id="Path_1214" d="M428.915 222.345c0 11.394-1.986 20.631-4.436 20.631s-4.436-9.237-4.436-20.631 1.985-20.632 4.436-20.632 4.436 9.237 4.436 20.632z" class="cls-12" transform="translate(-420.044 -201.713)"/>
            </g>
            <g id="Group_686" transform="translate(473.227 241.217)">
                <path id="Rectangle_122" d="M0 0H2.324V14.263H0z" class="cls-11" transform="translate(3.274 36.718)"/>
                <path id="Path_1215" d="M439.714 222.345c0 11.394-1.985 20.631-4.435 20.631s-4.436-9.237-4.436-20.631 1.986-20.632 4.436-20.632 4.435 9.237 4.435 20.632z" class="cls-12" transform="translate(-430.843 -201.713)"/>
            </g>
            <g id="Group_687" transform="translate(286.186 241.217)">
                <path id="Rectangle_123" d="M0 0H2.324V14.263H0z" class="cls-11" transform="translate(3.274 36.717)"/>
                <ellipse id="Ellipse_17" cx="4.435" cy="20.631" class="cls-12" rx="4.435" ry="20.631"/>
            </g>
            <g id="Group_703" transform="translate(274.398 285.074)">
                <path id="Path_1216" d="M491.948 249.662H278.315a3.917 3.917 0 0 1-3.917-3.918 3.918 3.918 0 0 1 3.917-3.918h213.633a3.919 3.919 0 0 1 3.918 3.918 3.918 3.918 0 0 1-3.918 3.918z" class="cls-13" transform="translate(-274.398 -234.702)"/>
                <g id="Group_693" transform="translate(177.981)">
                    <g id="Group_692">
                        <g id="Group_688">
                            <path id="Path_1217" d="M421.563 236.221a7.124 7.124 0 0 0-7.124 7.124h14.247a7.124 7.124 0 0 0-7.123-7.124z" class="cls-13" transform="translate(-414.439 -236.221)"/>
                        </g>
                        <g id="Group_689" transform="translate(12.787 3.128)">
                            <path id="Path_1218" d="M428.5 238.682a4 4 0 0 0-4 4h7.994a4 4 0 0 0-3.994-4z" class="cls-13" transform="translate(-424.5 -238.682)"/>
                        </g>
                        <g id="Group_690" transform="translate(22.446 5.126)">
                            <path id="Path_1219" d="M434.1 240.254a2 2 0 0 0-2 2h4a2 2 0 0 0-2-2z" class="cls-13" transform="translate(-432.1 -240.254)"/>
                        </g>
                        <g id="Group_691" transform="translate(27.437 3.402)">
                            <path id="Path_1220" d="M439.748 238.9a3.721 3.721 0 0 0-3.721 3.721h7.442a3.721 3.721 0 0 0-3.721-3.721z" class="cls-13" transform="translate(-436.027 -238.898)"/>
                        </g>
                    </g>
                </g>
                <g id="Group_698" transform="translate(16.223 1.853)">
                    <g id="Group_697">
                        <g id="Group_694" transform="translate(0 .538)">
                            <path id="Path_1221" d="M291.443 238.1a4.524 4.524 0 0 0-4.28 4.733h8.56a4.523 4.523 0 0 0-4.28-4.733z" class="cls-13" transform="translate(-287.163 -238.102)"/>
                        </g>
                        <g id="Group_695" transform="translate(6.693 2.44)">
                            <path id="Path_1222" d="M295.259 239.6a2.83 2.83 0 0 0-2.83 2.83h5.662a2.831 2.831 0 0 0-2.832-2.83z" class="cls-13" transform="translate(-292.429 -239.599)"/>
                        </g>
                        <g id="Group_696" transform="translate(11.718)">
                            <path id="Path_1223" d="M300.047 237.679c-2.023 0-3.664 2.36-3.664 5.271h7.328c0-2.911-1.639-5.271-3.664-5.271z" class="cls-13" transform="translate(-296.383 -237.679)"/>
                        </g>
                    </g>
                </g>
                <g id="Group_702" transform="translate(110.734 1.319)">
                    <g id="Group_701">
                        <g id="Group_699">
                            <path id="Path_1224" d="M367.424 237.259a5.9 5.9 0 0 0-5.9 5.9h11.796a5.9 5.9 0 0 0-5.896-5.9z" class="cls-13" transform="translate(-361.527 -237.259)"/>
                        </g>
                        <g id="Group_700" transform="translate(11.119 2.949)">
                            <path id="Path_1225" d="M373.225 239.579a2.947 2.947 0 0 0-2.949 2.949h5.9a2.947 2.947 0 0 0-2.951-2.949z" class="cls-13" transform="translate(-370.276 -239.579)"/>
                        </g>
                    </g>
                </g>
            </g>
        </g>
        <g id="Group_655" transform="translate(946.665 397.172)">
            <path id="Path_1196" d="M389.435 275.668H43.854c0-106.632 33.756-84.26 34.526-45.187 1.389-11.674 7.706-15.093 11.551-13.965 2.57.754 4.62 9.567 4.108 23.6 3.336-12.91 12.411-31.523 21.948-33.437 25.284-5.074 34.526 24.253 35.537 45a9.417 9.417 0 0 1 6.821-3.318 9.29 9.29 0 0 1 6.619 3.107c2.2-12.172 9.013-21.038 17.076-21.038 9.052 0 16.517 11.173 17.667 25.637 2.41-3.85 6.163-6.333 10.384-6.333 6 0 11.065 5.017 12.642 11.867a17.1 17.1 0 0 1 7.486-1.649 18.772 18.772 0 0 1 3.132.262 26.419 26.419 0 0 1-.6-5.626c0-9.058 4.436-16.395 9.9-16.395 4.312 0 7.974 4.556 9.338 10.918.952-2.8 2.389-4.578 4-4.578 2.144 0 3.991 3.191 4.785 7.733a6.589 6.589 0 0 1 4.265-1.69c5.188 0 9.4 6.963 9.4 15.552 0 .043-.005.078-.005.114 4.872-7.119 12.188-11.654 20.371-11.654a22.58 22.58 0 0 1 12.034 3.538c-.738-8.4.894-16.162 4.638-19.742s8.581-2.052 12.594 3.155c5.26-19.211 16.939-32.577 30.507-32.577 9.678.003 34.857 15.569 34.857 66.706z" class="cls-12" transform="translate(5.816 125.682)"/>
            <g id="Group_634" transform="translate(79.645 35.623)">
                <g id="Group_623" transform="translate(0 43.838)">
                    <path id="Rectangle_30" d="M0 0H59.813V322.179H0z" class="cls-1" transform="translate(225.819)"/>
                    <path id="Path_1197" d="M286.574 60.34H60.755v95.292H75.89v226.887h210.684z" class="cls-2" transform="translate(-60.755 -60.34)"/>
                    <path id="Rectangle_31" d="M0 0H225.819V11.062H0z" class="cls-3"/>
                    <path id="Rectangle_32" d="M0 0H59.813V11.062H0z" class="cls-4" transform="translate(225.819)"/>
                    <path id="Rectangle_33" d="M0 0H105.342V8.274H0z" class="cls-7" transform="translate(120.477 313.904)"/>
                    <path id="Rectangle_34" d="M0 0H59.813V8.274H0z" class="cls-4" transform="translate(225.819 313.904)"/>
                </g>
                <g id="Group_624" transform="translate(9.081 139.13)">
                    <path id="Rectangle_35" d="M0 0H105.342V226.886H0z" class="cls-5" transform="translate(6.054)"/>
                    <path id="Rectangle_36" d="M0 0H27.026V226.886H0z" class="cls-6" transform="translate(6.054)"/>
                    <path id="Rectangle_37" d="M0 0H15.111V226.886H0z" class="cls-6" transform="translate(55.281)"/>
                    <path id="Rectangle_38" d="M0 0H105.342V6.589H0z" class="cls-9" transform="translate(6.054)"/>
                    <path id="Path_1198" d="M174.63 167.979L69.289 274.939v-49.124l105.341-106.96z" class="cls-10" transform="translate(-63.234 -110.368)"/>
                    <path id="Path_1199" d="M174.63 192.828L69.289 299.788v-25.93L174.63 166.9z" class="cls-10" transform="translate(-63.234 -73.203)"/>
                    <path id="Rectangle_39" d="M0 0H111.396V12.101H0z" class="cls-7" transform="translate(0 65.451)"/>
                    <path id="Rectangle_40" d="M0 0H111.396V12.101H0z" class="cls-7" transform="translate(0 148.142)"/>
                </g>
                <g id="Group_629" transform="translate(235.074 76.005)">
                    <g id="Group_626">
                        <path id="Rectangle_41" d="M0 0H14.665V257.151H0z" class="cls-14"/>
                        <g id="Group_625" transform="translate(0 19.507)">
                            <path id="Rectangle_42" d="M0 0H14.665V5.546H0z" class="cls-15"/>
                            <path id="Rectangle_43" d="M0 0H14.665V5.546H0z" class="cls-15" transform="translate(0 53.321)"/>
                            <path id="Rectangle_44" d="M0 0H14.665V5.546H0z" class="cls-15" transform="translate(0 106.642)"/>
                            <path id="Rectangle_45" d="M0 0H14.665V5.546H0z" class="cls-15" transform="translate(0 159.963)"/>
                            <path id="Rectangle_46" d="M0 0H14.665V5.546H0z" class="cls-15" transform="translate(0 213.284)"/>
                        </g>
                    </g>
                    <g id="Group_628" transform="translate(26.639)">
                        <path id="Rectangle_47" d="M0 0H14.665V257.151H0z" class="cls-14"/>
                        <g id="Group_627" transform="translate(0 19.507)">
                            <path id="Rectangle_48" d="M0 0H14.665V5.546H0z" class="cls-15"/>
                            <path id="Rectangle_49" d="M0 0H14.665V5.546H0z" class="cls-15" transform="translate(0 53.321)"/>
                            <path id="Rectangle_50" d="M0 0H14.665V5.546H0z" class="cls-15" transform="translate(0 106.642)"/>
                            <path id="Rectangle_51" d="M0 0H14.665V5.546H0z" class="cls-15" transform="translate(0 159.963)"/>
                            <path id="Rectangle_52" d="M0 0H14.665V5.546H0z" class="cls-15" transform="translate(0 213.284)"/>
                        </g>
                    </g>
                </g>
                <g id="Group_630" transform="translate(114.423)">
                    <path id="Rectangle_53" d="M0 0H67.151V35.518H0z" class="cls-2" transform="translate(6.054 8.319)"/>
                    <path id="Rectangle_54" d="M0 0H28.74V35.518H0z" class="cls-1" transform="translate(73.205 8.319)"/>
                    <path id="Rectangle_55" d="M0 0H73.205V8.319H0z" class="cls-3"/>
                    <path id="Rectangle_56" d="M0 0H34.795V8.319H0z" class="cls-4" transform="translate(73.205)"/>
                    <path id="Rectangle_57" d="M0 0H14.118V23.165H0z" class="cls-9" transform="translate(16.985 20.673)"/>
                </g>
                <g id="Group_633" transform="translate(131.408 145.719)">
                    <g id="Group_631">
                        <path id="Rectangle_58" d="M0 0H31.987V8.22H0z" class="cls-16"/>
                        <path id="Rectangle_59" d="M0 0H31.987V8.22H0z" class="cls-16" transform="translate(0 21.602)"/>
                        <path id="Rectangle_60" d="M0 0H31.987V8.22H0z" class="cls-16" transform="translate(0 43.203)"/>
                        <path id="Rectangle_61" d="M0 0H31.987V8.22H0z" class="cls-16" transform="translate(0 64.805)"/>
                        <path id="Rectangle_62" d="M0 0H31.987V8.22H0z" class="cls-16" transform="translate(0 86.406)"/>
                        <path id="Rectangle_63" d="M0 0H31.987V8.22H0z" class="cls-16" transform="translate(0 108.008)"/>
                        <path id="Rectangle_64" d="M0 0H31.987V8.22H0z" class="cls-16" transform="translate(0 129.609)"/>
                        <path id="Rectangle_65" d="M0 0H31.987V8.22H0z" class="cls-16" transform="translate(0 151.211)"/>
                        <path id="Rectangle_66" d="M0 0H31.987V8.22H0z" class="cls-16" transform="translate(0 172.812)"/>
                        <path id="Rectangle_67" d="M0 0H31.987V8.22H0z" class="cls-16" transform="translate(0 194.414)"/>
                    </g>
                    <g id="Group_632" transform="translate(45.323)">
                        <path id="Rectangle_68" d="M0 0H31.987V8.22H0z" class="cls-16"/>
                        <path id="Rectangle_69" d="M0 0H31.987V8.22H0z" class="cls-16" transform="translate(0 21.602)"/>
                        <path id="Rectangle_70" d="M0 0H31.987V8.22H0z" class="cls-16" transform="translate(0 43.203)"/>
                        <path id="Rectangle_71" d="M0 0H31.987V8.22H0z" class="cls-16" transform="translate(0 64.805)"/>
                        <path id="Rectangle_72" d="M0 0H31.987V8.22H0z" class="cls-16" transform="translate(0 86.406)"/>
                        <path id="Rectangle_73" d="M0 0H31.987V8.22H0z" class="cls-16" transform="translate(0 108.008)"/>
                        <path id="Rectangle_74" d="M0 0H31.987V8.22H0z" class="cls-16" transform="translate(0 129.609)"/>
                        <path id="Rectangle_75" d="M0 0H31.987V8.22H0z" class="cls-16" transform="translate(0 151.211)"/>
                        <path id="Rectangle_76" d="M0 0H31.987V8.22H0z" class="cls-16" transform="translate(0 172.812)"/>
                        <path id="Rectangle_77" d="M0 0H31.987V8.22H0z" class="cls-16" transform="translate(0 194.414)"/>
                    </g>
                </g>
            </g>
            <g id="Group_654" transform="translate(36.335 391.397)">
                <path id="Path_1200" d="M403.119 252.762H41.8a5.467 5.467 0 0 1-5.468-5.468 5.468 5.468 0 0 1 5.468-5.468h361.319a5.468 5.468 0 0 1 5.468 5.468 5.467 5.467 0 0 1-5.468 5.468z" class="cls-13" transform="translate(-36.335 -231.885)"/>
                <g id="Group_640" transform="translate(281.153)">
                    <g id="Group_639">
                        <g id="Group_635">
                            <path id="Path_1201" d="M204.8 236.221a9.942 9.942 0 0 0-9.943 9.941h19.883a9.942 9.942 0 0 0-9.94-9.941z" class="cls-13" transform="translate(-194.859 -236.221)"/>
                        </g>
                        <g id="Group_636" transform="translate(17.846 4.365)">
                            <path id="Path_1202" d="M210.5 238.682a5.577 5.577 0 0 0-5.578 5.576h11.154a5.576 5.576 0 0 0-5.576-5.576z" class="cls-13" transform="translate(-204.921 -238.682)"/>
                        </g>
                        <g id="Group_637" transform="translate(31.325 7.153)">
                            <path id="Path_1203" d="M215.309 240.254a2.788 2.788 0 0 0-2.788 2.788h5.579a2.788 2.788 0 0 0-2.791-2.788z" class="cls-13" transform="translate(-212.521 -240.254)"/>
                        </g>
                        <g id="Group_638" transform="translate(38.288 4.748)">
                            <path id="Path_1204" d="M221.64 238.9a5.193 5.193 0 0 0-5.193 5.193h10.386a5.193 5.193 0 0 0-5.193-5.193z" class="cls-13" transform="translate(-216.447 -238.898)"/>
                        </g>
                    </g>
                </g>
                <g id="Group_645" transform="translate(31.571 3.145)">
                    <g id="Group_644">
                        <g id="Group_641" transform="translate(0 .75)">
                            <path id="Path_1205" d="M60.109 238.417c-3.3 0-5.973 2.957-5.973 6.6h11.945c0-3.643-2.675-6.6-5.972-6.6z" class="cls-13" transform="translate(-54.136 -238.417)"/>
                        </g>
                        <g id="Group_642" transform="translate(9.34 3.405)">
                            <path id="Path_1206" d="M63.352 239.914a3.95 3.95 0 0 0-3.95 3.95h7.9a3.95 3.95 0 0 0-3.95-3.95z" class="cls-13" transform="translate(-59.402 -239.914)"/>
                        </g>
                        <g id="Group_643" transform="translate(16.352)">
                            <path id="Path_1207" d="M68.469 237.994c-2.824 0-5.113 3.293-5.113 7.355h10.226c0-4.062-2.289-7.355-5.113-7.355z" class="cls-13" transform="translate(-63.356 -237.994)"/>
                        </g>
                    </g>
                </g>
                <g id="Group_649" transform="translate(83.299)">
                    <g id="Group_648">
                        <g id="Group_646" transform="translate(8.815)">
                            <path id="Path_1208" d="M98.225 236.221a9.955 9.955 0 0 1 9.955 9.953H88.272a9.954 9.954 0 0 1 9.953-9.953z" class="cls-13" transform="translate(-88.272 -236.221)"/>
                        </g>
                        <g id="Group_647" transform="translate(0 4.977)">
                            <path id="Path_1209" d="M88.279 239.027A4.977 4.977 0 0 1 93.255 244H83.3a4.977 4.977 0 0 1 4.979-4.973z" class="cls-13" transform="translate(-83.302 -239.027)"/>
                        </g>
                    </g>
                </g>
                <g id="Group_653" transform="translate(229.705 1.726)">
                    <g id="Group_652">
                        <g id="Group_650">
                            <path id="Path_1210" d="M174.08 237.194a8.229 8.229 0 0 0-8.229 8.228h16.459a8.228 8.228 0 0 0-8.23-8.228z" class="cls-13" transform="translate(-165.851 -237.194)"/>
                        </g>
                        <g id="Group_651" transform="translate(15.517 4.115)">
                            <path id="Path_1211" d="M178.715 239.514a4.114 4.114 0 0 0-4.115 4.113h8.229a4.114 4.114 0 0 0-4.114-4.113z" class="cls-13" transform="translate(-174.6 -239.514)"/>
                        </g>
                    </g>
                </g>
            </g>
        </g>
    </g>
</svg>
