<svg xmlns="http://www.w3.org/2000/svg" width="561.312" height="471.008" viewBox="0 0 561.312 471.008">
    <defs>
        <style>
            .cls-12,.cls-14,.cls-16,.cls-23,.cls-24,.cls-25,.cls-27,.cls-28,.cls-3,.cls-32,.cls-33,.cls-34,.cls-35,.cls-36,.cls-4,.cls-44,.cls-49,.cls-5,.cls-6,.cls-7,.cls-8,.cls-9{fill-rule:evenodd}.cls-3{fill:#911024}.cls-4{fill:#710f23}.cls-5{fill:#c8381c}.cls-6{fill:#a9131d}.cls-7{fill:#b01f1d}.cls-8{fill:#d95a18}.cls-9{fill:#739a2e}.cls-12,.cls-13{fill:#96af27}.cls-14{fill:#dddada}.cls-16{fill:#b9b6b6}.cls-23{fill:#ef8c84}.cls-24{fill:#f5b2a2}.cls-25{fill:#53514e}.cls-27{fill:#0d0f12}.cls-28{fill:#1b2a2c}.cls-32{fill:#f2e3e0}.cls-33{fill:#1a3434}.cls-34{fill:#998887}.cls-35{fill:#f0958a}.cls-36{fill:#272829}.cls-44{fill:#fff}.cls-48{fill:#eb6249}.cls-49{fill:#361e21}
        </style>
    </defs>
    <g id="img" transform="translate(-807.514 -306.099)">
        <g id="Group_484" transform="translate(-748.201 -331.927)">
            <g id="Group_392" transform="translate(1710.201 1034.435)">
                <g id="Group_391">
                    <g id="Group_390">
                        <path id="Path_698" fill="#6a6a6a" fill-rule="evenodd" d="M1913.615 1178c112.323 0 203.412 6.827 203.412 15.247s-91.089 15.244-203.412 15.244-203.414-6.827-203.414-15.244S1801.29 1178 1913.615 1178z" transform="translate(-1710.201 -1178.003)"/>
                    </g>
                </g>
            </g>
            <g id="Group_395" transform="translate(2041.288 906.338)">
                <g id="Group_394">
                    <g id="Group_393">
                        <path id="Path_699" fill="#5b1623" fill-rule="evenodd" d="M2385.023 916.914h12.877V927.1h-12.875v-10.186z" transform="translate(-2385.023 -916.914)"/>
                    </g>
                </g>
            </g>
            <g id="Group_398" transform="translate(1932.423 906.333)">
                <g id="Group_397">
                    <g id="Group_396">
                        <path id="Path_700" d="M2163.134 916.905h11.881v145.9h-11.881v-145.9z" class="cls-3" transform="translate(-2163.134 -916.905)"/>
                    </g>
                </g>
            </g>
            <g id="Group_401" transform="translate(1835.073 906.333)">
                <g id="Group_400">
                    <g id="Group_399">
                        <path id="Path_701" d="M1964.715 916.905h11.88v145.9h-11.88v-145.9z" class="cls-3" transform="translate(-1964.715 -916.905)"/>
                    </g>
                </g>
            </g>
            <g id="Group_411" transform="translate(1749.888 906.333)">
                <g id="Group_404" transform="translate(193.664)">
                    <g id="Group_403">
                        <g id="Group_402">
                            <path id="Path_702" d="M2185.816 916.905h11.884v145.9h-11.881v-145.9z" class="cls-4" transform="translate(-2185.816 -916.905)"/>
                        </g>
                    </g>
                </g>
                <g id="Group_407">
                    <g id="Group_406">
                        <g id="Group_405">
                            <path id="Path_703" d="M1791.091 916.905h11.883v145.9h-11.883v-145.9z" class="cls-4" transform="translate(-1791.091 -916.905)"/>
                        </g>
                    </g>
                </g>
                <g id="Group_410" transform="translate(96.991)">
                    <g id="Group_409">
                        <g id="Group_408">
                            <path id="Path_704" d="M1988.777 916.905h11.881v145.9h-11.881v-145.9z" class="cls-4" transform="translate(-1988.777 -916.905)"/>
                        </g>
                    </g>
                </g>
            </g>
            <g id="Group_414" transform="translate(2041.288 906.333)">
                <g id="Group_413">
                    <g id="Group_412">
                        <path id="Path_705" d="M2385.023 916.905h13.755v145.9h-13.755v-145.9z" class="cls-4" transform="translate(-2385.023 -916.905)"/>
                    </g>
                </g>
            </g>
            <g id="Group_417" transform="translate(1932.423 906.333)">
                <g id="Group_416">
                    <g id="Group_415">
                        <path id="Path_706" d="M2163.134 916.905H2272v41.1h-108.866v-41.1z" class="cls-5" transform="translate(-2163.134 -916.905)"/>
                    </g>
                </g>
            </g>
            <g id="Group_420" transform="translate(1729.249 896.15)">
                <g id="Group_419">
                    <g id="Group_418">
                        <path id="Path_707" d="M1749.024 896.15h323.019v10.187h-323.019V896.15z" class="cls-3" transform="translate(-1749.024 -896.15)"/>
                    </g>
                </g>
            </g>
            <g id="Group_423" transform="translate(1944.304 906.338)">
                <g id="Group_422">
                    <g id="Group_421">
                        <path id="Path_708" d="M2187.35 916.914h85.9V927.1h-85.9v-10.186z" class="cls-6" transform="translate(-2187.35 -916.914)"/>
                    </g>
                </g>
            </g>
            <g id="Group_426" transform="translate(2052.266 896.15)">
                <g id="Group_425">
                    <g id="Group_424">
                        <path id="Path_709" d="M2407.4 896.15h26.862v10.187H2407.4V896.15z" class="cls-4" transform="translate(-2407.397 -896.15)"/>
                    </g>
                </g>
            </g>
            <g id="Group_429" transform="translate(2029.411 906.333)">
                <g id="Group_428">
                    <g id="Group_427">
                        <path id="Path_710" d="M2360.815 916.905h11.885v145.9h-11.881v-145.9z" class="cls-3" transform="translate(-2360.815 -916.905)"/>
                    </g>
                </g>
            </g>
            <g id="Group_432" transform="translate(1958.099 916.588)">
                <g id="Group_431">
                    <g id="Group_430">
                        <path id="Path_711" d="M2215.467 937.807h57.516v21.187h-57.516v-21.187z" class="cls-7" transform="translate(-2215.467 -937.807)"/>
                    </g>
                </g>
            </g>
            <g id="Group_435" transform="translate(1958.099 927.182)">
                <g id="Group_434">
                    <g id="Group_433">
                        <path id="Path_712" d="M2244.226 959.4l28.757 10.593h-57.516l28.759-10.593z" class="cls-6" transform="translate(-2215.467 -959.398)"/>
                    </g>
                </g>
            </g>
            <g id="Group_438" transform="translate(1958.099 916.588)">
                <g id="Group_437">
                    <g id="Group_436">
                        <path id="Path_713" d="M2244.226 948.4l28.757-10.594h-57.516l28.759 10.594z" class="cls-8" transform="translate(-2215.467 -937.807)"/>
                    </g>
                </g>
            </g>
            <g id="Group_441" transform="translate(1835.073 906.333)">
                <g id="Group_440">
                    <g id="Group_439">
                        <path id="Path_714" d="M1964.715 916.905h108.869v41.1h-108.869v-41.1z" class="cls-5" transform="translate(-1964.715 -916.905)"/>
                    </g>
                </g>
            </g>
            <g id="Group_444" transform="translate(1846.953 906.338)">
                <g id="Group_443">
                    <g id="Group_442">
                        <path id="Path_715" d="M1988.93 916.914h85.9V927.1h-85.9v-10.186z" class="cls-6" transform="translate(-1988.93 -916.914)"/>
                    </g>
                </g>
            </g>
            <g id="Group_447" transform="translate(1932.061 906.333)">
                <g id="Group_446">
                    <g id="Group_445">
                        <path id="Path_716" d="M2162.4 916.905h11.88v145.9h-11.88v-145.9z" class="cls-3" transform="translate(-2162.396 -916.905)"/>
                    </g>
                </g>
            </g>
            <g id="Group_450" transform="translate(1860.748 916.588)">
                <g id="Group_449">
                    <g id="Group_448">
                        <path id="Path_717" d="M2017.047 937.807h57.515v21.187h-57.515v-21.187z" class="cls-7" transform="translate(-2017.047 -937.807)"/>
                    </g>
                </g>
            </g>
            <g id="Group_453" transform="translate(1860.748 927.182)">
                <g id="Group_452">
                    <g id="Group_451">
                        <path id="Path_718" d="M2045.805 959.4l28.757 10.593h-57.515l28.758-10.593z" class="cls-6" transform="translate(-2017.047 -959.398)"/>
                    </g>
                </g>
            </g>
            <g id="Group_456" transform="translate(1860.748 916.588)">
                <g id="Group_455">
                    <g id="Group_454">
                        <path id="Path_719" d="M2045.805 948.4l28.757-10.594h-57.515l28.758 10.594z" class="cls-8" transform="translate(-2017.047 -937.807)"/>
                    </g>
                </g>
            </g>
            <g id="Group_459" transform="translate(1738.397 906.333)">
                <g id="Group_458">
                    <g id="Group_457">
                        <path id="Path_720" d="M1767.671 916.905h108.869v41.1h-108.869v-41.1z" class="cls-5" transform="translate(-1767.671 -916.905)"/>
                    </g>
                </g>
            </g>
            <g id="Group_462" transform="translate(1750.278 906.338)">
                <g id="Group_461">
                    <g id="Group_460">
                        <path id="Path_721" d="M1791.886 916.914h85.9V927.1h-85.9v-10.186z" class="cls-6" transform="translate(-1791.886 -916.914)"/>
                    </g>
                </g>
            </g>
            <g id="Group_465" transform="translate(1738.397 906.333)">
                <g id="Group_464">
                    <g id="Group_463">
                        <path id="Path_722" d="M1767.671 916.905h11.88v145.9h-11.88v-145.9z" class="cls-3" transform="translate(-1767.671 -916.905)"/>
                    </g>
                </g>
            </g>
            <g id="Group_468" transform="translate(1835.387 906.333)">
                <g id="Group_467">
                    <g id="Group_466">
                        <path id="Path_723" d="M1965.355 916.905h11.881v145.9h-11.881v-145.9z" class="cls-3" transform="translate(-1965.355 -916.905)"/>
                    </g>
                </g>
            </g>
            <g id="Group_471" transform="translate(1764.075 916.588)">
                <g id="Group_470">
                    <g id="Group_469">
                        <path id="Path_724" d="M1820.007 937.807h57.516v21.187h-57.516v-21.187z" class="cls-7" transform="translate(-1820.007 -937.807)"/>
                    </g>
                </g>
            </g>
            <g id="Group_474" transform="translate(1764.075 927.182)">
                <g id="Group_473">
                    <g id="Group_472">
                        <path id="Path_725" d="M1848.764 959.4l28.759 10.593h-57.516l28.757-10.593z" class="cls-6" transform="translate(-1820.007 -959.398)"/>
                    </g>
                </g>
            </g>
            <g id="Group_477" transform="translate(1764.075 916.588)">
                <g id="Group_476">
                    <g id="Group_475">
                        <path id="Path_726" d="M1848.764 948.4l28.759-10.594h-57.516l28.757 10.594z" class="cls-8" transform="translate(-1820.007 -937.807)"/>
                    </g>
                </g>
            </g>
            <g id="Group_480" transform="translate(1749.13 946.426)">
                <g id="Group_479">
                    <g id="Group_478">
                        <path id="Path_727" d="M1789.546 998.623h280.939v9.561h-280.939v-9.561z" class="cls-3" transform="translate(-1789.546 -998.623)"/>
                    </g>
                </g>
            </g>
            <g id="Group_483" transform="translate(1749.13 1042.676)">
                <g id="Group_482">
                    <g id="Group_481">
                        <path id="Path_728" d="M1789.546 1194.8h280.939v9.559h-280.939v-9.559z" class="cls-3" transform="translate(-1789.546 -1194.8)"/>
                    </g>
                </g>
            </g>
        </g>
        <g id="Group_367" transform="translate(357.602 344.531)">
            <g id="Group_342" transform="translate(981.762 398.546)">
                <path id="Path_670" d="M1019.536 434.836c-1.419-.563-5.8-3.494-15.862-8.212-1.3-.61-2.571-1.165-3.823-1.68-2.293-6.086-2.862-10.127-1.342-13.362a238.8 238.8 0 0 1 21.027 23.254z" class="cls-9" transform="translate(-997.661 -411.582)"/>
            </g>
            <g id="Group_343" transform="translate(967.38 389.118)">
                <path id="Path_671" d="M994.515 408.239c-1.792 4.864-3.714 8.477-3.824 13a79.721 79.721 0 0 0-8.907-2.092c-.323-5.782 1.537-11.342 4.741-17.995q4.018 3.38 7.99 7.088z" class="cls-9" transform="translate(-981.748 -401.151)"/>
            </g>
            <g id="Group_366" transform="translate(832.398 276.076)">
                <g id="Group_344" transform="translate(45.461 118.338)">
                    <path id="Path_672" fill="#884b19" fill-rule="evenodd" d="M889.346 444.685L882.7 407.01h39.333l-6.649 37.675z" transform="translate(-882.698 -407.01)"/>
                </g>
                <g id="Group_345" transform="translate(38.812 118.338)">
                    <path id="Path_673" fill="#bd6e1c" fill-rule="evenodd" d="M881.99 444.685l-6.649-37.675h39.333l-6.649 37.675z" transform="translate(-875.342 -407.01)"/>
                </g>
                <g id="Group_347" transform="translate(64.804 53.222)">
                    <g id="Group_346">
                        <path id="Path_674" d="M935.116 355.143c-3.613-12.992 6.5-23.34 27.262-19.289-10.632 1.958-13.875 13.394-15.119 21.552 1.454 1.712 1.636 1.949 3.278 3.765.149-10.424 4.173-17.526 15.213-24.5 6.646 2.43 11.716 6.706 17.632 10.457-11.059.678-21.026 11.639-24.73 22.745q2.067 2.134 4.291 4.339c5.756-11.447 13.844-20.076 22.992-24.657 3.074 3.076 7.923 11.266 9.95 14.77-10.588-.951-19.94 5.02-26.627 16.031 1.212 1.154.584.574 1.854 1.756 7.863-8.926 18.107-11.715 26.907-12.688a87.892 87.892 0 0 1 2.629 9.38c-7.454 1.124-14.8 4.323-22.01 10.265q1.735 1.566 3.529 3.166c7.08-3.787 13.758-5.39 20.09-5.125.494 2.931.94 5.923 1.386 8.974a51.814 51.814 0 0 0-13.693 2.973c1.491 1.285 1.27 1.1 2.819 2.417 2.749-1.393 7.16-1.2 11.86 1.363.475 3.181.983 6.41 1.572 9.677 3.453 19.151 13.416 18.437-11.527 6.737-1.3-.61-2.571-1.165-3.823-1.68-2.571-6.812-2.972-11.062-.7-14.493-1.327-1.4-1.278-1.349-2.574-2.7-1.92 5.651-4.231 9.518-4.354 14.491a79.723 79.723 0 0 0-8.907-2.092c-.355-6.355 1.93-12.442 5.731-20.007 0 0-1.614-1.7-2.67-2.735-5.876 7.776-8.753 11.9-7.483 22.061-3.275-.306-10.338-.907-13.416-1.111.737-9.129 4.146-18.894 13.311-27.958-1.194-1.132-.631-.972-1.8-2.053-12.151 8.68-19.462 18.049-22.429 28.89a87.622 87.622 0 0 1-14.992-4.755c3.313-11.937 13.906-23.446 27.828-31.934-1.488-1.316-.766-.671-2.2-1.893-14.679 6.474-26.318 17.163-32.959 28.865a71.683 71.683 0 0 1-6.7-5.9c-.446-.447-3.111-2.985-3.532-3.42 5.956-11.6 20.914-19.916 36.524-25.836-1.831-1.443-.924-.791-2.651-2.053-19.986 2.742-30 10.707-37.262 24.3-17.57-25.506 11.162-35.873 25.5-32.1z" class="cls-12" transform="translate(-904.101 -334.963)"/>
                    </g>
                </g>
                <g id="Group_348" transform="translate(117.179 103.949)">
                    <path id="Path_675" d="M981.382 397.521c-4.808 6.511-7.064 10.766-5.915 19.976-3.274-.305-10.338-.907-13.416-1.111a42.461 42.461 0 0 1 10.8-25.3q4.288 3.026 8.535 6.431z" class="cls-9" transform="translate(-962.051 -391.09)"/>
                </g>
                <g id="Group_349" transform="translate(91.274 94.998)">
                    <path id="Path_676" d="M967.19 388.135c-10 7.922-16.148 16.46-18.81 26.177a87.622 87.622 0 0 1-14.992-4.755c2.869-10.337 11.2-20.355 22.423-28.371q5.7 3.122 11.379 6.949z" class="cls-9" transform="translate(-933.388 -381.186)"/>
                </g>
                <g id="Group_350" transform="translate(73.712 88.113)">
                    <path id="Path_677" d="M950.209 378.491c-11.408 6.5-20.467 15.581-26.02 25.371a71.684 71.684 0 0 1-6.7-5.9c-.446-.447-3.111-2.985-3.532-3.42 4.479-8.723 14.048-15.593 25.161-20.976a114.778 114.778 0 0 1 11.091 4.923z" class="cls-9" transform="translate(-913.957 -373.568)"/>
                </g>
                <g id="Group_351" transform="translate(64.806 82.341)">
                    <path id="Path_678" d="M930.38 370.351c-9.671 4.17-15.844 10.794-20.759 19.992-6.9-10.021-6.656-17.708-2.946-23.116a75.644 75.644 0 0 1 23.7 3.124z" class="cls-9" transform="translate(-904.103 -367.181)"/>
                </g>
                <g id="Group_353" transform="translate(59.655 62.688)">
                    <g id="Group_352">
                        <path id="Path_679" d="M898.993 401.243l4.2-.313c-2.027-27.006 1.509-44.657 9.961-49.7 5.2-3.1 12.567-1.647 21.883 4.331l2.272-3.54c-10.779-6.906-19.63-8.393-26.314-4.4-10.182 6.067-14.219 24.112-12.002 53.622z" class="cls-13" transform="translate(-898.403 -345.437)"/>
                    </g>
                </g>
                <g id="Group_355" transform="translate(0 34.853)">
                    <g id="Group_354">
                        <path id="Path_680" d="M879.1 327.044c2.22-7.987-4-14.349-16.757-11.857 6.54 1.2 8.528 8.233 9.3 13.242-.9 1.056-1.008 1.2-2.021 2.314-.089-6.405-2.563-10.769-9.351-15.052-4.084 1.494-7.2 4.12-10.834 6.423 6.794.417 12.924 7.156 15.2 13.983q-1.269 1.305-2.637 2.67c-3.537-7.041-8.509-12.34-14.126-15.158-1.891 1.89-4.871 6.924-6.116 9.074 6.506-.584 12.252 3.087 16.366 9.855-.748.711-.36.356-1.144 1.081-4.831-5.488-11.127-7.2-16.535-7.8a53.614 53.614 0 0 0-1.618 5.763 27.5 27.5 0 0 1 13.529 6.308q-1.066.964-2.169 1.948a23.942 23.942 0 0 0-12.347-3.152c-.3 1.8-.58 3.641-.852 5.519a31.893 31.893 0 0 1 8.415 1.825c-.917.791-.775.679-1.731 1.484-1.689-.857-4.4-.737-7.29.841-.294 1.951-.6 3.94-.968 5.949-2.119 11.766-8.245 11.331 7.087 4.135.8-.373 1.578-.714 2.351-1.029 1.578-4.186 1.821-6.8.431-8.909.813-.859.781-.827 1.579-1.658 1.182 3.471 2.6 5.847 2.676 8.905a48.683 48.683 0 0 1 5.462-1.282c.213-3.906-1.186-7.646-3.525-12.3 0 0 .989-1.044 1.641-1.683 3.613 4.78 5.377 7.316 4.6 13.558 2.012-.189 6.355-.559 8.243-.682a26.383 26.383 0 0 0-8.182-17.182c.737-.7.392-.6 1.107-1.265 7.467 5.339 11.961 11.091 13.786 17.759a53.679 53.679 0 0 0 9.212-2.925c-2.034-7.333-8.548-14.407-17.1-19.622.916-.812.469-.417 1.349-1.168a43.608 43.608 0 0 1 20.264 17.744 43.885 43.885 0 0 0 4.119-3.626c.272-.277 1.908-1.836 2.169-2.1-3.659-7.13-12.855-12.237-22.448-15.879 1.124-.885.568-.483 1.628-1.262 12.284 1.686 18.437 6.582 22.9 14.939 10.8-15.679-6.858-22.048-15.669-19.727z" class="cls-12" transform="translate(-832.398 -314.639)"/>
                    </g>
                </g>
                <g id="Group_357" transform="translate(.003 58.175)">
                    <g id="Group_356">
                        <path id="Path_681" d="M834.386 368.923a59.079 59.079 0 0 1 10.884-9.938c1.393 2.111 1.15 4.719-.428 8.909-.773.311-1.553.656-2.351 1.029-13.242 6.214-10.474 7.385-8.105 0zm12.621-11.164c1.676-1.153 3.454-2.289 5.318-3.388 1.821 3.877 2.87 7.167 2.677 10.577a46.932 46.932 0 0 0-5.473 1.284c-.072-2.927-1.377-5.23-2.522-8.473zm7.651-4.723c1.925-1.069 3.939-2.1 6.02-3.1a25.922 25.922 0 0 1 5.288 13.91c-1.893.119-6.232.489-8.248.678.661-5.281-.5-7.915-3.06-11.491zm8.519-4.242c.522-.232 1.052-.465 1.585-.69q3.407-1.459 6.772-2.638c5.15 4.4 8.9 9.514 10.355 14.766a53.761 53.761 0 0 1-9.208 2.925c-1.449-5.271-4.564-9.982-9.5-14.363zm11.568-4.4c2.985-.944 5.908-1.719 8.734-2.328 4.051 2.654 7.341 5.76 9.205 9.386-.261.269-1.9 1.828-2.173 2.108a45.544 45.544 0 0 1-4.113 3.623 41.4 41.4 0 0 0-11.654-12.783zm13.873-3.257a60.183 60.183 0 0 1 9.531-.692c-.069 2.51-1.069 5.444-3.387 8.81a28.749 28.749 0 0 0-6.144-8.118z" class="cls-9" transform="translate(-832.401 -340.443)"/>
                    </g>
                </g>
                <g id="Group_359" transform="translate(44.577 38.842)">
                    <g id="Group_358">
                        <path id="Path_682" d="M904.254 359.089c5.593-20.3 5.038-33.1-1.658-38.027-4.772-3.521-12.189-2.386-20.876 3.181l2.269 3.544c7.011-4.5 12.886-5.716 16.112-3.337 4.929 3.631 4.965 15.851.093 33.522z" class="cls-13" transform="translate(-881.72 -319.053)"/>
                    </g>
                </g>
                <g id="Group_361" transform="translate(64.247 9.122)">
                    <g id="Group_360">
                        <path id="Path_683" d="M907.165 330.522l2.839-.784c-5.378-19.521-4.661-34.069 1.911-38.912 3.809-2.8 9.373-2.121 15.665 1.915l1.59-2.485c-7.4-4.74-14.143-5.379-19-1.8-7.711 5.678-8.805 21.007-3.005 42.066z" class="cls-13" transform="translate(-903.484 -286.169)"/>
                    </g>
                </g>
                <g id="Group_363" transform="translate(78.677)">
                    <g id="Group_362">
                        <path id="Path_684" d="M929.915 290.529c-4.273-4.845-2.081-11.421 7.715-14.014-4.176 3.065-3.178 8.673-2.009 12.448.986.436 1.109.5 2.2.939-2.117-4.523-1.868-8.429 1.436-13.742 3.37-.342 6.449.443 9.786.819-4.624 2.6-6.63 9.417-5.9 14.977.891.326 1.809.649 2.757.976.09-6.141 1.771-11.549 4.755-15.438 1.969.681 5.77 3.2 7.379 4.284-4.763 1.8-7.548 6.333-8.126 12.477.766.243.374.127 1.169.374 1.523-5.491 5.353-8.844 8.943-11.1a41.547 41.547 0 0 1 3.1 3.49 21.429 21.429 0 0 0-7.342 9.032c.719.211 1.446.417 2.184.628a18.624 18.624 0 0 1 7.588-6.417c.83 1.164 1.646 2.357 2.476 3.584a24.722 24.722 0 0 0-5.28 4.142c.909.247.78.218 1.718.457.9-1.179 2.838-2.017 5.4-1.893.87 1.269 1.766 2.558 2.7 3.844 5.495 7.53 9.64 5.136-3.559 5.31-.688.012-1.353.037-2 .077-2.532-2.4-3.594-4.146-3.334-6.1-.867-.327-.831-.319-1.672-.631.352 2.84.167 4.987 1.154 7.16a38.393 38.393 0 0 0-4.278.961c-1.482-2.665-1.771-5.767-1.714-9.826 0 0-1.048-.39-1.722-.616-.907 4.578-1.285 6.957 1.388 11.074-1.477.555-4.647 1.771-6.016 2.325a20.576 20.576 0 0 1-.107-14.835c-.757-.24-.478-.286-1.207-.508-3.424 6.281-4.614 11.853-3.622 17.146a42.521 42.521 0 0 1-7.462 1.084c-1.067-5.836 1.1-13.014 5.322-19.586-.922-.254-.473-.13-1.348-.354a33.941 33.941 0 0 0-8.167 19.339 34.42 34.42 0 0 1-4.125-1.146c-.286-.094-1.966-.631-2.234-.733.138-6.245 4.845-12.96 10.341-18.777-1.094-.239-.566-.148-1.575-.33-8.044 5.36-10.7 10.888-10.978 18.269-12.912-7.323-2.7-17.8 4.276-19.17z" class="cls-12" transform="translate(-919.45 -276.076)"/>
                    </g>
                </g>
                <g id="Group_365" transform="translate(79.497 22.503)">
                    <g id="Group_364">
                        <path id="Path_685" d="M974.768 305.345a45.738 45.738 0 0 0-11.02-3.268c-.258 1.955.8 3.7 3.334 6.1q.972-.06 2-.077c11.4-.152 9.859 1.614 5.688-2.756zm-12.652-3.537c-1.57-.24-3.2-.428-4.881-.566.04 3.34.428 6 1.718 8.328a37.09 37.09 0 0 1 4.278-.961c-.943-2.079-.816-4.142-1.115-6.8zm-6.974-.707c-1.716-.1-3.479-.139-5.275-.124a20.188 20.188 0 0 0 1.021 11.552c1.369-.562 4.54-1.773 6.017-2.328-2.26-3.482-2.344-5.72-1.762-9.1zm-7.417-.08c-.447.014-.9.033-1.351.054-1.921.095-3.807.247-5.642.457-2.119 4.839-3 9.7-2.233 13.88a42.536 42.536 0 0 0 7.454-1.08 23.037 23.037 0 0 1 1.773-13.312zm-9.613.852c-2.411.352-4.727.805-6.916 1.346a20.2 20.2 0 0 0-3.258 9.709c.268.1 1.948.643 2.239.737a34.135 34.135 0 0 0 4.116 1.146 32.293 32.293 0 0 1 3.82-12.938zm-10.838 2.438a46.6 46.6 0 0 0-6.918 2.76 12.891 12.891 0 0 0 5.372 5.023 22.463 22.463 0 0 1 1.545-7.784z" class="cls-9" transform="translate(-920.357 -300.975)"/>
                    </g>
                </g>
            </g>
        </g>
        <g id="Group_389" transform="translate(868 719.572)">
            <g id="Group_374" transform="translate(340 -174.579)">
                <g id="Group_368" transform="translate(13.972 1.472)">
                    <path id="Path_686" d="M1506.392 441.624l-58.491-.13-12.708-3.471-.236-7.847 14.621-4.115 56.814.516z" class="cls-14" transform="translate(-1434.956 -426.061)"/>
                </g>
                <g id="Group_370" transform="translate(26.637)">
                    <g id="Group_369">
                        <path id="Path_687" fill="#358835" d="M1447.068 442.311c-6.81 0-12.389-4.042-12.453-9.034a7.5 7.5 0 0 1 2.319-5.406 14.2 14.2 0 0 1 9.96-3.749l46.5-.191.011 2.623-46.5.191a11.574 11.574 0 0 0-8.1 2.962 4.958 4.958 0 0 0-1.567 3.538c.044 3.5 4.541 6.443 9.829 6.443h.046l46.495-.188.012 2.623-46.494.188z" transform="translate(-1434.615 -423.931)"/>
                    </g>
                </g>
                <g id="Group_371" transform="translate(1.967 1.472)">
                    <path id="Path_688" d="M1530.85 441.624l-45.529-.13-9.893-3.471-.183-7.847 11.383-4.115 44.222.516z" class="cls-16" transform="translate(-1475.245 -426.061)"/>
                </g>
                <g id="Group_373" transform="translate(0 .13)">
                    <g id="Group_372">
                        <path id="Path_689" fill="#355b27" d="M1485.6 442.494c-6.793 0-12.364-4.04-12.43-9.027a7.516 7.516 0 0 1 2.317-5.415 14.209 14.209 0 0 1 9.96-3.741l46.5-.191.011 2.623-46.5.191a11.546 11.546 0 0 0-8.1 2.958 4.942 4.942 0 0 0-1.569 3.538c.047 3.5 4.532 6.441 9.81 6.441h.064l46.5-.191.01 2.623-46.5.191z" transform="translate(-1473.171 -424.119)"/>
                    </g>
                </g>
            </g>
            <g id="Group_381" transform="rotate(18.01 1098.115 1159.503)">
                <g id="Group_375" transform="translate(13.972 1.469)">
                    <path id="Path_690" d="M1497.506 415.365l-58.493-.128-12.706-3.474-.236-7.847 14.621-4.118 56.813.515z" class="cls-14" transform="translate(-1426.072 -399.799)"/>
                </g>
                <g id="Group_377" transform="translate(26.637)">
                    <g id="Group_376">
                        <path id="Path_691" fill="#e40019" d="M1438.175 416.049c-6.8 0-12.38-4.04-12.444-9.03a7.511 7.511 0 0 1 2.318-5.411 14.209 14.209 0 0 1 9.957-3.745l46.5-.191.011 2.623-46.5.191a11.556 11.556 0 0 0-8.1 2.961 4.953 4.953 0 0 0-1.566 3.535c.044 3.5 4.539 6.444 9.821 6.444h.055l46.494-.189.011 2.623-46.494.189z" transform="translate(-1425.73 -397.672)"/>
                    </g>
                </g>
                <g id="Group_378" transform="translate(1.966 1.469)">
                    <path id="Path_692" d="M1521.965 415.365l-45.533-.128-9.89-3.474-.183-7.847 11.382-4.118 44.223.515z" class="cls-16" transform="translate(-1466.359 -399.799)"/>
                </g>
                <g id="Group_380" transform="translate(0 .127)">
                    <g id="Group_379">
                        <path id="Path_693" fill="#851021" d="M1476.716 416.234c-6.8 0-12.367-4.04-12.43-9.031a7.494 7.494 0 0 1 2.314-5.41 14.188 14.188 0 0 1 9.959-3.743l46.5-.195.012 2.623-46.5.194a11.536 11.536 0 0 0-8.1 2.956 4.951 4.951 0 0 0-1.567 3.537c.045 3.5 4.531 6.445 9.811 6.445h.061l46.5-.195.012 2.623-46.5.194z" transform="translate(-1464.285 -397.856)"/>
                    </g>
                </g>
            </g>
            <g id="Group_388" transform="rotate(-14 -27.673 246.757)">
                <g id="Group_382" transform="translate(13.975 1.472)">
                    <path id="Path_694" d="M1498.5 388.911l-58.489-.127-12.708-3.474-.238-7.847 14.618-4.115 56.816.513z" class="cls-14" transform="translate(-1427.067 -373.348)"/>
                </g>
                <g id="Group_384" transform="translate(26.638)">
                    <g id="Group_383">
                        <path id="Path_695" fill="#fdc400" d="M1439.165 389.6c-6.8 0-12.378-4.04-12.446-9.031a7.5 7.5 0 0 1 2.319-5.409 14.194 14.194 0 0 1 9.956-3.746l46.5-.194.012 2.623-46.5.193a11.544 11.544 0 0 0-8.1 2.961 4.957 4.957 0 0 0-1.566 3.533c.05 3.5 4.544 6.447 9.827 6.447h.05l46.5-.191.011 2.623-46.5.191z" transform="translate(-1426.718 -371.217)"/>
                    </g>
                </g>
                <g id="Group_385" transform="translate(1.969 1.472)">
                    <path id="Path_696" d="M1522.958 388.911l-45.532-.127-9.895-3.474-.184-7.847 11.383-4.115 44.228.513z" class="cls-16" transform="translate(-1467.348 -373.348)"/>
                </g>
                <g id="Group_387" transform="translate(0 .131)">
                    <g id="Group_386">
                        <path id="Path_697" fill="#f9ad00" d="M1477.716 389.781c-6.791 0-12.361-4.037-12.436-9.028a7.512 7.512 0 0 1 2.318-5.413 14.194 14.194 0 0 1 9.959-3.743l46.5-.191.01 2.623-46.5.191a11.554 11.554 0 0 0-8.1 2.958 4.962 4.962 0 0 0-1.567 3.538c.052 3.513 4.556 6.513 9.876 6.441l46.5-.191.011 2.624-46.5.191z" transform="translate(-1465.28 -371.406)"/>
                    </g>
                </g>
            </g>
        </g>
        <g id="Group_230" transform="translate(1011 306.099)">
            <g id="Group_118" transform="translate(105.799 181.606)">
                <g id="Group_117">
                    <path id="Path_592" fill="#008cd6" fill-rule="evenodd" d="M73.318 1113.56h67.536v80.522H73.318v-80.522z" transform="translate(-73.318 -1113.56)"/>
                </g>
            </g>
            <g id="Group_120" transform="translate(1.035 12.415)">
                <g id="Group_119">
                    <path id="Path_593" d="M470.666 685.407l-.837-5.036c-5.548-1.944-6.487-9.354-3.746-19.429.192-.744 11.5-9.7 11.5-9.7a61.028 61.028 0 0 0 6.213 3.273c1.115.288 7.449 7.728 7.449 7.728s3.289 2.635 2.258 9.7c-.734 5.035-6.878 10.523-8.533 13.864-2.135 4.318-10.864 2.155-11.657 2.151s-1.992-2.785-2.646-2.556z" class="cls-23" transform="translate(-464.597 -651.245)"/>
                </g>
            </g>
            <g id="Group_122" transform="translate(19.162)">
                <g id="Group_121">
                    <path id="Path_594" d="M482.957 637.877a3.359 3.359 0 1 1-6.717.155l.946-17.209c-.041-1.854.08-3.459 1.935-3.5s2.257 1.932 2.3 3.788l1.539 16.766z" class="cls-23" transform="translate(-476.24 -617.321)"/>
                </g>
            </g>
            <g id="Group_124" transform="translate(10.596 12.414)">
                <g id="Group_123">
                    <path id="Path_595" d="M499.645 652.926c.035-.994 1.568-1.743 3.42-1.68s3.333.922 3.3 1.915l-1.663 9.158c-.035 1-.227 1.848-2.082 1.782s-2.169-1.137-2.134-2.133l-.84-9.042z" class="cls-24" transform="translate(-499.645 -651.242)"/>
                </g>
            </g>
            <g id="Group_126" transform="translate(17.758 17.698)">
                <g id="Group_125">
                    <path id="Path_596" d="M477.769 672.438c.68.724-.634 2.149-1.989 3.415s-3.008 1.7-3.686.977l-5.3-7.657c-.678-.726-1.147-1.462.211-2.726s2.337-.732 3.017 0l7.748 5.993z" class="cls-24" transform="translate(-466.133 -665.682)"/>
                </g>
            </g>
            <g id="Group_128" transform="translate(4.306 12.969)">
                <g id="Group_127">
                    <path id="Path_597" d="M516.839 654.448c.035-1 1.568-1.746 3.42-1.685s3.33.927 3.3 1.918l-1.663 9.16c-.034 1-.225 1.846-2.078 1.781s-2.169-1.138-2.134-2.134l-.84-9.04z" class="cls-24" transform="translate(-516.839 -652.759)"/>
                </g>
            </g>
            <g id="Group_130" transform="translate(0 15.793)">
                <g id="Group_129">
                    <path id="Path_598" d="M534.173 662.2a2.421 2.421 0 0 1 4.677.161l-1.256 9.172c-.035.994-.176 1.852-1.466 1.8s-1.5-1.111-1.465-2.112l-.491-9.023z" class="cls-24" transform="translate(-534.173 -660.477)"/>
                </g>
            </g>
            <g id="Group_132" transform="translate(14.567 24.049)">
                <g id="Group_131">
                    <path id="Path_599" d="M473.675 687.83l-3.326 4.393s-4.166 2.855-4.635 3.365c-2.206 2.406-.669 8.753-.669 8.753l1.878 4.25 3.736-1.417s1.085-1.9 1.938-3.664 5.676-5.873 6.534-8.428 1.616-10.883.225-11.64-5.5-.227-5.5-.227l-.185 4.614z" class="cls-24" transform="translate(-464.524 -683.036)"/>
                </g>
            </g>
            <g id="Group_134" transform="translate(41.278 426.832)">
                <g id="Group_133">
                    <path id="Path_600" d="M393.908 1785.365l1.815 13.089s12.611.758 12.9-.672-2.389-14.141-2.389-14.141l-12.322 1.724z" class="cls-25" transform="translate(-393.908 -1783.641)"/>
                </g>
            </g>
            <g id="Group_136" transform="translate(96.298 426.832)">
                <g id="Group_135">
                    <path id="Path_601" d="M243.564 1785.365l1.816 13.089s12.608.758 12.9-.672-2.388-14.141-2.388-14.141l-12.323 1.724z" class="cls-25" transform="translate(-243.564 -1783.641)"/>
                </g>
            </g>
            <g id="Group_138" transform="translate(6.487 240.999)">
                <g id="Group_137">
                    <path id="Path_602" fill="#192527" fill-rule="evenodd" d="M252.909 1281.535s-25.712 29.925-23.8 99.467c.863 31.374 26.623 87.553 26.623 87.553l27.745-.179s-24.228-45.717-26.207-82.256c-2.053-37.931 16.753-66.8 17.919-67.583 2.292-1.526 21.277.061 21.277.061s.969 34.073 4.584 68.779c4.082 39.188 10.878 79.6 11.081 80.616.384 1.91 26.746.383 26.746.383a745.252 745.252 0 0 1-11.462-81.769c-3.611-45.815-2.491-95.625-2.292-103.542.381-15.282-72.214-1.53-72.214-1.53z" transform="translate(-229.007 -1275.852)"/>
                </g>
            </g>
            <g id="Group_140" transform="translate(21.793 283.025)">
                <g id="Group_139">
                    <path id="Path_603" d="M412.161 1391.347a4.092 4.092 0 0 1 1.543-.43c-5.592-.292-12.506-.453-13.833.43-1.166.78-19.97 29.654-17.919 67.586 1.978 36.539 26.206 82.256 26.206 82.256h12.287s-24.227-45.717-26.206-82.256c-2.05-37.931 16.753-66.805 17.922-67.586z" class="cls-27" transform="translate(-381.796 -1390.686)"/>
                </g>
            </g>
            <g id="Group_142" transform="translate(22.973 246.682)">
                <g id="Group_141">
                    <path id="Path_604" d="M311.693 1403.154c-.708-16.649-3.223-90.356-3.585-100.945l.719-7.007-72.4-3.822-7.417 14.473 63.651 3.071c-.272 23.154.264 59.8 1.89 75.121 2.619 24.684 16 94.749 16 94.749l11.843-.606s-9.934-57.082-10.7-75.034z" class="cls-27" transform="translate(-229.007 -1291.38)"/>
                </g>
            </g>
            <g id="Group_144" transform="translate(28.097 128.996)">
                <g id="Group_143">
                    <path id="Path_605" d="M312.246 982.923s-10.513 23.187-12.231 34.077-2.868 73.933-2.868 73.933-24.451 1.912-44.894.958-31.141-4.589-31.141-4.589 16.05-87.112 16.05-87.687-3.823-16.429-3.823-16.429 7.835-12.993 36.681-13.372 42.8 12.542 42.226 13.113z" class="cls-28" transform="translate(-221.112 -969.802)"/>
                </g>
            </g>
            <g id="Group_146" transform="translate(62.484 128.02)">
                <g id="Group_145">
                    <path id="Path_606" fill="#cecbc7" fill-rule="evenodd" d="M282.254 969.645l5.924 61.135 28.464-60.18s-9.838-3.822-17.955-3.442c-4.187.194-6.227-.146-16.433 2.482z" transform="translate(-282.254 -967.136)"/>
                </g>
            </g>
            <g id="Group_148" transform="translate(66.784 153.452)">
                <g id="Group_147">
                    <path id="Path_607" fill="#e4001d" fill-rule="evenodd" d="M330.34 1074.841l-1.624-13.994 4.679-24.218s.505 1.436 4.012 1.436 4.393-1.146 4.393-1.146l-1.621 17.337-9.84 20.585z" transform="translate(-328.716 -1036.629)"/>
                </g>
            </g>
            <g id="Group_150" transform="translate(6.485 108.26)">
                <g id="Group_149">
                    <path id="Path_608" d="M431.093 951.447s-27.245-30.856-32.854-38.229c.5-.578-24.117 2.177-23.79 6.152 1.022 12.239 27.528 48.023 35.52 56.216 6.764-.589 4.768-14.455 4.89-14.487.554-.152 8.849-14.329 8.849-14.329s3.179.9 7.381 4.679z" class="cls-27" transform="translate(-374.445 -913.142)"/>
                </g>
            </g>
            <g id="Group_152" transform="translate(14.651 109.306)">
                <g id="Group_151">
                    <path id="Path_609" d="M422.927 953.259s-25.161-28.494-32.1-37.259c-7.06 1.016-16.586 3.021-16.381 5.5 1.033 12.374 15.459 28.583 23.4 36.692.989 1.007 4.768 23.48 6.213 23.908 9.918-1.294 18.865-28.842 18.865-28.842z" class="cls-28" transform="translate(-374.445 -916)"/>
                </g>
            </g>
            <g id="Group_154" transform="translate(1.962 43.881)">
                <g id="Group_153">
                    <path id="Path_610" d="M436.164 737.227l22.956 2.124c.946-5.153.92 40.036 3.275 57.057 4.64 13.837 12.113 17.441 12.113 17.441s-6.012 14.489-22.543 7.386c-15.375 2.356-14.922-33.268-15.792-48.908s-.009-35.1-.009-35.1z" class="cls-27" transform="translate(-435.785 -737.227)"/>
                </g>
            </g>
            <g id="Group_156" transform="translate(9.731 44.598)">
                <g id="Group_155">
                    <path id="Path_611" d="M436.152 739.186l15.2 1.408a2.05 2.05 0 0 1 .068-.285l.15.015c.737 2.548.9 41.742 3.057 57.328 4.64 13.835 12.113 17.44 12.113 17.44s-3.149 7.578-11.147 9.084c5.217 4.35.538 4.012-.733 3.465-15.375 2.358-17.816-38-18.685-53.644-.807-14.528-.124-32.35-.022-34.811z" class="cls-28" transform="translate(-435.785 -739.186)"/>
                </g>
            </g>
            <g id="Group_158" transform="translate(68.34 119.075)">
                <g id="Group_157">
                    <path id="Path_612" d="M325.516 961.876c-.471 3.875-4.838 6.533-9.759 5.937s-8.538-4.224-8.068-8.1l1.329-11c.469-3.874 4.839-6.534 9.764-5.94s8.533 4.219 8.064 8.094l-1.329 11.006z" class="cls-23" transform="translate(-307.648 -942.693)"/>
                </g>
            </g>
            <g id="Group_160" transform="translate(69.316 144.135)">
                <g id="Group_159">
                    <path id="Path_613" fill="#db001b" fill-rule="evenodd" d="M317.615 1012.659l7.343-1.489 7.272.771-4.063 8.835-1.22 1.231a4.131 4.131 0 0 1-6.089-.231l-1.1-1.29-2.147-7.828z" transform="translate(-317.615 -1011.17)"/>
                </g>
            </g>
            <g id="Group_162" transform="translate(76.449 127.9)">
                <g id="Group_161">
                    <path id="Path_614" d="M283.367 983.1s9.245 10.934 9.628 13.605 10.387-26.36 10.387-26.36-8.733-4.049-8.953-3.487a45.528 45.528 0 0 1-11.062 16.242z" class="cls-32" transform="translate(-283.367 -966.807)"/>
                </g>
            </g>
            <g id="Group_164" transform="translate(64.204 128.498)">
                <g id="Group_163">
                    <path id="Path_615" d="M349.941 984.08s-10.786 6.807-11.642 9.37-.811-23.645-.811-23.645 5.052-1.844 5.063-1.24c.1 5.35 7.391 15.515 7.391 15.515z" class="cls-32" transform="translate(-337.487 -968.443)"/>
                </g>
            </g>
            <g id="Group_166" transform="translate(69.35 130.342)">
                <g id="Group_165">
                    <path id="Path_616" d="M244.8 1032.928l35.258-45.216-8.6-1.722a131.783 131.783 0 0 0 14.566-5.257c-4.921-3.1-16.67-7.253-16.67-7.253l-24.554 59.448z" class="cls-33" transform="translate(-244.796 -973.481)"/>
                </g>
            </g>
            <g id="Group_168" transform="translate(49.015 130.054)">
                <g id="Group_167">
                    <path id="Path_617" d="M380.079 1034.166l-17.008-48.387 8.6-1.718-10.605-5.3 14.9-6.063 4.113 61.471z" class="cls-33" transform="translate(-361.064 -972.694)"/>
                </g>
            </g>
            <g id="Group_170" transform="translate(65.589 200.882)">
                <g id="Group_169">
                    <path id="Path_618" d="M359.3 1168.668a2.435 2.435 0 1 1-2.437-2.437 2.433 2.433 0 0 1 2.437 2.437z" class="cls-34" transform="translate(-354.425 -1166.231)"/>
                </g>
            </g>
            <g id="Group_172" transform="translate(63.869 214.061)">
                <g id="Group_171">
                    <path id="Path_619" d="M363.993 1204.683a2.436 2.436 0 1 1-2.435-2.44 2.436 2.436 0 0 1 2.435 2.44z" class="cls-34" transform="translate(-359.122 -1202.243)"/>
                </g>
            </g>
            <g id="Group_174" transform="translate(62.723 227.817)">
                <g id="Group_173">
                    <path id="Path_620" d="M367.127 1242.268a2.436 2.436 0 1 1-2.436-2.437 2.434 2.434 0 0 1 2.436 2.437z" class="cls-34" transform="translate(-362.256 -1239.832)"/>
                </g>
            </g>
            <g id="Group_176" transform="translate(61.003 240.425)">
                <g id="Group_175">
                    <path id="Path_621" d="M371.826 1276.719a2.435 2.435 0 1 1-2.434-2.437 2.436 2.436 0 0 1 2.434 2.437z" class="cls-34" transform="translate(-366.955 -1274.282)"/>
                </g>
            </g>
            <g id="Group_178" transform="translate(107.8 82.658)">
                <g id="Group_177">
                    <path id="Path_622" d="M217.646 850.228a8.116 8.116 0 0 1-6.745 9.293c-4.383.643-12.464-.73-13.124-5.215s6.353-10.4 10.737-11.039a8.119 8.119 0 0 1 9.132 6.961z" class="cls-35" transform="translate(-197.734 -843.183)"/>
                </g>
            </g>
            <g id="Group_180" transform="translate(.6 440.145)">
                <g id="Group_179">
                    <path id="Path_623" d="M376.743 1835.826c-7.649 6.18-4.191 12.383-4.191 12.383a80.71 80.71 0 0 0 19.811 2.663c11.808-.188 25.522-6.856 25.522-6.856l-.37 3.465H433.3a24.245 24.245 0 0 0 1.227-15.369c-2.251-7.994-5.941-12.1-5.941-12.1s-11.479 1.849-13.94 1.234-11.937 8.936-16.757 10.958c-4.762 2-16.191-.379-21.143 3.618z" class="cls-36" transform="translate(-371.773 -1820.016)"/>
                </g>
            </g>
            <g id="Group_182" transform="translate(9.336 443.798)">
                <g id="Group_181">
                    <path id="Path_624" d="M372.14 1856.278a67.63 67.63 0 0 0 11.488.924c11.808-.188 25.522-6.857 25.522-6.857l-.37 3.465h7.6c.961-.423 1.506-.685 1.506-.685l-.074.685h6.75a24.244 24.244 0 0 0 1.227-15.369 38.243 38.243 0 0 0-3.469-8.443c-3.117.375-6.472.658-7.674.362-2.461-.619-11.938 8.932-16.759 10.954-4.76 2-16.19-.38-21.143 3.622-5.763 4.656-5.22 9.324-4.6 11.342z" class="cls-27" transform="translate(-371.773 -1829.999)"/>
                </g>
            </g>
            <g id="Group_184" transform="translate(55.457 440.145)">
                <g id="Group_183">
                    <path id="Path_625" d="M226.847 1835.826c-7.647 6.18-4.188 12.383-4.188 12.383a80.736 80.736 0 0 0 19.81 2.663c11.806-.188 25.521-6.856 25.521-6.856l-.371 3.465H283.4a24.252 24.252 0 0 0 1.229-15.369c-2.253-7.994-5.943-12.1-5.943-12.1s-11.479 1.849-13.937 1.234-11.939 8.936-16.759 10.958c-4.76 2-16.189-.379-21.143 3.618z" class="cls-36" transform="translate(-221.879 -1820.016)"/>
                </g>
            </g>
            <g id="Group_186" transform="translate(65.988 444.565)">
                <g id="Group_185">
                    <path id="Path_626" d="M221.879 1857.82a65.051 65.051 0 0 0 10.059.711c11.806-.188 25.521-6.857 25.521-6.857l-.371 3.465h15.782a24.251 24.251 0 0 0 1.228-15.369 38.632 38.632 0 0 0-3.051-7.676c-3.363.75-7.452 1.547-8.842 1.334-2.5-.387-11.065 10-15.679 12.453-4.554 2.427-16.153 1.115-20.718 5.553a13.2 13.2 0 0 0-3.931 6.385z" class="cls-27" transform="translate(-221.879 -1832.095)"/>
                </g>
            </g>
            <g id="Group_188" transform="translate(86.312 181.606)">
                <g id="Group_187">
                    <path id="Path_627" fill="#d0cdc9" fill-rule="evenodd" d="M257.861 1113.56v78.405h19.486v-78.405z" transform="translate(-257.861 -1113.56)"/>
                </g>
            </g>
            <g id="Group_190" transform="translate(86.624 181.49)">
                <g id="Group_189">
                    <path id="Path_628" fill="#007dae" fill-rule="evenodd" d="M73.318 1115.45h86.711v-2.207H73.318v2.207z" transform="translate(-73.318 -1113.243)"/>
                </g>
            </g>
            <g id="Group_192" transform="translate(135.188 239.583)">
                <g id="Group_191">
                    <path id="Path_629" fill="#ed827a" fill-rule="evenodd" d="M117.424 1303.686c6.576.38 11.282 5.342 15.959-2.886a25.263 25.263 0 0 0 1.585-8.026c-.2-3.4-2.269-8.232-2.269-8.232l1.442-12.436c-2.546-.994-10.792 4.341-15.051 2.468l-.211 1.124-1.2 2.8 8.887 3.923s1.589 12.118-.055 15.457-5.982 3.517-5.982 3.517-6.625-1.817-9.686-1.682l-.432.074c2.349 1.861 5.7 3.82 7.018 3.9z" transform="translate(-110.406 -1271.982)"/>
                </g>
            </g>
            <g id="Group_194" transform="translate(123.452 246.102)">
                <g id="Group_193">
                    <path id="Path_630" d="M150.1 1312.693c1.7 3.283 7.985-1.9 7.44-9.459 1.644-3.334-1.4-9.515-1.4-9.515l-8.887-3.923s-.609 3.953-7.171 5.1c-5.189 1.987-16.559.224-6.29 6.316 3.175.326 6.2-.754 7.925-.168 2.262.765 3.418 1.809 3.106 4.287-3.366 4.01-15.771.246-16.546 1.572-.316.538 1.988 5.8 10.524 6.034 3.951-.92 7.436-1.313 11.3-.249z" class="cls-35" transform="translate(-128.251 -1289.796)"/>
                </g>
            </g>
            <g id="Group_196" transform="translate(108.451 140.857)">
                <g id="Group_195">
                    <path id="Path_631" fill="#193536" fill-rule="evenodd" d="M147.249 1055.737c7.891 25.122 4 52.951 4 52.951h-26.287s4-37.52-2.857-50.282-16.953-25.9-25.9-28.19c-3.963-1.01 8.189-28 8.189-28s29.332 10.476 42.858 53.523z" transform="translate(-95.407 -1002.214)"/>
                </g>
            </g>
            <g id="Group_198" transform="translate(108.45 154.136)">
                <g id="Group_197">
                    <path id="Path_632" fill="#111518" fill-rule="evenodd" d="M172.8 1131.694h-15.121s4-37.52-2.857-50.283-16.953-25.9-25.9-28.19c-2.016-.515.137-7.739 2.739-14.722 9.434 5.719 26.8 19.876 36.333 50.2 4.96 15.788 5.267 32.646 4.81 42.991z" transform="translate(-128.123 -1038.499)"/>
                </g>
            </g>
            <g id="Group_200" transform="translate(158.213 238.998)">
                <g id="Group_199">
                    <path id="Path_633" d="M106.223 1272.814a2.429 2.429 0 1 1-2.43-2.432 2.427 2.427 0 0 1 2.43 2.432z" class="cls-34" transform="translate(-101.365 -1270.382)"/>
                </g>
            </g>
            <g id="Group_202" transform="translate(117.012 200.734)">
                <g id="Group_201">
                    <path id="Path_634" fill="#fc3" fill-rule="evenodd" d="M196.668 1165.826h-17.635v42.19h17.635v-42.19z" transform="translate(-179.033 -1165.826)"/>
                </g>
            </g>
            <g id="Group_204" transform="translate(84.299 181.606)">
                <g id="Group_203">
                    <path id="Path_635" fill="#004c75" fill-rule="evenodd" d="M311.107 1113.56h2.014v80.522h-2.014v-80.522z" transform="translate(-311.107 -1113.56)"/>
                </g>
            </g>
            <g id="Group_206" transform="translate(81.738 214.005)">
                <g id="Group_205">
                    <path id="Path_636" d="M296.639 1202.089h-15.565v4.716h15.565v-4.716z" class="cls-44" transform="translate(-281.074 -1202.089)"/>
                </g>
            </g>
            <g id="Group_208" transform="translate(75.481 207.74)">
                <g id="Group_207">
                    <path id="Path_637" d="M313.74 1184.972h-15.563v4.716h15.563v-4.716z" class="cls-44" transform="translate(-298.177 -1184.972)"/>
                </g>
            </g>
            <g id="Group_211" transform="translate(40.323 47.471)">
                <g id="Group_209" transform="translate(4.789)">
                    <path id="Path_638" fill="#f5b2a2" d="M250.122 747.181c-10.387 0-16.724 5.287-20.471 13.094-.433 6.658.159 14.868.691 22.91 1.351 20.4 16.67 41.831 37.908 40.886 7.272-.327 14.331-3.718 18.707-6.51a45.125 45.125 0 0 0 13.408-28.729c3.056-46.52-29.354-41.651-50.243-41.651z" transform="translate(-229.501 -747.035)"/>
                </g>
                <g id="Group_210" transform="translate(0 13.239)">
                    <path id="Path_639" fill="#f0958a" d="M272.316 806.122c-.532-8.042-1.124-16.251-.691-22.91-3.792 7.9-4.938 18.368-4.938 28.557 0 20.253 15.789 39.737 36.681 39.737 9.829 0 18.743-4.324 25.564-11.009-4.376 2.792-11.435 6.183-18.707 6.51-21.238.946-36.558-20.482-37.909-40.885z" transform="translate(-266.687 -783.212)"/>
                </g>
            </g>
            <g id="Group_213" transform="translate(49.696 68.787)">
                <g id="Group_212">
                    <path id="Path_640" fill="#2d1c1e" d="M319.995 811.786a1.534 1.534 0 0 0 1.138-.506 6.9 6.9 0 0 1 4.788-2.26 6.983 6.983 0 0 1 4.983 1.787 1.536 1.536 0 0 0 2.066-2.273 10.09 10.09 0 0 0-7.2-2.585 9.92 9.92 0 0 0-6.915 3.27 1.537 1.537 0 0 0 1.137 2.567zm-29.829-.715a1.542 1.542 0 0 0 1.111-.475 7.161 7.161 0 0 1 5.044-2.245 6.979 6.979 0 0 1 4.879 1.883 1.538 1.538 0 0 0 2.126-2.223 10.094 10.094 0 0 0-14.269.462 1.537 1.537 0 0 0 1.11 2.6z" transform="translate(-288.63 -805.282)"/>
                </g>
            </g>
            <g id="Group_215" transform="translate(69.979 86.453)">
                <g id="Group_214">
                    <path id="Path_641" d="M209.332 882.118c6.067 0 10.949-2.9 11.777-7.375a1.536 1.536 0 1 0-3.021-.558c-.653 3.54-6.087 5.636-11.877 4.568a1.535 1.535 0 0 0-.553 3.021 20.148 20.148 0 0 0 3.674.344zm44.968-17.863a5.481 5.481 0 0 0 1.983-10.594 1.536 1.536 0 0 0-1.12 2.861 2.411 2.411 0 0 1-1.528 4.568 1.537 1.537 0 0 0-.831 2.959 5.737 5.737 0 0 0 1.496.206z" class="cls-48" transform="translate(-204.399 -853.554)"/>
                </g>
            </g>
            <g id="Group_217" transform="translate(52.622 84.658)">
                <g id="Group_216">
                    <path id="Path_642" d="M392.492 853.447c0 2.648-1.38 4.8-3.079 4.8s-3.082-2.154-3.082-4.8 1.377-4.8 3.082-4.8 3.079 2.148 3.079 4.8z" class="cls-49" transform="translate(-386.331 -848.648)"/>
                </g>
            </g>
            <g id="Group_219" transform="translate(53.84 85.586)">
                <g id="Group_218">
                    <path id="Path_643" d="M396.24 852.619c0 .793-.464 1.434-1.038 1.434s-1.039-.641-1.039-1.434.466-1.434 1.039-1.434 1.038.643 1.038 1.434z" class="cls-44" transform="translate(-394.163 -851.185)"/>
                </g>
            </g>
            <g id="Group_221" transform="translate(83.142 84.8)">
                <g id="Group_220">
                    <path id="Path_644" d="M309.1 853.837c0 2.65-1.378 4.8-3.08 4.8s-3.08-2.148-3.08-4.8 1.379-4.8 3.08-4.8 3.08 2.151 3.08 4.8z" class="cls-49" transform="translate(-302.94 -849.036)"/>
                </g>
            </g>
            <g id="Group_223" transform="translate(84.323 86.166)">
                <g id="Group_222">
                    <path id="Path_645" d="M312.944 854.2c0 .787-.463 1.429-1.038 1.429s-1.039-.643-1.039-1.429.464-1.43 1.039-1.43 1.038.636 1.038 1.43z" class="cls-44" transform="translate(-310.867 -852.769)"/>
                </g>
            </g>
            <g id="Group_225" transform="translate(65.928 94.381)">
                <g id="Group_224">
                    <path id="Path_646" d="M345.869 882.619a5.435 5.435 0 0 0 3.686-1.43 1.537 1.537 0 0 0-2.073-2.269 2.332 2.332 0 0 1-1.966.6 2.412 2.412 0 0 1-2.048-2.628 1.538 1.538 0 0 0-1.384-1.674 1.565 1.565 0 0 0-1.676 1.384 5.487 5.487 0 0 0 4.67 5.96 5.64 5.64 0 0 0 .791.057z" class="cls-48" transform="translate(-340.382 -875.216)"/>
                </g>
            </g>
            <g id="Group_227" transform="translate(38.366 19.47)">
                <g id="Group_226">
                    <path id="Path_647" fill="#281a1d" fill-rule="evenodd" d="M287.9 701.293a14.865 14.865 0 0 0-14.961-11.862 49.115 49.115 0 0 1-6.07-.143c-.334-.035-.658-.055-1-.1-.968-.12-9.469-6.657-17.049-9.434-1.733-.637-1.922 3.631-3.661 2.873-6.995-3.054-13.519-8.093-15.443-8.411-3.863-.645-4.937 8.89-6.879 8.215-2.151-.75-14.317-11.246-16.049-11.845-2.811-.979-3.346 9.234-3.084 20.769.026 1.136-2.925 2.29-2.883 3.443a197.116 197.116 0 0 0 3.437 27.8s4.061-19.248 18.2-16.193c6.665 1.443 15.108 6.468 25.6 4.108 5.45-1.226 12.036-3.01 15.856-2.674a12.553 12.553 0 0 1 10.7 8.523 12.72 12.72 0 0 1 .717 3.354c.4 6.271-2.326 15.021-2.611 19.748-.118 1.964 3.134 3.759 3.227 3.815 1.814 1.047 2.684-5.335 5.061-7.549 2.668-2.483 3.82-1.43 3.82-1.43s4.3-8.7 4.3-21.877a55.9 55.9 0 0 0-1.225-11.133z" transform="translate(-200.816 -670.523)"/>
                </g>
            </g>
            <g id="Group_229" transform="translate(44.809 21.686)">
                <g id="Group_228">
                    <path id="Path_648" fill="#55291b" fill-rule="evenodd" d="M224.436 676.578a35.313 35.313 0 0 0 3.439 14.9c5.444 11.46 19.42 16.142 28.225 14.9 37.541-5.3 39.116 9.885 38.974 16.332s-2.008 20.2-2.008 20.2 17.767-50.006-16.619-45.275c-41.258 5.673-52.011-21.062-52.011-21.062z" transform="translate(-224.432 -676.578)"/>
                </g>
            </g>
        </g>
    </g>
</svg>
