<svg xmlns="http://www.w3.org/2000/svg" width="406.398" height="492.349" viewBox="0 0 406.398 492.349">
    <defs>
        <style>
            .cls-1{fill:#db9c89}.cls-12,.cls-19,.cls-2{fill:#a34b5f}.cls-17,.cls-2{opacity:.5}.cls-3{fill:#4a53a5}.cls-4{fill:#787fff}.cls-15,.cls-5,.cls-6,.cls-7{fill:#62344a}.cls-15,.cls-6,.cls-7{mix-blend-mode:multiply}.cls-15,.cls-17,.cls-6,.cls-7{isolation:isolate}.cls-7{opacity:.2}.cls-15{opacity:.3}.cls-17,.cls-9{fill:#ffc442}.cls-17{mix-blend-mode:overlay}.cls-11{fill:#2d2433}.cls-12{opacity:.4}.cls-14{fill:#f4c8b5}.cls-18{fill:#dd6b7d}
        </style>
    </defs>
    <g id="img" transform="translate(-34.741 -83.932)">
        <path id="Path_1462" d="M206.569 155.142c-.027-6.78-2.331-15.335-4.4-20.377-2.188-5.345-1.2-6.4 2.083-2.545 2.833 3.447 4.316 7.175 5.039 7.071.347-.047-.712-3.056-2.715-7.232-2.064-4.29-3.707-7.325-2.24-8.07 1.7-.825 8.875 10.149 9.632 13.509 1.29 3.238-2-9.729-4.436-13.832-2.389-4.662.315-5.191 4.292.638 3.838 5.887 5.149 11.581 6.188 13.065.279-1.37.467-3.189-1.393-9.944-1.6-4.949.918-4.817 3.6.08 3.275 5.89 3.127 15.352 4.866 16.122 1.505-.136 1.545-2.6 4.436-6.986 2.8-4.371 2.673 2.546.9 8.008-1.7 5.635-2.7 10.109-3.909 15.244-2.713 11.523-5.887 12.74-10.911 12.728-5.37-.034-11.176-3.792-11.032-17.479z" class="cls-1" transform="translate(24.061 5.227)"/>
        <path id="Path_1463" d="M219.371 144.1a1.207 1.207 0 0 0-.442.362 4.746 4.746 0 0 0-.449.531 13.092 13.092 0 0 0-.618 1.161c-.38.788-.706 1.607-1.008 2.428-.3.8-.576 1.623-.792 2.453a9.7 9.7 0 0 0-.477 2.62.515.515 0 0 0 1 .192 19.1 19.1 0 0 0 .746-2.395c.255-.822.515-1.639.82-2.445.3-.785.633-1.552.976-2.318.172-.381.345-.761.5-1.147.084-.2.094-.4.158-.6a1.282 1.282 0 0 0 .062-.609.337.337 0 0 0-.476-.233z" class="cls-2" transform="translate(26.172 8.703)"/>
        <path id="Path_1464" d="M305.927 211.625c6.049 8.635-.614 27.437-17.642 34.593-13.533 5.687-69.382 22.619-85.05 7.99-11.008-10.277 2.68-85.647 5.239-97.156 4.018 1.328 13.948-.18 18.926-.277-1.685 5.727-2.611 70.24 2.172 70.8 5.8.675 34.24-11.282 51.419-19.641 15.23-7.415 21.109-1.767 24.936 3.691z" class="cls-1" transform="translate(23.773 10.542)"/>
        <path id="Path_1465" d="M304.665 205.676c-2.83-8.353-24.425-11.927-65.662 9.794 0 0 2.2 12.938 7.18 23.524s8.551 14.145 8.551 14.145 58.313-22.73 49.931-47.463z" class="cls-3" transform="translate(29.561 16.678)"/>
        <path id="Path_1466" d="M243.617 216.432c-.362-1.829-.794-4.327-1.951-4.627-1.449-.377-4.486 1.229-4.938 1.84-.839 1.13-.375 5.922.619 9.818s6.3 18.415 12.812 27.357c.34.467 5.266-.664 5.648-1.1 1.027-1.171.475-1.5-.227-2.885-1.666-3.283-3.678-6.358-5.231-9.714a91.488 91.488 0 0 1-6.732-20.689z" class="cls-4" transform="translate(29.169 18.498)"/>
        <path id="Path_1467" d="M283.147 377.884c-.453 2.27-12.862 81.962-2.038 151.353q-3.75.053-7.5.135c-9.91.226-19.815.594-29.722.907q-2.419.076-4.838.143c-1.387-13.409-4.253-44.294-4.582-73.42-.436-38.6 8.242-128.057 11.447-136.3l95.089 7.784c-.458 1.374-3.663 158.869 32.894 202.692H323.99C303.966 488.7 293.832 389.026 292 379.868s-8.4-4.273-8.853-1.984z" class="cls-5" transform="translate(28.903 34.266)"/>
        <path id="Path_1468" d="M280.976 345.793c.1-2.415.254-4.832.5-7.237a61.059 61.059 0 0 1 .976-7.019.365.365 0 0 1 .7 0c.006.032.007.064.013.1a8.031 8.031 0 0 1 .125.951c.007.135-.139.163-.228.1-.2 2-.493 4-.682 6.007-.222 2.363-.4 4.728-.513 7.1-.106 2.324-.144 4.65-.145 6.976 0 2.413.169 4.839.1 7.251-.008.268-.448.356-.492.066a53.538 53.538 0 0 1-.438-7.038c-.053-2.42-.015-4.84.084-7.257z" class="cls-6" transform="translate(35.62 35.796)"/>
        <path id="Path_1469" d="M276.552 345.195a55.164 55.164 0 0 1 1.021-7.139q.381-1.8.88-3.574a7.781 7.781 0 0 1 1.219-3.031c.111-.132.314-.017.321.133a11.42 11.42 0 0 1-.784 3.38q-.45 1.648-.8 3.323a56.728 56.728 0 0 0-1.01 7.039 57.92 57.92 0 0 0-.117 6.963c.048 1.137.119 2.273.231 3.407a23.164 23.164 0 0 1 .342 3.644c-.011.174-.28.293-.366.1a12.034 12.034 0 0 1-.667-3.22c-.159-1.217-.282-2.441-.356-3.667a53.316 53.316 0 0 1 .086-7.358z" class="cls-6" transform="translate(34.97 35.813)"/>
        <path id="Path_1470" d="M313.4 331.779c.064-.349.537-.276.639 0a16.955 16.955 0 0 1 .5 3.578q.235 1.815.562 3.617c.43 2.391.981 4.76 1.636 7.1a34.53 34.53 0 0 0 2.278 6.642c.952 1.832 3.123 3.752 5.289 2.586a.277.277 0 0 1 .279.478 4.285 4.285 0 0 1-5.316-1.248c-1.55-1.835-2.212-4.427-2.911-6.674a72.669 72.669 0 0 1-2.011-8.12q-.376-1.99-.644-4a13.252 13.252 0 0 1-.301-3.959z" class="cls-6" transform="translate(40.317 35.835)"/>
        <path id="Path_1471" d="M243.547 348.036c.108.916 1.39.7 1.835.251a5.286 5.286 0 0 0 1.013-2.3l1.8-6.141c1.2-4.1 2.4-8.19 3.705-12.254a.282.282 0 0 1 .544.149c-1.351 5.135-2.857 10.228-4.337 15.327-.362 1.249-.71 2.5-1.086 3.747a4.473 4.473 0 0 1-1.264 2.269c-1 .818-2.991.476-2.982-1.046.006-.511.715-.482.772-.002z" class="cls-6" transform="translate(30.107 35.234)"/>
        <path id="Path_1472" d="M268.379 365.038a49.141 49.141 0 0 1 8.8-.03 71.756 71.756 0 0 1 8.543 1.1c.3.057.235.574-.072.536-2.862-.345-5.735-.643-8.611-.828s-5.78-.225-8.662-.416a.183.183 0 0 1 .002-.362z" class="cls-6" transform="translate(33.787 40.651)"/>
        <path id="Path_1473" d="M240.549 345.948c.778 2.759 23.192 13.37 49.921 16.908s58.186-2.747 57.007-9.432-9.41-77.314 1.992-113.488S354.415 200 348.9 194.9c-3.972-3.663-14.149-4.235-25.791-3.182a201.42 201.42 0 0 0-33.609 6.239 71.761 71.761 0 0 0-13.565 4.9c-11.4 6.285-24.154 21.138-28.149 53.208-3.507 28.135-8.026 87.135-7.237 89.883z" class="cls-3" transform="translate(29.772 15.531)"/>
        <path id="Path_1474" d="M258.117 218.074a12.537 12.537 0 0 0-2.191 2.707q-.965 1.411-1.805 2.9a49.319 49.319 0 0 0-3 6.378q-.67 1.729-1.213 3.5c-.114.378-.907 3.756-.649 3.772s.8-2.667 1.116-3.505c.437-1.142.889-2.41 1.331-3.551a47.468 47.468 0 0 1 3.1-6.2q.841-1.485 1.762-2.926a22.554 22.554 0 0 0 1.81-2.881.166.166 0 0 0-.261-.194z" class="cls-7" transform="translate(31.037 19.407)"/>
        <path id="Path_1475" d="M292.46 225.527c10.193 1.587 19.175-.6 19.308-.006a32.037 32.037 0 0 1 .3 9.192 25.884 25.884 0 0 1-2.341 9.405 11.416 11.416 0 0 1-3.543 4.471 9.684 9.684 0 0 1-4.628 1.609 8.351 8.351 0 0 1-4.406-.652 8.6 8.6 0 0 1-3.945-4.491c-1.5-3.5-1.5-7.464-1.466-11.206a42.721 42.721 0 0 1 .373-7.5c.026-.127.105-.86.348-.822z" class="cls-4" transform="translate(37.192 20.476)"/>
        <path id="Path_1476" d="M370.143 289.733c-1.712 13.291-25.753 20.374-50.953 34.11l7.111 21.67s76.174-19.164 73.609-56.933c-1.3-19.159-44.895-82.459-50.756-80.892-2.665.713-19.11 16.553-21.79 20.306-3.764 5.273 44.491 48.449 42.779 61.739z" class="cls-1" transform="translate(41.166 17.906)"/>
        <path id="Path_1477" d="M317.188 194.351c-7.4 4.8-8.014 30.178 23.611 60.448a258.107 258.107 0 0 1 19.134-19.278c10.805-9.75 9.182-12.333 9.182-12.333s-30.015-43.039-51.927-28.837z" class="cls-3" transform="translate(40.269 15.564)"/>
        <path id="Path_1478" d="M335.2 244.489a60.978 60.978 0 0 1-8.474-8.924 52.267 52.267 0 0 1-3.345-5.026c-1.031-1.763-1.877-3.66-2.993-5.369a.188.188 0 0 0-.342.144 22.452 22.452 0 0 0 2.62 5.643c.8 1.359 1.683 2.668 2.6 3.95-.816-.3-1.638-.587-2.461-.87q-.931-.319-1.866-.624a5.438 5.438 0 0 0-1.9-.435c-.163.008-.292.229-.147.351a5.256 5.256 0 0 0 1.7.776c.62.211 1.242.42 1.866.622 1.137.367 2.271.751 3.428 1.052.094.126.179.258.274.382A46.685 46.685 0 0 0 334.8 245c.293.226.671-.268.4-.511z" class="cls-7" transform="translate(41.113 20.427)"/>
        <path id="Path_1479" d="M319.19 334.142s6.192 5.7 13.149 2.8-.99-3.893-.99-3.893 5.673-1.528 5.314-3.582-6.62-1.429-6.62-1.429z" class="cls-1" transform="translate(41.166 35.314)"/>
        <path id="Path_1480" d="M327.33 306.446s-14.815 4.19-16.862 9.759 7.507 20.737 10.7 21.634 17.613-10.314 18.5-11.688-7.7-21.643-12.338-19.705z" class="cls-1" transform="translate(39.862 32.184)"/>
        <path id="Path_1481" fill="#a34b5f" d="M323.83 332.862c.362-.156.725-.314 1.083-.478a19.372 19.372 0 0 0 5.938-4.21c.288-.3.713.183.428.481a20.308 20.308 0 0 1-3.845 3.14 19.634 19.634 0 0 1-2.143 1.173 12.6 12.6 0 0 1-1.165.482 2.7 2.7 0 0 1-1.133.255.2.2 0 0 1-.122-.346 3.22 3.22 0 0 1 .959-.497z" opacity="0.3" transform="translate(41.689 35.333)"/>
        <path id="Path_1482" d="M361.41 218.864c1.245-1.787 2.03-3.751 4.17-3.772.963-.009 4.994 3.235 4.511 5.021a20.872 20.872 0 0 1-3.6 6.91 85.8 85.8 0 0 1-27.569 25.432c-1.719 1.006-5.874-3.047-6.066-3.689-.519-1.725.214-1.819 1.607-2.974 3.3-2.736 6.863-5.087 10.082-7.952a108.776 108.776 0 0 0 16.865-18.976z" class="cls-4" transform="translate(43.12 18.982)"/>
        <rect id="Rectangle_149" width="28.006" height="9.021" class="cls-5" rx="1.35" transform="rotate(-117.401 299.82 65.261)"/>
        <path id="Path_1483" d="M331.449 307.673a7.936 7.936 0 1 0 10.7 3.393 7.936 7.936 0 0 0-10.7-3.393z" class="cls-9" transform="translate(42.32 32.251)"/>
        <path id="Path_1484" d="M332.539 310.158a4.671 4.671 0 1 0 6.3 2 4.67 4.67 0 0 0-6.3-2z" transform="translate(42.733 32.664)" style="mix-blend-mode:overlay;isolation:isolate" fill="#ffc442"/>
        <path id="Path_1485" d="M248.461 125.439c.2-8.114 3.194-15.916 6.948-23.112a11.919 11.919 0 0 1 2.532-3.607 4.353 4.353 0 0 1 4.1-1.062 5.054 5.054 0 0 1 2.862 3.411c1.017 3.1.574 6.461.119 9.689l-3.573 25.429a25.349 25.349 0 0 1-2.2 8.413c-1.936 3.653-3.913.7-5.677-1.7a28.53 28.53 0 0 1-5.111-17.461z" class="cls-11" transform="translate(30.928 1.962)"/>
        <path id="Path_1486" d="M288.2 201.683s-6.2 7.71-.877 7.871 20.45-11.707 20.45-11.707l-4.017-20.747-19.574 3.836z" class="cls-1" transform="translate(36.099 13.484)"/>
        <path id="Path_1487" d="M299.361 188.14c1.945-.855 3.862-1.777 5.793-2.658.065-.031.14-.064.208-.1l-1.607-8.282-19.574 3.838 2.1 10.821a42.782 42.782 0 0 0 13.08-3.619z" class="cls-12" transform="translate(36.099 13.484)"/>
        <path id="Path_1488" d="M325.549 179.108c-5.953 23.2-50 25.437-67.463 13.737-14.8-9.921-7.631-80.13-.519-85.582 15.794-12.1 33.275-18.642 50.574-13.006 33.514 11.081 30.176 54.982 17.408 84.851z" class="cls-1" transform="translate(31.07 1.198)"/>
        <path id="Path_1489" d="M242.62 108.959a15.146 15.146 0 0 1 7.759-10.242 14.508 14.508 0 0 1 2.6-1.017 15.03 15.03 0 0 1 5.6-10.075c5.5-4.249 13.215-4.183 20.091-3 6.021 1.037 12.355 2.348 18.509 2.283a143.344 143.344 0 0 1 21.475 1.558c5.188.9 10.559 1.929 14.743 5.073 5.441 4.089 7.83 10.923 9.925 17.353 1.912 5.869 3.831 11.826 4.119 17.985s-1.247 12.65-5.474 17.186c-1.962 2.1-12.206 5.01-14.1 7.176a12.585 12.585 0 0 0-3.035 5.662 3.376 3.376 0 0 1-3.167 2.738 3.428 3.428 0 0 1-3.651-3.313 138.014 138.014 0 0 0 1.832-14.652c.229-5.724 2.115-9.96-.839-11.982-2.479-1.7-3.083-.607-5.269-2.657-2.141-2.007-1.906-5.342-2.378-8.219-2.193-13.362-26.1-10.926-31.973-9.012-4.991 1.627-10.365 3.015-15.445 1.683a14.068 14.068 0 0 1-1.969-.677 15.307 15.307 0 0 1-7.873 6.417c-2.858.992-6.259 1.023-8.677-.8-2.772-2.084-3.503-6.061-2.803-9.468z" class="cls-11" transform="translate(30.049)"/>
        <path id="Path_1490" d="M315.451 159.052c1.511 4.309 8.638 5.859 14.4 1.982s9.946-15.6 5.671-21.972-14.452-3.538-18.324 4.05c-2.925 5.729-2.925 12.579-1.747 15.94z" class="cls-1" transform="translate(40.518 7.469)"/>
        <path id="Path_1491" d="M330.776 142.45a.425.425 0 0 0-.19-.709c-1.363-.334-2.881.513-4.016 1.187a13.912 13.912 0 0 0-3.362 2.774 12.186 12.186 0 0 0-3.148 8.067c.011.549.881.71 1 .134a15.151 15.151 0 0 1 3.349-7.143c.245-.274.524-.511.789-.761.108.133.235.255.343.38.2.223.4.442.592.669a11.831 11.831 0 0 1 1.047 1.469c.643 1.038 1.034 2.215 1.757 3.205.134.184.516.212.561-.072a5.757 5.757 0 0 0-1.117-3.827 11.738 11.738 0 0 0-1.242-1.63 6.519 6.519 0 0 0-.705-.695c-.117-.1-.232-.191-.353-.278a12.666 12.666 0 0 1 1.3-.919c1.082-.647 2.485-.976 3.395-1.851z" class="cls-2" transform="translate(41.291 8.355)"/>
        <path id="Path_1492" d="M254.97 127.408a9.08 9.08 0 0 1 3.03-2.059 6.941 6.941 0 0 1 3.348-.519 4.693 4.693 0 0 1 3.52 1.762 1.956 1.956 0 0 1 .2 1.8 1.457 1.457 0 0 1-1.156.987 3.54 3.54 0 0 1-1.219-.111c-.1-.022-.2-.043-.3-.061a6.147 6.147 0 0 0-1.1-.082 5.518 5.518 0 0 0-2.184.485 6.483 6.483 0 0 0-1.945 1.383 7.606 7.606 0 0 0-.5.586 3.992 3.992 0 0 1-2.129 1.66 1.165 1.165 0 0 1-.225.019 1.2 1.2 0 0 1-.767-.3 1.922 1.922 0 0 1-.6-1.287c-.153-2.034 1.488-3.711 2.027-4.263z" class="cls-11" transform="translate(31.578 5.914)"/>
        <path id="Path_1493" d="M285.723 123.913a9.926 9.926 0 0 1 4.31.462 11.765 11.765 0 0 1 3.948 2.216c.706.6 2.858 2.442 2.713 4.743a2.079 2.079 0 0 1-.73 1.477 1.651 1.651 0 0 1-1.264.361 5.038 5.038 0 0 1-2.778-1.8c-.228-.234-.445-.464-.661-.643a8.375 8.375 0 0 0-2.534-1.492 7.831 7.831 0 0 0-2.815-.467 8.947 8.947 0 0 0-1.4.133c-.127.023-.254.052-.381.081a5.243 5.243 0 0 1-1.566.169 1.812 1.812 0 0 1-1.51-1.071 2 2 0 0 1 .2-2.043c1.286-1.718 3.516-2.004 4.468-2.126z" class="cls-11" transform="translate(35.619 5.776)"/>
        <path id="Path_1494" d="M283.8 141.482a4.112 4.112 0 0 1 3.6-.93 8.152 8.152 0 0 1 3.5 2.036 6.181 6.181 0 0 1 2.174 3.178c.14.556-.672.941-.952.4a8.227 8.227 0 0 0-2.085-2.294 8.087 8.087 0 0 0-2.562-1.635 2.613 2.613 0 0 0-2.489.357 2.813 2.813 0 0 0-.744.9 5.975 5.975 0 0 0-.366 1.3.759.759 0 0 1-1.451 0 3.664 3.664 0 0 1 1.375-3.312z" class="cls-11" transform="translate(35.837 8.18)"/>
        <path id="Path_1495" d="M254.253 143.872a2.969 2.969 0 0 1 2.421-1.835 4.91 4.91 0 0 1 3.2 1.455 6.978 6.978 0 0 1 1.146 1.221 3.76 3.76 0 0 1 .765 1.553.37.37 0 0 1-.612.356 13.828 13.828 0 0 1-.917-1.046 11.373 11.373 0 0 0-.931-.919 7.661 7.661 0 0 0-1.115-.789 3.189 3.189 0 0 0-1.257-.519 1.649 1.649 0 0 0-1.539 1.17 4.452 4.452 0 0 0-.24 1.423 1.893 1.893 0 0 1-.429 1.389.234.234 0 0 1-.282.035 1.189 1.189 0 0 1-.485-.656 3.239 3.239 0 0 1-.1-1.013 4.845 4.845 0 0 1 .375-1.825z" class="cls-11" transform="translate(31.713 8.408)"/>
        <path id="Path_1496" d="M261.06 154.64a57.97 57.97 0 0 1 3.75-13.389 32.318 32.318 0 0 1 3.6-6.9.3.3 0 0 1 .524.307c-1.059 2.47-2.322 4.846-3.331 7.341a59.957 59.957 0 0 0-2.513 7.647q-.491 1.92-.855 3.869c-.124.669-.25 1.339-.35 2.012a1.765 1.765 0 0 0 .392 1.787c.829.655 2.083.307 2.972 0a5.853 5.853 0 0 1 3.436-.5c.27.069.223.539-.068.5-2.016-.268-3.655 1.5-5.721 1.177a2.352 2.352 0 0 1-1.726-1.073 4.249 4.249 0 0 1-.11-2.778z" class="cls-2" transform="translate(32.727 7.276)"/>
        <path id="Path_1497" fill="#fff" d="M273.587 158.06c5.034-1.054 9.546-3.343 11.164-1.837s-1.386 7.473-9.264 8.833-10.77-3.162-9.988-4.912 3.018-1.021 8.088-2.084z" transform="translate(33.378 10.39)"/>
        <path id="Path_1498" d="M288.617 207.637s1.733-12.475 3.782-13.175 5.3 11.185 5.3 11.185a22.177 22.177 0 0 1-9.082 1.99z" class="cls-3" transform="translate(36.741 15.992)"/>
        <path id="Path_1499" d="M287.882 211.011s1.342-13.737 4.472-16.942 14.051-11.664 18.636-9.145 5.292 6.741 6.858 10.4-19.12 13.622-20.463 13.279-3.019-12.592-4.585-11.791-2.458 13.97-4.918 14.199z" class="cls-4" transform="translate(36.635 14.549)"/>
        <path id="Path_1500" d="M288.322 208.029s.42-13.766-2.416-14.089-7.2 11.131-7.2 11.131a73.416 73.416 0 0 0 9.616 2.958z" class="cls-3" transform="translate(35.307 15.92)"/>
        <path id="Path_1501" d="M280.223 207.191a4.143 4.143 0 0 1-2.255-.976 8.472 8.472 0 0 1-1.756-2.164 4.268 4.268 0 0 1-.751-2.014 7.774 7.774 0 0 1 1.178-3.3 28.108 28.108 0 0 1 1.889-3.329c1.18-1.821 4.2-6.477 7.32-6.265s3.565 5.846 3.726 7.63.27 5.252.337 7.761c.01.355.176 5.767-.035 5.795-1.762.229-1.314-14.309-3.662-15-1.457-.426-3.762 9.05-5.226 11.835a3.3 3.3 0 0 1-.765.027z" class="cls-4" transform="translate(34.837 15.226)"/>
        <path id="Path_1502" d="M87.878 107.925c-7.456 3.053-30.78 26.15-33.1 72s5.2 43.2 2.976 61.268-21.96 30.172-22.954 42.262c-1.374 16.714 21.581 22.209 28.742 7.2-1.575 9.5-1.271 20.754 11.607 22.814s18.031-18.8 18.031-18.8 0 19.833 12.364 21.379 19.833-22.148 19.833-22.148-3.348 15.455 9.273 16.228 13.136-16.743 11.075-32.455-2.061-47.394 8.243-48.424 20.864-1.545 23.182-13.393-9.679-20.371-11.849-36.834 1.288-47.651-30.393-59.243-39.576-14.907-47.03-11.854z" class="cls-5" transform="translate(0 3.317)"/>
        <path id="Path_1503" d="M164.153 294.267c10.551 19.6 24.617 27.444 52.356 49.336l-4.089 15.068s-42.315-14.723-72.077-54.56c-14.143-18.929-16.879-67.205-8.929-83.111 6.868-13.737 23.349-7.231 24.726 8.242 1.685 18.937-3.203 44.191 8.013 65.025z" class="cls-14" transform="translate(13.354 18.751)"/>
        <path id="Path_1504" d="M192.332 340.418a42.044 42.044 0 0 1 7.652 14.293c1.219 4.21 2.458 4.3 2.647.459.076-3.5-1.205-6.685-.579-7.076.31-.187.847 2.346 1.9 5.776 1.253 4.059 1.664 7.8 3.175 6.548 1.812-1.413.68-11.441-.46-14.1-.93-2.718 3.561 6.461 4.545 10.957 1.223 4.935 3.573 4.516 2.8-2.441-.925-6.461-2.811-10.236-2.873-11.854.962.83 2.119 1.822 4.723 8.129 1.78 5 3.82 3.562 2.757-2.131-1.249-6.657-6.967-12.761-6.273-14.238 1.028-.7 2.419.812 6.77 2.8 4.223 2.209.144-3.544-4.1-6.473-4.329-3.174-9.238-6.834-13.618-8.219-6.033-1.9-9.278-2.894-13.012.582-2.431 2.164-6.742 5.607-5.207 8.613 1.204 2.382 6.558 4.629 9.153 8.375z" class="cls-14" transform="translate(21.435 34.326)"/>
        <path id="Path_1505" d="M130.939 475.642c3.765-18.018-8.548-87.915-9.769-101.346s-1.526-48.842-1.526-48.842l57.388.306s16.79 41.514 7.022 91.882-20.754 86.084-22.894 105.011-44.569 10.378-44.569 10.378 10.074-36.931 14.348-57.389z" class="cls-4" transform="translate(11.845 34.954)"/>
        <path id="Path_1506" d="M100.927 324.388c-22.786 37.574-16.18 32.968-24.727 104.094s-12.21 90.356-22.893 105.925 41.769.59 41.769.59 17.852-42.289 32.209-84.641c14.98-44.193 32.253-125.662 32.253-125.662z" class="cls-4" transform="translate(2.479 34.799)"/>
        <path id="Path_1507" d="M131.7 392.8q2.7-8.783 5.45-17.552c.509-1.632 1.017-3.265 1.542-4.893.41-1.272.768-2.6 1.29-3.843a13.142 13.142 0 0 1-4.231-.166c-.206-.048-.228-.409 0-.44 1.545-.212 3.108-.217 4.665-.329a.278.278 0 0 1 .413-.04c.419-.035.838-.072 1.256-.133a41.445 41.445 0 0 0 6.222-1.477c.417-.129.56.482.176.638a27.286 27.286 0 0 1-6.4 1.686c-.424.062-.857.12-1.295.174a34.882 34.882 0 0 1-.966 3.5q-.68 2.251-1.382 4.493l-2.764 8.84q-2.744 8.771-5.537 17.528c-1.06 3.3-2.19 6.584-3.256 9.886-.1.322-.607.187-.508-.141 1.781-5.905 3.514-11.831 5.325-17.731z" class="cls-15" transform="translate(13.259 40.519)"/>
        <path id="Path_1508" d="M91.447 356.523c1.366.341 2.643 1 3.978 1.443a17.541 17.541 0 0 0 4.091.911 12.808 12.808 0 0 0 7.032-1.471c4.454-2.333 7.425-6.558 9.422-11.057 1.236-2.785 2.192-5.7 3.163-8.581a.313.313 0 0 1 .6.167c-1.48 5.29-3.119 10.713-6.539 15.118-3.012 3.881-7.581 6.922-12.633 6.9a16.781 16.781 0 0 1-4.785-.789 16.953 16.953 0 0 1-4.616-1.975.368.368 0 0 1 .287-.666z" class="cls-15" transform="translate(8.141 36.704)"/>
        <path id="Path_1509" d="M166.167 332.954c.441 2.363.775 4.741 1.243 7.1q.714 3.6 1.619 7.167c.584 2.3 1.2 4.6 1.913 6.865.662 2.095 1.826 4.347 4.286 4.558a.268.268 0 0 1 0 .536c-2.121.278-3.7-1.52-4.492-3.289a48.159 48.159 0 0 1-2.231-7.231q-1.03-3.886-1.827-7.83c-.521-2.564-1.047-5.162-1.327-7.765-.051-.465.731-.571.816-.111z" class="cls-15" transform="translate(18.902 35.996)"/>
        <path id="Path_1510" d="M142.167 342.327c.068-2.072.072-4.145-.015-6.217-.088-2.106-.41-4.229-.35-6.336a.269.269 0 0 1 .527-.071 27.883 27.883 0 0 1 .678 6.269c.084 2.162.086 4.332-.023 6.494a80.731 80.731 0 0 1-1.615 12.432c1.683 1.077 3.916.068 4.928-1.5 1.253-1.947 1.225-4.436 1.358-6.663a133.574 133.574 0 0 0 .29-15.583c-.015-.253.377-.252.394 0a129.85 129.85 0 0 1-.217 17.618c-.152 2.134-.527 4.572-2.243 6.049a4.1 4.1 0 0 1-5.047.541.35.35 0 0 1-.152-.374 75.973 75.973 0 0 0 1.487-12.659z" class="cls-15" transform="translate(15.33 35.541)"/>
        <path id="Path_1511" fill="#ff5a4d" d="M195.145 362.581c-8.849 5.186-15.568-7.635-22.894-4.281-6.525 3-19.838 4.773-29.992.6a23.874 23.874 0 0 1-3.583-1.809c-2.4-1.488-4.808-2.885-7.223-4.075a.581.581 0 0 0-.172-.08 31.652 31.652 0 0 0-12.466-3.617.073.073 0 0 0-.069 0 21.411 21.411 0 0 0-10.074 1.98l-.378.172c-.652.309-1.316.652-1.98 1.042a54.817 54.817 0 0 1-13.084 5.529c-6.376 1.729-11.791 1.706-15 .263-8.86-3.961 9.158-24.726 14.343-39.378a18.908 18.908 0 0 0 1-6.513c-.046-6.491-2.564-14.069-5.426-22.139-2.576-7.258-5.426-14.916-7.017-22.551q-.446-2.146-.79-4.6a170.679 170.679 0 0 1-.652-35.967c1-11.39 3.159-20.662 6.479-22.391 1.751-.9 5.861-1.007 11.207-.572 2.015.16 4.213.4 6.513.7a296.455 296.455 0 0 1 37.741 7.693c4.132 1.19 6.9 2.221 7.418 2.862 1.671 2.083 15.671 15.637 24.715 28.973 4.2 6.193 7.315 12.34 7.647 17.274.458 6.845-.549 11.241-1.82 14.378-1.626 4.007-3.675 5.975-3.675 8.368 0 1.408 1.019 6.376 2.587 12.855 2.53 10.52 6.5 25.012 9.879 34.559.881 2.5 1.729 4.648 2.5 6.307 5.491 11.895 13.115 19.221 4.266 24.418z" transform="translate(5.945 17.367)"/>
        <path id="Path_1512" d="M126 272.656a65.353 65.353 0 0 1 12.566-3.276q3.127-.584 6.279-1.022a37.8 37.8 0 0 1 6.446-.624.346.346 0 0 1 .092.677c-2.04.479-4.2.6-6.274.9q-3.214.472-6.4 1.1c-4.209.822-8.348 2-12.567 2.75a.26.26 0 0 1-.142-.505z" class="cls-15" transform="translate(13.181 26.599)"/>
        <path id="Path_1513" d="M100.338 204.765a271.431 271.431 0 0 1 18.648 31.571c1.923 3.835 3.915 7.9 7.464 10.314 4.327 2.919 9.959 2.759 15.179 2.473 3.343-.172 7.177-.607 9.1-3.354a7.54 7.54 0 0 0 .962-5.758 24.359 24.359 0 0 0-2.083-5.609c-2.953-6.41-7.223-15.58-11.527-21.944a296.455 296.455 0 0 0-37.743-7.693z" class="cls-14" transform="translate(9.493 17.487)"/>
        <path id="Path_1514" d="M178.72 325.012a5.674 5.674 0 0 1-3.1 5.907c-2.793 1.133-6.09-.881-7.338-3.617a12.97 12.97 0 0 1-1.007-4.43 21.857 21.857 0 0 1-1.179 2.038 8.766 8.766 0 0 1-5.289 4.064c-3.858.836-7.876-2.324-8.666-6.193s1.191-7.956 4.27-10.428a17.661 17.661 0 0 1-10.417.126 7.548 7.548 0 0 1-4.785-3.343 5.9 5.9 0 0 1 1.488-6.8 9.625 9.625 0 0 1 6.948-2.221 28.344 28.344 0 0 1 7.3 1.58 17.177 17.177 0 0 1-7.2-9.318c-.6-1.912-.584-4.476 1.2-5.357 1.454-.721 3.171.137 4.51 1.053a44.428 44.428 0 0 1 10.2 9.6 12.332 12.332 0 0 1 1.019-9.661 6.051 6.051 0 0 1 2.438-2.53c2.53 10.52 6.5 25.012 9.879 34.559a6.724 6.724 0 0 1-3.842-1.041 9.72 9.72 0 0 1 3.571 6.012z" class="cls-17" transform="translate(15.33 29.169)"/>
        <path id="Path_1515" d="M106.252 333.059c-.652.309-1.316.652-1.98 1.042a54.817 54.817 0 0 1-13.084 5.529 5.578 5.578 0 0 1-.424-.6 4.774 4.774 0 0 1-.252-4.911 6.027 6.027 0 0 1 3.354-2.244 15.853 15.853 0 0 1 12.386 1.184z" class="cls-17" transform="translate(7.989 35.775)"/>
        <path id="Path_1516" d="M111.241 313.907a64.576 64.576 0 0 1 3.961 20.056 21.411 21.411 0 0 0-10.074 1.98 19.465 19.465 0 0 1-1.98-22.906c1.133-1.763 3.056-3.491 5.06-2.908 1.614.471 2.45 2.21 3.033 3.778z" class="cls-17" transform="translate(9.49 32.719)"/>
        <path id="Path_1517" d="M125.846 336.758a31.652 31.652 0 0 0-12.466-3.617 24.885 24.885 0 0 1 6.3-15.19c1.087-1.213 2.518-2.392 4.144-2.244 2.244.217 3.411 2.759 3.858 4.957a26.632 26.632 0 0 1-1.836 16.094z" class="cls-17" transform="translate(11.381 33.541)"/>
        <path id="Path_1518" d="M136.44 338.783a22.374 22.374 0 0 1-1.213 2.015 23.874 23.874 0 0 1-3.583-1.809c-2.4-1.488-4.808-2.885-7.223-4.075 1.522-1.957 3-4.281 5.2-5.277 2.427-1.11 5.689-.847 7.269 1.294 1.644 2.231.855 5.413-.45 7.852z" class="cls-17" transform="translate(12.978 35.466)"/>
        <path id="Path_1519" d="M125.854 287.188a16.942 16.942 0 0 1-15.6 11.138 13.05 13.05 0 0 1 4.888 3.446 5.258 5.258 0 0 1 .767 5.643c-1.431 2.518-4.968 2.679-7.853 2.358a32.7 32.7 0 0 1-11.745-3.137 16.628 16.628 0 0 1-4.293-3.205c-.046-6.491-2.564-14.069-5.426-22.139a6.444 6.444 0 0 1 5.632 3.549 19.262 19.262 0 0 1-.607-12.523 6.959 6.959 0 0 1 2.267-3.778 5.21 5.21 0 0 1 6.159.4 8.606 8.606 0 0 1 2.862 5.815 25.715 25.715 0 0 1-.458 6.616 28.008 28.008 0 0 1 6.056-12.2c1.316-1.545 2.976-3.034 5-3.194 2.908-.229 5.4 2.541 5.8 5.426s-.778 5.769-2.209 8.311-3.148 4.98-4 7.761a40.266 40.266 0 0 1 9.226-3.549c1.236-.309 2.8-.446 3.514.607a3.041 3.041 0 0 1 .02 2.655z" class="cls-17" transform="translate(7.504 26.344)"/>
        <path id="Path_1520" d="M168.676 270.947a14.744 14.744 0 0 0-2.644-2.816c-2.644-2.186-5.838-3.56-8.814-5.243a23.659 23.659 0 0 1-4.487-3.159 2.414 2.414 0 0 1 1.671-4.178 19.287 19.287 0 0 1 6.8 1.488 27.524 27.524 0 0 1-9.524-10.886 3.834 3.834 0 0 1-.069-3.457c1.156-2.118 3.892-1.58 5.827-.618a21.869 21.869 0 0 1 7.715 6.4c-1.5-2.255-2.747-4.67-2.621-7.441a6.4 6.4 0 0 1 .321-1.74c4.2 6.193 7.315 12.34 7.647 17.274.456 6.843-.551 11.239-1.822 14.376z" class="cls-17" transform="translate(16.858 22.484)"/>
        <path id="Path_1521" d="M103.171 251.529c-.916 1.877-3.377 2.3-5.46 2.289a32.881 32.881 0 0 1-13.37-3 10.1 10.1 0 0 1 4.945 4.877c1.087 2.69-.092 6.41-2.919 7.1a6.331 6.331 0 0 1-5.037-1.442 12.37 12.37 0 0 1-1.4-1.168 170.679 170.679 0 0 1-.652-35.967 26.453 26.453 0 0 1 5.769.572c3.5.664 7.051 1.683 9.856 3.881s4.785 5.758 4.213 9.284-4.258 6.479-7.693 5.563a16.168 16.168 0 0 0 5.22 1.4 10.743 10.743 0 0 1 5.06 1.809c1.423 1.127 2.27 3.173 1.468 4.802z" class="cls-17" transform="translate(6.353 20.301)"/>
        <path id="Path_1522" d="M159.5 127.682c-2.92-6.8-8.366-12.453-14.32-17.346a11.735 11.735 0 0 0-3.6-2.246 4.756 4.756 0 0 0-4.216.41 4.4 4.4 0 0 0-1.544 3.8c.087 2.945 1.637 5.651 3.15 8.239l11.93 20.385a22.474 22.474 0 0 0 4.9 6.42c3.051 2.475 3.918-.653 4.768-3.253a23.45 23.45 0 0 0-1.068-16.409z" class="cls-5" transform="translate(14.628 3.453)"/>
        <path id="Path_1523" d="M127.424 214.289l-16.908-1.078 1.649-21.192 16.908 1.078z" class="cls-14" transform="translate(10.966 15.643)"/>
        <path id="Path_1524" d="M116.769 201.381c-1.723-.532-3.43-1.126-5.144-1.684l-.185-.06.593-7.618 16.908 1.078-.775 9.952a34.013 34.013 0 0 1-11.397-1.668z" class="cls-12" transform="translate(11.1 15.643)"/>
        <path id="Path_1525" d="M87.129 185.09c1.408 3.652 4.327 7.406 7.475 10.612a59.116 59.116 0 0 0 6.124 5.472 51.9 51.9 0 0 0 24.783 10.226c11.287 1.545 22.643-.572 30.919-6.456a22.224 22.224 0 0 0 2.141-2.141v-.011c5.357-6.021 8.608-15.431 10.074-25.962 3.343-23.97-2.587-53.768-14.332-62.719-14.069-14.149-34.674-16.77-51.661-9.879-33.186 13.56-30.828 51.968-15.523 80.858z" class="cls-14" transform="translate(6.024 2.408)"/>
        <path id="Path_1526" d="M92.3 185.937a59.116 59.116 0 0 0 6.124 5.472 51.9 51.9 0 0 0 24.783 10.222c7.155-5.781 7.074-16.461 4.453-22.311-4.132-9.226-13.5-13.336-22.872-10.28A17.608 17.608 0 0 0 92.3 185.937z" class="cls-18" transform="translate(8.33 12.173)"/>
        <path id="Path_1527" d="M148.409 193.147c5.357-6.021 8.608-15.431 10.074-25.962a19.417 19.417 0 0 0-10.7 11.379 18.512 18.512 0 0 0 .626 14.583z" class="cls-18" transform="translate(16.186 12.049)"/>
        <path id="Path_1528" d="M167.776 122.053a6.926 6.926 0 0 0-.885-1.8c-3.957-7.207-18.451-19.189-37.605-20.476-23.444-1.574-45.893 1.45-56.993 16.8C64.791 126.954 62.186 142.5 67 154.814s14.878 10.956 18.436 11.154c2.683.15 5.231-1.941 7.907-1.036a4 4 0 0 1 2.328 2.134.59.59 0 0 1 .443.517c.03.293.789.643 1.014.746a2.85 2.85 0 0 0 1.028.247c1.751.072 2.8-1.663 3.477-3.391 1.844-1.951 4.4-5.681 6.209-12.482 3.15-11.822 19.05-19.022 17.851-32.072a16.954 16.954 0 0 0-.614-3.344c1.15-1.339 3.377-2.31 7.691-.707 4.271 1.588 8.617 2.992 13 4.226a59.292 59.292 0 0 0 7 1.817c2.438.372 4.964.38 7.276 1.337 2.031.84 5.851 4.018 7.56 1.161a3.819 3.819 0 0 0 .17-3.068z" class="cls-5" transform="translate(4.316 2.24)"/>
        <path id="Path_1529" d="M95 172.717c-1.51 4.31-8.638 5.86-14.4 1.983s-9.946-15.6-5.671-21.972 14.452-3.539 18.324 4.05c2.927 5.73 2.927 12.58 1.747 15.939z" class="cls-14" transform="translate(5.563 9.447)"/>
        <path id="Path_1530" d="M78.2 156.117a.425.425 0 0 1 .189-.709c1.363-.334 2.881.512 4.016 1.187a13.864 13.864 0 0 1 3.362 2.774 12.193 12.193 0 0 1 3.149 8.066c-.013.551-.881.71-1 .135a15.168 15.168 0 0 0-3.351-7.144c-.245-.272-.523-.509-.789-.76-.108.133-.235.255-.343.379-.2.224-.4.443-.591.669a12.012 12.012 0 0 0-1.049 1.469c-.643 1.039-1.034 2.216-1.756 3.206-.135.183-.517.212-.561-.073a5.747 5.747 0 0 1 1.116-3.826 11.827 11.827 0 0 1 1.242-1.63 6.528 6.528 0 0 1 .706-.695c.116-.1.232-.192.353-.278a12.333 12.333 0 0 0-1.3-.919c-1.084-.647-2.488-.976-3.393-1.851z" class="cls-2" transform="translate(6.271 10.333)"/>
        <path id="Path_1531" d="M153.68 142.06a8.594 8.594 0 0 0-3.044-1.411 6.888 6.888 0 0 0-3.1-.058 4.112 4.112 0 0 0-2.8 1.645c-.208.357.024.854.356.849a5.119 5.119 0 0 0 1.3-.325 8.04 8.04 0 0 1 1.329-.259 7.389 7.389 0 0 1 2.767.213 8.036 8.036 0 0 1 2.569 1.251c.748.532 1.592 1.591 2.446 1.627.225.009.351-.3.342-.561-.045-1.323-1.384-2.4-2.165-2.971z" class="cls-5" transform="translate(15.907 8.178)"/>
        <path id="Path_1532" d="M137.982 172.729c-3.921-.656-5.425-3.963-8.727-1.624-2.632 1.862-.924 7.371 7.1 8.511 7.789 1.106 9.32-4.306 7.893-6.12s-2.318-.107-6.266-.767z" class="cls-19" transform="translate(13.512 12.496)"/>
        <path id="Path_1533" d="M129.693 173.039a9.582 9.582 0 0 1 5.839 2.726 4.807 4.807 0 0 1 1.716 3.538c-.293-.024-.579-.041-.893-.086-5.559-.79-8.082-3.673-8.236-5.991a4.257 4.257 0 0 1 1.574-.187z" class="cls-18" transform="translate(13.514 12.894)"/>
        <path id="Path_1534" d="M117.072 145.751a12.084 12.084 0 0 1 3.713-2.3 10.621 10.621 0 0 1 4.095-.768c1.322.035 3.035.183 4.09 1.25a.624.624 0 0 1-.278 1.051 7.847 7.847 0 0 1-1.8-.078 12.4 12.4 0 0 0-1.821 0 11.08 11.08 0 0 0-6.736 2.88c-.87.777-1.748 2.18-2.873 2.413-.3.062-.533-.266-.579-.563-.24-1.523 1.286-3.057 2.189-3.885z" class="cls-5" transform="translate(11.595 8.502)"/>
        <path id="Path_1535" d="M123.5 158.089a4.11 4.11 0 0 0-3.712-.264 8.167 8.167 0 0 0-3.078 2.635 6.182 6.182 0 0 0-1.564 3.519c-.038.571.83.8 1.008.222a8.237 8.237 0 0 1 1.636-2.632 8.088 8.088 0 0 1 2.225-2.071 2.61 2.61 0 0 1 2.512-.1 2.8 2.8 0 0 1 .893.746 5.948 5.948 0 0 1 .6 1.218.759.759 0 0 0 1.429-.262 3.663 3.663 0 0 0-1.949-3.011z" class="cls-11" transform="translate(11.636 10.647)"/>
        <path id="Path_1536" d="M152.67 155.128a2.972 2.972 0 0 0-2.713-1.368 4.908 4.908 0 0 0-2.882 2.009 6.911 6.911 0 0 0-.907 1.409 3.755 3.755 0 0 0-.473 1.664.37.37 0 0 0 .667.24 13.863 13.863 0 0 0 .713-1.194 11.233 11.233 0 0 1 .749-1.073 7.629 7.629 0 0 1 .955-.978 3.172 3.172 0 0 1 1.142-.736 1.647 1.647 0 0 1 1.724.872 4.432 4.432 0 0 1 .493 1.355 1.894 1.894 0 0 0 .674 1.289.234.234 0 0 0 .283-.016 1.19 1.19 0 0 0 .359-.733 3.226 3.226 0 0 0-.086-1.014 4.87 4.87 0 0 0-.698-1.726z" class="cls-11" transform="translate(16.057 10.103)"/>
        <path id="Path_1537" d="M139.258 171.042c1.057-.215 2.091-.52 3.149-.729.487-.1.975-.174 1.464-.26.342-.061.9-.093 1.109-.422.42-.657-.43-2.113-.65-2.732q-.517-1.449-.958-2.925a60.885 60.885 0 0 1-1.461-5.974 19.046 19.046 0 0 1-.577-5.942c.052-.366.566-.285.664 0a21.432 21.432 0 0 1 .638 3.394c.191 1.144.393 2.286.631 3.42a60.229 60.229 0 0 0 1.818 6.714 27.26 27.26 0 0 1 1.049 3.055 1.889 1.889 0 0 1-.632 2.042 6.233 6.233 0 0 1-2.691.592c-1.158.14-2.323.158-3.482.279-.292.028-.356-.454-.071-.512z" class="cls-2" transform="translate(15.099 9.823)"/>
        <circle id="Ellipse_22" cx="3.124" cy="3.124" r="3.124" class="cls-4" transform="translate(86.899 183.241)"/>
        <path id="Path_1538" d="M117.242 129.434c-2.016 4.11-4.633 7.9-6.635 12.022-5.06 10.407-5.951 22.454-4.491 33.932s5.15 22.542 8.913 33.484c1.479 4.3 2.909 9.292.514 13.156-2.438 3.934-7.958 4.847-12.426 3.638s-8.3-4.024-12.4-6.171-8.989-3.647-13.318-2.007a8.072 8.072 0 0 1 8.311-11.809c2.217.334 4.194 1.568 6.357 2.166s4.9.313 6.038-1.62c1.337-2.268-.313-5.033-1.473-7.4-2.642-5.381-2.738-11.614-2.707-17.609.056-10.855.365-21.8 2.818-32.375 2.061-8.882 5.72-17.568 11.572-24.634 1.821-2.2 6.7-8.509 10.061-6.538 3.707 2.173.124 9.197-1.134 11.765z" class="cls-5" transform="translate(6.039 4.828)"/>
        <path id="Path_1539" d="M167.328 231.142c19.972-5.1 26.45-27.478 39.013-54.583l15.682 6.67s-3.835 64.087-51.991 76.958c-17.844 4.769-86.5-15.7-93.877-26.283s-4.769-27.754 11.293-26.118 59.907 28.46 79.88 23.356z" class="cls-14" transform="translate(5.425 13.405)"/>
        <path id="Path_1540" d="M209.392 183.181c4.478-7.535 7.832-20.553 8.2-27.473.474-7.334-1.022-8.294-2.175-3.278-1.156 4.759-2.28 10.158-3.021 9.941-.387-.1 1.083-3.849 1.335-9.434.29-6.469-.405-11.419-2.1-10.8-1.531.643-2.557 13.516-3.97 17.486-.5 4.086.835-10.917-.96-16.337-1.43-6.056-4.151-6.364-3.62.963.242 7.418-.488 13-1.41 14.67-.6-1.687-.235-3.829-1.517-12-1.354-6.009-4.066-5.366-3.912.345.28 6.9.291 17.454-1.939 17.924-1.537-.378-.907-3.108-4.094-8.2-3.352-4.952-1.83 2.5-1.474 8.347.592 6.138 1.113 13.153-.217 17.507-1.92 6.288 1.741 10.47 7.632 11.455s9.359-4.323 13.242-11.116z" class="cls-14" transform="translate(22.18 7.932)"/>
        <path id="Path_1541" d="M104.441 210.115c3.431 1.172 6.805 2.486 10.175 3.8L124.7 217.9c3.355 1.337 6.728 2.621 10.109 3.884q2.536.948 5.105 1.806c1.7.608 3.431 1.131 5.156 1.693a83.593 83.593 0 0 1-10.545-2.666c-3.467-1.073-6.869-2.336-10.245-3.654-3.365-1.344-6.708-2.742-10-4.238s-6.59-3.003-9.839-4.61z" class="cls-19" transform="translate(10.087 18.261)"/>
        <path id="Path_1542" d="M205.665 189.655c-1.3 2.05-8.094 2.9-14.616-1.117-4.949-3.047-5.661-7.217-4.918-9.589.664-2.115 2.044-1.909 2.473-1.177a.256.256 0 0 1 .013.14c-.535 1.663 1.1 4.57 4.78 6.929 3.757 2.412 9.154 3.593 11.744 2.863.743-.182 1.306.718.524 1.951z" class="cls-4" transform="translate(21.873 13.507)"/>
        <path id="Path_1543" d="M192.84 131.98a4.556 4.556 0 0 0-1.448-1.134c-.59-.364-1.182-.723-1.774-1.085-1.148-.7-2.3-1.394-3.458-2.089l-3.355-2.02a22.329 22.329 0 0 0-3.6-2.015.728.728 0 0 0-.736 1.234 21.553 21.553 0 0 0 3.384 2.129l3.486 2.043c1.126.661 2.251 1.327 3.382 1.978l1.8 1.038a4.832 4.832 0 0 0 1.8.793.557.557 0 0 0 .519-.872z" class="cls-9" transform="translate(20.763 5.739)"/>
        <path id="Path_1544" d="M195.818 118.685q-.843-1.7-1.706-3.385t-1.729-3.375c-.278-.543-.557-1.086-.839-1.627-.3-.572-.485-1.186-1.211-1.258a.707.707 0 0 0-.72.4c-.357.639.1 1.2.39 1.771.279.543.563 1.083.846 1.624l1.762 3.361c.587 1.122 1.186 2.237 1.787 3.352a12.224 12.224 0 0 0 1.956 3.183.614.614 0 0 0 .98-.551 12.548 12.548 0 0 0-1.516-3.495z" class="cls-9" transform="translate(22.394 3.633)"/>
        <path id="Path_1545" d="M209.16 101.009c-.176-.631-1.09-.525-1.328-.014a5.075 5.075 0 0 0-.314 1.8l-.149 1.915c-.093 1.186-.19 2.371-.274 3.558s-.181 2.373-.246 3.561a15.668 15.668 0 0 0 .057 3.727c.074.4.694.574.854.126.815-2.276.783-4.911 1-7.3.111-1.229.206-2.46.308-3.691a10.917 10.917 0 0 0 .092-3.682z" class="cls-9" transform="translate(24.896 2.408)"/>
        <path id="Path_1546" d="M228.245 108.97a2.944 2.944 0 0 0-.888 1.272q-.367.7-.736 1.39l-1.472 2.779q-.735 1.388-1.449 2.789a21.921 21.921 0 0 0-1.308 2.849c-.2.59.555 1.125.974.583a21.875 21.875 0 0 0 1.634-2.651q.8-1.417 1.571-2.843l1.5-2.768.747-1.385a2.882 2.882 0 0 0 .546-1.537.711.711 0 0 0-1.119-.478z" class="cls-9" transform="translate(27.152 3.607)"/>
    </g>
</svg>
