<svg xmlns="http://www.w3.org/2000/svg" width="614.934" height="449.432" viewBox="0 0 614.934 449.432">
    <defs>
        <style>
            .cls-1{fill:#008cd6}.cls-2,.cls-6{fill:#7bd9db}.cls-3{fill:#51aed1}.cls-4{fill:#ff9001}.cls-5{fill:#edbb2c}.cls-6{opacity:.5}.cls-14,.cls-6,.cls-7{mix-blend-mode:screen}.cls-10,.cls-14,.cls-6,.cls-7{isolation:isolate}.cls-7{fill:#ff7983;opacity:.8}.cls-10{opacity:.4;mix-blend-mode:multiply}.cls-10,.cls-9{fill:#66323f}.cls-11{fill:#035c8b}.cls-14{fill:#4800a2}.cls-15{fill:#e35165}.cls-16{fill:#fff}.cls-19{fill:#bf3954}
        </style>
    </defs>
    <g id="gift" transform="translate(-528.924 -328.968)">
        <g id="Group_98" transform="translate(442.173 336.064)">
            <ellipse id="Ellipse_8" cx="232.105" cy="12.923" class="cls-1" rx="232.105" ry="12.923" transform="translate(213.616 416.489)"/>
            <g id="Group_97" transform="translate(232.466 154.676)">
                <g id="Group_47" transform="translate(0 123.814)">
                    <path id="Path_416" d="M338.41 449.192l-8.112.2-5.753.141-12.02.3-6.016.148-12.38.3-6.406.157-12.857.316-7.109.177-2.912.071-1.565-5.826-1.1-4.088-2.18-8.098-1.132-4.215-2.306-8.588-.3-1.136-.853-3.177L253 406.93l-1.181-4.4-.455-1.7-1.471-5.478-.546-2.032-1.2-4.459-4.186-15.58-2.153-8.015a230.966 230.966 0 0 1 35.474-9.794c.714-.144 1.436-.283 2.165-.422q1.86-.356 3.784-.691c3.861-.675 7.909-1.292 12.11-1.816q2.692-.336 5.465-.618 3.522-.358 7.16-.614 2.008-.139 4.044-.245 2.52-.127 5.078-.2c3.437-.093 6.927-.1 10.451-.009q2.366.057 4.752.182 4.87.249 9.8.776 2.226.242 4.456.545 3.078.416 6.159.959l-.9 6.041-.519 3.475-.723 4.852-.782 5.248-1.8 12.07-.894 5.982-.288 1.938-2.453 16.435-.169 1.144-.949 6.358-2.3 15.417-1.05 7.036z" class="cls-2" transform="translate(-235.813 -301.768)"/>
                    <path id="Path_417" d="M351.583 364.2l-1.507 10.1c-22.6-.255-76.436 5.211-99.889 22.411l-5.929-22.072c18.142-3.781 88.262-17.658 107.325-10.439z" class="cls-3" transform="translate(-236.103 -303.115)"/>
                    <path id="Path_418" d="M348.379 396.42l-2.913 19.517c-18.07.731-61.539 2.99-87.919 8.528l-4.891-18.211c17.423-2.965 57.812-9.139 95.723-9.834z" class="cls-4" transform="translate(-237.1 -307.182)"/>
                    <g id="Group_43" transform="translate(42.548 44.436)">
                        <path id="Path_419" d="M316.237 449.239l-14.992.368c-3.717-26.337-7.953-50.337-11.632-69.387q-.793-4.11-1.547-7.9-.182-.9-.36-1.791c-1.219-6.077-2.343-11.48-3.329-16.089q-.578-2.721-1.093-5.064a201.43 201.43 0 0 1 29.818-3.79c-.085 1.6-.152 3.308-.205 5.115-.156 5.31-.175 11.451-.1 18.057.026 2.165.063 4.38.109 6.632v.052c.542 26.658 2.373 58.441 3.331 73.797z" class="cls-5" transform="translate(-283.283 -345.585)"/>
                        <path id="Path_420" d="M313.362 367.7l.143 10.363c-9.73 1.3-23.1 4.729-23.3 4.779q-.982-5.091-1.906-9.692z" class="cls-4" transform="translate(-283.878 -348.21)"/>
                    </g>
                    <path id="Path_421" d="M355.377 349.956l-2.222 19.933c-15.117-2.669-31.1-2.589-46.086-1.165-8.7.824-17.073 2.1-24.735 3.561a288.705 288.705 0 0 0-40.054 10.495l-7.275-20.154a221.774 221.774 0 0 1 42.548-13.284 201.431 201.431 0 0 1 29.818-3.79c29.548-1.494 48.006 4.404 48.006 4.404z" class="cls-2" transform="translate(-235.005 -301.116)"/>
                    <path id="Path_422" d="M288.064 372.324l-4.781-22.944a144.107 144.107 0 0 1 29-3.746l.511 23.129z" class="cls-5" transform="translate(-240.735 -301.155)"/>
                    <path id="Path_423" d="M239.3 364.932s32.006-14.691 60.509-13.452c0 0-43.123 6.939-54.1 17.074l-1.474 11.08z" class="cls-6" transform="translate(-235.515 -301.84)"/>
                    <g id="Group_46" transform="translate(1.599)">
                        <g id="Group_44" transform="translate(51.246)">
                            <path id="Path_424" d="M318.525 297.018c-.279.111-.553.23-.827.353-.235.107-.469.219-.7.338-.092.047-.183.1-.273.145-13.409 7.251-20.088 35.994-21.478 42.685-.185.9-.278 1.4-.278 1.4l3.812-.093-.084.043c-2.264 1.126-3.685 1.793-3.685 1.793l6.211.538s37.412-6.874 45.88-24.9c8.321-17.726-12.755-28.736-28.578-22.302zm7.22 28.244c-5.854 5.411-17.534 11.779-24.689 15.434-.515.263-1.006.511-1.469.745l.093-.213c.022-.051.044-.106.07-.162s.051-.118.081-.182l.131-.3.052-.114.165-.368.257-.568c.09-.2.186-.4.287-.617.235-.509.5-1.076.8-1.688.083-.174.169-.354.26-.537q.149-.309.309-.634c.081-.165.162-.331.248-.5.364-.73.755-1.5 1.177-2.313l.174-.336q.394-.754.82-1.543l.188-.345q.389-.715.8-1.451c.057-.107.119-.214.18-.321l.263-.467c.049-.085.1-.171.147-.256s.091-.16.137-.24l.18-.315c.954-1.643 1.983-3.33 3.078-5 .082-.122.162-.246.245-.37l.246-.37c.585-.873 1.188-1.738 1.8-2.588l.5-.683c.882-1.182 1.8-2.328 2.731-3.409l.281-.323c.164-.186.328-.368.492-.55l.362-.393c.094-.1.19-.2.287-.3l.288-.3q.728-.753 1.474-1.443.28-.26.562-.508 1.015-.895 2.048-1.643c.086-.063.171-.123.255-.181.166-.115.328-.227.492-.334.077-.052.151-.1.225-.147a.329.329 0 0 0 .036-.024l.285-.177.231-.139c.093-.056.189-.114.285-.167l.16-.089c.082-.048.165-.093.247-.136a15.1 15.1 0 0 1 1.8-.821c.054-.02.108-.041.161-.058.069-.026.138-.049.207-.072.117-.04.234-.078.35-.114.093-.029.182-.055.275-.08s.208-.057.314-.083.187-.046.279-.065c.077-.018.156-.035.233-.048.039-.009.076-.016.114-.022.1-.02.209-.038.313-.055a9.544 9.544 0 0 1 1.905-.107c3.382.155 5.577 1.791 5.543 4.719-.02 3.086-2.539 7.618-8.765 13.372z" class="cls-5" transform="translate(-294.967 -295.164)"/>
                            <path id="Path_425" d="M338.591 297.834s9.714-.079 13.083 11-14.624 23.995-19.6 25.513c0 0 17.48-11.85 16.69-22.524-.878-11.894-10.173-13.989-10.173-13.989z" class="cls-7" transform="translate(-299.371 -295.481)"/>
                            <path id="Path_426" d="M334.525 312.136c.034-2.928-2.161-4.563-5.543-4.719a9.542 9.542 0 0 0-1.905.107c-.1.017-.208.034-.313.055-.038.006-.075.013-.114.022-.077.013-.156.031-.233.048-.093.019-.187.043-.279.065s-.21.053-.314.083-.182.051-.275.08c-.115.036-.233.074-.35.114-.07.023-.138.046-.207.072l-.161.058a15.09 15.09 0 0 0-1.8.821c-.082.043-.165.087-.247.136l-.16.089c-.1.053-.191.11-.285.167l-.231.139c-.1.058-.189.116-.285.177a.329.329 0 0 1-.036.024c-.074.047-.148.1-.225.147-.164.107-.326.219-.492.334-.084.058-.169.118-.255.181q-1.034.746-2.048 1.643-.282.247-.562.508-.746.689-1.474 1.443c-.1.1-.192.2-.288.3s-.193.2-.287.3l-.362.393c-.164.182-.328.364-.492.55l-.281.323c-.936 1.081-1.849 2.227-2.731 3.409-.168.225-.338.454-.5.683-.616.85-1.219 1.715-1.8 2.588l-.246.37c-.083.124-.163.249-.245.37-1.095 1.67-2.124 3.357-3.078 5l-.18.315c-.047.08-.093.159-.137.24s-.1.171-.147.256l-.263.467c-.061.107-.123.214-.18.321q-.412.736-.8 1.451l-.188.345q-.424.789-.82 1.543l-.174.336c-.422.808-.813 1.583-1.177 2.313-.086.168-.167.335-.248.5q-.16.324-.309.634l-.26.537c-.3.612-.562 1.178-.8 1.688l-.287.617c-.092.196-.176.39-.257.568-.058.13-.112.253-.165.368l-.052.114-.131.3c-.03.064-.056.123-.081.182l-.165.377a1.98 1.98 0 0 1-.808.4l-3.812.093s.093-.5.278-1.4c1.391-6.692 8.069-35.435 21.478-42.685.09-.048.182-.1.273-.144.234-.12.467-.232.7-.339.274-.123.548-.242.827-.353 15.546.232 16.164 11.462 15.989 14.876z" class="cls-4" transform="translate(-294.967 -295.414)"/>
                        </g>
                        <g id="Group_45" transform="translate(0 1.552)">
                            <path id="Path_427" d="M239.1 322.007c9.343 17.592 47.047 22.621 47.047 22.621l6.178-.842s-1.452-.6-3.768-1.61l-.086-.039 3.813-.093s-.117-.5-.346-1.383c-1.718-6.615-9.8-35-23.549-41.579-.092-.044-.186-.088-.28-.13-.239-.108-.478-.209-.718-.3-.279-.109-.56-.215-.843-.312-16.125-5.655-36.635 6.377-27.448 23.667zm12.2-8.037c-.176-2.922 1.935-4.664 5.306-4.985a9.521 9.521 0 0 1 1.908.013c.1.011.21.024.315.039l.115.016c.078.01.158.024.235.037.093.015.189.034.282.051s.212.043.318.068.185.042.279.067c.117.03.235.062.355.1.07.019.14.039.211.063.055.014.109.032.164.05a15.059 15.059 0 0 1 1.843.731c.084.039.168.078.253.123.055.026.109.054.164.081.1.048.2.1.293.152l.238.128c.1.054.194.107.293.164l.037.022c.077.042.153.087.232.136.169.1.337.2.508.309.086.054.175.109.263.167.713.463 1.421.978 2.127 1.541q.294.234.587.479.777.652 1.542 1.368c.1.094.2.191.3.287l.3.291.381.375q.259.26.519.525l.3.309c.988 1.034 1.956 2.134 2.9 3.271.179.217.359.437.537.657.657.819 1.3 1.653 1.929 2.5l.264.358c.088.12.174.24.263.358 1.175 1.614 2.286 3.249 3.319 4.843l.2.3c.05.078.1.154.149.233s.107.166.159.248c.1.152.192.3.286.454.066.1.133.208.2.311q.448.715.872 1.41c.069.113.137.223.2.336q.464.768.9 1.5l.189.327c.462.786.891 1.541 1.289 2.252.093.165.182.327.271.487.118.211.232.417.341.617.1.178.195.354.286.524.325.6.62 1.149.88 1.646.112.21.216.411.317.6s.195.381.285.555l.183.36c.018.038.039.074.057.111l.146.293c.033.063.061.121.09.178l.078.159c.039.077.073.148.1.209-.474-.211-.977-.435-1.5-.672-7.326-3.3-19.3-9.085-25.418-14.2-6.522-5.443-9.261-9.847-9.447-12.932z" class="cls-5" transform="translate(-236.82 -296.926)"/>
                            <path id="Path_428" d="M249.873 301.2s-9.587 1.568-11.031 13.055 18.477 21.171 23.639 21.824c0 0-19.235-8.718-20.265-19.371-1.148-11.864 7.657-15.508 7.657-15.508z" class="cls-7" transform="translate(-237.051 -297.433)"/>
                            <path id="Path_429" d="M253.231 314.16c-.176-2.922 1.934-4.664 5.305-4.985a9.523 9.523 0 0 1 1.908.013c.1.011.21.024.315.039l.115.016c.078.01.158.024.235.037.093.015.189.034.282.051s.212.043.318.068.185.042.278.067c.117.03.235.062.355.1.07.019.14.039.211.063.055.016.109.032.164.05a15.043 15.043 0 0 1 1.843.732c.084.039.168.078.253.123.055.026.109.054.164.081.1.048.2.1.293.152.078.043.157.086.238.128.1.054.194.108.293.164l.037.022c.077.042.153.087.232.136.169.1.337.2.508.309.086.054.175.109.263.167q1.07.694 2.127 1.54.294.234.587.479.777.652 1.542 1.368c.1.094.2.191.3.287l.3.291.381.375c.173.174.346.348.519.525l.3.308c.988 1.034 1.957 2.134 2.9 3.271.179.217.359.437.537.657.657.819 1.3 1.653 1.929 2.5l.264.358c.088.12.175.24.263.358 1.175 1.614 2.286 3.249 3.319 4.843l.2.3c.05.078.1.154.149.233s.107.166.159.248c.1.153.192.3.286.454.066.1.133.208.2.311q.448.715.872 1.41c.069.113.137.223.2.336q.464.768.9 1.5l.189.327c.462.786.891 1.541 1.289 2.252.093.165.182.327.271.487.118.211.232.417.341.617l.286.524c.325.6.62 1.149.88 1.646.112.21.216.411.317.6s.195.381.285.555c.065.126.124.247.183.36.018.038.039.074.057.111l.146.293c.033.063.061.121.09.178l.183.369a1.988 1.988 0 0 0 .826.363l3.813-.093s-.117-.5-.346-1.383c-1.718-6.615-9.8-35-23.549-41.579-.092-.044-.186-.088-.28-.13-.239-.108-.478-.209-.718-.3-.279-.109-.56-.215-.843-.312-15.54.983-15.603 12.229-15.264 15.63z" class="cls-4" transform="translate(-238.758 -297.115)"/>
                        </g>
                    </g>
                </g>
                <g id="Group_63" transform="translate(74.48 76.911)">
                    <path id="Path_430" d="M455.8 449.829h-68.258l-17.314-.005h-13.5l-1.911-7.893-1.341-5.54-2.657-10.991-1.382-5.712-2.818-11.636-.373-1.539-1.042-4.3-2.932-12.116-1.443-5.954-.556-2.3-1.8-7.422-.665-2.753-1.464-6.043-5.113-21.107-2.63-10.859s19.341-7.016 48.071-11.995q1.448-.254 2.929-.5 2.514-.415 5.116-.8c5.22-.778 10.688-1.474 16.36-2.038q3.633-.362 7.375-.649 4.753-.365 9.657-.587 2.707-.12 5.452-.195 3.393-.086 6.84-.094 6.944-.016 14.066.338 3.182.156 6.389.4 6.546.5 13.163 1.371 2.988.4 5.979.882 4.129.664 8.257 1.5l-1.416 8.1-.814 4.659-1.135 6.507-1.229 7.036-2.828 16.185-1.4 8.021-.452 2.6-3.851 22.037-.266 1.533-1.489 8.524-3.613 20.672-1.648 9.434z" class="cls-1" transform="translate(-320.595 -250.829)"/>
                    <g id="Group_58" transform="translate(15.754 65.972)" style="mix-blend-mode:multiply;isolation:isolate" opacity="0.4">
                        <g id="Group_57">
                            <g id="Group_48" transform="translate(0 3.562)">
                                <path id="Path_431" d="M385.764 320.843q-1.518 1.8-3.075 3.621c-14.646 17.165-28.938 32.751-42.478 46.327q-.678.682-1.355 1.355l-1.464-6.043c15.026-15.127 28.984-30.707 40.328-43.961q1.448-.254 2.929-.5 2.514-.41 5.115-.799z" class="cls-9" transform="translate(-337.392 -320.843)"/>
                            </g>
                            <g id="Group_49" transform="translate(4.481 .876)">
                                <path id="Path_432" d="M410.1 317.795c-3.974 4.861-8.232 9.989-12.719 15.27-14.885 17.523-29.33 33.3-42.93 46.9q-5.351 5.349-10.534 10.25l-1.443-5.954c18.93-18.142 36.9-38.166 50.877-54.616 3.252-3.828 6.385-7.575 9.374-11.2q3.636-.364 7.375-.65z" class="cls-9" transform="translate(-342.477 -317.795)"/>
                            </g>
                            <g id="Group_50" transform="translate(8.856)">
                                <path id="Path_433" d="M432.641 316.8c-6.05 7.615-13 16.16-20.575 25.108-15.127 17.879-29.726 33.849-43.386 47.462q-10.262 10.231-19.824 18.682l-.373-1.539-1.042-4.3c22.214-19.961 44.091-44.219 60.588-63.716 6.431-7.6 12.415-14.911 17.772-21.6q3.393-.088 6.84-.097z" class="cls-9" transform="translate(-347.441 -316.801)"/>
                            </g>
                            <g id="Group_51" transform="translate(13.088 .338)">
                                <path id="Path_434" d="M453.665 317.589c-7.4 9.531-16.625 21.091-26.936 33.328-15.369 18.237-30.12 34.4-43.843 48.029a384.837 384.837 0 0 1-29.261 26.5l-1.382-5.712c20.519-16.88 44.481-41.419 70.441-72.226 9.26-10.989 17.636-21.426 24.593-30.323q3.181.156 6.388.404z" class="cls-9" transform="translate(-352.243 -317.185)"/>
                            </g>
                            <g id="Group_52" transform="translate(17.127 2.114)">
                                <path id="Path_435" d="M473.351 320.082c-8.175 10.726-19.3 24.916-31.988 40.035-15.609 18.6-30.513 34.944-44.3 48.6-14.186 14.053-27.233 25.278-38.9 33.477l-1.341-5.54c22.25-16.054 49.826-43.414 80.463-79.9 11.747-14 22.143-27.188 30.084-37.549q2.991.395 5.982.877z" class="cls-9" transform="translate(-356.826 -319.2)"/>
                            </g>
                            <g id="Group_53" transform="translate(24.303 12.594)">
                                <path id="Path_436" d="M479.209 342.257c-6.679 8.557-14.405 18.211-22.785 28.232-15.85 18.951-30.907 35.492-44.753 49.163-13.565 13.4-26.008 24.067-37.127 31.845h-9.575c22.938-14.276 53.079-43.372 87.371-84.371 11.059-13.217 20.97-25.8 28.82-36.038l-.814 4.659z" class="cls-9" transform="translate(-364.968 -331.091)"/>
                            </g>
                            <g id="Group_54" transform="translate(51.192 46.986)">
                                <path id="Path_437" d="M476.916 380.734q-1.38 1.666-2.782 3.351c-16.09 19.31-31.3 36.042-45.207 49.732a332.7 332.7 0 0 1-24.822 22.324h-8.627c20.666-15.557 46.081-41.225 74.569-75.407 2.993-3.591 5.908-7.141 8.725-10.615l-1.4 8.021z" class="cls-9" transform="translate(-395.478 -370.115)"/>
                            </g>
                            <g id="Group_55" transform="translate(76.49 79.645)">
                                <path id="Path_438" d="M474.716 417.23c-10.089 11.432-19.71 21.646-28.742 30.516q-7.08 6.948-13.687 12.8h-8.1c15.359-13.035 32.972-31 52.288-53.37l-.266 1.534z" class="cls-9" transform="translate(-424.183 -407.172)"/>
                            </g>
                            <g id="Group_56" transform="translate(100.78 110.376)">
                                <path id="Path_439" d="M472.725 451.476q-5.033 5.228-9.844 9.936-1.708 1.674-3.389 3.278h-7.749q10.688-9.9 22.629-22.645z" class="cls-9" transform="translate(-451.744 -442.042)"/>
                            </g>
                        </g>
                    </g>
                    <path id="Path_440" d="M476.383 335.923l-2.366 13.546c-30.4-1.1-96.1 2.553-135.184 26.82l-7.243-29.9c24.54-4.482 119.379-20.813 144.793-10.466z" class="cls-10" transform="translate(-320.949 -252.698)"/>
                    <path id="Path_441" d="M471 379.215l-4.572 26.169c-24.344.379-82.923 1.966-118.611 8.536l-5.974-24.673c23.552-3.406 78.116-10.364 129.157-10.032z" class="cls-11" transform="translate(-322.166 -258.236)"/>
                    <g id="Group_59" transform="translate(57.708 59.382)">
                        <path id="Path_442" d="M426.007 448.931l-20.189-.005c-4.123-35.571-9.02-68.013-13.335-93.775q-.929-5.558-1.816-10.684l-.425-2.422c-1.437-8.221-2.77-15.53-3.941-21.766q-.687-3.68-1.3-6.852a271.042 271.042 0 0 1 40.258-4.1c-.167 2.149-.316 4.448-.448 6.878-.388 7.14-.62 15.405-.734 24.3-.038 2.915-.062 5.9-.076 8.929v.071c-.171 35.887 1.229 78.728 2.006 99.426z" class="cls-11" transform="translate(-384.996 -309.324)"/>
                        <path id="Path_443" fill="#073a56" d="M424.857 339.078l-.154 13.953c-13.138 1.425-31.253 5.591-31.514 5.651q-1.151-6.884-2.241-13.106z" transform="translate(-385.702 -312.855)"/>
                    </g>
                    <path id="Path_444" d="M481.944 316.845l-3.657 26.755c-20.256-4.1-41.773-4.525-61.986-3.11-11.743.818-23.048 2.26-33.409 3.967a388.753 388.753 0 0 0-54.259 12.783l-9.117-27.366a298.585 298.585 0 0 1 57.708-16.456 271.029 271.029 0 0 1 40.258-4.1c39.818-1.03 64.462 7.527 64.462 7.527z" class="cls-1" transform="translate(-319.516 -249.93)"/>
                    <path id="Path_445" d="M390.664 344.47L385 313.431a193.964 193.964 0 0 1 39.162-4.072l-.085 31.145z" class="cls-11" transform="translate(-327.288 -249.946)"/>
                    <path id="Path_446" d="M325.235 333.012s43.567-18.7 81.887-16.08c0 0-58.27 7.9-73.384 21.168l-2.356 14.862z" transform="translate(-320.195 -250.815)" style="isolation:isolate;mix-blend-mode:screen" fill="#4800a2" opacity="0.5"/>
                    <g id="Group_62" transform="translate(3.594)">
                        <g id="Group_60" transform="translate(68.021 .024)">
                            <path id="Path_447" d="M433.985 244.155c-.378.141-.751.292-1.124.448-.321.136-.639.279-.957.433-.125.06-.25.122-.373.185-18.289 9.31-28.239 47.771-30.335 56.731-.279 1.2-.42 1.871-.42 1.871h5.134l-.115.055c-3.085 1.441-5.02 2.291-5.02 2.291l8.343.931s50.58-8 62.58-31.983c11.794-23.57-16.198-39.093-37.713-30.962zm8.773 38.254c-8.06 7.087-23.993 15.266-33.744 19.946-.7.336-1.371.654-2 .954l.133-.285c.031-.068.062-.14.1-.216s.073-.157.115-.242q.09-.188.188-.4c.024-.049.05-.1.073-.151l.235-.49.365-.756c.128-.266.263-.535.407-.821.334-.678.712-1.431 1.129-2.245.118-.232.241-.471.368-.714q.212-.411.438-.842c.115-.219.229-.441.35-.665.514-.969 1.066-2 1.661-3.073l.245-.446q.555-1 1.155-2.048c.086-.154.175-.306.263-.459q.549-.951 1.127-1.927c.081-.14.167-.284.253-.425l.37-.62c.068-.112.136-.227.206-.338s.128-.212.193-.318l.253-.418c1.338-2.179 2.781-4.415 4.309-6.626.115-.161.227-.326.342-.49l.345-.49c.816-1.155 1.656-2.3 2.514-3.422.232-.3.466-.6.7-.9 1.225-1.561 2.493-3.073 3.789-4.5.13-.144.258-.285.389-.425.227-.245.454-.486.681-.725l.5-.516c.13-.136.264-.269.4-.4s.265-.265.4-.4q1.006-.989 2.031-1.892.387-.341.775-.664 1.4-1.17 2.811-2.142c.117-.081.234-.16.349-.234.227-.149.449-.294.673-.433.1-.068.205-.13.308-.19l.049-.031c.13-.078.258-.154.389-.23l.316-.18c.128-.072.258-.145.389-.213.073-.039.145-.078.219-.115.113-.063.225-.12.337-.174a20.208 20.208 0 0 1 2.456-1.045c.073-.026.146-.052.219-.072.094-.034.189-.063.282-.092.159-.049.318-.1.474-.141.125-.036.249-.067.374-.1s.281-.07.425-.1c.125-.026.253-.055.378-.078.1-.02.211-.041.316-.057.052-.011.1-.018.153-.026.141-.024.282-.044.422-.063a12.856 12.856 0 0 1 2.568-.08c4.547.322 7.445 2.6 7.3 6.536-.152 4.158-3.694 10.175-12.266 17.709z" class="cls-1" transform="translate(-400.775 -241.972)"/>
                            <path id="Path_448" d="M455.021 264.994c.142-3.939-2.757-6.214-7.3-6.536a12.854 12.854 0 0 0-2.568.08c-.14.018-.281.039-.422.063-.052.008-.1.015-.153.026-.1.016-.211.037-.315.057-.125.024-.253.052-.378.078-.144.031-.285.065-.425.1s-.249.063-.374.1c-.156.045-.316.092-.474.141-.093.029-.188.057-.282.092l-.219.072a20.21 20.21 0 0 0-2.456 1.045c-.112.055-.224.112-.337.174-.073.036-.145.076-.219.115-.13.068-.261.141-.389.213l-.316.18-.389.23-.049.031c-.1.06-.2.122-.308.19-.225.138-.446.284-.673.433-.115.075-.232.153-.349.234q-1.416.969-2.811 2.142-.387.324-.775.664-1.024.9-2.031 1.892l-.4.4-.4.4-.5.516c-.227.24-.454.48-.681.725-.13.14-.258.281-.389.425-1.3 1.422-2.564 2.935-3.789 4.5-.235.3-.47.6-.7.9-.858 1.123-1.7 2.268-2.514 3.422l-.345.49c-.115.164-.227.329-.342.49-1.528 2.21-2.971 4.447-4.309 6.626l-.253.418c-.065.107-.13.211-.193.318s-.138.226-.206.338l-.37.62c-.086.141-.172.285-.253.425q-.579.978-1.127 1.927c-.088.153-.177.3-.263.459q-.6 1.047-1.155 2.048l-.245.446c-.595 1.074-1.147 2.1-1.661 3.073-.121.225-.235.446-.35.665q-.227.43-.438.842l-.368.714c-.417.813-.795 1.567-1.129 2.245-.144.286-.277.56-.407.821s-.25.518-.365.756c-.084.172-.16.336-.235.49-.023.052-.049.1-.073.151l-.188.4-.115.242c-.037.078-.2.435-.234.5a2.663 2.663 0 0 1-1.1.516h-5.134s.141-.67.42-1.871c2.1-8.96 12.046-47.421 30.335-56.731.123-.063.248-.125.373-.185.318-.153.636-.3.957-.433.373-.156.746-.307 1.124-.448 20.927.821 21.379 15.955 21.034 20.544z" class="cls-11" transform="translate(-400.775 -242.266)"/>
                        </g>
                        <g id="Group_61">
                            <path id="Path_449" d="M326.383 275.075c11.987 23.989 62.562 32.018 62.562 32.018l8.343-.925s-1.934-.85-5.017-2.293l-.115-.055h5.134s-.14-.67-.419-1.872c-2.091-8.961-12.018-47.427-30.3-56.748-.123-.063-.248-.125-.374-.185q-.476-.231-.956-.433c-.373-.157-.746-.308-1.124-.449-21.509-8.141-49.517 7.367-37.734 30.942zm16.683-10.407c-.139-3.939 2.76-6.212 7.308-6.531a12.853 12.853 0 0 1 2.567.081c.141.019.282.04.423.063l.153.026c.1.016.212.036.316.057.125.024.253.052.378.078.144.031.284.065.425.1.125.031.248.063.373.1.157.044.315.092.475.141.093.028.188.057.281.092.073.02.146.047.219.072a20.3 20.3 0 0 1 2.455 1.047c.112.055.224.112.336.175.073.036.146.076.219.115.13.068.261.141.389.214.1.06.208.12.315.18l.389.229.049.032c.1.06.2.122.308.19.225.138.446.284.672.433.115.076.233.154.35.235.943.646 1.879 1.363 2.81 2.143q.387.325.774.665 1.025.9 2.031 1.893c.133.13.266.264.4.4s.265.266.4.4l.5.516c.227.24.454.479.68.724l.389.425c1.295 1.424 2.562 2.936 3.786 4.5.235.3.47.6.7.9.858 1.125 1.7 2.269 2.513 3.424l.344.491c.115.165.226.328.341.49 1.527 2.211 2.968 4.449 4.305 6.628l.253.418c.065.107.13.211.193.318s.138.227.205.338l.37.62c.086.141.172.285.253.426q.579.977 1.125 1.927c.089.154.177.3.264.459q.6 1.048 1.155 2.049l.245.446c.594 1.074 1.147 2.1 1.66 3.075.12.224.234.446.349.664q.227.431.438.843c.128.242.25.482.367.714.417.814.795 1.568 1.128 2.246.144.286.277.561.406.821s.25.519.365.756c.084.172.162.337.234.49.024.052.05.1.073.152q.1.21.188.4l.115.243.1.216c.05.1.094.2.133.285-.631-.3-1.3-.619-2-.955-9.75-4.685-25.677-12.873-33.734-19.964-8.571-7.539-12.109-13.557-12.257-17.715z" class="cls-1" transform="translate(-323.594 -241.944)"/>
                            <path id="Path_450" d="M345.681 264.963c-.139-3.939 2.76-6.212 7.308-6.531a12.85 12.85 0 0 1 2.567.081c.141.018.282.04.423.063l.153.026c.1.016.211.036.315.057.125.024.253.052.378.078.144.031.284.065.425.1.125.031.248.063.373.1.157.044.316.092.475.141.093.028.188.057.281.092l.219.072a20.3 20.3 0 0 1 2.455 1.047c.112.055.224.112.336.175.073.036.146.076.219.115.13.068.261.141.389.214.1.06.208.12.315.18l.389.229.049.032c.1.06.2.122.308.19.225.138.446.284.672.433.115.076.233.154.35.235.943.646 1.879 1.363 2.81 2.143q.387.325.774.665 1.025.9 2.031 1.893c.133.13.266.264.4.4s.265.266.4.4l.5.516c.227.24.454.479.68.724l.389.425c1.295 1.424 2.562 2.937 3.786 4.5.235.3.47.6.7.9.857 1.125 1.7 2.269 2.513 3.424l.344.491c.115.165.226.328.341.49 1.527 2.211 2.968 4.449 4.305 6.628l.253.418c.065.107.13.211.193.318s.138.226.205.338l.37.62c.086.141.172.285.253.426q.579.977 1.125 1.927c.089.154.177.3.263.459q.6 1.048 1.155 2.049l.245.446c.594 1.074 1.147 2.1 1.66 3.075.12.224.234.446.349.664q.227.431.438.843l.368.714c.417.814.795 1.568 1.128 2.246.144.286.277.56.406.821s.25.519.365.756c.084.172.159.337.234.49.024.052.05.1.073.152q.1.21.188.4l.115.243c.037.078.2.435.234.5a2.673 2.673 0 0 0 1.1.516h5.127s-.14-.67-.419-1.872c-2.091-8.961-12.018-47.427-30.3-56.748-.123-.063-.248-.125-.374-.185q-.476-.231-.956-.433c-.373-.157-.746-.308-1.124-.449-20.927.815-21.389 15.949-21.046 20.538z" class="cls-11" transform="translate(-326.208 -242.239)"/>
                        </g>
                    </g>
                </g>
                <g id="Group_68" transform="translate(206.941)">
                    <path id="Path_451" d="M598.708 369.005l-10.9-.657-7.735-.466-16.157-.971-8.087-.487-16.641-1-8.611-.519-17.282-1.042-9.556-.573-3.914-.236-1.436-7.993-1.007-5.61-2-11.108-1.038-5.784-2.116-11.783-.279-1.558-.783-4.36-2.2-12.27-1.083-6.03-.418-2.326-1.348-7.516-.5-2.788-1.1-6.12-3.84-21.376-1.976-11s19.726-5.847 48.7-9.1q1.461-.167 2.952-.32 2.536-.264 5.156-.5c5.257-.465 10.757-.833 16.452-1.055q3.647-.145 7.4-.206 4.766-.081 9.675-.008 2.71.041 5.453.131 3.393.118 6.834.315 6.932.4 14.02 1.18 3.167.346 6.353.785 6.505.888 13.058 2.157 2.957.578 5.915 1.237 4.081.911 8.152 1.989l-1.9 8-1.092 4.6-1.523 6.427-1.647 6.951-3.791 15.987-1.881 7.922-.607 2.566-5.163 21.767-.359 1.516-2 8.42-4.844 20.418-2.214 9.339z" class="cls-2" transform="translate(-470.87 -164.116)"/>
                    <path id="Path_452" d="M626.094 256.664l-3.173 13.38c-30.28-2.916-96.079-3.2-136.548 18.681l-5.439-30.283c24.766-3.003 120.411-13.628 145.16-1.778z" class="cls-3" transform="translate(-471.136 -166.131)"/>
                    <path id="Path_453" d="M618.164 299.53l-6.13 25.848c-24.322-1.079-82.893-3-118.91 1.422l-4.487-24.986c23.711-1.991 78.594-5.671 129.527-2.284z" class="cls-1" transform="translate(-472.05 -171.705)"/>
                    <g id="Group_64" transform="translate(58.59 63.141)">
                        <path id="Path_454" d="M569.123 365.874l-20.153-1.214c-1.986-35.753-4.933-68.43-7.7-94.405q-.6-5.6-1.174-10.774l-.278-2.443c-.943-8.292-1.836-15.667-2.632-21.962q-.465-3.715-.889-6.917a271.013 271.013 0 0 1 40.431-1.686c-.3 2.135-.583 4.421-.858 6.838-.814 7.105-1.541 15.341-2.187 24.211-.212 2.907-.414 5.883-.61 8.908v.07c-2.32 35.819-3.486 78.667-3.95 99.374z" class="cls-1" transform="translate(-536.296 -226.321)"/>
                        <path id="Path_455" d="M574.531 256.119l-.99 13.919c-13.2.636-31.531 3.71-31.8 3.754q-.738-6.939-1.452-13.217z" class="cls-11" transform="translate(-536.77 -229.857)"/>
                    </g>
                    <path id="Path_456" d="M632.732 237.849l-5.253 26.486c-19.975-5.3-41.427-7.016-61.689-6.813-11.771.114-23.141.875-33.586 1.959a388.688 388.688 0 0 0-54.926 9.513l-7.463-27.864a298.5 298.5 0 0 1 58.59-12.972 271.01 271.01 0 0 1 40.431-1.686c39.807 1.362 63.896 11.377 63.896 11.377z" class="cls-2" transform="translate(-469.816 -163.179)"/>
                    <path id="Path_457" d="M540.1 259.453l-3.8-31.323a193.958 193.958 0 0 1 39.336-1.721l-1.95 31.085z" class="cls-1" transform="translate(-477.706 -163.151)"/>
                    <path id="Path_458" d="M475.371 244.4s44.607-16.06 82.7-11.15c0 0-58.638 4.4-74.519 16.738l-3.241 14.695z" class="cls-6" transform="translate(-470.475 -163.89)"/>
                    <g id="Group_67" transform="translate(7.003)">
                        <g id="Group_65" transform="translate(65.424 5.116)">
                            <path id="Path_459" d="M588.858 162c-.386.118-.767.246-1.148.38-.329.116-.655.241-.981.375-.129.052-.257.107-.383.162-18.813 8.2-31.047 45.995-33.676 54.813-.351 1.184-.531 1.844-.531 1.844l5.124.308-.118.048c-3.165 1.254-5.147 1.986-5.147 1.986l8.272 1.429s50.969-4.958 64.382-28.179c13.182-22.828-13.835-39.998-35.794-33.166zm6.467 38.711c-8.47 6.591-24.863 13.8-34.878 17.89-.72.293-1.408.571-2.056.832.044-.08.094-.175.15-.275.036-.066.071-.137.113-.21s.082-.152.129-.235l.212-.387.082-.147.264-.475.41-.732c.145-.252.3-.517.456-.795.374-.657.8-1.386 1.261-2.173.131-.225.268-.457.411-.691.157-.264.319-.537.487-.814.128-.212.256-.426.389-.643.571-.937 1.184-1.932 1.843-2.968l.271-.43q.615-.966 1.276-1.976c.1-.149.192-.294.29-.442q.6-.916 1.24-1.855c.09-.136.184-.274.279-.41l.407-.6c.074-.108.149-.219.226-.326s.14-.2.211-.306c.092-.133.183-.266.278-.4 1.466-2.1 3.04-4.242 4.7-6.357.124-.154.247-.311.371-.468l.373-.469q1.326-1.656 2.714-3.266c.25-.287.5-.575.754-.858 1.317-1.485 2.673-2.918 4.051-4.261.139-.135.275-.268.413-.4.242-.231.482-.457.724-.682l.531-.486q.208-.19.42-.376l.422-.372q1.063-.927 2.141-1.767.407-.317.813-.617 1.463-1.084 2.934-1.971c.122-.073.244-.145.363-.213.235-.135.465-.267.7-.391.108-.062.213-.118.319-.172l.051-.028.4-.205.326-.16c.132-.065.266-.13.4-.19.075-.034.15-.07.225-.1.116-.056.232-.106.346-.154a20.388 20.388 0 0 1 2.514-.9c.075-.022.149-.043.223-.06.1-.028.191-.051.286-.074.162-.041.323-.078.482-.112.128-.029.252-.053.378-.077.143-.028.285-.054.431-.076.126-.019.256-.04.382-.056.106-.014.213-.029.318-.039.053-.007.1-.011.155-.016.143-.016.284-.027.426-.038a12.871 12.871 0 0 1 2.568.074c4.519.594 7.277 3.037 6.9 6.961-.402 4.133-4.297 9.933-13.305 16.94z" class="cls-1" transform="translate(-551.997 -160.481)"/>
                            <path id="Path_460" d="M615.859 164.984s13.039 1 16.3 16.243-22.352 30.521-29.2 31.99c0 0 24.8-13.9 24.956-28.312.172-16.051-12.056-19.921-12.056-19.921z" class="cls-14" transform="translate(-558.045 -161.016)"/>
                            <path id="Path_461" d="M608.646 183.967c.378-3.924-2.38-6.367-6.9-6.961a12.87 12.87 0 0 0-2.568-.074c-.142.011-.283.022-.426.038-.052 0-.1.009-.155.016-.1.01-.212.025-.318.039-.126.016-.256.037-.382.056-.145.022-.288.048-.431.076-.126.024-.25.048-.378.077-.159.034-.32.071-.482.112-.1.023-.19.046-.286.074-.074.019-.148.038-.223.06a20.381 20.381 0 0 0-2.514.9c-.115.048-.23.1-.346.154-.075.032-.15.067-.225.1-.135.06-.269.125-.4.19l-.326.16-.4.205-.051.028c-.106.054-.211.11-.319.172-.232.124-.462.256-.7.391-.119.069-.241.14-.363.213q-1.471.883-2.934 1.971-.406.3-.813.617-1.076.839-2.141 1.767c-.141.122-.281.247-.422.372s-.281.249-.419.376l-.531.486c-.241.226-.482.451-.724.682l-.413.4c-1.379 1.343-2.735 2.776-4.051 4.261-.252.283-.5.571-.754.858q-1.385 1.6-2.714 3.266c-.124.157-.249.311-.373.469s-.247.314-.371.468c-1.658 2.115-3.231 4.261-4.7 6.357l-.278.4c-.071.1-.143.2-.212.306s-.152.219-.226.326l-.407.6c-.094.136-.189.274-.278.41q-.636.94-1.24 1.855c-.1.148-.195.293-.29.442q-.661 1.01-1.276 1.976c-.093.145-.182.289-.271.43-.658 1.036-1.272 2.031-1.843 2.968-.133.217-.261.431-.389.642-.168.278-.331.55-.487.814l-.411.691c-.464.787-.888 1.517-1.261 2.173-.16.278-.31.543-.456.795l-.41.732c-.093.167-.179.326-.263.475-.026.051-.056.1-.082.147l-.212.387c-.047.083-.088.159-.129.235l-.265.487a2.65 2.65 0 0 1-1.129.449l-5.124-.308s.181-.66.531-1.844c2.629-8.818 14.862-46.614 33.676-54.813.126-.055.255-.11.383-.162.326-.134.652-.258.981-.375.382-.134.762-.262 1.148-.38 20.847 2.072 20.392 17.207 19.773 21.766z" class="cls-11" transform="translate(-552.016 -160.685)"/>
                        </g>
                        <g id="Group_66">
                            <path id="Path_462" d="M479.933 186.283c10.528 24.663 60.534 35.705 60.534 35.705l8.383-.425s-1.88-.965-4.872-2.59l-.111-.061 5.124.308s-.1-.678-.306-1.894c-1.551-9.07-9.159-48.061-26.852-58.459-.119-.07-.24-.14-.361-.207-.308-.173-.617-.335-.929-.49-.363-.178-.725-.352-1.095-.516-20.981-9.413-49.864 4.39-39.515 28.629zm17.276-9.39c.1-3.941 3.127-6.036 7.685-6.083a12.794 12.794 0 0 1 2.558.235c.139.026.278.056.418.088.051.011.1.021.152.035.1.021.209.048.312.076.123.031.249.067.372.1.142.04.28.082.419.127.123.039.243.077.366.121.153.054.309.11.465.169.092.034.184.069.276.108.071.025.143.056.214.085a20.3 20.3 0 0 1 2.388 1.192c.108.062.217.125.325.195.07.041.141.084.212.128.126.075.252.156.375.236l.3.2c.125.083.249.166.374.252.015.011.03.023.048.034.1.066.2.134.3.208.215.152.427.311.645.472.11.083.222.167.334.256q1.355 1.054 2.677 2.308.367.348.733.71.969.964 1.913 2.011c.125.138.25.279.375.419s.249.282.371.425l.469.546c.212.253.424.506.635.764.123.149.242.3.362.448 1.208 1.5 2.382 3.085 3.511 4.717.217.311.433.628.646.943.789 1.173 1.557 2.366 2.3 3.568.1.171.21.339.314.51s.207.342.312.509c1.392 2.3 2.7 4.619 3.9 6.875l.227.431c.058.111.117.219.173.33s.124.234.185.351c.113.215.223.428.333.642.077.145.154.293.227.439q.518 1.011 1.008 1.991c.079.16.159.316.235.474q.534 1.083 1.029 2.115c.075.156.146.309.219.459.528 1.109 1.018 2.17 1.473 3.168.106.231.207.459.309.685.134.3.263.585.387.867.113.249.22.5.323.735.367.837.7 1.612.992 2.308l.356.844.319.777.205.5c.02.053.043.1.063.155.056.145.111.281.163.409.037.089.069.169.1.249l.085.222.115.292c-.612-.338-1.261-.7-1.942-1.073-9.443-5.25-24.849-14.379-32.469-21.939-8.1-8.04-11.273-14.258-11.171-18.418z" class="cls-1" transform="translate(-477.762 -154.676)"/>
                            <path id="Path_463" d="M496.8 159.467s-13.038 1.01-16.285 16.255 22.374 30.5 29.223 31.97c0 0-24.809-13.887-24.976-28.294-.188-16.052 12.038-19.931 12.038-19.931z" class="cls-14" transform="translate(-478.055 -155.244)"/>
                            <path id="Path_464" d="M499.828 177.293c.1-3.941 3.127-6.036 7.685-6.083a12.8 12.8 0 0 1 2.559.235q.209.04.418.088c.051.011.1.021.152.035.1.021.209.049.312.076.123.031.248.067.372.1.142.04.28.082.419.127.122.039.243.077.366.121.153.054.309.11.465.169.092.034.184.069.276.108.071.027.143.056.214.086a20.284 20.284 0 0 1 2.388 1.192c.108.062.217.125.325.195.07.041.141.084.211.128.126.075.252.156.375.236l.3.2c.125.083.249.166.374.252.015.011.03.023.048.034.1.066.2.134.3.208.215.152.427.311.645.472.11.083.222.167.334.256q1.355 1.054 2.677 2.308.367.348.733.71.969.964 1.913 2.011c.125.138.25.279.375.419s.249.282.371.425l.469.546c.212.253.424.506.635.764.122.149.242.3.362.448 1.208 1.5 2.382 3.085 3.511 4.717.217.311.433.627.646.943.789 1.173 1.557 2.366 2.3 3.568.1.171.21.339.314.51s.207.342.312.509c1.392 2.3 2.7 4.619 3.9 6.875l.227.431c.058.111.117.219.173.33s.124.234.185.351c.113.215.223.428.333.642.077.145.154.293.227.439q.518 1.011 1.008 1.991c.079.16.159.316.235.474q.534 1.083 1.029 2.115c.075.156.146.309.219.459.528 1.109 1.018 2.17 1.473 3.168.106.231.207.459.309.685.134.3.263.585.387.867.11.249.218.5.323.735.368.837.7 1.612.992 2.308l.356.844.319.777c.073.176.138.345.205.5.02.053.043.1.064.155q.085.217.163.409c.037.089.069.169.1.249s.176.447.2.516a2.669 2.669 0 0 0 1.067.582l5.124.308s-.1-.678-.306-1.894c-1.551-9.07-9.159-48.061-26.852-58.459-.119-.071-.24-.14-.361-.207-.308-.173-.617-.335-.929-.49-.363-.178-.725-.352-1.095-.516-20.933-.438-22.299 14.642-22.231 19.243z" class="cls-11" transform="translate(-480.381 -155.076)"/>
                        </g>
                    </g>
                </g>
                <g id="Group_84" transform="translate(282.878 79.356)">
                    <path id="Path_465" d="M691.753 453.087l-10.924-.05-7.749-.037-16.186-.072-8.1-.037-16.672-.075-8.626-.04-17.314-.079-9.573-.041-3.921-.019-1.878-7.9-1.318-5.545-2.609-10.98-1.358-5.717-2.767-11.647-.366-1.541-1.031-4.307-2.88-12.13-1.417-5.96-.546-2.3-1.764-7.429-.654-2.757-1.438-6.048-5.022-21.129-2.584-10.869s19.371-6.934 48.122-11.79q1.448-.247 2.93-.483 2.517-.4 5.12-.782c5.223-.756 10.694-1.429 16.368-1.967q3.635-.348 7.378-.618 4.754-.345 9.659-.546 2.707-.11 5.453-.171 3.395-.073 6.84-.065c4.63.009 9.326.136 14.064.4q3.182.169 6.388.432 6.544.525 13.157 1.428 2.985.412 5.975.907 4.124.682 8.25 1.533l-1.451 8.095-.835 4.655-1.163 6.5-1.259 7.031-2.9 16.173-1.437 8.014-.464 2.6-3.945 22.02-.273 1.533-1.526 8.518-3.7 20.656-1.689 9.427z" class="cls-15" transform="translate(-557.056 -253.648)"/>
                    <g id="Group_79" transform="translate(15.604 66.304)">
                        <g id="Group_78">
                            <g id="Group_69" transform="translate(0 3.367)">
                                <path id="Path_466" d="M622.251 323.773q-1.527 1.79-3.091 3.608c-14.719 17.1-29.078 32.628-42.676 46.145-.454.453-.909.9-1.362 1.348l-1.438-6.048c15.092-15.062 29.115-30.583 40.517-43.789q1.447-.247 2.929-.483 2.518-.404 5.121-.781z" class="cls-16" transform="translate(-573.685 -323.773)"/>
                            </g>
                            <g id="Group_70" transform="translate(4.403 .782)">
                                <path id="Path_467" d="M646.59 320.84c-4 4.845-8.276 9.954-12.784 15.215-14.96 17.46-29.472 33.175-43.13 46.712q-5.374 5.326-10.577 10.206l-1.417-5.96c19.006-18.061 37.066-38.007 51.11-54.4 3.268-3.814 6.418-7.548 9.421-11.157q3.635-.346 7.377-.616z" class="cls-16" transform="translate(-578.681 -320.84)"/>
                            </g>
                            <g id="Group_71" transform="translate(8.7)">
                                <path id="Path_468" d="M669.121 319.953c-6.083 7.588-13.073 16.1-20.682 25.02-15.2 17.814-29.87 33.722-43.589 47.275q-10.306 10.187-19.9 18.6l-.366-1.541-1.027-4.307c22.3-19.867 44.28-44.03 60.861-63.457 6.464-7.574 12.478-14.858 17.863-21.522q3.395-.076 6.84-.068z" class="cls-16" transform="translate(-583.557 -319.952)"/>
                            </g>
                            <g id="Group_72" transform="translate(12.857 .399)">
                                <path id="Path_469" d="M690.132 320.837c-7.442 9.5-16.715 21.019-27.079 33.211-15.447 18.172-30.266 34.269-44.047 47.842a385.007 385.007 0 0 1-29.374 26.374l-1.358-5.717c20.591-16.792 44.658-41.229 70.749-71.925 9.307-10.949 17.728-21.35 24.722-30.218q3.182.17 6.387.433z" class="cls-16" transform="translate(-588.274 -320.405)"/>
                            </g>
                            <g id="Group_73" transform="translate(16.825 2.259)">
                                <path id="Path_470" d="M709.8 323.422c-8.222 10.69-19.4 24.834-32.159 39.9-15.688 18.529-30.662 34.813-44.5 48.409-14.245 13.993-27.34 25.161-39.042 33.311l-1.318-5.545c22.319-15.96 50.011-43.2 80.8-79.56 11.806-13.945 22.259-27.093 30.244-37.42q2.984.41 5.975.905z" class="cls-16" transform="translate(-592.776 -322.515)"/>
                            </g>
                            <g id="Group_74" transform="translate(23.943 12.793)">
                                <path id="Path_471" d="M715.559 345.625c-6.715 8.528-14.483 18.15-22.906 28.134-15.931 18.883-31.058 35.36-44.963 48.972-13.622 13.339-26.111 23.956-37.263 31.687l-9.573-.041c23-14.178 53.264-43.144 87.731-84 11.114-13.17 21.079-25.706 28.973-35.914l-.835 4.655z" class="cls-16" transform="translate(-600.853 -334.468)"/>
                            </g>
                            <g id="Group_75" transform="translate(50.832 47.16)">
                                <path id="Path_472" d="M713.122 384.073q-1.385 1.66-2.8 3.339c-16.172 19.24-31.454 35.907-45.418 49.538a332.505 332.505 0 0 1-24.918 22.217l-8.626-.04c20.732-15.47 46.256-41.029 74.889-75.088 3.01-3.579 5.94-7.116 8.771-10.578l-1.437 8.014z" class="cls-16" transform="translate(-631.363 -373.463)"/>
                            </g>
                            <g id="Group_76" transform="translate(76.13 79.793)">
                                <path id="Path_473" d="M710.785 420.541c-10.138 11.389-19.8 21.561-28.873 30.393q-7.108 6.918-13.741 12.741l-8.1-.037c15.414-12.968 33.1-30.858 52.516-53.147l-.273 1.533z" class="cls-16" transform="translate(-660.068 -410.491)"/>
                            </g>
                            <g id="Group_77" transform="translate(100.419 110.501)">
                                <path id="Path_474" d="M708.666 454.762q-5.055 5.207-9.887 9.894-1.715 1.667-3.4 3.263l-7.749-.035q10.732-9.853 22.726-22.548z" class="cls-16" transform="translate(-687.628 -445.335)"/>
                            </g>
                        </g>
                    </g>
                    <path id="Path_475" d="M712.822 339.28l-2.422 13.536c-30.4-1.229-96.109 2.142-135.3 26.243l-7.115-29.935c24.56-4.375 119.468-20.299 144.837-9.844z" class="cls-10" transform="translate(-557.404 -255.527)"/>
                    <path id="Path_476" d="M707.26 382.553l-4.684 26.147c-24.344.275-82.93 1.612-118.646 8.029l-5.869-24.7c23.564-3.302 78.156-10.029 129.199-9.476z" class="cls-4" transform="translate(-558.6 -261.074)"/>
                    <g id="Group_80" transform="translate(57.778 59.664)">
                        <path id="Path_477" d="M661.97 452.027l-20.19-.093c-3.969-35.587-8.728-68.05-12.934-93.831q-.906-5.562-1.772-10.692l-.414-2.424c-1.4-8.226-2.7-15.54-3.848-21.782q-.672-3.683-1.273-6.858a270.99 270.99 0 0 1 40.275-3.931c-.176 2.148-.335 4.446-.477 6.876-.419 7.139-.686 15.4-.838 24.294-.049 2.915-.086 5.9-.114 8.929v.07c-.321 35.895.896 78.74 1.585 99.442z" class="cls-5" transform="translate(-621.538 -312.418)"/>
                        <path id="Path_478" d="M661.287 342.167l-.213 13.952c-13.144 1.369-31.277 5.457-31.539 5.516q-1.122-6.887-2.186-13.117z" class="cls-4" transform="translate(-622.228 -315.949)"/>
                    </g>
                    <path id="Path_479" d="M718.461 320.218l-3.771 26.737c-20.239-4.183-41.754-4.7-61.973-3.374-11.746.768-23.057 2.161-33.425 3.824a388.707 388.707 0 0 0-54.313 12.551l-9-27.405a298.524 298.524 0 0 1 57.778-16.209 271 271 0 0 1 40.275-3.931c39.821-.854 64.429 7.807 64.429 7.807z" class="cls-15" transform="translate(-555.979 -252.746)"/>
                    <path id="Path_480" d="M627.073 347.415l-5.535-31.064a193.909 193.909 0 0 1 39.18-3.9l-.219 31.144z" class="cls-5" transform="translate(-563.76 -252.757)"/>
                    <path id="Path_481" d="M561.687 335.7s43.646-18.515 81.955-15.73c0 0-58.3 7.648-73.474 20.854l-2.419 14.853z" transform="translate(-556.656 -253.616)" style="isolation:isolate;mix-blend-mode:screen" fill="#ff7983" opacity="0.5"/>
                    <g id="Group_83" transform="translate(3.84)">
                        <g id="Group_81" transform="translate(67.842 .388)">
                            <path id="Path_482" d="M670.788 247.29c-.379.139-.753.289-1.126.443-.321.134-.64.276-.959.428-.125.059-.25.122-.374.183-18.329 9.232-28.442 47.649-30.576 56.6-.285 1.2-.428 1.87-.428 1.87l5.134.023-.115.055c-3.091 1.428-5.029 2.268-5.029 2.268l8.338.967s50.615-7.784 62.717-31.715c11.893-23.518-16.037-39.16-37.582-31.122zm8.609 38.291c-8.091 7.052-24.058 15.163-33.829 19.8-.7.333-1.375.648-2.007.945l.134-.283c.032-.068.063-.141.1-.216l.116-.242c.061-.125.123-.257.19-.4l.074-.151.236-.489c.116-.236.24-.489.368-.754s.266-.533.411-.819c.337-.677.718-1.429 1.14-2.24.118-.231.242-.471.37-.712.143-.273.29-.554.442-.841.115-.218.231-.439.352-.663.517-.968 1.075-1.994 1.674-3.066l.247-.445q.56-1 1.164-2.044c.087-.153.176-.3.266-.457q.551-.948 1.134-1.921c.082-.141.168-.284.255-.424l.373-.62c.068-.111.137-.226.207-.338l.195-.317.255-.416c1.348-2.173 2.8-4.4 4.337-6.607.115-.161.228-.325.344-.489s.231-.324.346-.488c.821-1.151 1.667-2.292 2.529-3.412l.705-.9c1.233-1.556 2.506-3.063 3.809-4.481.13-.143.259-.283.39-.423.227-.244.456-.483.684-.722l.5-.514c.131-.135.264-.267.4-.4l.4-.395q1.009-.985 2.039-1.883.389-.338.777-.661 1.4-1.163 2.82-2.131c.117-.079.235-.158.35-.233.228-.147.45-.293.675-.429.1-.068.206-.13.308-.189.018-.011.034-.02.049-.031.131-.078.259-.152.39-.227l.316-.179c.128-.072.259-.145.39-.211.073-.039.146-.078.219-.114.113-.063.225-.119.338-.174a20.164 20.164 0 0 1 2.461-1.034c.073-.026.146-.052.22-.072.093-.033.188-.062.282-.09.159-.049.318-.1.475-.139.125-.035.248-.066.373-.1.141-.036.282-.07.426-.1.125-.026.253-.054.378-.077.1-.02.211-.041.315-.056.053-.011.1-.019.154-.026q.212-.034.423-.061a12.789 12.789 0 0 1 2.568-.069c4.545.341 7.434 2.628 7.275 6.567-.161 4.164-3.729 10.165-12.329 17.663z" class="cls-5" transform="translate(-637.314 -245.159)"/>
                            <path id="Path_483" d="M697.815 249.035s13.074.275 17.174 15.313-20.62 31.716-27.377 33.564c0 0 23.988-15.262 23.344-29.656-.717-16.037-13.141-19.221-13.141-19.221z" class="cls-7" transform="translate(-643.284 -245.619)"/>
                            <path id="Path_484" d="M691.737 268.212c.159-3.939-2.73-6.226-7.275-6.567a12.786 12.786 0 0 0-2.568.069q-.212.026-.423.061c-.052.007-.1.015-.154.026-.1.015-.211.035-.316.056-.125.023-.253.051-.378.077-.144.03-.285.063-.426.1-.125.031-.248.062-.373.1-.157.044-.316.09-.475.139-.094.028-.189.056-.282.09-.073.023-.146.046-.219.072a20.162 20.162 0 0 0-2.461 1.034c-.113.055-.225.111-.338.174-.073.036-.146.075-.22.114-.13.067-.262.139-.389.212-.1.06-.209.119-.316.179l-.39.227c-.015.011-.031.02-.049.031-.1.06-.2.122-.308.189-.225.137-.447.282-.675.429-.115.075-.233.153-.35.233q-1.42.964-2.82 2.131-.389.323-.777.661-1.029.9-2.039 1.883c-.134.13-.267.263-.4.395s-.267.264-.4.4l-.5.514c-.228.239-.456.478-.684.722-.131.14-.26.28-.39.423-1.3 1.418-2.576 2.924-3.809 4.481l-.705.9c-.863 1.119-1.708 2.261-2.529 3.412-.115.164-.231.324-.346.488s-.228.328-.344.489c-1.538 2.2-2.989 4.434-4.337 6.607l-.255.416c-.066.107-.131.211-.195.317l-.207.338-.373.62c-.087.14-.174.283-.256.424q-.583.974-1.134 1.921c-.09.153-.179.3-.266.457q-.6 1.046-1.164 2.044l-.247.445c-.6 1.072-1.157 2.1-1.674 3.066-.122.224-.237.445-.352.663-.152.286-.3.568-.442.841l-.37.712c-.421.812-.8 1.563-1.14 2.24-.145.286-.279.559-.411.819s-.252.518-.368.754c-.084.172-.16.336-.236.489-.024.052-.05.1-.074.151l-.19.4-.116.242-.236.5a2.661 2.661 0 0 1-1.1.511l-5.134-.023s.144-.67.428-1.87c2.135-8.951 12.247-47.369 30.576-56.6.123-.062.249-.124.374-.183.319-.152.638-.294.959-.428.374-.154.747-.3 1.126-.443 20.92.902 21.305 16.039 20.942 20.626z" class="cls-4" transform="translate(-637.315 -245.446)"/>
                        </g>
                        <g id="Group_82">
                            <path id="Path_485" d="M563.079 277.741c11.884 24.039 62.425 32.284 62.425 32.284l8.347-.889s-1.931-.859-5.008-2.315l-.114-.055 5.134.023s-.137-.671-.412-1.874c-2.052-8.97-11.816-47.478-30.059-56.876-.122-.063-.248-.127-.372-.187-.318-.156-.635-.3-.955-.437-.372-.159-.744-.311-1.121-.454-21.473-8.235-49.544 7.153-37.865 30.78zm16.729-10.341c-.123-3.94 2.786-6.2 7.334-6.5a12.858 12.858 0 0 1 2.568.093q.21.028.422.064l.153.026c.1.016.211.038.316.059.124.024.252.053.377.079l.425.1c.125.032.248.063.372.1.157.046.316.093.474.144.094.029.188.058.281.093.073.021.145.048.218.074a20.127 20.127 0 0 1 2.452 1.068c.112.056.224.114.336.176.073.037.145.077.219.116.13.068.26.142.388.215l.315.182c.13.077.257.152.387.231l.049.032c.1.061.2.123.307.192.224.138.445.286.671.435.115.077.232.155.349.236q1.411.977 2.8 2.156.386.327.772.669 1.021.908 2.022 1.9c.132.13.265.264.4.4l.394.4.5.519c.226.241.451.481.677.728.13.141.256.282.387.427 1.288 1.43 2.549 2.947 3.768 4.514.233.3.466.6.7.905.852 1.128 1.687 2.276 2.5 3.435l.342.492c.115.165.225.33.339.492 1.518 2.218 2.949 4.461 4.276 6.647l.251.419c.065.108.13.212.191.319s.138.227.2.34l.367.621c.086.142.171.286.251.427q.574.98 1.117 1.932c.088.154.176.306.261.46q.594 1.051 1.146 2.054l.243.447c.59 1.077 1.138 2.109 1.646 3.082.119.224.233.447.346.666.151.287.3.569.434.843.127.243.249.484.364.716.414.815.789 1.571 1.119 2.25.142.287.273.561.4.823s.248.52.361.757l.233.492c.023.052.049.1.072.152.064.141.127.274.186.4l.114.243c.036.078.067.149.1.217.049.1.092.2.131.285-.629-.3-1.3-.624-2-.963-9.73-4.727-25.622-12.983-33.649-20.109-8.532-7.572-12.045-13.609-12.174-17.772z" class="cls-5" transform="translate(-560.336 -244.719)"/>
                            <path id="Path_486" d="M578.41 250.117s-12.961 1.734-15.356 17.135 24.034 29.214 30.955 30.3c0 0-25.542-12.485-26.511-26.862-1.078-16.021 10.912-20.573 10.912-20.573z" class="cls-7" transform="translate(-560.641 -245.359)"/>
                            <path id="Path_487" d="M582.423 267.706c-.123-3.94 2.786-6.2 7.334-6.5a12.859 12.859 0 0 1 2.568.093c.14.018.281.04.422.064l.153.026c.1.016.211.038.316.059.124.024.252.053.377.079l.425.1c.125.032.248.063.372.1.157.046.316.093.474.144.094.029.188.058.281.093l.219.074a20.14 20.14 0 0 1 2.451 1.056c.112.056.224.114.336.176.073.037.145.077.219.116.13.068.26.142.388.215l.315.182c.13.077.257.152.387.231l.049.032c.1.061.2.123.307.192.224.138.445.286.671.435.115.077.232.155.349.236q1.411.977 2.8 2.156.386.327.772.669 1.02.908 2.022 1.9c.132.13.265.264.4.4l.394.4.5.519c.226.241.451.481.677.728.13.141.256.282.387.427 1.288 1.429 2.549 2.947 3.768 4.514.233.3.466.6.7.905.852 1.128 1.687 2.276 2.5 3.435l.342.492c.115.165.225.33.339.492 1.517 2.218 2.949 4.461 4.276 6.647l.251.419c.065.107.129.212.191.319s.137.227.2.34l.368.621c.085.142.171.286.251.427q.574.98 1.118 1.932c.088.154.176.306.261.46q.594 1.051 1.146 2.054l.243.447c.59 1.077 1.138 2.109 1.646 3.082.119.224.233.447.346.666.151.287.3.569.434.843l.364.717c.414.815.789 1.57 1.119 2.25.142.287.273.561.4.823s.248.52.361.757c.083.173.158.338.233.492.023.052.049.1.072.152.064.141.127.274.186.4l.114.243c.036.078.2.436.232.5a2.672 2.672 0 0 0 1.1.522l5.134.023s-.138-.671-.412-1.874c-2.053-8.97-11.816-47.478-30.059-56.876-.123-.063-.248-.127-.372-.187-.318-.156-.635-.3-.955-.437-.372-.159-.744-.311-1.121-.454-20.939.73-21.464 15.862-21.141 20.452z" class="cls-4" transform="translate(-562.951 -245.021)"/>
                        </g>
                    </g>
                </g>
                <g id="Group_96" transform="translate(191.326 117.687)">
                    <path id="Path_488" d="M562.084 455.948l-79.047-.012h-.9l-1.875-7.737-6.588-27.191-3.926-16.2-.9-3.7-.908-3.748-.543-2.239-.661-2.727-1.811-7.472-3.375-13.931-2.122-8.764a254.187 254.187 0 0 1 41.15-10.084 265.339 265.339 0 0 1 31.073-3.294 200.822 200.822 0 0 1 48.534 3.387l-1.8 10.3-1.906 10.931-.51 2.918-1.411 8.085-1.108 6.338-.383 2.193-.919 5.264-2.767 15.854-6.243 35.763-.522 2.992z" class="cls-5" transform="translate(-452.968 -295.379)"/>
                    <g id="Group_91" transform="translate(11.964 79.066)">
                        <g id="Group_85">
                            <path id="Path_489" d="M472.141 394.176a4.163 4.163 0 0 1-4.658 2.99l-1.811-7.472a4.163 4.163 0 0 1 6.469 4.481z" class="cls-16" transform="translate(-465.672 -379.227)"/>
                            <path id="Path_490" d="M489.274 390.4a4.164 4.164 0 1 1-2.888-5.133 4.164 4.164 0 0 1 2.888 5.133z" class="cls-16" transform="translate(-467.503 -378.779)"/>
                            <path id="Path_491" d="M506.64 387.363a4.164 4.164 0 1 1-2.888-5.133 4.164 4.164 0 0 1 2.888 5.133z" class="cls-16" transform="translate(-469.564 -378.419)"/>
                            <path id="Path_492" d="M524.01 385.117a4.165 4.165 0 1 1-2.889-5.133 4.165 4.165 0 0 1 2.889 5.133z" class="cls-16" transform="translate(-471.626 -378.152)"/>
                            <path id="Path_493" d="M541.383 383.715a4.164 4.164 0 1 1-2.888-5.132 4.164 4.164 0 0 1 2.888 5.132z" class="cls-16" transform="translate(-473.688 -377.986)"/>
                            <path id="Path_494" d="M558.76 383.213a4.164 4.164 0 1 1-2.888-5.132 4.164 4.164 0 0 1 2.888 5.132z" class="cls-16" transform="translate(-475.75 -377.926)"/>
                            <path id="Path_495" d="M576.142 383.664a4.164 4.164 0 1 1-2.889-5.132 4.165 4.165 0 0 1 2.889 5.132z" class="cls-16" transform="translate(-477.813 -377.98)"/>
                            <path id="Path_496" d="M589.51 388.165a4.165 4.165 0 1 1 1.13-8.176c.1.027.19.056.281.091z" class="cls-16" transform="translate(-479.877 -378.153)"/>
                        </g>
                        <g id="Group_86" transform="translate(3.015 14.148)">
                            <path id="Path_497" d="M472.415 409.2a4.136 4.136 0 0 1-1.518 2.172l-.9-3.7-.908-3.748a4.105 4.105 0 0 1 .5.113 4.163 4.163 0 0 1 2.826 5.163z" class="cls-16" transform="translate(-469.093 -395.159)"/>
                            <path id="Path_498" d="M489.166 405.631a4.163 4.163 0 1 1-2.823-5.167 4.163 4.163 0 0 1 2.823 5.167z" class="cls-16" transform="translate(-470.507 -394.729)"/>
                            <path id="Path_499" d="M506.563 402.811a4.163 4.163 0 1 1-2.823-5.166 4.163 4.163 0 0 1 2.823 5.166z" class="cls-16" transform="translate(-472.572 -394.395)"/>
                            <path id="Path_500" d="M523.954 400.783a4.163 4.163 0 1 1-2.823-5.166 4.162 4.162 0 0 1 2.823 5.166z" class="cls-16" transform="translate(-474.636 -394.154)"/>
                            <path id="Path_501" d="M541.338 399.6a4.163 4.163 0 1 1-2.823-5.167 4.163 4.163 0 0 1 2.823 5.167z" class="cls-16" transform="translate(-476.699 -394.014)"/>
                            <path id="Path_502" d="M558.715 399.315a4.163 4.163 0 1 1-2.824-5.166 4.164 4.164 0 0 1 2.824 5.166z" class="cls-16" transform="translate(-478.762 -393.98)"/>
                            <path id="Path_503" d="M576.084 399.983a4.163 4.163 0 1 1-2.824-5.166 4.164 4.164 0 0 1 2.824 5.166z" class="cls-16" transform="translate(-480.823 -394.059)"/>
                            <path id="Path_504" d="M587.093 403.936a4.161 4.161 0 0 1 1.3-7.457l-.382 2.193z" class="cls-16" transform="translate(-482.884 -394.276)"/>
                        </g>
                        <g id="Group_87" transform="translate(13.434 28.296)">
                            <path id="Path_505" d="M489.058 420.862a4.162 4.162 0 1 1-2.758-5.2 4.164 4.164 0 0 1 2.758 5.2z" class="cls-16" transform="translate(-480.916 -410.679)"/>
                            <path id="Path_506" d="M506.486 418.261a4.162 4.162 0 1 1-2.758-5.2 4.163 4.163 0 0 1 2.758 5.2z" class="cls-16" transform="translate(-482.984 -410.37)"/>
                            <path id="Path_507" d="M523.9 416.451a4.162 4.162 0 1 1-2.758-5.2 4.163 4.163 0 0 1 2.758 5.2z" class="cls-16" transform="translate(-485.051 -410.155)"/>
                            <path id="Path_508" d="M541.293 415.485a4.162 4.162 0 1 1-2.758-5.2 4.162 4.162 0 0 1 2.758 5.2z" class="cls-16" transform="translate(-487.115 -410.041)"/>
                            <path id="Path_509" d="M558.669 415.418a4.162 4.162 0 1 1-2.758-5.2 4.161 4.161 0 0 1 2.758 5.2z" class="cls-16" transform="translate(-489.178 -410.033)"/>
                            <path id="Path_510" d="M576.026 416.3a4.163 4.163 0 1 1-2.758-5.2 4.162 4.162 0 0 1 2.758 5.2z" class="cls-16" transform="translate(-491.238 -410.138)"/>
                        </g>
                        <g id="Group_88" transform="translate(13.353 42.311)">
                            <path id="Path_511" d="M488.95 436.092a4.162 4.162 0 1 1-2.692-5.235 4.162 4.162 0 0 1 2.692 5.235z" class="cls-16" transform="translate(-480.823 -426.495)"/>
                            <path id="Path_512" d="M506.409 433.709a4.162 4.162 0 1 1-2.692-5.234 4.162 4.162 0 0 1 2.692 5.234z" class="cls-16" transform="translate(-482.895 -426.213)"/>
                            <path id="Path_513" d="M523.843 432.117a4.162 4.162 0 1 1-2.692-5.235 4.161 4.161 0 0 1 2.692 5.235z" class="cls-16" transform="translate(-484.964 -426.024)"/>
                            <path id="Path_514" d="M541.248 431.369a4.162 4.162 0 1 1-2.692-5.234 4.162 4.162 0 0 1 2.692 5.234z" class="cls-16" transform="translate(-487.03 -425.935)"/>
                            <path id="Path_515" d="M558.623 431.52a4.162 4.162 0 1 1-2.692-5.235 4.162 4.162 0 0 1 2.692 5.235z" class="cls-16" transform="translate(-489.092 -425.953)"/>
                            <path id="Path_516" d="M575.968 432.622a4.162 4.162 0 1 1-2.693-5.234 4.162 4.162 0 0 1 2.693 5.234z" class="cls-16" transform="translate(-491.151 -426.084)"/>
                        </g>
                        <g id="Group_89" transform="translate(13.27 56.265)">
                            <path id="Path_517" d="M488.842 451.322a4.163 4.163 0 1 1-2.627-5.269 4.163 4.163 0 0 1 2.627 5.269z" class="cls-16" transform="translate(-480.73 -442.251)"/>
                            <path id="Path_518" d="M506.333 449.158a4.163 4.163 0 1 1-2.627-5.269 4.164 4.164 0 0 1 2.627 5.269z" class="cls-16" transform="translate(-482.806 -441.995)"/>
                            <path id="Path_519" d="M523.786 447.784a4.163 4.163 0 1 1-2.626-5.269 4.163 4.163 0 0 1 2.626 5.269z" class="cls-16" transform="translate(-484.877 -441.831)"/>
                            <path id="Path_520" d="M541.2 447.254a4.163 4.163 0 1 1-2.627-5.269 4.164 4.164 0 0 1 2.627 5.269z" class="cls-16" transform="translate(-486.944 -441.769)"/>
                            <path id="Path_521" d="M558.578 447.622a4.163 4.163 0 1 1-2.627-5.269 4.164 4.164 0 0 1 2.627 5.269z" class="cls-16" transform="translate(-489.007 -441.812)"/>
                            <path id="Path_522" d="M575.909 448.941a4.163 4.163 0 1 1-2.626-5.268 4.162 4.162 0 0 1 2.626 5.268z" class="cls-16" transform="translate(-491.064 -441.969)"/>
                        </g>
                        <g id="Group_90" transform="translate(15.333 70.22)">
                            <path id="Path_523" d="M489.022 466.552a4.164 4.164 0 0 1-3.181 2.725h-.9l-1.875-7.737a4.165 4.165 0 0 1 5.952 5.012z" class="cls-16" transform="translate(-483.07 -458.008)"/>
                            <path id="Path_524" d="M506.255 464.606a4.164 4.164 0 1 1-2.562-5.3 4.165 4.165 0 0 1 2.562 5.3z" class="cls-16" transform="translate(-484.861 -457.777)"/>
                            <path id="Path_525" d="M523.731 463.45a4.164 4.164 0 1 1-2.562-5.3 4.165 4.165 0 0 1 2.562 5.3z" class="cls-16" transform="translate(-486.935 -457.639)"/>
                            <path id="Path_526" d="M541.157 463.138a4.164 4.164 0 1 1-2.561-5.3 4.164 4.164 0 0 1 2.561 5.3z" class="cls-16" transform="translate(-489.003 -457.602)"/>
                            <path id="Path_527" d="M558.532 463.723a4.164 4.164 0 1 1-2.562-5.3 4.164 4.164 0 0 1 2.562 5.3z" class="cls-16" transform="translate(-491.065 -457.672)"/>
                            <path id="Path_528" d="M575.48 466.051a4.163 4.163 0 1 1 .522-2.994z" class="cls-16" transform="translate(-493.121 -457.854)"/>
                        </g>
                    </g>
                    <path id="Path_529" fill="#ff9001" d="M578.679 364.032l-1.908 10.931c-24.531-.883-77.545 2.07-109.082 21.656l-5.847-24.128c19.801-3.618 96.328-16.806 116.837-8.459z" transform="translate(-453.254 -296.888)" style="mix-blend-mode:multiply;isolation:isolate" opacity="0.5"/>
                    <path id="Path_530" d="M574.343 398.966l-3.687 21.117c-19.643.308-66.913 1.6-95.71 6.9l-4.823-19.909c19.001-2.75 63.03-8.374 104.22-8.108z" class="cls-19" transform="translate(-454.236 -301.356)"/>
                    <g id="Group_92" transform="translate(46.565 47.91)">
                        <path id="Path_531" d="M538.041 455.227h-16.292c-3.33-28.7-7.286-54.881-10.771-75.668q-.751-4.485-1.467-8.622l-.343-1.955c-1.16-6.633-2.237-12.53-3.182-17.563q-.555-2.969-1.051-5.529a218.791 218.791 0 0 1 32.485-3.315c-.135 1.734-.255 3.59-.36 5.551-.312 5.762-.5 12.431-.59 19.606-.03 2.352-.049 4.759-.06 7.206v.057c-.133 28.961 1.002 63.531 1.631 80.232z" class="cls-15" transform="translate(-504.933 -342.574)"/>
                        <path id="Path_532" d="M537.1 366.584l-.122 11.26c-10.6 1.151-25.219 4.515-25.429 4.563q-.931-5.555-1.81-10.577z" class="cls-19" transform="translate(-505.503 -345.424)"/>
                    </g>
                    <path id="Path_533" d="M583.165 348.636l-2.949 21.589c-16.346-3.3-33.708-3.647-50.019-2.5-9.476.662-18.6 1.826-26.958 3.2a313.7 313.7 0 0 0-43.782 10.321l-7.36-22.083a240.971 240.971 0 0 1 46.565-13.284 218.789 218.789 0 0 1 32.485-3.315c32.129-.83 52.018 6.072 52.018 6.072z" class="cls-5" transform="translate(-452.097 -294.654)"/>
                    <path id="Path_534" d="M509.51 370.939l-4.577-25.046a156.458 156.458 0 0 1 31.6-3.29l-.066 25.131z" class="cls-15" transform="translate(-458.368 -294.667)"/>
                    <path id="Path_535" d="M456.712 361.7s35.154-15.1 66.075-12.984c0 0-47.019 6.378-59.213 17.089l-1.9 11.994z" class="cls-6" transform="translate(-452.645 -295.368)"/>
                    <g id="Group_95" transform="translate(2.894)">
                        <g id="Group_93" transform="translate(54.893 .011)">
                            <path id="Path_536" d="M544.457 289.987c-.3.114-.606.235-.907.361-.259.109-.516.225-.772.349-.1.048-.2.1-.3.15-14.758 7.514-22.782 38.55-24.472 45.781-.226.97-.339 1.511-.339 1.511h4.143l-.093.044c-2.49 1.162-4.051 1.848-4.051 1.848l6.732.75s40.814-6.461 50.495-25.814c9.514-19.021-13.079-31.544-30.436-24.98zm7.083 30.868c-6.5 5.719-19.359 12.321-27.228 16.1-.566.271-1.106.528-1.615.769l.107-.229c.026-.055.051-.114.08-.174s.059-.127.092-.2c.049-.1.1-.209.152-.323.018-.04.04-.079.059-.122l.19-.4.294-.61c.1-.211.212-.431.329-.663.269-.546.574-1.155.91-1.811.1-.187.194-.381.3-.576q.17-.332.353-.679c.093-.177.185-.355.282-.537.415-.783.861-1.613 1.34-2.48.065-.118.131-.238.2-.36q.448-.808.932-1.653c.07-.124.141-.246.213-.37q.442-.767.909-1.555c.065-.114.135-.229.2-.343l.3-.5c.055-.091.109-.183.166-.274s.1-.17.156-.256l.2-.337c1.08-1.758 2.243-3.563 3.476-5.347.093-.13.183-.264.276-.4s.185-.263.278-.4c.658-.932 1.336-1.855 2.029-2.762.187-.243.376-.487.566-.727.989-1.26 2.012-2.48 3.057-3.629.1-.115.208-.229.314-.343.183-.2.366-.391.549-.584l.4-.417c.106-.109.213-.217.32-.323s.215-.215.323-.32q.811-.8 1.638-1.527.313-.274.625-.536 1.128-.944 2.268-1.729c.094-.065.189-.129.282-.189.183-.12.362-.238.543-.349.084-.055.166-.106.248-.153l.04-.026c.1-.063.208-.124.314-.185l.254-.145c.1-.059.209-.117.314-.172l.177-.093c.09-.051.181-.1.271-.141a16.3 16.3 0 0 1 1.981-.843c.059-.021.118-.042.177-.059.076-.027.152-.05.227-.074.128-.04.256-.078.382-.113.1-.03.2-.055.3-.08s.227-.057.343-.082c.1-.021.2-.044.3-.063.084-.017.17-.034.255-.046.042-.009.082-.015.124-.021.114-.019.227-.035.34-.05a10.337 10.337 0 0 1 2.073-.065c3.669.259 6.008 2.094 5.893 5.273-.104 3.366-2.962 8.221-9.878 14.302z" class="cls-15" transform="translate(-517.666 -288.224)"/>
                            <path id="Path_537" d="M566.265 291.316s10.551.175 13.913 12.294-16.526 25.666-21.972 27.181c0 0 19.3-12.4 18.731-24.014-.637-12.936-10.672-15.461-10.672-15.461z" class="cls-7" transform="translate(-522.478 -288.591)"/>
                            <path id="Path_538" d="M561.434 306.8c.115-3.179-2.224-5.014-5.893-5.273a10.337 10.337 0 0 0-2.073.065c-.114.015-.226.032-.34.05-.042.006-.082.012-.124.021-.085.012-.171.029-.255.046-.1.019-.2.042-.3.063-.116.025-.229.053-.343.082s-.2.05-.3.08c-.126.035-.255.073-.382.113-.076.024-.152.047-.227.074-.059.019-.118.038-.177.059a16.3 16.3 0 0 0-1.981.843c-.091.044-.182.09-.271.141-.059.029-.118.061-.177.093-.1.055-.211.113-.314.172l-.254.145c-.106.061-.209.122-.314.185l-.04.026c-.083.048-.165.1-.248.153-.181.111-.36.229-.543.349-.093.061-.188.124-.282.189q-1.142.783-2.268 1.729-.312.262-.625.536-.826.73-1.638 1.527c-.107.1-.215.212-.323.32s-.214.214-.32.323l-.4.417c-.183.193-.366.387-.549.584-.106.114-.209.227-.314.343-1.045 1.149-2.068 2.369-3.057 3.629-.189.24-.379.484-.566.727-.693.907-1.37 1.83-2.029 2.762-.093.133-.185.263-.278.4s-.183.265-.276.4c-1.233 1.784-2.4 3.589-3.476 5.347l-.2.337c-.053.086-.1.171-.156.257s-.111.183-.166.274l-.3.5c-.07.114-.139.229-.2.343q-.467.789-.909 1.555c-.072.124-.144.246-.213.37q-.482.846-.932 1.653c-.068.122-.133.242-.2.36-.479.867-.925 1.7-1.34 2.48-.1.182-.189.36-.282.537l-.353.679c-.1.2-.2.39-.3.576-.337.657-.642 1.265-.91 1.811l-.329.663-.294.61c-.068.139-.129.271-.19.4-.019.042-.04.082-.059.122-.053.114-.1.221-.152.323-.033.069-.063.132-.092.2s-.164.351-.189.405a2.152 2.152 0 0 1-.887.417h-4.143s.114-.54.339-1.511c1.69-7.23 9.715-38.267 24.472-45.781l.3-.15c.256-.124.513-.24.772-.349.3-.126.6-.248.907-.361 16.874.645 17.241 12.86 16.963 16.56z" class="cls-19" transform="translate(-517.666 -288.461)"/>
                        </g>
                        <g id="Group_94">
                            <path id="Path_539" d="M457.633 314.949c9.675 19.356 50.487 25.829 50.487 25.829l6.732-.748s-1.561-.686-4.05-1.85l-.093-.044h4.142s-.113-.541-.339-1.511c-1.688-7.231-9.7-38.269-24.457-45.788l-.3-.15c-.257-.123-.513-.24-.772-.349-.3-.126-.6-.249-.906-.362-17.356-6.567-39.953 5.949-30.444 24.973zm13.461-8.4c-.113-3.179 2.227-5.013 5.9-5.271a10.391 10.391 0 0 1 2.072.065c.114.015.227.032.341.051.042.006.082.012.124.021.084.012.17.029.255.046.1.019.2.042.3.063s.229.053.343.082.2.05.3.08c.126.035.255.073.383.114.075.023.151.046.227.073.059.017.118.038.177.059a16.174 16.174 0 0 1 1.981.844c.091.044.182.09.271.141.059.029.118.061.177.093.1.055.21.114.313.173l.255.145.314.185a.344.344 0 0 0 .04.026c.082.048.164.1.249.153.181.112.36.23.543.35.093.061.187.124.282.189q1.142.783 2.268 1.729.312.262.624.537.827.73 1.639 1.527l.322.32c.108.108.214.215.32.324l.4.417c.183.193.366.387.549.584.1.114.208.227.314.344 1.045 1.148 2.068 2.369 3.056 3.629.19.24.379.484.566.728.693.907 1.37 1.83 2.028 2.762.092.133.185.263.278.4s.183.265.276.4c1.232 1.785 2.4 3.59 3.474 5.349.07.114.137.225.2.337.052.086.1.17.155.256s.112.183.167.273l.3.5c.07.114.138.23.2.344q.467.788.909 1.555c.071.124.143.246.212.37.322.564.634 1.115.931 1.653l.2.36c.479.866.925 1.7 1.34 2.48.1.182.19.361.282.537l.353.679c.1.2.2.39.3.576.337.657.642 1.265.91 1.812.116.231.223.452.329.663l.294.61c.067.138.13.271.189.4l.058.122c.053.114.1.221.152.322.034.07.063.133.093.2l.08.175c.041.084.076.162.108.229-.509-.241-1.05-.5-1.616-.77-7.867-3.779-20.72-10.385-27.223-16.106-6.908-6.098-9.764-10.958-9.884-14.31z" class="cls-15" transform="translate(-455.38 -288.211)"/>
                            <path id="Path_540" d="M469.9 292.611s-10.453 1.444-12.331 13.881 19.5 23.488 25.087 24.337c0 0-20.655-9.984-21.487-21.582-.924-12.92 8.731-16.636 8.731-16.636z" class="cls-7" transform="translate(-455.627 -288.734)"/>
                            <path id="Path_541" d="M473.2 306.786c-.113-3.179 2.227-5.013 5.9-5.271a10.4 10.4 0 0 1 2.072.065c.114.015.227.032.341.051.042.006.082.012.124.021.084.012.17.029.255.046.1.019.2.042.3.063s.229.053.343.082.2.05.3.08c.126.035.255.073.383.114.075.023.151.046.227.073.059.019.118.038.177.059a16.173 16.173 0 0 1 1.981.844c.091.044.182.09.271.141.059.029.118.061.177.093.1.055.21.114.313.173l.255.145.314.185a.336.336 0 0 0 .04.026c.082.049.164.1.249.153.181.112.36.23.543.35.092.061.187.124.282.19q1.142.783 2.268 1.729.312.262.624.537.827.73 1.639 1.527l.322.32c.108.108.214.215.32.324l.4.417c.183.193.366.387.549.584.1.114.208.227.314.344 1.045 1.148 2.068 2.369 3.055 3.629.19.24.379.484.566.728.693.907 1.37 1.831 2.028 2.762.093.133.185.263.278.4s.183.265.276.4c1.232 1.785 2.4 3.59 3.474 5.349.07.114.137.225.2.337.052.086.1.17.155.256s.112.183.167.273l.3.5c.07.114.138.23.2.344q.467.788.909 1.555c.071.124.143.246.212.37.322.564.634 1.115.932 1.653l.2.36c.479.866.925 1.7 1.34 2.48.1.182.189.36.282.537q.182.348.353.68c.1.2.2.39.3.576.337.657.642 1.265.91 1.812.116.231.223.452.329.663l.294.61c.067.138.128.271.189.4.018.041.04.082.058.122.053.114.1.221.152.322.034.07.063.133.093.2s.164.352.19.406a2.15 2.15 0 0 0 .887.417h4.142s-.113-.541-.338-1.51c-1.688-7.231-9.7-38.269-24.457-45.789l-.3-.15c-.256-.123-.513-.24-.772-.349-.3-.126-.6-.249-.906-.362-16.881.64-17.254 12.852-16.981 16.554z" class="cls-19" transform="translate(-457.49 -288.449)"/>
                        </g>
                    </g>
                </g>
            </g>
        </g>
        <g id="Group_111">
            <g id="Group_107" transform="rotate(14.98 -721.314 2133.196)">
                <g id="Group_113">
                    <g id="Group_106" transform="translate(101.804 266.352)">
                        <g id="Group_105">
                            <path id="Path_587" d="M185.963 307.466a14.107 14.107 0 0 0-1.29-4.53c-3.493-7.522-13.333-14.366-24.02-16.063a26.064 26.064 0 0 0-15.428 2.645l-.009.007a17.533 17.533 0 0 1-.371-2.284c-.422-4.271.3-7.54 2.132-9.711a9.613 9.613 0 0 1 6-3.092.231.231 0 0 1 .039 0l-.246-3.93-.216-4.158a17.5 17.5 0 0 0-11.659 5.827c-3.369 3.918-4.753 9.252-4.111 15.849a26.9 26.9 0 0 0 1.421 6.26 29.048 29.048 0 0 0-2.165 2.16c-7.9 8.7-10.234 21.262-6.573 35.36 4.364 16.8-.641 29.429-7.141 34.052-4.629 3.29-10.315 3.005-16.018-.806l-4.5 6.736a29.187 29.187 0 0 0 4.541 2.5c7.186 3.138 14.516 2.54 20.668-1.832 10.8-7.674 10.718-27.16 6.082-45.019-3.783-14.556 1.4-25.345 8.928-25.538a43.638 43.638 0 0 0 13.21 12.8c8.088 5.056 16.425 6.582 22.869 4.183 5.427-2.021 8.369-6.288 7.857-11.416zm-12.748 4.334c-3.838.516-8.776-.889-13.688-3.958a35.385 35.385 0 0 1-11.1-10.868 18.515 18.515 0 0 1 10.958-2.1c10.5 1.667 18.1 9.168 18.521 13.4.062.641.193 1.974-2.628 3.022a9.155 9.155 0 0 1-1.777.461c-.183.029-.286.043-.286.043z" class="cls-2" transform="translate(-101.804 -266.352)"/>
                        </g>
                    </g>
                    <path id="Path_588" d="M153.245 302.306a9.156 9.156 0 0 0 1.777-.461c2.822-1.048 2.69-2.381 2.628-3.022-.422-4.233-8.026-11.734-18.521-13.4a18.515 18.515 0 0 0-10.958 2.1 18.511 18.511 0 0 1-3.212-7.445l.009-.008a26.064 26.064 0 0 1 15.428-2.645c10.686 1.7 20.527 8.542 24.02 16.063-.142 6.847-9.405 8.557-11.171 8.818z" class="cls-3" transform="translate(20.256 9.45)"/>
                </g>
            </g>
            <g id="Group_110">
                <path id="Rectangle_13" d="M0 0H12.448V37.343H0z" class="cls-1" transform="rotate(-150 553.093 48.759)"/>
                <path id="Rectangle_14" d="M0 0H13.525V40.574H0z" class="cls-15" transform="rotate(-45 1117.498 -1100.676)"/>
                <path id="Rectangle_15" d="M0 0H8.608V25.826H0z" class="cls-5" transform="matrix(-.998 -.07 .07 -.998 849.985 514.923)"/>
                <path id="Rectangle_16" d="M0 0H8.247V26.74H0z" class="cls-15" transform="rotate(-55.88 857.583 -337.58)"/>
                <path id="Rectangle_17" d="M0 0H6.448V19.343H0z" class="cls-5" transform="rotate(-111.519 553.234 183.423)"/>
            </g>
        </g>
    </g>
</svg>
