<svg xmlns="http://www.w3.org/2000/svg" width="649.608" height="433.862" viewBox="0 0 649.608 433.862">
    <defs>
        <style>
            .cls-10{mix-blend-mode:multiply;isolation:isolate}.cls-2{fill:#55a3f3}.cls-11,.cls-15,.cls-17,.cls-19{fill:none;stroke-miterlimit:10}.cls-4{fill:#2c54ac}.cls-5{fill:#fff}.cls-7{fill:#0a2a6b}.cls-11,.cls-15,.cls-19{stroke:#0a2a6b}.cls-10,.cls-9{fill:#ff8775}.cls-11{stroke-width:1.167px}.cls-17{stroke:#fff}.cls-19{stroke-width:.821px}
        </style>
    </defs>
    <g id="img" transform="translate(90.181 -66.138)">
        <g id="Group_597" style="mix-blend-mode:multiply;isolation:isolate" opacity="0.4">
            <g id="Group_591" transform="translate(29.981 41.642)">
                <path id="Path_1133" d="M35.037 245.919l-.688-1.5a7.5 7.5 0 0 1-.73-2.526 6.319 6.319 0 0 1 .16-2.043 14.165 14.165 0 0 1 .56-1.73 18.564 18.564 0 0 0 .717-2.024 2.978 2.978 0 0 0-.242-2.1 1.9 1.9 0 0 0-.791-.9 2.525 2.525 0 0 0-1.055-.321 1.97 1.97 0 0 0-.974.155 2.59 2.59 0 0 0-1.2 1.011 3.41 3.41 0 0 0-.458 1.392 9.265 9.265 0 0 0-.038 1.524l-3.956-.037a9.736 9.736 0 0 1 0-1.575 7.751 7.751 0 0 1 .477-2.136 7.131 7.131 0 0 1 1.343-2.226 7.4 7.4 0 0 1 2.57-1.829 8.034 8.034 0 0 1 3.155-.778 5.039 5.039 0 0 1 2.831.758 5.885 5.885 0 0 1 2.146 2.664 6.939 6.939 0 0 1 .73 2.714 6.333 6.333 0 0 1-.3 2.108q-.318.951-.642 1.887a11.207 11.207 0 0 0-.434 1.483 5.1 5.1 0 0 0-.077 1.662 6.433 6.433 0 0 0 .588 1.957l.271.591zm4.719 5.065a2.742 2.742 0 0 1-1.923.214 2 2 0 0 1-1.319-1.159 2.085 2.085 0 0 1-.009-1.777 2.632 2.632 0 0 1 1.383-1.354 2.523 2.523 0 0 1 1.9-.151 2.128 2.128 0 0 1 1.312 1.18 2.04 2.04 0 0 1 .045 1.743 2.622 2.622 0 0 1-1.389 1.303z" class="cls-2"/>
            </g>
            <g id="Group_593" transform="translate(103 40)">
                <path id="Path_1135" d="M230.218 88.073l-.486-2.579a11.9 11.9 0 0 1-.157-4.18 10.024 10.024 0 0 1 1.03-3.092 22.67 22.67 0 0 1 1.529-2.456 29.678 29.678 0 0 0 1.883-2.849 4.743 4.743 0 0 0 .431-3.333 3.023 3.023 0 0 0-.875-1.7 4.008 4.008 0 0 0-1.505-.9 3.127 3.127 0 0 0-1.563-.134 4.116 4.116 0 0 0-2.237 1.1 5.43 5.43 0 0 0-1.242 1.973 14.786 14.786 0 0 0-.643 2.339l-6.093-1.574a15.468 15.468 0 0 1 .6-2.432 12.323 12.323 0 0 1 1.556-3.116 11.343 11.343 0 0 1 2.928-2.92 11.778 11.778 0 0 1 4.669-1.838 12.793 12.793 0 0 1 5.169.01 8.018 8.018 0 0 1 4.079 2.256 9.356 9.356 0 0 1 2.291 4.937 11.042 11.042 0 0 1 .086 4.47 10.07 10.07 0 0 1-1.274 3.139q-.856 1.346-1.716 2.667a17.8 17.8 0 0 0-1.238 2.123 8.122 8.122 0 0 0-.757 2.537 10.22 10.22 0 0 0 .157 3.247l.193 1.022zm5.342 9.63a4.363 4.363 0 0 1-3.051-.408 3.176 3.176 0 0 1-1.592-2.3 3.32 3.32 0 0 1 .667-2.747 4.189 4.189 0 0 1 2.655-1.559 4.009 4.009 0 0 1 2.992.5 3.379 3.379 0 0 1 1.572 2.325 3.239 3.239 0 0 1-.6 2.708 4.168 4.168 0 0 1-2.643 1.478z" class="cls-2"/>
            </g>
            <g id="Group_594" transform="translate(-50 190)">
                <path id="Path_1136" d="M285.464 87.87l.47-1.881a8.821 8.821 0 0 1 1.184-2.853 7.39 7.39 0 0 1 1.646-1.757 16.446 16.446 0 0 1 1.783-1.176 21.987 21.987 0 0 0 2.142-1.332 3.493 3.493 0 0 0 1.317-2.1 2.229 2.229 0 0 0-.062-1.41 2.971 2.971 0 0 0-.732-1.069 2.307 2.307 0 0 0-1.007-.572 3.039 3.039 0 0 0-1.841.049 4 4 0 0 0-1.442.941 10.922 10.922 0 0 0-1.153 1.371l-3.6-2.936a11.4 11.4 0 0 1 1.153-1.447 9.1 9.1 0 0 1 2.005-1.611 8.388 8.388 0 0 1 2.866-1.056 8.706 8.706 0 0 1 3.7.207 9.446 9.446 0 0 1 3.466 1.6 5.924 5.924 0 0 1 2.041 2.773 6.915 6.915 0 0 1 .014 4.019 8.155 8.155 0 0 1-1.322 3.026 7.4 7.4 0 0 1-1.822 1.712q-.99.641-1.974 1.261a13.017 13.017 0 0 0-1.486 1.043 5.991 5.991 0 0 0-1.291 1.468 7.6 7.6 0 0 0-.9 2.228l-.186.745zm.614 8.109a3.226 3.226 0 0 1-1.921-1.215 2.349 2.349 0 0 1-.36-2.032 2.453 2.453 0 0 1 1.3-1.637 3.094 3.094 0 0 1 2.263-.227 2.964 2.964 0 0 1 1.855 1.255 2.5 2.5 0 0 1 .337 2.045 2.394 2.394 0 0 1-1.242 1.632 3.078 3.078 0 0 1-2.232.179z" class="cls-2"/>
            </g>
            <g id="Group_595" transform="translate(20 30)">
                <path id="Path_1137" d="M430.283 262.466l.418-2.588a11.933 11.933 0 0 1 1.269-3.979 10.043 10.043 0 0 1 2.016-2.555 22.4 22.4 0 0 1 2.268-1.788 29.369 29.369 0 0 0 2.734-2.039 4.725 4.725 0 0 0 1.534-2.984 3.009 3.009 0 0 0-.245-1.893 4.02 4.02 0 0 0-1.109-1.357 3.136 3.136 0 0 0-1.422-.655 4.11 4.11 0 0 0-2.475.277 5.406 5.406 0 0 0-1.834 1.432 14.751 14.751 0 0 0-1.4 1.979l-5.19-3.544a15.548 15.548 0 0 1 1.388-2.08 12.348 12.348 0 0 1 2.517-2.4 11.357 11.357 0 0 1 3.74-1.751 11.76 11.76 0 0 1 5.009-.143 12.762 12.762 0 0 1 4.851 1.761 8.007 8.007 0 0 1 3.067 3.5 9.346 9.346 0 0 1 .479 5.414 11.032 11.032 0 0 1-1.435 4.227 10.059 10.059 0 0 1-2.26 2.516q-1.26.975-2.515 1.924a17.718 17.718 0 0 0-1.883 1.575 8.1 8.1 0 0 0-1.571 2.126 10.225 10.225 0 0 0-.952 3.1l-.165 1.025zm1.755 10.855a4.349 4.349 0 0 1-2.727-1.417 3.17 3.17 0 0 1-.717-2.7 3.307 3.307 0 0 1 1.557-2.354 4.181 4.181 0 0 1 3.022-.564 4 4 0 0 1 2.642 1.479 3.377 3.377 0 0 1 .689 2.716 3.24 3.24 0 0 1-1.48 2.342 4.163 4.163 0 0 1-2.986.498z" class="cls-2"/>
            </g>
        </g>
        <g id="Group_602" transform="rotate(-21 781.452 464.949)">
            <g id="Group_598" transform="translate(2.167 -2.634)">
                <circle id="Ellipse_10" cx="44.613" cy="44.613" r="44.613" class="cls-2" transform="rotate(-74.276 69.398 41.247)"/>
                <ellipse id="Ellipse_11" cx="48.705" cy="44.613" fill="none" stroke="#55a3f3" stroke-miterlimit="10" stroke-width="1.051px" rx="48.705" ry="44.613" transform="rotate(-43.789 83.866 33.705)"/>
                <path id="Path_1139" d="M100.184 165.181l18.334 15.844-8.39-21.879z" class="cls-2" transform="translate(-38.097 -56.67)"/>
            </g>
            <g id="Group_601" transform="translate(47.322 32.956)">
                <g id="Group_599" transform="translate(2.119)">
                    <path id="Path_1140" d="M94.972 99.194l-1.1-4.122a19.366 19.366 0 0 1-.756-6.754 16.325 16.325 0 0 1 1.3-5.135 36.7 36.7 0 0 1 2.184-4.161 47.914 47.914 0 0 0 2.709-4.843 7.7 7.7 0 0 0 .3-5.452 4.9 4.9 0 0 0-1.622-2.65 6.528 6.528 0 0 0-2.548-1.28 5.088 5.088 0 0 0-2.548-.03 6.692 6.692 0 0 0-3.491 2.054 8.808 8.808 0 0 0-1.775 3.346 24.049 24.049 0 0 0-.762 3.868l-2.118.564-7.945-2.384a25.144 25.144 0 0 1 .68-4.015 20.022 20.022 0 0 1 2.146-5.235 18.443 18.443 0 0 1 4.394-5.084 19.133 19.133 0 0 1 7.346-3.538 20.758 20.758 0 0 1 8.376-.6 13.022 13.022 0 0 1 6.882 3.167 15.2 15.2 0 0 1 4.3 7.725 17.934 17.934 0 0 1 .676 7.233 16.374 16.374 0 0 1-1.688 5.238q-1.225 2.284-2.46 4.528a29 29 0 0 0-1.751 3.59 13.19 13.19 0 0 0-.923 4.2 16.667 16.667 0 0 0 .645 5.242l.435 1.633zm9.812 14.963a7.083 7.083 0 0 1-4.993-.3 5.163 5.163 0 0 1-2.855-3.529 5.39 5.39 0 0 1 .751-4.532 6.806 6.806 0 0 1 4.115-2.844 6.515 6.515 0 0 1 4.907.443 5.494 5.494 0 0 1 2.826 3.579 5.273 5.273 0 0 1-.645 4.461 6.777 6.777 0 0 1-4.106 2.722z" class="cls-4" transform="translate(-76.798 -53.552)"/>
                </g>
                <g id="Group_600" transform="translate(0 .564)">
                    <path id="Path_1141" d="M91.627 100.084l-1.1-4.122a19.382 19.382 0 0 1-.756-6.754 16.308 16.308 0 0 1 1.3-5.135 36.6 36.6 0 0 1 2.182-4.162 48.027 48.027 0 0 0 2.709-4.843 7.7 7.7 0 0 0 .3-5.452 4.9 4.9 0 0 0-1.622-2.65 6.526 6.526 0 0 0-2.547-1.28 5.091 5.091 0 0 0-2.549-.03 6.692 6.692 0 0 0-3.493 2.054 8.808 8.808 0 0 0-1.775 3.346 23.994 23.994 0 0 0-.761 3.868L73.453 73.1a25.156 25.156 0 0 1 .682-4.013 20.013 20.013 0 0 1 2.147-5.235 18.451 18.451 0 0 1 4.393-5.084 19.143 19.143 0 0 1 7.346-3.538 20.76 20.76 0 0 1 8.376-.6 13.018 13.018 0 0 1 6.881 3.167 15.2 15.2 0 0 1 4.3 7.725 17.932 17.932 0 0 1 .675 7.233 16.358 16.358 0 0 1-1.687 5.238q-1.226 2.284-2.46 4.528a29 29 0 0 0-1.751 3.59 13.19 13.19 0 0 0-.922 4.2 16.628 16.628 0 0 0 .645 5.242l.435 1.634zm9.812 14.963a7.083 7.083 0 0 1-4.993-.3 5.16 5.16 0 0 1-2.855-3.529 5.39 5.39 0 0 1 .751-4.532 6.806 6.806 0 0 1 4.115-2.844 6.515 6.515 0 0 1 4.907.443 5.5 5.5 0 0 1 2.826 3.579 5.273 5.273 0 0 1-.645 4.461 6.776 6.776 0 0 1-4.105 2.722z" class="cls-5" transform="translate(-73.453 -54.442)"/>
                </g>
            </g>
        </g>
        <g id="Group_607" transform="rotate(8 -.25 696.072)">
            <g id="Group_603">
                <circle id="Ellipse_12" cx="73.228" cy="73.228" r="73.228" class="cls-4" transform="rotate(-15.63 293.693 -1069.336)"/>
                <ellipse id="Ellipse_13" cx="79.944" cy="73.228" fill="none" stroke="#2c54ac" stroke-miterlimit="10" stroke-width="0.921px" rx="79.944" ry="73.228" transform="translate(309.076 17)"/>
                <path id="Path_1142" d="M417.19 152.815l-18.325 35.3-.5-38.459z" class="cls-4"/>
            </g>
            <g id="Group_606">
                <g id="Group_604">
                    <path id="Path_1143" d="M382.791 111.986l.332-6.726a30.578 30.578 0 0 1 2.112-10.519 25.738 25.738 0 0 1 4.422-7.1 57.569 57.569 0 0 1 5.283-5.209 76.036 76.036 0 0 0 6.4-5.98 12.15 12.15 0 0 0 3.07-8.055 7.741 7.741 0 0 0-1.163-4.764 10.319 10.319 0 0 0-3.215-3.149 8.047 8.047 0 0 0-3.818-1.271 10.567 10.567 0 0 0-6.24 1.409A13.917 13.917 0 0 0 385.7 64.8a37.919 37.919 0 0 0-3.005 5.449l-3.457-.171-10.8-7.405a39.751 39.751 0 0 1 2.954-5.706 31.644 31.644 0 0 1 5.746-6.84 29.137 29.137 0 0 1 9.052-5.531 30.215 30.215 0 0 1 12.747-1.786 32.783 32.783 0 0 1 12.886 3.119A20.562 20.562 0 0 1 420.648 54q3.172 5.309 2.757 13.685a28.293 28.293 0 0 1-2.463 11.2 25.854 25.854 0 0 1-5.057 7.065q-2.941 2.845-5.876 5.625a45.669 45.669 0 0 0-4.361 4.555 20.818 20.818 0 0 0-3.407 5.874 26.257 26.257 0 0 0-1.551 8.193l-.132 2.665zm7.557 27.218a11.184 11.184 0 0 1-7.365-2.845 8.15 8.15 0 0 1-2.6-6.681 8.507 8.507 0 0 1 3.309-6.451 10.736 10.736 0 0 1 7.556-2.3 10.287 10.287 0 0 1 7.166 3.027 8.678 8.678 0 0 1 2.528 6.741 8.324 8.324 0 0 1-3.115 6.4 10.7 10.7 0 0 1-7.479 2.105z" class="cls-2"/>
                </g>
                <g id="Group_605">
                    <path id="Path_1144" d="M379.334 111.815l.333-6.726a30.555 30.555 0 0 1 2.111-10.519 25.74 25.74 0 0 1 4.423-7.1 57.442 57.442 0 0 1 5.283-5.209 75.862 75.862 0 0 0 6.4-5.981 12.153 12.153 0 0 0 3.071-8.054 7.74 7.74 0 0 0-1.164-4.764 10.3 10.3 0 0 0-3.215-3.149 8.04 8.04 0 0 0-3.818-1.271 10.569 10.569 0 0 0-6.24 1.409 13.906 13.906 0 0 0-4.278 4.177 37.865 37.865 0 0 0-3.005 5.449l-14.255-7.576a39.751 39.751 0 0 1 2.954-5.706 31.673 31.673 0 0 1 5.746-6.84 29.13 29.13 0 0 1 9.052-5.531 30.215 30.215 0 0 1 12.747-1.786 32.757 32.757 0 0 1 12.886 3.119 20.551 20.551 0 0 1 8.824 8.071q3.172 5.308 2.758 13.685a28.314 28.314 0 0 1-2.464 11.2 25.812 25.812 0 0 1-5.057 7.065q-2.94 2.846-5.876 5.625a45.663 45.663 0 0 0-4.36 4.555 20.8 20.8 0 0 0-3.408 5.874 26.257 26.257 0 0 0-1.551 8.193l-.132 2.665zm7.558 27.218a11.194 11.194 0 0 1-7.366-2.845 8.152 8.152 0 0 1-2.6-6.681 8.51 8.51 0 0 1 3.309-6.452 10.742 10.742 0 0 1 7.557-2.3 10.282 10.282 0 0 1 7.165 3.026 8.685 8.685 0 0 1 2.529 6.741 8.328 8.328 0 0 1-3.116 6.4 10.7 10.7 0 0 1-7.478 2.111z" class="cls-5"/>
                </g>
            </g>
        </g>
        <g id="Group_612" transform="translate(36.788 41.258)">
            <g id="Group_608" transform="translate(173.972 96.728)">
                <circle id="Ellipse_14" cx="41.238" cy="41.238" r="41.238" class="cls-7" transform="rotate(-8.309 124.918 -46.21)"/>
                <ellipse id="Ellipse_15" cx="44.918" cy="41.238" fill="none" stroke="#0a2a6b" stroke-miterlimit="10" stroke-width="1.167px" rx="44.918" ry="41.238" transform="rotate(-17.171 87.831 13.26)"/>
                <path id="Path_1145" d="M251.671 222.8l11.706 14.546-1.433-17.72z" class="cls-7" transform="translate(-195.706 -131.105)"/>
            </g>
            <g id="Group_611" transform="translate(211.383 121.348)">
                <g id="Group_609" transform="translate(2.007)">
                    <path id="Path_1146" d="M241.961 172.543l-.491-3.905a17.869 17.869 0 0 1 .148-6.269 15.043 15.043 0 0 1 1.826-4.533 33.7 33.7 0 0 1 2.512-3.534 44.416 44.416 0 0 0 3.078-4.092 7.1 7.1 0 0 0 .95-4.948 4.522 4.522 0 0 0-1.152-2.624 6.029 6.029 0 0 0-2.17-1.487 4.7 4.7 0 0 0-2.327-.344 6.176 6.176 0 0 0-3.449 1.444 8.128 8.128 0 0 0-2.038 2.838 22.127 22.127 0 0 0-1.177 3.442l-2.007.252-6.967-3.166a23.225 23.225 0 0 1 1.121-3.584 18.487 18.487 0 0 1 2.614-4.52 17.019 17.019 0 0 1 4.649-4.1 17.661 17.661 0 0 1 7.156-2.321 19.156 19.156 0 0 1 7.734.488 12.016 12.016 0 0 1 5.9 3.751 14.031 14.031 0 0 1 2.975 7.6 16.546 16.546 0 0 1-.282 6.7 15.1 15.1 0 0 1-2.194 4.58q-1.4 1.936-2.812 3.834a26.674 26.674 0 0 0-2.048 3.064 12.146 12.146 0 0 0-1.366 3.727 15.334 15.334 0 0 0-.061 4.873l.194 1.547zm7.111 14.9a6.541 6.541 0 0 1-4.528-.891 4.763 4.763 0 0 1-2.172-3.582 4.975 4.975 0 0 1 1.25-4.049 6.278 6.278 0 0 1 4.116-2.089 6.008 6.008 0 0 1 4.431 1.016 5.072 5.072 0 0 1 2.139 3.623 4.867 4.867 0 0 1-1.145 4 6.257 6.257 0 0 1-4.091 1.971z" class="cls-2" transform="translate(-228.698 -130.909)"/>
                </g>
                <g id="Group_610" transform="translate(0 .252)">
                    <path id="Path_1147" d="M239.175 172.893l-.491-3.905a17.869 17.869 0 0 1 .148-6.269 15.042 15.042 0 0 1 1.825-4.533 33.8 33.8 0 0 1 2.512-3.534 44.428 44.428 0 0 0 3.079-4.092 7.105 7.105 0 0 0 .95-4.948 4.523 4.523 0 0 0-1.153-2.624 6.017 6.017 0 0 0-2.17-1.487 4.691 4.691 0 0 0-2.326-.344 6.171 6.171 0 0 0-3.449 1.443 8.12 8.12 0 0 0-2.039 2.838 22.2 22.2 0 0 0-1.177 3.442l-8.973-2.914a23.2 23.2 0 0 1 1.121-3.584 18.484 18.484 0 0 1 2.613-4.52 17.034 17.034 0 0 1 4.649-4.1 17.654 17.654 0 0 1 7.156-2.321 19.151 19.151 0 0 1 7.733.488 12.009 12.009 0 0 1 5.9 3.751 14.02 14.02 0 0 1 2.975 7.6 16.536 16.536 0 0 1-.282 6.7 15.085 15.085 0 0 1-2.194 4.58q-1.4 1.936-2.811 3.834a26.673 26.673 0 0 0-2.048 3.064 12.146 12.146 0 0 0-1.366 3.727 15.352 15.352 0 0 0-.062 4.873l.194 1.547zm7.111 14.9a6.54 6.54 0 0 1-4.528-.89 4.764 4.764 0 0 1-2.172-3.583 4.969 4.969 0 0 1 1.25-4.049 6.274 6.274 0 0 1 4.116-2.09 6.011 6.011 0 0 1 4.431 1.016 5.072 5.072 0 0 1 2.14 3.623 4.867 4.867 0 0 1-1.145 4 6.255 6.255 0 0 1-4.092 1.972z" class="cls-5" transform="translate(-225.912 -131.259)"/>
                </g>
            </g>
        </g>
        <g id="Group_615">
            <path id="Path_1148" d="M101.687 479.882l-41.559-26.338 12.206-24.921-29.65-11.157-20.834 46.647s29.45 13.422 49.86 21.144 35.094 8.151 35.094 8.151z" class="cls-9"/>
            <path id="Path_1149" d="M229.189 455.341L235.821 500H101.472l10.119-36.271z" class="cls-7"/>
            <path id="Path_1150" d="M123.293 268.668v48.138l-11.7 5.784s21.141 37.309 39.435 25.452 18.005-32.393 18.005-32.393l-14.171-.578L153.7 298.3l-22.848-33.26z" class="cls-9"/>
            <path id="Path_1151" d="M124.225 225.746c-2.377 7.184-2.814 14.989-2.59 22.642.443 15.168 5.482 30.441 12.273 43.593a38.9 38.9 0 0 0 6.438 9.429c7.4 7.577 21.064 9.308 29.755 3.692a35.392 35.392 0 0 0 8.176-7.779c6.594-8.245 8.346-19.359 10.208-31.018 1.866-11.681 3.835-23.909 2.124-34.811-.972-6.194-3.934-8.832-7.242-13.923a29.488 29.488 0 0 0-20.64-12.817c-8.249-1.166-16.534 1.044-24.384 3.72-6.82 2.326-11.76 10.143-14.118 17.272z" class="cls-9"/>
            <path id="Path_1152" d="M128.973 225.768a61.911 61.911 0 0 1-3.891 42.818 32.542 32.542 0 0 1-14.242-13.253 52.15 52.15 0 0 1-5.435-18.575c-.551-4.646-.645-9.534 1.271-13.8s6.316-7.718 10.967-7.21c.6-5.542 4.657-10.823 9.18-14.079s10.005-4.955 15.511-5.823a60.1 60.1 0 0 1 45.647 11.754c3.269 2.54 6.351 5.536 7.965 9.348s1.477 8.585-1.222 11.723c-3.2 3.722-8.724 4.115-13.631 4.231-18.57.44-35.331.815-52.12-7.134z" class="cls-7"/>
            <g id="Group_613">
                <path id="Path_1153" d="M109.647 260.582a15.01 15.01 0 0 0 6.543 10.292 7.8 7.8 0 0 0 3.634 1.394c2.95.212 5.617-2.2 6.516-5.021s.379-5.9-.515-8.715c-1.155-3.645-3.373-7.47-7.095-8.341-6.002-1.405-9.815 5.253-9.083 10.391z" class="cls-9"/>
                <path id="Path_1154" d="M123.293 268.668a7.281 7.281 0 0 1-3.35-2.169 1.476 1.476 0 0 1-.394-.7c-.084-.51.313-.962.68-1.327l2.228-2.215a.923.923 0 0 0 .289-1.183c-.841-2.807-1.836-5.832-4.254-7.487a4.114 4.114 0 0 0-2.2-.793 4.005 4.005 0 0 0-3.028 1.562 10.88 10.88 0 0 0-1.638 3.1s-.622 6.01 3.55 9.63 8.117 1.582 8.117 1.582z" class="cls-10"/>
                <path id="Path_1155" d="M111.624 257.458a10.88 10.88 0 0 1 1.638-3.1 4.005 4.005 0 0 1 3.028-1.562 4.114 4.114 0 0 1 2.2.793c2.418 1.655 3.413 4.68 4.254 7.487a.923.923 0 0 1-.289 1.183l-2.228 2.215c-.367.365-.764.817-.68 1.327a1.476 1.476 0 0 0 .394.7 7.281 7.281 0 0 0 3.35 2.169" class="cls-11"/>
            </g>
            <path id="Path_1156" d="M117.458 319.69s-42.422 19.675-49.364 26.327S25 411.091 25 411.091s11.355 13.015 24.621 18.221 27.727 5.495 27.727 5.495l15.618-33.26 18.624 62.182s29.965 21.98 68.72 16.774 48.878-25.162 48.878-25.162l-7.52-53.395s14.461-3.581 24-11.1 20.832-21.691 20.832-21.691-45.986-43.672-50.9-49.168-51.2-4.527-51.2-4.527 1.739 17.253-12.143 20.145-34.799-15.915-34.799-15.915z" class="cls-2"/>
            <path id="Path_1157" d="M154.376 308.052a31.764 31.764 0 0 1-13.862-7c-3.607-3.028-6.488-6.812-9.337-10.562a44.233 44.233 0 0 0 3.117 6.277 40.655 40.655 0 0 0 8.3 9.845 22.97 22.97 0 0 0 12.048 5.315" class="cls-7"/>
            <path id="Path_1158" d="M157.4 254.743c0 2.031-1.127 3.678-2.517 3.678s-2.518-1.647-2.518-3.678 1.127-3.679 2.518-3.679 2.517 1.647 2.517 3.679z" class="cls-7"/>
            <path id="Path_1159" d="M182.808 254.743c0 2.031-1.127 3.678-2.518 3.678s-2.517-1.647-2.517-3.678 1.127-3.679 2.517-3.679 2.518 1.647 2.518 3.679z" class="cls-7"/>
            <path id="Path_1160" fill="none" stroke="#0a2a6b" stroke-miterlimit="10" stroke-width="1.24px" d="M170.328 250a53.826 53.826 0 0 1 4.658 25.673h-11.131"/>
            <ellipse id="Ellipse_16" cx="4.687" cy="2" class="cls-7" rx="4.687" ry="2" transform="translate(164.36 287.805)"/>
            <path id="Path_1161" fill="none" stroke="#0a2a6b" stroke-miterlimit="10" stroke-width="4px" d="M143.835 248.667a17.542 17.542 0 0 1 8.8-7.328 24.826 24.826 0 0 1 11.477-1.41"/>
            <path id="Path_1162" fill="none" stroke="#0a2a6b" stroke-miterlimit="10" stroke-width="3.785px" d="M188.485 248.667a16.267 16.267 0 0 0-7.882-7.328 20.072 20.072 0 0 0-10.275-1.41"/>
            <path id="Path_1163" d="M111.591 322.59s22.358 22.062 43.052 17.419c20.721-4.649 16.072-24.614 16.072-24.614" class="cls-15"/>
            <path id="Path_1164" d="M222.134 403.974a338.165 338.165 0 0 0-9.63-61.535" class="cls-15"/>
            <path id="Path_1165" d="M261.276 364.188s-7.807 13.2-16.734 19.522-23.041 11.9-23.041 11.9" class="cls-15"/>
            <path id="Path_1166" d="M91.805 403.414a63.738 63.738 0 0 0 4.659-26.044c-.45-8.874-3.358-17.74-8.97-24.627" class="cls-15"/>
            <path id="Path_1167" d="M28.1 406.108s6.861 9.4 21.738 16.654 30.362 5.974 30.362 5.974" class="cls-15"/>
            <g id="Group_614" opacity="0.31">
                <path id="Path_1168" d="M118.491 211.316c8.4 5.26 18.868 5.9 28.751 5.214s19.76-2.541 29.629-1.685c4.31.373 8.73 1.333 12.191 3.93s5.724 7.152 4.586 11.326" class="cls-17"/>
                <path id="Path_1169" d="M125.722 202.616c6.063 2.355 12.851 1.907 19.243.7s12.667-3.139 19.15-3.665 13.425.539 18.448 4.671" class="cls-17"/>
                <path id="Path_1170" d="M124.254 224.963a12.276 12.276 0 0 1-1.664 7.486 26.629 26.629 0 0 1-16.181 13.13" class="cls-17"/>
                <path id="Path_1171" d="M115.207 219.685a19.491 19.491 0 0 1-10.307 11.976l.415-.957" class="cls-17"/>
            </g>
            <path id="Path_1172" d="M105.305 493.316s5.272-1.114 7.507-2.785 4.292-4.247 4.6-7.02c2.864.354 4.988 2.775 7.606 3.99a1.15 1.15 0 0 0 .954.119c.487-.235.437-.938.284-1.457a15.618 15.618 0 0 0-12.327-10.853 26.577 26.577 0 0 1 8.133 2.027c1.763.865 3.372 2.136 5.3 2.521a.794.794 0 0 0 .577-.04.688.688 0 0 0 .264-.539 3.5 3.5 0 0 0-1.53-2.7 29.351 29.351 0 0 0-15.325-7.132 25.18 25.18 0 0 1 16.792 2.8 3.787 3.787 0 0 0 1.633.63 1.182 1.182 0 0 0 1.276-.954 1.529 1.529 0 0 0-.185-.712 12.158 12.158 0 0 0-5.169-5.088 26.712 26.712 0 0 0-17.955-3.38 26.4 26.4 0 0 1 17.356-.515 29.886 29.886 0 0 0 4.658 1.366.686.686 0 0 0 .541-.077c.26-.212.1-.629-.083-.909a16.51 16.51 0 0 0-10.98-6.9c-4.382-.751-9.387-.8-12.846 1.991a34.865 34.865 0 0 0-2.511 8.37c-.743 4.622-2.185 13.814-2.185 13.814l-4.39.217 7.128 13.141z" class="cls-9"/>
            <path id="Path_1173" d="M255.973 381.19a68.4 68.4 0 0 1-10.655 9.407 115.658 115.658 0 0 1-11.456 7.075l24.764 33.154-19.053 32.6s-3.217-8.571-4.851-12.876a34.288 34.288 0 0 0-4.084-7.566c-3.888-2-8.7-.961-12.774.634a16.252 16.252 0 0 0-9.209 8.831c-.122.307-.191.74.1.893a.4.4 0 0 0 .15.043 3.557 3.557 0 0 0 2.278-.833 25.849 25.849 0 0 1 19.152-4.439 26.586 26.586 0 0 0-19.1 9.353 5.883 5.883 0 0 0-1.565 3.911.913.913 0 0 0 .03.214 1.161 1.161 0 0 0 1.419.666 3.718 3.718 0 0 0 1.448-.932 24.777 24.777 0 0 1 15.624-6.035 28.887 28.887 0 0 0-13.35 9.918 3.452 3.452 0 0 0-.937 2.908.682.682 0 0 0 .362.466.781.781 0 0 0 .564-.076c1.778-.754 3.076-2.3 4.6-3.482a26.16 26.16 0 0 1 7.435-3.571 15.367 15.367 0 0 0-9.721 12.909c-.045.53.047 1.218.563 1.347a1.13 1.13 0 0 0 .895-.3c2.282-1.691 3.847-4.446 6.537-5.357.848 2.612 3.341 4.686 5.827 5.851a12.954 12.954 0 0 0 4.97 1.155h.039a19.934 19.934 0 0 0 12.795-5.329l42.4-46.845z" class="cls-9"/>
            <path id="Path_1174" fill="none" stroke="#0a2a6b" stroke-miterlimit="10" stroke-width="0.984px" d="M254.445 437.98s6.675-12.585 12.763-17.074a35.16 35.16 0 0 1 12.175-5.781"/>
            <path id="Path_1175" d="M67.287 458.081s-2.673-1.919-7.159-4.537-12.486-3.681-18.111-2.556" class="cls-15"/>
        </g>
        <g id="Group_621">
            <g id="Group_617">
                <g id="Group_616">
                    <path id="Path_1176" d="M318.359 360.083s-6.07-12.5-10.186-15.512-14.121-6.476-16.032-6.4-.877 3.946-.056 4.7 6.661 4.742 6.661 4.742-9.749-3.461-11.97-5.207-15.023-14.32-16.44-13.859-.151 5.634 1.815 7.855 13.615 12.678 13.615 12.678-19.309-15.612-20.644-15.055-2.533 10.375 2.878 16.367 14.2 10.966 17.608 12.058 14.611 2.877 14.611 2.877l4.13 4.342z" class="cls-9"/>
                    <path id="Path_1177" d="M298.724 347.547a15.341 15.341 0 0 0 4.582 11.025" class="cls-19"/>
                    <path id="Path_1178" d="M265.413 345.584a.968.968 0 0 1 1.2-.723 2.885 2.885 0 0 1 1.3.864 69.024 69.024 0 0 0 16.259 11.632" class="cls-19"/>
                    <path id="Path_1179" d="M264.106 340.136c.256-.809.736-1.785 1.583-1.743a2 2 0 0 1 1.194.711c5.073 4.95 10.922 9.021 16.741 13.068" class="cls-19"/>
                </g>
                <path id="Path_1180" d="M300.216 365.327l30.666 100.548 17.3-35.368-29.819-70.424z" class="cls-9"/>
            </g>
            <path id="Path_1181" d="M389.7 276.125s18.8-21.356 17.342-35.474a54.469 54.469 0 0 0-4.892-17.566 27.527 27.527 0 0 0-7.4-10.1c-4.21-3.33-9.619-4.637-14.81-6.006-7.641-2.015-15.482-4.371-23.308-3.272-5.807.816-11.3 3.244-16.505 5.953-6.55 3.414-9.1 10.04-11.516 17.021A67.488 67.488 0 0 0 324.7 248.4a31.367 31.367 0 0 1-.756 8.589c-1.264 4.4-9.643 11.257-9.643 11.257s5.711 3 8.555 3.61c1.09 3.743 1.956 6.955 2.911 10.111.114-.008.225-.022.342-.022 1.795 0 4.339.956 4.339 2.106 0 .935-2.057 1.693-3.381 1.957.721 2.113 1.529 4.282 2.539 6.658.76 1.79 3.392 6.486 4.99 7.593a9.5 9.5 0 0 0 5.693 1.213 41.193 41.193 0 0 0 16.643-3.954c.414 2.465.381 4.419.6 6.909a23.927 23.927 0 0 1-.01 5.767c-.657 4.247-3.256 7.9-5.78 11.383 5.844 2.526 12.329 1.948 18.622.983 6.946-1.065 14.384-2.737 19-8.033 1.764.039 1.212-.309 1.747-1.99a21.241 21.241 0 0 0 .387-5.253z" class="cls-9"/>
            <path id="Path_1182" d="M391.5 307.288a58.662 58.662 0 0 1-20.1 10.6c-11.3 3.082-17.833 1.118-17.833 1.118s-16.742 25.267-19.42 60.893-6.7 120.1-6.7 120.1h116.058L419.22 378.03l22.5-10.266s-9.423-23.038-18.609-37.738a52.182 52.182 0 0 0-31.611-22.738z" class="cls-7"/>
            <path id="Path_1183" d="M429.79 373.207l-31.041 13.882L414.27 434.6 388.757 500h20.517l32.172-67.489z" class="cls-9"/>
            <path id="Path_1184" d="M398.749 387.089l-13.272 6.331s-10.71-27.47-12.838-41.012.773-27.47.773-27.47" class="cls-17"/>
            <path id="Path_1185" d="M356.444 297.673a38.691 38.691 0 0 0 10.773-10.452 44.9 44.9 0 0 1-9.8 15.769z" class="cls-7"/>
            <path id="Path_1186" d="M335.235 255.393c0 1.8-.974 3.263-2.177 3.263s-2.176-1.461-2.176-3.263.974-3.263 2.176-3.263 2.177 1.461 2.177 3.263z" class="cls-7"/>
            <path id="Path_1187" fill="none" stroke="#0a2a6b" stroke-miterlimit="10" stroke-width="3px" d="M342.289 252.545a14.4 14.4 0 0 0-15.813-8.948"/>
            <g id="Group_619">
                <path id="Path_1188" d="M397.009 286.149a9.638 9.638 0 0 0 1.111 3.013c.4 1 .461 2.335-.411 2.967a2.809 2.809 0 0 1-2.045.276 18.154 18.154 0 0 1-15.012-15.08l.214 3.65a2.136 2.136 0 0 1-.27 1.464 1.686 1.686 0 0 1-1.589.45c-2.1-.311-3.53-2.236-4.641-4.044a71.525 71.525 0 0 0-15.769-17.62s-6.046-13.253 4.8-28.662a33.2 33.2 0 0 1-15.369 6.443 4.374 4.374 0 0 1-2.051-.008 1.634 1.634 0 0 1-1.206-1.5 2.328 2.328 0 0 1 .568-1.218 27.377 27.377 0 0 1 5.186-5.272c-7.074 3.5-15.62 4.566-23.506 4.861-1.067.04-2.473-.207-2.611-1.264a2.053 2.053 0 0 1 .481-1.362 13.835 13.835 0 0 1 3.29-3.386c-4.942 2.272-9.95 4.275-15.087 2.485a5.289 5.289 0 0 1-2.871-2.038 2.628 2.628 0 0 1 .313-3.285 4.706 4.706 0 0 1 1.47-.716c6.862-2.547 10.693-9.632 15.633-15.032a39.6 39.6 0 0 1 25.188-12.56 14.77 14.77 0 0 1-4.35-2.684 2.637 2.637 0 0 1-1.142-1.912c.034-1.154 1.335-1.786 2.442-2.113a43.049 43.049 0 0 1 49.216 19.313c-.121-2.311-.263-4.223-.384-6.535-.065-1.236.1-2.818 1.276-3.189a2.4 2.4 0 0 1 2.224.793c2.715 2.534 3 6.667 3.1 10.379a17.621 17.621 0 0 1 6.133 2.672 8.989 8.989 0 0 1 3.841 5.546c.061.332.068.74-.212.928a.926.926 0 0 1-.674.061 54.03 54.03 0 0 1-7.123-1.671c5.862 5.244 8.137 14.04 7.5 21.879s-3.84 15.237-7.494 22.2-10.527 13.914-10.169 21.771z" class="cls-7"/>
                <g id="Group_618" opacity="0.29">
                    <path id="Path_1189" d="M327.2 229.566a9.887 9.887 0 0 0 5.35-2.571c5.609-4.572 9.651-10.964 15.719-14.907a25.061 25.061 0 0 1 21.809-2.517 10.3 10.3 0 0 1-1.84-3.626 2.118 2.118 0 0 1-.04-1.347c.323-.8 1.362-.984 2.223-.958a20.681 20.681 0 0 1 8.279 2.513c6.785 3.314 13.051 7.585 19.29 11.84" class="cls-17"/>
                    <path id="Path_1190" d="M395.2 222.241a21.557 21.557 0 0 0-13.446-3.807c-6.331.362-12.12 3.482-17.8 6.3q-7.752 3.846-15.78 7.1" class="cls-17"/>
                    <path id="Path_1191" d="M399.358 225.594a23.3 23.3 0 0 1-3.631 30.624c1.411-.15 2.244 1.585 2.31 3 .135 2.892-1.054 5.675-2.41 8.232a44.309 44.309 0 0 0-3.1 6.34 16.45 16.45 0 0 0 5.529 17.951" class="cls-17"/>
                    <path id="Path_1192" d="M381.544 279.628a55.564 55.564 0 0 1-1.2-27.416 42.629 42.629 0 0 1 13.891-23.43" class="cls-17"/>
                </g>
            </g>
            <g id="Group_620">
                <path id="Path_1193" d="M375.753 258.109a15.007 15.007 0 0 1-6.543 10.291 7.783 7.783 0 0 1-3.633 1.395c-2.95.212-5.617-2.2-6.517-5.022s-.379-5.895.515-8.715c1.155-3.644 3.373-7.469 7.1-8.341 5.998-1.404 9.811 5.254 9.078 10.392z" class="cls-9"/>
                <path id="Path_1194" d="M362.107 266.2a7.27 7.27 0 0 0 3.35-2.17 1.469 1.469 0 0 0 .394-.7 1.669 1.669 0 0 0-.68-1.327q-1.113-1.109-2.227-2.215a.923.923 0 0 1-.289-1.183c.84-2.807 1.835-5.833 4.253-7.488a4.121 4.121 0 0 1 2.2-.792 4 4 0 0 1 3.028 1.561 10.914 10.914 0 0 1 1.639 3.1s.622 6.01-3.551 9.63-8.117 1.584-8.117 1.584z" class="cls-10"/>
                <path id="Path_1195" d="M373.777 254.986a10.914 10.914 0 0 0-1.639-3.1 4 4 0 0 0-3.028-1.561 4.121 4.121 0 0 0-2.2.792c-2.418 1.655-3.413 4.681-4.253 7.488a.923.923 0 0 0 .289 1.183l2.227 2.215a1.669 1.669 0 0 1 .68 1.327 1.469 1.469 0 0 1-.394.7 7.27 7.27 0 0 1-3.35 2.17" class="cls-11"/>
            </g>
        </g>
    </g>
</svg>
