<svg xmlns="http://www.w3.org/2000/svg" width="569.719" height="735.334" viewBox="0 0 569.719 735.334"><g transform="translate(-588.183 -1055.143)"><path d="M128.953,7.769.2,118.74,123.122.207Z" transform="matrix(-0.087, -0.996, 0.996, -0.087, 946.923, 1790.699)" fill="#00274d"/><path d="M0,0,99.145,4.967,0,9.934Z" transform="translate(869.353 1243.612) rotate(-90)" fill="#00274d"/><path d="M9.114.047l7.363,83.811L.01,1.967Z" transform="translate(1009.386 1470.548) rotate(-106)" fill="#00274d"/><path d="M105.971,143.457,0,0,112.915,137.177Z" transform="translate(664.954 1640.473) rotate(-81)" fill="#00274d"/><path d="M61.22,5.71,0,185.2,51.555,0Z" transform="translate(841.802 1345.005) rotate(90)" fill="#00274d"/><path d="M118.058,139.771,0,0,124.622,128.424Z" transform="translate(1074.695 1176.594) rotate(90)" fill="#ff4e00"/><path d="M156.117,514.316c-3.3-51.954-16.431-83.53-43.913-105.589-22.432-18-51.253-20.432-76.489-20.432-5.538,0-10.926.121-16.136.237L0,388.97l15.577-16.128c28.12-29.114,77.558-58.889,81.717-117.278-6.238-94.535-33.326-135.1-66.542-180.729,43.373,26.224,90.2,20.853,125.365,11.122C196.359,69.711,200.225,58.153,230.681,0l9.053,19.226c20.645,43.842,88.85,94.07,122.548,94.092,34.822,0,77.7-33.118,97.644-75.4l5.594-11.856,5.142,12.241c16.375,38.981,43.375,70.045,74.081,85.227a105.793,105.793,0,0,0,47.24,11.207,106.193,106.193,0,0,0,49.145-12.148l21.628-11.173L648.24,136.236c-18.331,31.341-26.669,70.9-22.3,105.807,4.277,34.206,20.074,64.336,46.952,89.55l19.982,18.745-24.06-2.848a127.155,127.155,0,0,0-14.894-.909c-24.337,0-45.374,7.836-64.316,23.955-23.175,19.723-41.558,51.428-50.439,86.982l-3.536,14.155-7.16-11.239c-16.505-25.915-44.786-40.777-77.592-40.777-3.358,0-6.775.16-10.155.475-33.888,3.161-64.457,38.8-79.719,72.727L356.347,503.2l-5.581-9.421c-20.352-34.348-51.861-54.855-84.286-54.855-2.467,0-4.955.122-7.4.368-33.992,3.411-73.235,37.267-91.28,78.753l-9.993,22.973Z" transform="translate(1143.064 1067.574) rotate(90)" fill="#0099db"/><path d="M513.841,434c-21.357-33.532-57.6-46.532-92.907-43.239s-67.967,39.743-84.649,76.822c-23.178-39.119-60.53-61.318-97.016-57.659s-77.379,39.622-96.228,82.956c-3.573-56.287-18.485-89.454-47.029-112.365S29.853,358.472,0,359.14c-.009-1.853,90.446-54.681,88.367-126.973S63.414,112.608,34.583,71.569c29.87,25.746,102.65,6.283,116.166,0S199.616,44.487,216.251,0C237,44.065,304.881,101.331,342.921,101.356S425.07,66.043,445.852,22c17.207,40.964,45.143,73.1,77.411,89.058s68.614,15.6,100.716-.985c-18.165,31.058-28.6,72.861-23.614,112.772s24.16,71.389,49.626,95.279c-31.374-3.713-58.477,3.392-83.054,24.308S523.26,396.288,513.841,434Z" transform="translate(1115.837 1091.779) rotate(90)" fill="#f4f2d6"/><path d="M156.209,543.506a2,2,0,0,1-2-1.891l-1.46-26.674a260.5,260.5,0,0,0-4.046-34.984,146.848,146.848,0,0,0-8.137-28.2A100.857,100.857,0,0,0,127.98,429.27a96.454,96.454,0,0,0-17.48-17.914,75.943,75.943,0,0,0-16.34-9.87,94.831,94.831,0,0,0-17.783-5.81c-10.409-2.344-22.116-3.436-36.844-3.436-1.331,0-2.673.008-4.1.025-5.5.065-10.855.247-16.038.423l-.063,0-19.59.669a2,2,0,0,1-1.9-1.185,2,2,0,0,1,.388-2.2l15.725-16.306C19.98,367.419,26.888,361.193,34.2,354.6c6.8-6.131,13.838-12.47,20.66-19.282a193.915,193.915,0,0,0,19.2-21.928A119.551,119.551,0,0,0,88.8,287.611,102.95,102.95,0,0,0,93.6,272.88a103.773,103.773,0,0,0,2.575-16.052c-.659-11.445-1.66-22.449-2.978-32.709-1.273-9.911-2.885-19.479-4.792-28.438a260.451,260.451,0,0,0-14.279-46.459C62.834,122.13,48.176,101,31.577,78.135a2,2,0,0,1,2.642-2.893,126.048,126.048,0,0,0,16.933,8.435,126.543,126.543,0,0,0,17.109,5.569,141,141,0,0,0,33.972,4.017,179.376,179.376,0,0,0,29.159-2.5,236.28,236.28,0,0,0,26.462-6.048c9.867-4.086,16.9-7.591,22.78-11.358A70.154,70.154,0,0,0,196.3,59.844c9.3-10.747,17.167-25.662,30.193-50.373,1.785-3.386,3.631-6.888,5.6-10.611A2,2,0,0,1,233.917-2.2a2,2,0,0,1,1.762,1.156l8.888,19.114a108.4,108.4,0,0,0,9.452,16.145,166.46,166.46,0,0,0,12.946,16.148A233.75,233.75,0,0,0,299.53,79.907a200.935,200.935,0,0,0,35.05,21.448,106.485,106.485,0,0,0,16,6.055,51.329,51.329,0,0,0,13.565,2.125l.36,0c8.265-.1,17.166-2.115,26.455-6A119,119,0,0,0,417.91,87.478a152.13,152.13,0,0,0,24.368-23.9,147.2,147.2,0,0,0,18.79-29.428l5.7-11.918a2,2,0,0,1,3.652.1l5.037,12.177c15.854,38.33,42.237,68.689,72.386,83.294a102.581,102.581,0,0,0,45.047,10.455c.4,0,.814,0,1.219-.007a105.841,105.841,0,0,0,48.365-12.493l21.735-11.424a2,2,0,0,1,2.653,2.787L652.12,132.1c-18.4,31.185-26.991,70.358-22.98,104.789,3.922,33.662,19.251,63.182,45.562,87.74l19.826,18.5a2,2,0,0,1-1.577,3.451l-24.046-2.564a126.146,126.146,0,0,0-13.335-.73c-.44,0-.885,0-1.321.008a102.356,102.356,0,0,0-17.333,1.65,92.5,92.5,0,0,0-16.223,4.551,95.084,95.084,0,0,0-15.267,7.5,110.479,110.479,0,0,0-14.454,10.521c-23.052,19.728-41.49,51.266-50.588,86.528l-3.662,14.192a2,2,0,0,1-3.626.571l-7.064-11.151a81.407,81.407,0,0,0-31.16-28.746,87.41,87.41,0,0,0-20.376-7.579,98.6,98.6,0,0,0-22.766-2.605c-.42,0-.829,0-1.25.007-3.3.039-6.655.235-9.978.584a62.793,62.793,0,0,0-23.922,7.972,103.463,103.463,0,0,0-21.965,16.835,152.153,152.153,0,0,0-18.7,22.585A169.482,169.482,0,0,0,361.722,491.8L356.977,502.2a2,2,0,0,1-3.543.183l-5.5-9.353a126.968,126.968,0,0,0-16.563-22.314A106.213,106.213,0,0,0,311.692,454.1a88.739,88.739,0,0,0-21.852-10.363,77.612,77.612,0,0,0-23.117-3.573c-.3,0-.585,0-.882.005-2.417.028-4.84.177-7.2.442-16.064,1.8-34.1,10.755-50.775,25.221a155.418,155.418,0,0,0-39.629,53.4l-10.2,23.084A2,2,0,0,1,156.209,543.506ZM39.532,388.24c15.032,0,27.019,1.123,37.723,3.534a98.833,98.833,0,0,1,18.535,6.059,79.942,79.942,0,0,1,17.2,10.393,100.4,100.4,0,0,1,18.194,18.649,100.876,100.876,0,0,1,7.16,11.038,112.58,112.58,0,0,1,5.925,12.326,150.782,150.782,0,0,1,8.364,28.963,264.437,264.437,0,0,1,4.112,35.519l1,18.347,6.828-15.455a154.248,154.248,0,0,1,17.587-29.909,158.914,158.914,0,0,1,23.079-24.9,127.278,127.278,0,0,1,26.13-17.76,80.209,80.209,0,0,1,26.82-8.414c2.494-.28,5.051-.437,7.6-.467.312,0,.616-.005.929-.005a81.612,81.612,0,0,1,24.307,3.755,92.744,92.744,0,0,1,22.839,10.826,110.212,110.212,0,0,1,20.422,17.24A130.97,130.97,0,0,1,351.381,491l3.553,6.041,3.149-6.9a173.5,173.5,0,0,1,14.524-25.686,156.166,156.166,0,0,1,19.2-23.179,107.444,107.444,0,0,1,22.826-17.48,66.754,66.754,0,0,1,25.451-8.456c3.446-.361,6.927-.565,10.348-.605.437-.005.861-.008,1.3-.008a102.607,102.607,0,0,1,23.691,2.713,91.414,91.414,0,0,1,21.309,7.928,85.407,85.407,0,0,1,32.682,30.148L534,462.768l2.508-9.719c9.3-36.037,28.2-68.319,51.86-88.568,19.464-16.655,41-24.893,65.83-25.184.452-.005.912-.008,1.368-.008a130.165,130.165,0,0,1,13.759.753l18.091,1.929-15.448-14.419c-27.024-25.223-42.772-55.571-46.806-90.2-4.109-35.268,4.679-75.374,23.508-107.285l11.165-18.92-15.506,8.15a109.8,109.8,0,0,1-50.179,12.952c-.42,0-.846.007-1.266.007A106.55,106.55,0,0,1,546.1,121.4c-31.019-15.027-58.114-46.141-74.338-85.365l-3.321-8.029-3.763,7.869a151.207,151.207,0,0,1-19.3,30.23,156.138,156.138,0,0,1-25.011,24.53c-18.715,14.563-38.538,22.7-55.819,22.9l-.406,0a55.27,55.27,0,0,1-14.642-2.273,110.464,110.464,0,0,1-16.6-6.28,204.967,204.967,0,0,1-35.767-21.878A237.819,237.819,0,0,1,264,53.043,170.46,170.46,0,0,1,250.738,36.5a112.4,112.4,0,0,1-9.8-16.748L233.749,4.293c-1.28,2.422-2.512,4.759-3.716,7.044-13.159,24.963-21.1,40.031-30.707,51.126a74.039,74.039,0,0,1-16.536,14.262c-6.112,3.913-13.363,7.53-23.512,11.729a2,2,0,0,1-.212.074,240.443,240.443,0,0,1-27.022,6.181,183.375,183.375,0,0,1-29.812,2.555A145,145,0,0,1,67.3,93.127a130.549,130.549,0,0,1-17.652-5.745c-3.251-1.323-6.469-2.791-9.629-4.39,14.614,20.406,27.545,40.081,37.8,64.69a264.412,264.412,0,0,1,14.5,47.165c1.93,9.066,3.561,18.743,4.848,28.762,1.335,10.395,2.348,21.54,3.012,33.128a2.011,2.011,0,0,1,0,.274,107.8,107.8,0,0,1-2.686,16.814,106.956,106.956,0,0,1-4.979,15.3,123.493,123.493,0,0,1-15.229,26.639,197.844,197.844,0,0,1-19.588,22.382c-6.894,6.885-13.968,13.259-20.808,19.423-7.261,6.543-14.118,12.722-20.046,18.869l-12.3,12.75,14.716-.5c5.2-.177,10.586-.36,16.127-.425C36.828,388.248,38.185,388.24,39.532,388.24Z" transform="matrix(0.035, 0.999, -0.999, 0.035, 1131.439, 1057.55)" fill="rgba(0,39,77,0.8)"/></g></svg>