<svg xmlns="http://www.w3.org/2000/svg" width="1875.461" height="1110.824" viewBox="0 0 1875.461 1110.824"><g transform="translate(113.186 66.618)"><rect width="1873" height="1100" transform="translate(-113.186 -57.887)" fill="none"/><path d="M472.427,277.957l-158.1,346.655L447.467,266.93Z" transform="translate(355.356 285.711)" fill="#00274d"/><path d="M458.98,376.565,154.106,106.623,475.931,354.651Z" transform="translate(80.676 -3.772)" fill="#ff4e00"/><path d="M453.543,1038.8c-8.515-100.339-42.431-161.323-113.4-203.926-57.929-34.772-132.357-39.461-197.525-39.461-14.3,0-28.216.233-41.671.457l-50.56.847,40.227-31.147c72.617-56.228,200.285-113.733,211.025-226.5C285.527,356.492,215.576,278.142,129.8,190.024,241.805,240.672,362.743,230.3,453.543,211.5c103.921-31.377,113.9-53.7,192.553-166.011l23.379,37.132C722.79,167.3,898.923,264.3,985.944,264.347c89.923,0,200.641-63.961,252.157-145.616l14.446-22.9,13.279,23.642c42.287,75.285,112.013,135.279,191.307,164.6a350.577,350.577,0,0,0,121.993,21.644,350.738,350.738,0,0,0,126.912-23.462l55.853-21.579L1724.4,308.609c-47.338,60.53-68.871,136.924-57.6,204.347,11.045,66.063,51.839,124.253,121.25,172.95l51.6,36.2-62.134-5.5c-13.167-1.167-26.109-1.756-38.462-1.756-62.848,0-117.173,15.135-166.091,46.265-59.846,38.092-107.319,99.323-130.253,167.989l-9.131,27.337-18.49-21.706c-42.623-50.05-115.655-78.754-200.375-78.754-8.672,0-17.5.309-26.223.918-87.513,6.105-166.454,74.943-205.866,140.459l-12.014,19.972-14.413-18.2C903.646,932.8,822.278,893.2,738.543,893.2c-6.371,0-12.8.236-19.1.71-87.782,6.588-189.122,71.975-235.721,152.1l-25.805,44.368Z" transform="translate(-97.137 -74.684)" fill="#0099db"/><path d="M1392.747,897.507C1337.595,832.746,1244.01,807.64,1152.824,814s-175.517,76.756-218.6,148.368c-59.854-75.552-156.313-118.425-250.534-111.357s-199.824,76.523-248.5,160.215c-9.226-108.708-47.734-172.765-121.448-217.012S142.895,751.647,65.8,752.938C65.779,749.36,299.371,647.331,294,507.713S229.562,276.806,155.109,197.548c77.136,49.724,265.084,12.135,299.988,0s126.194-52.3,169.153-138.223c53.586,85.1,228.878,195.7,327.113,195.751s212.142-68.2,265.807-153.253c44.437,79.115,116.578,141.186,199.906,172a370.61,370.61,0,0,0,260.088-1.9c-46.909,59.983-73.868,140.717-60.98,217.8s62.392,137.875,128.155,184.013c-81.02-7.172-151.012,6.552-214.479,46.947S1417.07,824.682,1392.747,897.507Z" transform="translate(-70.707 -51.383)" fill="#f4f2d6"/><path d="M407.534,1046.878a2,2,0,0,1-1.993-1.831l-4.376-51.571c-1.06-12.5-2.536-24.5-4.387-35.665-1.868-11.275-4.184-22.105-6.883-32.189a265.583,265.583,0,0,0-9.507-28.963,221.151,221.151,0,0,0-12.258-25.994,197.606,197.606,0,0,0-33.325-44.143,219.525,219.525,0,0,0-21.368-18.677,262.685,262.685,0,0,0-24.712-16.75c-57.511-34.521-131.6-39.176-196.5-39.176-14.223,0-28.07.231-41.462.454l-.176,0-50.56.847a2,2,0,0,1-1.92-1.337,2,2,0,0,1,.663-2.244L39,718.5c15.342-11.88,33-23.726,51.691-36.267,17.452-11.709,35.5-23.817,53.007-36.863,19.807-14.759,35.942-28.551,49.328-42.164a257.5,257.5,0,0,0,20.815-23.817,196.788,196.788,0,0,0,16.948-26.032A163.538,163.538,0,0,0,242.913,524.8a153.739,153.739,0,0,0,6.33-31.232c-1.963-22.186-4.806-43.527-8.45-63.435a536.368,536.368,0,0,0-13.043-55.161,448.68,448.68,0,0,0-17.172-48.053,418.3,418.3,0,0,0-20.861-42.3A439.4,439.4,0,0,0,165.6,246.71c-8.132-11.484-16.947-22.887-26.949-34.859-8.655-10.36-18.256-21.2-29.352-33.15-10.741-11.565-21.859-23.058-31.318-32.775a2,2,0,0,1,2.257-3.217,391,391,0,0,0,45.629,17.25,420.976,420.976,0,0,0,46.045,11.363c14.834,2.794,30.273,4.9,45.886,6.25,14.639,1.268,29.829,1.911,45.149,1.911,12.145,0,24.68-.4,37.257-1.2,11.733-.743,23.83-1.849,35.956-3.288,21.315-2.528,43.691-6.2,66.507-10.923,12.553-3.791,23.249-7.306,32.7-10.743,9.993-3.635,18.682-7.214,26.562-10.942a174.871,174.871,0,0,0,40.8-26.169c11.276-9.748,22.108-21.6,35.123-38.444,12.184-15.764,25.342-34.645,42-58.548,4.531-6.5,9.216-13.224,14.221-20.371A2,2,0,0,1,595.76-2a2,2,0,0,1,1.643.934l23.378,37.132a214.407,214.407,0,0,0,25.1,31.815A374.161,374.161,0,0,0,680.068,99.7c12.426,10.287,26.14,20.539,40.763,30.473,14.28,9.7,29.366,19.06,44.838,27.815,30.94,17.507,62.716,32.194,91.891,42.474A342.741,342.741,0,0,0,899.58,212.55a176.035,176.035,0,0,0,35.98,4.3,214.139,214.139,0,0,0,34.218-2.882,269.99,269.99,0,0,0,35.289-8.3,321.157,321.157,0,0,0,35.4-13.192,356.031,356.031,0,0,0,34.568-17.545,366.006,366.006,0,0,0,32.783-21.354,348.921,348.921,0,0,0,30.052-24.615,310.032,310.032,0,0,0,26.379-27.323,259.471,259.471,0,0,0,21.769-29.472l14.446-22.9a2,2,0,0,1,1.691-.933h.051a2,2,0,0,1,1.693,1.02L1217.184,73c42.058,74.878,111.4,134.546,190.257,163.7a348.594,348.594,0,0,0,121.3,21.52A348.731,348.731,0,0,0,1654.931,234.9l55.853-21.579a2,2,0,0,1,2.3,3.1l-37.488,47.932c-47,60.1-68.383,135.9-57.2,202.785,10.953,65.516,51.47,123.265,120.426,171.643l51.6,36.2a2,2,0,0,1-1.325,3.629l-62.134-5.5c-13.089-1.16-25.97-1.749-38.286-1.749-62.45,0-116.428,15.031-165.017,45.953-59.463,37.848-106.638,98.693-129.43,166.935l-9.131,27.337a2,2,0,0,1-3.419.663l-18.49-21.706c-42.242-49.6-114.721-78.051-198.853-78.051-8.626,0-17.4.307-26.084.913a203.335,203.335,0,0,0-62.924,15.164,269.467,269.467,0,0,0-57,32.4,325.85,325.85,0,0,0-48.112,43.513c-7.012,7.723-13.671,15.793-19.794,23.985-6,8.034-11.542,16.253-16.46,24.429l-12.013,19.972a2,2,0,0,1-3.282.211l-14.413-18.2C852.069,889.024,771.287,849.7,688.158,849.7c-6.363,0-12.738.237-18.948.7a224.841,224.841,0,0,0-33.125,5.1,275.916,275.916,0,0,0-33.646,10.064,321.01,321.01,0,0,0-33.353,14.526,350.522,350.522,0,0,0-32.247,18.474,357.548,357.548,0,0,0-30.331,21.9A340.775,340.775,0,0,0,478.9,945.281a304.828,304.828,0,0,0-24.08,27.192,258.2,258.2,0,0,0-19.754,29.043l-25.805,44.368A2,2,0,0,1,407.534,1046.878ZM92.231,747.921c65.441,0,140.206,4.722,198.554,39.746a266.72,266.72,0,0,1,25.089,17.007,223.516,223.516,0,0,1,21.758,19.019,201.6,201.6,0,0,1,33.994,45.029,225.146,225.146,0,0,1,12.482,26.465,269.644,269.644,0,0,1,9.651,29.4c2.733,10.209,5.077,21.167,6.966,32.57,1.868,11.273,3.357,23.379,4.426,35.981l3.84,45.256L431.61,999.5a262.19,262.19,0,0,1,20.061-29.5,308.812,308.812,0,0,1,24.4-27.551A344.757,344.757,0,0,1,504,917.355a361.474,361.474,0,0,1,30.671-22.15,354.549,354.549,0,0,1,32.616-18.685,325.053,325.053,0,0,1,33.77-14.707A279.952,279.952,0,0,1,635.194,851.6a228.847,228.847,0,0,1,33.716-5.185c6.309-.475,12.785-.716,19.248-.716,84.34,0,166.294,39.888,219.228,106.7l12.62,15.932,10.525-17.5c4.987-8.29,10.6-16.621,16.684-24.762,6.2-8.294,12.939-16.463,20.036-24.28a329.858,329.858,0,0,1,48.7-44.048,273.466,273.466,0,0,1,57.853-32.88,207.328,207.328,0,0,1,64.163-15.454c8.774-.612,17.644-.923,26.362-.923a350,350,0,0,1,61.408,5.3,291.955,291.955,0,0,1,55.3,15.448,236.737,236.737,0,0,1,47.425,24.938,193.022,193.022,0,0,1,37.767,33.772l16.193,19.009,8.009-23.977c23.077-69.1,70.853-130.711,131.076-169.043,49.251-31.342,103.931-46.578,167.165-46.578,12.434,0,25.434.594,38.639,1.764l54.7,4.841L1736.52,642.05c-69.865-49.017-110.937-107.645-122.073-174.258-11.364-67.969,10.317-144.944,58-205.909l33.021-42.221-49.091,18.967a352.72,352.72,0,0,1-127.633,23.6,352.585,352.585,0,0,1-122.687-21.768c-79.729-29.482-149.841-89.8-192.357-165.5l-11.635-20.715L1189.408,74.3a263.519,263.519,0,0,1-22.105,29.929,314.062,314.062,0,0,1-26.721,27.677,352.863,352.863,0,0,1-30.4,24.9,369.992,369.992,0,0,1-33.143,21.588,360.1,360.1,0,0,1-34.958,17.743,325.205,325.205,0,0,1-35.848,13.356,274.024,274.024,0,0,1-35.815,8.423,218.159,218.159,0,0,1-34.861,2.934,180,180,0,0,1-36.813-4.391,346.781,346.781,0,0,1-42.515-12.227c-29.393-10.356-61.39-25.144-92.532-42.765-15.567-8.808-30.747-18.225-45.117-27.987-14.727-10-28.543-20.334-41.066-30.7a378.142,378.142,0,0,1-34.55-32.165A218.368,218.368,0,0,1,617.4,38.2L595.623,3.614c-4.359,6.231-8.485,12.151-12.489,17.9-16.69,23.949-29.873,42.865-42.117,58.707-13.185,17.059-24.186,29.095-35.672,39.024A178.764,178.764,0,0,1,463.638,146c-7.994,3.781-16.794,7.407-26.905,11.085-9.542,3.471-20.335,7.017-33,10.84-.057.017-.115.032-.173.044-22.958,4.752-45.478,8.452-66.933,11-12.2,1.447-24.368,2.56-36.174,3.307-12.661.8-25.281,1.209-37.51,1.209-15.435,0-30.741-.648-45.494-1.926-15.746-1.364-31.317-3.485-46.282-6.3a424.991,424.991,0,0,1-46.484-11.471c-12.505-3.86-24.83-8.339-36.762-13.355,7.719,7.973,16.119,16.74,24.3,25.554,11.144,12,20.79,22.894,29.49,33.308,10.071,12.055,18.949,23.54,27.144,35.112A443.38,443.38,0,0,1,193.2,282.646a422.378,422.378,0,0,1,21.061,42.708,452.648,452.648,0,0,1,17.327,48.483,540.327,540.327,0,0,1,13.142,55.575c3.676,20.085,6.542,41.613,8.516,63.988a1.991,1.991,0,0,1,0,.365A157.749,157.749,0,0,1,246.73,526a167.559,167.559,0,0,1-12.419,29.255,200.793,200.793,0,0,1-17.292,26.565,261.545,261.545,0,0,1-21.139,24.189c-13.53,13.761-29.817,27.685-49.79,42.567-17.588,13.106-35.676,25.241-53.168,36.978-18.635,12.5-36.236,24.312-51.47,36.108L5.979,749.125l44.723-.749C64.11,748.152,77.974,747.921,92.231,747.921Z" transform="matrix(0.999, -0.035, 0.035, 0.999, -64.439, -2.105)" fill="rgba(0,39,77,0.8)"/></g></svg>