<svg xmlns="http://www.w3.org/2000/svg" width="235.115" height="267.066" viewBox="0 0 235.115 267.066">
    <defs>
        <filter id="Path_1394" width="235.115" height="202.81" x="0" y="64.256" filterUnits="userSpaceOnUse">
            <feOffset dx="5" dy="5"/>
            <feGaussianBlur result="blur" stdDeviation="5"/>
            <feFlood flood-opacity=".2"/>
            <feComposite in2="blur" operator="in"/>
            <feComposite in="SourceGraphic"/>
        </filter>
        <filter id="Path_1395" width="185.695" height="154.426" x="24.778" y="0" filterUnits="userSpaceOnUse">
            <feOffset dx="5" dy="5"/>
            <feGaussianBlur result="blur-2" stdDeviation="5"/>
            <feFlood flood-opacity=".2"/>
            <feComposite in2="blur-2" operator="in"/>
            <feComposite in="SourceGraphic"/>
        </filter>
        <filter id="Rectangle_148" width="44.953" height="187.784" x="95.081" y="71.733" filterUnits="userSpaceOnUse">
            <feOffset dx="5" dy="5"/>
            <feGaussianBlur result="blur-3" stdDeviation="5"/>
            <feFlood flood-opacity=".2"/>
            <feComposite in2="blur-3" operator="in"/>
            <feComposite in="SourceGraphic"/>
        </filter>
        <style>
            .cls-1{fill:#008cd6}
        </style>
    </defs>
    <g id="icon" transform="translate(-573 -69)">
        <g id="Group_836">
            <g filter="url(#Path_1394)" transform="translate(360.547 -18.494) translate(212.45 87.49)">
                <path id="Path_1394-2" d="M427.568 382.034H222.453v-172.81h205.115zm-190.162-14.953h175.209v-142.9H237.406z" class="cls-1" transform="translate(-212.45 -134.97)"/>
            </g>
            <g filter="url(#Path_1395)" transform="translate(360.547 -18.494) translate(212.45 87.49)">
                <path id="Path_1395-2" d="M301.644 221.919l-8.13-12.549c12.886-8.349 22.835-23.285 31.988-39.236a98.427 98.427 0 0 1-40.415-14.176c-13.732-8.7-20.792-20.781-19.368-33.153a26.735 26.735 0 0 1 18.03-22.239c11.9-4.147 25.568-.057 36.568 10.942a172.015 172.015 0 0 1 22.312 28.221c7.128-11.961 14.93-23.178 24.463-31.567 11.3-9.945 24.47-13.13 36.133-8.739a27.48 27.48 0 0 1 17.782 22.077c1.5 11.554-4.489 23.048-16.426 31.533-11.029 7.841-26.663 13.7-43.278 16.4 8.469 12.836 18.419 25.767 33.012 38.272l-9.73 11.354c-18.63-15.964-30.044-32.161-40.036-48.023q-1.188.035-2.414.049c-11.055 19.852-22.954 39.471-40.491 50.834zM293.31 113.91a14.033 14.033 0 0 0-4.64.774 11.9 11.9 0 0 0-8.1 9.83c-.742 6.449 3.819 13.3 12.513 18.811 12.351 7.822 26.42 11.632 40.344 12.6l.834-1.508c-7.156-11.454-14.5-22.317-24.521-32.34-5.34-5.339-11.115-8.167-16.43-8.167zm58.29 40.128l.939 1.527c17.567-1.848 33.412-7.637 43.374-14.719 7.285-5.178 11.025-11.529 10.261-17.423a12.564 12.564 0 0 0-8.224-10.007c-6.321-2.38-13.97-.2-20.986 5.97-9.734 8.571-17.601 20.971-25.364 34.652z" class="cls-1" transform="translate(-230.76 -87.49)"/>
            </g>
            <g filter="url(#Rectangle_148)" transform="translate(360.547 -18.494) translate(212.45 87.49)">
                <path id="Rectangle_148-2" d="M0 0H14.953V157.784H0z" class="cls-1" transform="translate(105.08 81.73)"/>
            </g>
        </g>
    </g>
</svg>
