<svg id="圖層_1" data-name="圖層 1" xmlns="http://www.w3.org/2000/svg" viewBox="0 0 685 452"><defs><style>.cls-1{opacity:0.4;}.cls-2{fill:#55a3f3;}.cls-10,.cls-11,.cls-12,.cls-13,.cls-14,.cls-16,.cls-17,.cls-18,.cls-19,.cls-3,.cls-6,.cls-8{fill:none;}.cls-3{stroke:#55a3f3;stroke-miterlimit:10;stroke-width:1.05px;}.cls-4{fill:#2c54ac;}.cls-5{fill:#fff;}.cls-6{stroke:#2c54ac;stroke-miterlimit:10;stroke-width:0.92px;}.cls-7{fill:#0a2a6b;}.cls-10,.cls-11,.cls-12,.cls-13,.cls-14,.cls-17,.cls-18,.cls-19,.cls-8{stroke:#0a2a6b;}.cls-8{stroke-miterlimit:10;stroke-width:1.17px;}.cls-9{fill:#ff8775;}.cls-10,.cls-11,.cls-12,.cls-13,.cls-14,.cls-16,.cls-17,.cls-18,.cls-19{stroke-miterlimit:10;}.cls-10{stroke-width:1.17px;}.cls-11{stroke-width:1.24px;}.cls-12{stroke-width:4px;}.cls-13{stroke-width:3.79px;}.cls-15{opacity:0.31;}.cls-16{stroke:#fff;}.cls-17{stroke-width:0.98px;}.cls-18{stroke-width:0.82px;}.cls-19{stroke-width:3px;}.cls-20{opacity:0.29;}</style></defs><g id="img"><g id="Group_597" data-name="Group 597" class="cls-1"><g id="Group_591" data-name="Group 591"><path id="Path_1133" data-name="Path 1133" class="cls-2" d="M158.72,226l-.74-1.59a8.21,8.21,0,0,1-.77-2.69,6.6,6.6,0,0,1,.17-2.17,16.43,16.43,0,0,1,.59-1.84,21.37,21.37,0,0,0,.77-2.16,3.19,3.19,0,0,0-.26-2.23,2.07,2.07,0,0,0-.84-1,2.8,2.8,0,0,0-1.12-.34,2,2,0,0,0-1,.17,2.73,2.73,0,0,0-1.28,1.07,3.54,3.54,0,0,0-.48,1.48,8.77,8.77,0,0,0,0,1.62l-4.21,0a9.32,9.32,0,0,1,0-1.67,8.3,8.3,0,0,1,.5-2.27,7.74,7.74,0,0,1,1.43-2.37,7.94,7.94,0,0,1,2.74-2,8.66,8.66,0,0,1,3.35-.83,5.41,5.41,0,0,1,3,.81,6.28,6.28,0,0,1,2.29,2.83,7.48,7.48,0,0,1,.77,2.89,6.54,6.54,0,0,1-.32,2.24c-.22.68-.45,1.35-.68,2a12.41,12.41,0,0,0-.46,1.58,5.54,5.54,0,0,0-.08,1.77,6.65,6.65,0,0,0,.62,2.08l.29.63Zm5,5.39a3,3,0,0,1-2.05.23,2.14,2.14,0,0,1-1.4-1.24,2.2,2.2,0,0,1,0-1.89,2.8,2.8,0,0,1,1.47-1.44,2.72,2.72,0,0,1,2-.16,2.28,2.28,0,0,1,1.39,1.26,2.14,2.14,0,0,1,.05,1.85,2.81,2.81,0,0,1-1.47,1.39Z"/></g><g id="Group_593" data-name="Group 593"><path id="Path_1135" data-name="Path 1135" class="cls-2" d="M444,56.4l-.51-2.74a12.56,12.56,0,0,1-.17-4.45,10.39,10.39,0,0,1,1.1-3.29A25.17,25.17,0,0,1,446,43.31a30.58,30.58,0,0,0,2-3,5,5,0,0,0,.45-3.54,3.14,3.14,0,0,0-.93-1.81,4.28,4.28,0,0,0-1.6-1,3.23,3.23,0,0,0-1.66-.14A4.33,4.33,0,0,0,441.91,35a5.63,5.63,0,0,0-1.32,2.1,15.28,15.28,0,0,0-.68,2.49l-6.49-1.68a17.81,17.81,0,0,1,.64-2.59A13.34,13.34,0,0,1,435.72,32a12.1,12.1,0,0,1,3.11-3.11,12.59,12.59,0,0,1,5-1.95,13.59,13.59,0,0,1,5.5,0,8.55,8.55,0,0,1,4.34,2.4,10,10,0,0,1,2.43,5.25,11.57,11.57,0,0,1,.09,4.76,10.52,10.52,0,0,1-1.35,3.33c-.61,1-1.22,1.9-1.83,2.84a18.18,18.18,0,0,0-1.31,2.26,8.52,8.52,0,0,0-.81,2.7A10.8,10.8,0,0,0,451,54l.2,1.09Zm5.69,10.25a4.64,4.64,0,0,1-3.25-.44,3.36,3.36,0,0,1-1.69-2.45,3.53,3.53,0,0,1,.71-2.92,4.46,4.46,0,0,1,2.82-1.66,4.28,4.28,0,0,1,3.18.54,3.61,3.61,0,0,1,1.68,2.47,3.46,3.46,0,0,1-.64,2.88,4.42,4.42,0,0,1-2.81,1.57Z"/></g><g id="Group_594" data-name="Group 594"><path id="Path_1136" data-name="Path 1136" class="cls-2" d="M340,215.73l.5-2a9.28,9.28,0,0,1,1.26-3,7.79,7.79,0,0,1,1.75-1.87,16,16,0,0,1,1.9-1.25,23.26,23.26,0,0,0,2.27-1.42,3.71,3.71,0,0,0,1.41-2.23,2.4,2.4,0,0,0-.07-1.5,3.18,3.18,0,0,0-.78-1.14,2.49,2.49,0,0,0-1.07-.61,3.36,3.36,0,0,0-2,0,4.13,4.13,0,0,0-1.53,1,11.36,11.36,0,0,0-1.23,1.45l-3.83-3.12a13,13,0,0,1,1.23-1.54,9.53,9.53,0,0,1,2.13-1.71A8.77,8.77,0,0,1,345,195.7a9.15,9.15,0,0,1,3.93.22,9.87,9.87,0,0,1,3.69,1.7,6.21,6.21,0,0,1,2.17,2.95,7.31,7.31,0,0,1,0,4.27,8.85,8.85,0,0,1-1.41,3.22,7.81,7.81,0,0,1-1.94,1.82c-.7.46-1.4.9-2.1,1.34a14.46,14.46,0,0,0-1.58,1.11,6.38,6.38,0,0,0-1.37,1.56,8.26,8.26,0,0,0-1,2.37l-.2.8Zm.65,8.63a3.46,3.46,0,0,1-2-1.29,2.5,2.5,0,0,1-.38-2.17,2.6,2.6,0,0,1,1.38-1.74,3.3,3.3,0,0,1,2.41-.24,3.16,3.16,0,0,1,2,1.34,2.65,2.65,0,0,1,.36,2.17,2.55,2.55,0,0,1-1.32,1.74,3.32,3.32,0,0,1-2.38.19Z"/></g><g id="Group_595" data-name="Group 595"><path id="Path_1137" data-name="Path 1137" class="cls-2" d="M568.5,231.26l.44-2.75a12.9,12.9,0,0,1,1.35-4.24,10.85,10.85,0,0,1,2.15-2.71,23.22,23.22,0,0,1,2.41-1.91,30.52,30.52,0,0,0,2.91-2.17,5,5,0,0,0,1.63-3.17,3.24,3.24,0,0,0-.26-2,4.24,4.24,0,0,0-1.18-1.45,3.42,3.42,0,0,0-1.51-.69,4.31,4.31,0,0,0-2.63.29,5.73,5.73,0,0,0-2,1.53,14.7,14.7,0,0,0-1.48,2.1l-5.52-3.77a15.71,15.71,0,0,1,1.47-2.21,13.23,13.23,0,0,1,2.68-2.55,12.21,12.21,0,0,1,4-1.87,12.56,12.56,0,0,1,5.32-.15,13.59,13.59,0,0,1,5.16,1.87,8.51,8.51,0,0,1,3.27,3.73,10,10,0,0,1,.51,5.76,11.8,11.8,0,0,1-1.53,4.49,10.76,10.76,0,0,1-2.4,2.68l-2.68,2a21.42,21.42,0,0,0-2,1.68A8.6,8.6,0,0,0,577,228a10.91,10.91,0,0,0-1,3.3l-.17,1.09Zm1.87,11.54a4.59,4.59,0,0,1-2.9-1.5,3.39,3.39,0,0,1-.77-2.88,3.52,3.52,0,0,1,1.66-2.5,4.48,4.48,0,0,1,3.21-.6,4.26,4.26,0,0,1,2.81,1.57,3.6,3.6,0,0,1,.74,2.89,3.45,3.45,0,0,1-1.58,2.49A4.4,4.4,0,0,1,570.37,242.8Z"/></g></g><g id="Group_602" data-name="Group 602"><g id="Group_598" data-name="Group 598"><circle id="Ellipse_10" data-name="Ellipse 10" class="cls-2" cx="59.31" cy="287.88" r="47.45"/><ellipse id="Ellipse_11" data-name="Ellipse 11" class="cls-3" cx="59.38" cy="287.73" rx="51.8" ry="47.45" transform="translate(-226.24 218.9) rotate(-64.79)"/><path id="Path_1139" data-name="Path 1139" class="cls-2" d="M71.7,331.54,96,340.28,79.28,321.76Z"/></g><g id="Group_601" data-name="Group 601"><g id="Group_599" data-name="Group 599"><path id="Path_1140" data-name="Path 1140" class="cls-4" d="M64.64,303.17,62,299.5a20.57,20.57,0,0,1-3.33-6.42,17.38,17.38,0,0,1-.66-5.6,37.68,37.68,0,0,1,.58-5,52.3,52.3,0,0,0,.84-5.84,8.19,8.19,0,0,0-1.78-5.53,5.18,5.18,0,0,0-2.62-2,6.72,6.72,0,0,0-3-.3,5.35,5.35,0,0,0-2.54.94,7.06,7.06,0,0,0-2.68,3.37,9.36,9.36,0,0,0-.49,4,26.44,26.44,0,0,0,.72,4.13l-1.89,1.37-8.8.66a26.65,26.65,0,0,1-.85-4.25,21.31,21.31,0,0,1,.13-6A19.53,19.53,0,0,1,38,266.32,20.23,20.23,0,0,1,44,260a22.17,22.17,0,0,1,8.09-3.79,13.79,13.79,0,0,1,8,.52,16.2,16.2,0,0,1,7.22,6,19.16,19.16,0,0,1,3.43,6.93,17.63,17.63,0,0,1,.32,5.84q-.34,2.74-.72,5.44a31.5,31.5,0,0,0-.37,4.23,14.16,14.16,0,0,0,.68,4.52,17.93,17.93,0,0,0,2.64,5l1.06,1.46Zm15.45,11.12a7.56,7.56,0,0,1-5.07,1.6,5.44,5.44,0,0,1-4.18-2.41,5.74,5.74,0,0,1-1-4.79,7.23,7.23,0,0,1,3-4.39,6.91,6.91,0,0,1,5-1.43,5.84,5.84,0,0,1,4.17,2.47A5.66,5.66,0,0,1,83.13,310,7.22,7.22,0,0,1,80.09,314.29Z"/></g><g id="Group_600" data-name="Group 600"><path id="Path_1141" data-name="Path 1141" class="cls-5" d="M62.75,304.54l-2.66-3.68a20.52,20.52,0,0,1-3.33-6.41,17.38,17.38,0,0,1-.66-5.6,37.68,37.68,0,0,1,.58-5,52.15,52.15,0,0,0,.84-5.85,8.18,8.18,0,0,0-1.78-5.52,5.2,5.2,0,0,0-2.62-2,7,7,0,0,0-3-.3,5.43,5.43,0,0,0-2.54.95,7.09,7.09,0,0,0-2.69,3.37,9.35,9.35,0,0,0-.48,4,24.3,24.3,0,0,0,.72,4.13l-10.69,2a26.75,26.75,0,0,1-.85-4.24,21.3,21.3,0,0,1,.13-6,19.45,19.45,0,0,1,2.43-6.72,20.37,20.37,0,0,1,5.94-6.32,22.17,22.17,0,0,1,8.09-3.79,13.88,13.88,0,0,1,8,.53,16.2,16.2,0,0,1,7.22,6,19,19,0,0,1,3.42,6.92,17.45,17.45,0,0,1,.33,5.85c-.24,1.82-.47,3.63-.72,5.43a30.07,30.07,0,0,0-.37,4.23,14.18,14.18,0,0,0,.68,4.53,17.81,17.81,0,0,0,2.64,5l1.06,1.45ZM78.2,315.66a7.54,7.54,0,0,1-5.07,1.6A5.46,5.46,0,0,1,69,314.85a5.74,5.74,0,0,1-1-4.79,7.23,7.23,0,0,1,3-4.39,6.86,6.86,0,0,1,5-1.43,5.84,5.84,0,0,1,4.17,2.47,5.65,5.65,0,0,1,1.06,4.68,7.25,7.25,0,0,1-3,4.27Z"/></g></g></g><g id="Group_607" data-name="Group 607"><g id="Group_603" data-name="Group 603"><circle id="Ellipse_12" data-name="Ellipse 12" class="cls-4" cx="589.18" cy="80.23" r="77.89"/><ellipse id="Ellipse_13" data-name="Ellipse 13" class="cls-6" cx="588.99" cy="80.04" rx="77.89" ry="85.03" transform="translate(427.76 652.16) rotate(-82)"/><path id="Path_1142" data-name="Path 1142" class="cls-4" d="M609.4,150.14,584.87,184.6,590,144Z"/></g><g id="Group_606" data-name="Group 606"><g id="Group_604" data-name="Group 604"><path id="Path_1143" data-name="Path 1143" class="cls-2" d="M579.21,102l1.35-7a32.29,32.29,0,0,1,3.78-10.76,27.33,27.33,0,0,1,5.71-6.83,60.65,60.65,0,0,1,6.33-4.7A82.24,82.24,0,0,0,604,67.36a12.89,12.89,0,0,0,4.42-8,8.13,8.13,0,0,0-.52-5.19,11,11,0,0,0-2.92-3.8,8.6,8.6,0,0,0-3.83-1.9,11.25,11.25,0,0,0-6.78.56,14.79,14.79,0,0,0-5.12,3.77,39.27,39.27,0,0,0-4,5.29l-3.62-.69L571.39,48a42.58,42.58,0,0,1,4-5.57,33.59,33.59,0,0,1,7.06-6.35,31,31,0,0,1,10.36-4.49,32.08,32.08,0,0,1,13.69,0,34.77,34.77,0,0,1,13.11,5.19,21.87,21.87,0,0,1,8.1,9.81q2.55,6.06.88,14.82a30.11,30.11,0,0,1-4.26,11.43,27.19,27.19,0,0,1-6.37,6.69q-3.51,2.56-7,5.06a49.06,49.06,0,0,0-5.27,4.15,22.54,22.54,0,0,0-4.46,5.68,27.9,27.9,0,0,0-2.84,8.4l-.54,2.79Zm3.93,29.79a11.94,11.94,0,0,1-7.34-4.09,8.67,8.67,0,0,1-1.74-7.42A9,9,0,0,1,578.5,114a11.39,11.39,0,0,1,8.29-1.3,10.9,10.9,0,0,1,7.1,4.25,9.2,9.2,0,0,1,1.67,7.47,8.85,8.85,0,0,1-4.23,6.28,11.34,11.34,0,0,1-8.19,1.11Z"/></g><g id="Group_605" data-name="Group 605"><path id="Path_1144" data-name="Path 1144" class="cls-5" d="M575.59,101.35l1.35-7a32.66,32.66,0,0,1,3.78-10.76,27.37,27.37,0,0,1,5.71-6.83,61.85,61.85,0,0,1,6.34-4.7,80.88,80.88,0,0,0,7.62-5.36,12.88,12.88,0,0,0,4.43-8,8.26,8.26,0,0,0-.52-5.19,11,11,0,0,0-2.92-3.8,8.6,8.6,0,0,0-3.83-1.9,11.27,11.27,0,0,0-6.79.56,14.76,14.76,0,0,0-5.12,3.77,40.13,40.13,0,0,0-4,5.29L567.78,47.28a41.59,41.59,0,0,1,4-5.57,33.71,33.71,0,0,1,7.07-6.36,31,31,0,0,1,10.35-4.48,32.24,32.24,0,0,1,13.69,0A34.79,34.79,0,0,1,616,36.07a21.85,21.85,0,0,1,8.1,9.8q2.55,6.06.88,14.83a30.1,30.1,0,0,1-4.25,11.43,27.41,27.41,0,0,1-6.38,6.69q-3.51,2.57-7,5.06A48,48,0,0,0,602,88a22.1,22.1,0,0,0-4.46,5.68,28.1,28.1,0,0,0-2.85,8.4l-.53,2.79Zm3.94,29.78a11.88,11.88,0,0,1-7.34-4.08,8.64,8.64,0,0,1-1.75-7.42,9,9,0,0,1,4.44-6.31,11.42,11.42,0,0,1,8.3-1.3,10.93,10.93,0,0,1,7.1,4.24,9.22,9.22,0,0,1,1.66,7.48,8.86,8.86,0,0,1-4.22,6.28,11.4,11.4,0,0,1-8.19,1.11Z"/></g></g></g><g id="Group_612" data-name="Group 612"><g id="Group_608" data-name="Group 608"><circle id="Ellipse_14" data-name="Ellipse 14" class="cls-7" cx="371.97" cy="122.69" r="43.86"/><ellipse id="Ellipse_15" data-name="Ellipse 15" class="cls-8" cx="372.33" cy="122.96" rx="47.78" ry="43.86" transform="translate(-19.7 115.4) rotate(-17.17)"/><path id="Path_1145" data-name="Path 1145" class="cls-7" d="M373.26,164.48,385.71,180l-1.52-18.85Z"/></g><g id="Group_611" data-name="Group 611"><g id="Group_609" data-name="Group 609"><path id="Path_1146" data-name="Path 1146" class="cls-2" d="M369.77,137.42l-.53-4.16a19.11,19.11,0,0,1,.16-6.66,16.1,16.1,0,0,1,1.94-4.83A35.46,35.46,0,0,1,374,118a48.1,48.1,0,0,0,3.27-4.36,7.52,7.52,0,0,0,1-5.26,4.76,4.76,0,0,0-1.22-2.79,6.52,6.52,0,0,0-2.31-1.58,5,5,0,0,0-2.48-.37,6.59,6.59,0,0,0-3.67,1.54,8.46,8.46,0,0,0-2.16,3,23.25,23.25,0,0,0-1.26,3.66l-2.13.26-7.41-3.36a24,24,0,0,1,1.19-3.81,19.71,19.71,0,0,1,2.78-4.81,18.1,18.1,0,0,1,4.95-4.36,18.65,18.65,0,0,1,7.61-2.47,20.35,20.35,0,0,1,8.22.52,12.71,12.71,0,0,1,6.28,4,14.91,14.91,0,0,1,3.16,8.08,17.49,17.49,0,0,1-.3,7.13,15.85,15.85,0,0,1-2.33,4.87q-1.49,2.06-3,4.08a27.62,27.62,0,0,0-2.18,3.26,12.75,12.75,0,0,0-1.45,4,16.37,16.37,0,0,0-.07,5.18l.21,1.65Zm7.56,15.85a7,7,0,0,1-4.82-1,5.09,5.09,0,0,1-2.31-3.81,5.32,5.32,0,0,1,1.33-4.31,6.7,6.7,0,0,1,4.38-2.22,6.4,6.4,0,0,1,4.71,1.08,5.35,5.35,0,0,1,2.28,3.85,5.21,5.21,0,0,1-1.22,4.26,6.63,6.63,0,0,1-4.35,2.09Z"/></g><g id="Group_610" data-name="Group 610"><path id="Path_1147" data-name="Path 1147" class="cls-5" d="M367.63,137.68l-.52-4.15a18.93,18.93,0,0,1,.16-6.67,15.89,15.89,0,0,1,1.94-4.82,36.55,36.55,0,0,1,2.67-3.76,48.06,48.06,0,0,0,3.28-4.35,7.63,7.63,0,0,0,1-5.26,4.83,4.83,0,0,0-1.23-2.79,6.35,6.35,0,0,0-2.31-1.58,5,5,0,0,0-2.47-.37,6.62,6.62,0,0,0-3.67,1.53,8.8,8.8,0,0,0-2.17,3,22.9,22.9,0,0,0-1.25,3.66l-9.55-3.1a25.51,25.51,0,0,1,1.2-3.81,19.76,19.76,0,0,1,2.78-4.81,18.08,18.08,0,0,1,4.94-4.36,18.85,18.85,0,0,1,7.61-2.47,20.59,20.59,0,0,1,8.23.52,12.8,12.8,0,0,1,6.27,4,14.88,14.88,0,0,1,3.17,8.09,17.8,17.8,0,0,1-.3,7.12,16.16,16.16,0,0,1-2.34,4.88q-1.49,2.06-3,4.07a29.29,29.29,0,0,0-2.17,3.26,13.09,13.09,0,0,0-1.46,4,16.08,16.08,0,0,0-.06,5.18l.2,1.65Zm7.57,15.85a7,7,0,0,1-4.82-.94,5.08,5.08,0,0,1-2.31-3.81,5.3,5.3,0,0,1,1.33-4.31,6.63,6.63,0,0,1,4.38-2.22,6.36,6.36,0,0,1,4.71,1.08,5.41,5.41,0,0,1,2.28,3.85,5.17,5.17,0,0,1-1.22,4.25,6.67,6.67,0,0,1-4.35,2.1Z"/></g></g></g><g id="Group_615" data-name="Group 615"><path id="Path_1148" data-name="Path 1148" class="cls-9" d="M197.72,430.6l-44.21-28,13-26.51L135,364.21,112.8,413.83s31.32,14.28,53,22.49S203.16,445,203.16,445Z"/><path id="Path_1149" data-name="Path 1149" class="cls-7" d="M333.34,404.5l7.05,47.5H197.49l10.76-38.58Z"/><path id="Path_1150" data-name="Path 1150" class="cls-9" d="M220.7,206v51.2l-12.45,6.15S230.74,303,250.2,290.37s19.15-34.45,19.15-34.45l-15.07-.62L253,237.46l-24.3-35.37Z"/><path id="Path_1151" data-name="Path 1151" class="cls-9" d="M221.69,160.29c-2.53,7.64-3,15.94-2.75,24.08.47,16.14,5.83,32.38,13.05,46.37a41.36,41.36,0,0,0,6.85,10c7.87,8.06,22.4,9.9,31.65,3.93a37.55,37.55,0,0,0,8.69-8.28c7-8.77,8.88-20.59,10.86-33s4.08-25.43,2.26-37c-1-6.59-4.18-9.4-7.7-14.81a31.38,31.38,0,0,0-22-13.64c-8.77-1.24-17.58,1.11-25.93,4-7.26,2.47-12.51,10.79-15,18.37Z"/><path id="Path_1152" data-name="Path 1152" class="cls-7" d="M226.74,160.32a65.8,65.8,0,0,1-4.14,45.54,34.65,34.65,0,0,1-15.15-14.1A55.6,55.6,0,0,1,201.67,172c-.58-4.94-.68-10.14,1.36-14.67s6.71-8.21,11.66-7.67c.64-5.9,4.95-11.51,9.76-15s10.65-5.27,16.5-6.19A63.92,63.92,0,0,1,289.5,141c3.48,2.7,6.76,5.89,8.48,9.94s1.57,9.14-1.3,12.47c-3.41,4-9.28,4.38-14.5,4.5-19.75.47-37.58.87-55.44-7.58Z"/><g id="Group_613" data-name="Group 613"><path id="Path_1153" data-name="Path 1153" class="cls-9" d="M206.19,197.34a16,16,0,0,0,6.95,10.95,8.39,8.39,0,0,0,3.87,1.48c3.14.23,6-2.34,6.93-5.34s.4-6.27-.55-9.27c-1.23-3.87-3.58-7.94-7.54-8.87C209.46,184.8,205.41,191.88,206.19,197.34Z"/><path id="Path_1154" data-name="Path 1154" class="cls-9" d="M220.7,206a7.85,7.85,0,0,1-3.56-2.31,1.56,1.56,0,0,1-.42-.75c-.09-.54.33-1,.72-1.41l2.37-2.35a1,1,0,0,0,.31-1.26c-.9-3-2-6.21-4.53-8a4.37,4.37,0,0,0-2.34-.84,4.31,4.31,0,0,0-3.22,1.66,11.72,11.72,0,0,0-1.74,3.3s-.66,6.39,3.78,10.24S220.7,206,220.7,206Z"/><path id="Path_1155" data-name="Path 1155" class="cls-10" d="M208.29,194a11.6,11.6,0,0,1,1.74-3.3,4.28,4.28,0,0,1,3.22-1.66,4.39,4.39,0,0,1,2.34.85c2.57,1.76,3.63,5,4.53,8a1,1,0,0,1-.31,1.26l-2.37,2.35a1.78,1.78,0,0,0-.72,1.42,1.51,1.51,0,0,0,.41.74A7.72,7.72,0,0,0,220.7,206"/></g><path id="Path_1156" data-name="Path 1156" class="cls-2" d="M214.49,260.21s-45.12,20.93-52.5,28-45.84,69.21-45.84,69.21,12.08,13.85,26.19,19.38,29.49,5.85,29.49,5.85l16.61-35.38,19.81,66.14s31.87,23.38,73.1,17.84,52-26.76,52-26.76l-8-56.79s15.38-3.81,25.52-11.81S373,312.83,373,312.83s-48.91-46.45-54.14-52.3-54.46-4.81-54.46-4.81,1.85,18.35-12.91,21.42-37-16.93-37-16.93Z"/><path id="Path_1157" data-name="Path 1157" class="cls-7" d="M253.76,247.84A33.89,33.89,0,0,1,239,240.39c-3.84-3.22-6.9-7.25-9.93-11.23a46,46,0,0,0,3.31,6.67,43.26,43.26,0,0,0,8.83,10.47A24.45,24.45,0,0,0,254,252"/><path id="Path_1158" data-name="Path 1158" class="cls-7" d="M257,191.13c0,2.16-1.2,3.92-2.68,3.92s-2.68-1.76-2.68-3.92,1.2-3.91,2.68-3.91S257,189,257,191.13Z"/><path id="Path_1159" data-name="Path 1159" class="cls-7" d="M284,191.13c0,2.16-1.2,3.92-2.68,3.92s-2.67-1.76-2.67-3.92,1.2-3.91,2.67-3.91S284,189,284,191.13Z"/><path id="Path_1160" data-name="Path 1160" class="cls-11" d="M270.73,186.09a57.26,57.26,0,0,1,4.95,27.31H263.84"/><ellipse id="Ellipse_16" data-name="Ellipse 16" class="cls-7" cx="269.37" cy="228.43" rx="4.99" ry="2.13"/><path id="Path_1161" data-name="Path 1161" class="cls-12" d="M242.55,184.67a18.6,18.6,0,0,1,9.36-7.79,26.3,26.3,0,0,1,12.21-1.5"/><path id="Path_1162" data-name="Path 1162" class="cls-13" d="M290,184.67a17.33,17.33,0,0,0-8.38-7.79,21.3,21.3,0,0,0-10.93-1.5"/><path id="Path_1163" data-name="Path 1163" class="cls-14" d="M208.25,263.3S232,286.77,254,281.83s17.1-26.18,17.1-26.18"/><path id="Path_1164" data-name="Path 1164" class="cls-14" d="M325.83,349.86a359.54,359.54,0,0,0-10.24-65.45"/><path id="Path_1165" data-name="Path 1165" class="cls-14" d="M367.46,307.54s-8.3,14-17.79,20.77S325.16,341,325.16,341"/><path id="Path_1166" data-name="Path 1166" class="cls-14" d="M187.21,349.27a67.74,67.74,0,0,0,4.95-27.7c-.48-9.44-3.57-18.87-9.54-26.2"/><path id="Path_1167" data-name="Path 1167" class="cls-14" d="M119.45,352.13s7.3,10,23.12,17.72,32.29,6.35,32.29,6.35"/><g id="Group_614" data-name="Group 614" class="cls-15"><path id="Path_1168" data-name="Path 1168" class="cls-16" d="M215.59,144.94c8.94,5.6,20.07,6.28,30.58,5.55s21-2.7,31.52-1.79c4.58.39,9.28,1.41,13,4.18s6.09,7.6,4.88,12"/><path id="Path_1169" data-name="Path 1169" class="cls-16" d="M223.28,135.69c6.45,2.5,13.67,2,20.47.74s13.47-3.33,20.37-3.89,14.28.57,19.62,5"/><path id="Path_1170" data-name="Path 1170" class="cls-16" d="M221.72,159.46a13,13,0,0,1-1.77,8,28.33,28.33,0,0,1-17.21,14"/><path id="Path_1171" data-name="Path 1171" class="cls-16" d="M212.1,153.84a20.71,20.71,0,0,1-11,12.74l.44-1"/></g><path id="Path_1172" data-name="Path 1172" class="cls-9" d="M201.57,444.89s5.6-1.18,8-3,4.57-4.52,4.89-7.47c3.05.38,5.31,3,8.09,4.25a1.26,1.26,0,0,0,1,.12c.52-.25.46-1,.3-1.55a16.61,16.61,0,0,0-13.11-11.54,28.39,28.39,0,0,1,8.65,2.15c1.88.92,3.59,2.28,5.64,2.69a.86.86,0,0,0,.61-.05.71.71,0,0,0,.28-.57,3.68,3.68,0,0,0-1.63-2.87A31.27,31.27,0,0,0,208,419.5a26.79,26.79,0,0,1,17.87,3,3.87,3.87,0,0,0,1.73.67,1.26,1.26,0,0,0,1.36-1,1.54,1.54,0,0,0-.2-.76,12.88,12.88,0,0,0-5.5-5.41,28.38,28.38,0,0,0-19.09-3.6,28.1,28.1,0,0,1,18.46-.55,31.58,31.58,0,0,0,4.95,1.46.78.78,0,0,0,.58-.08c.27-.23.1-.67-.09-1a17.55,17.55,0,0,0-11.68-7.34c-4.66-.8-10-.85-13.66,2.12a36.83,36.83,0,0,0-2.67,8.9c-.79,4.92-2.33,14.69-2.33,14.69l-4.67.23,7.58,14Z"/><path id="Path_1173" data-name="Path 1173" class="cls-9" d="M361.82,325.63a72.32,72.32,0,0,1-11.33,10,122,122,0,0,1-12.18,7.53l26.34,35.26L344.38,413.1S341,404,339.22,399.4a36.09,36.09,0,0,0-4.34-8c-4.14-2.13-9.26-1-13.59.67a17.29,17.29,0,0,0-9.8,9.39c-.13.33-.2.79.11.95a.43.43,0,0,0,.16.05,3.76,3.76,0,0,0,2.42-.89,27.53,27.53,0,0,1,20.37-4.72,28.28,28.28,0,0,0-20.31,9.95,6.28,6.28,0,0,0-1.67,4.16,1.85,1.85,0,0,0,0,.23,1.22,1.22,0,0,0,1.51.7,3.89,3.89,0,0,0,1.54-1,26.38,26.38,0,0,1,16.61-6.42A30.8,30.8,0,0,0,318.07,415a3.69,3.69,0,0,0-1,3.1.72.72,0,0,0,.38.49.83.83,0,0,0,.6-.08c1.89-.8,3.27-2.44,4.9-3.7a27.58,27.58,0,0,1,7.9-3.8,16.34,16.34,0,0,0-10.34,13.73c0,.56.05,1.3.6,1.43a1.18,1.18,0,0,0,.95-.32c2.43-1.79,4.1-4.73,7-5.69.9,2.77,3.55,5,6.2,6.22a13.78,13.78,0,0,0,5.28,1.23h0a21.18,21.18,0,0,0,13.61-5.67l45.1-49.83Z"/><path id="Path_1174" data-name="Path 1174" class="cls-17" d="M360.2,386s7.1-13.38,13.57-18.16a37.61,37.61,0,0,1,13-6.15"/><path id="Path_1175" data-name="Path 1175" class="cls-14" d="M161.13,407.41s-2.84-2-7.62-4.82-13.28-3.92-19.26-2.72"/></g><g id="Group_621" data-name="Group 621"><g id="Group_617" data-name="Group 617"><g id="Group_616" data-name="Group 616"><path id="Path_1176" data-name="Path 1176" class="cls-9" d="M428.18,303.18s-6.46-13.3-10.83-16.5-15-6.89-17.06-6.81-.93,4.2-.06,5,7.09,5,7.09,5-10.37-3.68-12.73-5.53-16-15.24-17.49-14.74-.16,6,1.93,8.35,14.48,13.49,14.48,13.49-20.54-16.61-22-16-2.69,11,3.07,17.41,15.1,11.66,18.72,12.83,15.55,3.06,15.55,3.06l4.39,4.61Z"/><path id="Path_1177" data-name="Path 1177" class="cls-18" d="M407.3,289.84a16.3,16.3,0,0,0,4.87,11.73"/><path id="Path_1178" data-name="Path 1178" class="cls-18" d="M371.86,287.76a1,1,0,0,1,1.23-.78h.05a3,3,0,0,1,1.38.92,73.41,73.41,0,0,0,17.3,12.37"/><path id="Path_1179" data-name="Path 1179" class="cls-18" d="M370.47,282c.28-.86.79-1.9,1.69-1.85a2.14,2.14,0,0,1,1.27.75c5.39,5.27,11.62,9.6,17.8,13.9"/></g><path id="Path_1180" data-name="Path 1180" class="cls-9" d="M408.88,308.76,441.5,415.7l18.4-37.62-31.72-74.9Z"/></g><path id="Path_1181" data-name="Path 1181" class="cls-9" d="M504.06,213.88s20-22.72,18.45-37.73a57.94,57.94,0,0,0-5.21-18.69,29.15,29.15,0,0,0-7.87-10.74c-4.48-3.54-10.23-4.93-15.75-6.39-8.13-2.14-16.47-4.65-24.79-3.48-6.18.87-12,3.45-17.56,6.33-7,3.63-9.68,10.68-12.25,18.11a71.9,71.9,0,0,0-4.16,23.1,33,33,0,0,1-.8,9.13c-1.34,4.68-10.26,12-10.26,12s6.08,3.19,9.1,3.84c1.16,4,2.08,7.39,3.1,10.75l.36,0c1.91,0,4.62,1,4.62,2.24,0,1-2.19,1.8-3.6,2.08.77,2.25,1.63,4.55,2.7,7.08.81,1.9,3.61,6.9,5.31,8.08a10.16,10.16,0,0,0,6.06,1.29,43.76,43.76,0,0,0,17.7-4.21c.44,2.62.4,4.7.64,7.35a25.65,25.65,0,0,1,0,6.13c-.7,4.52-3.47,8.41-6.15,12.11,6.21,2.69,13.11,2.07,19.8,1,7.39-1.14,15.3-2.91,20.21-8.55,1.88,0,1.29-.33,1.86-2.11A22.33,22.33,0,0,0,506,247Z"/><path id="Path_1182" data-name="Path 1182" class="cls-7" d="M506,247A62.45,62.45,0,0,1,484.6,258.3c-12,3.28-19,1.19-19,1.19S447.82,286.36,445,324.26,437.85,452,437.85,452H561.29L535.46,322.27l23.93-10.92s-10-24.51-19.79-40.14A55.52,55.52,0,0,0,506,247Z"/><path id="Path_1183" data-name="Path 1183" class="cls-9" d="M546.7,317.14l-33,14.76,16.51,50.54L503.06,452h21.82l34.22-71.78Z"/><path id="Path_1184" data-name="Path 1184" class="cls-16" d="M513.69,331.9l-14.12,6.74S488.18,309.42,485.91,295s.83-29.21.83-29.21"/><path id="Path_1185" data-name="Path 1185" class="cls-7" d="M468.69,236.8a41.27,41.27,0,0,0,11.46-11.12,47.65,47.65,0,0,1-10.43,16.77Z"/><path id="Path_1186" data-name="Path 1186" class="cls-7" d="M446.13,191.83c0,1.91-1,3.47-2.32,3.47s-2.31-1.56-2.31-3.47,1-3.48,2.31-3.48S446.13,189.91,446.13,191.83Z"/><path id="Path_1187" data-name="Path 1187" class="cls-19" d="M453.63,188.8a15.31,15.31,0,0,0-16.82-9.52"/><g id="Group_619" data-name="Group 619"><path id="Path_1188" data-name="Path 1188" class="cls-7" d="M511.84,224.54a10.11,10.11,0,0,0,1.18,3.2c.42,1.07.49,2.49-.44,3.16a3,3,0,0,1-2.17.29,19.3,19.3,0,0,1-16-16l.23,3.89a2.28,2.28,0,0,1-.29,1.55,1.77,1.77,0,0,1-1.69.48c-2.24-.33-3.76-2.38-4.94-4.3A76.07,76.07,0,0,0,471,198s-6.43-14.1,5.1-30.49a35.27,35.27,0,0,1-16.34,6.86,4.72,4.72,0,0,1-2.18,0,1.75,1.75,0,0,1-1.29-1.6,2.42,2.42,0,0,1,.61-1.29,29,29,0,0,1,5.51-5.61c-7.52,3.72-16.61,4.86-25,5.17-1.13,0-2.63-.22-2.78-1.35a2.18,2.18,0,0,1,.52-1.44,14.64,14.64,0,0,1,3.5-3.61c-5.26,2.42-10.59,4.55-16.05,2.65a5.66,5.66,0,0,1-3.06-2.17,2.8,2.8,0,0,1,.34-3.49,4.84,4.84,0,0,1,1.56-.77c7.3-2.71,11.37-10.24,16.63-16a42.06,42.06,0,0,1,26.79-13.36,15.93,15.93,0,0,1-4.63-2.86,2.79,2.79,0,0,1-1.21-2c0-1.23,1.42-1.9,2.6-2.25a45.77,45.77,0,0,1,52.34,20.54c-.12-2.46-.28-4.49-.4-6.95-.07-1.31.1-3,1.35-3.39a2.59,2.59,0,0,1,2.37.84c2.89,2.7,3.19,7.09,3.3,11a18.8,18.8,0,0,1,6.52,2.84,9.59,9.59,0,0,1,4.08,5.9c.07.36.08.79-.22,1a1.05,1.05,0,0,1-.72.07,59.43,59.43,0,0,1-7.57-1.78c6.23,5.58,8.65,14.93,8,23.27s-4.08,16.21-8,23.61-11.2,14.8-10.81,23.16Z"/><g id="Group_618" data-name="Group 618" class="cls-20"><path id="Path_1189" data-name="Path 1189" class="cls-16" d="M437.58,164.35a10.45,10.45,0,0,0,5.69-2.73c6-4.86,10.27-11.66,16.72-15.86a26.68,26.68,0,0,1,23.2-2.67,11.11,11.11,0,0,1-2-3.86,2.26,2.26,0,0,1,0-1.43c.34-.85,1.45-1.05,2.37-1a22,22,0,0,1,8.8,2.67c7.22,3.53,13.88,8.07,20.52,12.6"/><path id="Path_1190" data-name="Path 1190" class="cls-16" d="M509.91,156.56a23,23,0,0,0-14.3-4.05c-6.73.39-12.89,3.71-18.93,6.71q-8.25,4.08-16.79,7.55"/><path id="Path_1191" data-name="Path 1191" class="cls-16" d="M514.33,160.13a24.77,24.77,0,0,1-3.86,32.57c1.5-.16,2.39,1.69,2.46,3.19.14,3.08-1.12,6-2.56,8.76a47.23,47.23,0,0,0-3.3,6.74,17.51,17.51,0,0,0,5.88,19.1"/><path id="Path_1192" data-name="Path 1192" class="cls-16" d="M495.39,217.6a59,59,0,0,1-1.28-29.16,45.36,45.36,0,0,1,14.78-24.92"/></g></g><g id="Group_620" data-name="Group 620"><path id="Path_1193" data-name="Path 1193" class="cls-9" d="M489.23,194.71a16,16,0,0,1-7,10.95,8.31,8.31,0,0,1-3.87,1.48c-3.13.23-6-2.34-6.93-5.34s-.4-6.27.55-9.27c1.23-3.87,3.59-7.94,7.55-8.87,6.38-1.49,10.44,5.59,9.66,11.05Z"/><path id="Path_1194" data-name="Path 1194" class="cls-9" d="M474.71,203.32a7.72,7.72,0,0,0,3.57-2.31,1.51,1.51,0,0,0,.41-.74,1.75,1.75,0,0,0-.72-1.41l-2.37-2.36a1,1,0,0,1-.3-1.26c.89-3,1.95-6.2,4.52-8a4.39,4.39,0,0,1,2.34-.85,4.25,4.25,0,0,1,3.22,1.67,11.67,11.67,0,0,1,1.74,3.29s.66,6.4-3.77,10.25-8.64,1.68-8.64,1.68Z"/><path id="Path_1195" data-name="Path 1195" class="cls-10" d="M487.13,191.39a11.45,11.45,0,0,0-1.75-3.29,4.25,4.25,0,0,0-3.22-1.67,4.42,4.42,0,0,0-2.34.85c-2.57,1.76-3.63,5-4.52,8a1,1,0,0,0,.3,1.26l2.37,2.36a1.79,1.79,0,0,1,.73,1.41,1.61,1.61,0,0,1-.42.74,7.72,7.72,0,0,1-3.57,2.31"/></g></g></g></svg>