<svg id="圖層_1" data-name="圖層 1" xmlns="http://www.w3.org/2000/svg" viewBox="0 0 685 452"><defs><style>.cls-1{fill:#6a6a6a;}.cls-1,.cls-10,.cls-11,.cls-12,.cls-14,.cls-16,.cls-2,.cls-22,.cls-23,.cls-24,.cls-25,.cls-26,.cls-27,.cls-28,.cls-29,.cls-3,.cls-30,.cls-31,.cls-32,.cls-33,.cls-34,.cls-35,.cls-36,.cls-37,.cls-38,.cls-39,.cls-4,.cls-40,.cls-41,.cls-42,.cls-43,.cls-44,.cls-49,.cls-5,.cls-50,.cls-51,.cls-6,.cls-7,.cls-8,.cls-9{fill-rule:evenodd;}.cls-2{fill:#5b1623;}.cls-3{fill:#911024;}.cls-4{fill:#710f23;}.cls-5{fill:#c8381c;}.cls-6{fill:#a9131d;}.cls-7{fill:#b01f1d;}.cls-8{fill:#d95a18;}.cls-9{fill:#739a2e;}.cls-10{fill:#884b19;}.cls-11{fill:#bd6e1c;}.cls-12,.cls-13{fill:#96af27;}.cls-14{fill:#dddada;}.cls-15{fill:#358835;}.cls-16{fill:#b9b6b6;}.cls-17{fill:#355b27;}.cls-18{fill:#e40019;}.cls-19{fill:#851021;}.cls-20{fill:#fdc400;}.cls-21{fill:#f9ad00;}.cls-22{fill:#008cd6;}.cls-23{fill:#ef8c84;}.cls-24,.cls-45{fill:#f5b2a2;}.cls-25{fill:#53514e;}.cls-26{fill:#192527;}.cls-27{fill:#0d0f12;}.cls-28{fill:#1b2a2c;}.cls-29{fill:#cecbc7;}.cls-30{fill:#e4001d;}.cls-31{fill:#db001b;}.cls-32{fill:#f2e3e0;}.cls-33{fill:#1a3434;}.cls-34{fill:#998887;}.cls-35,.cls-46{fill:#f0958a;}.cls-36{fill:#272829;}.cls-37{fill:#d0cdc9;}.cls-38{fill:#007dae;}.cls-39{fill:#ed827a;}.cls-40{fill:#193536;}.cls-41{fill:#111518;}.cls-42{fill:#fc3;}.cls-43{fill:#004c75;}.cls-44{fill:#fff;}.cls-47{fill:#2d1c1e;}.cls-48{fill:#eb6249;}.cls-49{fill:#361e21;}.cls-50{fill:#281a1d;}.cls-51{fill:#55291b;}</style></defs><g id="img"><g id="Group_484" data-name="Group 484"><g id="Group_392" data-name="Group 392"><g id="Group_391" data-name="Group 391"><g id="Group_390" data-name="Group 390"><path id="Path_698" data-name="Path 698" class="cls-1" d="M415.32,380.73c107.32,0,194.35,6.52,194.35,14.57s-87,14.56-194.35,14.56S221,403.34,221,395.3,308,380.73,415.32,380.73Z"/></g></g></g><g id="Group_395" data-name="Group 395"><g id="Group_394" data-name="Group 394"><g id="Group_393" data-name="Group 393"><path id="Path_699" data-name="Path 699" class="cls-2" d="M537.3,258.35h12.31v9.73h-12.3v-9.73Z"/></g></g></g><g id="Group_398" data-name="Group 398"><g id="Group_397" data-name="Group 397"><g id="Group_396" data-name="Group 396"><path id="Path_700" data-name="Path 700" class="cls-3" d="M433.29,258.34h11.36v139.4H433.29Z"/></g></g></g><g id="Group_401" data-name="Group 401"><g id="Group_400" data-name="Group 400"><g id="Group_399" data-name="Group 399"><path id="Path_701" data-name="Path 701" class="cls-3" d="M340.28,258.34h11.36v139.4H340.28Z"/></g></g></g><g id="Group_411" data-name="Group 411"><g id="Group_404" data-name="Group 404"><g id="Group_403" data-name="Group 403"><g id="Group_402" data-name="Group 402"><path id="Path_702" data-name="Path 702" class="cls-4" d="M443.93,258.34h11.35v139.4H443.93V258.34Z"/></g></g></g><g id="Group_407" data-name="Group 407"><g id="Group_406" data-name="Group 406"><g id="Group_405" data-name="Group 405"><path id="Path_703" data-name="Path 703" class="cls-4" d="M258.9,258.34h11.35v139.4H258.9Z"/></g></g></g><g id="Group_410" data-name="Group 410"><g id="Group_409" data-name="Group 409"><g id="Group_408" data-name="Group 408"><path id="Path_704" data-name="Path 704" class="cls-4" d="M351.56,258.34h11.36v139.4H351.56Z"/></g></g></g></g><g id="Group_414" data-name="Group 414"><g id="Group_413" data-name="Group 413"><g id="Group_412" data-name="Group 412"><path id="Path_705" data-name="Path 705" class="cls-4" d="M537.3,258.34h13.15v139.4H537.3Z"/></g></g></g><g id="Group_417" data-name="Group 417"><g id="Group_416" data-name="Group 416"><g id="Group_415" data-name="Group 415"><path id="Path_706" data-name="Path 706" class="cls-5" d="M433.29,258.34h104v39.27h-104Z"/></g></g></g><g id="Group_420" data-name="Group 420"><g id="Group_419" data-name="Group 419"><g id="Group_418" data-name="Group 418"><path id="Path_707" data-name="Path 707" class="cls-3" d="M239.18,248.61H547.8v9.74H239.18v-9.74Z"/></g></g></g><g id="Group_423" data-name="Group 423"><g id="Group_422" data-name="Group 422"><g id="Group_421" data-name="Group 421"><path id="Path_708" data-name="Path 708" class="cls-6" d="M444.65,258.35h82.07v9.73H444.65Z"/></g></g></g><g id="Group_426" data-name="Group 426"><g id="Group_425" data-name="Group 425"><g id="Group_424" data-name="Group 424"><path id="Path_709" data-name="Path 709" class="cls-4" d="M547.8,248.61h25.66v9.74H547.8Z"/></g></g></g><g id="Group_429" data-name="Group 429"><g id="Group_428" data-name="Group 428"><g id="Group_427" data-name="Group 427"><path id="Path_710" data-name="Path 710" class="cls-3" d="M526,258.34h11.35v139.4H526V258.34Z"/></g></g></g><g id="Group_432" data-name="Group 432"><g id="Group_431" data-name="Group 431"><g id="Group_430" data-name="Group 430"><path id="Path_711" data-name="Path 711" class="cls-7" d="M457.83,268.14h54.95v20.24H457.83Z"/></g></g></g><g id="Group_435" data-name="Group 435"><g id="Group_434" data-name="Group 434"><g id="Group_433" data-name="Group 433"><path id="Path_712" data-name="Path 712" class="cls-6" d="M485.3,278.26l27.48,10.12H457.83Z"/></g></g></g><g id="Group_438" data-name="Group 438"><g id="Group_437" data-name="Group 437"><g id="Group_436" data-name="Group 436"><path id="Path_713" data-name="Path 713" class="cls-8" d="M485.3,278.26l27.48-10.12H457.83Z"/></g></g></g><g id="Group_441" data-name="Group 441"><g id="Group_440" data-name="Group 440"><g id="Group_439" data-name="Group 439"><path id="Path_714" data-name="Path 714" class="cls-5" d="M340.28,258.34h104v39.27h-104Z"/></g></g></g><g id="Group_444" data-name="Group 444"><g id="Group_443" data-name="Group 443"><g id="Group_442" data-name="Group 442"><path id="Path_715" data-name="Path 715" class="cls-6" d="M351.64,258.35H433.7v9.73H351.64Z"/></g></g></g><g id="Group_447" data-name="Group 447"><g id="Group_446" data-name="Group 446"><g id="Group_445" data-name="Group 445"><path id="Path_716" data-name="Path 716" class="cls-3" d="M433,258.34H444.3v139.4H433Z"/></g></g></g><g id="Group_450" data-name="Group 450"><g id="Group_449" data-name="Group 449"><g id="Group_448" data-name="Group 448"><path id="Path_717" data-name="Path 717" class="cls-7" d="M364.82,268.14h54.95v20.24H364.82Z"/></g></g></g><g id="Group_453" data-name="Group 453"><g id="Group_452" data-name="Group 452"><g id="Group_451" data-name="Group 451"><path id="Path_718" data-name="Path 718" class="cls-6" d="M392.29,278.26l27.48,10.12H364.82Z"/></g></g></g><g id="Group_456" data-name="Group 456"><g id="Group_455" data-name="Group 455"><g id="Group_454" data-name="Group 454"><path id="Path_719" data-name="Path 719" class="cls-8" d="M392.29,278.26l27.48-10.12H364.82Z"/></g></g></g><g id="Group_459" data-name="Group 459"><g id="Group_458" data-name="Group 458"><g id="Group_457" data-name="Group 457"><path id="Path_720" data-name="Path 720" class="cls-5" d="M247.92,258.34h104v39.27h-104Z"/></g></g></g><g id="Group_462" data-name="Group 462"><g id="Group_461" data-name="Group 461"><g id="Group_460" data-name="Group 460"><path id="Path_721" data-name="Path 721" class="cls-6" d="M259.27,258.35h82.07v9.73H259.27Z"/></g></g></g><g id="Group_465" data-name="Group 465"><g id="Group_464" data-name="Group 464"><g id="Group_463" data-name="Group 463"><path id="Path_722" data-name="Path 722" class="cls-3" d="M247.92,258.34h11.35v139.4H247.92Z"/></g></g></g><g id="Group_468" data-name="Group 468"><g id="Group_467" data-name="Group 467"><g id="Group_466" data-name="Group 466"><path id="Path_723" data-name="Path 723" class="cls-3" d="M340.58,258.34h11.36v139.4H340.58Z"/></g></g></g><g id="Group_471" data-name="Group 471"><g id="Group_470" data-name="Group 470"><g id="Group_469" data-name="Group 469"><path id="Path_724" data-name="Path 724" class="cls-7" d="M272.45,268.14H327.4v20.24H272.45Z"/></g></g></g><g id="Group_474" data-name="Group 474"><g id="Group_473" data-name="Group 473"><g id="Group_472" data-name="Group 472"><path id="Path_725" data-name="Path 725" class="cls-6" d="M299.93,278.26l27.47,10.12H272.45Z"/></g></g></g><g id="Group_477" data-name="Group 477"><g id="Group_476" data-name="Group 476"><g id="Group_475" data-name="Group 475"><path id="Path_726" data-name="Path 726" class="cls-8" d="M299.93,278.26l27.47-10.12H272.45Z"/></g></g></g><g id="Group_480" data-name="Group 480"><g id="Group_479" data-name="Group 479"><g id="Group_478" data-name="Group 478"><path id="Path_727" data-name="Path 727" class="cls-3" d="M258.17,296.65H526.59v9.13H258.17v-9.13Z"/></g></g></g><g id="Group_483" data-name="Group 483"><g id="Group_482" data-name="Group 482"><g id="Group_481" data-name="Group 481"><path id="Path_728" data-name="Path 728" class="cls-3" d="M258.17,388.61H526.59v9.13H258.17v-9.13Z"/></g></g></g></g><g id="Group_367" data-name="Group 367"><g id="Group_342" data-name="Group 342"><path id="Path_670" data-name="Path 670" class="cls-9" d="M602.42,441.71c-1.36-.54-5.54-3.34-15.16-7.85-1.24-.58-2.45-1.11-3.65-1.6-2.19-5.82-2.73-9.68-1.28-12.77A228.63,228.63,0,0,1,602.42,441.71Z"/></g><g id="Group_343" data-name="Group 343"><path id="Path_671" data-name="Path 671" class="cls-9" d="M580,417.26c-1.72,4.64-3.55,8.1-3.66,12.42a75.08,75.08,0,0,0-8.51-2c-.31-5.53,1.47-10.84,4.53-17.19q3.84,3.22,7.64,6.77Z"/></g><g id="Group_366" data-name="Group 366"><g id="Group_344" data-name="Group 344"><path id="Path_672" data-name="Path 672" class="cls-10" d="M488.6,451.54l-6.35-36h37.58l-6.35,36Z"/></g><g id="Group_345" data-name="Group 345"><path id="Path_673" data-name="Path 673" class="cls-11" d="M482.25,451.54l-6.36-36h37.58l-6.35,36Z"/></g><g id="Group_347" data-name="Group 347"><g id="Group_346" data-name="Group 346"><path id="Path_674" data-name="Path 674" class="cls-12" d="M530.36,372.61c-3.45-12.41,6.21-22.3,26-18.43-10.16,1.87-13.26,12.8-14.45,20.59,1.39,1.64,1.57,1.87,3.13,3.6.15-10,4-16.74,14.54-23.41,6.35,2.33,11.19,6.41,16.85,10-10.57.65-20.09,11.12-23.63,21.74,1.31,1.35,2.68,2.74,4.1,4.14,5.5-10.94,13.22-19.18,22-23.56,2.94,2.94,7.57,10.77,9.51,14.11-10.12-.9-19,4.8-25.44,15.32,1.16,1.1.56.55,1.77,1.68,7.51-8.53,17.3-11.19,25.71-12.12a84.44,84.44,0,0,1,2.51,9c-7.12,1.07-14.14,4.13-21,9.81l3.37,3c6.77-3.62,13.15-5.15,19.2-4.9.47,2.8.9,5.66,1.32,8.58a49.25,49.25,0,0,0-13.08,2.84c1.42,1.23,1.21,1.05,2.69,2.31,2.63-1.33,6.84-1.15,11.33,1.3.46,3,.94,6.12,1.51,9.25,3.3,18.29,12.81,17.61-11,6.43-1.24-.58-2.45-1.11-3.65-1.6-2.46-6.51-2.84-10.57-.67-13.85-1.27-1.34-1.22-1.29-2.46-2.58-1.83,5.4-4,9.09-4.16,13.85a74.58,74.58,0,0,0-8.51-2c-.34-6.08,1.85-11.89,5.48-19.12,0,0-1.54-1.62-2.55-2.61-5.62,7.43-8.36,11.37-7.15,21.08-3.13-.3-9.88-.87-12.82-1.07.7-8.72,4-18,12.72-26.71-1.14-1.08-.6-.93-1.72-2-11.61,8.29-18.6,17.25-21.43,27.6A83.35,83.35,0,0,1,526,420.35c3.16-11.4,13.28-22.4,26.58-30.51-1.42-1.26-.73-.64-2.1-1.81-14,6.19-25.14,16.4-31.49,27.58a68.47,68.47,0,0,1-6.4-5.64c-.43-.42-3-2.85-3.37-3.26,5.69-11.09,20-19,34.89-24.69-1.75-1.38-.88-.75-2.53-2-19.1,2.62-28.66,10.23-35.6,23.22-16.79-24.37,10.66-34.28,24.36-30.67Z"/></g></g><g id="Group_348" data-name="Group 348"><path id="Path_675" data-name="Path 675" class="cls-9" d="M569.24,407.94c-4.6,6.22-6.75,10.29-5.65,19.09-3.13-.29-9.88-.87-12.82-1.06a40.56,40.56,0,0,1,10.32-24.18q4.1,2.9,8.15,6.15Z"/></g><g id="Group_349" data-name="Group 349"><path id="Path_676" data-name="Path 676" class="cls-9" d="M558.31,399.88c-9.55,7.57-15.42,15.73-18,25A83.62,83.62,0,0,1,526,420.35c2.74-9.87,10.7-19.45,21.42-27.1C551.07,395.23,554.7,397.45,558.31,399.88Z"/></g><g id="Group_350" data-name="Group 350"><path id="Path_677" data-name="Path 677" class="cls-9" d="M543.88,391.37c-10.9,6.21-19.56,14.89-24.86,24.24a68.58,68.58,0,0,1-6.41-5.64c-.42-.42-3-2.85-3.37-3.26,4.28-8.34,13.42-14.9,24-20a111.26,111.26,0,0,1,10.6,4.7Z"/></g><g id="Group_351" data-name="Group 351"><path id="Path_678" data-name="Path 678" class="cls-9" d="M525.84,384.18c-9.24,4-15.14,10.31-19.84,19.1-6.59-9.57-6.36-16.92-2.81-22.08a72.24,72.24,0,0,1,22.64,3Z"/></g><g id="Group_353" data-name="Group 353"><g id="Group_352" data-name="Group 352"><path id="Path_679" data-name="Path 679" class="cls-13" d="M496.37,415.69l4-.3c-1.94-25.8,1.44-42.66,9.51-47.48,5-3,12-1.57,20.91,4.14l2.17-3.38c-10.3-6.6-18.75-8-25.14-4.21-9.73,5.8-13.58,23-11.47,51.23Z"/></g></g><g id="Group_355" data-name="Group 355"><g id="Group_354" data-name="Group 354"><path id="Path_680" data-name="Path 680" class="cls-12" d="M483.43,347.63c2.13-7.63-3.82-13.71-16-11.32,6.25,1.14,8.15,7.86,8.89,12.65-.86,1-1,1.14-1.93,2.21-.09-6.12-2.45-10.29-8.94-14.38-3.9,1.42-6.87,3.93-10.35,6.13,6.49.4,12.35,6.84,14.53,13.36q-1.22,1.25-2.52,2.55c-3.38-6.72-8.13-11.79-13.5-14.48-1.81,1.81-4.65,6.62-5.84,8.67,6.21-.56,11.7,3,15.63,9.42-.71.68-.34.34-1.09,1-4.62-5.24-10.63-6.88-15.8-7.45a52.12,52.12,0,0,0-1.54,5.5,26.3,26.3,0,0,1,12.92,6l-2.07,1.86a22.88,22.88,0,0,0-11.8-3q-.42,2.58-.81,5.27a30.34,30.34,0,0,1,8,1.75c-.88.75-.74.65-1.65,1.41-1.62-.81-4.21-.7-7,.81-.28,1.86-.57,3.76-.92,5.68-2,11.24-7.88,10.83,6.77,3.95.76-.35,1.5-.68,2.24-1,1.51-4,1.74-6.5.41-8.51l1.51-1.59c1.13,3.32,2.49,5.59,2.56,8.51a44.41,44.41,0,0,1,5.22-1.22c.2-3.74-1.13-7.31-3.37-11.75,0,0,.95-1,1.57-1.61,3.45,4.56,5.14,7,4.39,12.95,1.93-.18,6.08-.53,7.88-.65A25.21,25.21,0,0,0,463.06,364c.71-.67.38-.57,1.06-1.21,7.13,5.11,11.43,10.6,13.17,17a51.14,51.14,0,0,0,8.8-2.79c-1.94-7-8.16-13.77-16.34-18.75.88-.78.45-.4,1.29-1.12a41.64,41.64,0,0,1,19.36,17,40.57,40.57,0,0,0,3.94-3.47l2.07-2c-3.49-6.82-12.28-11.7-21.45-15.17,1.08-.85.55-.47,1.56-1.21,11.74,1.61,17.61,6.29,21.88,14.27,10.32-15-6.55-21.06-15-18.84Z"/></g></g><g id="Group_357" data-name="Group 357"><g id="Group_356" data-name="Group 356"><path id="Path_681" data-name="Path 681" class="cls-9" d="M440.71,385.27a56.8,56.8,0,0,1,10.4-9.49c1.33,2,1.1,4.51-.41,8.51-.73.3-1.48.63-2.24,1C435.81,391.21,438.45,392.33,440.71,385.27Zm12.06-10.66c1.6-1.1,3.3-2.19,5.08-3.24,1.74,3.71,2.74,6.85,2.56,10.11a44.58,44.58,0,0,0-5.23,1.22C455.11,379.91,453.87,377.71,452.77,374.61Zm7.31-4.51c1.84-1,3.77-2,5.75-3a24.78,24.78,0,0,1,5.06,13.29c-1.81.12-6,.47-7.88.65.63-5-.48-7.56-2.93-11Zm8.14-4.06,1.52-.66c2.17-.93,4.32-1.77,6.47-2.52,4.92,4.21,8.5,9.09,9.89,14.11a52.06,52.06,0,0,1-8.8,2.8c-1.38-5-4.36-9.54-9.08-13.73Zm11-4.2c2.86-.9,5.65-1.64,8.35-2.23,3.87,2.54,7,5.51,8.79,9-.25.26-1.81,1.75-2.07,2a46.08,46.08,0,0,1-3.93,3.46,39.69,39.69,0,0,0-11.14-12.22Zm13.26-3.11a56.62,56.62,0,0,1,9.1-.66c-.06,2.39-1,5.2-3.23,8.41A27.47,27.47,0,0,0,492.53,358.73Z"/></g></g><g id="Group_359" data-name="Group 359"><g id="Group_358" data-name="Group 358"><path id="Path_682" data-name="Path 682" class="cls-13" d="M502.93,377.84c5.35-19.39,4.82-31.62-1.58-36.33-4.56-3.36-11.65-2.28-20,3l2.17,3.39c6.7-4.3,12.31-5.46,15.4-3.19,4.7,3.47,4.74,15.14.08,32Z"/></g></g><g id="Group_361" data-name="Group 361"><g id="Group_360" data-name="Group 360"><path id="Path_683" data-name="Path 683" class="cls-13" d="M503.71,353.57l2.72-.75c-5.14-18.65-4.46-32.55,1.82-37.17,3.64-2.68,9-2,15,1.83l1.52-2.38c-7.07-4.53-13.51-5.14-18.16-1.72-7.36,5.43-8.41,20.07-2.87,40.19Z"/></g></g><g id="Group_363" data-name="Group 363"><g id="Group_362" data-name="Group 362"><path id="Path_684" data-name="Path 684" class="cls-12" d="M524,316.29c-4.08-4.63-2-10.91,7.37-13.39-4,2.93-3,8.29-1.92,11.9,1,.41,1.06.47,2.11.89-2-4.32-1.79-8.05,1.37-13.13,3.22-.32,6.16.43,9.35.79-4.42,2.48-6.34,9-5.64,14.31l2.63.93c.09-5.87,1.7-11,4.55-14.75a44.44,44.44,0,0,1,7.05,4.09c-4.55,1.72-7.21,6.05-7.77,11.92l1.12.36c1.46-5.25,5.11-8.45,8.54-10.61a40.94,40.94,0,0,1,3,3.34,20.47,20.47,0,0,0-7,8.63l2.09.6A17.76,17.76,0,0,1,558,316c.79,1.11,1.57,2.25,2.36,3.42a23.55,23.55,0,0,0-5,4c.87.23.74.21,1.64.43.86-1.12,2.71-1.92,5.16-1.8.83,1.21,1.69,2.44,2.58,3.67,5.25,7.19,9.21,4.91-3.4,5.07-.66,0-1.29,0-1.91.08-2.42-2.3-3.44-4-3.19-5.83l-1.59-.61c.33,2.72.15,4.77,1.1,6.85a35.53,35.53,0,0,0-4.09.91c-1.42-2.54-1.69-5.51-1.64-9.38,0,0-1-.38-1.64-.59-.87,4.37-1.23,6.64,1.32,10.58-1.41.53-4.44,1.69-5.74,2.22a19.62,19.62,0,0,1-.11-14.17c-.72-.23-.45-.28-1.15-.49-3.27,6-4.41,11.32-3.46,16.38a40.87,40.87,0,0,1-7.13,1c-1-5.58,1-12.44,5.09-18.72-.89-.24-.46-.12-1.29-.33a32.37,32.37,0,0,0-7.8,18.47,33.44,33.44,0,0,1-4-1.09c-.27-.09-1.87-.6-2.13-.7.13-6,4.63-12.38,9.88-17.94-1-.23-.54-.14-1.51-.32-7.68,5.12-10.22,10.41-10.48,17.46-12.34-7-2.58-17,4.08-18.32Z"/></g></g><g id="Group_365" data-name="Group 365"><g id="Group_364" data-name="Group 364"><path id="Path_685" data-name="Path 685" class="cls-9" d="M566.75,328.16A43.4,43.4,0,0,0,556.22,325c-.24,1.86.77,3.53,3.19,5.82.62,0,1.25-.06,1.91-.07,10.89-.15,9.42,1.54,5.43-2.63Zm-12.09-3.38c-1.5-.23-3-.41-4.66-.54,0,3.19.41,5.73,1.64,7.95a36,36,0,0,1,4.09-.91c-.9-2-.78-4-1.07-6.5ZM548,324.1q-2.46-.14-5-.12a19.28,19.28,0,0,0,1,11c1.3-.54,4.33-1.69,5.75-2.22-2.16-3.33-2.24-5.47-1.69-8.7Zm-7.09-.07-1.29.05c-1.83.09-3.63.23-5.39.44-2,4.62-2.86,9.26-2.13,13.26a40.76,40.76,0,0,0,7.12-1,22,22,0,0,1,1.7-12.71Zm-9.18.81c-2.3.34-4.52.77-6.61,1.29A19.29,19.29,0,0,0,522,335.4c.26.1,1.86.62,2.14.71a33.66,33.66,0,0,0,3.93,1.09,30.87,30.87,0,0,1,3.65-12.36Zm-10.35,2.33a43.79,43.79,0,0,0-6.61,2.64,12.31,12.31,0,0,0,5.13,4.8,21.51,21.51,0,0,1,1.47-7.44Z"/></g></g></g></g><g id="Group_389" data-name="Group 389"><g id="Group_374" data-name="Group 374"><g id="Group_368" data-name="Group 368"><path id="Path_686" data-name="Path 686" class="cls-14" d="M537.61,246.52l-55.88-.13-12.14-3.31-.23-7.5,14-3.93,54.28.49Z"/></g><g id="Group_370" data-name="Group 370"><g id="Group_369" data-name="Group 369"><path id="Path_687" data-name="Path 687" class="cls-15" d="M493.36,247.8c-6.51,0-11.84-3.86-11.9-8.63a7.17,7.17,0,0,1,2.22-5.16,13.54,13.54,0,0,1,9.51-3.59l44.43-.18v2.51l-44.43.18a11,11,0,0,0-7.74,2.83,4.76,4.76,0,0,0-1.49,3.38c0,3.34,4.34,6.16,9.39,6.16h0l44.42-.18,0,2.5-44.43.18Z"/></g></g><g id="Group_371" data-name="Group 371"><path id="Path_688" data-name="Path 688" class="cls-16" d="M511,246.52l-43.5-.13-9.45-3.31-.18-7.5,10.88-3.93,42.25.49Z"/></g><g id="Group_373" data-name="Group 373"><g id="Group_372" data-name="Group 372"><path id="Path_689" data-name="Path 689" class="cls-17" d="M467.89,247.92c-6.49,0-11.82-3.86-11.88-8.62a7.17,7.17,0,0,1,2.21-5.18,13.57,13.57,0,0,1,9.52-3.57l44.43-.18v2.5l-44.43.18a11,11,0,0,0-7.74,2.83,4.73,4.73,0,0,0-1.5,3.38c.05,3.34,4.33,6.15,9.38,6.15H468l44.42-.18v2.51l-44.42.18Z"/></g></g></g><g id="Group_381" data-name="Group 381"><g id="Group_375" data-name="Group 375"><path id="Path_690" data-name="Path 690" class="cls-14" d="M597.66,167.64l-53.11-17.39L534,143.34l2.11-7.2,14.5.58L602.1,154Z"/></g><g id="Group_377" data-name="Group 377"><g id="Group_376" data-name="Group 376"><path id="Path_691" data-name="Path 691" class="cls-18" d="M555.17,155.18c-6.18-2-10-7.33-8.64-11.88a7.15,7.15,0,0,1,3.71-4.23,13.57,13.57,0,0,1,10.15-.47l42.31,13.57-.77,2.38L559.63,141a11,11,0,0,0-8.24.3,4.67,4.67,0,0,0-2.46,2.75c-1,3.19,2.22,7.19,7,8.75l0,0,42.31,13.56-.77,2.39-42.3-13.56Z"/></g></g><g id="Group_378" data-name="Group 378"><path id="Path_692" data-name="Path 692" class="cls-16" d="M572.37,159.42,531,145.85l-8-6.07,2.15-7.19,11.56-.38,40,13.53Z"/></g><g id="Group_380" data-name="Group 380"><g id="Group_379" data-name="Group 379"><path id="Path_693" data-name="Path 693" class="cls-19" d="M530.92,147.42c-6.18-2-10-7.32-8.63-11.88a7.23,7.23,0,0,1,3.7-4.23,13.59,13.59,0,0,1,10.16-.46l42.31,13.56-.77,2.39-42.31-13.56a11,11,0,0,0-8.23.29,4.78,4.78,0,0,0-2.47,2.75c-1,3.2,2.22,7.2,7,8.76h.06l42.31,13.56-.77,2.39L531,147.44Z"/></g></g></g><g id="Group_388" data-name="Group 388"><g id="Group_382" data-name="Group 382"><path id="Path_694" data-name="Path 694" class="cls-14" d="M156.47,393.69l-54.25,13.4-12.59-.28-2-7.22,12.6-7.19L153,379.74Z"/></g><g id="Group_384" data-name="Group 384"><g id="Group_383" data-name="Group 383"><path id="Path_695" data-name="Path 695" class="cls-20" d="M113.83,405.65c-6.3,1.57-12.4-.88-13.62-5.5a7.18,7.18,0,0,1,.9-5.55,13.57,13.57,0,0,1,8.36-5.77l43.06-10.93.62,2.43-43.06,10.93a11,11,0,0,0-6.82,4.62,4.69,4.69,0,0,0-.64,3.63c.86,3.24,5.7,4.93,10.6,3.71h0l43.06-10.93.62,2.43-43.07,10.93Z"/></g></g><g id="Group_385" data-name="Group 385"><path id="Path_696" data-name="Path 696" class="cls-16" d="M130.67,400.13l-42.24,10.4-10-.93-2-7.23,9.6-6.45,41.12-9.75Z"/></g><g id="Group_387" data-name="Group 387"><g id="Group_386" data-name="Group 386"><path id="Path_697" data-name="Path 697" class="cls-21" d="M89.16,411.92c-6.3,1.57-12.39-.88-13.62-5.49a7.2,7.2,0,0,1,.9-5.56,13.62,13.62,0,0,1,8.37-5.77l43.06-10.92.62,2.43L85.42,397.53a11,11,0,0,0-6.82,4.62,4.71,4.71,0,0,0-.64,3.64c.86,3.24,5.73,5,10.65,3.69l43.06-10.93.62,2.43L89.22,411.91Z"/></g></g></g></g><g id="Group_230" data-name="Group 230"><g id="Group_118" data-name="Group 118"><g id="Group_117" data-name="Group 117"><path id="Path_592" data-name="Path 592" class="cls-22" d="M368.88,175.51H433.4v76.93H368.88Z"/></g></g><g id="Group_120" data-name="Group 120"><g id="Group_119" data-name="Group 119"><path id="Path_593" data-name="Path 593" class="cls-23" d="M274.58,46.5l-.8-4.81c-5.3-1.86-6.19-8.94-3.58-18.57.19-.71,11-9.26,11-9.26A57.89,57.89,0,0,0,287.13,17c1.06.28,7.11,7.39,7.11,7.39s3.15,2.52,2.16,9.27c-.7,4.81-6.57,10-8.15,13.24-2,4.13-10.38,2.06-11.14,2.06s-1.9-2.66-2.53-2.45Z"/></g></g><g id="Group_122" data-name="Group 122"><g id="Group_121" data-name="Group 121"><path id="Path_594" data-name="Path 594" class="cls-23" d="M292.52,21.64a3.21,3.21,0,0,1-6.42.15L287,5.34c0-1.77.07-3.3,1.85-3.34s2.15,1.85,2.19,3.62l1.47,16Z"/></g></g><g id="Group_124" data-name="Group 124"><g id="Group_123" data-name="Group 123"><path id="Path_595" data-name="Path 595" class="cls-24" d="M277.92,15.47c0-1,1.5-1.67,3.27-1.61s3.18.88,3.15,1.83l-1.59,8.75c0,1-.22,1.77-2,1.7s-2.07-1.08-2-2l-.8-8.64Z"/></g></g><g id="Group_126" data-name="Group 126"><g id="Group_125" data-name="Group 125"><path id="Path_596" data-name="Path 596" class="cls-24" d="M295.88,25.36c.65.69-.61,2.06-1.9,3.26s-2.88,1.63-3.52.94l-5.07-7.32c-.64-.69-1.09-1.39.21-2.6s2.23-.7,2.88,0l7.4,5.72Z"/></g></g><g id="Group_128" data-name="Group 128"><g id="Group_127" data-name="Group 127"><path id="Path_597" data-name="Path 597" class="cls-24" d="M271.91,16c0-.95,1.5-1.67,3.27-1.61s3.18.89,3.15,1.84L276.74,25c0,.95-.21,1.76-2,1.7s-2.08-1.09-2-2L271.91,16Z"/></g></g><g id="Group_130" data-name="Group 130"><g id="Group_129" data-name="Group 129"><path id="Path_598" data-name="Path 598" class="cls-24" d="M267.8,18.73a2.31,2.31,0,0,1,4.46.16l-1.2,8.76c0,1-.16,1.77-1.4,1.72s-1.43-1.06-1.4-2l-.47-8.62Z"/></g></g><g id="Group_132" data-name="Group 132"><g id="Group_131" data-name="Group 131"><path id="Path_599" data-name="Path 599" class="cls-24" d="M290.46,29.56l-3.18,4.19s-4,2.73-4.43,3.22c-2.11,2.3-.64,8.36-.64,8.36l1.8,4.06L287.57,48s1-1.82,1.86-3.5,5.42-5.61,6.24-8.06,1.54-10.39.21-11.12-5.25-.21-5.25-.21l-.18,4.4Z"/></g></g><g id="Group_134" data-name="Group 134"><g id="Group_133" data-name="Group 133"><path id="Path_600" data-name="Path 600" class="cls-25" d="M307.23,411.45,309,424s12,.73,12.32-.64S319,409.8,319,409.8l-11.77,1.65Z"/></g></g><g id="Group_136" data-name="Group 136"><g id="Group_135" data-name="Group 135"><path id="Path_601" data-name="Path 601" class="cls-25" d="M359.8,411.45l1.74,12.5s12,.73,12.32-.64-2.28-13.51-2.28-13.51l-11.78,1.65Z"/></g></g><g id="Group_138" data-name="Group 138"><g id="Group_137" data-name="Group 137"><path id="Path_602" data-name="Path 602" class="cls-26" d="M296.83,237.68s-24.57,28.59-22.74,95c.83,30,25.44,83.65,25.44,83.65l26.5-.17s-23.14-43.68-25-78.59c-2-36.24,16-63.82,17.12-64.57,2.19-1.45,20.32.06,20.32.06s.93,32.56,4.38,65.71c3.9,37.44,10.4,76.06,10.59,77,.37,1.82,25.55.36,25.55.36A713.91,713.91,0,0,1,368,338.07c-3.45-43.77-2.38-91.36-2.19-98.93.37-14.6-69-1.46-69-1.46Z"/></g></g><g id="Group_140" data-name="Group 140"><g id="Group_139" data-name="Group 139"><path id="Path_603" data-name="Path 603" class="cls-27" d="M317.63,273a3.82,3.82,0,0,1,1.47-.42c-5.34-.27-12-.43-13.21.42s-19.08,28.33-17.12,64.57c1.89,34.91,25,78.59,25,78.59h11.74s-23.14-43.68-25-78.59c-2-36.24,16-63.83,17.12-64.57Z"/></g></g><g id="Group_142" data-name="Group 142"><g id="Group_141" data-name="Group 141"><path id="Path_604" data-name="Path 604" class="cls-27" d="M368.74,344.47c-.67-15.9-3.08-86.33-3.42-96.44l.69-6.7-69.18-3.65-7.08,13.83,60.81,2.93c-.26,22.13.25,57.14,1.81,71.77,2.5,23.59,15.28,90.53,15.28,90.53l11.32-.58s-9.49-54.54-10.23-71.69Z"/></g></g><g id="Group_144" data-name="Group 144"><g id="Group_143" data-name="Group 143"><path id="Path_605" data-name="Path 605" class="cls-28" d="M381.71,137.78s-10,22.15-11.69,32.56S367.28,241,367.28,241s-23.36,1.83-42.89.92-29.75-4.39-29.75-4.39S310,154.28,310,153.73s-3.65-15.7-3.65-15.7,7.49-12.41,35.05-12.78,40.89,12,40.34,12.53Z"/></g></g><g id="Group_146" data-name="Group 146"><g id="Group_145" data-name="Group 145"><path id="Path_606" data-name="Path 606" class="cls-29" d="M327.49,126.71l5.66,58.41,27.2-57.5s-9.4-3.65-17.16-3.29c-4,.19-5.95-.14-15.7,2.37Z"/></g></g><g id="Group_148" data-name="Group 148"><g id="Group_147" data-name="Group 147"><path id="Path_607" data-name="Path 607" class="cls-30" d="M333.15,185.12l-1.55-13.37,4.47-23.14s.48,1.37,3.84,1.37,4.19-1.09,4.19-1.09l-1.55,16.56-9.4,19.67Z"/></g></g><g id="Group_150" data-name="Group 150"><g id="Group_149" data-name="Group 149"><path id="Path_608" data-name="Path 608" class="cls-27" d="M328.11,142s-26-29.48-31.39-36.53c.48-.55-23,2.08-22.72,5.88,1,11.7,26.3,45.88,33.93,53.71,6.46-.56,4.56-13.81,4.67-13.84.53-.15,8.46-13.69,8.46-13.69s3,.86,7.05,4.47Z"/></g></g><g id="Group_152" data-name="Group 152"><g id="Group_151" data-name="Group 151"><path id="Path_609" data-name="Path 609" class="cls-28" d="M328.11,142s-24-27.23-30.66-35.6c-6.75,1-15.85,2.89-15.66,5.26,1,11.82,14.77,27.3,22.36,35.05,1,1,4.56,22.43,5.94,22.84,9.47-1.23,18-27.55,18-27.55Z"/></g></g><g id="Group_154" data-name="Group 154"><g id="Group_153" data-name="Group 153"><path id="Path_610" data-name="Path 610" class="cls-27" d="M270,43.92,292,46c.91-4.92.88,38.25,3.13,54.52,4.44,13.22,11.58,16.66,11.58,16.66s-5.75,13.84-21.54,7.06C270.44,126.44,270.87,92.4,270,77.46S270,43.92,270,43.92Z"/></g></g><g id="Group_156" data-name="Group 156"><g id="Group_155" data-name="Group 155"><path id="Path_611" data-name="Path 611" class="cls-28" d="M277.44,44.61,292,46a1.31,1.31,0,0,1,.06-.27l.14,0c.71,2.43.86,39.88,2.92,54.77,4.44,13.22,11.58,16.66,11.58,16.66s-3,7.24-10.65,8.68c5,4.15.51,3.83-.7,3.31-14.69,2.25-17-36.31-17.85-51.25-.78-13.88-.12-30.91,0-33.26Z"/></g></g><g id="Group_158" data-name="Group 158"><g id="Group_157" data-name="Group 157"><path id="Path_612" data-name="Path 612" class="cls-23" d="M350.16,134.09c-.45,3.7-4.62,6.24-9.32,5.67s-8.16-4-7.71-7.73l1.27-10.51c.45-3.71,4.62-6.25,9.33-5.68s8.15,4,7.7,7.73l-1.27,10.52Z"/></g></g><g id="Group_160" data-name="Group 160"><g id="Group_159" data-name="Group 159"><path id="Path_613" data-name="Path 613" class="cls-31" d="M334,141.13l7-1.42,6.94.73-3.88,8.44-1.16,1.18a3.94,3.94,0,0,1-5.58,0,1.88,1.88,0,0,1-.24-.25l-1.05-1.23L334,141.13Z"/></g></g><g id="Group_162" data-name="Group 162"><g id="Group_161" data-name="Group 161"><path id="Path_614" data-name="Path 614" class="cls-32" d="M340.84,139.76s8.83,10.45,9.19,13S360,127.58,360,127.58s-8.35-3.87-8.56-3.34a43.46,43.46,0,0,1-10.56,15.52Z"/></g></g><g id="Group_164" data-name="Group 164"><g id="Group_163" data-name="Group 163"><path id="Path_615" data-name="Path 615" class="cls-32" d="M341,139.71s-10.31,6.5-11.13,8.95-.77-22.59-.77-22.59,4.82-1.76,4.84-1.19c.09,5.12,7.06,14.83,7.06,14.83Z"/></g></g><g id="Group_166" data-name="Group 166"><g id="Group_165" data-name="Group 165"><path id="Path_616" data-name="Path 616" class="cls-33" d="M334.06,183.33l33.68-43.2-8.21-1.65a126.7,126.7,0,0,0,13.91-5c-4.7-3-15.92-6.93-15.92-6.93Z"/></g></g><g id="Group_168" data-name="Group 168"><g id="Group_167" data-name="Group 167"><path id="Path_617" data-name="Path 617" class="cls-33" d="M332.79,185l-16.25-46.22,8.22-1.65-10.13-5.06,14.23-5.79L332.79,185Z"/></g></g><g id="Group_170" data-name="Group 170"><g id="Group_169" data-name="Group 169"><path id="Path_618" data-name="Path 618" class="cls-34" d="M335.12,196.25a2.33,2.33,0,1,1-2.33-2.33,2.33,2.33,0,0,1,2.33,2.33Z"/></g></g><g id="Group_172" data-name="Group 172"><g id="Group_171" data-name="Group 171"><path id="Path_619" data-name="Path 619" class="cls-34" d="M333.47,208.85a2.33,2.33,0,1,1-2.33-2.34,2.32,2.32,0,0,1,2.33,2.34Z"/></g></g><g id="Group_174" data-name="Group 174"><g id="Group_173" data-name="Group 173"><path id="Path_620" data-name="Path 620" class="cls-34" d="M332.38,222a2.33,2.33,0,1,1-2.33-2.32,2.33,2.33,0,0,1,2.33,2.32Z"/></g></g><g id="Group_176" data-name="Group 176"><g id="Group_175" data-name="Group 175"><path id="Path_621" data-name="Path 621" class="cls-34" d="M330.73,234a2.33,2.33,0,1,1-2.32-2.33A2.33,2.33,0,0,1,330.73,234Z"/></g></g><g id="Group_178" data-name="Group 178"><g id="Group_177" data-name="Group 177"><path id="Path_622" data-name="Path 622" class="cls-35" d="M389.81,87.7a7.75,7.75,0,0,1-6.43,8.88h0c-4.19.61-11.91-.7-12.54-5s6.07-9.94,10.26-10.55a7.76,7.76,0,0,1,8.72,6.65Z"/></g></g><g id="Group_180" data-name="Group 180"><g id="Group_179" data-name="Group 179"><path id="Path_623" data-name="Path 623" class="cls-36" d="M273.12,437.62c-7.31,5.91-4,11.83-4,11.83A77.08,77.08,0,0,0,288,452c11.28-.18,24.38-6.55,24.38-6.55l-.35,3.31h15.08a23.15,23.15,0,0,0,1.17-14.69c-2.15-7.63-5.67-11.56-5.67-11.56s-11,1.77-13.32,1.18-11.4,8.54-16,10.47-15.47-.36-20.2,3.46Z"/></g></g><g id="Group_182" data-name="Group 182"><g id="Group_181" data-name="Group 181"><path id="Path_624" data-name="Path 624" class="cls-27" d="M277.07,451.12a64.94,64.94,0,0,0,11,.88c11.28-.18,24.39-6.55,24.39-6.55l-.36,3.31h7.26c.92-.41,1.44-.66,1.44-.66l-.07.66h6.45a23.15,23.15,0,0,0,1.17-14.69A36.56,36.56,0,0,0,325,426c-3,.36-6.18.63-7.33.34-2.35-.59-11.41,8.54-16,10.47s-15.47-.36-20.21,3.46c-5.5,4.45-5,8.91-4.39,10.84Z"/></g></g><g id="Group_184" data-name="Group 184"><g id="Group_183" data-name="Group 183"><path id="Path_625" data-name="Path 625" class="cls-36" d="M325.53,437.62c-7.31,5.91-4,11.83-4,11.83A76.93,76.93,0,0,0,340.45,452c11.28-.18,24.39-6.55,24.39-6.55l-.36,3.31h15.08a23.15,23.15,0,0,0,1.17-14.69c-2.15-7.63-5.68-11.56-5.68-11.56s-11,1.77-13.31,1.18-11.41,8.54-16,10.47-15.47-.36-20.2,3.46Z"/></g></g><g id="Group_186" data-name="Group 186"><g id="Group_185" data-name="Group 185"><path id="Path_626" data-name="Path 626" class="cls-27" d="M330.84,451.32a63.12,63.12,0,0,0,9.61.68c11.28-.18,24.39-6.55,24.39-6.55l-.36,3.31h15.08a23.15,23.15,0,0,0,1.17-14.69,36.47,36.47,0,0,0-2.91-7.33c-3.22.72-7.12,1.48-8.45,1.27-2.39-.37-10.57,9.56-15,11.9S339,441,334.6,445.22a12.6,12.6,0,0,0-3.76,6.1Z"/></g></g><g id="Group_188" data-name="Group 188"><g id="Group_187" data-name="Group 187"><path id="Path_627" data-name="Path 627" class="cls-37" d="M350.26,175.51v74.91h18.62V175.51Z"/></g></g><g id="Group_190" data-name="Group 190"><g id="Group_189" data-name="Group 189"><path id="Path_628" data-name="Path 628" class="cls-38" d="M350.56,177.5H433.4v-2.1H350.56Z"/></g></g><g id="Group_192" data-name="Group 192"><g id="Group_191" data-name="Group 191"><path id="Path_629" data-name="Path 629" class="cls-39" d="M403.66,261.19c6.28.36,10.78,5.1,15.25-2.76a23.88,23.88,0,0,0,1.51-7.67,30,30,0,0,0-2.17-7.86L419.63,231c-2.43-1-10.31,4.14-14.38,2.36l-.2,1.07-1.15,2.67,8.5,3.75s1.51,11.58-.06,14.77-5.71,3.36-5.71,3.36-6.33-1.74-9.26-1.61l-.41.07c2.25,1.78,5.45,3.65,6.71,3.73Z"/></g></g><g id="Group_194" data-name="Group 194"><g id="Group_193" data-name="Group 193"><path id="Path_630" data-name="Path 630" class="cls-35" d="M406.62,259c1.62,3.14,7.63-1.81,7.11-9,1.57-3.19-1.34-9.09-1.34-9.09l-8.49-3.75s-.58,3.77-6.85,4.87c-5,1.9-15.82.21-6,6,3,.32,5.92-.72,7.57-.16,2.16.73,3.26,1.73,3,4.1-3.22,3.83-15.07.23-15.81,1.5-.3.52,1.9,5.54,10.05,5.77,3.78-.88,7.11-1.26,10.8-.24Z"/></g></g><g id="Group_196" data-name="Group 196"><g id="Group_195" data-name="Group 195"><path id="Path_631" data-name="Path 631" class="cls-40" d="M420.94,187.71c7.54,24,3.82,50.59,3.82,50.59H399.65s3.82-35.85-2.73-48-16.2-24.74-24.75-26.93c-3.78-1,7.83-26.75,7.83-26.75s28,10,40.94,51.13Z"/></g></g><g id="Group_198" data-name="Group 198"><g id="Group_197" data-name="Group 197"><path id="Path_632" data-name="Path 632" class="cls-41" d="M414.1,238.3H399.65s3.82-35.85-2.73-48-16.2-24.74-24.75-26.93c-1.92-.49.13-7.4,2.62-14.07,9,5.47,25.61,19,34.71,48,4.74,15.09,5,31.19,4.6,41.08Z"/></g></g><g id="Group_200" data-name="Group 200"><g id="Group_199" data-name="Group 199"><path id="Path_633" data-name="Path 633" class="cls-34" d="M423.6,232.66a2.33,2.33,0,1,1-2.33-2.32,2.33,2.33,0,0,1,2.33,2.32Z"/></g></g><g id="Group_202" data-name="Group 202"><g id="Group_201" data-name="Group 201"><path id="Path_634" data-name="Path 634" class="cls-42" d="M396.44,193.78H379.59v40.31h16.85Z"/></g></g><g id="Group_204" data-name="Group 204"><g id="Group_203" data-name="Group 203"><path id="Path_635" data-name="Path 635" class="cls-43" d="M348.34,175.51h1.92v76.93h-1.92Z"/></g></g><g id="Group_206" data-name="Group 206"><g id="Group_205" data-name="Group 205"><path id="Path_636" data-name="Path 636" class="cls-44" d="M360.76,206.46H345.89V211h14.87Z"/></g></g><g id="Group_208" data-name="Group 208"><g id="Group_207" data-name="Group 207"><path id="Path_637" data-name="Path 637" class="cls-44" d="M354.78,200.48H339.91V205h14.87Z"/></g></g><g id="Group_211" data-name="Group 211"><g id="Group_209" data-name="Group 209"><path id="Path_638" data-name="Path 638" class="cls-45" d="M330.6,47.49c-9.93,0-16,5-19.56,12.51-.41,6.36.15,14.21.66,21.89,1.29,19.49,15.93,40,36.22,39.06,6.95-.31,13.69-3.55,17.87-6.22A43.09,43.09,0,0,0,378.6,87.29c2.92-44.45-28-39.8-48-39.8Z"/></g><g id="Group_210" data-name="Group 210"><path id="Path_639" data-name="Path 639" class="cls-46" d="M311.7,81.89c-.51-7.68-1.08-15.53-.66-21.89-3.62,7.55-4.72,17.55-4.72,27.29,0,19.35,15.09,38,35.05,38,9.39,0,17.9-4.13,24.42-10.52-4.18,2.67-10.92,5.91-17.87,6.22-20.29.91-34.93-19.57-36.22-39.06Z"/></g></g><g id="Group_213" data-name="Group 213"><g id="Group_212" data-name="Group 212"><path id="Path_640" data-name="Path 640" class="cls-47" d="M345.24,73.93a1.45,1.45,0,0,0,1.09-.48,6.58,6.58,0,0,1,4.57-2.16A6.67,6.67,0,0,1,355.66,73a1.49,1.49,0,0,0,2.08-.13,1.47,1.47,0,0,0-.1-2,9.58,9.58,0,0,0-6.88-2.47,9.48,9.48,0,0,0-6.61,3.12,1.47,1.47,0,0,0,.11,2.07,1.44,1.44,0,0,0,1,.38Zm-28.5-.68a1.49,1.49,0,0,0,1.06-.45,6.87,6.87,0,0,1,4.82-2.15,6.69,6.69,0,0,1,4.67,1.8,1.47,1.47,0,0,0,2-2.12,9.63,9.63,0,0,0-13.63.44h0a1.46,1.46,0,0,0,.05,2.07,1.43,1.43,0,0,0,1,.41Z"/></g></g><g id="Group_215" data-name="Group 215"><g id="Group_214" data-name="Group 214"><path id="Path_641" data-name="Path 641" class="cls-48" d="M339.37,111.89c5.79,0,10.46-2.77,11.25-7a1.47,1.47,0,1,0-2.89-.53h0c-.62,3.38-5.81,5.38-11.34,4.36a1.47,1.47,0,1,0-.53,2.89h0a18.72,18.72,0,0,0,3.51.33Zm43-17.07a5.24,5.24,0,0,0,1.9-10.12,1.47,1.47,0,1,0-1.07,2.73h0a2.31,2.31,0,0,1-1.46,4.37,1.47,1.47,0,0,0-.8,2.82A5.36,5.36,0,0,0,382.33,94.82Z"/></g></g><g id="Group_217" data-name="Group 217"><g id="Group_216" data-name="Group 216"><path id="Path_642" data-name="Path 642" class="cls-49" d="M324,87.47c0,2.53-1.32,4.58-2.94,4.58s-2.95-2.06-2.95-4.58,1.32-4.59,2.95-4.59S324,84.93,324,87.47Z"/></g></g><g id="Group_219" data-name="Group 219"><g id="Group_218" data-name="Group 218"><path id="Path_643" data-name="Path 643" class="cls-44" d="M321.22,85.14c0,.76-.44,1.37-1,1.37s-1-.61-1-1.37.44-1.37,1-1.37S321.22,84.38,321.22,85.14Z"/></g></g><g id="Group_221" data-name="Group 221"><g id="Group_220" data-name="Group 220"><path id="Path_644" data-name="Path 644" class="cls-49" d="M353.12,87.6c0,2.54-1.32,4.59-2.95,4.59s-2.94-2-2.94-4.59S348.55,83,350.17,83,353.12,85.07,353.12,87.6Z"/></g></g><g id="Group_223" data-name="Group 223"><g id="Group_222" data-name="Group 222"><path id="Path_645" data-name="Path 645" class="cls-44" d="M350.34,85.69c0,.75-.44,1.37-1,1.37s-1-.62-1-1.37.44-1.37,1-1.37S350.34,84.93,350.34,85.69Z"/></g></g><g id="Group_225" data-name="Group 225"><g id="Group_224" data-name="Group 224"><path id="Path_646" data-name="Path 646" class="cls-48" d="M336,99.24a5.16,5.16,0,0,0,3.52-1.36,1.47,1.47,0,0,0-2-2.17,2.24,2.24,0,0,1-1.88.57,2.3,2.3,0,0,1-2-2.51,1.47,1.47,0,0,0-1.32-1.6,1.5,1.5,0,0,0-1.6,1.33,5.24,5.24,0,0,0,4.46,5.69A4.77,4.77,0,0,0,336,99.24Z"/></g></g><g id="Group_227" data-name="Group 227"><g id="Group_226" data-name="Group 226"><path id="Path_647" data-name="Path 647" class="cls-50" d="M387.65,50a14.2,14.2,0,0,0-14.29-11.33,48.79,48.79,0,0,1-5.8-.14c-.32,0-.63-.05-1-.1-.92-.11-9-6.36-16.29-9-1.65-.61-1.83,3.47-3.49,2.74-6.69-2.91-12.92-7.73-14.76-8-3.69-.62-4.71,8.49-6.57,7.85-2.05-.72-13.68-10.75-15.33-11.32-2.69-.93-3.2,8.82-3,19.84,0,1.09-2.79,2.19-2.75,3.29a188.2,188.2,0,0,0,3.28,26.56S311.62,52,325.13,54.88c6.37,1.38,14.43,6.18,24.46,3.93,5.2-1.17,11.5-2.88,15.15-2.56a12.39,12.39,0,0,1,10.9,11.35c.39,6-2.22,14.35-2.49,18.87-.11,1.87,3,3.59,3.08,3.64,1.74,1,2.57-5.09,4.84-7.21,2.55-2.37,3.65-1.37,3.65-1.37s4.11-8.31,4.11-20.9A54.24,54.24,0,0,0,387.66,50Z"/></g></g><g id="Group_229" data-name="Group 229"><g id="Group_228" data-name="Group 228"><path id="Path_648" data-name="Path 648" class="cls-51" d="M310.61,22.72A33.53,33.53,0,0,0,313.9,37c5.2,10.95,18.55,15.43,27,14.24,35.87-5.06,37.37,9.44,37.24,15.6s-1.92,19.3-1.92,19.3,17-47.77-15.88-43.25c-39.42,5.42-49.69-20.13-49.69-20.13Z"/></g></g></g></g></svg>