<svg id="圖層_1" data-name="圖層 1" xmlns="http://www.w3.org/2000/svg" viewBox="0 0 685 452"><defs><style>.cls-1{fill:#008cd6;}.cls-2,.cls-6{fill:#7bd9db;}.cls-3{fill:#51aed1;}.cls-18,.cls-4{fill:#ff9001;}.cls-5{fill:#edbb2c;}.cls-13,.cls-17,.cls-18,.cls-6{opacity:0.5;}.cls-10,.cls-13,.cls-17,.cls-18,.cls-6,.cls-7{isolation:isolate;}.cls-17,.cls-7{fill:#ff7983;}.cls-7{opacity:0.8;}.cls-10,.cls-8{opacity:0.4;}.cls-10,.cls-9{fill:#66323f;}.cls-11{fill:#035c8b;}.cls-12{fill:#073a56;}.cls-13,.cls-14{fill:#4800a2;}.cls-15{fill:#e35165;}.cls-16{fill:#fff;}.cls-19{fill:#bf3954;}</style></defs><g id="gift"><g id="Group_98" data-name="Group 98"><ellipse id="Ellipse_8" data-name="Ellipse 8" class="cls-1" cx="392.82" cy="429.35" rx="227.23" ry="12.65"/><g id="Group_97" data-name="Group 97"><g id="Group_47" data-name="Group 47"><path id="Path_416" data-name="Path 416" class="cls-2" d="M284.49,425.92l-7.94.2-5.64.14-11.76.29-5.89.15-12.12.29-6.28.15-12.58.31-7,.18-2.85.07L210.93,422l-1.07-4-2.14-7.93-1.11-4.12-2.25-8.41-.3-1.11-.83-3.12-2.36-8.75-1.16-4.31-.44-1.66-1.44-5.37-.54-2-1.17-4.36L192,351.61l-2.11-7.85a226.16,226.16,0,0,1,34.73-9.59l2.12-.41c1.22-.24,2.45-.46,3.71-.68,3.78-.66,7.74-1.26,11.85-1.78,1.76-.22,3.54-.42,5.35-.6q3.45-.36,7-.6,2-.14,4-.24c1.65-.09,3.3-.15,5-.2,3.37-.09,6.78-.1,10.23,0,1.55,0,3.1.1,4.66.18,3.18.16,6.37.42,9.59.76,1.45.16,2.91.34,4.36.53,2,.27,4,.59,6,.94L297.6,338l-.51,3.4-.7,4.75-.77,5.14-1.76,11.81-.88,5.86-.28,1.9-2.4,16.09-.17,1.12-.92,6.22L287,409.37l-1,6.88Z"/><path id="Path_417" data-name="Path 417" class="cls-3" d="M297.1,341.4l-1.48,9.88c-22.12-.25-74.83,5.11-97.79,22L192,351.62c17.76-3.71,86.41-17.29,105.07-10.22Z"/><path id="Path_418" data-name="Path 418" class="cls-4" d="M293,369l-2.85,19.11c-17.7.71-60.25,2.92-86.08,8.35l-4.79-17.83c17.06-2.91,56.6-8.95,93.72-9.63Z"/><g id="Group_43" data-name="Group 43"><path id="Path_419" data-name="Path 419" class="cls-5" d="M258,426.58l-14.68.36c-3.64-25.79-7.78-49.28-11.38-67.94q-.78-4-1.52-7.73c-.12-.59-.24-1.17-.35-1.75-1.19-5.95-2.29-11.24-3.26-15.75-.38-1.78-.73-3.43-1.07-5a197.63,197.63,0,0,1,29.19-3.71c-.08,1.56-.15,3.24-.2,5-.15,5.19-.17,11.21-.1,17.67,0,2.12.06,4.29.11,6.5v.05c.53,26.1,2.32,57.21,3.26,72.25Z"/><path id="Path_420" data-name="Path 420" class="cls-4" d="M254.56,344.18l.14,10.14c-9.52,1.28-22.61,4.63-22.81,4.68q-1-5-1.86-9.49Z"/></g><path id="Path_421" data-name="Path 421" class="cls-2" d="M301.89,329.41l-2.18,19.51c-14.8-2.61-30.44-2.53-45.11-1.14-8.52.81-16.72,2.06-24.22,3.49a281.87,281.87,0,0,0-39.21,10.27L184,341.81a217.07,217.07,0,0,1,41.66-13,196.3,196.3,0,0,1,29.19-3.71c28.93-1.47,47,4.31,47,4.31Z"/><path id="Path_422" data-name="Path 422" class="cls-5" d="M230.38,351.27l-4.68-22.46a140.72,140.72,0,0,1,28.39-3.67l.5,22.64Z"/><path id="Path_423" data-name="Path 423" class="cls-6" d="M187.75,343.36S219.08,329,247,330.19c0,0-42.22,6.79-53,16.72l-1.44,10.84Z"/><g id="Group_46" data-name="Group 46"><g id="Group_44" data-name="Group 44"><path id="Path_424" data-name="Path 424" class="cls-5" d="M258.84,283.41l-.81.34-.68.33-.27.15c-13.13,7.1-19.67,35.24-21,41.79-.18.88-.27,1.37-.27,1.37l3.73-.09-.08,0c-2.22,1.1-3.61,1.75-3.61,1.75l6.08.53s36.63-6.73,44.92-24.38c8.15-17.35-12.49-28.13-28-21.83Zm7.07,27.65c-5.73,5.3-17.16,11.53-24.17,15.11l-1.44.73.09-.21a.77.77,0,0,0,.07-.16,1.59,1.59,0,0,0,.08-.18l.13-.29.05-.11.16-.36.25-.56c.09-.19.19-.39.28-.6.23-.5.49-1.06.79-1.65.08-.17.16-.35.25-.53l.3-.62c.08-.16.16-.33.25-.49.35-.72.74-1.47,1.15-2.26l.17-.33.8-1.51.19-.34c.25-.47.51-.94.78-1.42l.18-.32.25-.45.15-.25c0-.09.09-.16.13-.24l.18-.31c.93-1.61,1.94-3.26,3-4.89l.24-.37.24-.36c.58-.85,1.17-1.7,1.76-2.53l.49-.67c.87-1.16,1.77-2.28,2.68-3.34l.27-.31.48-.54.36-.39.28-.29.28-.29c.48-.5,1-1,1.45-1.42l.55-.49c.66-.59,1.33-1.12,2-1.61l.25-.18.48-.33.22-.14,0,0,.28-.18.22-.13.28-.17L263,295l.24-.14A16.38,16.38,0,0,1,265,294l.16-.06.2-.07.35-.11.26-.08.31-.08.27-.06.23-.05.11,0,.31-.06a9.73,9.73,0,0,1,1.87-.1c3.31.15,5.46,1.75,5.42,4.62s-2.48,7.46-8.58,13.09Z"/><path id="Path_425" data-name="Path 425" class="cls-7" d="M274.18,283.9s9.51-.08,12.8,10.77-14.31,23.49-19.18,25c0,0,17.11-11.6,16.34-22.05C283.28,286,274.18,283.9,274.18,283.9Z"/><path id="Path_426" data-name="Path 426" class="cls-4" d="M274.51,298c0-2.86-2.12-4.46-5.43-4.62a9.64,9.64,0,0,0-1.86.11l-.31.05-.11,0-.23.05-.27.07-.31.08-.27.07-.34.12-.21.07-.15,0a14.15,14.15,0,0,0-1.77.81L263,295l-.15.09-.28.16-.23.14c-.1.05-.18.11-.28.17l0,0-.22.15-.49.32-.24.18c-.68.49-1.35,1-2,1.61l-.55.5q-.73.68-1.44,1.41l-.29.29-.28.3-.35.38-.48.54-.28.32c-.91,1.06-1.81,2.18-2.67,3.33l-.49.67c-.6.84-1.19,1.68-1.76,2.54l-.24.36-.24.36c-1.08,1.64-2.08,3.29-3,4.9l-.17.31c0,.07-.09.15-.14.23l-.14.25-.26.46-.17.31-.79,1.42-.18.34c-.28.52-.55,1-.8,1.51l-.18.33c-.41.79-.79,1.55-1.15,2.26l-.24.49c-.1.22-.21.42-.3.62l-.26.53q-.44.9-.78,1.65l-.28.61-.25.55-.16.36-.06.12-.12.29a1.42,1.42,0,0,0-.08.18l-.16.37a2,2,0,0,1-.8.39l-3.73.09s.09-.49.27-1.37c1.37-6.55,7.9-34.69,21-41.79l.27-.14.68-.33.81-.35c15.22.23,15.83,11.22,15.66,14.56Z"/></g><g id="Group_45" data-name="Group 45"><path id="Path_427" data-name="Path 427" class="cls-5" d="M187.84,307.67c9.15,17.22,46.06,22.14,46.06,22.14l6-.82s-1.42-.59-3.69-1.58l-.08,0,3.73-.09s-.12-.49-.34-1.35c-1.68-6.48-9.59-34.27-23-40.71l-.28-.12c-.23-.11-.47-.21-.7-.3s-.55-.21-.83-.3C198.93,279,178.85,290.74,187.84,307.67Zm11.95-7.87c-.18-2.86,1.89-4.57,5.19-4.88a9,9,0,0,1,1.87,0l.31,0,.11,0,.23,0,.27.05.32.07.27.06.35.1.2.06.16.05a14.82,14.82,0,0,1,1.81.72l.25.12.16.08.28.15.24.12.28.16,0,0,.23.14c.16.09.33.19.49.3l.26.16c.7.46,1.39,1,2.08,1.51.2.15.39.31.58.47.51.43,1,.87,1.51,1.34l.29.28.3.29.37.36.51.52.29.3c1,1,1.92,2.09,2.84,3.2l.53.64c.64.81,1.27,1.62,1.88,2.45l.26.35c.09.12.17.24.26.35,1.15,1.58,2.24,3.18,3.25,4.74l.19.3.15.23.16.24.28.44.19.31c.29.46.58.92.86,1.38l.19.33c.3.5.6,1,.88,1.47l.19.32c.45.77.87,1.5,1.26,2.2l.27.48.33.6.28.51c.32.59.61,1.13.86,1.62l.31.58.28.55.18.35a.54.54,0,0,1,.05.11l.15.28.09.18.07.15.1.21-1.47-.66c-7.17-3.23-18.89-8.89-24.88-13.9-6.39-5.33-9.07-9.64-9.25-12.66Z"/><path id="Path_428" data-name="Path 428" class="cls-7" d="M198.16,286.8s-9.38,1.54-10.8,12.78,18.09,20.73,23.15,21.37c0,0-18.84-8.54-19.84-19-1.13-11.61,7.49-15.18,7.49-15.18Z"/><path id="Path_429" data-name="Path 429" class="cls-4" d="M199.78,299.8c-.17-2.86,1.89-4.57,5.19-4.88a9.74,9.74,0,0,1,1.87,0l.31,0,.11,0,.23,0,.28.05.31.07.27.06.35.1.2.06.17.05a15.35,15.35,0,0,1,1.8.72l.25.12.16.08.28.15.24.12.28.16,0,0,.23.13.5.3.25.16c.7.46,1.4,1,2.08,1.51l.58.47c.51.43,1,.87,1.51,1.34l.29.28.3.29.37.36.51.52.29.3c1,1,1.92,2.09,2.84,3.2l.53.64c.64.81,1.27,1.62,1.88,2.45l.26.35c.09.12.17.24.26.35,1.15,1.58,2.24,3.18,3.25,4.74l.2.3.14.23.16.24.28.44.19.31c.3.46.58.92.86,1.38l.19.33c.31.5.6,1,.88,1.47l.19.32c.45.77.87,1.5,1.26,2.2l.27.48c.11.2.22.41.33.6l.28.51c.32.59.61,1.13.86,1.62l.31.58.28.55.18.35.06.11.14.28c0,.07.06.12.09.18l.18.36a1.94,1.94,0,0,0,.8.36l3.74-.1-.34-1.35c-1.68-6.48-9.6-34.26-23.06-40.71l-.27-.12c-.23-.11-.47-.21-.7-.3s-.55-.21-.83-.3c-15.21,1-15.27,12-14.94,15.3Z"/></g></g></g><g id="Group_63" data-name="Group 63"><path id="Path_430" data-name="Path 430" class="cls-1" d="M389.33,430.5h-97l-1.88-7.72-1.31-5.43-2.6-10.76L285.2,401l-2.76-11.39-.37-1.51-1-4.21L278.18,372l-1.41-5.83-.54-2.25-1.77-7.27-.65-2.69-1.43-5.92-5-20.66-2.57-10.63s18.93-6.87,47.06-11.75l2.87-.49q2.46-.4,5-.78c5.11-.76,10.46-1.44,16-2q3.56-.36,7.22-.64,4.66-.36,9.46-.58c1.77-.07,3.54-.14,5.34-.19q3.32-.08,6.69-.09,6.8,0,13.77.33c2.08.1,4.16.24,6.26.39q6.4.5,12.88,1.35,2.94.39,5.86.86c2.69.43,5.39.92,8.08,1.47l-1.38,7.93-.8,4.56L408,323.52l-1.21,6.89-2.76,15.84-1.37,7.86-.45,2.54-3.77,21.58-.26,1.5-1.46,8.34-3.53,20.24-1.62,9.24Z"/><g id="Group_58" data-name="Group 58" class="cls-8"><g id="Group_57" data-name="Group 57"><g id="Group_48" data-name="Group 48"><path id="Path_431" data-name="Path 431" class="cls-9" d="M319.74,303.75c-1,1.17-2,2.36-3,3.54-14.34,16.81-28.33,32.07-41.59,45.36L273.82,354l-1.44-5.92c14.71-14.81,28.38-30.06,39.49-43l2.86-.49q2.46-.4,5-.78Z"/></g><g id="Group_49" data-name="Group 49"><path id="Path_432" data-name="Path 432" class="cls-9" d="M343,301.12c-3.89,4.76-8.05,9.78-12.45,14.95-14.57,17.15-28.71,32.6-42,45.92q-5.24,5.24-10.31,10l-1.41-5.83c18.53-17.76,36.12-37.36,49.81-53.47,3.18-3.75,6.25-7.42,9.17-11,2.38-.24,4.78-.45,7.22-.64Z"/></g><g id="Group_50" data-name="Group 50"><path id="Path_433" data-name="Path 433" class="cls-9" d="M364.47,300.26c-5.93,7.46-12.73,15.82-20.15,24.58-14.81,17.51-29.1,33.14-42.47,46.47q-10.05,10-19.41,18.29l-.37-1.51-1-4.21c21.75-19.54,43.17-43.29,59.32-62.38,6.3-7.44,12.16-14.6,17.4-21.14,2.21-.06,4.45-.09,6.7-.1Z"/></g><g id="Group_51" data-name="Group 51"><path id="Path_434" data-name="Path 434" class="cls-9" d="M384.49,301c-7.24,9.33-16.28,20.65-26.37,32.63-15.05,17.85-29.49,33.68-42.92,47a376.36,376.36,0,0,1-28.65,25.94L285.2,401c20.09-16.53,43.54-40.55,69-70.71,9.07-10.76,17.27-21,24.08-29.69,2.07.1,4.16.24,6.25.4Z"/></g><g id="Group_52" data-name="Group 52"><path id="Path_435" data-name="Path 435" class="cls-9" d="M403.23,303.2c-8,10.5-18.89,24.39-31.32,39.19C356.63,360.6,342,376.6,328.54,390c-13.88,13.76-26.66,24.75-38.08,32.77l-1.31-5.42c21.78-15.72,48.78-42.5,78.77-78.22,11.5-13.71,21.68-26.62,29.45-36.76Q400.31,302.71,403.23,303.2Z"/></g><g id="Group_53" data-name="Group 53"><path id="Path_436" data-name="Path 436" class="cls-9" d="M408,323.52c-6.54,8.38-14.1,17.83-22.31,27.64-15.51,18.56-30.25,34.75-43.81,48.13-13.28,13.12-25.46,23.57-36.35,31.18h-9.37c22.45-14,52-42.46,85.54-82.6,10.82-12.94,20.53-25.26,28.21-35.28l-.8,4.56Z"/></g><g id="Group_54" data-name="Group 54"><path id="Path_437" data-name="Path 437" class="cls-9" d="M402.23,356.66l-2.72,3.28c-15.76,18.9-30.65,35.28-44.26,48.69A326.66,326.66,0,0,1,331,430.48H322.5c20.23-15.23,45.12-40.36,73-73.82q4.39-5.28,8.54-10.39l-1.37,7.85Z"/></g><g id="Group_55" data-name="Group 55"><path id="Path_438" data-name="Path 438" class="cls-9" d="M396.74,388.08c-9.88,11.19-19.29,21.19-28.14,29.88q-6.93,6.8-13.4,12.53h-7.93c15-12.76,32.28-30.35,51.19-52.25l-.26,1.5Z"/></g><g id="Group_56" data-name="Group 56"><path id="Path_439" data-name="Path 439" class="cls-9" d="M391.59,417.56q-4.93,5.12-9.64,9.73-1.67,1.63-3.32,3.2h-7.58q10.45-9.69,22.15-22.17Z"/></g></g></g><path id="Path_440" data-name="Path 440" class="cls-10" d="M409.13,317.15l-2.31,13.26c-29.77-1.07-94.09,2.5-132.35,26.26l-7.09-29.27C291.4,323,384.25,307,409.13,317.15Z"/><path id="Path_441" data-name="Path 441" class="cls-11" d="M402.67,354.11l-4.47,25.62c-23.84.38-81.19,1.93-116.13,8.36l-5.85-24.15C299.28,360.6,352.7,353.79,402.67,354.11Z"/><g id="Group_59" data-name="Group 59"><path id="Path_442" data-name="Path 442" class="cls-11" d="M353.61,430.49H333.84c-4-34.82-8.83-66.58-13-91.8q-.92-5.44-1.78-10.46l-.42-2.38c-1.4-8-2.71-15.2-3.85-21.3-.45-2.41-.88-4.64-1.28-6.71a266,266,0,0,1,39.42-4c-.17,2.11-.31,4.36-.44,6.74-.38,7-.61,15.08-.72,23.79,0,2.85-.06,5.77-.08,8.74v.07c-.16,35.13,1.21,77.07,2,97.34Z"/><path id="Path_443" data-name="Path 443" class="cls-12" d="M351.79,319.48l-.15,13.66c-12.86,1.4-30.6,5.48-30.85,5.54-.75-4.5-1.49-8.77-2.2-12.84Z"/></g><path id="Path_444" data-name="Path 444" class="cls-1" d="M416,301.19l-3.58,26.19c-19.83-4-40.9-4.43-60.69-3.05-11.49.8-22.56,2.22-32.7,3.89a380.53,380.53,0,0,0-53.12,12.51L257,313.94a292.5,292.5,0,0,1,56.5-16.11,264.53,264.53,0,0,1,39.41-4c39-1,63.11,7.37,63.11,7.37Z"/><path id="Path_445" data-name="Path 445" class="cls-11" d="M319,328.21l-5.55-30.38a190,190,0,0,1,38.34-4l-.08,30.49Z"/><path id="Path_446" data-name="Path 446" class="cls-13" d="M261.89,316.15s42.66-18.31,80.17-15.75c0,0-57,7.74-71.84,20.73l-2.31,14.55Z"/><g id="Group_62" data-name="Group 62"><g id="Group_60" data-name="Group 60"><path id="Path_447" data-name="Path 447" class="cls-1" d="M359.59,237.84c-.37.13-.74.28-1.1.43l-.94.43-.37.18c-17.9,9.11-27.64,46.77-29.7,55.54-.27,1.17-.41,1.83-.41,1.83h5l-.11.05c-3,1.42-4.92,2.25-4.92,2.25l8.17.91s49.52-7.83,61.27-31.31c11.54-23.08-15.86-38.28-36.92-30.31Zm8.58,37.45c-7.89,6.93-23.48,14.94-33,19.52l-2,.94.13-.28a2,2,0,0,1,.1-.21l.11-.24.19-.39a1,1,0,0,1,.07-.15L334,294l.35-.74.4-.8c.33-.67.7-1.4,1.11-2.2.11-.23.23-.46.36-.7l.43-.82c.11-.22.22-.44.34-.66.5-.94,1-1.95,1.63-3l.24-.44,1.13-2,.25-.44c.36-.63.73-1.25,1.11-1.89.08-.14.16-.28.25-.42l.36-.6.2-.34c.07-.1.12-.2.19-.31l.25-.41c1.31-2.13,2.72-4.32,4.21-6.48l.34-.48.34-.48c.8-1.13,1.62-2.25,2.46-3.35l.68-.88c1.2-1.53,2.44-3,3.71-4.41l.38-.42c.23-.23.45-.47.67-.7l.49-.51.39-.39.39-.39c.66-.65,1.32-1.27,2-1.86l.76-.65c.91-.76,1.83-1.46,2.75-2.09l.34-.23.66-.43.3-.18,0,0,.38-.23.31-.17.38-.21.22-.11a2.59,2.59,0,0,1,.33-.17,19.48,19.48,0,0,1,2.4-1l.22-.07.27-.09.47-.14.36-.09.42-.1.37-.08.31-.05a.8.8,0,0,1,.15,0l.41-.06a12.48,12.48,0,0,1,2.52-.08c4.45.32,7.28,2.55,7.14,6.4-.15,4.07-3.61,10-12,17.34Z"/><path id="Path_448" data-name="Path 448" class="cls-11" d="M380.18,258c.14-3.86-2.7-6.08-7.15-6.4a12.4,12.4,0,0,0-2.51.08l-.41.06a.8.8,0,0,0-.15,0l-.31.05-.37.08-.42.1-.36.09-.47.14-.27.09-.22.07a18.84,18.84,0,0,0-2.4,1,2.59,2.59,0,0,0-.33.17l-.22.11-.38.21-.31.17-.38.23,0,0-.3.18-.66.43-.34.23c-.92.63-1.84,1.33-2.75,2.09l-.76.65c-.67.59-1.33,1.21-2,1.86l-.39.39-.39.39-.49.51-.67.71-.38.41c-1.27,1.39-2.51,2.87-3.71,4.41-.23.29-.46.58-.68.88-.84,1.1-1.67,2.22-2.46,3.35l-.34.48-.34.48c-1.49,2.16-2.91,4.35-4.22,6.48l-.24.41-.19.31-.2.34-.37.6-.24.42-1.11,1.89-.25.44c-.4.69-.77,1.36-1.14,2l-.23.44c-.59,1.05-1.13,2.05-1.63,3l-.34.66-.43.82-.36.7c-.41.8-.78,1.53-1.11,2.2l-.4.8L334,294c-.09.17-.16.33-.23.48l-.08.15-.18.39-.11.24c0,.07-.2.42-.23.49a2.55,2.55,0,0,1-1.08.5h-5s.13-.65.41-1.83c2.05-8.77,11.79-46.43,29.7-55.54l.36-.18c.31-.15.62-.3.94-.43s.73-.3,1.1-.43c20.49.8,20.93,15.62,20.59,20.11Z"/></g><g id="Group_61" data-name="Group 61"><path id="Path_449" data-name="Path 449" class="cls-1" d="M263.21,268.11c11.74,23.49,61.25,31.35,61.25,31.35l8.17-.91s-1.9-.83-4.92-2.24l-.11-.06h5s-.14-.65-.41-1.83c-2.05-8.77-11.77-46.43-29.67-55.56l-.36-.18c-.31-.15-.62-.29-.94-.42s-.73-.3-1.1-.44c-21.06-8-48.48,7.21-36.94,30.29Zm16.33-10.19c-.13-3.85,2.7-6.08,7.16-6.39a12.38,12.38,0,0,1,2.51.08l.41.06.15,0,.31.06.37.08.42.09.36.1.47.14.28.09.21.07a18.84,18.84,0,0,1,2.4,1l.33.17.22.11.38.21.31.18.38.22,0,0,.31.19c.22.13.43.27.65.42l.35.23c.92.63,1.84,1.34,2.75,2.1l.76.65c.66.59,1.33,1.2,2,1.85l.4.39c.13.14.25.27.39.4l.49.5.66.71.38.42c1.27,1.39,2.51,2.87,3.71,4.4l.68.88c.84,1.1,1.67,2.22,2.47,3.36l.33.48.34.48c1.49,2.16,2.9,4.35,4.21,6.48l.25.41.19.32.2.33.36.6.25.42c.38.64.74,1.27,1.1,1.89l.26.45c.39.68.77,1.35,1.13,2l.24.44c.58,1.05,1.12,2.05,1.62,3l.34.65c.15.28.3.56.43.82s.25.48.36.7c.41.8.78,1.54,1.11,2.2q.21.42.39.81c.13.25.25.5.36.74l.23.48s.05.09.07.14l.19.4.11.23.1.22c.05.09.09.19.13.27l-2-.93c-9.55-4.59-25.14-12.6-33-19.55-8.39-7.38-11.85-13.27-12-17.34Z"/><path id="Path_450" data-name="Path 450" class="cls-11" d="M279.54,257.92c-.13-3.85,2.71-6.08,7.16-6.39a12.38,12.38,0,0,1,2.51.08c.14,0,.28,0,.42.06l.15,0,.3.06.37.08.42.09.36.1.47.14.28.09.21.07a18.84,18.84,0,0,1,2.4,1l.33.17.22.11.38.21.31.18.38.22,0,0,.31.19c.22.13.43.27.65.42l.35.23c.92.63,1.84,1.34,2.75,2.1l.76.65c.66.59,1.33,1.2,2,1.85l.4.39c.13.14.25.27.39.4l.49.5.66.71.38.42c1.27,1.39,2.51,2.87,3.71,4.4l.68.88c.84,1.1,1.67,2.22,2.47,3.36l.33.48.34.48c1.49,2.16,2.9,4.35,4.21,6.48l.25.41.19.32.2.33.36.6.25.42c.38.64.74,1.27,1.1,1.89l.26.45c.39.68.76,1.35,1.13,2l.24.44c.58,1.05,1.12,2.05,1.62,3l.34.65.43.82.36.7c.41.8.78,1.54,1.11,2.2q.21.42.39.81c.13.25.25.5.36.74l.23.48s.05.09.07.14l.19.4.11.23.23.49a2.51,2.51,0,0,0,1.08.51h5s-.13-.66-.41-1.83c-2-8.78-11.76-46.44-29.66-55.56l-.37-.18-.93-.43-1.1-.44c-20.49.8-20.94,15.62-20.61,20.11Z"/></g></g></g><g id="Group_68" data-name="Group 68"><path id="Path_451" data-name="Path 451" class="cls-2" d="M511.8,361l-10.67-.65-7.58-.45-15.81-.95-7.92-.48-16.29-1L445.1,357l-16.92-1-9.36-.56-3.83-.23-1.41-7.82-1-5.5-2-10.87-1-5.66-2.07-11.54-.27-1.53-.77-4.26-2.15-12L403.3,290l-.41-2.28-1.32-7.36-.49-2.72-1.08-6-3.76-20.92L394.31,240s19.31-5.73,47.68-8.91l2.89-.32q2.47-.25,5-.48c5.15-.46,10.54-.82,16.11-1q3.57-.13,7.25-.2c3.11,0,6.26,0,9.47,0,1.77,0,3.55.07,5.34.13q3.32.12,6.69.31,6.78.39,13.72,1.15,3.11.34,6.22.77,6.38.87,12.79,2.11,2.9.57,5.79,1.22,4,.89,8,1.94l-1.86,7.84-1.07,4.5-1.49,6.29-1.61,6.81-3.72,15.65-1.84,7.75L529.1,288,524,309.33l-.35,1.48-2,8.24L517,339l-2.17,9.15Z"/><path id="Path_452" data-name="Path 452" class="cls-3" d="M538.35,249l-3.11,13.1c-29.64-2.86-94.06-3.13-133.68,18.29l-5.33-29.65C420.48,247.81,514.12,237.41,538.35,249Z"/><path id="Path_453" data-name="Path 453" class="cls-1" d="M529.69,285.52l-6,25.31c-23.81-1.06-81.16-2.94-116.42,1.39l-4.39-24.46C426.09,285.81,479.83,282.2,529.69,285.52Z"/><g id="Group_64" data-name="Group 64"><path id="Path_454" data-name="Path 454" class="cls-1" d="M476.14,358.82l-19.73-1.19c-1.94-35-4.83-67-7.54-92.42q-.58-5.49-1.15-10.55l-.27-2.39c-.92-8.12-1.8-15.34-2.58-21.51q-.45-3.63-.87-6.77a267.17,267.17,0,0,1,39.59-1.65c-.3,2.09-.57,4.33-.84,6.7-.8,7-1.51,15-2.15,23.7q-.3,4.27-.59,8.72v.07c-2.27,35.07-3.42,77-3.87,97.29Z"/><path id="Path_455" data-name="Path 455" class="cls-11" d="M481,247.9l-1,13.63c-12.92.62-30.87,3.63-31.13,3.68q-.72-6.79-1.42-12.94Z"/></g><path id="Path_456" data-name="Path 456" class="cls-2" d="M546.14,233.48,541,259.41c-19.56-5.19-40.56-6.87-60.4-6.67-11.52.11-22.65.86-32.88,1.92A379.76,379.76,0,0,0,394,264l-7.31-27.28A292.54,292.54,0,0,1,444,224a267.09,267.09,0,0,1,39.58-1.65c39,1.34,62.56,11.14,62.56,11.14Z"/><path id="Path_457" data-name="Path 457" class="cls-1" d="M447.73,254.66,444,224a190.05,190.05,0,0,1,38.51-1.68l-1.91,30.43Z"/><path id="Path_458" data-name="Path 458" class="cls-6" d="M391.44,239.2s43.67-15.73,81-10.92c0,0-57.41,4.31-73,16.39l-3.17,14.39Z"/><g id="Group_67" data-name="Group 67"><g id="Group_65" data-name="Group 65"><path id="Path_459" data-name="Path 459" class="cls-1" d="M493.64,166.87c-.38.12-.75.24-1.13.38s-.64.23-1,.36l-.37.16c-18.42,8-30.4,45-33,53.66-.35,1.16-.52,1.81-.52,1.81l5,.3-.11.05c-3.1,1.23-5,1.94-5,1.94l8.1,1.4s49.9-4.85,63-27.59C541.58,177,515.13,160.18,493.64,166.87Zm6.33,37.9c-8.29,6.45-24.34,13.51-34.15,17.52l-2,.81.15-.27.11-.2.12-.23.21-.38.08-.15.26-.46.4-.72.45-.78c.36-.64.78-1.35,1.23-2.12l.4-.68.48-.8.38-.63c.56-.91,1.16-1.89,1.81-2.9l.26-.42,1.25-1.94c.1-.14.19-.29.28-.43l1.22-1.82.27-.4.4-.59.22-.32c.08-.1.14-.19.21-.29l.27-.4c1.43-2,3-4.15,4.6-6.22l.36-.46.37-.46c.86-1.08,1.75-2.14,2.66-3.19.24-.29.49-.57.73-.84,1.29-1.46,2.62-2.86,4-4.18l.4-.39.71-.67.52-.47.41-.37.42-.36c.69-.61,1.39-1.19,2.09-1.73l.8-.61c.95-.71,1.91-1.35,2.87-1.93l.36-.21.68-.38.32-.17,0,0,.39-.21.32-.15.39-.19.22-.1.34-.15a21.16,21.16,0,0,1,2.46-.88l.22-.06.28-.07.47-.11.37-.07.42-.08.37-.05.32,0,.15,0,.41,0a12.5,12.5,0,0,1,2.52.07c4.42.58,7.12,3,6.75,6.81-.39,4-4.2,9.73-13,16.59Z"/><path id="Path_460" data-name="Path 460" class="cls-14" d="M514.15,169.27s12.77,1,16,15.9-21.89,29.88-28.59,31.32c0,0,24.28-13.61,24.43-27.72C526.12,173.06,514.15,169.27,514.15,169.27Z"/><path id="Path_461" data-name="Path 461" class="cls-11" d="M513,188.18c.37-3.84-2.33-6.23-6.75-6.82a13.28,13.28,0,0,0-2.52-.07l-.42,0h-.15l-.31,0-.37.06-.42.07-.37.08-.48.11-.28.07-.22.06a20,20,0,0,0-2.46.88l-.33.15-.23.1-.39.18-.32.16-.39.2-.05,0-.31.17-.69.38-.35.21c-1,.58-1.92,1.22-2.87,1.93-.27.19-.53.4-.8.6-.7.55-1.4,1.13-2.1,1.73l-.41.37-.41.36-.52.48-.71.67-.4.39c-1.35,1.31-2.68,2.72-4,4.17l-.74.84c-.9,1-1.79,2.11-2.65,3.2-.12.15-.25.3-.37.46l-.36.46c-1.62,2.07-3.16,4.17-4.6,6.22l-.27.39-.21.3-.22.32-.4.59c-.09.13-.19.27-.27.4-.42.61-.82,1.22-1.22,1.81l-.28.44c-.43.66-.85,1.3-1.25,1.93-.09.14-.18.29-.27.42q-1,1.53-1.8,2.91c-.13.21-.26.42-.38.63l-.48.79-.4.68-1.24,2.13-.44.78-.4.71-.26.47-.08.14-.21.38-.12.23-.26.48a2.62,2.62,0,0,1-1.11.44l-5-.3s.18-.65.52-1.81c2.58-8.63,14.55-45.64,33-53.66l.38-.16,1-.37,1.12-.37c20.41,2,20,16.85,19.36,21.31Z"/></g><g id="Group_66" data-name="Group 66"><path id="Path_462" data-name="Path 462" class="cls-1" d="M395.62,191.32c10.31,24.15,59.27,35,59.27,35l8.2-.42s-1.84-.94-4.77-2.53l-.1-.06,5,.3s-.1-.67-.3-1.86c-1.52-8.88-9-47.05-26.29-57.23l-.35-.2c-.3-.17-.6-.33-.91-.48s-.71-.35-1.07-.51c-20.54-9.21-48.82,4.3-38.69,28Zm16.92-9.19c.09-3.86,3.06-5.91,7.52-6a13.07,13.07,0,0,1,2.5.23l.41.09.15,0,.31.08.36.1c.14,0,.28.08.41.12l.36.12.46.16.27.11.21.08a20.29,20.29,0,0,1,2.33,1.17,3.37,3.37,0,0,1,.32.19l.21.13.37.23.29.19.37.25,0,0,.3.21.63.46.33.25c.88.69,1.75,1.44,2.62,2.26l.71.69c.64.63,1.26,1.29,1.88,2l.36.41.37.42.46.53.62.75.35.44c1.19,1.47,2.33,3,3.44,4.62l.63.92c.77,1.15,1.53,2.32,2.25,3.49l.31.5c.1.17.2.34.31.5,1.36,2.25,2.64,4.52,3.82,6.73l.22.42c0,.11.11.22.17.33s.12.23.18.34.22.42.32.63l.23.43,1,1.95.23.46c.35.71.69,1.4,1,2.07l.21.45c.52,1.09,1,2.13,1.45,3.1l.3.68.38.84.31.72c.36.82.69,1.58,1,2.26l.34.83.32.76.2.49.06.15c.05.14.11.28.16.4s.07.17.1.25l.08.21.11.29c-.6-.33-1.23-.69-1.9-1.05-9.24-5.14-24.33-14.08-31.79-21.48C415.54,192.29,412.44,186.2,412.54,182.13Z"/><path id="Path_463" data-name="Path 463" class="cls-14" d="M411.85,164.51s-12.76,1-15.94,15.92,21.9,29.86,28.61,31.29c0,0-24.29-13.59-24.46-27.7-.18-15.71,11.79-19.51,11.79-19.51Z"/><path id="Path_464" data-name="Path 464" class="cls-11" d="M412.54,182.13c.09-3.86,3.06-5.91,7.52-6a13.25,13.25,0,0,1,2.51.23l.41.09.14,0,.31.08.36.1c.14,0,.28.08.41.12l.36.12.46.16.27.11.21.08a21.28,21.28,0,0,1,2.34,1.17l.31.19.21.13.37.23.29.19.37.25,0,0,.3.21.63.46.33.25c.88.69,1.75,1.44,2.62,2.26l.71.69c.64.63,1.26,1.29,1.88,2l.36.41.37.42.46.53.62.75.35.44c1.19,1.47,2.33,3,3.44,4.62l.63.92c.77,1.15,1.53,2.32,2.25,3.5l.31.49c.1.17.2.34.31.5,1.36,2.25,2.64,4.53,3.82,6.73l.22.43.17.32c.05.11.12.23.18.34s.22.42.32.63l.23.43,1,1.95.23.46c.35.71.69,1.4,1,2.07l.21.45c.52,1.09,1,2.13,1.45,3.11l.3.67.38.84.31.72c.36.82.69,1.58,1,2.26l.34.83.32.76c.07.17.13.34.2.49l.06.15.16.4c0,.09.07.17.1.25s.17.43.19.5a2.63,2.63,0,0,0,1,.57l5,.3s-.09-.66-.3-1.85c-1.51-8.88-9-47.05-26.28-57.23l-.36-.21c-.3-.17-.6-.32-.91-.48l-1.07-.5c-20.49-.43-21.83,14.33-21.76,18.84Z"/></g></g></g><g id="Group_84" data-name="Group 84"><path id="Path_465" data-name="Path 465" class="cls-15" d="M592.86,433.32l-10.7-.05-7.59,0-15.84-.07-7.93,0-16.32-.07L526,433l-16.95-.08-9.37,0-3.84,0L494,425.15l-1.29-5.43L490.19,409l-1.33-5.6L486.15,392l-.36-1.51-1-4.22L482,374.37l-1.39-5.84-.53-2.25L478.31,359l-.64-2.7-1.41-5.92-4.91-20.69-2.53-10.64s19-6.79,47.11-11.54l2.87-.47c1.64-.26,3.31-.52,5-.77,5.11-.74,10.47-1.4,16-1.92q3.55-.35,7.22-.61,4.65-.33,9.45-.53c1.77-.08,3.55-.13,5.34-.17q3.33-.07,6.7-.07c4.53,0,9.13.14,13.77.4q3.12.17,6.25.42,6.4.51,12.88,1.4c1.95.27,3.9.56,5.85.89,2.69.44,5.39.94,8.08,1.5L614,315.51l-.82,4.56L612,326.43l-1.23,6.89-2.84,15.83L606.52,357l-.45,2.54-3.86,21.56-.27,1.5-1.49,8.34-3.63,20.22-1.65,9.23Z"/><g id="Group_79" data-name="Group 79"><g id="Group_78" data-name="Group 78"><g id="Group_69" data-name="Group 69"><path id="Path_466" data-name="Path 466" class="cls-16" d="M523.81,306.28l-3,3.53C506.37,326.55,492.31,341.75,479,355l-1.33,1.32-1.41-5.93c14.78-14.74,28.51-29.94,39.67-42.87l2.87-.47c1.64-.26,3.31-.52,5-.76Z"/></g><g id="Group_70" data-name="Group 70"><path id="Path_467" data-name="Path 467" class="cls-16" d="M547.06,303.75c-3.92,4.74-8.11,9.74-12.52,14.89-14.65,17.1-28.85,32.48-42.22,45.73q-5.26,5.22-10.36,10l-1.39-5.84c18.61-17.68,36.29-37.21,50-53.26,3.2-3.73,6.28-7.39,9.22-10.92C542.21,304.12,544.61,303.92,547.06,303.75Z"/></g><g id="Group_71" data-name="Group 71"><path id="Path_468" data-name="Path 468" class="cls-16" d="M568.55,303c-6,7.43-12.8,15.76-20.25,24.5-14.88,17.44-29.24,33-42.67,46.28q-10.1,10-19.49,18.21l-.36-1.51-1-4.22c21.83-19.45,43.35-43.1,59.58-62.12,6.33-7.42,12.22-14.55,17.49-21.07Q565.18,303,568.55,303Z"/></g><g id="Group_72" data-name="Group 72"><path id="Path_469" data-name="Path 469" class="cls-16" d="M588.57,303.79c-7.29,9.3-16.36,20.58-26.51,32.52-15.12,17.79-29.63,33.55-43.12,46.84A378.3,378.3,0,0,1,490.18,409l-1.33-5.6C509,386.93,532.57,363,558.11,333c9.12-10.71,17.36-20.9,24.21-29.58,2.07.11,4.16.25,6.25.42Z"/></g><g id="Group_73" data-name="Group 73"><path id="Path_470" data-name="Path 470" class="cls-16" d="M607.3,306.08c-8,10.47-19,24.31-31.48,39.06-15.36,18.14-30,34.09-43.57,47.4-13.94,13.7-26.76,24.63-38.22,32.61l-1.29-5.43c21.85-15.63,49-42.29,79.1-77.89,11.56-13.65,21.8-26.53,29.61-36.64q2.92.4,5.85.89Z"/></g><g id="Group_74" data-name="Group 74"><path id="Path_471" data-name="Path 471" class="cls-16" d="M612,326.43c-6.57,8.35-14.18,17.77-22.42,27.54-15.6,18.49-30.41,34.62-44,47.95-13.34,13.06-25.57,23.45-36.48,31l-9.38,0c22.52-13.88,52.15-42.24,85.89-82.24,10.88-12.89,20.64-25.17,28.37-35.16l-.82,4.56Z"/></g><g id="Group_75" data-name="Group 75"><path id="Path_472" data-name="Path 472" class="cls-16" d="M606.07,359.54l-2.74,3.27c-15.83,18.83-30.79,35.15-44.47,48.5a326.67,326.67,0,0,1-24.39,21.75L526,433c20.3-15.15,45.29-40.17,73.32-73.51q4.42-5.26,8.59-10.36L606.52,357Z"/></g><g id="Group_76" data-name="Group 76"><path id="Path_473" data-name="Path 473" class="cls-16" d="M600.45,390.94c-9.93,11.15-19.39,21.11-28.27,29.75q-7,6.78-13.45,12.48l-7.93,0c15.09-12.69,32.4-30.21,51.41-52l-.27,1.5Z"/></g><g id="Group_77" data-name="Group 77"><path id="Path_474" data-name="Path 474" class="cls-16" d="M595.17,420.39q-4.95,5.1-9.68,9.69-1.68,1.64-3.33,3.19l-7.58,0q10.5-9.64,22.24-22.08Z"/></g></g></g><path id="Path_475" data-name="Path 475" class="cls-10" d="M613.14,320.06l-2.37,13.26C581,332.11,516.68,335.41,478.31,359l-7-29.31c24.05-4.28,117-19.87,141.8-9.64Z"/><path id="Path_476" data-name="Path 476" class="cls-4" d="M606.53,357l-4.59,25.6c-23.83.27-81.19,1.57-116.16,7.86L480,366.28c23.07-3.24,76.51-9.82,126.49-9.28Z"/><g id="Group_80" data-name="Group 80"><path id="Path_477" data-name="Path 477" class="cls-5" d="M557.13,433.16l-19.76-.09c-3.89-34.84-8.55-66.62-12.66-91.86-.6-3.63-1.17-7.12-1.74-10.47l-.4-2.37c-1.38-8.06-2.65-15.22-3.77-21.33q-.66-3.6-1.25-6.71A264.72,264.72,0,0,1,557,296.48c-.17,2.1-.33,4.35-.47,6.73-.41,7-.67,15.08-.82,23.78q-.06,4.29-.11,8.75v.06c-.31,35.15.88,77.09,1.55,97.36Z"/><path id="Path_478" data-name="Path 478" class="cls-4" d="M555.79,322.15l-.21,13.66c-12.87,1.34-30.62,5.34-30.88,5.4q-1.1-6.75-2.14-12.84Z"/></g><path id="Path_479" data-name="Path 479" class="cls-15" d="M620.06,304.12l-3.69,26.18c-19.82-4.1-40.88-4.6-60.68-3.3-11.5.75-22.57,2.11-32.72,3.74A380.85,380.85,0,0,0,469.8,343L461,316.2a292.12,292.12,0,0,1,56.56-15.87A266.05,266.05,0,0,1,557,296.48c39-.84,63.08,7.64,63.08,7.64Z"/><path id="Path_480" data-name="Path 480" class="cls-5" d="M523,330.74l-5.42-30.41a190.07,190.07,0,0,1,38.36-3.82L555.69,327Z"/><path id="Path_481" data-name="Path 481" class="cls-17" d="M465.91,318.43s42.73-18.13,80.24-15.4c0,0-57.08,7.49-71.94,20.42L471.85,338Z"/><g id="Group_83" data-name="Group 83"><g id="Group_81" data-name="Group 81"><path id="Path_482" data-name="Path 482" class="cls-5" d="M563.93,240.53l-1.1.44-.94.42-.36.18c-17.95,9-27.85,46.65-29.94,55.41-.28,1.17-.42,1.83-.42,1.83l5,0-.11.06c-3,1.39-4.93,2.22-4.93,2.22l8.17.94s49.55-7.62,61.4-31.05c11.64-23-15.7-38.34-36.8-30.47ZM572.36,278c-7.92,6.91-23.55,14.85-33.12,19.39l-2,.92.13-.28.1-.21.11-.23.19-.4.07-.14.23-.48c.11-.23.24-.48.36-.74l.4-.8c.33-.67.71-1.4,1.12-2.2l.36-.69.44-.83c.11-.21.22-.43.34-.64.51-.95,1-2,1.64-3l.24-.43,1.14-2,.26-.45c.36-.62.73-1.25,1.11-1.88l.25-.42.37-.6c.06-.11.13-.22.2-.33l.19-.31.25-.41c1.32-2.13,2.74-4.31,4.24-6.47l.34-.48.34-.48c.8-1.12,1.63-2.24,2.48-3.34l.69-.88c1.2-1.52,2.45-3,3.73-4.39.12-.14.25-.27.38-.41l.67-.71.49-.5.39-.39.39-.39c.66-.64,1.32-1.26,2-1.84.25-.22.5-.44.76-.65a34.38,34.38,0,0,1,2.76-2.08l.34-.23q.33-.23.66-.42l.3-.19,0,0,.38-.22.31-.18.38-.2.22-.11a2.59,2.59,0,0,1,.33-.17,20.48,20.48,0,0,1,2.41-1L572,255l.28-.09.46-.13.37-.1.42-.1.37-.07.31-.06.15,0,.41-.06a12.4,12.4,0,0,1,2.51-.07c4.45.33,7.28,2.57,7.13,6.43-.16,4.08-3.65,9.95-12.07,17.29Z"/><path id="Path_483" data-name="Path 483" class="cls-7" d="M584.55,241.79s12.8.27,16.81,15-20.18,31.05-26.8,32.86c0,0,23.49-14.94,22.86-29-.71-15.7-12.87-18.82-12.87-18.82Z"/><path id="Path_484" data-name="Path 484" class="cls-4" d="M584.44,260.74c.16-3.86-2.67-6.1-7.12-6.43a13.15,13.15,0,0,0-2.51.06l-.42.06-.15,0-.31,0-.37.08-.41.1-.37.1-.46.13L572,255l-.22.07a19.35,19.35,0,0,0-2.4,1l-.34.17-.21.11-.38.21-.31.18-.38.22,0,0-.3.19-.66.42-.35.22c-.92.63-1.84,1.33-2.76,2.09l-.76.65c-.67.58-1.33,1.2-2,1.84l-.4.39-.39.39-.49.5-.67.71c-.12.14-.25.27-.38.41-1.27,1.39-2.52,2.87-3.73,4.39l-.69.88c-.84,1.1-1.67,2.21-2.47,3.34l-.34.48-.34.48c-1.5,2.15-2.92,4.34-4.24,6.47l-.25.4-.2.31-.2.33-.36.61c-.09.14-.17.28-.25.42-.38.63-.75,1.26-1.11,1.88-.09.15-.18.29-.26.44-.4.69-.78,1.35-1.14,2l-.25.43c-.58,1.05-1.13,2.06-1.63,3l-.35.65-.43.83-.36.69c-.42.8-.79,1.53-1.12,2.2l-.4.8c-.13.25-.25.5-.36.74l-.23.47-.08.15-.18.39-.12.24-.23.49a2.51,2.51,0,0,1-1.07.5l-5,0s.14-.66.42-1.83c2.09-8.77,12-46.38,29.93-55.42l.37-.17c.31-.15.62-.29.94-.42l1.1-.44c20.48.89,20.86,15.71,20.5,20.2Z"/></g><g id="Group_82" data-name="Group 82"><path id="Path_485" data-name="Path 485" class="cls-5" d="M467.43,270.4c11.63,23.53,61.12,31.6,61.12,31.6l8.17-.87s-1.89-.84-4.91-2.26l-.11-.06,5,0s-.14-.66-.4-1.84c-2-8.78-11.57-46.48-29.43-55.68l-.37-.18c-.31-.16-.62-.3-.93-.43s-.73-.31-1.1-.45c-21-8.06-48.5,7-37.07,30.14Zm16.38-10.13c-.12-3.85,2.73-6.07,7.18-6.36a13.15,13.15,0,0,1,2.51.09l.42.06.15,0,.3.06.37.07.42.1.36.1.47.14.27.09.22.07a21.27,21.27,0,0,1,2.4,1.05l.33.17.21.12a2.82,2.82,0,0,1,.38.21l.31.17.38.23.05,0,.3.19c.22.13.43.28.65.43a4,4,0,0,1,.34.23,32.51,32.51,0,0,1,2.75,2.11l.75.65q1,.88,2,1.86l.39.39.39.4.49.5.66.72c.13.13.25.27.38.41,1.26,1.4,2.5,2.89,3.69,4.42.23.3.46.59.68.89.84,1.1,1.66,2.23,2.45,3.36l.34.48.33.49c1.48,2.17,2.89,4.36,4.18,6.5l.25.41.19.32.19.33.36.61.25.41,1.09,1.9.26.45c.39.68.76,1.35,1.12,2l.24.44c.57,1.05,1.11,2.06,1.61,3l.34.65c.15.29.29.56.42.83s.25.47.36.7c.4.8.77,1.54,1.09,2.2l.4.81.35.74.23.48.07.15q.09.21.18.39l.11.24.1.21.13.28-2-.94c-9.53-4.63-25.08-12.71-32.94-19.69-8.36-7.41-11.8-13.32-11.92-17.4Z"/><path id="Path_486" data-name="Path 486" class="cls-7" d="M482.14,242.73s-12.69,1.69-15,16.77,23.53,28.6,30.3,29.67c0,0-25-12.23-26-26.3C470.4,247.18,482.14,242.73,482.14,242.73Z"/><path id="Path_487" data-name="Path 487" class="cls-4" d="M483.81,260.28c-.12-3.86,2.73-6.07,7.18-6.37a13.15,13.15,0,0,1,2.51.09l.42.07.15,0,.3.06.37.08.42.1.36.09.47.14.27.1.22.07a19.48,19.48,0,0,1,2.4,1l.33.17.21.12c.13.06.26.14.38.21l.31.18.38.22.05,0,.3.19.65.43a4,4,0,0,1,.34.23c.93.64,1.84,1.34,2.75,2.11l.75.65q1,.9,2,1.86l.39.4.39.39.49.51.66.71.38.42c1.26,1.4,2.5,2.88,3.69,4.42.23.29.46.58.68.88.84,1.11,1.66,2.23,2.45,3.36l.34.49.33.48c1.48,2.17,2.89,4.37,4.18,6.51l.25.41c.06.1.13.2.19.31l.19.33.36.61c.09.14.17.28.25.42.37.64.74,1.27,1.09,1.89.09.15.18.3.26.45.39.68.76,1.36,1.12,2l.24.44c.58,1,1.11,2.06,1.61,3,.12.22.23.44.34.66s.29.55.42.82l.36.7c.41.8.77,1.54,1.1,2.21.14.28.26.55.39.8l.35.74c.08.17.16.33.23.49s.05.09.07.14l.18.4.11.23.23.49a2.57,2.57,0,0,0,1.08.51l5,0s-.13-.66-.4-1.84c-2-8.78-11.57-46.48-29.43-55.68l-.36-.18c-.31-.16-.62-.3-.94-.43s-.73-.31-1.09-.45c-20.5.72-21,15.53-20.7,20Z"/></g></g></g><g id="Group_96" data-name="Group 96"><path id="Path_488" data-name="Path 488" class="cls-5" d="M478.18,432.79H399.91l-1.83-7.57-6.45-26.62-3.85-15.86-.88-3.62-.89-3.67-.53-2.2-.65-2.67-1.77-7.31-3.3-13.64L377.68,341A248.06,248.06,0,0,1,418,331.17a260.58,260.58,0,0,1,30.42-3.23,196.63,196.63,0,0,1,47.51,3.32l-1.76,10.08L492.27,352l-.5,2.86-1.38,7.92-1.08,6.2-.38,2.15-.9,5.15-2.71,15.52-6.11,35-.51,2.92Z"/><g id="Group_91" data-name="Group 91"><g id="Group_85" data-name="Group 85"><path id="Path_489" data-name="Path 489" class="cls-16" d="M389.4,367.64a4.07,4.07,0,0,1-4.56,2.92l-1.77-7.31a4.08,4.08,0,0,1,6.33,4.39Z"/><path id="Path_490" data-name="Path 490" class="cls-16" d="M404.38,364.38a4.08,4.08,0,1,1-2.83-5,4.07,4.07,0,0,1,2.83,5Z"/><path id="Path_491" data-name="Path 491" class="cls-16" d="M419.37,361.76a4.08,4.08,0,1,1-2.83-5,4.07,4.07,0,0,1,2.83,5Z"/><path id="Path_492" data-name="Path 492" class="cls-16" d="M434.35,359.82a4.08,4.08,0,1,1-2.83-5h0A4.07,4.07,0,0,1,434.35,359.82Z"/><path id="Path_493" data-name="Path 493" class="cls-16" d="M449.34,358.61a4.08,4.08,0,1,1-2.83-5,4.07,4.07,0,0,1,2.83,5Z"/><path id="Path_494" data-name="Path 494" class="cls-16" d="M464.34,358.18a4.08,4.08,0,1,1-2.83-5,4.09,4.09,0,0,1,2.83,5Z"/><path id="Path_495" data-name="Path 495" class="cls-16" d="M479.33,358.57a4.08,4.08,0,1,1-2.83-5A4.07,4.07,0,0,1,479.33,358.57Z"/><path id="Path_496" data-name="Path 496" class="cls-16" d="M490.4,362.8a4.08,4.08,0,1,1,1.11-8l.27.09Z"/></g><g id="Group_86" data-name="Group 86"><path id="Path_497" data-name="Path 497" class="cls-16" d="M389.27,380.6a4.11,4.11,0,0,1-1.48,2.13l-.89-3.63-.88-3.67.48.11A4.09,4.09,0,0,1,389.27,380.6Z"/><path id="Path_498" data-name="Path 498" class="cls-16" d="M404.29,377.53a4.08,4.08,0,1,1-2.77-5.06,4.08,4.08,0,0,1,2.77,5.06Z"/><path id="Path_499" data-name="Path 499" class="cls-16" d="M419.3,375.09a4.07,4.07,0,1,1-2.77-5.06h0A4.09,4.09,0,0,1,419.3,375.09Z"/><path id="Path_500" data-name="Path 500" class="cls-16" d="M434.3,373.34a4.07,4.07,0,1,1-2.76-5.06h0a4.07,4.07,0,0,1,2.76,5.06Z"/><path id="Path_501" data-name="Path 501" class="cls-16" d="M449.3,372.32a4.07,4.07,0,1,1-2.76-5.06,4.07,4.07,0,0,1,2.76,5.06Z"/><path id="Path_502" data-name="Path 502" class="cls-16" d="M464.29,372.08a4.08,4.08,0,1,1-2.76-5.06A4.07,4.07,0,0,1,464.29,372.08Z"/><path id="Path_503" data-name="Path 503" class="cls-16" d="M479.28,372.65a4.07,4.07,0,1,1-2.76-5.06A4.08,4.08,0,0,1,479.28,372.65Z"/><path id="Path_504" data-name="Path 504" class="cls-16" d="M488,376.31a4.08,4.08,0,0,1,1.27-7.3l-.37,2.15Z"/></g><g id="Group_87" data-name="Group 87"><path id="Path_505" data-name="Path 505" class="cls-16" d="M404.19,390.67a4.07,4.07,0,1,1-2.7-5.09A4.08,4.08,0,0,1,404.19,390.67Z"/><path id="Path_506" data-name="Path 506" class="cls-16" d="M419.23,388.43a4.07,4.07,0,1,1-2.7-5.09A4.08,4.08,0,0,1,419.23,388.43Z"/><path id="Path_507" data-name="Path 507" class="cls-16" d="M434.25,386.87a4.07,4.07,0,1,1-2.7-5.09A4.08,4.08,0,0,1,434.25,386.87Z"/><path id="Path_508" data-name="Path 508" class="cls-16" d="M449.26,386a4.07,4.07,0,1,1-2.7-5.09,4.08,4.08,0,0,1,2.7,5.09Z"/><path id="Path_509" data-name="Path 509" class="cls-16" d="M464.25,386a4.08,4.08,0,1,1-2.7-5.1,4.08,4.08,0,0,1,2.7,5.1Z"/><path id="Path_510" data-name="Path 510" class="cls-16" d="M479.23,386.74a4.07,4.07,0,1,1-2.7-5.09h0a4.07,4.07,0,0,1,2.7,5.09Z"/></g><g id="Group_88" data-name="Group 88"><path id="Path_511" data-name="Path 511" class="cls-16" d="M404.1,403.82a4.07,4.07,0,1,1-2.64-5.12,4.08,4.08,0,0,1,2.64,5.12Z"/><path id="Path_512" data-name="Path 512" class="cls-16" d="M419.16,401.76a4.07,4.07,0,1,1-2.63-5.12h0A4.07,4.07,0,0,1,419.16,401.76Z"/><path id="Path_513" data-name="Path 513" class="cls-16" d="M434.2,400.39a4.07,4.07,0,1,1-2.63-5.13,4.07,4.07,0,0,1,2.63,5.13Z"/><path id="Path_514" data-name="Path 514" class="cls-16" d="M449.22,399.74a4.07,4.07,0,1,1-2.64-5.12h0A4.07,4.07,0,0,1,449.22,399.74Z"/><path id="Path_515" data-name="Path 515" class="cls-16" d="M464.21,399.87a4.07,4.07,0,1,1-2.63-5.12,4.07,4.07,0,0,1,2.63,5.12Z"/><path id="Path_516" data-name="Path 516" class="cls-16" d="M479.18,400.83a4.07,4.07,0,1,1-2.64-5.13,4.08,4.08,0,0,1,2.64,5.13Z"/></g><g id="Group_89" data-name="Group 89"><path id="Path_517" data-name="Path 517" class="cls-16" d="M404,417a4.08,4.08,0,1,1-2.57-5.16A4.08,4.08,0,0,1,404,417Z"/><path id="Path_518" data-name="Path 518" class="cls-16" d="M419.09,415.1a4.08,4.08,0,1,1-2.57-5.16A4.08,4.08,0,0,1,419.09,415.1Z"/><path id="Path_519" data-name="Path 519" class="cls-16" d="M434.15,413.91a4.07,4.07,0,1,1-2.57-5.15h0A4.06,4.06,0,0,1,434.15,413.91Z"/><path id="Path_520" data-name="Path 520" class="cls-16" d="M449.18,413.46a4.08,4.08,0,1,1-2.58-5.16A4.09,4.09,0,0,1,449.18,413.46Z"/><path id="Path_521" data-name="Path 521" class="cls-16" d="M464.17,413.77a4.07,4.07,0,1,1-2.57-5.15A4.08,4.08,0,0,1,464.17,413.77Z"/><path id="Path_522" data-name="Path 522" class="cls-16" d="M479.12,414.91a4.07,4.07,0,1,1-2.57-5.16h0a4.07,4.07,0,0,1,2.57,5.16Z"/></g><g id="Group_90" data-name="Group 90"><path id="Path_523" data-name="Path 523" class="cls-16" d="M403.91,430.11a4.08,4.08,0,0,1-3.12,2.67h-.88l-1.84-7.57a4.07,4.07,0,0,1,5.83,4.9Z"/><path id="Path_524" data-name="Path 524" class="cls-16" d="M419,428.43a4.08,4.08,0,1,1-2.51-5.19h0A4.08,4.08,0,0,1,419,428.43Z"/><path id="Path_525" data-name="Path 525" class="cls-16" d="M434.1,427.44a4.08,4.08,0,1,1-2.51-5.19h0A4.07,4.07,0,0,1,434.1,427.44Z"/><path id="Path_526" data-name="Path 526" class="cls-16" d="M449.14,427.17a4.08,4.08,0,1,1-2.51-5.19h0A4.07,4.07,0,0,1,449.14,427.17Z"/><path id="Path_527" data-name="Path 527" class="cls-16" d="M464.13,427.67a4.08,4.08,0,1,1-2.51-5.19h0A4.08,4.08,0,0,1,464.13,427.67Z"/><path id="Path_528" data-name="Path 528" class="cls-16" d="M478.71,429.77a4.07,4.07,0,1,1,.51-2.93Z"/></g></g><path id="Path_529" data-name="Path 529" class="cls-18" d="M494.15,341.33,492.28,352c-24-.86-75.92,2-106.79,21.2l-5.73-23.62c19.39-3.54,94.31-16.45,114.39-8.28Z"/><path id="Path_530" data-name="Path 530" class="cls-19" d="M488.94,371.16l-3.61,20.67c-19.23.3-65.51,1.57-93.7,6.76l-4.72-19.5C405.51,376.4,448.62,370.9,488.94,371.16Z"/><g id="Group_92" data-name="Group 92"><path id="Path_531" data-name="Path 531" class="cls-15" d="M449.36,432.79H433.41c-3.26-28.1-7.14-53.73-10.55-74.08q-.74-4.4-1.44-8.44l-.33-1.92c-1.14-6.49-2.19-12.26-3.12-17.19q-.54-2.91-1-5.41a213.57,213.57,0,0,1,31.81-3.25c-.13,1.7-.25,3.52-.35,5.43-.31,5.65-.49,12.17-.58,19.2,0,2.3-.05,4.66-.06,7.05v.06C447.63,382.59,448.74,416.44,449.36,432.79Z"/><path id="Path_532" data-name="Path 532" class="cls-19" d="M447.88,343.22l-.12,11c-10.38,1.13-24.69,4.42-24.9,4.47q-.92-5.44-1.77-10.36Z"/></g><path id="Path_533" data-name="Path 533" class="cls-5" d="M499.67,328.44l-2.88,21.14c-16-3.23-33-3.57-49-2.45-9.28.65-18.21,1.79-26.4,3.14a306,306,0,0,0-42.86,10.1l-7.21-21.62a237,237,0,0,1,45.59-13,214.89,214.89,0,0,1,31.81-3.24c31.45-.81,50.92,5.94,50.92,5.94Z"/><path id="Path_534" data-name="Path 534" class="cls-15" d="M421.42,350.27l-4.48-24.52a153.89,153.89,0,0,1,30.94-3.23l-.07,24.61Z"/><path id="Path_535" data-name="Path 535" class="cls-6" d="M375.34,340.53s34.41-14.78,64.68-12.71c0,0-46,6.25-58,16.73l-1.86,11.75Z"/><g id="Group_95" data-name="Group 95"><g id="Group_93" data-name="Group 93"><path id="Path_536" data-name="Path 536" class="cls-15" d="M454.16,277.33l-.89.35-.76.35-.29.14c-14.45,7.36-22.3,37.74-24,44.82-.22.95-.33,1.48-.33,1.48H432l-.09,0c-2.44,1.13-4,1.81-4,1.81l6.59.73s40-6.33,49.44-25.27c9.31-18.62-12.81-30.88-29.8-24.46Zm6.93,30.22c-6.36,5.6-18.95,12.06-26.65,15.76l-1.59.76.11-.23.08-.17.09-.19.15-.32s0-.08.05-.12l.19-.39.29-.6.32-.65c.26-.53.56-1.13.89-1.77.1-.18.19-.37.29-.56l.35-.67c.09-.17.18-.35.28-.52.4-.77.84-1.58,1.31-2.43l.19-.35c.3-.53.6-1.07.92-1.62l.2-.37.89-1.52c.07-.11.14-.22.2-.33l.29-.49.17-.27a2.07,2.07,0,0,1,.15-.25l.2-.33c1.05-1.72,2.19-3.49,3.4-5.24l.27-.39.27-.39c.65-.91,1.31-1.82,2-2.7l.55-.72c1-1.23,2-2.42,3-3.55l.31-.33.54-.58.39-.4.31-.32.32-.31c.53-.53,1.06-1,1.6-1.5L454,293c.73-.62,1.47-1.18,2.22-1.7l.27-.18.53-.34.25-.15,0,0,.3-.18.25-.14.31-.17.17-.09.27-.14a15,15,0,0,1,1.94-.82,1.15,1.15,0,0,1,.17-.06l.22-.07.38-.11.29-.08.34-.08.29-.07.25,0,.12,0,.33-.05a9.87,9.87,0,0,1,2-.06c3.6.25,5.89,2.05,5.77,5.16-.1,3.29-2.9,8.05-9.67,14Z"/><path id="Path_537" data-name="Path 537" class="cls-7" d="M470.8,278.27s10.33.17,13.62,12-16.18,25.13-21.51,26.61c0,0,18.89-12.14,18.34-23.51-.63-12.66-10.45-15.14-10.45-15.14Z"/><path id="Path_538" data-name="Path 538" class="cls-19" d="M470.78,293.56c.11-3.11-2.18-4.91-5.77-5.16a9.83,9.83,0,0,0-2,.06l-.33.05-.12,0-.25.05-.3.06-.33.08-.3.08-.37.11-.22.07-.18.06a15.65,15.65,0,0,0-1.94.82l-.26.14-.18.09-.3.17-.25.14-.31.18,0,0-.24.15-.53.34-.28.18c-.74.52-1.48,1.08-2.22,1.7l-.61.52c-.54.48-1.07,1-1.6,1.5-.11.09-.21.2-.32.31l-.31.32-.4.4-.53.58-.31.33c-1,1.13-2,2.32-3,3.55l-.56.72c-.68.88-1.34,1.79-2,2.7l-.28.39c-.09.14-.17.26-.27.39-1.2,1.75-2.35,3.52-3.4,5.24l-.19.33c-.06.08-.1.17-.16.25l-.16.27-.29.49c-.07.11-.14.22-.2.33l-.89,1.53-.21.36c-.31.55-.62,1.09-.91,1.62l-.2.35c-.47.85-.9,1.66-1.31,2.43-.1.18-.18.35-.27.52l-.35.67-.29.56c-.33.64-.63,1.24-.89,1.77l-.33.65-.28.6-.19.39-.06.12-.15.32-.09.19-.18.4a2.18,2.18,0,0,1-.87.41h-4.06l.34-1.48c1.65-7.08,9.51-37.46,24-44.82l.3-.15.75-.34.89-.35c16.52.63,16.88,12.59,16.61,16.21Z"/></g><g id="Group_94" data-name="Group 94"><path id="Path_539" data-name="Path 539" class="cls-15" d="M376.39,301.77c9.48,19,49.43,25.29,49.43,25.29l6.59-.73s-1.53-.68-4-1.81l-.09,0h4.05s-.11-.53-.33-1.48c-1.65-7.08-9.5-37.46-23.94-44.82l-.3-.15c-.25-.12-.5-.24-.75-.34s-.59-.25-.89-.36c-17-6.43-39.12,5.83-29.81,24.45Zm13.18-8.22c-.11-3.11,2.18-4.91,5.78-5.16a9.87,9.87,0,0,1,2,.06l.33.05.12,0,.25.05.3.06.33.08.29.08.38.11.22.07.18.06a16.44,16.44,0,0,1,1.93.82l.27.14.17.09.31.17.25.14.31.19,0,0,.24.15.53.34.28.19c.74.51,1.48,1.07,2.22,1.69l.61.53c.54.47,1.07,1,1.6,1.49l.32.32.31.31.39.41.54.57.31.34c1,1.12,2,2.32,3,3.55l.55.71c.68.89,1.35,1.8,2,2.71l.27.39.27.39c1.21,1.75,2.35,3.52,3.4,5.24.07.11.14.22.2.33l.15.25.16.27.3.49c.07.11.13.22.19.33.31.52.61,1,.89,1.53l.21.36c.32.55.62,1.09.91,1.62l.2.35c.47.85.9,1.66,1.31,2.43.1.17.19.35.28.52l.34.67.3.56c.33.64.62,1.24.89,1.77l.32.65.29.6.18.39.06.12.15.32.09.19.08.17.1.23-1.58-.76c-7.7-3.7-20.28-10.16-26.65-15.76-6.76-6-9.56-10.73-9.68-14Z"/><path id="Path_540" data-name="Path 540" class="cls-7" d="M388.16,279.39S377.93,280.8,376.09,293s19.09,23,24.56,23.83c0,0-20.22-9.78-21-21.13-.9-12.65,8.55-16.29,8.55-16.29Z"/><path id="Path_541" data-name="Path 541" class="cls-19" d="M389.57,293.55c-.11-3.12,2.18-4.91,5.77-5.16a9.83,9.83,0,0,1,2,.06l.34.05.12,0,.25.05c.1,0,.19,0,.29.06l.34.08.29.08.38.11.22.07.17.06a15,15,0,0,1,1.94.82l.27.14.17.09.31.17.25.14.3.18,0,0,.25.15.53.34.27.19a26.06,26.06,0,0,1,2.22,1.69c.21.17.41.35.61.53.54.47,1.08,1,1.61,1.49l.31.32.32.31.39.41.54.57.3.34c1,1.12,2,2.32,3,3.55l.55.71c.68.89,1.34,1.8,2,2.71l.27.39.27.39c1.2,1.75,2.35,3.52,3.4,5.24.07.11.13.22.19.33s.1.17.16.25l.16.27.29.49c.07.11.14.22.2.33.3.52.6,1,.89,1.53l.21.36c.31.55.62,1.09.91,1.62l.19.35q.71,1.28,1.32,2.43l.27.52.35.67c.1.19.19.38.29.56.33.64.63,1.24.89,1.78.12.22.22.44.33.64l.28.6.19.39a.61.61,0,0,1,.05.12c.06.11.1.22.15.32a1.07,1.07,0,0,1,.09.19l.19.4a2.12,2.12,0,0,0,.87.41h4s-.11-.53-.33-1.48c-1.65-7.08-9.49-37.46-23.94-44.83l-.29-.14-.76-.35-.89-.35c-16.52.63-16.89,12.58-16.62,16.21Z"/></g></g></g></g></g><g id="Group_111" data-name="Group 111"><g id="Group_107" data-name="Group 107"><g id="Group_113" data-name="Group 113"><g id="Group_106" data-name="Group 106"><g id="Group_105" data-name="Group 105"><path id="Path_587" data-name="Path 587" class="cls-2" d="M137.45,271.29a13.72,13.72,0,0,0-.07-4.61c-1.4-8-9-17-18.65-21.27A25.58,25.58,0,0,0,103.47,244h0a17.12,17.12,0,0,1,.22-2.26c.68-4.14,2.19-7.05,4.48-8.64a9.4,9.4,0,0,1,6.45-1.41h0l.76-3.78.85-4a17.13,17.13,0,0,0-12.5,2.56c-4.18,2.85-6.84,7.54-7.9,14a26.38,26.38,0,0,0-.24,6.28A27.59,27.59,0,0,0,93,248.23C83.35,254.46,78,265.75,77.86,280c-.12,17-8,27.67-15.37,30.4-5.21,1.94-10.52.23-14.94-4.82l-6,5.23a28.4,28.4,0,0,0,3.67,3.52c6,4.78,13.08,6.07,20,3.49,12.15-4.52,17-23,17.14-41,.11-14.73,7.74-23.62,14.91-21.9a42.61,42.61,0,0,0,9.25,15.45c6.37,6.83,13.87,10.38,20.57,9.74,5.65-.53,9.51-3.82,10.32-8.8Zm-13.15.87c-3.76-.48-8.08-3.06-12-7.21a34.53,34.53,0,0,1-7.74-13.09,18.19,18.19,0,0,1,10.89.79c9.51,4.24,14.8,13.25,14.13,17.36-.11.62-.32,1.92-3.25,2.19a8.33,8.33,0,0,1-1.8,0l-.28,0Z"/></g></g><path id="Path_588" data-name="Path 588" class="cls-3" d="M124.58,272.19a9,9,0,0,0,1.8,0c2.93-.27,3.14-1.57,3.25-2.19.67-4.11-4.62-13.13-14.13-17.36a18.12,18.12,0,0,0-10.89-.79,18.12,18.12,0,0,1-1.16-7.85h0a25.57,25.57,0,0,1,15.26,1.41c9.68,4.31,17.26,13.27,18.66,21.27C135.51,273.12,126.32,272.39,124.58,272.19Z"/></g></g><g id="Group_110" data-name="Group 110"><path id="Rectangle_13" data-name="Rectangle 13" class="cls-1" d="M510.12,39.75l-10.55-6.09L517.85,2,528.4,8.09Z"/><path id="Rectangle_14" data-name="Rectangle 14" class="cls-15" d="M606,137.93l9.37-9.36,28.09,28.08L634.05,166Z"/><path id="Rectangle_15" data-name="Rectangle 15" class="cls-5" d="M355.71,184.05l-8.41-.59,1.77-25.23,8.41.59Z"/><path id="Rectangle_16" data-name="Rectangle 16" class="cls-15" d="M165.81,229.89l4.53-6.69L192,237.89l-4.53,6.68Z"/><path id="Rectangle_17" data-name="Rectangle 17" class="cls-5" d="M96.8,429.25l-2.31-5.87,17.61-6.95,2.32,5.87Z"/></g></g></g></svg>