<svg id="圖層_1" data-name="圖層 1" xmlns="http://www.w3.org/2000/svg" viewBox="0 0 685 452"><defs><style>.cls-1{fill:#dadfe3;}.cls-10,.cls-2{fill:#f0f5f9;}.cls-3{fill:#dfe4e8;}.cls-4{fill:#b8c0c9;}.cls-5{fill:#02629e;}.cls-6{fill:#0270ab;}.cls-7{fill:#d0dae4;}.cls-8{fill:#00579c;}.cls-9{fill:#004679;}.cls-10{opacity:0.1;isolation:isolate;}.cls-11{fill:#6e331b;}.cls-12{fill:#18853c;}.cls-13{fill:#1c9a46;}.cls-14{fill:#04486b;}.cls-15{fill:#05568d;}.cls-16{fill:#0773a4;}</style></defs><g id="img"><g id="Group_704" data-name="Group 704"><g id="Group_684" data-name="Group 684"><g id="Group_666" data-name="Group 666"><path id="Rectangle_78" data-name="Rectangle 78" class="cls-1" d="M156.16,198.94h28.1V443.69h-28.1Z"/><g id="Group_665" data-name="Group 665"><path id="Rectangle_79" data-name="Rectangle 79" class="cls-2" d="M105,198.94h51.14V443.69H105Z"/><path id="Rectangle_80" data-name="Rectangle 80" class="cls-3" d="M105,193h51.14v6H105Z"/><path id="Rectangle_81" data-name="Rectangle 81" class="cls-4" d="M156.16,193h28.1v6h-28.1Z"/><g id="Group_664" data-name="Group 664"><g id="Group_657" data-name="Group 657"><g id="Group_656" data-name="Group 656"><path id="Rectangle_82" data-name="Rectangle 82" class="cls-5" d="M121.57,224h18.05v28H121.57Z"/><path id="Rectangle_83" data-name="Rectangle 83" class="cls-6" d="M121.57,224h4.84v28h-4.84Z"/></g><path id="Rectangle_84" data-name="Rectangle 84" class="cls-4" d="M121.57,252h18.05v4.34H121.57Z"/></g><g id="Group_659" data-name="Group 659"><g id="Group_658" data-name="Group 658"><path id="Rectangle_85" data-name="Rectangle 85" class="cls-5" d="M121.57,277.12h18.05v28H121.57Z"/><path id="Rectangle_86" data-name="Rectangle 86" class="cls-6" d="M121.57,277.12h4.84v28h-4.84Z"/></g><path id="Rectangle_87" data-name="Rectangle 87" class="cls-4" d="M121.57,305.13h18.05v4.34H121.57Z"/></g><g id="Group_661" data-name="Group 661"><g id="Group_660" data-name="Group 660"><path id="Rectangle_88" data-name="Rectangle 88" class="cls-5" d="M121.57,330.22h18.05v28H121.57Z"/><path id="Rectangle_89" data-name="Rectangle 89" class="cls-6" d="M121.57,330.22h4.84v28h-4.84Z"/></g><path id="Rectangle_90" data-name="Rectangle 90" class="cls-4" d="M121.57,358.23h18.05v4.34H121.57Z"/></g><g id="Group_663" data-name="Group 663"><g id="Group_662" data-name="Group 662"><path id="Rectangle_91" data-name="Rectangle 91" class="cls-5" d="M121.57,383.31h18.05v28H121.57Z"/><path id="Rectangle_92" data-name="Rectangle 92" class="cls-6" d="M121.57,383.31h4.84v28h-4.84Z"/></g><path id="Rectangle_93" data-name="Rectangle 93" class="cls-4" d="M121.57,411.33h18.05v4.34H121.57Z"/></g></g><path id="Rectangle_94" data-name="Rectangle 94" class="cls-7" d="M105,437.62h51.14v6.06H105Z"/></g></g><g id="Group_676" data-name="Group 676"><path id="Rectangle_95" data-name="Rectangle 95" class="cls-1" d="M260.12,198.94h28.1V443.69h-28.1Z"/><path id="Rectangle_96" data-name="Rectangle 96" class="cls-2" d="M209,198.94h51.13V443.69H209Z"/><path id="Rectangle_97" data-name="Rectangle 97" class="cls-3" d="M209,193h51.13v6H209Z"/><path id="Rectangle_98" data-name="Rectangle 98" class="cls-4" d="M260.12,193h28.1v6h-28.1Z"/><g id="Group_675" data-name="Group 675"><g id="Group_668" data-name="Group 668"><g id="Group_667" data-name="Group 667"><path id="Rectangle_99" data-name="Rectangle 99" class="cls-5" d="M225.53,224h18.05v28H225.53Z"/><path id="Rectangle_100" data-name="Rectangle 100" class="cls-6" d="M225.53,224h4.85v28h-4.85Z"/></g><path id="Rectangle_101" data-name="Rectangle 101" class="cls-4" d="M225.53,252h18.05v4.34H225.53Z"/></g><g id="Group_670" data-name="Group 670"><g id="Group_669" data-name="Group 669"><path id="Rectangle_102" data-name="Rectangle 102" class="cls-5" d="M225.53,277.12h18.05v28H225.53Z"/><path id="Rectangle_103" data-name="Rectangle 103" class="cls-6" d="M225.53,277.12h4.85v28h-4.85Z"/></g><path id="Rectangle_104" data-name="Rectangle 104" class="cls-4" d="M225.53,305.13h18.05v4.34H225.53Z"/></g><g id="Group_672" data-name="Group 672"><g id="Group_671" data-name="Group 671"><path id="Rectangle_105" data-name="Rectangle 105" class="cls-5" d="M225.53,330.22h18.05v28H225.53Z"/><path id="Rectangle_106" data-name="Rectangle 106" class="cls-6" d="M225.53,330.22h4.85v28h-4.85Z"/></g><path id="Rectangle_107" data-name="Rectangle 107" class="cls-4" d="M225.53,358.23h18.05v4.34H225.53Z"/></g><g id="Group_674" data-name="Group 674"><g id="Group_673" data-name="Group 673"><path id="Rectangle_108" data-name="Rectangle 108" class="cls-5" d="M225.53,383.31h18.05v28H225.53Z"/><path id="Rectangle_109" data-name="Rectangle 109" class="cls-6" d="M225.53,383.31h4.85v28h-4.85Z"/></g><path id="Rectangle_110" data-name="Rectangle 110" class="cls-4" d="M225.53,411.33h18.05v4.34H225.53Z"/></g></g><path id="Rectangle_111" data-name="Rectangle 111" class="cls-7" d="M209,437.62h51.13v6.06H209Z"/><path id="Rectangle_112" data-name="Rectangle 112" class="cls-4" d="M260.12,437.62h28.1v6.06h-28.1Z"/></g><g id="Group_683" data-name="Group 683"><path id="Rectangle_113" data-name="Rectangle 113" class="cls-5" d="M156.16,204.78H209v238.9H156.16Z"/><path id="Rectangle_114" data-name="Rectangle 114" class="cls-6" d="M156.16,204.78h14.05V444.11H156.16Z"/><path id="Rectangle_115" data-name="Rectangle 115" class="cls-6" d="M182.57,204.78h7V444.11h-7Z"/><path id="Rectangle_116" data-name="Rectangle 116" class="cls-8" d="M156.16,198.94H209v5.84H156.16Z"/><g id="Group_682" data-name="Group 682"><g id="Group_681" data-name="Group 681"><g id="Group_677" data-name="Group 677"><path id="Rectangle_117" data-name="Rectangle 117" class="cls-9" d="M156.16,238H209v3.2H156.16Z"/></g><g id="Group_678" data-name="Group 678"><path id="Rectangle_118" data-name="Rectangle 118" class="cls-9" d="M156.16,294.43H209v3.2H156.16Z"/></g><g id="Group_679" data-name="Group 679"><path id="Rectangle_119" data-name="Rectangle 119" class="cls-9" d="M156.16,350.83H209V354H156.16Z"/></g><g id="Group_680" data-name="Group 680"><path id="Rectangle_120" data-name="Rectangle 120" class="cls-9" d="M156.16,407.24H209v3.2H156.16Z"/></g></g></g><path id="Path_1212" data-name="Path 1212" class="cls-10" d="M209,338.78,156.12,391.7V372L209,319.06Z"/><path id="Path_1213" data-name="Path 1213" class="cls-10" d="M209,291.62l-52.87,52.92V204.78H209Z"/></g></g><g id="Group_685" data-name="Group 685"><path id="Rectangle_121" data-name="Rectangle 121" class="cls-11" d="M280.18,428.55h2.47v15.14h-2.47Z"/><path id="Path_1214" data-name="Path 1214" class="cls-12" d="M286,411.48c0,12.09-2.11,21.89-4.71,21.89s-4.71-9.8-4.71-21.89,2.11-21.89,4.71-21.89S286,399.39,286,411.48Z"/></g><g id="Group_686" data-name="Group 686"><path id="Rectangle_122" data-name="Rectangle 122" class="cls-11" d="M294.64,428.55h2.47v15.14h-2.47Z"/><path id="Path_1215" data-name="Path 1215" class="cls-12" d="M300.58,411.48c0,12.09-2.11,21.89-4.71,21.89s-4.7-9.8-4.7-21.89,2.1-21.89,4.7-21.89S300.58,399.39,300.58,411.48Z"/></g><g id="Group_687" data-name="Group 687"><path id="Rectangle_123" data-name="Rectangle 123" class="cls-11" d="M96.17,428.55h2.47v15.13H96.17Z"/><ellipse id="Ellipse_17" data-name="Ellipse 17" class="cls-12" cx="97.4" cy="411.48" rx="4.71" ry="21.89"/></g><g id="Group_703" data-name="Group 703"><path id="Path_1216" data-name="Path 1216" class="cls-13" d="M311,452H84.34a4.15,4.15,0,0,1-4.15-4.16h0a4.15,4.15,0,0,1,4.15-4.15H311a4.16,4.16,0,1,1,0,8.31Z"/><g id="Group_693" data-name="Group 693"><g id="Group_692" data-name="Group 692"><g id="Group_688" data-name="Group 688"><path id="Path_1217" data-name="Path 1217" class="cls-13" d="M276.6,436.13a7.56,7.56,0,0,0-7.56,7.56h15.12a7.55,7.55,0,0,0-7.56-7.56Z"/></g><g id="Group_689" data-name="Group 689"><path id="Path_1218" data-name="Path 1218" class="cls-13" d="M286.86,439.45a4.24,4.24,0,0,0-4.25,4.24h8.48A4.23,4.23,0,0,0,286.86,439.45Z"/></g><g id="Group_690" data-name="Group 690"><path id="Path_1219" data-name="Path 1219" class="cls-13" d="M295,441.57a2.12,2.12,0,0,0-2.12,2.12h4.25A2.12,2.12,0,0,0,295,441.57Z"/></g><g id="Group_691" data-name="Group 691"><path id="Path_1220" data-name="Path 1220" class="cls-13" d="M302.11,439.74a4,4,0,0,0-3.95,3.95h7.89a3.94,3.94,0,0,0-3.94-3.95Z"/></g></g></g><g id="Group_698" data-name="Group 698"><g id="Group_697" data-name="Group 697"><g id="Group_694" data-name="Group 694"><path id="Path_1221" data-name="Path 1221" class="cls-13" d="M101.94,438.66a4.81,4.81,0,0,0-4.54,5h9.09A4.81,4.81,0,0,0,101.94,438.66Z"/></g><g id="Group_695" data-name="Group 695"><path id="Path_1222" data-name="Path 1222" class="cls-13" d="M107.51,440.68a3,3,0,0,0-3,3h6a3,3,0,0,0-3-3Z"/></g><g id="Group_696" data-name="Group 696"><path id="Path_1223" data-name="Path 1223" class="cls-13" d="M113.72,438.09c-2.14,0-3.88,2.51-3.88,5.6h7.77C117.61,440.6,115.87,438.09,113.72,438.09Z"/></g></g></g><g id="Group_702" data-name="Group 702"><g id="Group_701" data-name="Group 701"><g id="Group_699" data-name="Group 699"><path id="Path_1224" data-name="Path 1224" class="cls-13" d="M204,437.53a6.27,6.27,0,0,0-6.27,6.26H210.2A6.25,6.25,0,0,0,204,437.53Z"/></g><g id="Group_700" data-name="Group 700"><path id="Path_1225" data-name="Path 1225" class="cls-13" d="M212.62,440.65a3.13,3.13,0,0,0-3.13,3.13h6.26a3.14,3.14,0,0,0-3.13-3.13Z"/></g></g></g></g></g><g id="Group_655" data-name="Group 655"><path id="Path_1196" data-name="Path 1196" class="cls-12" d="M590.66,440.07H224c0-113.14,35.81-89.41,36.63-47.95,1.48-12.38,8.18-16,12.26-14.81,2.73.8,4.9,10.15,4.36,25,3.54-13.7,13.17-33.45,23.29-35.48,26.82-5.39,36.63,25.73,37.7,47.75a10,10,0,0,1,7.24-3.52,9.87,9.87,0,0,1,7,3.29c2.33-12.91,9.56-22.32,18.11-22.32,9.61,0,17.53,11.86,18.75,27.2,2.56-4.08,6.54-6.72,11-6.72,6.37,0,11.74,5.33,13.41,12.6a18.08,18.08,0,0,1,8-1.75,20.56,20.56,0,0,1,3.32.27,28.49,28.49,0,0,1-.64-6c0-9.61,4.71-17.39,10.51-17.39,4.57,0,8.46,4.83,9.91,11.58,1-3,2.53-4.86,4.24-4.86,2.28,0,4.24,3.39,5.08,8.21a6.94,6.94,0,0,1,4.52-1.79c5.51,0,10,7.39,10,16.5,0,0,0,.08,0,.12,5.17-7.55,12.94-12.37,21.62-12.37A24,24,0,0,1,503,421.46c-.78-8.91,1-17.15,4.92-20.95s9.11-2.18,13.36,3.35c5.58-20.39,18-34.57,32.37-34.57,10.27,0,37,16.52,37,70.78Z"/><g id="Group_634" data-name="Group 634"><g id="Group_623" data-name="Group 623"><path id="Rectangle_30" data-name="Rectangle 30" class="cls-1" d="M495.39,98.52h63.47V440.38H495.39Z"/><path id="Path_1197" data-name="Path 1197" class="cls-2" d="M495.39,98.52H255.77V199.63h16.06V440.38H495.39Z"/><path id="Rectangle_31" data-name="Rectangle 31" class="cls-3" d="M255.77,98.52H495.39v11.73H255.77Z"/><path id="Rectangle_32" data-name="Rectangle 32" class="cls-4" d="M495.39,98.52h63.47v11.73H495.39Z"/><path id="Rectangle_33" data-name="Rectangle 33" class="cls-7" d="M383.61,431.6H495.39v8.78H383.61Z"/><path id="Rectangle_34" data-name="Rectangle 34" class="cls-4" d="M495.39,431.6h63.47v8.78H495.39Z"/></g><g id="Group_624" data-name="Group 624"><path id="Rectangle_35" data-name="Rectangle 35" class="cls-5" d="M271.83,199.63H383.61V440.38H271.83Z"/><path id="Rectangle_36" data-name="Rectangle 36" class="cls-6" d="M271.83,199.63h28.68V440.38H271.83Z"/><path id="Rectangle_37" data-name="Rectangle 37" class="cls-6" d="M324.07,199.63h16V440.38h-16Z"/><path id="Rectangle_38" data-name="Rectangle 38" class="cls-9" d="M271.83,199.63H383.61v7H271.83Z"/><path id="Path_1198" data-name="Path 1198" class="cls-10" d="M383.61,260.76,271.83,374.26V322.13L383.61,208.64Z"/><path id="Path_1199" data-name="Path 1199" class="cls-10" d="M383.61,326.56,271.83,440.06V412.55l111.78-113.5Z"/><path id="Rectangle_39" data-name="Rectangle 39" class="cls-7" d="M265.41,269.08h118.2v12.84H265.41Z"/><path id="Rectangle_40" data-name="Rectangle 40" class="cls-7" d="M265.41,356.82h118.2v12.84H265.41Z"/></g><g id="Group_629" data-name="Group 629"><g id="Group_626" data-name="Group 626"><path id="Rectangle_41" data-name="Rectangle 41" class="cls-14" d="M505.21,132.65h15.56V405.51H505.21Z"/><g id="Group_625" data-name="Group 625"><path id="Rectangle_42" data-name="Rectangle 42" class="cls-15" d="M505.21,153.35h15.56v5.88H505.21Z"/><path id="Rectangle_43" data-name="Rectangle 43" class="cls-15" d="M505.21,209.93h15.56v5.88H505.21Z"/><path id="Rectangle_44" data-name="Rectangle 44" class="cls-15" d="M505.21,266.51h15.56v5.88H505.21Z"/><path id="Rectangle_45" data-name="Rectangle 45" class="cls-15" d="M505.21,323.08h15.56V329H505.21Z"/><path id="Rectangle_46" data-name="Rectangle 46" class="cls-15" d="M505.21,379.66h15.56v5.89H505.21Z"/></g></g><g id="Group_628" data-name="Group 628"><path id="Rectangle_47" data-name="Rectangle 47" class="cls-14" d="M533.48,132.65H549V405.51H533.48Z"/><g id="Group_627" data-name="Group 627"><path id="Rectangle_48" data-name="Rectangle 48" class="cls-15" d="M533.48,153.35H549v5.88H533.48Z"/><path id="Rectangle_49" data-name="Rectangle 49" class="cls-15" d="M533.48,209.93H549v5.88H533.48Z"/><path id="Rectangle_50" data-name="Rectangle 50" class="cls-15" d="M533.48,266.51H549v5.88H533.48Z"/><path id="Rectangle_51" data-name="Rectangle 51" class="cls-15" d="M533.48,323.08H549V329H533.48Z"/><path id="Rectangle_52" data-name="Rectangle 52" class="cls-15" d="M533.48,379.66H549v5.89H533.48Z"/></g></g></g><g id="Group_630" data-name="Group 630"><path id="Rectangle_53" data-name="Rectangle 53" class="cls-2" d="M383.61,60.83h71.25V98.52H383.61Z"/><path id="Rectangle_54" data-name="Rectangle 54" class="cls-1" d="M454.86,60.83h30.5V98.52h-30.5Z"/><path id="Rectangle_55" data-name="Rectangle 55" class="cls-3" d="M377.19,52h77.67v8.83H377.19Z"/><path id="Rectangle_56" data-name="Rectangle 56" class="cls-4" d="M454.86,52h36.92v8.83H454.86Z"/><path id="Rectangle_57" data-name="Rectangle 57" class="cls-9" d="M395.21,73.94h15V98.52h-15Z"/></g><g id="Group_633" data-name="Group 633"><g id="Group_631" data-name="Group 631"><path id="Rectangle_58" data-name="Rectangle 58" class="cls-16" d="M395.21,206.62h33.94v8.72H395.21Z"/><path id="Rectangle_59" data-name="Rectangle 59" class="cls-16" d="M395.21,229.54h33.94v8.73H395.21Z"/><path id="Rectangle_60" data-name="Rectangle 60" class="cls-16" d="M395.21,252.46h33.94v8.73H395.21Z"/><path id="Rectangle_61" data-name="Rectangle 61" class="cls-16" d="M395.21,275.39h33.94v8.72H395.21Z"/><path id="Rectangle_62" data-name="Rectangle 62" class="cls-16" d="M395.21,298.31h33.94V307H395.21Z"/><path id="Rectangle_63" data-name="Rectangle 63" class="cls-16" d="M395.21,321.23h33.94V330H395.21Z"/><path id="Rectangle_64" data-name="Rectangle 64" class="cls-16" d="M395.21,344.15h33.94v8.72H395.21Z"/><path id="Rectangle_65" data-name="Rectangle 65" class="cls-16" d="M395.21,367.07h33.94v8.72H395.21Z"/><path id="Rectangle_66" data-name="Rectangle 66" class="cls-16" d="M395.21,390h33.94v8.72H395.21Z"/><path id="Rectangle_67" data-name="Rectangle 67" class="cls-16" d="M395.21,412.91h33.94v8.73H395.21Z"/></g><g id="Group_632" data-name="Group 632"><path id="Rectangle_68" data-name="Rectangle 68" class="cls-16" d="M443.3,206.62h33.94v8.72H443.3Z"/><path id="Rectangle_69" data-name="Rectangle 69" class="cls-16" d="M443.3,229.54h33.94v8.73H443.3Z"/><path id="Rectangle_70" data-name="Rectangle 70" class="cls-16" d="M443.3,252.46h33.94v8.73H443.3Z"/><path id="Rectangle_71" data-name="Rectangle 71" class="cls-16" d="M443.3,275.39h33.94v8.72H443.3Z"/><path id="Rectangle_72" data-name="Rectangle 72" class="cls-16" d="M443.3,298.31h33.94V307H443.3Z"/><path id="Rectangle_73" data-name="Rectangle 73" class="cls-16" d="M443.3,321.23h33.94V330H443.3Z"/><path id="Rectangle_74" data-name="Rectangle 74" class="cls-16" d="M443.3,344.15h33.94v8.72H443.3Z"/><path id="Rectangle_75" data-name="Rectangle 75" class="cls-16" d="M443.3,367.07h33.94v8.72H443.3Z"/><path id="Rectangle_76" data-name="Rectangle 76" class="cls-16" d="M443.3,390h33.94v8.72H443.3Z"/><path id="Rectangle_77" data-name="Rectangle 77" class="cls-16" d="M443.3,412.91h33.94v8.73H443.3Z"/></g></g></g><g id="Group_654" data-name="Group 654"><path id="Path_1200" data-name="Path 1200" class="cls-13" d="M599,451.66H215.61a5.8,5.8,0,0,1-5.8-5.8h0a5.8,5.8,0,0,1,5.8-5.8H599a5.8,5.8,0,0,1,0,11.6Z"/><g id="Group_640" data-name="Group 640"><g id="Group_639" data-name="Group 639"><g id="Group_635" data-name="Group 635"><path id="Path_1201" data-name="Path 1201" class="cls-13" d="M518.7,429.51a10.56,10.56,0,0,0-10.56,10.55h21.1A10.54,10.54,0,0,0,518.7,429.51Z"/></g><g id="Group_636" data-name="Group 636"><path id="Path_1202" data-name="Path 1202" class="cls-13" d="M533,434.14a5.92,5.92,0,0,0-5.92,5.92h11.84a5.92,5.92,0,0,0-5.92-5.92Z"/></g><g id="Group_637" data-name="Group 637"><path id="Path_1203" data-name="Path 1203" class="cls-13" d="M544.34,437.1a3,3,0,0,0-3,3h5.92a3,3,0,0,0-3-3Z"/></g><g id="Group_638" data-name="Group 638"><path id="Path_1204" data-name="Path 1204" class="cls-13" d="M554.28,434.55a5.51,5.51,0,0,0-5.51,5.51h11a5.51,5.51,0,0,0-5.51-5.51Z"/></g></g></g><g id="Group_645" data-name="Group 645"><g id="Group_644" data-name="Group 644"><g id="Group_641" data-name="Group 641"><path id="Path_1205" data-name="Path 1205" class="cls-13" d="M249.65,433.64c-3.5,0-6.33,3.14-6.33,7H256C256,436.78,253.15,433.64,249.65,433.64Z"/></g><g id="Group_642" data-name="Group 642"><path id="Path_1206" data-name="Path 1206" class="cls-13" d="M257.42,436.46a4.19,4.19,0,0,0-4.19,4.19h8.38A4.2,4.2,0,0,0,257.42,436.46Z"/></g><g id="Group_643" data-name="Group 643"><path id="Path_1207" data-name="Path 1207" class="cls-13" d="M266.09,432.85c-3,0-5.42,3.49-5.42,7.8h10.85C271.52,436.34,269.09,432.85,266.09,432.85Z"/></g></g></g><g id="Group_649" data-name="Group 649"><g id="Group_648" data-name="Group 648"><g id="Group_646" data-name="Group 646"><path id="Path_1208" data-name="Path 1208" class="cls-13" d="M318.12,429.51a10.56,10.56,0,0,1,10.56,10.56H307.56A10.56,10.56,0,0,1,318.12,429.51Z"/></g><g id="Group_647" data-name="Group 647"><path id="Path_1209" data-name="Path 1209" class="cls-13" d="M303.49,434.79a5.29,5.29,0,0,1,5.28,5.28H298.2A5.28,5.28,0,0,1,303.49,434.79Z"/></g></g></g><g id="Group_653" data-name="Group 653"><g id="Group_652" data-name="Group 652"><g id="Group_650" data-name="Group 650"><path id="Path_1210" data-name="Path 1210" class="cls-13" d="M462.29,431.34a8.73,8.73,0,0,0-8.73,8.73H471a8.73,8.73,0,0,0-8.73-8.73Z"/></g><g id="Group_651" data-name="Group 651"><path id="Path_1211" data-name="Path 1211" class="cls-13" d="M474.39,435.71a4.37,4.37,0,0,0-4.37,4.36h8.73A4.36,4.36,0,0,0,474.39,435.71Z"/></g></g></g></g></g></g></svg>