<svg id="圖層_1" data-name="圖層 1" xmlns="http://www.w3.org/2000/svg" viewBox="0 0 685 452"><defs><style>.cls-1{fill:#db9c89;}.cls-10,.cls-17,.cls-2,.cls-7{fill:#a34b5f;}.cls-15,.cls-2{opacity:0.5;}.cls-10,.cls-13,.cls-15,.cls-2,.cls-6,.cls-7{isolation:isolate;}.cls-3{fill:#4a53a5;}.cls-4{fill:#787fff;}.cls-13,.cls-5,.cls-6{fill:#62344a;}.cls-6{opacity:0.2;}.cls-13,.cls-7{opacity:0.3;}.cls-15,.cls-8{fill:#ffc442;}.cls-9{fill:#2d2433;}.cls-10{opacity:0.4;}.cls-11{fill:#fff;}.cls-12{fill:#f4c8b5;}.cls-14{fill:#ff5a4d;}.cls-16{fill:#dd6b7d;}</style></defs><g id="img"><path id="Path_1462" data-name="Path 1462" class="cls-1" d="M422.65,87.63c0-6.89-2.36-15.58-4.46-20.7-2.23-5.43-1.22-6.5,2.11-2.58,2.88,3.5,4.38,7.28,5.12,7.18.35,0-.72-3.1-2.76-7.35s-3.76-7.43-2.27-8.19c1.72-.84,9,10.31,9.78,13.72,1.31,3.29-2-9.88-4.51-14-2.42-4.73.32-5.27,4.36.65s5.23,11.76,6.29,13.27c.28-1.39.47-3.24-1.42-10.1-1.62-5,.93-4.89,3.66.08,3.32,6,3.17,15.59,4.94,16.37,1.53-.14,1.57-2.64,4.5-7.09s2.72,2.58.92,8.13c-1.73,5.72-2.74,10.27-4,15.48-2.76,11.7-6,12.94-11.08,12.93-5.46,0-11.35-3.85-11.21-17.75Z"/><path id="Path_1463" data-name="Path 1463" class="cls-2" d="M437.8,79.94a1.24,1.24,0,0,0-.45.37,4.69,4.69,0,0,0-.46.54,13.25,13.25,0,0,0-.62,1.18c-.39.8-.72,1.63-1,2.46s-.58,1.65-.8,2.5a10,10,0,0,0-.49,2.66.53.53,0,0,0,.51.54.52.52,0,0,0,.51-.35,20.14,20.14,0,0,0,.76-2.43c.26-.84.52-1.67.83-2.48s.64-1.58,1-2.36c.18-.39.35-.77.51-1.16.08-.21.09-.41.16-.61a1.31,1.31,0,0,0,.06-.62.33.33,0,0,0-.4-.26l-.08,0Z"/><path id="Path_1464" data-name="Path 1464" class="cls-1" d="M523.26,150.38c6.15,8.77-.62,27.87-17.91,35.13-13.75,5.78-70.46,23-86.37,8.12-11.18-10.44,2.72-87,5.32-98.67,4.08,1.35,14.16-.18,19.22-.28-1.72,5.82-2.66,71.33,2.2,71.9,5.89.69,34.77-11.46,52.22-19.94C513.41,139.11,519.38,144.84,523.26,150.38Z"/><path id="Path_1465" data-name="Path 1465" class="cls-3" d="M527.86,150.57c-2.87-8.48-24.81-12.11-66.68,10,0,0,2.23,13.14,7.29,23.89s8.68,14.36,8.68,14.36,59.22-23.08,50.71-48.2Z"/><path id="Path_1466" data-name="Path 1466" class="cls-4" d="M465.46,163.35c-.36-1.86-.8-4.4-2-4.7-1.47-.39-4.55,1.24-5,1.87-.85,1.14-.38,6,.63,10s6.4,18.7,13,27.78c.34.47,5.35-.68,5.73-1.12,1.05-1.19.49-1.52-.23-2.93-1.69-3.33-3.73-6.46-5.31-9.86a93,93,0,0,1-6.84-21Z"/><path id="Path_1467" data-name="Path 1467" class="cls-5" d="M505.34,343.32c-.46,2.3-13.06,83.23-2.07,153.7-2.54,0-5.08.08-7.62.14-10.06.23-20.12.6-30.18.92l-4.91.15c-1.41-13.62-4.32-45-4.66-74.56-.44-39.2,8.37-130,11.63-138.42l96.56,7.9c-.46,1.4-3.72,161.34,33.41,205.84H546.82c-20.34-43.13-30.63-144.36-32.49-153.66S505.8,341,505.34,343.32Z"/><path id="Path_1468" data-name="Path 1468" class="cls-5" d="M510,312.28c.1-2.45.25-4.9.5-7.35a65.54,65.54,0,0,1,1-7.12.38.38,0,0,1,.46-.26.38.38,0,0,1,.26.26.38.38,0,0,0,0,.1c.06.32.1.64.13,1a.14.14,0,0,1-.24.1c-.2,2-.5,4.07-.69,6.1-.22,2.4-.41,4.81-.52,7.21s-.15,4.73-.15,7.09.17,4.91.1,7.36c0,.27-.45.36-.5.07a55.12,55.12,0,0,1-.44-7.15c-.05-2.46,0-4.91.09-7.37Z"/><path id="Path_1469" data-name="Path 1469" class="cls-5" d="M504.8,311.69a57.27,57.27,0,0,1,1-7.25c.26-1.22.56-2.43.89-3.63a7.93,7.93,0,0,1,1.24-3.07c.11-.14.32,0,.33.13a11.51,11.51,0,0,1-.8,3.43c-.3,1.12-.57,2.24-.81,3.38a57.26,57.26,0,0,0-1,7.15,59.55,59.55,0,0,0-.12,7.07c0,1.15.12,2.31.24,3.46a24.14,24.14,0,0,1,.35,3.7c0,.17-.29.29-.38.1a12.2,12.2,0,0,1-.67-3.27c-.16-1.24-.29-2.48-.36-3.73a53.23,53.23,0,0,1,.08-7.47Z"/><path id="Path_1470" data-name="Path 1470" class="cls-5" d="M547.65,298.09c.07-.35.55-.28.65,0a17.17,17.17,0,0,1,.51,3.63c.16,1.23.35,2.46.57,3.68.44,2.43,1,4.83,1.66,7.21a34.87,34.87,0,0,0,2.32,6.74c1,1.86,3.17,3.81,5.37,2.63a.29.29,0,0,1,.38.12.28.28,0,0,1-.1.36,4.35,4.35,0,0,1-5.4-1.26c-1.57-1.87-2.25-4.5-3-6.78a75.26,75.26,0,0,1-2-8.25c-.25-1.34-.47-2.7-.65-4.06A13.58,13.58,0,0,1,547.65,298.09Z"/><path id="Path_1471" data-name="Path 1471" class="cls-5" d="M466.35,314c.11.93,1.41.71,1.86.25a5.27,5.27,0,0,0,1-2.33l1.83-6.24c1.22-4.16,2.43-8.31,3.76-12.44a.29.29,0,1,1,.55.15c-1.37,5.21-2.9,10.39-4.4,15.56-.37,1.27-.72,2.54-1.11,3.81a4.47,4.47,0,0,1-1.28,2.3c-1,.83-3,.49-3-1.06a.4.4,0,0,1,.79,0Z"/><path id="Path_1472" data-name="Path 1472" class="cls-5" d="M495.3,336.76a49.43,49.43,0,0,1,8.94,0,72.11,72.11,0,0,1,8.67,1.11c.31.06.24.59-.07.55-2.91-.35-5.82-.66-8.74-.84s-5.87-.23-8.8-.43a.18.18,0,0,1,0-.36Z"/><path id="Path_1473" data-name="Path 1473" class="cls-3" d="M463,291.86c.79,2.8,23.55,13.58,50.7,17.17s59.09-2.79,57.89-9.58-9.56-78.51,2-115.25,5-40.56-.57-45.73c-4-3.72-14.37-4.31-26.2-3.24a205.16,205.16,0,0,0-34.13,6.34,72.61,72.61,0,0,0-13.77,5c-11.58,6.38-24.53,21.46-28.59,54-3.56,28.57-8.15,88.49-7.35,91.28Z"/><path id="Path_1474" data-name="Path 1474" class="cls-6" d="M482.09,165.94a12.51,12.51,0,0,0-2.23,2.74c-.65,1-1.26,1.94-1.83,2.95a49.71,49.71,0,0,0-3,6.48c-.45,1.17-.86,2.35-1.23,3.55-.12.39-.92,3.82-.66,3.83s.81-2.71,1.13-3.56c.45-1.16.91-2.44,1.36-3.6a47.42,47.42,0,0,1,3.14-6.3c.57-1,1.17-2,1.79-3a22.85,22.85,0,0,0,1.84-2.93.17.17,0,0,0-.08-.22.15.15,0,0,0-.18,0Z"/><path id="Path_1475" data-name="Path 1475" class="cls-4" d="M523.21,174.59c10.36,1.61,19.48-.61,19.61,0a32.86,32.86,0,0,1,.31,9.34,26.39,26.39,0,0,1-2.38,9.55,11.58,11.58,0,0,1-3.6,4.54,9.79,9.79,0,0,1-4.7,1.63A8.46,8.46,0,0,1,528,199a8.73,8.73,0,0,1-4-4.56c-1.52-3.55-1.52-7.58-1.49-11.38a43,43,0,0,1,.38-7.61c0-.13.11-.88.35-.84Z"/><path id="Path_1476" data-name="Path 1476" class="cls-1" d="M606.14,237.18c-1.74,13.5-26.15,20.69-51.74,34.64l7.22,22S639,274.37,636.37,236c-1.32-19.45-45.59-83.74-51.55-82.15-2.7.73-19.4,16.81-22.12,20.63-3.83,5.35,45.18,49.2,43.44,62.69Z"/><path id="Path_1477" data-name="Path 1477" class="cls-3" d="M551.45,137.94c-7.51,4.88-8.14,30.65,24,61.39a262,262,0,0,1,19.43-19.58c11-9.9,9.32-12.52,9.32-12.52s-30.48-43.71-52.73-29.29Z"/><path id="Path_1478" data-name="Path 1478" class="cls-6" d="M570.6,193.8a62.09,62.09,0,0,1-8.61-9.07,51.27,51.27,0,0,1-3.39-5.1c-1.05-1.79-1.91-3.72-3-5.45a.2.2,0,0,0-.27-.06.19.19,0,0,0-.08.2,22.65,22.65,0,0,0,2.66,5.73c.81,1.39,1.71,2.71,2.64,4-.83-.31-1.66-.6-2.5-.89l-1.89-.63a5.59,5.59,0,0,0-1.93-.44c-.17,0-.3.23-.15.35a5.23,5.23,0,0,0,1.73.79c.62.22,1.26.43,1.89.63,1.15.38,2.31.77,3.48,1.07l.28.39a47.21,47.21,0,0,0,8.77,9c.3.23.69-.28.41-.52Z"/><path id="Path_1479" data-name="Path 1479" class="cls-1" d="M554.4,300s6.28,5.79,13.35,2.84-1-3.95-1-3.95,5.76-1.55,5.4-3.64-6.72-1.45-6.72-1.45Z"/><path id="Path_1480" data-name="Path 1480" class="cls-1" d="M561.34,268.66s-15.05,4.25-17.13,9.91,7.63,21.06,10.87,22,17.89-10.48,18.79-11.87-7.82-22-12.53-20Z"/><path id="Path_1481" data-name="Path 1481" class="cls-7" d="M559.64,298.68l1.1-.48a19.9,19.9,0,0,0,6-4.28c.29-.3.72.19.43.49a20.29,20.29,0,0,1-3.9,3.19,20,20,0,0,1-2.18,1.19c-.38.18-.78.34-1.18.49a2.84,2.84,0,0,1-1.15.26.21.21,0,0,1-.19-.22.2.2,0,0,1,.06-.13A3.16,3.16,0,0,1,559.64,298.68Z"/><path id="Path_1482" data-name="Path 1482" class="cls-4" d="M599.26,166.31c1.26-1.82,2.06-3.81,4.23-3.83,1,0,5.07,3.28,4.58,5.09a21.39,21.39,0,0,1-3.65,7,87.24,87.24,0,0,1-28,25.83c-1.75,1-6-3.09-6.16-3.75-.53-1.75.22-1.84,1.63-3,3.35-2.78,7-5.16,10.24-8.07a110.91,110.91,0,0,0,17.13-19.27Z"/><rect id="Rectangle_149" data-name="Rectangle 149" class="cls-5" x="567.15" y="262.91" width="9.16" height="28.44" rx="1.37" transform="translate(-63.39 294.21) rotate(-27.4)"/><path id="Path_1483" data-name="Path 1483" class="cls-8" d="M568,270a8.06,8.06,0,1,0,10.86,3.45A8.07,8.07,0,0,0,568,270Z"/><path id="Path_1484" data-name="Path 1484" class="cls-8" d="M569.54,272.91a4.74,4.74,0,1,0,6.4,2,4.75,4.75,0,0,0-6.4-2Z"/><path id="Path_1485" data-name="Path 1485" class="cls-9" d="M472.17,54.15c.2-8.24,3.24-16.17,7.06-23.48A12,12,0,0,1,481.8,27,4.45,4.45,0,0,1,486,25.93a5.17,5.17,0,0,1,2.91,3.47c1,3.15.58,6.56.12,9.84l-3.63,25.82a25.74,25.74,0,0,1-2.23,8.54c-2,3.71-4,.72-5.77-1.72A29,29,0,0,1,472.17,54.15Z"/><path id="Path_1486" data-name="Path 1486" class="cls-1" d="M517.78,143.28s-6.3,7.83-.89,8,20.77-11.89,20.77-11.89l-4.08-21.07-19.88,3.9Z"/><path id="Path_1487" data-name="Path 1487" class="cls-10" d="M529.11,129.52c2-.87,3.92-1.8,5.89-2.7l.21-.1-1.64-8.41-19.87,3.9,2.13,11a43.26,43.26,0,0,0,13.28-3.68Z"/><path id="Path_1488" data-name="Path 1488" class="cls-1" d="M550.6,107.87c-6.05,23.56-50.78,25.83-68.51,13.95-15-10.07-7.75-81.37-.53-86.91,16-12.29,33.79-18.93,51.36-13.21C567,33,563.57,77.54,550.6,107.87Z"/><path id="Path_1489" data-name="Path 1489" class="cls-9" d="M465.35,35.42A15.35,15.35,0,0,1,473.23,25a14.35,14.35,0,0,1,2.64-1,15.25,15.25,0,0,1,5.68-10.23c5.59-4.31,13.42-4.25,20.41-3,6.11,1,12.54,2.38,18.79,2.31a144.74,144.74,0,0,1,21.81,1.59c5.27.91,10.72,1.95,15,5.15,5.53,4.15,8,11.09,10.08,17.62,1.94,6,3.89,12,4.19,18.26s-1.27,12.85-5.56,17.46c-2,2.13-12.4,5.09-14.32,7.29a12.64,12.64,0,0,0-3.08,5.75,3.43,3.43,0,0,1-3.22,2.78,3.48,3.48,0,0,1-3.7-3.25.49.49,0,0,1,0-.12,137.76,137.76,0,0,0,1.86-14.88c.23-5.81,2.15-10.11-.85-12.17-2.52-1.72-3.13-.61-5.35-2.69s-1.94-5.43-2.42-8.35c-2.22-13.57-26.5-11.1-32.47-9.15C497.62,40,492.16,41.37,487,40a14.32,14.32,0,0,1-2-.69,15.51,15.51,0,0,1-8,6.51c-2.9,1-6.35,1-8.81-.81-2.81-2.11-3.55-6.15-2.84-9.61Z"/><path id="Path_1490" data-name="Path 1490" class="cls-1" d="M549.94,93.87c1.53,4.38,8.77,5.95,14.62,2s10.1-15.85,5.76-22.32S555.65,70,551.71,77.69c-3,5.81-3,12.77-1.77,16.18Z"/><path id="Path_1491" data-name="Path 1491" class="cls-2" d="M566.29,77.91a.44.44,0,0,0,0-.61.52.52,0,0,0-.19-.11c-1.39-.34-2.93.52-4.08,1.21a14,14,0,0,0-3.42,2.82,12.33,12.33,0,0,0-3.19,8.19c0,.56.89.72,1,.13a15.43,15.43,0,0,1,3.4-7.25c.25-.28.53-.52.8-.77.11.13.24.26.35.38s.41.45.6.68a13.06,13.06,0,0,1,1.07,1.49c.65,1.06,1.05,2.25,1.78,3.26.14.19.52.21.57-.07a5.88,5.88,0,0,0-1.13-3.89,12.79,12.79,0,0,0-1.27-1.66,7.82,7.82,0,0,0-.71-.7,4.39,4.39,0,0,0-.36-.28,13.7,13.7,0,0,1,1.32-.94c1.1-.65,2.52-1,3.45-1.88Z"/><path id="Path_1492" data-name="Path 1492" class="cls-9" d="M479.44,60.16a9.14,9.14,0,0,1,3.08-2.09,7,7,0,0,1,3.4-.53,4.76,4.76,0,0,1,3.57,1.79,2,2,0,0,1,.21,1.83,1.49,1.49,0,0,1-1.18,1,3.49,3.49,0,0,1-1.24-.11L487,62a6,6,0,0,0-1.12-.09,5.53,5.53,0,0,0-2.22.5,6.38,6.38,0,0,0-2,1.4c-.18.19-.35.39-.51.59A4,4,0,0,1,479,66.08l-.23,0a1.24,1.24,0,0,1-.78-.3,2,2,0,0,1-.61-1.31c-.15-2.07,1.51-3.77,2.06-4.33Z"/><path id="Path_1493" data-name="Path 1493" class="cls-9" d="M514.78,56.47a10,10,0,0,1,4.37.47,12,12,0,0,1,4,2.25c.72.61,2.9,2.48,2.76,4.82a2.13,2.13,0,0,1-.74,1.5,1.71,1.71,0,0,1-1.29.36A5.1,5.1,0,0,1,521.07,64c-.23-.23-.45-.47-.67-.65a8.53,8.53,0,0,0-2.57-1.51A7.78,7.78,0,0,0,515,61.4a8.33,8.33,0,0,0-1.42.14l-.39.08a5.35,5.35,0,0,1-1.59.17A1.85,1.85,0,0,1,510,60.7a2,2,0,0,1,.21-2.07c1.3-1.75,3.57-2,4.53-2.16Z"/><path id="Path_1494" data-name="Path 1494" class="cls-9" d="M513,76.75a4.17,4.17,0,0,1,3.66-.94,8.23,8.23,0,0,1,3.55,2.07,6.25,6.25,0,0,1,2.21,3.22c.14.57-.68,1-1,.41a8.53,8.53,0,0,0-2.11-2.33,8.29,8.29,0,0,0-2.6-1.66,2.67,2.67,0,0,0-2.53.36,2.82,2.82,0,0,0-.76.92,5.87,5.87,0,0,0-.37,1.32.78.78,0,0,1-1,.51.77.77,0,0,1-.51-.51A3.71,3.71,0,0,1,513,76.75Z"/><path id="Path_1495" data-name="Path 1495" class="cls-9" d="M478.85,79.41a3,3,0,0,1,2.46-1.86A5,5,0,0,1,484.56,79a7.19,7.19,0,0,1,1.16,1.24,3.69,3.69,0,0,1,.78,1.57.37.37,0,0,1-.28.45.36.36,0,0,1-.34-.09,11.75,11.75,0,0,1-.93-1.06,11.89,11.89,0,0,0-.95-.93,7.44,7.44,0,0,0-1.13-.8,3.14,3.14,0,0,0-1.28-.53A1.68,1.68,0,0,0,480,80.07a4.68,4.68,0,0,0-.25,1.44,1.89,1.89,0,0,1-.43,1.41.24.24,0,0,1-.29,0,1.23,1.23,0,0,1-.49-.67,3.22,3.22,0,0,1-.1-1,4.75,4.75,0,0,1,.38-1.85Z"/><path id="Path_1496" data-name="Path 1496" class="cls-2" d="M486.79,89.2a58.89,58.89,0,0,1,3.81-13.6,32.72,32.72,0,0,1,3.66-7,.32.32,0,0,1,.42-.11.31.31,0,0,1,.11.42c-1.08,2.51-2.36,4.93-3.38,7.46a60.37,60.37,0,0,0-2.56,7.77c-.33,1.3-.62,2.61-.86,3.92-.13.68-.26,1.36-.36,2a1.78,1.78,0,0,0,.4,1.81c.84.67,2.11.31,3,0a6,6,0,0,1,3.49-.51c.27.07.22.55-.07.51-2.05-.27-3.72,1.53-5.81,1.2A2.41,2.41,0,0,1,486.9,92a4.33,4.33,0,0,1-.11-2.82Z"/><path id="Path_1497" data-name="Path 1497" class="cls-11" d="M500.17,95.83c5.12-1.07,9.7-3.39,11.34-1.86s-1.41,7.59-9.41,9S491.17,99.73,492,98,495,96.91,500.17,95.83Z"/><path id="Path_1498" data-name="Path 1498" class="cls-3" d="M518.85,151.87s1.76-12.67,3.84-13.38,5.39,11.36,5.39,11.36A22.59,22.59,0,0,1,518.85,151.87Z"/><path id="Path_1499" data-name="Path 1499" class="cls-4" d="M518,153.83s1.36-14,4.54-17.21,14.27-11.84,18.93-9.28,5.37,6.84,7,10.56S529,151.73,527.65,151.38s-3.07-12.78-4.66-12S520.5,153.6,518,153.83Z"/><path id="Path_1500" data-name="Path 1500" class="cls-3" d="M517.1,152.19s.42-14-2.46-14.3-7.31,11.3-7.31,11.3a74,74,0,0,0,9.77,3Z"/><path id="Path_1501" data-name="Path 1501" class="cls-4" d="M508.4,150.64a4.2,4.2,0,0,1-2.29-1,8.44,8.44,0,0,1-1.79-2.2,4.34,4.34,0,0,1-.76-2,7.91,7.91,0,0,1,1.2-3.35,28.76,28.76,0,0,1,1.91-3.38c1.2-1.85,4.27-6.58,7.44-6.36s3.62,5.94,3.78,7.75.28,5.33.34,7.88c0,.36.18,5.86,0,5.88-1.79.24-1.34-14.53-3.72-15.23-1.48-.43-3.82,9.19-5.31,12A3.31,3.31,0,0,1,508.4,150.64Z"/><path id="Path_1502" data-name="Path 1502" class="cls-5" d="M277.68,37.74c-7.57,3.1-31.25,26.55-33.61,73.11s5.28,43.88,3,62.22-22.3,30.64-23.31,42.92c-1.39,17,21.92,22.56,29.19,7.31-1.6,9.65-1.29,21.08,11.79,23.17s18.31-19.09,18.31-19.09,0,20.14,12.55,21.71,20.15-22.49,20.15-22.49-3.4,15.7,9.41,16.48,13.34-17,11.25-33-2.09-48.13,8.37-49.18,21.19-1.56,23.54-13.6-9.83-20.68-12-37.4,1.31-48.39-30.87-60.17-40.19-15.13-47.76-12Z"/><path id="Path_1503" data-name="Path 1503" class="cls-12" d="M368.71,242.65c10.71,19.9,25,27.87,53.16,50.1l-4.15,15.3s-43-14.95-73.19-55.41c-14.37-19.22-17.15-68.25-9.07-84.4,7-14,23.71-7.34,25.11,8.37,1.71,19.23-3.25,44.88,8.14,66Z"/><path id="Path_1504" data-name="Path 1504" class="cls-12" d="M405.53,305.33a42.59,42.59,0,0,1,7.77,14.52c1.24,4.27,2.5,4.36,2.69.46.08-3.55-1.23-6.79-.59-7.18.31-.19.86,2.38,1.93,5.86,1.27,4.12,1.69,7.92,3.22,6.65,1.84-1.43.69-11.62-.46-14.32-.95-2.76,3.61,6.56,4.61,11.13,1.24,5,3.63,4.59,2.85-2.48-.94-6.56-2.86-10.39-2.92-12,1,.85,2.15,1.85,4.79,8.26,1.81,5.08,3.88,3.62,2.8-2.17-1.26-6.76-7.07-12.95-6.37-14.45,1-.72,2.46.82,6.88,2.84,4.29,2.24.15-3.6-4.16-6.58-4.4-3.22-9.39-6.94-13.83-8.34-6.13-1.93-9.43-2.94-13.22.59-2.47,2.2-6.85,5.69-5.29,8.75,1.23,2.42,6.66,4.7,9.3,8.5Z"/><path id="Path_1505" data-name="Path 1505" class="cls-4" d="M333.44,443.29c3.83-18.29-8.68-89.28-9.92-102.92s-1.55-49.6-1.55-49.6l58.28.31s17.05,42.16,7.13,93.31S366.31,471.81,364.13,491s-45.26,10.54-45.26,10.54,10.23-37.5,14.57-58.28Z"/><path id="Path_1506" data-name="Path 1506" class="cls-4" d="M293.45,289.53C270.31,327.69,277,323,268.34,395.24S255.94,487,245.09,502.81s42.42.6,42.42.6,18.13-42.94,32.71-86C335.43,372.58,353,289.84,353,289.84Z"/><path id="Path_1507" data-name="Path 1507" class="cls-13" d="M335.65,364.82q2.75-8.93,5.54-17.83c.51-1.66,1-3.31,1.56-5,.42-1.29.78-2.64,1.31-3.9a13.15,13.15,0,0,1-4.29-.17c-.21-.05-.24-.41,0-.45,1.56-.21,3.15-.22,4.73-.33a.29.29,0,0,1,.4-.06l0,0c.43,0,.85-.07,1.28-.14a40.6,40.6,0,0,0,6.32-1.5c.42-.13.57.49.18.65a27.7,27.7,0,0,1-6.5,1.71q-.65.11-1.32.18a34.12,34.12,0,0,1-1,3.56c-.46,1.52-.93,3-1.4,4.56l-2.81,9q-2.79,8.89-5.62,17.8c-1.08,3.35-2.23,6.68-3.31,10-.1.32-.62.19-.52-.15,1.81-6,3.57-12,5.41-18Z"/><path id="Path_1508" data-name="Path 1508" class="cls-13" d="M289.58,324.1c1.38.35,2.68,1,4,1.47a17.8,17.8,0,0,0,4.15.92,12.94,12.94,0,0,0,7.14-1.49c4.52-2.37,7.54-6.66,9.57-11.23,1.26-2.83,2.23-5.79,3.21-8.71a.32.32,0,0,1,.61.16c-1.5,5.38-3.17,10.88-6.64,15.36-3.06,3.94-7.7,7-12.83,7a20.94,20.94,0,0,1-9.55-2.8.37.37,0,0,1-.1-.52A.36.36,0,0,1,289.58,324.1Z"/><path id="Path_1509" data-name="Path 1509" class="cls-13" d="M376.39,299.45c.44,2.4.78,4.81,1.26,7.21s1,4.86,1.64,7.28,1.22,4.67,1.94,7c.68,2.13,1.86,4.41,4.36,4.63a.27.27,0,0,1,0,.54c-2.16.28-3.76-1.54-4.56-3.34a48.3,48.3,0,0,1-2.27-7.34q-1-3.94-1.86-7.95c-.53-2.61-1.06-5.25-1.34-7.89-.06-.47.74-.58.83-.11Z"/><path id="Path_1510" data-name="Path 1510" class="cls-13" d="M348.38,308.5c.07-2.1.08-4.21,0-6.31s-.42-4.29-.36-6.43a.28.28,0,0,1,.54-.08,28.45,28.45,0,0,1,.69,6.37c.08,2.2.09,4.4,0,6.59a80.11,80.11,0,0,1-1.64,12.63c1.71,1.09,4,.07,5-1.52,1.27-2,1.24-4.51,1.38-6.77a136.9,136.9,0,0,0,.29-15.82c0-.26.39-.26.4,0a131.89,131.89,0,0,1-.22,17.89c-.15,2.16-.53,4.64-2.28,6.14a4.15,4.15,0,0,1-5.12.55.36.36,0,0,1-.16-.38,76.24,76.24,0,0,0,1.51-12.86Z"/><path id="Path_1511" data-name="Path 1511" class="cls-14" d="M392.65,310.62c-9,5.26-15.8-7.76-23.24-4.35-6.63,3.05-20.15,4.85-30.46.61a24.84,24.84,0,0,1-3.64-1.84c-2.44-1.51-4.88-2.93-7.34-4.14l-.17-.08a32.11,32.11,0,0,0-12.66-3.67h-.07a21.75,21.75,0,0,0-10.23,2l-.39.17c-.66.32-1.33.67-2,1.06A55.68,55.68,0,0,1,289.16,306c-6.48,1.75-12,1.73-15.24.26-9-4,9.3-25.11,14.57-40a19.24,19.24,0,0,0,1-6.61c-.05-6.59-2.61-14.29-5.52-22.48-2.61-7.37-5.51-15.15-7.12-22.9-.3-1.46-.57-3-.8-4.68a173.49,173.49,0,0,1-.67-36.52c1-11.57,3.21-21,6.58-22.74,1.78-.91,6-1,11.39-.58,2,.16,4.27.4,6.61.71a301.69,301.69,0,0,1,38.33,7.81c4.19,1.21,7,2.26,7.53,2.91,1.7,2.11,15.91,15.88,25.1,29.42,4.26,6.29,7.43,12.53,7.76,17.54.47,7-.55,11.42-1.84,14.61-1.65,4.06-3.74,6.06-3.74,8.49,0,1.43,1,6.48,2.63,13.06,2.57,10.68,6.6,25.4,10,35.09.9,2.54,1.76,4.72,2.54,6.41,5.58,12.08,13.32,19.52,4.33,24.8Z"/><path id="Path_1512" data-name="Path 1512" class="cls-13" d="M329.78,228.67a67,67,0,0,1,12.77-3.33c2.11-.39,4.24-.74,6.37-1a38.85,38.85,0,0,1,6.55-.63.35.35,0,0,1,.09.69c-2.07.49-4.26.61-6.37.91s-4.34.69-6.5,1.12c-4.27.83-8.48,2-12.76,2.79a.27.27,0,0,1-.15-.51Z"/><path id="Path_1513" data-name="Path 1513" class="cls-12" d="M300,150.47a276.72,276.72,0,0,1,18.94,32.06c1.95,3.9,4,8,7.58,10.48,4.39,3,10.11,2.8,15.41,2.51,3.4-.18,7.29-.62,9.24-3.41a7.66,7.66,0,0,0,1-5.85,24.69,24.69,0,0,0-2.12-5.69c-3-6.51-7.33-15.82-11.7-22.29A301.69,301.69,0,0,0,300,150.47Z"/><path id="Path_1514" data-name="Path 1514" class="cls-15" d="M385.51,284.45a5.77,5.77,0,0,1-3.15,6c-2.84,1.15-6.19-.9-7.45-3.68a13.12,13.12,0,0,1-1-4.49,23.59,23.59,0,0,1-1.19,2.07,8.92,8.92,0,0,1-5.38,4.12c-3.91.85-8-2.36-8.8-6.29s1.21-8.08,4.34-10.59a17.92,17.92,0,0,1-10.58.13,7.67,7.67,0,0,1-4.86-3.39,6,6,0,0,1,1.51-6.91,9.75,9.75,0,0,1,7.06-2.25,28.52,28.52,0,0,1,7.41,1.6,17.49,17.49,0,0,1-7.31-9.46c-.61-1.94-.59-4.55,1.22-5.44,1.48-.74,3.22.14,4.58,1.07a45.05,45.05,0,0,1,10.36,9.75,12.57,12.57,0,0,1,1-9.82,6.26,6.26,0,0,1,2.48-2.57c2.57,10.69,6.6,25.41,10,35.1a6.79,6.79,0,0,1-3.9-1.06,9.91,9.91,0,0,1,3.63,6.11Z"/><path id="Path_1515" data-name="Path 1515" class="cls-15" d="M304.46,299.33a21.63,21.63,0,0,0-2,1.06A55.49,55.49,0,0,1,289.16,306a4.45,4.45,0,0,1-.43-.61,4.84,4.84,0,0,1-.26-5,6.07,6.07,0,0,1,3.41-2.28,16.1,16.1,0,0,1,12.58,1.2Z"/><path id="Path_1516" data-name="Path 1516" class="cls-15" d="M311.05,276.78a65.6,65.6,0,0,1,4,20.36,21.75,21.75,0,0,0-10.23,2,19.76,19.76,0,0,1-2-23.26c1.15-1.79,3.1-3.54,5.14-2.95,1.64.48,2.49,2.24,3.08,3.84Z"/><path id="Path_1517" data-name="Path 1517" class="cls-15" d="M327.8,300.82a32.13,32.13,0,0,0-12.66-3.68,25.26,25.26,0,0,1,6.4-15.42c1.1-1.23,2.56-2.43,4.21-2.28,2.28.22,3.46,2.8,3.91,5A27.1,27.1,0,0,1,327.8,300.82Z"/><path id="Path_1518" data-name="Path 1518" class="cls-15" d="M340.18,304.83a23.48,23.48,0,0,1-1.23,2,23.84,23.84,0,0,1-3.64-1.83c-2.44-1.51-4.88-2.93-7.34-4.14,1.55-2,3-4.35,5.29-5.36,2.46-1.13,5.77-.86,7.38,1.31s.87,5.5-.46,8Z"/><path id="Path_1519" data-name="Path 1519" class="cls-15" d="M323.87,243.17A17.2,17.2,0,0,1,308,254.48a13.24,13.24,0,0,1,5,3.5,5.33,5.33,0,0,1,.78,5.73c-1.45,2.56-5,2.72-8,2.39a33,33,0,0,1-11.93-3.18,16.74,16.74,0,0,1-4.36-3.26c-.05-6.59-2.6-14.28-5.51-22.48a6.56,6.56,0,0,1,5.72,3.6,19.52,19.52,0,0,1-.62-12.71,7.07,7.07,0,0,1,2.3-3.84,5.29,5.29,0,0,1,6.26.41,8.76,8.76,0,0,1,2.91,5.9,26.58,26.58,0,0,1-.47,6.72,28.44,28.44,0,0,1,6.15-12.39c1.34-1.57,3-3.08,5.08-3.24,2.95-.23,5.48,2.58,5.89,5.51s-.79,5.86-2.25,8.44-3.19,5.06-4.06,7.88a41,41,0,0,1,9.37-3.6c1.26-.32,2.85-.46,3.57.61a3.08,3.08,0,0,1,0,2.7Z"/><path id="Path_1520" data-name="Path 1520" class="cls-15" d="M376.86,222.76a14.89,14.89,0,0,0-2.69-2.86c-2.68-2.22-5.93-3.62-8.95-5.33a23.73,23.73,0,0,1-4.56-3.21,2.45,2.45,0,0,1,1.7-4.24,19.53,19.53,0,0,1,6.91,1.51,28,28,0,0,1-9.67-11,3.88,3.88,0,0,1-.07-3.51c1.17-2.16,4-1.61,5.91-.63a22.21,22.21,0,0,1,7.84,6.5c-1.53-2.29-2.79-4.75-2.66-7.56a6.28,6.28,0,0,1,.32-1.77c4.27,6.29,7.43,12.54,7.77,17.55.46,7-.56,11.41-1.85,14.6Z"/><path id="Path_1521" data-name="Path 1521" class="cls-15" d="M299.67,200.82c-.93,1.9-3.43,2.33-5.55,2.32a33.54,33.54,0,0,1-13.58-3,10.26,10.26,0,0,1,5,5c1.1,2.73-.1,6.51-3,7.21a6.43,6.43,0,0,1-5.11-1.46,12.53,12.53,0,0,1-1.43-1.19,174.26,174.26,0,0,1-.66-36.53,27.41,27.41,0,0,1,5.86.58c3.56.68,7.16,1.71,10,4s4.86,5.84,4.28,9.42-4.33,6.58-7.81,5.65a16.21,16.21,0,0,0,5.3,1.42,10.93,10.93,0,0,1,5.14,1.84c1.44,1.15,2.3,3.22,1.49,4.88Z"/><path id="Path_1522" data-name="Path 1522" class="cls-5" d="M365.27,57.94c-3-6.91-8.49-12.65-14.54-17.62A12.06,12.06,0,0,0,347.08,38a4.85,4.85,0,0,0-4.29.42,4.47,4.47,0,0,0-1.56,3.86c.08,3,1.66,5.74,3.2,8.36l12.11,20.71a22.94,22.94,0,0,0,5,6.52c3.09,2.51,4-.67,4.84-3.31a23.77,23.77,0,0,0-1.09-16.66Z"/><path id="Path_1523" data-name="Path 1523" class="cls-12" d="M329,158.27l-17.17-1.1,1.67-21.52,17.18,1.1Z"/><path id="Path_1524" data-name="Path 1524" class="cls-10" d="M318.3,145.16c-1.75-.54-3.49-1.14-5.23-1.71l-.19-.06.61-7.74,17.17,1.1-.79,10.11a34.65,34.65,0,0,1-11.57-1.7Z"/><path id="Path_1525" data-name="Path 1525" class="cls-12" d="M283,115.18c1.43,3.71,4.4,7.52,7.59,10.77a59.64,59.64,0,0,0,6.22,5.56A52.74,52.74,0,0,0,322,141.9c11.46,1.56,23-.59,31.4-6.56a22.33,22.33,0,0,0,2.17-2.18h0c5.44-6.11,8.74-15.67,10.23-26.36,3.4-24.34-2.62-54.61-14.55-63.7-14.29-14.36-35.21-17-52.46-10C265.1,46.83,267.5,85.84,283,115.18Z"/><path id="Path_1526" data-name="Path 1526" class="cls-16" d="M290.63,126a60.68,60.68,0,0,0,6.22,5.56A52.83,52.83,0,0,0,322,141.89c7.27-5.87,7.19-16.72,4.52-22.66-4.19-9.37-13.71-13.54-23.22-10.44A17.9,17.9,0,0,0,290.63,126Z"/><path id="Path_1527" data-name="Path 1527" class="cls-16" d="M355.59,133.15c5.44-6.12,8.74-15.67,10.23-26.37A19.74,19.74,0,0,0,355,118.34a18.78,18.78,0,0,0,.63,14.81Z"/><path id="Path_1528" data-name="Path 1528" class="cls-5" d="M363.21,51a7.25,7.25,0,0,0-.9-1.83c-4-7.32-18.74-19.49-38.19-20.79-23.81-1.6-46.61,1.47-57.88,17.06C258.62,56,256,71.75,260.86,84.26S276,95.39,279.59,95.59c2.72.15,5.31-2,8-1.06A4.1,4.1,0,0,1,290,96.7a.59.59,0,0,1,.45.53c0,.29.8.65,1,.75a2.9,2.9,0,0,0,1,.26c1.78.07,2.85-1.69,3.54-3.45,1.87-2,4.46-5.77,6.3-12.67,3.2-12,19.35-19.32,18.13-32.57a17.1,17.1,0,0,0-.62-3.4c1.16-1.36,3.43-2.35,7.81-.72s8.75,3,13.2,4.29A59.87,59.87,0,0,0,348,51.57c2.47.38,5,.38,7.39,1.36,2.06.85,5.94,4.08,7.67,1.18A3.86,3.86,0,0,0,363.21,51Z"/><path id="Path_1529" data-name="Path 1529" class="cls-12" d="M290.57,109.76c-1.54,4.38-8.78,5.95-14.63,2s-10.1-15.84-5.76-22.31,14.68-3.59,18.61,4.11C291.76,99.39,291.76,106.35,290.57,109.76Z"/><path id="Path_1530" data-name="Path 1530" class="cls-2" d="M274.22,93.8a.44.44,0,0,1,0-.61.4.4,0,0,1,.19-.11c1.38-.34,2.92.52,4.07,1.21a14,14,0,0,1,3.42,2.81,12.43,12.43,0,0,1,3.2,8.2c0,.55-.9.72-1,.13a15.38,15.38,0,0,0-3.4-7.25c-.25-.28-.53-.52-.8-.77-.11.13-.24.25-.35.38s-.41.45-.6.68a13.06,13.06,0,0,0-1.07,1.49c-.65,1.06-1.05,2.25-1.78,3.26-.14.18-.53.21-.57-.08a5.8,5.8,0,0,1,1.13-3.88,13.67,13.67,0,0,1,1.26-1.66,7.89,7.89,0,0,1,.72-.7l.36-.29a13.61,13.61,0,0,0-1.32-.93c-1.1-.66-2.53-1-3.45-1.88Z"/><path id="Path_1531" data-name="Path 1531" class="cls-5" d="M360.66,77.34a8.58,8.58,0,0,0-3.09-1.44,7.13,7.13,0,0,0-3.15-.05,4.15,4.15,0,0,0-2.84,1.67c-.21.36,0,.86.36.86a5,5,0,0,0,1.32-.33,7.67,7.67,0,0,1,1.35-.26,7.39,7.39,0,0,1,2.81.21A8.44,8.44,0,0,1,360,79.27c.76.54,1.62,1.62,2.48,1.65.23,0,.36-.3.35-.57,0-1.34-1.4-2.43-2.2-3Z"/><path id="Path_1532" data-name="Path 1532" class="cls-17" d="M342.29,112.87c-4-.67-5.51-4-8.86-1.65-2.68,1.89-.94,7.48,7.21,8.64,7.91,1.13,9.46-4.37,8-6.21s-2.35-.11-6.36-.78Z"/><path id="Path_1533" data-name="Path 1533" class="cls-16" d="M333.87,113.59a9.73,9.73,0,0,1,5.93,2.77,4.89,4.89,0,0,1,1.75,3.59c-.3,0-.59,0-.91-.09-5.65-.8-8.21-3.73-8.37-6.08A4.14,4.14,0,0,1,333.87,113.59Z"/><path id="Path_1534" data-name="Path 1534" class="cls-5" d="M319.11,81.42a12,12,0,0,1,3.77-2.34A10.75,10.75,0,0,1,327,78.3c1.34,0,3.08.19,4.15,1.27a.62.62,0,0,1,0,.89.59.59,0,0,1-.29.18,8.61,8.61,0,0,1-1.83-.08,11.43,11.43,0,0,0-1.85,0,11.24,11.24,0,0,0-6.84,2.92c-.88.79-1.78,2.22-2.92,2.45-.3.07-.54-.27-.59-.57-.24-1.55,1.31-3.1,2.23-4Z"/><path id="Path_1535" data-name="Path 1535" class="cls-9" d="M325.68,96.12a4.22,4.22,0,0,0-3.77-.27,8.36,8.36,0,0,0-3.13,2.68,6.27,6.27,0,0,0-1.59,3.57c0,.58.85.82,1,.23a11.87,11.87,0,0,1,3.92-4.78,2.68,2.68,0,0,1,2.55-.1,3,3,0,0,1,.91.76,6.17,6.17,0,0,1,.6,1.24.78.78,0,0,0,1.46-.27,3.77,3.77,0,0,0-2-3.06Z"/><path id="Path_1536" data-name="Path 1536" class="cls-9" d="M359.79,92.56A3,3,0,0,0,357,91.17a5,5,0,0,0-2.92,2,6.41,6.41,0,0,0-.92,1.44,3.67,3.67,0,0,0-.48,1.69.36.36,0,0,0,.35.39.36.36,0,0,0,.32-.15c.26-.39.51-.8.73-1.21a9.22,9.22,0,0,1,.76-1.09,7.64,7.64,0,0,1,1-1,3.15,3.15,0,0,1,1.16-.74,1.66,1.66,0,0,1,1.75.88,4.48,4.48,0,0,1,.5,1.38,1.92,1.92,0,0,0,.68,1.31.24.24,0,0,0,.29,0,1.2,1.2,0,0,0,.37-.74,3.53,3.53,0,0,0-.09-1,4.91,4.91,0,0,0-.71-1.76Z"/><path id="Path_1537" data-name="Path 1537" class="cls-2" d="M345.2,108.44c1.07-.22,2.12-.53,3.19-.74.5-.1,1-.18,1.49-.26s.91-.1,1.13-.43c.42-.67-.44-2.15-.66-2.78-.35-1-.68-2-1-3-.59-2-1.09-4-1.48-6.06a19.52,19.52,0,0,1-.59-6c.06-.37.58-.29.68,0a22.33,22.33,0,0,1,.65,3.45c.19,1.16.4,2.32.64,3.47a61.82,61.82,0,0,0,1.84,6.82,26.4,26.4,0,0,1,1.07,3.1,1.94,1.94,0,0,1-.64,2.08,6.47,6.47,0,0,1-2.74.6c-1.17.14-2.35.16-3.53.28-.3,0-.36-.46-.07-.52Z"/><circle id="Ellipse_22" data-name="Ellipse 22" class="cls-4" cx="279.86" cy="114.03" r="3.17"/><path id="Path_1538" data-name="Path 1538" class="cls-5" d="M313.64,61.11c-2.05,4.18-4.71,8-6.74,12.21-5.14,10.57-6,22.81-4.56,34.46s5.23,22.89,9.05,34c1.5,4.36,2.95,9.43.52,13.36s-8.08,4.92-12.62,3.69-8.43-4.09-12.59-6.27-9.13-3.7-13.52-2a8.2,8.2,0,0,1,8.44-12c2.25.34,4.25,1.6,6.45,2.2s5,.32,6.13-1.64c1.36-2.31-.31-5.11-1.49-7.52-2.69-5.46-2.78-11.79-2.75-17.88.05-11,.37-22.14,2.86-32.88,2.09-9,5.81-17.84,11.75-25,1.85-2.24,6.81-8.65,10.22-6.64,3.76,2.2.12,9.34-1.15,11.94Z"/><path id="Path_1539" data-name="Path 1539" class="cls-12" d="M363.88,173.11c20.28-5.18,26.86-27.9,39.62-55.43l15.92,6.77s-3.89,65.09-52.8,78.16c-18.12,4.84-87.84-16-95.33-26.69s-4.84-28.19,11.47-26.53,60.83,28.9,81.12,23.72Z"/><path id="Path_1540" data-name="Path 1540" class="cls-12" d="M423.61,118.85c4.55-7.65,7.95-20.87,8.33-27.9.48-7.45-1-8.43-2.21-3.33-1.17,4.83-2.32,10.31-3.07,10.09-.39-.1,1.1-3.9,1.36-9.58.29-6.57-.41-11.59-2.14-11-1.55.65-2.59,13.72-4,17.75-.51,4.15.85-11.08-1-16.59-1.45-6.15-4.22-6.46-3.68,1,.25,7.53-.49,13.2-1.43,14.9-.61-1.71-.24-3.89-1.54-12.19-1.38-6.1-4.13-5.45-4,.35.28,7,.29,17.73-2,18.21-1.56-.39-.92-3.16-4.16-8.33-3.4-5-1.86,2.54-1.5,8.47.6,6.24,1.13,13.36-.22,17.78-2,6.39,1.77,10.64,7.75,11.64s9.51-4.39,13.45-11.29Z"/><path id="Path_1541" data-name="Path 1541" class="cls-17" d="M304.75,156.69c3.48,1.19,6.91,2.52,10.33,3.86l10.24,4q5.12,2,10.27,3.94,2.57,1,5.18,1.83c1.73.62,3.49,1.15,5.24,1.72a85.63,85.63,0,0,1-10.71-2.7c-3.52-1.09-7-2.38-10.4-3.72s-6.82-2.78-10.16-4.3-6.69-3.05-10-4.68Z"/><path id="Path_1542" data-name="Path 1542" class="cls-4" d="M419.51,131.08c-1.32,2.09-8.22,2.95-14.84-1.13-5-3.09-5.75-7.33-5-9.74.67-2.15,2.07-1.94,2.51-1.19a.22.22,0,0,1,0,.14c-.54,1.69,1.12,4.64,4.86,7s9.29,3.65,11.92,2.91c.76-.18,1.33.73.53,2Z"/><path id="Path_1543" data-name="Path 1543" class="cls-8" d="M405.36,64.62a4.48,4.48,0,0,0-1.47-1.15l-1.8-1.1-3.51-2.12-3.41-2a22.58,22.58,0,0,0-3.65-2.05.74.74,0,0,0-1,.42.73.73,0,0,0,.21.83,21.81,21.81,0,0,0,3.43,2.17l3.54,2.07c1.15.67,2.29,1.35,3.44,2L403,64.7a4.78,4.78,0,0,0,1.83.81.56.56,0,0,0,.62-.5.55.55,0,0,0-.1-.39Z"/><path id="Path_1544" data-name="Path 1544" class="cls-8" d="M410,49c-.57-1.15-1.15-2.29-1.73-3.43l-1.76-3.43c-.28-.55-.56-1.1-.85-1.65s-.49-1.21-1.23-1.28a.71.71,0,0,0-.73.41c-.36.64.1,1.21.4,1.79s.57,1.1.86,1.65l1.79,3.42c.59,1.14,1.2,2.27,1.81,3.4a12.24,12.24,0,0,0,2,3.23.62.62,0,0,0,.87-.12.63.63,0,0,0,.12-.44A12.87,12.87,0,0,0,410,49Z"/><path id="Path_1545" data-name="Path 1545" class="cls-8" d="M426.13,29.79c-.18-.64-1.1-.53-1.35,0a5.12,5.12,0,0,0-.31,1.82l-.16,1.95c-.09,1.2-.19,2.41-.27,3.61s-.19,2.41-.25,3.62a15.42,15.42,0,0,0,0,3.78c.08.41.71.59.87.13.83-2.31.8-5,1-7.41.11-1.25.21-2.5.31-3.75A11.18,11.18,0,0,0,426.13,29.79Z"/><path id="Path_1546" data-name="Path 1546" class="cls-8" d="M447.81,39.09a2.94,2.94,0,0,0-.91,1.29c-.24.48-.49.95-.74,1.41l-1.5,2.83c-.5.94-1,1.88-1.47,2.83a22.19,22.19,0,0,0-1.33,2.89c-.2.6.57,1.15,1,.59a21.12,21.12,0,0,0,1.66-2.69c.54-1,1.07-1.92,1.6-2.88l1.52-2.82.76-1.4a2.94,2.94,0,0,0,.55-1.56.72.72,0,0,0-.81-.62A.7.7,0,0,0,447.81,39.09Z"/></g></svg>