<svg xmlns="http://www.w3.org/2000/svg" width="254.376" height="206.955" viewBox="0 0 254.376 206.955"><g transform="translate(-135.628 -241.45)"><g transform="translate(45.89 9.883)"><path d="M211.907,49.22a24.855,24.855,0,0,1,9.28,9.24,2.742,2.742,0,0,0-.62.472,1.847,1.847,0,0,0-.174.65c.234.042.487.168.7.1.177-.057.3-.338.484-.559.392.517.976.892.509,1.786-.221.423.091.723.46.8.565.12.8.565.983,1.068.224.608.427,1.226.639,1.839a1.433,1.433,0,0,1-.229,1.711.556.556,0,0,0,.18.987c.776.284.916.992,1.086,1.713a20.585,20.585,0,0,1,.038,8.677c-.118.618-.284,1.231-.365,1.853-.122.937-.295,1.792-1.551,1.785.242,1.21.631,2.221.164,3.377a5.8,5.8,0,0,1-2.052,2.583,2.076,2.076,0,0,1-.593,2.33c-.391.04-.66-1.142-1.232-.073l.914.895c-.661.934-1.257,1.946-2,2.8a31.518,31.518,0,0,1-17.995,10.733,28.56,28.56,0,0,1-7.8.431c-.367-.028-.726-.118-1.137-.187.2-1.473.379-2.834.552-4.2a4.8,4.8,0,0,0,.049-.874.7.7,0,0,0-.642-.722.815.815,0,0,0-.956.534,3.138,3.138,0,0,0-.106.362,20.163,20.163,0,0,1-12.529,14.025c-8.975,3.588-17.009-.933-20.878-5.983a2.13,2.13,0,0,0-1.6-1.077,1.553,1.553,0,0,0-.09,1.813c.614,1.12,1.169,2.291,1.882,3.328a2.212,2.212,0,0,1-.035,2.833c-1.006,1.422-1.887,2.967-3.007,4.271-5.974,6.958-13.134,11.3-21.731,12.446a29.86,29.86,0,0,1-23.531-6.384c-1.294-1.033-2.5-2.187-3.755-3.282-.2-.175-.416-.327-.811-.634.767-.358,1.253-.578,1.735-.809A18.3,18.3,0,0,0,114,113.178a4.92,4.92,0,0,0,.611-1.226,1.085,1.085,0,0,0-.126-.892.952.952,0,0,0-.847-.041,2.1,2.1,0,0,0-.741.607,19.2,19.2,0,0,1-15.208,6.8,15.515,15.515,0,0,1-6.518-1.5c-.656-.3-1.315-.609-1.994-.851a2.71,2.71,0,0,0-1.119-.138.523.523,0,0,0-.372.832,3.156,3.156,0,0,0,.533.618,14.3,14.3,0,0,0,7.679,3.84c.437.085.873.178,1.441.293a20.6,20.6,0,0,1-3.355,3.165c-5.326,3.929-11.115,6.125-17.406,5.8-9.108-.466-16.251-4.654-21.06-12.99a7.275,7.275,0,0,0-.43-.715,1.468,1.468,0,0,0-2.034-.5,8.526,8.526,0,0,0-1.291.887,18.387,18.387,0,0,1-25.992-3.344,19.282,19.282,0,0,1-3.883-11.578,16.361,16.361,0,0,1,.584-5.839c.274-.776.088-1.192-.449-1.452-.564-.273-.979-.106-1.423.681a19.509,19.509,0,0,0-2.349,6.21c-.18,1.029-.225,2.078-.324,3.119-.089.938-.348,1.273-1.153,1.215-8.5-.62-14.709-6.392-16.23-13.52A20.2,20.2,0,0,1,4.337,75.284a16.68,16.68,0,0,1,3.649-3.41c.659,1.232,1.276,2.391,1.9,3.546.132.246.279.483.431.714.277.423.649.761,1.145.5a1.168,1.168,0,0,0,.455-1.323c-.166-1.1-.347-2.2-.523-3.3A25.3,25.3,0,0,1,26.432,44.865a22.388,22.388,0,0,1,17.2-.382c1.029.4,2.039.85,3.079,1.214a1.073,1.073,0,0,0,.932-.1c.369-.333.131-.783-.073-1.121a2.384,2.384,0,0,0-.559-.588,18.625,18.625,0,0,0-6.971-3.864c-1.184-.307-1.316-.632-.881-1.978A16.7,16.7,0,0,1,50.37,26.641a14.361,14.361,0,0,1,8.73-.01c1,.3,1.129.52,1.177,1.638.1,2.244.21,4.485.308,6.729.029.649.1,1.254.786,1.525a1.73,1.73,0,0,0,.8-1.536c.09-1.127.215-2.253.285-3.381a23.923,23.923,0,0,1,1.414-6.375c.663-1.9,1.357-3.8,2.107-5.666a7.782,7.782,0,0,1,1.2-2.031,5.729,5.729,0,0,1,1.434-.93c.077-.675-.183-1.538.588-2.1.941.581.941.581,1.466-.077a4.126,4.126,0,0,0-.395-.363,6.332,6.332,0,0,0-.588-.326c.21-.288.382-.549.577-.788a38.772,38.772,0,0,1,5.059-5.195c.809-.678,1.581-1.338,2.567-.484a4.736,4.736,0,0,1,.522-1.616c.317-.358.92-.4,1.371-.642a3.35,3.35,0,0,0,1.059-.774,5.4,5.4,0,0,1,2.765-1.572,1.224,1.224,0,0,1,.758.086,8.585,8.585,0,0,1,.969.49,3.143,3.143,0,0,0,.23-.6,1.253,1.253,0,0,1,1.1-1.111c.566-.136,1.121-.342,1.68-.517A2.5,2.5,0,0,1,90.019.94a2.56,2.56,0,0,0,1.338-.16A3.545,3.545,0,0,0,92.205.35a1.194,1.194,0,0,1,1.817.309,4.341,4.341,0,0,0,.579.559c.656-1.282,1.664-1.3,2.742-1.157l.72,1.244c.368-.306.635-.542.915-.757A1.538,1.538,0,0,1,101.1.467a1.559,1.559,0,0,0,1.252.343,4.682,4.682,0,0,1,4.455,1.4,1.009,1.009,0,0,0,1.109.344,2.2,2.2,0,0,1,1.305.145c1.376.654,2.722,1.38,4.066,2.1a2.241,2.241,0,0,1,.681.6,2.255,2.255,0,0,0,1.912,1.222l.158,1.156c.476.156,1.047.174,1.357.492a4.656,4.656,0,0,1,.56,1.589c.263-.008.628-.011.992-.03.439-.023.745.129.793.649.037.4-.049.91.144,1.165.181.238.658.2,1.216.344a4.337,4.337,0,0,1-.907.342,11.438,11.438,0,0,0-6.066,2.776c-.5.4-1.039.739-1.555,1.1.237-.331.469-.659.672-.946a1.635,1.635,0,0,0-.144-.317c-.252-.283-.534-.482-.873-.1-.283.318-.157.6.058.871a4.966,4.966,0,0,1,.3.488c-.516.68-1.061,1.339-1.536,2.051a6.163,6.163,0,0,0-.48,1.179,1.2,1.2,0,0,0,1.521-.17c.45-.343.882-.716,1.335-1.055,5.464-4.085,11.082-4.567,16.829-1.785.788.382,1.538.851,2.33,1.225a7.58,7.58,0,0,0,1.258.356,1.109,1.109,0,0,0-.308-1.516c-.842-.741-1.69-1.476-2.535-2.212a2.3,2.3,0,0,1-.97-1.436c-.071-.5-.4-.7-.839-.532-1.629.631-3.067-.122-4.791-.393a14.318,14.318,0,0,1,.9-1.186,18.03,18.03,0,0,1,4.584-3.325c.629-.342,1,.093,1.438.3.142-.08.306-.114.335-.2a2.112,2.112,0,0,1,1.9-1.395,15.453,15.453,0,0,1,6.279-.082,5.151,5.151,0,0,1,1.084.339c.919.427,1.822.891,2.869,1.407.027.235.076.67.14,1.236l1.524-.451c.483.44,1.013.889,1.507,1.381.575.575.585.755.049,1.461-.853,1.121-1.707,2.243-2.61,3.316a3.806,3.806,0,0,0-.8,3.36c.695.345,1.112-.14,1.548-.578q2.517-2.526,5.038-5.046c.144-.144.293-.282.411-.4.568-.137.888,1.319,1.625.08l-.723-.677c.044-.107.056-.2.1-.241a1.573,1.573,0,0,1,1.615-.414c.45.175.769-.069.866-.56A2.118,2.118,0,0,1,155.5,8.7c.968-.451,1.905-1.007,2.894-1.378.719-.27,1.528-.216,2.245-.49s1.309-.951,2.013-1.14A30.094,30.094,0,0,1,177.8,5.215a3.132,3.132,0,0,1,1.218.761,1.007,1.007,0,0,0,.925.248,2.9,2.9,0,0,1,1.426.093c1.448.575,2.859,1.248,4.291,1.866a.881.881,0,0,1,.652.863.651.651,0,0,0,.858.679c.863-.16.865-.142,1.675.549-.16.166-.377.3-.445.486a2.763,2.763,0,0,0-.057.771c.213-.006.456.058.63-.038s.31-.357.554-.661c1.691,1.623,3.427,3.182,5.068,4.889l-1.143.841c.6.758.6.758,1.555-.107.413.377.78.77.533,1.469-.222.63.057.984.571,1.082a1.021,1.021,0,0,1,.974,1.111.913.913,0,0,0,.3.613c1.138.922,1.245,2.474,1.82,3.737a1.149,1.149,0,0,1-.05.834.87.87,0,0,0,.336,1.318,2.084,2.084,0,0,1,.757,1.125,23.405,23.405,0,0,1,.443,2.549c.082.526.144,1.057.223,1.652a4.05,4.05,0,0,0,2.436-1.875c.351-.439.045-.841-.245-1.194a1.58,1.58,0,0,1-.218-1.934,4.083,4.083,0,0,1,.488-.547c.153-.179.3-.37.48-.6-.434-.588-1.344-.538-1.45-1.435-.087-.73-.238-1.448-.357-2.148.7.037,1.318.1,1.938.1a5.383,5.383,0,0,1,4.081,1.472,8.493,8.493,0,0,0,1.887,1.075L210.1,25.9c.7.36,1.793-.527,2.182.724-.259.4-.861.815-.116,1.412l.858-.827,1.207,1.011-.446,1.346,1.535.2c.027.564.053,1.129.082,1.752a2.684,2.684,0,0,1,.762.218c.333.218.753.448.9.8.753,1.814,1.707,3.547,1.777,5.663a3.074,3.074,0,0,0,.424,1.248,1.847,1.847,0,0,1-.094,2.1,1.252,1.252,0,0,0,.044,1.67c.625.9.606,1.175-.059,2.1-.386.537-.592.976-.082,1.514a.914.914,0,0,1,.06.7c-.2.761-.448,1.51-.715,2.388-.689-.35-1.314-.694-1.959-.99-1.106-.506-2.222-.986-3.338-1.468a1.046,1.046,0,0,0-.549-.133c-.4.07-.907.084-1.144.355-.339.387-.053.846.244,1.19a4.165,4.165,0,0,1,.265.387,2.618,2.618,0,0,0-.572.579.78.78,0,0,0,.077.631.453.453,0,0,0,.484.013.914.914,0,0,0,.227-.608A2.15,2.15,0,0,0,211.907,49.22Z" transform="translate(95.645 305.979) rotate(-9)" fill="#ffffe9"/><g transform="translate(86.553 250.253) rotate(-5)"><path d="M170.349,124.352c-.19.308-.354.55-.493.806a36.309,36.309,0,0,1-16.345,16.014,47.3,47.3,0,0,1-10.082,3.7,32.523,32.523,0,0,1-21.142-2.333A30.317,30.317,0,0,1,108.742,130.9a5.667,5.667,0,0,0-.446-.534c-.36.517-.67.964-.982,1.408-4.173,5.933-9.429,10.089-16.061,11.849a29.218,29.218,0,0,1-18.428-.841c-6.061-2.343-10.381-6.851-13.392-12.922-.183-.368-.358-.741-.546-1.106-.035-.067-.113-.106-.26-.237-.8.575-1.632,1.165-2.456,1.771a21.437,21.437,0,0,1-7.529,3.664,20.714,20.714,0,0,1-14.415-1.791,17.463,17.463,0,0,1-8.013-7.813c-.8-1.523-1.57-3.074-2.236-4.675a1.926,1.926,0,0,0-2.04-1.421,20.691,20.691,0,0,1-14.706-5.575C2.365,108.244-.036,102.394,0,95.342A23.579,23.579,0,0,1,5.384,80.865a22.965,22.965,0,0,1,5.584-5.211,2.021,2.021,0,0,0,1.016-2.022c-.7-9.905,4.7-20.673,16-25.962A24.638,24.638,0,0,1,39.7,45.3c.235.011.47.039.705.034.8-.017,1.031-.2,1.269-1.078.147-.541.241-1.1.394-1.635,2.1-7.409,6.626-12.048,13.48-13.946a16.657,16.657,0,0,1,10.461.061c.857.317,1.263.064,1.485-.936,1.54-6.952,5.275-12.468,10.076-17.252A35.847,35.847,0,0,1,94.648,1.076a33.366,33.366,0,0,1,25.058,3.345,27.073,27.073,0,0,1,7.407,6.084c1.2,1.4,2.407,2.79,3.687,4.275,3.5-5.283,8.167-7.8,13.868-7.941s10.082,2.375,13.344,7.349c.749-.606,1.457-1.168,2.156-1.744a32.567,32.567,0,0,1,12.681-6.7,34.157,34.157,0,0,1,22.256,1.819,28.975,28.975,0,0,1,12.87,11.176,26.936,26.936,0,0,1,1.986,3.817,2,2,0,0,0,1.989,1.371c10.112.166,19.033,7.726,21.524,18.237a22.754,22.754,0,0,1-1.108,14.354c-1.1,2.644-.724,2.326.669,3.769a28.664,28.664,0,0,1,8.343,18.048c.856,10.705-2.308,20.041-9.818,27.668A31.6,31.6,0,0,1,214.3,115.47a27.158,27.158,0,0,1-12.613-.406c-1.232-.369-1.391-.288-2.1.994-4.368,7.883-10.91,11.285-18.914,11.5a16.441,16.441,0,0,1-8-2ZM120.163,22.05c.535-.377,1.085-.73,1.6-1.135a11.74,11.74,0,0,1,6.225-2.849,4.452,4.452,0,0,0,.931-.351c-.573-.143-1.063-.108-1.248-.353-.2-.261-.11-.786-.148-1.2-.049-.534-.363-.69-.814-.666-.374.019-.748.023-1.018.031a4.779,4.779,0,0,0-.575-1.631c-.318-.327-.9-.345-1.393-.505l-.162-1.187a2.315,2.315,0,0,1-1.963-1.254,2.3,2.3,0,0,0-.7-.62c-1.38-.743-2.761-1.488-4.173-2.159a2.257,2.257,0,0,0-1.34-.149,1.035,1.035,0,0,1-1.138-.353,4.806,4.806,0,0,0-4.573-1.433,1.6,1.6,0,0,1-1.285-.352,1.579,1.579,0,0,0-2.178.084c-.287.221-.56.463-.939.776l-.739-1.277c-1.107-.149-2.141-.129-2.814,1.187a4.454,4.454,0,0,1-.595-.573,1.225,1.225,0,0,0-1.865-.317,3.639,3.639,0,0,1-.87.441,2.627,2.627,0,0,1-1.374.164,2.566,2.566,0,0,0-1.715.084c-.574.18-1.144.391-1.725.53a1.287,1.287,0,0,0-1.131,1.14,3.225,3.225,0,0,1-.236.613,8.81,8.81,0,0,0-.995-.5,1.256,1.256,0,0,0-.778-.088A5.546,5.546,0,0,0,87.6,9.762a3.438,3.438,0,0,1-1.087.794c-.463.251-1.082.291-1.407.659a4.861,4.861,0,0,0-.536,1.658c-1.012-.876-1.8-.2-2.635.5A39.8,39.8,0,0,0,76.745,18.7c-.2.245-.377.513-.592.808a6.494,6.494,0,0,1,.6.335,4.236,4.236,0,0,1,.4.373c-.538.676-.538.676-1.5.079-.791.575-.524,1.46-.6,2.153a5.881,5.881,0,0,0-1.472.955,7.987,7.987,0,0,0-1.23,2.085c-.771,1.917-1.482,3.862-2.163,5.816a24.552,24.552,0,0,0-1.452,6.543c-.072,1.157-.2,2.313-.293,3.47a1.775,1.775,0,0,1-.825,1.577c-.7-.278-.778-.9-.807-1.565-.1-2.3-.217-4.6-.316-6.906-.05-1.147-.186-1.377-1.208-1.682a14.739,14.739,0,0,0-8.96.01A17.134,17.134,0,0,0,44.82,44.46c-.447,1.381-.311,1.714.9,2.03a19.115,19.115,0,0,1,7.155,3.966,2.446,2.446,0,0,1,.574.6c.209.347.454.808.075,1.15a1.1,1.1,0,0,1-.957.1c-1.067-.374-2.1-.836-3.16-1.246a22.977,22.977,0,0,0-17.653.393A25.963,25.963,0,0,0,16.323,79.318c.181,1.128.367,2.254.537,3.384a1.2,1.2,0,0,1-.467,1.358c-.509.268-.891-.08-1.175-.514-.156-.238-.307-.481-.443-.733-.639-1.186-1.273-2.375-1.949-3.639a17.12,17.12,0,0,0-3.746,3.5A20.73,20.73,0,0,0,5.19,100.508c1.561,7.316,7.935,13.24,16.657,13.876.827.06,1.093-.284,1.184-1.247.1-1.068.148-2.145.332-3.2a20.023,20.023,0,0,1,2.41-6.373c.456-.808.881-.98,1.46-.7.551.267.743.694.461,1.491a16.792,16.792,0,0,0-.6,5.993,19.79,19.79,0,0,0,3.985,11.883,18.871,18.871,0,0,0,26.676,3.432,8.75,8.75,0,0,1,1.325-.91,1.506,1.506,0,0,1,2.088.516,7.459,7.459,0,0,1,.441.734c4.935,8.556,12.267,12.854,21.615,13.333,6.457.331,12.4-1.923,17.865-5.956a21.143,21.143,0,0,0,3.444-3.248c-.583-.119-1.03-.213-1.479-.3a14.679,14.679,0,0,1-7.882-3.941,3.241,3.241,0,0,1-.547-.634.536.536,0,0,1,.382-.854,2.782,2.782,0,0,1,1.149.142c.7.248,1.373.561,2.047.873a15.924,15.924,0,0,0,6.689,1.541,19.71,19.71,0,0,0,15.609-6.982,2.159,2.159,0,0,1,.76-.623.978.978,0,0,1,.869.042,1.114,1.114,0,0,1,.129.915,5.048,5.048,0,0,1-.627,1.259,18.783,18.783,0,0,1-8.073,6.891c-.495.237-.993.463-1.781.831.405.316.628.472.833.651,1.285,1.123,2.526,2.308,3.854,3.368a30.647,30.647,0,0,0,24.151,6.553c8.824-1.181,16.173-5.633,22.3-12.774,1.15-1.339,2.054-2.925,3.087-4.384a2.27,2.27,0,0,0,.036-2.908c-.732-1.065-1.3-2.267-1.931-3.416a1.594,1.594,0,0,1,.092-1.861,2.186,2.186,0,0,1,1.642,1.1c3.971,5.183,12.216,9.822,21.427,6.14a20.694,20.694,0,0,0,12.859-14.394,3.211,3.211,0,0,1,.108-.372.836.836,0,0,1,.981-.548.713.713,0,0,1,.659.741,4.926,4.926,0,0,1-.05.9c-.178,1.4-.367,2.794-.567,4.306.422.071.791.163,1.167.192a29.31,29.31,0,0,0,8.007-.443,32.348,32.348,0,0,0,18.469-11.016c.764-.882,1.376-1.919,2.054-2.878l-.938-.918c.587-1.1.864.116,1.265.075a2.131,2.131,0,0,0,.609-2.392A5.951,5.951,0,0,0,234,92.361c.48-1.186.08-2.224-.168-3.466,1.29.007,1.467-.871,1.592-1.832.083-.638.254-1.267.375-1.9a21.129,21.129,0,0,0-.039-8.905c-.175-.739-.319-1.466-1.115-1.758a.57.57,0,0,1-.185-1.013,1.471,1.471,0,0,0,.235-1.756c-.218-.63-.427-1.264-.656-1.888-.19-.517-.429-.973-1.009-1.1-.378-.08-.7-.389-.472-.822.48-.917-.12-1.3-.522-1.833-.186.227-.315.516-.5.574-.215.069-.475-.06-.715-.1a1.9,1.9,0,0,1,.178-.668,2.815,2.815,0,0,1,.636-.485,25.509,25.509,0,0,0-9.524-9.484l.033.037a4.1,4.1,0,0,0-.27-.4c-.305-.353-.6-.824-.251-1.221.244-.278.769-.292,1.174-.364a1.074,1.074,0,0,1,.564.136c1.145.494,2.292.987,3.426,1.506.663.3,1.3.656,2.011,1.016.275-.9.53-1.67.734-2.451a.938.938,0,0,0-.061-.716c-.523-.552-.313-1,.084-1.554.682-.948.7-1.231.06-2.154a1.285,1.285,0,0,1-.046-1.714,1.9,1.9,0,0,0,.1-2.155,3.154,3.154,0,0,1-.435-1.281c-.072-2.171-1.051-3.95-1.824-5.812-.15-.361-.581-.6-.923-.821a2.755,2.755,0,0,0-.782-.224c-.03-.64-.057-1.22-.085-1.8l-1.575-.209.457-1.382-1.239-1.038-.881.849c-.764-.613-.147-1.035.119-1.449-.4-1.285-1.523-.374-2.24-.743l-.151-1.072a8.716,8.716,0,0,1-1.937-1.1,5.524,5.524,0,0,0-4.189-1.511c-.637,0-1.271-.062-1.989-.1.122.719.278,1.455.367,2.2.109.92,1.043.869,1.488,1.472-.189.239-.336.434-.493.618a4.192,4.192,0,0,0-.5.561,1.621,1.621,0,0,0,.224,1.985c.3.362.611.774.252,1.225a4.157,4.157,0,0,1-2.5,1.925c-.082-.61-.145-1.155-.229-1.7a24.025,24.025,0,0,0-.454-2.616,2.139,2.139,0,0,0-.776-1.155.893.893,0,0,1-.345-1.353,1.18,1.18,0,0,0,.051-.856c-.589-1.3-.7-2.889-1.867-3.836a.937.937,0,0,1-.311-.629,1.048,1.048,0,0,0-1-1.14c-.527-.1-.814-.465-.586-1.111.253-.717-.123-1.121-.547-1.508-.985.888-.985.888-1.6.11l1.173-.864c-1.684-1.752-3.466-3.352-5.2-5.017-.251.313-.377.573-.569.679s-.429.032-.647.039a2.835,2.835,0,0,1,.059-.792c.07-.193.293-.329.457-.5-.831-.71-.833-.728-1.719-.564a.668.668,0,0,1-.881-.7.9.9,0,0,0-.669-.886c-1.47-.634-2.918-1.325-4.4-1.915a2.978,2.978,0,0,0-1.463-.1,1.034,1.034,0,0,1-.95-.254,3.214,3.214,0,0,0-1.25-.781,30.887,30.887,0,0,0-15.544.491c-.723.194-1.345.894-2.066,1.17s-1.566.225-2.3.5c-1.015.381-1.976.952-2.97,1.415a2.174,2.174,0,0,0-1.453,1.593c-.1.5-.427.755-.889.575a1.615,1.615,0,0,0-1.657.425c-.05.039-.061.138-.107.247l.742.7c-.756,1.272-1.084-.222-1.667-.082-.121.116-.274.257-.422.405q-2.586,2.588-5.17,5.179c-.448.449-.876.948-1.589.594a3.907,3.907,0,0,1,.816-3.449c.927-1.1,1.8-2.253,2.679-3.4.551-.724.541-.909-.05-1.5-.506-.5-1.05-.966-1.546-1.417l-1.564.463c-.066-.581-.117-1.027-.144-1.268-1.074-.53-2-1.006-2.945-1.444a5.287,5.287,0,0,0-1.112-.348,15.86,15.86,0,0,0-6.445.084,2.168,2.168,0,0,0-1.948,1.432c-.03.085-.2.121-.344.2-.45-.215-.83-.662-1.476-.31a18.507,18.507,0,0,0-4.705,3.412,14.7,14.7,0,0,0-.923,1.217c1.769.278,3.245,1.051,4.917.4.455-.176.789.033.861.546a2.363,2.363,0,0,0,1,1.474c.868.756,1.738,1.51,2.6,2.27A1.138,1.138,0,0,1,142,23.891a7.782,7.782,0,0,1-1.291-.365c-.813-.383-1.582-.865-2.391-1.257-5.9-2.854-11.664-2.36-17.272,1.833-.465.347-.908.73-1.37,1.082a1.231,1.231,0,0,1-1.561.174,6.326,6.326,0,0,1,.493-1.21c.487-.731,1.047-1.406,1.577-2.1Z" transform="translate(0 42.761)" fill="#00274d"/><path d="M136.187,146.183a35.1,35.1,0,0,1-21.8-8,29.591,29.591,0,0,1-6.056-7c-.211.3-.41.589-.61.873a33.6,33.6,0,0,1-7.217,7.6,26.431,26.431,0,0,1-9.124,4.443,32.2,32.2,0,0,1-8.243,1.112,29,29,0,0,1-10.494-1.97,23.369,23.369,0,0,1-8.01-5.173,29.575,29.575,0,0,1-5.65-7.994q-.1-.2-.2-.4c-.078-.161-.159-.326-.24-.488l-.384.275c-.556.4-1.131.811-1.7,1.226a21.77,21.77,0,0,1-7.7,3.746,20.165,20.165,0,0,1-4.863.6,22.407,22.407,0,0,1-9.891-2.43,18,18,0,0,1-8.238-8.031c-.977-1.861-1.673-3.315-2.255-4.716-.346-.832-.729-1.113-1.518-1.113h-.052l-.383,0A21.191,21.191,0,0,1,6.9,113.043c-4.944-4.5-7.432-10.456-7.4-17.7a22.008,22.008,0,0,1,1.508-7.875,27.944,27.944,0,0,1,3.979-6.9,23.536,23.536,0,0,1,5.7-5.324,1.528,1.528,0,0,0,.792-1.569,25.481,25.481,0,0,1,.626-7.641,26.773,26.773,0,0,1,2.939-7.358A28.59,28.59,0,0,1,27.773,47.216a25.289,25.289,0,0,1,10.785-2.44c.386,0,.779.009,1.167.027.085,0,.17.01.255.016.147.01.283.02.416.017a.965.965,0,0,0,.535-.1,1.514,1.514,0,0,0,.262-.61c.067-.246.122-.493.18-.755.064-.289.131-.588.215-.885,2.133-7.533,6.785-12.342,13.828-14.292a20.868,20.868,0,0,1,5.6-.831,14.809,14.809,0,0,1,5.168.905,1.3,1.3,0,0,0,.421.1c.088,0,.253,0,.4-.673a31.249,31.249,0,0,1,3.876-9.59A41.62,41.62,0,0,1,77.22,10.2a35.751,35.751,0,0,1,8.109-6.07,38.5,38.5,0,0,1,9.2-3.534A36.283,36.283,0,0,1,103.216-.5a34.128,34.128,0,0,1,16.733,4.484,27.687,27.687,0,0,1,7.543,6.2c.818.952,1.627,1.889,2.483,2.88l.779.9a18.3,18.3,0,0,1,5.911-5.517,16.9,16.9,0,0,1,7.992-2.106,15.1,15.1,0,0,1,8.017,1.921,17.036,17.036,0,0,1,5.45,5.2l.291-.234c.5-.4.966-.777,1.436-1.165a37.64,37.64,0,0,1,6.123-4.151,30.024,30.024,0,0,1,6.753-2.649,34.819,34.819,0,0,1,8.588-1.1A35.928,35.928,0,0,1,195.3,7.1a26.748,26.748,0,0,1,7.345,4.648,34.153,34.153,0,0,1,5.747,6.712,27.134,27.134,0,0,1,2.025,3.887,1.521,1.521,0,0,0,1.542,1.077,21.412,21.412,0,0,1,7.452,1.476,22.89,22.89,0,0,1,6.483,3.882,24.379,24.379,0,0,1,5.015,5.857,25.251,25.251,0,0,1,3.053,7.407,23.336,23.336,0,0,1-1.133,14.662,5.855,5.855,0,0,0-.6,1.9c.014.21.16.358.58.756.171.162.366.346.59.578a31.33,31.33,0,0,1,5.811,8.265,28.727,28.727,0,0,1,2.671,10.091c.881,11.012-2.47,20.452-9.96,28.059a36.1,36.1,0,0,1-8.119,6.272,29.844,29.844,0,0,1-9.409,3.34,34.427,34.427,0,0,1-5.932.551,23.709,23.709,0,0,1-6.91-.971,3.235,3.235,0,0,0-.769-.171c-.169,0-.284.084-.751.928a21.409,21.409,0,0,1-19.338,11.755c-.127,0-.255.005-.382.005a17.156,17.156,0,0,1-7.864-2.065l-1.915-.987c-.087.138-.164.263-.233.39a40.811,40.811,0,0,1-7.089,9.565,34.774,34.774,0,0,1-9.48,6.661,48.278,48.278,0,0,1-10.19,3.739A34.119,34.119,0,0,1,136.187,146.183Zm-27.929-16.642.42.5c.067.079.126.145.183.208a2.712,2.712,0,0,1,.305.384A29.68,29.68,0,0,0,122.5,142.088a32.629,32.629,0,0,0,13.692,3.095,33.117,33.117,0,0,0,7.133-.8,46.062,46.062,0,0,0,9.975-3.665,33.778,33.778,0,0,0,9.208-6.47,39.815,39.815,0,0,0,6.914-9.332c.1-.187.213-.363.332-.55.056-.088.114-.18.175-.279l.243-.395,2.735,1.41a16.17,16.17,0,0,0,7.405,1.954c.118,0,.237,0,.355,0a20.414,20.414,0,0,0,18.49-11.24c.429-.774.8-1.443,1.626-1.443a3.8,3.8,0,0,1,1.056.213,22.725,22.725,0,0,0,6.622.929,33.438,33.438,0,0,0,5.761-.536,28.847,28.847,0,0,0,9.094-3.228,35.1,35.1,0,0,0,7.893-6.1,33.671,33.671,0,0,0,7.931-12.494,35.8,35.8,0,0,0,1.745-14.783,27.731,27.731,0,0,0-2.577-9.741,30.334,30.334,0,0,0-5.627-8c-.208-.216-.394-.392-.558-.547a2.137,2.137,0,0,1-.89-1.415,5.845,5.845,0,0,1,.677-2.347,22.275,22.275,0,0,0,1.686-6.983,23.332,23.332,0,0,0-.6-7.062,24.252,24.252,0,0,0-2.932-7.114,23.38,23.38,0,0,0-4.809-5.617,21.893,21.893,0,0,0-6.2-3.713,20.414,20.414,0,0,0-7.105-1.407,2.487,2.487,0,0,1-2.437-1.665,26.339,26.339,0,0,0-1.947-3.746,33.155,33.155,0,0,0-5.576-6.516,25.749,25.749,0,0,0-7.071-4.476,34.935,34.935,0,0,0-13.6-2.861,33.819,33.819,0,0,0-8.341,1.066,29.023,29.023,0,0,0-6.528,2.561,36.643,36.643,0,0,0-5.959,4.041c-.475.392-.947.771-1.446,1.173l-.713.574-.43.347-.3-.462a16.341,16.341,0,0,0-5.42-5.335,13.978,13.978,0,0,0-7.066-1.794c-.141,0-.285,0-.428.005a15.91,15.91,0,0,0-7.524,1.977,17.62,17.62,0,0,0-5.939,5.741l-.365.549-.431-.5-1.2-1.394c-.857-.992-1.666-1.929-2.485-2.882a26.691,26.691,0,0,0-7.271-5.973A35.268,35.268,0,0,0,111.507,1.6,31.922,31.922,0,0,0,103.216.5a35.283,35.283,0,0,0-8.448,1.062A37.5,37.5,0,0,0,85.808,5a34.749,34.749,0,0,0-7.882,5.9,40.636,40.636,0,0,0-6.187,7.718,30.265,30.265,0,0,0-3.754,9.288c-.08.36-.323,1.457-1.378,1.457a2.227,2.227,0,0,1-.769-.16,13.624,13.624,0,0,0-4.82-.843,19.887,19.887,0,0,0-5.334.795,18.043,18.043,0,0,0-8.3,4.773,20.5,20.5,0,0,0-4.835,8.828c-.076.269-.137.541-.2.83-.058.261-.118.532-.191.8-.3,1.086-.7,1.424-1.741,1.447h-.069c-.153,0-.3-.01-.44-.02-.076-.005-.153-.011-.23-.014-.373-.017-.751-.026-1.122-.026A24.3,24.3,0,0,0,28.2,48.122,27.6,27.6,0,0,0,15.913,59.171a25.773,25.773,0,0,0-2.829,7.083,24.48,24.48,0,0,0-.6,7.342,2.515,2.515,0,0,1-1.24,2.476,22.538,22.538,0,0,0-5.462,5.1,26.947,26.947,0,0,0-3.838,6.655A21.012,21.012,0,0,0,.5,95.345C.465,102.3,2.843,108,7.569,112.3a20.247,20.247,0,0,0,14.362,5.444,2.4,2.4,0,0,1,2.509,1.729c.57,1.372,1.254,2.8,2.217,4.635a17.02,17.02,0,0,0,7.788,7.6,21.433,21.433,0,0,0,9.455,2.33,19.164,19.164,0,0,0,4.621-.574,20.792,20.792,0,0,0,7.354-3.582c.57-.419,1.148-.833,1.706-1.233l.753-.541.325-.234.3.267c.044.039.08.068.115.1a.859.859,0,0,1,.256.285c.123.239.241.482.355.716q.1.2.195.4a28.581,28.581,0,0,0,5.455,7.725,22.374,22.374,0,0,0,7.669,4.953,28,28,0,0,0,10.133,1.9,31.2,31.2,0,0,0,7.986-1.079,25.434,25.434,0,0,0,8.78-4.276,32.607,32.607,0,0,0,7-7.377c.205-.292.409-.585.628-.9l.354-.508Zm27.568,11.147a30.908,30.908,0,0,1-10.325-1.73,32.209,32.209,0,0,1-9.346-5.259c-.9-.718-1.768-1.5-2.608-2.256-.413-.372-.84-.756-1.263-1.126-.118-.1-.25-.2-.432-.342-.107-.082-.231-.176-.379-.291l-.645-.5.741-.345.732-.34c.405-.188.725-.336,1.044-.489a18.29,18.29,0,0,0,7.867-6.708,4.641,4.641,0,0,0,.569-1.13.894.894,0,0,0,0-.394.567.567,0,0,0-.065,0,.843.843,0,0,0-.276.048,1.91,1.91,0,0,0-.56.485,20.866,20.866,0,0,1-7.312,5.457,21.279,21.279,0,0,1-8.568,1.7h-.106a16.5,16.5,0,0,1-6.9-1.588c-.654-.3-1.329-.616-2-.856a2.249,2.249,0,0,0-.743-.123c-.066,0-.131,0-.195.008l-.02,0a.156.156,0,0,0,.027.1,2.372,2.372,0,0,0,.389.452l.078.078a14.188,14.188,0,0,0,7.623,3.8c.294.057.582.117.915.185l.568.117.838.171-.56.646a21.737,21.737,0,0,1-3.525,3.324,33.177,33.177,0,0,1-8.109,4.475,25.3,25.3,0,0,1-8.808,1.61c-.421,0-.848-.011-1.271-.033a26.735,26.735,0,0,1-12.7-3.71,27.206,27.206,0,0,1-9.326-9.873c-.038-.067-.076-.134-.114-.2a4.413,4.413,0,0,0-.3-.484,1.093,1.093,0,0,0-.864-.536,1.326,1.326,0,0,0-.595.167,8.217,8.217,0,0,0-1.219.838l-.028.021a19.3,19.3,0,0,1-11.945,4.131,19.574,19.574,0,0,1-8.546-1.976,19.242,19.242,0,0,1-6.892-5.681A20.307,20.307,0,0,1,26.6,110.355l0-.28a16.433,16.433,0,0,1,.632-5.886c.233-.661.019-.764-.208-.874a.627.627,0,0,0-.256-.075c-.19,0-.4.31-.551.57a19.5,19.5,0,0,0-2.354,6.214c-.128.733-.19,1.5-.249,2.244-.024.3-.049.611-.078.917-.048.511-.161,1.706-1.509,1.706-.066,0-.136,0-.209-.008a19.328,19.328,0,0,1-11.3-4.553,17.939,17.939,0,0,1-3.712-4.4A17.421,17.421,0,0,1,4.7,100.612,21.261,21.261,0,0,1,8.686,82.368a17.52,17.52,0,0,1,3.853-3.6L13,78.442l.266.5.556,1.039c.479.9.932,1.744,1.393,2.6.114.211.247.432.421.7.232.354.371.382.408.382a.276.276,0,0,0,.116-.036c.084-.044.308-.162.205-.841-.131-.869-.274-1.752-.411-2.6l-.125-.775a25.986,25.986,0,0,1,.2-9.433,26.248,26.248,0,0,1,3.228-8.211A27.061,27.061,0,0,1,24.7,55.267a24.886,24.886,0,0,1,6.867-4.275A25.352,25.352,0,0,1,41.2,48.986a23.135,23.135,0,0,1,8.395,1.61c.4.154.8.318,1.182.476.641.263,1.3.534,1.962.764a.778.778,0,0,0,.24.035.529.529,0,0,0,.222-.037c.033-.031.076-.1-.173-.516a2.012,2.012,0,0,0-.461-.474c-3.319-2.689-5.466-3.481-6.965-3.87a1.97,1.97,0,0,1-1.363-.809,2.344,2.344,0,0,1,.109-1.858,18.954,18.954,0,0,1,4.514-7.655,18.034,18.034,0,0,1,7.314-4.376,14.751,14.751,0,0,1,4.563-.727,16.455,16.455,0,0,1,4.695.714c1.286.383,1.509.847,1.565,2.139.052,1.2.109,2.415.164,3.593.051,1.086.1,2.208.152,3.313.025.561.091.835.275,1a1.54,1.54,0,0,0,.359-1.026c.036-.452.078-.909.119-1.352.064-.692.129-1.408.173-2.109a24.828,24.828,0,0,1,1.479-6.676c.766-2.2,1.477-4.11,2.171-5.838A8.452,8.452,0,0,1,73.2,23.086a3.411,3.411,0,0,1,1.1-.784c.091-.048.183-.1.275-.148,0-.077,0-.157,0-.239a2.191,2.191,0,0,1,.793-2.022l.192-.139-.141-.077.335-.46c.068-.094.133-.185.2-.273.138-.195.268-.379.414-.558a40.083,40.083,0,0,1,5.258-5.4l.019-.016a3.245,3.245,0,0,1,1.974-1.013,1.692,1.692,0,0,1,.637.127,2.543,2.543,0,0,1,.487-1.2,2.246,2.246,0,0,1,1.053-.577,3.349,3.349,0,0,0,1.424-.854,5.4,5.4,0,0,1,2.763-1.67l.3-.1a1.149,1.149,0,0,1,.382-.062,2.212,2.212,0,0,1,.73.151,4.073,4.073,0,0,1,.572.266A1.8,1.8,0,0,1,93.463,6.5c.382-.092.758-.216,1.157-.348.175-.058.355-.117.535-.174a4,4,0,0,1,1.2-.222,2.466,2.466,0,0,1,.835.143.469.469,0,0,0,.153.021,3.05,3.05,0,0,0,.713-.14l.217-.058a2.381,2.381,0,0,0,.572-.286l.169-.1a2.254,2.254,0,0,1,1.137-.357,1.656,1.656,0,0,1,1.393.823.637.637,0,0,0,.076.088,2.529,2.529,0,0,1,2.13-.982,6.418,6.418,0,0,1,.857.067l.243.033.563.974c.174-.147.333-.279.5-.407a2.41,2.41,0,0,1,1.467-.584,2.157,2.157,0,0,1,1.318.5,1.1,1.1,0,0,0,.715.268,1.714,1.714,0,0,0,.208-.014,9.012,9.012,0,0,1,1.109-.073,4.845,4.845,0,0,1,3.9,1.676.473.473,0,0,0,.407.218,1.359,1.359,0,0,0,.257-.03,2.756,2.756,0,0,1,.529-.05,2.665,2.665,0,0,1,1.122.238c1.42.675,2.825,1.432,4.185,2.165l.011.006a2.806,2.806,0,0,1,.858.756l.034.045a3.238,3.238,0,0,0,.646.727,3.69,3.69,0,0,0,1,.3l.337.077.164,1.2.126.029a2.227,2.227,0,0,1,1.175.524,2.55,2.55,0,0,1,.53,1.227c.02.08.039.161.06.243.2,0,.406-.01.618-.021l.11,0a1.138,1.138,0,0,1,1.228,1.122c.014.149.014.3.013.445a2.267,2.267,0,0,0,.03.478,2.64,2.64,0,0,0,.391.077c.174.027.371.057.585.11l1.532.381-1.472.57c-.146.056-.271.113-.382.163a2.07,2.07,0,0,1-.689.22,11.1,11.1,0,0,0-5.957,2.744c-.368.289-.751.552-1.122.806-.131.09-.266.182-.4.274-.146.191-.295.383-.439.568-.37.475-.753.967-1.088,1.47a2.764,2.764,0,0,0-.276.64h.029a1.033,1.033,0,0,0,.6-.28c.21-.16.421-.331.626-.5.242-.2.492-.4.748-.589a17.042,17.042,0,0,1,10.262-3.73,17.264,17.264,0,0,1,7.527,1.848c.4.193.788.407,1.165.615.4.22.811.447,1.222.64a3.7,3.7,0,0,0,.75.225c.027-.245-.1-.394-.319-.588-.639-.562-1.292-1.13-1.923-1.679l-.677-.589-.015-.013a2.793,2.793,0,0,1-1.147-1.767.378.378,0,0,0-.058-.177.28.28,0,0,0-.128.027,4.231,4.231,0,0,1-1.555.285,9.292,9.292,0,0,1-2.241-.363c-.446-.11-.907-.224-1.379-.3l-.822-.129.5-.665c.126-.168.235-.322.341-.47a6.943,6.943,0,0,1,.62-.792,19.283,19.283,0,0,1,4.828-3.507,1.468,1.468,0,0,1,.7-.191,1.824,1.824,0,0,1,.973.344,2.692,2.692,0,0,1,2.234-1.528,19.134,19.134,0,0,1,3.7-.387,14.044,14.044,0,0,1,2.949.3,5.643,5.643,0,0,1,1.218.384c.67.311,1.333.642,2.035.992.3.148.6.3.92.457l.245.121.059.518.049.43,1.263-.374.208.19c.148.135.3.268.456.409.365.325.743.661,1.106,1.024a1.6,1.6,0,0,1,.6,1.035,1.816,1.816,0,0,1-.5,1.12l-.006.008c-.863,1.134-1.755,2.307-2.689,3.415a3.328,3.328,0,0,0-.753,2.747h.019c.211,0,.445-.237.693-.488l.078-.078c1.6-1.6,3.222-3.229,4.794-4.8l.377-.377c.107-.107.215-.209.311-.3l.119-.113.1-.094.132-.032a.837.837,0,0,1,.2-.023.85.85,0,0,1,.274.045l-.021-.02.132-.32c.008-.019.015-.043.024-.069a.733.733,0,0,1,.237-.382,2.454,2.454,0,0,1,1.49-.625,1.808,1.808,0,0,1,.658.127.291.291,0,0,0,.1.024c.039,0,.09-.1.115-.23a2.655,2.655,0,0,1,1.733-1.95c.355-.165.716-.35,1.065-.528a19.018,19.018,0,0,1,1.939-.9,5.8,5.8,0,0,1,1.251-.276,4.905,4.905,0,0,0,1.05-.226,4.247,4.247,0,0,0,.847-.5,4.155,4.155,0,0,1,1.269-.682,35.4,35.4,0,0,1,9.139-1.284,28.023,28.023,0,0,1,6.654.79,3.635,3.635,0,0,1,1.462.892.471.471,0,0,0,.357.15,1.4,1.4,0,0,0,.192-.016,3.4,3.4,0,0,1,1.717.126c.96.381,1.916.809,2.84,1.223.517.231,1.051.47,1.578.7a1.4,1.4,0,0,1,.97,1.32c.012.242.077.242.167.242a.689.689,0,0,0,.124-.013,4,4,0,0,1,.716-.093c.519,0,.805.244,1.375.731l.34.29.031-.039.394.379c.537.516,1.089,1.035,1.623,1.537,1.191,1.12,2.423,2.278,3.593,3.495l.4.411-.192.141.2.179a1.78,1.78,0,0,1,.682,2.043.47.47,0,0,0-.032.338.369.369,0,0,0,.241.116,1.533,1.533,0,0,1,1.405,1.621.461.461,0,0,0,.126.252,5.388,5.388,0,0,1,1.571,2.8,10.891,10.891,0,0,0,.437,1.216,1.656,1.656,0,0,1-.056,1.28c-.2.422-.157.5.171.719a2.631,2.631,0,0,1,.982,1.44,16.272,16.272,0,0,1,.37,2.009c.031.218.062.443.1.661.058.372.106.743.156,1.135a4.45,4.45,0,0,0,1.573-1.455l.115-.145c.072-.09.12-.15-.247-.6a2.1,2.1,0,0,1-.271-2.553,2.193,2.193,0,0,1,.392-.468c.06-.059.117-.115.163-.168.063-.073.124-.15.189-.232-.07-.043-.147-.084-.227-.128a1.7,1.7,0,0,1-1.074-1.346c-.06-.5-.153-1.015-.243-1.509-.04-.22-.082-.448-.12-.672l-.1-.616.624.033c.234.012.458.028.675.042.435.029.847.057,1.25.057h.081a5.971,5.971,0,0,1,4.5,1.656,3.9,3.9,0,0,0,1.089.652c.237.112.481.227.737.368l.219.121.138.985a3.276,3.276,0,0,0,.395-.032,4.18,4.18,0,0,1,.495-.038,1.352,1.352,0,0,1,1.379,1.069l.069.222-.066.1.258-.249,1.843,1.545-.374,1.131,1.39.185.086,1.829a1.613,1.613,0,0,1,.575.215l.132.085a2.292,2.292,0,0,1,.979.962c.14.337.29.679.436,1.01a13.276,13.276,0,0,1,1.427,4.977,2.766,2.766,0,0,0,.378,1.066,2.379,2.379,0,0,1-.136,2.682c-.292.4-.281.654.053,1.133.759,1.092.747,1.6-.065,2.731-.4.551-.356.676-.127.918a1.425,1.425,0,0,1,.182,1.187c-.149.571-.326,1.136-.512,1.735-.074.237-.15.481-.227.735l-.174.57-.531-.27c-.225-.114-.444-.228-.656-.339-.46-.239-.895-.465-1.337-.668-1.051-.481-2.132-.948-3.177-1.4l-.256-.11a1.239,1.239,0,0,0-.268-.095c-.087.015-.176.028-.262.04a1.57,1.57,0,0,0-.617.16c-.029.033-.048.055-.019.145a1.345,1.345,0,0,0,.272.42,2.511,2.511,0,0,1,.221.31,26.1,26.1,0,0,1,9.608,9.633l.193.38-.009.007.166.219c.06.08.129.159.2.242A1.685,1.685,0,0,1,233,68.154a.232.232,0,0,0-.015.035.331.331,0,0,0,.148.066,1.947,1.947,0,0,1,1.374,1.413c.158.43.308.869.453,1.294q.1.3.206.6a1.978,1.978,0,0,1-.357,2.277.247.247,0,0,0-.084.125.17.17,0,0,0,.091.062,2.422,2.422,0,0,1,1.411,2.034l.018.079a21.5,21.5,0,0,1,.044,9.114c-.045.236-.1.472-.147.7-.089.4-.173.786-.223,1.173-.1.743-.25,1.924-1.481,2.206l.022.1a4.908,4.908,0,0,1,0,3.118,6.328,6.328,0,0,1-2.022,2.675,2.5,2.5,0,0,1-.854,2.578l-.112.085-.14.014h-.016l.292.286-.246.348c-.211.3-.42.612-.623.915a19.842,19.842,0,0,1-1.461,2,35.5,35.5,0,0,1-8.569,7.282,31.939,31.939,0,0,1-10.179,3.9,29.065,29.065,0,0,1-5.659.547c-.812,0-1.648-.033-2.484-.1a7.243,7.243,0,0,1-.828-.127c-.124-.024-.253-.049-.384-.071l-.476-.08.063-.478q.075-.568.148-1.115c.147-1.1.285-2.142.418-3.188a4.534,4.534,0,0,0,.047-.8c-.013-.229-.1-.257-.226-.274a.876.876,0,0,0-.115-.008c-.151,0-.25.04-.339.253a1.465,1.465,0,0,0-.055.188c-.011.042-.021.085-.033.127a22.345,22.345,0,0,1-4.894,9.138,22.082,22.082,0,0,1-8.26,5.585,18.074,18.074,0,0,1-15.764-.978,20.077,20.077,0,0,1-6.246-5.322,2.087,2.087,0,0,0-1-.865,1.118,1.118,0,0,0,.1,1.077c.174.317.345.642.511.956a24.329,24.329,0,0,0,1.394,2.417,2.75,2.75,0,0,1-.04,3.48c-.348.491-.688,1.009-1.018,1.51a28.366,28.366,0,0,1-2.1,2.911,40.437,40.437,0,0,1-10.27,8.729,33.223,33.223,0,0,1-12.346,4.215A36.8,36.8,0,0,1,135.827,140.688ZM112.74,129.4c.071.056.138.111.2.169.428.375.858.761,1.273,1.135.829.747,1.687,1.519,2.563,2.218a31.213,31.213,0,0,0,9.055,5.1,29.911,29.911,0,0,0,9.992,1.673,35.794,35.794,0,0,0,4.725-.323,32.227,32.227,0,0,0,11.977-4.089,39.443,39.443,0,0,0,10.014-8.516,27.63,27.63,0,0,0,2.021-2.81c.334-.508.679-1.032,1.037-1.537a1.773,1.773,0,0,0,.032-2.336,25.07,25.07,0,0,1-1.454-2.516c-.164-.311-.333-.632-.5-.942a2.085,2.085,0,0,1,.132-2.4l.16-.21.264.013a2.665,2.665,0,0,1,2.014,1.3,18.593,18.593,0,0,0,14.34,7.267,17.477,17.477,0,0,0,6.505-1.287,21.092,21.092,0,0,0,7.891-5.329,21.358,21.358,0,0,0,4.671-8.735c.009-.034.018-.067.026-.1a2.244,2.244,0,0,1,.1-.33,1.312,1.312,0,0,1,1.261-.867,1.869,1.869,0,0,1,.247.017,1.207,1.207,0,0,1,1.092,1.208,5.434,5.434,0,0,1-.053.988c-.134,1.049-.272,2.091-.419,3.194l-.086.644a5.9,5.9,0,0,0,.647.1c.811.062,1.621.094,2.408.094a28.062,28.062,0,0,0,5.464-.528,30.941,30.941,0,0,0,9.862-3.775,34.5,34.5,0,0,0,8.327-7.078,19.088,19.088,0,0,0,1.385-1.9c.129-.193.261-.391.395-.587l-.9-.885.177-.331c.1-.179.388-.724.914-.724a1.023,1.023,0,0,1,.738.4c.3-.36.337-.831.172-1.661l-.063-.313.258-.188a5.451,5.451,0,0,0,1.938-2.435,3.961,3.961,0,0,0-.051-2.521c-.048-.212-.1-.432-.144-.659l-.12-.6.625,0c.776,0,.943-.332,1.081-1.4.056-.429.149-.851.238-1.258.049-.222.1-.451.142-.673a20.52,20.52,0,0,0-.035-8.7l-.019-.08c-.17-.725-.291-1.144-.782-1.324a1.108,1.108,0,0,1-.725-.791,1.133,1.133,0,0,1,.361-1.048c.342-.336.327-.616.113-1.236q-.105-.3-.208-.607c-.143-.419-.291-.853-.445-1.272-.192-.522-.354-.718-.643-.78a1.2,1.2,0,0,1-.853-.627,1.012,1.012,0,0,1,.042-.917.606.606,0,0,0-.058-.793.855.855,0,0,1-.365.242.944.944,0,0,1-.289.044,1.788,1.788,0,0,1-.492-.087c-.065-.018-.126-.035-.174-.044l-.521-.094.124-.515c.012-.049.021-.112.032-.177a1.421,1.421,0,0,1,.235-.676,1.63,1.63,0,0,1,.379-.349,25.343,25.343,0,0,0-9.085-8.865l-.012-.006h0l-.106-.054-.04-.059h0l-.033-.051-.067-.1a1.839,1.839,0,0,0-.143-.207c-.818-.945-.507-1.582-.249-1.877a1.906,1.906,0,0,1,1.23-.492c.083-.012.162-.023.233-.035a.944.944,0,0,1,.165-.014,1.679,1.679,0,0,1,.668.177l.256.11c1.05.453,2.136.922,3.2,1.408.465.213.911.445,1.382.69l.119.062.053-.169c.183-.587.356-1.142.5-1.691a.835.835,0,0,0,.017-.291,1.555,1.555,0,0,1,.083-2.144,1.96,1.96,0,0,0,.433-.811c.005-.153-.1-.368-.377-.766a1.777,1.777,0,0,1-.039-2.294,1.4,1.4,0,0,0,.057-1.628,3.575,3.575,0,0,1-.492-1.5,12.322,12.322,0,0,0-1.343-4.608c-.147-.335-.3-.682-.443-1.029-.07-.169-.36-.354-.593-.5l-.142-.092a1.179,1.179,0,0,0-.335-.093c-.092-.018-.2-.037-.3-.066l-.353-.094-.082-1.746-1.76-.234.54-1.633L223.292,34l-.874.842-.343-.275a1.2,1.2,0,0,1-.545-1.134,1.675,1.675,0,0,1,.4-.776.32.32,0,0,0-.33-.148,3.4,3.4,0,0,0-.378.031,4.2,4.2,0,0,1-.5.038,1.475,1.475,0,0,1-.691-.151l-.23-.119-.151-1.075c-.156-.079-.311-.153-.463-.224a4.659,4.659,0,0,1-1.367-.847,4.973,4.973,0,0,0-3.793-1.366h-.081c-.437,0-.865-.029-1.317-.059l-.03,0,.007.037c.093.509.189,1.035.253,1.57.033.278.164.371.559.585a2.338,2.338,0,0,1,.835.649l.228.308-.238.3-.169.215c-.114.146-.221.284-.335.417-.075.087-.153.164-.223.232a1.425,1.425,0,0,0-.226.255,1.126,1.126,0,0,0,.177,1.417,1.4,1.4,0,0,1,.256,1.854l-.113.143a4.353,4.353,0,0,1-2.7,1.964l-.5.077-.068-.5c-.026-.194-.05-.381-.074-.563-.05-.39-.1-.758-.154-1.121-.035-.226-.067-.454-.1-.675a15.292,15.292,0,0,0-.344-1.886,1.655,1.655,0,0,0-.571-.87,1.381,1.381,0,0,1-.519-1.986.753.753,0,0,0,.046-.433,11.793,11.793,0,0,1-.48-1.327,4.573,4.573,0,0,0-1.247-2.326,1.427,1.427,0,0,1-.5-1.007c-.009-.436-.131-.571-.593-.66a1.275,1.275,0,0,1-.92-.6,1.357,1.357,0,0,1-.043-1.168.6.6,0,0,0-.1-.65,1.463,1.463,0,0,1-.934.49c-.433,0-.684-.319-1.031-.762l-.318-.406,1.126-.83c-1.033-1.052-2.112-2.066-3.159-3.05-.4-.376-.811-.763-1.219-1.15a1.266,1.266,0,0,1-.393.362,1.026,1.026,0,0,1-.508.116c-.074,0-.146-.005-.209-.009s-.1-.007-.14-.007h-.017l-.541.016.028-.541c0-.065,0-.137,0-.213a2,2,0,0,1,.086-.723,1,1,0,0,1,.178-.3c-.191-.151-.254-.174-.345-.174a3.539,3.539,0,0,0-.533.077,1.687,1.687,0,0,1-.306.029,1.143,1.143,0,0,1-1.166-1.193c-.013-.257-.064-.32-.367-.451-.533-.23-1.071-.471-1.59-.7-.915-.409-1.86-.833-2.8-1.206a2.481,2.481,0,0,0-1.209-.065,2.369,2.369,0,0,1-.331.026,1.47,1.47,0,0,1-1.019-.4,2.819,2.819,0,0,0-1.038-.67,27.022,27.022,0,0,0-6.416-.761,34.4,34.4,0,0,0-8.88,1.249,3.4,3.4,0,0,0-.955.536,5.03,5.03,0,0,1-1.062.618,5.729,5.729,0,0,1-1.266.282,4.972,4.972,0,0,0-1.041.222,18,18,0,0,0-1.836.855c-.357.183-.727.372-1.1.545-.664.308-1.048.6-1.174,1.236a1.142,1.142,0,0,1-1.1,1.036,1.28,1.28,0,0,1-.464-.092.8.8,0,0,0-.295-.059,1.12,1.12,0,0,0-.606.219l.4.376.294.275-.206.346c-.112.188-.452.761-1.018.761a1.245,1.245,0,0,1-.846-.442c-.029-.028-.065-.063-.1-.094-.066.063-.136.13-.2.2l-.377.377c-1.572,1.573-3.2,3.2-4.793,4.8l-.075.075a2.028,2.028,0,0,1-1.4.786,1.54,1.54,0,0,1-.687-.173l-.223-.111-.046-.245a4.4,4.4,0,0,1,.925-3.863c.917-1.089,1.8-2.252,2.658-3.376l.006-.008a1.574,1.574,0,0,0,.3-.478,1.36,1.36,0,0,0-.306-.365c-.343-.342-.71-.669-1.065-.985l-.255-.228-1.866.552-.067-.592c-.046-.407-.085-.747-.113-1l-.679-.338c-.7-.347-1.353-.675-2.01-.98a4.705,4.705,0,0,0-1.007-.313,13.041,13.041,0,0,0-2.738-.282,18.15,18.15,0,0,0-3.505.368c-.845.166-1.32.382-1.572,1.105a.754.754,0,0,1-.468.427c-.039.017-.076.033-.1.048l-.226.127-.234-.112a3.662,3.662,0,0,1-.339-.191,1.034,1.034,0,0,0-.457-.2.483.483,0,0,0-.226.07,18.068,18.068,0,0,0-4.582,3.318,4.893,4.893,0,0,0-.421.531c.231.052.456.107.677.162a8.566,8.566,0,0,0,2,.334,3.248,3.248,0,0,0,1.194-.218,1.327,1.327,0,0,1,.479-.1,1.087,1.087,0,0,1,1.058,1.038,1.89,1.89,0,0,0,.814,1.153l.015.013.676.589c.633.55,1.287,1.119,1.928,1.683a1.63,1.63,0,0,1,.437,2.147l-.18.376-.4-.109c-.124-.034-.252-.062-.387-.093a4.648,4.648,0,0,1-.986-.3c-.439-.207-.865-.441-1.277-.668-.366-.2-.744-.409-1.119-.591a16.276,16.276,0,0,0-7.092-1.749,16.069,16.069,0,0,0-9.663,3.531c-.241.18-.483.376-.718.566-.21.17-.428.346-.649.514a1.973,1.973,0,0,1-1.2.484,1.775,1.775,0,0,1-.92-.28l-.361-.218.155-.393c.044-.112.084-.232.127-.36a3.828,3.828,0,0,1,.415-.945c.356-.533.75-1.04,1.131-1.529.153-.2.311-.4.463-.6l.211.16-.123-.26c.17-.12.343-.238.51-.353.374-.256.728-.5,1.07-.767a12.977,12.977,0,0,1,5.81-2.87,1.788,1.788,0,0,1-.23-1.089c0-.128,0-.249-.009-.351-.019-.2-.044-.215-.232-.215l-.058,0c-.276.014-.545.02-.782.025l-.248.006-.374.011-.115-.356c-.076-.236-.133-.466-.182-.669a2.06,2.06,0,0,0-.275-.767,1.581,1.581,0,0,0-.677-.246c-.167-.038-.34-.076-.513-.133l-.3-.1-.158-1.156a2.524,2.524,0,0,1-1.876-1.312l-.034-.045a1.8,1.8,0,0,0-.54-.485l-.011-.006c-1.348-.726-2.743-1.478-4.14-2.142a1.649,1.649,0,0,0-.692-.141,1.751,1.751,0,0,0-.336.031,2.333,2.333,0,0,1-.449.048A1.459,1.459,0,0,1,113.872,8a3.851,3.851,0,0,0-3.146-1.329,8.02,8.02,0,0,0-.987.065,2.676,2.676,0,0,1-.33.021,2.076,2.076,0,0,1-1.318-.471,1.21,1.21,0,0,0-.714-.3,1.479,1.479,0,0,0-.857.377c-.182.14-.364.293-.574.471-.108.091-.223.189-.35.294l-.456.378-.911-1.574a4.588,4.588,0,0,0-.482-.029,1.576,1.576,0,0,0-1.579.977l-.3.594-.485-.459c-.082-.078-.159-.144-.232-.208a2.337,2.337,0,0,1-.432-.447c-.237-.347-.437-.387-.567-.387a1.332,1.332,0,0,0-.632.22l-.156.094a3.172,3.172,0,0,1-.843.4l-.2.054a3.791,3.791,0,0,1-.976.175,1.456,1.456,0,0,1-.486-.078,1.481,1.481,0,0,0-.5-.086,3.034,3.034,0,0,0-.9.176c-.172.054-.349.112-.519.169-.4.132-.815.269-1.238.371-.5.119-.689.3-.753.729a1.941,1.941,0,0,1-.18.525c-.029.064-.06.13-.086.2l-.2.513-.49-.254c-.122-.063-.234-.125-.342-.185a4.222,4.222,0,0,0-.592-.291,1.412,1.412,0,0,0-.394-.093.166.166,0,0,0-.05.005l-.308.107a4.549,4.549,0,0,0-2.3,1.345,3.9,3.9,0,0,1-1.24.923,3.841,3.841,0,0,1-.657.261,1.532,1.532,0,0,0-.614.29,2.143,2.143,0,0,0-.273.82c-.045.208-.091.424-.157.648l-.22.745-.587-.508a.994.994,0,0,0-.635-.293,2.6,2.6,0,0,0-1.332.78l-.019.016a39.1,39.1,0,0,0-5.127,5.265c-.081.1-.161.206-.241.318.053.031.1.064.156.1a2.761,2.761,0,0,1,.345.306c.037.037.073.073.111.108l.337.316-.288.361c-.314.394-.562.705-1,.705a1.607,1.607,0,0,1-.822-.308,1.739,1.739,0,0,0-.16.979,4.923,4.923,0,0,1-.02.6l-.027.24-.205.128c-.19.118-.375.216-.555.311a2.628,2.628,0,0,0-.8.538,7.439,7.439,0,0,0-1.152,1.952c-.689,1.713-1.393,3.608-2.155,5.794a23.871,23.871,0,0,0-1.425,6.41c-.045.715-.111,1.439-.175,2.138-.04.44-.082.894-.118,1.34a2.282,2.282,0,0,1-1.084,1.976l-.206.112-.218-.086a1.961,1.961,0,0,1-1.122-2.008c-.048-1.1-.1-2.225-.152-3.31-.055-1.179-.113-2.4-.164-3.6a2.063,2.063,0,0,0-.149-.891c-.078-.111-.282-.208-.7-.333a15.456,15.456,0,0,0-4.409-.672,13.753,13.753,0,0,0-4.254.678,17.046,17.046,0,0,0-6.914,4.13A17.967,17.967,0,0,0,45.3,44.614c-.071.219-.286.884-.184,1.069.056.1.3.21.738.322a19.862,19.862,0,0,1,7.344,4.061,2.927,2.927,0,0,1,.687.734c.17.283.688,1.142-.018,1.78a1.353,1.353,0,0,1-.887.29,1.775,1.775,0,0,1-.57-.091c-.682-.239-1.358-.515-2.011-.783-.382-.156-.776-.318-1.165-.469A22.139,22.139,0,0,0,41.2,49.986a24.36,24.36,0,0,0-9.249,1.931,23.889,23.889,0,0,0-6.59,4.1,26.063,26.063,0,0,0-5.244,6.248,25.251,25.251,0,0,0-3.105,7.9,24.989,24.989,0,0,0-.191,9.071q.062.387.125.774c.138.856.281,1.741.413,2.615a1.612,1.612,0,0,1-.729,1.875,1.243,1.243,0,0,1-.582.151,1.53,1.53,0,0,1-1.244-.834c-.189-.289-.337-.533-.465-.77-.462-.857-.915-1.7-1.395-2.6l-.286-.534a16.159,16.159,0,0,0-3.179,3.066,20.26,20.26,0,0,0-3.927,8.3,21.976,21.976,0,0,0,.13,9.125,16.424,16.424,0,0,0,1.975,5.013,16.942,16.942,0,0,0,3.505,4.155,18.335,18.335,0,0,0,10.725,4.314c.048,0,.094.005.136.005.291,0,.438,0,.513-.8.028-.3.053-.606.077-.9.061-.766.125-1.558.261-2.337a20.472,20.472,0,0,1,2.467-6.533,1.749,1.749,0,0,1,1.422-1.079,1.574,1.574,0,0,1,.692.176,1.5,1.5,0,0,1,.715,2.107,15.671,15.671,0,0,0-.575,5.537l0,.281a19.327,19.327,0,0,0,3.884,11.589,18.237,18.237,0,0,0,6.533,5.384,18.568,18.568,0,0,0,8.107,1.874,18.3,18.3,0,0,0,11.331-3.92l.027-.021a8.947,8.947,0,0,1,1.376-.939,2.306,2.306,0,0,1,1.052-.277,2.046,2.046,0,0,1,1.666.94,5.218,5.218,0,0,1,.367.594c.035.063.07.126.106.188a26.22,26.22,0,0,0,8.98,9.518,25.748,25.748,0,0,0,12.227,3.565c.405.021.816.031,1.22.031a24.3,24.3,0,0,0,8.46-1.548,32.181,32.181,0,0,0,7.863-4.342,19.765,19.765,0,0,0,2.789-2.531c-.217-.045-.419-.086-.623-.125a15.152,15.152,0,0,1-8.14-4.079l-.075-.074a3.193,3.193,0,0,1-.551-.663,1.11,1.11,0,0,1-.045-1.07,1,1,0,0,1,.818-.532c.092-.008.187-.012.282-.012a3.26,3.26,0,0,1,1.077.181c.719.256,1.415.578,2.089.89a15.511,15.511,0,0,0,6.483,1.5h.1a20.288,20.288,0,0,0,8.168-1.612,19.876,19.876,0,0,0,6.961-5.2,2.551,2.551,0,0,1,.96-.761,1.831,1.831,0,0,1,.627-.111,1.087,1.087,0,0,1,.759.256,1.569,1.569,0,0,1,.268,1.419,5.487,5.487,0,0,1-.685,1.388,19.259,19.259,0,0,1-8.28,7.075C113.457,129.063,113.14,129.21,112.74,129.4Z" transform="translate(0 42.761)" fill="#00274d"/><path d="M45.543,20.033a6.194,6.194,0,0,1-1.076-.109,33.26,33.26,0,0,0-16.351-.153,22.479,22.479,0,0,0-2.192.624c-.681.225-.81.418-.608,1.12.417,1.446.865,2.882,1.366,4.29.264.741.572.867,1.308.594,5.02-1.862,10.113-2.039,15.221-1.633a28.877,28.877,0,0,1,13.282,4.585A1.953,1.953,0,0,1,57.512,30.7c-.723-.192-1.326-.294-1.888-.509a38,38,0,0,0-14.008-2.462,44,44,0,0,0-10.324,1.559c-.813.2-1.635.352-2.445.569-.767.205-.912.482-.727,1.3.276,1.219.571,2.431.886,3.769a.8.8,0,0,1-.907-.619c-.328-.851-.646-1.708-.972-2.56-.362-.945-.644-1.092-1.53-.671q-1.982.94-3.937,1.959c-.85.445-.923.725-.5,1.614.372.78.787,1.535,1.156,2.318.165.349.264.737.428,1.212a1.257,1.257,0,0,1-1.25-.759c-.455-.723-.884-1.467-1.337-2.192-.519-.831-.835-.894-1.647-.281a38.632,38.632,0,0,0-8.048,7.737c-1.209,1.632-2.473,3.218-3.8,4.935-.087-.212-.28-.445-.25-.654A7.465,7.465,0,0,1,6.8,45.474a24.406,24.406,0,0,1,5.567-8.814c1.416-1.441,2.87-2.837,4.305-4.255.3-.293.587-.594,1-1.011l-3.2-4.932-3.945,3.712a1.359,1.359,0,0,1,.3-1.4q.93-1.381,1.895-2.734c.764-1.07.784-1.182.109-2.239Q6.877,14.5.917,5.2a10.54,10.54,0,0,1-.571-.941A2.93,2.93,0,0,1,.825.833,2.179,2.179,0,0,1,3.757.376a4.259,4.259,0,0,1,1.364,1.45C5.811,3.029,6.388,4.314,7,5.573q3.936,8.109,7.866,16.221c.175.36.372.706.6,1.141L21.825,18.9c-.166-.506-.273-.906-.425-1.282q-2.53-6.283-5.074-12.559c-.093-.23-.208-.45-.294-.683a2.311,2.311,0,0,1,1.958-3.3,1.447,1.447,0,0,1,1.5.958,19.565,19.565,0,0,1,.928,2.44c1.162,3.929,2.294,7.871,3.436,11.808.07.241.132.486.209.724.3.952.434,1,1.388.75A30.109,30.109,0,0,1,29.4,16.8c3.94-.475,7.879-.691,11.669.549a28.086,28.086,0,0,1,3.34,1.411,7.741,7.741,0,0,1,1.255.943Zm-20.3,7.17c-.675-1.759-1.316-3.416-1.947-5.078-.227-.6-.6-.692-1.126-.4-1.533.852-3.079,1.673-4.6,2.55-.761.439-.884.842-.535,1.684q.758,1.83,1.611,3.607c.425.885.718.976,1.614.514,1.409-.727,2.8-1.494,4.195-2.261A6.994,6.994,0,0,0,25.246,27.2Z" transform="translate(61.422 5.159)" fill="#00274d"/><path d="M2.537-.5a2.77,2.77,0,0,1,1.486.453A4.774,4.774,0,0,1,5.554,1.577c.538.937,1.011,1.93,1.469,2.89.139.292.283.593.425.887q2.052,4.227,4.1,8.456,1.882,3.883,3.765,7.765c.1.211.213.417.339.65l5.578-3.542-.036-.114c-.089-.287-.166-.535-.259-.766C19.4,13.979,17.825,10.094,16.3,6.336l-.442-1.092c-.036-.09-.077-.18-.121-.275-.061-.134-.124-.273-.179-.422a3.051,3.051,0,0,1,.207-2.716A2.776,2.776,0,0,1,17.948.573c.062-.005.125-.008.186-.008a1.939,1.939,0,0,1,1.814,1.259,19.8,19.8,0,0,1,.951,2.5c.856,2.893,1.709,5.841,2.533,8.691q.451,1.56.9,3.12c.025.087.049.174.073.26.043.157.085.3.131.449a2.461,2.461,0,0,0,.21.531h.011a2.917,2.917,0,0,0,.564-.112c.333-.087.673-.183,1-.276a20.062,20.062,0,0,1,3.012-.684,44.143,44.143,0,0,1,5.361-.378,20.735,20.735,0,0,1,6.523.948,28.465,28.465,0,0,1,3.4,1.435,4.565,4.565,0,0,1,.981.7c.125.107.243.208.363.3l.291.224-.38,1.035-.383-.036c-.1-.01-.209-.014-.323-.02a3.665,3.665,0,0,1-.84-.105A29.878,29.878,0,0,0,36.3,19.328a37.561,37.561,0,0,0-8.079.932,22.255,22.255,0,0,0-2.143.611,1.3,1.3,0,0,0-.352.151,1.191,1.191,0,0,0,.068.356c.456,1.582.9,2.976,1.357,4.261.14.394.218.394.256.394a1.326,1.326,0,0,0,.407-.1,31.648,31.648,0,0,1,11.168-1.844c1.336,0,2.731.059,4.266.181a27.941,27.941,0,0,1,7.039,1.5,31.965,31.965,0,0,1,6.47,3.166A2.446,2.446,0,0,1,58,30.591l.188.809-.8-.213c-.235-.062-.458-.115-.673-.166a9.936,9.936,0,0,1-1.266-.359A37.726,37.726,0,0,0,41.62,28.233a43.723,43.723,0,0,0-10.206,1.544c-.37.093-.744.174-1.105.254-.44.1-.894.2-1.332.313-.357.1-.408.171-.412.179s-.047.128.044.528c.193.851.394,1.7.607,2.591.091.382.184.772.278,1.173l.139.59-.606.024-.088,0a1.285,1.285,0,0,1-1.306-.941c-.181-.47-.362-.95-.537-1.413q-.217-.575-.436-1.148c-.139-.364-.26-.573-.332-.573a1.417,1.417,0,0,0-.517.175c-1.352.641-2.67,1.3-3.919,1.95-.416.217-.473.317-.481.342s-.013.166.2.613c.176.369.367.742.551,1.1.2.4.411.8.606,1.217a6.806,6.806,0,0,1,.307.834c.044.137.089.278.141.428l.217.626-.661.037c-.043,0-.086,0-.127,0a1.756,1.756,0,0,1-1.574-1c-.239-.38-.474-.77-.7-1.148-.207-.345-.422-.7-.637-1.046-.281-.449-.379-.455-.38-.455-.041,0-.174.03-.542.307a36.649,36.649,0,0,0-7.947,7.636c-.83,1.12-1.672,2.2-2.563,3.346-.4.518-.82,1.053-1.239,1.6l-.528.685-.33-.8c-.017-.04-.046-.094-.078-.152a1.22,1.22,0,0,1-.2-.764A7.944,7.944,0,0,1,6.332,45.3a25,25,0,0,1,5.68-8.993c.954-.971,1.94-1.935,2.893-2.868.465-.455.947-.926,1.418-1.392.192-.189.384-.385.606-.611l.106-.108-2.657-4.093-4.06,3.82-.261-.71a1.788,1.788,0,0,1,.315-1.789l.043-.063c.624-.927,1.264-1.851,1.9-2.745a2.632,2.632,0,0,0,.5-.862,2.041,2.041,0,0,0-.408-.817Q8.785,18.406,5.157,12.743L.5,5.466.382,5.29A8.442,8.442,0,0,1-.1,4.48,3.44,3.44,0,0,1,.456.5,2.8,2.8,0,0,1,2.537-.5ZM15.28,23.647l-.253-.478c-.075-.142-.147-.274-.215-.4-.141-.26-.274-.505-.4-.757q-1.884-3.882-3.766-7.766Q8.6,10.019,6.549,5.791c-.144-.3-.289-.6-.429-.894-.45-.943-.914-1.919-1.433-2.822A3.743,3.743,0,0,0,3.491.8,1.788,1.788,0,0,0,2.537.5a1.829,1.829,0,0,0-1.342.67,2.442,2.442,0,0,0-.4,2.862,7.571,7.571,0,0,0,.428.714l.117.181L6,12.2q3.628,5.664,7.255,11.329a2.426,2.426,0,0,1,.564,1.411,2.8,2.8,0,0,1-.686,1.387c-.48.672-.961,1.362-1.435,2.057l2.869-2.7.326.5,3.2,4.932.219.337-.283.286-.386.393c-.225.229-.42.428-.617.623-.473.467-.955.939-1.421,1.395-.95.929-1.932,1.891-2.879,2.854a24,24,0,0,0-5.454,8.635q-.119.325-.2.639l.443-.57c.888-1.14,1.726-2.217,2.549-3.327a39.684,39.684,0,0,1,8.148-7.839,2.008,2.008,0,0,1,1.144-.509c.571,0,.928.444,1.228.924.22.352.437.712.646,1.061.125.207.252.419.38.629-.111-.223-.224-.444-.335-.662-.187-.366-.381-.745-.563-1.127a1.862,1.862,0,0,1-.255-1.333,1.7,1.7,0,0,1,.974-.939c1.26-.659,2.591-1.321,3.954-1.968a2.217,2.217,0,0,1,.946-.271c.8,0,1.1.791,1.266,1.216q.137.358.272.717c-.079-.34-.157-.678-.234-1.016-.246-1.088.058-1.619,1.085-1.894.46-.123.926-.225,1.377-.324.355-.078.721-.158,1.077-.247a44.636,44.636,0,0,1,10.441-1.574,38.713,38.713,0,0,1,14.191,2.5,6.078,6.078,0,0,0,.656.2c-.071-.052-.148-.1-.232-.155a30.965,30.965,0,0,0-6.267-3.068,26.941,26.941,0,0,0-6.787-1.442c-1.508-.12-2.878-.178-4.187-.178a30.669,30.669,0,0,0-10.82,1.781,2.185,2.185,0,0,1-.755.164c-.821,0-1.1-.769-1.2-1.059-.464-1.3-.914-2.717-1.376-4.319-.273-.949-.021-1.419.932-1.733a23.187,23.187,0,0,1,2.241-.638,38.56,38.56,0,0,1,8.3-.955,30.891,30.891,0,0,1,8.23,1.1,2.127,2.127,0,0,0-.341-.211,27.642,27.642,0,0,0-3.28-1.387,19.756,19.756,0,0,0-6.212-.9,43.2,43.2,0,0,0-5.241.371,19.322,19.322,0,0,0-2.86.654c-.334.094-.679.191-1.02.281a3.339,3.339,0,0,1-.818.145c-.781,0-1-.68-1.173-1.226-.053-.163-.1-.328-.142-.487-.023-.083-.046-.166-.07-.249q-.453-1.56-.9-3.12C21.648,10.447,20.8,7.5,19.941,4.611a18.835,18.835,0,0,0-.9-2.377.951.951,0,0,0-1-.664,1.8,1.8,0,0,0-1.418.8A2.064,2.064,0,0,0,16.5,4.2c.043.116.1.232.152.355.046.1.093.2.137.314l.442,1.092c1.52,3.758,3.092,7.643,4.632,11.468.108.269.195.547.287.843.046.149.094.3.149.471l.121.37-.328.209-6.357,4.037Zm7.4-2.582h0a1.145,1.145,0,0,1,1.083.881c.451,1.189.9,2.36,1.379,3.6l.568,1.477.131.342-.287.228c-.11.088-.206.169-.3.247a3.379,3.379,0,0,1-.562.418c-1.375.757-2.793,1.537-4.207,2.267a2.279,2.279,0,0,1-1.039.33c-.74,0-1.075-.7-1.255-1.071-.567-1.182-1.113-2.4-1.622-3.632a1.581,1.581,0,0,1,.747-2.308c.982-.566,1.988-1.116,2.961-1.648.541-.3,1.1-.6,1.647-.906A1.548,1.548,0,0,1,22.682,21.066Zm.01,1h-.01a.613.613,0,0,0-.267.1c-.55.306-1.111.613-1.653.909-.968.53-1.969,1.077-2.941,1.637-.27.155-.419.289-.456.408a1.107,1.107,0,0,0,.134.651c.5,1.212,1.041,2.417,1.6,3.582.156.325.282.5.354.5a1.644,1.644,0,0,0,.58-.219c1.4-.723,2.814-1.5,4.18-2.253a2.67,2.67,0,0,0,.4-.3l.04-.034-.439-1.141c-.477-1.241-.928-2.413-1.38-3.6-.073-.193-.136-.234-.139-.236Z" transform="translate(61.422 5.159)" fill="#00274d"/><path d="M15.517,0c2.5-.068,3.222,1.1,2.194,3.721Q12.029,18.223,6.294,32.7c-1.616,4.086-3.271,8.154-4.912,12.229a4.21,4.21,0,0,1-.494,1.039.949.949,0,0,1-.7.263c-.078,0-.2-.416-.181-.634a6.138,6.138,0,0,1,.27-1.13q6.246-20.88,12.5-41.758c.062-.206.134-.41.2-.615C13.576.22,13.782.05,15.517,0Z" transform="translate(190.032 0)" fill="#00274d"/><path d="M15.72-.5a2.9,2.9,0,0,1,2.586,1c.515.754.472,1.868-.13,3.4-3.309,8.444-6.83,17.381-11.416,28.976-1.189,3.007-2.42,6.055-3.61,9q-.652,1.615-1.3,3.23c-.027.067-.053.135-.079.2a3.593,3.593,0,0,1-.487.959A1.427,1.427,0,0,1,.2,46.73H.176a.541.541,0,0,1-.4-.187,1.566,1.566,0,0,1-.273-1,6.005,6.005,0,0,1,.263-1.138l.026-.086C4.1,29.93,8.5,15.222,12.291,2.565c.042-.141.088-.278.133-.411.024-.071.048-.142.071-.214A4.04,4.04,0,0,1,13.5-.023a3.153,3.153,0,0,1,2-.474ZM.5,45.652a2.836,2.836,0,0,0,.333-.692c.028-.073.056-.146.085-.218q.651-1.616,1.3-3.231c1.189-2.946,2.419-5.991,3.607-9,4.586-11.594,8.107-20.53,11.415-28.973.459-1.172.541-2.028.235-2.476C17.224.69,16.632.5,15.72.5l-.19,0A2.522,2.522,0,0,0,14.137.75a3.548,3.548,0,0,0-.691,1.5c-.024.075-.049.149-.074.223-.044.132-.086.256-.123.381C9.46,15.508,5.057,30.217.751,44.609L.725,44.7a5.186,5.186,0,0,0-.225.949S.5,45.649.5,45.652Z" transform="translate(190.032 0)" fill="#00274d"/><path d="M0,32.541c.267-.622.51-1.258.805-1.865Q7.523,16.9,14.263,3.131A12.989,12.989,0,0,1,15.737.745a1.8,1.8,0,0,1,2.745-.2,1.934,1.934,0,0,1,.195,2.633Q10.743,16.216,2.793,29.246c-.557.912-1.138,1.809-1.736,2.691a7.975,7.975,0,0,1-.779.861Z" transform="translate(196.471 13.647)" fill="#ff4e00"/><path d="M.308,33.506-.6,32.669l.14-.325c.084-.2.168-.4.249-.594.176-.426.359-.866.566-1.293C5.336,20.242,9.49,11.727,13.815,2.91A13.475,13.475,0,0,1,15.347.433,2.321,2.321,0,0,1,17.164-.5a2.491,2.491,0,0,1,1.649.667A2.417,2.417,0,0,1,19.1,3.435C14.056,11.732,8.861,20.26,3.22,29.507c-.537.88-1.109,1.767-1.749,2.711a4.713,4.713,0,0,1-.583.669c-.085.086-.165.167-.241.249ZM17.164.5a1.327,1.327,0,0,0-1.036.558,12.482,12.482,0,0,0-1.415,2.293C10.476,11.987,6.4,20.334,1.558,30.275c.281-.435.549-.863.809-1.289C8.007,19.739,13.2,11.212,18.25,2.915a1.494,1.494,0,0,0-.1-2A1.511,1.511,0,0,0,17.164.5Z" transform="translate(196.471 13.647)" fill="#ff4e00"/></g></g><g transform="matrix(0.985, -0.174, 0.174, 0.985, 151.174, 330.901)"><path d="M146.113,141.711l-13.189-1.662,11.325-6.961-2.5-13.057,10.12,8.619,11.647-6.408-5.07,12.288,9.694,9.1L154.89,142.6l-5.656,12.03Z" transform="translate(-132.924 -120.031)" fill="#00274d"/><path d="M162.483,141.649l-9.034-.7-3.855,8.2-2.128-8.808-8.99-1.133,7.72-4.745-1.7-8.9,6.9,5.875,7.939-4.368-3.456,8.376Z" transform="translate(-133.667 -120.772)" fill="#f4f2d6"/></g><g transform="translate(-940.753 142.112) rotate(-11)"><path d="M27.529-26.734h3.7A3,3,0,0,1,33.7-25.441a3,3,0,0,1,.522,1.963,10.757,10.757,0,0,1,1.249-.928,9.823,9.823,0,0,1,5.369-1.47,10.367,10.367,0,0,1,6.991,2.345,9.2,9.2,0,0,1,3.139,6.316,3,3,0,0,1-.777,2.288,3,3,0,0,1-1.02.726,9.749,9.749,0,0,1,1.119,1.686A3,3,0,0,1,52.9-14.031h8.969a3,3,0,0,1,3,3v4.219a3,3,0,0,1-3,3H52.9a2.986,2.986,0,0,1-1.793-.594A11.7,11.7,0,0,1,48.938.018C47.664,1.649,45.2,3.594,40.7,3.594a9.727,9.727,0,0,1-8.921-5.1,17.573,17.573,0,0,1-1.969-8.7q0-.677.014-1.294L25.086,1.059A3,3,0,0,1,22.279,3H18.607A3,3,0,0,1,16.14,1.708,3,3,0,0,1,15.9,1.3a10.464,10.464,0,0,1-7.011,2.3A9.727,9.727,0,0,1-.031-1.5,17.573,17.573,0,0,1-2-10.2a35.776,35.776,0,0,1,.246-4.619,15.913,15.913,0,0,1,1.9-5.928,10.774,10.774,0,0,1,3.517-3.656,9.823,9.823,0,0,1,5.369-1.47,10.367,10.367,0,0,1,6.991,2.345,9.2,9.2,0,0,1,3.139,6.316,3,3,0,0,1-.777,2.288,3,3,0,0,1-1.02.726A9.771,9.771,0,0,1,19.3-10.371l5.42-14.419A3,3,0,0,1,27.529-26.734Zm85.737,0h3.7a3,3,0,0,1,2.467,1.294,3,3,0,0,1,.172.281,2.993,2.993,0,0,1,1.077-.2H133.17a3,3,0,0,1,3,3v3.781a3,3,0,0,1-2.645,2.979q.229.186.453.388a9.922,9.922,0,0,1,3.083,7.727A11.6,11.6,0,0,1,134.369.022c-1.935,2.37-4.746,3.571-8.355,3.571a10.958,10.958,0,0,1-7.235-2.431A9.653,9.653,0,0,1,115.4-5.843a3,3,0,0,1,.794-2.262,3,3,0,0,1,.285-.27,3,3,0,0,1-.361-1.849l.528-4.15L110.823,1.059A3,3,0,0,1,108.016,3h-3.672a3,3,0,0,1-1.044-.188A2.993,2.993,0,0,1,102.253,3H86.738a3,3,0,0,1-2.148-.906,3,3,0,0,1-.851-2.171,13.672,13.672,0,0,1,1.35-5.693c.794-1.9,2.6-3.886,5.453-5.922l.016-.011h-3.57a3,3,0,0,1-2.161-.919,3,3,0,0,1-.837-2.194,13.719,13.719,0,0,1,1.39-5.956c1.2-2.277,3.727-4.993,8.983-4.993a10.95,10.95,0,0,1,7.771,2.8,9.934,9.934,0,0,1,3.073,7.462,10.106,10.106,0,0,1-2.121,6.3,14.073,14.073,0,0,1-2.265,2.282h1.432a2.987,2.987,0,0,1,1.365.328l6.84-18.2A3,3,0,0,1,113.266-26.734ZM94.321-14.742a1.453,1.453,0,0,0,.339-.914C94.524-16.155,94.377-15.826,94.321-14.742Zm31.818,8.288c.234,0,.282-.3.282-.671a2.216,2.216,0,0,0-.294-1.243,2.742,2.742,0,0,1-.691.825,3,3,0,0,1,.342.942A.7.7,0,0,0,126.138-6.454Zm-52.352-19.2h3.7a3,3,0,0,1,3,3V0a3,3,0,0,1-3,3H72.927a3,3,0,0,1-3-3V-12.625H67.6a3,3,0,0,1-3-3v-3.031a3,3,0,0,1,2.867-3,17.046,17.046,0,0,0,2.436-.213l3.713.116-2.887-.814A3.131,3.131,0,0,1,73.787-25.656Z" transform="translate(1071.573 460.815)" fill="#0099db"/><path d="M27.529-25.734h3.7a2,2,0,0,1,1.645.862,2,2,0,0,1,.226,1.843L24.15.706A2,2,0,0,1,22.279,2H18.607a2,2,0,0,1-1.644-.861A2,2,0,0,1,16.735-.7l.385-1.024A11.248,11.248,0,0,1,16.342-.6c-1.653,2.118-4.16,3.191-7.452,3.191A8.775,8.775,0,0,1,.839-2l0,0A16.6,16.6,0,0,1-1-10.2a34.415,34.415,0,0,1,.237-4.486,14.927,14.927,0,0,1,1.772-5.556l0-.007A9.772,9.772,0,0,1,4.2-23.562a8.841,8.841,0,0,1,4.832-1.313,9.4,9.4,0,0,1,6.337,2.1,8.111,8.111,0,0,1,2.8,5.645,2,2,0,0,1-.518,1.525,2,2,0,0,1-1.474.649H15.166a8.838,8.838,0,0,1,1.016.925,9.291,9.291,0,0,1,2.474,6.606,11.741,11.741,0,0,1-.184,2.1l7.185-19.113A2,2,0,0,1,27.529-25.734ZM13.462-18.953a3.986,3.986,0,0,0-.706-.79,3.992,3.992,0,0,0-.556-.4,4.389,4.389,0,0,1,.769.868l.026.039q.091.142.172.285ZM4.55-10.984a2,2,0,0,1-1.185-1.971,16.808,16.808,0,0,1,.808-4.524l0-.01a7.555,7.555,0,0,1,.511-1.091q-.119.175-.23.361A11.015,11.015,0,0,0,3.2-14.154,31.075,31.075,0,0,0,3-10.2a15.22,15.22,0,0,0,.631,4.639,7.691,7.691,0,0,1-.162-1.608A6.4,6.4,0,0,1,4.55-10.984Zm5.093-6.071c-.056-.08-.14-.164-.5-.164-.261,0-.633,0-1,.654A9.452,9.452,0,0,1,9.75-16.7q-.011-.088-.014-.178A1.155,1.155,0,0,0,9.643-17.055ZM12.08-2.1a3.756,3.756,0,0,0,1.109-.957,6.829,6.829,0,0,0,1.467-4.363,5.354,5.354,0,0,0-1.385-3.862A4.272,4.272,0,0,0,11.3-12.506a5.349,5.349,0,0,1,1.342,1.067,6.268,6.268,0,0,1,1.5,4.392A6.613,6.613,0,0,1,12.88-2.936,4.994,4.994,0,0,1,12.08-2.1ZM8.953-5.031a.8.8,0,0,0,.745-.33,2.757,2.757,0,0,0,.442-1.686A2.657,2.657,0,0,0,9.7-8.733a1.116,1.116,0,0,0-.9-.408,1.184,1.184,0,0,0-.78.26l-.012.009a2.1,2.1,0,0,0-.536,1.7,2.507,2.507,0,0,0,.507,1.688A1.147,1.147,0,0,0,8.953-5.031Zm104.313-20.7h3.7a2,2,0,0,1,1.645.862,2,2,0,0,1,.308,1.568,2,2,0,0,1,1.763-1.055H133.17a2,2,0,0,1,2,2v3.781a2,2,0,0,1-2,2h-3.716a9.116,9.116,0,0,1,3.853,2.109,8.966,8.966,0,0,1,2.753,6.984A10.619,10.619,0,0,1,133.594-.61c-1.736,2.126-4.286,3.2-7.58,3.2a9.986,9.986,0,0,1-6.594-2.2,8.69,8.69,0,0,1-3.026-6.311,2,2,0,0,1,.529-1.508,2,2,0,0,1,1.276-.63,2,2,0,0,1-.64-.5,2,2,0,0,1-.453-1.539L118.7-22.612q.005-.04.012-.079L109.888.706A2,2,0,0,1,108.016,2h-3.672a2,2,0,0,1-1.045-.295A1.991,1.991,0,0,1,102.253,2H86.737a2,2,0,0,1-1.432-.6,2,2,0,0,1-.567-1.447,12.691,12.691,0,0,1,1.225-5.231c.8-1.858,2.487-3.689,5.159-5.6a30.1,30.1,0,0,0,3.692-2.9,2.622,2.622,0,0,0,.845-1.877,1.592,1.592,0,0,0-.331-1.108c-.059-.071-.2-.236-.747-.236-.778,0-.887.224-.966.388a5.652,5.652,0,0,0-.3,1.991,2,2,0,0,1-2,1.918H86.987a2,2,0,0,1-1.441-.613,2,2,0,0,1-.558-1.463,12.758,12.758,0,0,1,1.276-5.528c1.068-2.033,3.341-4.459,8.1-4.459a9.985,9.985,0,0,1,7.087,2.533,8.843,8.843,0,0,1,2.757,6.733,9.128,9.128,0,0,1-1.91,5.682,16.683,16.683,0,0,1-3.668,3.309l-.826.587h4.451a2,2,0,0,1,1.775,1.078l7.366-19.594A2,2,0,0,1,113.266-25.734Zm9.728,5.375h-.547l-.061.479A2.006,2.006,0,0,1,122.994-20.359ZM89.51-16.7a6.365,6.365,0,0,1,.5-1.65,4.567,4.567,0,0,1,1.843-1.989,3.878,3.878,0,0,0-2.052,1.9,6.549,6.549,0,0,0-.587,1.742Zm6.772,6.954.031-.022a12.825,12.825,0,0,0,2.8-2.469l.007-.009a5.146,5.146,0,0,0,1.086-3.251,4.933,4.933,0,0,0-1.493-3.814,4.833,4.833,0,0,0-1.189-.819,4.544,4.544,0,0,1,.873.8,5.561,5.561,0,0,1,1.262,3.673,6.62,6.62,0,0,1-1.931,4.617l-.01.011A15.205,15.205,0,0,1,96.282-9.749ZM129.4-2.189a4.2,4.2,0,0,0,1.1-.951,6.627,6.627,0,0,0,1.565-4.344,5.106,5.106,0,0,0-1.434-4.016,5.2,5.2,0,0,0-1.974-1.146,4.592,4.592,0,0,1,1.609,1.467,7.068,7.068,0,0,1,1.158,4.054A6.739,6.739,0,0,1,130.157-3,4.923,4.923,0,0,1,129.4-2.189Zm-7.169-9.633A2,2,0,0,1,122-11.95a2,2,0,0,1-.554-.54l-.1.75.764.036Q122.17-11.764,122.228-11.821Zm3.8,6.79c.652,0,.82-.225.92-.359a2.821,2.821,0,0,0,.471-1.735,3.127,3.127,0,0,0-.467-1.805c-.076-.112-.217-.32-.877-.32a2.439,2.439,0,0,0-.746.091.8.8,0,0,0-.467.43,2,2,0,0,1-1.039.934,2,2,0,0,1,.969,1.373,2.464,2.464,0,0,0,.5,1.224A1.161,1.161,0,0,0,126.029-5.031ZM91.809-2a2,2,0,0,1-1.187-.936,2,2,0,0,1,.025-2.014,7.093,7.093,0,0,1,.693-.962,6.989,6.989,0,0,0-1.712,2.236q-.022.052-.046.1A8.049,8.049,0,0,0,89.009-2Zm29.534-2.062h-.434a4.072,4.072,0,0,0,1.075,1.386,4.986,4.986,0,0,0,.627.446c-.079-.072-.151-.143-.218-.213A5.454,5.454,0,0,1,121.342-4.062Zm-80.5-20.813a9.4,9.4,0,0,1,6.337,2.1,8.111,8.111,0,0,1,2.8,5.645,2,2,0,0,1-.518,1.525,2,2,0,0,1-1.474.649H46.973a8.836,8.836,0,0,1,1.016.925,9.291,9.291,0,0,1,2.474,6.606A10.83,10.83,0,0,1,48.15-.6C46.5,1.52,43.99,2.594,40.7,2.594A8.775,8.775,0,0,1,32.646-2l0,0a16.6,16.6,0,0,1-1.836-8.2,34.414,34.414,0,0,1,.237-4.486,14.927,14.927,0,0,1,1.772-5.556l0-.007a9.772,9.772,0,0,1,3.187-3.311A8.841,8.841,0,0,1,40.839-24.875Zm4.431,5.922a3.986,3.986,0,0,0-.706-.79,3.993,3.993,0,0,0-.556-.4,4.389,4.389,0,0,1,.769.868l.026.039q.091.142.172.285Zm-8.913,7.969a2,2,0,0,1-1.185-1.971,16.809,16.809,0,0,1,.808-4.524l0-.01a7.559,7.559,0,0,1,.511-1.091q-.119.175-.23.361a11.015,11.015,0,0,0-1.257,4.065,31.075,31.075,0,0,0-.2,3.951,15.22,15.22,0,0,0,.631,4.639,7.691,7.691,0,0,1-.162-1.608A6.4,6.4,0,0,1,36.357-10.984Zm5.093-6.071c-.056-.08-.14-.164-.5-.164-.261,0-.633,0-1,.654a9.452,9.452,0,0,1,1.608-.138q-.011-.088-.014-.178A1.156,1.156,0,0,0,41.45-17.055ZM43.888-2.1A3.756,3.756,0,0,0,45-3.059a6.829,6.829,0,0,0,1.467-4.363,5.354,5.354,0,0,0-1.385-3.862,4.272,4.272,0,0,0-1.969-1.222,5.35,5.35,0,0,1,1.342,1.067,6.268,6.268,0,0,1,1.5,4.392,6.613,6.613,0,0,1-1.261,4.111A4.994,4.994,0,0,1,43.888-2.1ZM40.761-5.031a.8.8,0,0,0,.745-.33,2.757,2.757,0,0,0,.442-1.686,2.657,2.657,0,0,0-.442-1.686,1.116,1.116,0,0,0-.9-.408,1.184,1.184,0,0,0-.78.26l-.012.009a2.094,2.094,0,0,0-.536,1.7,2.507,2.507,0,0,0,.507,1.688A1.147,1.147,0,0,0,40.761-5.031ZM73.787-24.656h3.7a2,2,0,0,1,2,2V0a2,2,0,0,1-2,2H72.927a2,2,0,0,1-2-2V-13.625H67.6a2,2,0,0,1-2-2v-3.031a2,2,0,0,1,1.911-2,17.34,17.34,0,0,0,2.608-.236,2.2,2.2,0,0,0,1.169-.611,2.01,2.01,0,0,0,.4-.8,3.473,3.473,0,0,0,.095-.4A2,2,0,0,1,73.787-24.656Zm1.7,4h-.133a5.635,5.635,0,0,1-1.166,1.908,5.853,5.853,0,0,1-1.465,1.123h.2a2,2,0,0,1,2,2V-2h.563ZM52.9-13.031h8.969a2,2,0,0,1,2,2v4.219a2,2,0,0,1-2,2H52.9a2,2,0,0,1-2-2v-4.219A2,2,0,0,1,52.9-13.031Zm6.969,4H54.9v.219h4.969Z" transform="translate(1073.946 464.333)" fill="#002549"/><text transform="translate(1072.555 461.006)" fill="#ffeb00" font-size="32" font-family="Helvetica-Bold, Helvetica" font-weight="700" letter-spacing="0.08em"><tspan x="0" y="0">6/6-12/5</tspan></text></g></g></svg>