<?xml version="1.0" encoding="utf-8"?>
<!-- Generator: Adobe Illustrator 26.3.1, SVG Export Plug-In . SVG Version: 6.00 Build 0)  -->
<svg version="1.1" id="圖層_1" xmlns="http://www.w3.org/2000/svg" xmlns:xlink="http://www.w3.org/1999/xlink" x="0px" y="0px"
	 viewBox="0 0 1595.7 937.1" style="enable-background:new 0 0 1595.7 937.1;" xml:space="preserve">
<style type="text/css">
	.st0{fill:#00274D;}
	.st1{fill:#FF4E00;}
	.st2{fill:#FFFDDC;}
	.st3{fill:#0099DB;}
	.st4{fill:#FFFFFF;}
</style>
<g transform="translate(6379.408 -4014.656)">
	<g transform="translate(-6330.88 4321.859)">
		<path class="st0" d="M1406.4,442.3l53.2-25.1l-203.7-101.3L1406.4,442.3z"/>
		<path class="st1" d="M0.9-6.4l30.4-24.8l117.4,93.4L0.9-6.4z"/>
		<path class="st1" d="M1224.2,245.6c27.8,13.5,323,166.2,323,166.2h-27.8L1224.2,245.6z"/>
		<path class="st0" d="M231.5,76.2c-15.6-12.8-192.6-148-192.6-148l-0.4,12.9L231.5,76.2z"/>
	</g>
	<path class="st2" d="M-6162.7,4014.7l1290.2,115.3l-163.5,758.6l-449.6-40.2l-48.1,103.5l-259.2-140.6l-533.2-38L-6162.7,4014.7z"
		/>
	<path class="st0" d="M-6156.3,4023.3l-160.1,742.7l525.7,37.5l253.3,137.3l46.9-100.8l448.2,40l160.1-742.8L-6156.3,4023.3
		 M-6162.7,4014.7l1290.2,115.3l-163.5,758.6l-449.6-40.2l-48.1,103.5l-259.2-140.6l-533.2-38L-6162.7,4014.7z"/>
	<path class="st3" d="M-6011.7,4843.6l-367.7-42l0.9-4.3c9.5-47.6,41.6-203.5,53.9-213.2l2.5,3.1l2.5,3.1
		c-8.3,8.1-34.8,127.8-50.3,204.3l359.1,41L-6011.7,4843.6z"/>
	<path class="st3" d="M-5021.9,4289.5h-8c0-12.9,50.9-214.5,56.7-237.4l7.8,2C-4988.2,4143.7-5021.9,4280.4-5021.9,4289.5z"/>
	<path class="st4" d="M-6187.7,4058.4l-92.9,740.6l533.7,17.9l0.8,0.4l239.4,121.8l45.1-112.6l2.8,0.1l438.3,14.7l92.9-740.6
		L-6187.7,4058.4 M-6191.2,4054.2l1268.1,42.5l-93.9,748.6l-442-14.8l-45.7,114.1l-243.3-123.8l-537.2-18L-6191.2,4054.2z"/>
	<path class="st3" d="M-6208.1,4063.6l-77.8,750.7l558.3,0.1l243.3,125.8l28.9-109l451.2,9.1l77.8-750.8L-6208.1,4063.6
		 M-6215.3,4055.4l1297.7,26l-79.4,766.8l-452.3-9.1l-29.8,112.6l-250.4-129.4l-565.2-0.1L-6215.3,4055.4z"/>
</g>
</svg>
