<svg xmlns="http://www.w3.org/2000/svg" xmlns:xlink="http://www.w3.org/1999/xlink" width="1185.749" height="1053.146" viewBox="0 0 1185.749 1053.146"><defs><clipPath id="a"><rect width="1185.749" height="1053.146" transform="translate(0 0.004)" fill="none"/></clipPath></defs><g transform="translate(0 -0.004)"><path d="M1044.924,868.469l53.162-25.1L894.358,742.062Z" fill="#00274d"/><path d="M49.422,300.853l30.439-24.811,117.377,93.382Z" fill="#ff4e00"/><g clip-path="url(#a)"><path d="M862.709,671.8c27.848,13.472,323.04,166.158,323.04,166.158H1157.9Z" fill="#ff4e00"/><path d="M280.026,383.41C264.429,370.648,87.4,235.453,87.4,235.453l-.362,12.879Z" fill="#00274d"/><path d="M603.833,1047.606,348.327,909.081l-.759-.412-.862-.062L58.115,894.921,219.917,4.3l872.131,93.568-161.82,890.7L654.117,945.706l-2.8-.25L650.133,948Z" fill="#fffddc"/><path d="M223.082,8.6,63,891.258,348.715,904.74,602,1042.061l46.875-100.839,278.188,43.049,160.121-882.819ZM216.752,0l880.16,94.286L933.393,992.868,653.761,949.69l-48.094,103.46L346.421,912.6,53.234,898.583Z" fill="#00274d"/><path d="M367.743,968.906,0,926.872l.856-4.267C10.4,875.043,42.481,719.1,54.79,709.362l4.964,6.273L57.272,712.5l2.541,3.087C51.556,723.695,25,843.38,9.558,919.912l359.093,41.045Z" fill="#0099db"/><path d="M947.472,253.8h-8c0-12.906,50.855-214.493,56.654-237.436l7.756,1.96C981.207,108.046,947.472,244.793,947.472,253.8Z" fill="#0099db"/><path d="M191.749,43.709,98.816,924.349l293.67-6.1.792.4,239.428,121.768,45.088-112.6,2.806.094,268.3,17.7,92.933-880.64Zm-3.516-4.122L1046.35,61.124,952.416,949.739,680.465,931.915l-45.672,114.058L391.464,922.221,94.3,928.2Z" fill="#fff"/><path d="M171.337,48.914,93.573,939.572,411.844,915.65l243.264,125.759,28.9-109,281.175,12.054,77.783-890.833Zm-7.2-8.144,887.675,5.041-79.436,906.8L690.127,940.535l-29.841,112.554L409.9,923.648,84.7,947.569Z" fill="#0099db"/></g></g></svg>