<?xml version="1.0" encoding="utf-8"?>
<!-- Generator: Adobe Illustrator 26.3.1, SVG Export Plug-In . SVG Version: 6.00 Build 0)  -->
<svg version="1.1" id="圖層_1" xmlns="http://www.w3.org/2000/svg" xmlns:xlink="http://www.w3.org/1999/xlink" x="0px" y="0px"
	 viewBox="0 0 369.7 179.9" style="enable-background:new 0 0 369.7 179.9;" xml:space="preserve">
<style type="text/css">
	.st0{fill:#FF4E00;}
	.st1{fill:url(#SVGID_1_);}
	.st2{fill:#2B5C85;}
	.st3{fill:#1B1311;}
	.st4{fill:url(#SVGID_00000013157778405831337370000004509844313907084726_);}
	.st5{fill:url(#SVGID_00000036218674538131363710000006191269500317826709_);}
	.st6{fill:url(#SVGID_00000164497347958954664090000017989895911554384559_);}
	.st7{fill:#00458D;}
	.st8{fill:#FFFFFF;}
	.st9{fill:#8D8D8E;}
	.st10{fill:#C6045B;}
	.st11{fill:url(#SVGID_00000182522713603289970920000002662500008084164232_);}
	.st12{fill:url(#SVGID_00000072251879637123236820000009626811477839863460_);}
	.st13{fill:url(#SVGID_00000096781908106602948770000002216716704116301491_);}
	.st14{fill:#BA8A4D;}
	.st15{fill:#C97C54;}
	.st16{fill:url(#SVGID_00000152954125232135167520000007717774532673175207_);}
	.st17{fill:#87C7D7;}
	.st18{fill:#6DA1AF;}
	.st19{fill:url(#SVGID_00000171711118818668535650000007035730547289365938_);}
	.st20{fill:#31190D;}
	.st21{fill:#D87090;}
	.st22{fill:#B47143;}
	.st23{fill:url(#SVGID_00000030487413074707296310000002832672498095456183_);}
	.st24{fill:url(#SVGID_00000178918968813903452340000014164955690886564492_);}
	.st25{fill:#F0BDA2;}
	.st26{fill:#D37A5C;}
	.st27{fill:url(#SVGID_00000003090322376345523100000004971494861568713129_);}
	.st28{fill:url(#SVGID_00000100343951418039024830000017525097090670992259_);}
	.st29{fill:url(#SVGID_00000014616081558148891580000002838381752359143348_);}
	.st30{fill:url(#SVGID_00000141442095261498923440000010375112609886569875_);}
	.st31{fill:url(#SVGID_00000156574564185432783870000000608028832230576557_);}
	.st32{fill:url(#SVGID_00000042724082751813487150000012008644921074779791_);}
	.st33{fill:url(#SVGID_00000084498205076333433550000001027842160489266564_);}
	.st34{fill:url(#SVGID_00000181765831189979297230000007462237677194213772_);}
	.st35{fill:url(#SVGID_00000055689824226741744050000017899393199712769435_);}
	.st36{fill:url(#SVGID_00000113310778812060257490000003606042227569859465_);}
	.st37{fill:#294160;}
	.st38{fill:#DD9475;}
	.st39{fill:url(#SVGID_00000130628069925925736290000012479808106359819412_);}
	.st40{fill:#767676;}
	.st41{fill:#4E3618;}
	.st42{fill:url(#SVGID_00000035502062817951387290000002718387094421754513_);}
	.st43{fill:#CA7D4E;}
	.st44{fill:#D8D8D8;}
	.st45{fill:url(#SVGID_00000136385015679838652780000017157834487973582235_);}
	.st46{fill:url(#SVGID_00000096051240276864137030000011113032490940784050_);}
	.st47{fill:#281910;}
	.st48{fill-rule:evenodd;clip-rule:evenodd;fill:url(#SVGID_00000168835765840064585910000018297507852147760004_);}
	.st49{fill-rule:evenodd;clip-rule:evenodd;fill:#A93042;}
	.st50{fill:#311A0D;}
	.st51{fill:#412511;}
	.st52{fill:url(#SVGID_00000052783313749039540570000006369875804363040423_);}
	.st53{fill:url(#SVGID_00000068646141296395746390000014313859245696279996_);}
	.st54{fill:url(#SVGID_00000181056545565091261640000005390939831466938765_);}
	.st55{fill:#AAD7EF;}
</style>
<g transform="translate(-839.974 110.623)">
	<g transform="translate(1007.721 170.446)">
		<g transform="translate(0 0)">
			<path class="st0" d="M62.2-113H-19v-68.4h81.2V-113z M-13.1-118.9h69.4v-56.6h-69.4L-13.1-118.9z"/>
			<path class="st0" d="M62.7-112.5h-82.2v-69.4h82.2V-112.5z M-18.5-113.5h80.2v-67.4h-80.2V-113.5z M56.8-118.4h-70.4V-176h70.4
				V-118.4z M-12.6-119.4h68.4V-175h-68.4V-119.4z"/>
			<path class="st0" d="M5.1-157.6l-3.2-5c5.1-3.3,9-9.2,12.7-15.5c-5.7-0.7-11.1-2.6-16-5.6c-5.4-3.4-8.2-8.2-7.7-13.1
				c0.5-4.1,3.3-7.5,7.1-8.8c4.7-1.6,10.1,0,14.5,4.3c3.3,3.4,6.3,7.2,8.8,11.2c2.8-4.7,5.9-9.2,9.7-12.5c4.5-3.9,9.7-5.2,14.3-3.5
				c3.8,1.4,6.5,4.8,7,8.7c0.6,4.6-1.8,9.1-6.5,12.5c-4.4,3.1-10.6,5.4-17.1,6.5c3.6,5.7,8,10.8,13.1,15.2l-3.9,4.5
				c-6.3-5.5-11.6-11.9-15.9-19c-0.3,0-0.6,0-1,0C16.7-169.9,12-162.1,5.1-157.6z M1.8-200.4c-0.6,0-1.2,0.1-1.8,0.3
				c-1.7,0.6-3,2.1-3.2,3.9c-0.3,2.6,1.5,5.3,5,7.4c4.8,3,10.3,4.7,16,5l0.3-0.6c-2.7-4.6-6-8.9-9.7-12.8
				C6.2-199.3,3.9-200.4,1.8-200.4L1.8-200.4z M24.9-184.5l0.4,0.6c7-0.7,13.2-3,17.2-5.8c2.9-2.1,4.4-4.6,4.1-6.9
				c-0.3-1.8-1.5-3.3-3.3-4c-2.5-0.9-5.5-0.1-8.3,2.4C31-194.8,27.9-189.9,24.9-184.5L24.9-184.5z"/>
			<path class="st0" d="M4.9-156.9l-3.8-5.8l0.4-0.3c2.6-1.8,4.9-4,6.8-6.5c2-2.6,3.8-5.3,5.4-8.2c-5.5-0.7-10.8-2.7-15.5-5.6
				c-5.6-3.6-8.5-8.5-7.9-13.6c0.5-4.3,3.4-7.9,7.5-9.2c1.3-0.4,2.6-0.7,3.9-0.7c3.9,0,7.8,1.8,11.1,5.1c3.2,3.2,6,6.8,8.5,10.6
				c3.3-5.5,6.2-9.2,9.4-11.9c2.8-2.7,6.5-4.2,10.4-4.3c1.5,0,3,0.3,4.4,0.8c4,1.4,6.8,5,7.4,9.1c0.6,4.8-1.8,9.5-6.7,13
				c-2.4,1.7-5.1,3.1-7.9,4.1c-2.8,1.1-5.8,1.9-8.7,2.4c3.5,5.4,7.7,10.2,12.6,14.4l0.4,0.3L38-158l-0.4-0.3
				c-3.4-2.9-6.5-6.1-9.3-9.6c-2.3-3-4.5-6.1-6.5-9.3l-0.4,0c-2.1,3.9-4.4,7.6-6.9,11.1c-2.5,3.5-5.6,6.5-9.1,8.9L4.9-156.9z
				 M2.5-162.4l2.7,4.1c3.3-2.3,6.1-5.1,8.4-8.4c2.6-3.6,4.9-7.4,7-11.3l0.1-0.3h0.3c0.3,0,0.6,0,0.9,0l0.3,0l0.2,0.2
				c2,3.3,4.2,6.4,6.6,9.4c2.6,3.3,5.6,6.4,8.8,9.1l3.2-3.7c-4.9-4.4-9.2-9.4-12.8-14.9l-0.4-0.6l0.8-0.1c3.2-0.5,6.3-1.3,9.3-2.5
				c2.7-1,5.3-2.3,7.6-3.9c4.6-3.2,6.9-7.6,6.3-12c-0.5-3.8-3.1-7-6.7-8.3c-1.3-0.5-2.7-0.7-4-0.7c-3.7,0.1-7.1,1.6-9.8,4.1
				c-3.2,2.8-6.2,6.6-9.6,12.4l-0.4,0.7l-0.4-0.7c-2.5-4-5.5-7.7-8.8-11.1c-3.1-3.1-6.8-4.8-10.4-4.8c-1.2,0-2.4,0.2-3.6,0.6
				c-3.7,1.2-6.4,4.5-6.8,8.4c-0.5,4.7,2.2,9.3,7.4,12.6c4.8,3,10.2,4.9,15.8,5.5l0.7,0.1l-0.4,0.6c-1.7,3.1-3.7,6.1-5.8,9
				C7.3-166.4,5.1-164.2,2.5-162.4L2.5-162.4z M17.9-183.2l-0.3,0c-2.8-0.2-5.6-0.7-8.3-1.5c-2.8-0.8-5.4-2-7.9-3.6
				c-3.6-2.3-5.5-5.2-5.2-7.9c0.2-2,1.6-3.7,3.5-4.3c0.6-0.2,1.3-0.3,2-0.3c2.2,0,4.7,1.2,6.9,3.4c3.8,3.9,7,8.2,9.8,12.9l0.2,0.2
				L17.9-183.2z M1.8-199.9c-0.6,0-1.1,0.1-1.7,0.3c-1.5,0.5-2.7,1.9-2.9,3.5c-0.3,2.4,1.5,4.9,4.7,7c2.4,1.5,4.9,2.7,7.6,3.5
				c2.5,0.8,5.2,1.2,7.8,1.4l0-0.1c-2.7-4.5-5.8-8.7-9.5-12.5C5.9-198.8,3.7-199.9,1.8-199.9L1.8-199.9z M25-183.4l-0.7-1.1l0.1-0.3
				c1.9-3.3,3.3-5.6,4.8-7.7c1.5-2.3,3.4-4.3,5.4-6.2c1.8-1.7,4.1-2.7,6.5-2.9c0.8,0,1.5,0.1,2.3,0.4c1.9,0.7,3.3,2.4,3.6,4.4
				c0.3,2.5-1.2,5.2-4.3,7.4c-4.2,3-10.7,5.2-17.4,5.9L25-183.4z M25.4-184.5L25.4-184.5c6.5-0.6,12.7-2.8,16.7-5.6
				c2.7-1.9,4.1-4.3,3.9-6.4c-0.2-1.6-1.4-3-2.9-3.6c-0.6-0.2-1.3-0.3-1.9-0.3c-2.2,0.1-4.3,1.1-5.9,2.6
				C31.4-194.5,28.2-189.4,25.4-184.5L25.4-184.5z"/>
			<rect x="18.6" y="-178.5" class="st0" width="5.9" height="62.5"/>
			<path class="st0" d="M18.1-179H25v63.5h-6.9V-179z M24-178h-4.9v61.5H24V-178z"/>
		</g>
	</g>
	<g transform="translate(1150.898 101.508)">
		
			<linearGradient id="SVGID_1_" gradientUnits="userSpaceOnUse" x1="-1067.7402" y1="305.7368" x2="-1067.3373" y2="304.7058" gradientTransform="matrix(28.308 0 0 -37.4894 30235.6992 11263.9453)">
			<stop  offset="0.588" style="stop-color:#401F10"/>
			<stop  offset="0.993" style="stop-color:#200C07"/>
		</linearGradient>
		<path class="st1" d="M9.4-195.7c0,0-2.2,12.5-0.8,14.8c0,0,0.8,6.1-4.2,5.3c0,0,4.9,2.2,5.2-2.2c0.3-3.3,0-0.5,0-0.5
			s0.3,13.4,8.2,16c0,0,8.5,3.2,14.9-0.9l-11.3-32.5l-9.6-2.9L9.4-195.7z"/>
		<path class="st2" d="M-10.3-155.7c0,0-1.2-3.5,2.1-4.6c0,0,4-1.1,5.3-0.6l1.1,2.3l-1.5,4.7l-5.6-1L-10.3-155.7z"/>
		<path class="st3" d="M-3.2-153.6l-5.9-1.1l-1.5-0.9l0-0.1c-0.2-0.6-0.3-1.3-0.2-2c0.1-1.4,1.1-2.5,2.4-2.9h0
			c1.4-0.4,2.9-0.6,4.4-0.7c0.4,0,0.7,0,1,0.1l0.1,0l1.2,2.5L-3.2-153.6z M-8.9-155.1l5.3,1l1.4-4.4l-1-2.1
			c-0.3-0.1-0.5-0.1-0.8-0.1c-1.5,0.1-2.9,0.3-4.3,0.7c-1.1,0.3-2,1.3-2,2.5c-0.1,0.6,0,1.2,0.1,1.7L-8.9-155.1z"/>
		
			<linearGradient id="SVGID_00000075840965748742493930000010527616278097535404_" gradientUnits="userSpaceOnUse" x1="-1067.3723" y1="292.6222" x2="-1067.4684" y2="293.3782" gradientTransform="matrix(28.232 0 0 -16.0387 30159.8926 4536.1001)">
			<stop  offset="0" style="stop-color:#EEB89F"/>
			<stop  offset="0.121" style="stop-color:#EEB79D"/>
			<stop  offset="0.165" style="stop-color:#EEB496"/>
			<stop  offset="0.196" style="stop-color:#EEB08A"/>
			<stop  offset="0.201" style="stop-color:#EEAF88"/>
			<stop  offset="0.644" style="stop-color:#D97C63"/>
		</linearGradient>
		<path style="fill:url(#SVGID_00000075840965748742493930000010527616278097535404_);" d="M28.2-169.8c0,0-0.5,5.7,1.1,7.4
			c0,0,0.6,0.9,4.5,2.5c2.3,0.9,4.4,2.2,6.1,3.9c-0.8,0.8-1.9,1.3-3,1.4c-3.4,0.4-6.9,0.7-10.4,0.8c-10.2,0.9-14.8-3.8-14.8-3.8
			c3.5-2,7.6-3.8,7.6-3.8c3.7-2.1,1.8-7,1.8-7L28.2-169.8z"/>
		
			<linearGradient id="SVGID_00000015340253187321024040000000778223055607766188_" gradientUnits="userSpaceOnUse" x1="-1037.9769" y1="308.8005" x2="-1036.5039" y2="308.7235" gradientTransform="matrix(13.419 0 0 -60.5273 13952.0576 18623.8672)">
			<stop  offset="0" style="stop-color:#EEB89F"/>
			<stop  offset="0.184" style="stop-color:#EEB79D"/>
			<stop  offset="0.251" style="stop-color:#EEB496"/>
			<stop  offset="0.298" style="stop-color:#EEB08A"/>
			<stop  offset="0.305" style="stop-color:#EEAF88"/>
			<stop  offset="0.796" style="stop-color:#D97C63"/>
		</linearGradient>
		<path style="fill:url(#SVGID_00000015340253187321024040000000778223055607766188_);" d="M37.1-40.1C37-35.8,33.9-35,33.9-35
			c-1.9,0.7-4,0.2-5.3-1.2c-1.7-3.8-0.9-12.2-0.9-12.2c0-2.3-0.4-5.9-0.4-5.9c-1.2-5.1-2.9-19.5-2.9-19.5l-0.5-6.5l-0.2-13.2
			l9.1-1.6l-0.9,19.4l0.3,1.8c0.3,2.5,0.5,11.2,0.5,11.2C32.5-59.2,33-49.6,33-49.6l1.9,3.1c0.7,1.5,1.4,3.1,2,4.6
			C36.9-41.8,37-41.1,37.1-40.1z"/>
		<path class="st3" d="M32.1-34.4c-1.4,0-2.8-0.6-3.8-1.7l0,0l0,0c-1.7-3.7-1-11.8-0.9-12.4c0-2.2-0.4-5.5-0.4-5.8
			C25.8-59.3,24-73.7,24-73.8v0l-0.5-6.5l-0.2-13.5l9.8-1.8l-1,19.8l0.3,1.8c0.3,2.5,0.5,10.9,0.5,11.2v0c-0.1,3.3,0.3,12.1,0.3,13
			l1.9,3c0.8,1.5,1.4,3.1,2,4.7l0,0l0,0c0,0,0.2,0.8,0.3,1.7v0v0c0,1.6-0.6,3.2-1.8,4.4c-0.5,0.5-1.1,0.8-1.7,1
			C33.4-34.5,32.8-34.4,32.1-34.4z M28.9-36.4c0.8,0.9,2,1.4,3.2,1.4c0.6,0,1.2-0.1,1.7-0.3l0,0c0.5-0.2,1-0.5,1.4-0.9
			c1-1,1.6-2.4,1.5-3.9c-0.1-0.8-0.3-1.5-0.3-1.6c-0.6-1.6-1.2-3.1-1.9-4.6l-2-3.2v-0.1c0-0.1-0.4-9.6-0.3-13.2
			c0-0.3-0.2-8.7-0.5-11.2l-0.3-1.9l0.9-19l-8.4,1.5l0.2,12.9l0.5,6.5c0.1,0.4,1.8,14.5,2.9,19.5l0,0c0,0,0.4,3.6,0.4,5.9v0v0
			C28-48.3,27.2-40.1,28.9-36.4L28.9-36.4z"/>
		
			<linearGradient id="SVGID_00000019657296265215451650000017817466312582387378_" gradientUnits="userSpaceOnUse" x1="-1051.4246" y1="308.5844" x2="-1050.1536" y2="308.5294" gradientTransform="matrix(17.7075 0 0 -58.588 18628.5273 18013.3516)">
			<stop  offset="0" style="stop-color:#EEB89F"/>
			<stop  offset="0.184" style="stop-color:#EEB79D"/>
			<stop  offset="0.251" style="stop-color:#EEB496"/>
			<stop  offset="0.298" style="stop-color:#EEB08A"/>
			<stop  offset="0.305" style="stop-color:#EEAF88"/>
			<stop  offset="0.346" style="stop-color:#EBAB86"/>
			<stop  offset="0.796" style="stop-color:#D97C63"/>
		</linearGradient>
		<path style="fill:url(#SVGID_00000019657296265215451650000017817466312582387378_);" d="M12.5-94.9c0,0,1.4,18.4,1.9,20.9
			c0,0,1.1,11.2,1.9,16c0.2,2.4,0.1,4.9-0.4,7.3c0,0-2.7,5.5-6.4,7.9c0,0-5.2,2.8-5,4.7c0,0-0.2,1.9,4.8,1.9
			c3.4-0.4,6.7-1.7,9.5-3.7v1.5c0,0,2.5-0.4,2.8-1l-0.3-2c0,0,1.5-4.4,0.3-6.9c-0.4-3.3-0.4-6.7,0-10.1c0.6-6,0.4-21.1,0.3-17.9
			s0.3-18,0.3-18L12.5-94.9z"/>
		<path class="st3" d="M12.1-95.2l10.4,0.6l0,0.3c0,0.2-0.2,13.9-0.3,17.4c0.1,0.7,0.1,1.5,0.1,2.2c0,0.9,0,2.7,0,5
			c0,3.5-0.1,8.3-0.4,11.2c-0.4,3.3-0.4,6.6,0,9.9c1.1,2.4-0.1,6.4-0.3,7.1l0.3,2.1l-0.1,0.1c-0.1,0.2-0.4,0.5-1.7,0.8
			c-0.7,0.2-1.3,0.3-1.3,0.3l-0.4,0.1v-1.3c-1.8,1.2-3.8,2.1-5.9,2.7c-1.1,0.3-2.2,0.5-3.3,0.7h0h0c-2.4,0-3.9-0.5-4.7-1.3
			c-0.3-0.3-0.4-0.6-0.4-1c-0.1-0.9,0.8-2,2.6-3.3c0.8-0.6,1.7-1.2,2.6-1.7c3.5-2.2,6.1-7.3,6.3-7.7c0.5-2.3,0.6-4.7,0.3-7.1
			c-0.8-4.6-1.9-15.5-1.9-16c-0.5-2.5-1.8-20.1-1.9-20.9L12.1-95.2z M21.8-94l-9-0.5c0.2,2.7,1.4,18.3,1.8,20.4l0,0
			c0,0.1,1.1,11.3,1.9,15.9v0c0.3,2.5,0.1,4.9-0.4,7.4l0,0l0,0c-0.1,0.2-2.7,5.6-6.6,8l0,0c-1.9,1-4.9,3.2-4.8,4.3v0v0
			c0,0.2,0.1,0.4,0.3,0.5c0.4,0.4,1.4,1,4.1,1c3.4-0.4,6.6-1.7,9.3-3.6l0.6-0.4v1.8c0.7-0.1,1.4-0.3,2.1-0.7l-0.3-1.9l0-0.1
			c0,0,1.5-4.3,0.4-6.7l0,0l0-0.1c-0.4-3.4-0.4-6.8,0-10.2c0.5-4.5,0.5-14.3,0.4-17.3c0-0.1-0.1-0.1-0.1-0.2l0,0v-0.2v0L21.8-94z"/>
		<path class="st7" d="M-1.5-35.2l1-0.3c0,0,4.9-2.1,5-2.1s11.1-3.6,11.1-3.6s3.5,0.2,4.9,0.4c0,0,2.4,0.4,2.6,1.4
			c-0.9,0.6-1.9,1-2.9,1.2c0,0-4.6,1.4-5.5,1.5c-2.6,2.2-6,3.3-9.4,3.2c0,0-5.1,0-6.6-1C-1.4-34.6-1.5-34.9-1.5-35.2z"/>
		<path class="st7" d="M24.8-34.4c0,0-0.9,1.3,1.6,1.9c0,0,6.9,0.9,10.5-0.6c0,0,1.3-0.5,0-1.7H26.6L24.8-34.4z"/>
		<path class="st8" d="M12.6-47.8c0.2-0.6,0.4-1.1,0.6-1.7c0.6-0.4,1.3-0.5,2-0.3c0,0,1.6,0.2,1.9,0.9c0,0.7-0.1,1.5-0.2,2.2"/>
		<path class="st3" d="M17.1-46.7l-0.7-0.2c0.1-0.7,0.2-1.4,0.2-2c-0.2-0.4-1.1-0.6-1.6-0.7h0c-0.6-0.1-1.1,0-1.7,0.2
			c-0.2,0.6-0.3,1.1-0.6,1.6L12.3-48c0.2-0.5,0.4-1.1,0.6-1.7l0-0.1l0.1-0.1c0.7-0.4,1.5-0.5,2.3-0.4c0.2,0,1.8,0.2,2.1,1.2l0,0.1
			v0.1C17.4-48.2,17.3-47.4,17.1-46.7z"/>
		<path class="st8" d="M12.3-47.7l-1.6,2.4l-5.1,3.5c-2.3,1.3-4.5,2.7-6.6,4.2c-0.2,0.8-0.2,1.8,0,2.6c0,0,3,1.6,9.3,0.8
			c0,0,4.2-0.7,6.1-2.7c0,0,8-2.5,8.5-2.9c0.1-0.8,0.1-1.5,0-2.3c0,0-0.3-5-0.3-5.5l-0.4-1c-0.2,0.7-0.4,1.4-0.8,2
			c0,0-1.1,0.8-1.7,0.6L18-47L17-47.7"/>
		<path class="st3" d="M4.7-33.7c-2,0.1-4-0.3-5.9-1l-0.1-0.1l0-0.1c-0.3-0.9-0.3-1.9,0-2.8l0-0.1l0.1-0.1c2.1-1.5,4.4-3,6.7-4.2
			l5-3.4l1.5-2.4l0.6,0.4L11-45.1l-5.2,3.5l0,0c-2.2,1.2-4.4,2.6-6.5,4.1c-0.2,0.7-0.2,1.4,0,2.1c0.7,0.3,1.4,0.5,2.1,0.6
			c2.3,0.4,4.6,0.4,6.8,0c0.1,0,4.1-0.7,5.9-2.5l0.1-0.1l0.1,0c2.9-0.9,7.4-2.4,8.3-2.8c0.1-0.7,0-1.4,0-2v0c0-0.2-0.3-4.7-0.3-5.5
			l0,0c-0.1,0.4-0.3,0.9-0.6,1.2l0,0c-0.2,0.2-1.3,0.9-2,0.7l0,0l-1.7-1l-1.1-0.7l0.4-0.6l1,0.7l1.6,0.9c0.5-0.1,0.9-0.3,1.3-0.6
			c0.3-0.5,0.6-1.2,0.7-1.8l0.3-1l0.8,2v0.1c0,0.4,0.2,3.8,0.3,5.5c0.1,0.8,0.1,1.6,0,2.4l0,0.2l-0.1,0.1c-0.6,0.4-7,2.5-8.5,3
			c-1.9,2-6,2.7-6.2,2.7h0C7.1-33.8,5.9-33.7,4.7-33.7z"/>
		<path class="st9" d="M5.3-36.1c-0.7,0-1.5,0-2.2-0.1c-1.1-0.1-2.3-0.3-3.4-0.6l0.2-0.6c3.4,0.9,7,0.9,10.4,0l4.4-2
			c0.2-0.1,4.2-1.9,5.4-2.2l0,0h0c0.8,0,1.7-0.2,2.4-0.7l0.6,0.3c-0.1,0.2-0.4,0.5-1.7,0.8c-0.6,0.1-1.1,0.2-1.2,0.2
			c-1.1,0.3-5.2,2.1-5.2,2.2l-4.5,2l0,0C8.8-36.4,7.1-36.1,5.3-36.1z"/>
		<g transform="translate(23.906 159.185)">
			<path class="st10" d="M-13.6-199.4c-0.1,0-0.1,0-0.2,0c-1.6-0.9-3.4-1.5-5.2-1.7c-0.2,0-0.3-0.2-0.3-0.4c0-0.2,0.1-0.3,0.3-0.3
				c0.1,0,1.8-0.2,3.5-0.3c-0.3-0.3-0.7-0.7-1-0.9c-0.2-0.1-0.3-0.3-0.3-0.5c0-0.1,0.1-0.2,0.3-0.3c0.5-0.1,3.5-0.4,5.9-0.5
				c-1-0.3-2-0.5-3-0.5c-0.2,0-0.4-0.1-0.4-0.3c0-0.2,0.1-0.3,0.3-0.4c0.1,0,1.1-0.2,2.4-0.4c-0.6-0.4-1-0.7-1-0.8
				c-0.2-0.1-0.2-0.3-0.1-0.5c0.1-0.1,0.2-0.1,0.3-0.1c1.8,0.1,3.6,0.5,5.4,1.1c0.2,0.1,0.3,0.3,0.2,0.4c-0.1,0.1-0.2,0.2-0.3,0.2
				c-0.9,0-1.8,0-2.7,0.1c0.5,0.4,1,0.8,1.5,1.3c0.1,0.1,0.1,0.4,0,0.5c-0.1,0.1-0.2,0.1-0.3,0.1l0,0l0,0c-1.9-0.2-3.8-0.1-5.6,0.1
				c1,0.3,2.1,0.7,3,1.1c0.2,0.1,0.3,0.3,0.2,0.5c-0.1,0.1-0.2,0.2-0.3,0.2c-0.6,0-1.7,0-3,0.1c0.4,0.5,0.7,1.1,0.9,1.7
				c0.1,0.2,0,0.4-0.2,0.4C-13.6-199.4-13.6-199.4-13.6-199.4L-13.6-199.4z M-16.5-201.3c0.7,0.2,1.4,0.5,2.1,0.8
				c-0.2-0.3-0.4-0.7-0.6-1C-15.5-201.4-16-201.4-16.5-201.3L-16.5-201.3z M-15.5-203c0.3,0.3,0.5,0.5,0.8,0.8
				c0.6,0,1.2-0.1,1.8-0.1C-13.7-202.6-14.6-202.8-15.5-203L-15.5-203z M-11.3-205.2c0.5,0.1,1,0.3,1.4,0.4
				c-0.2-0.2-0.4-0.3-0.6-0.5C-10.8-205.2-11-205.2-11.3-205.2L-11.3-205.2z M-10.9-206.4c0.2,0.1,0.4,0.3,0.6,0.5
				c0.4,0,0.8-0.1,1.2-0.1C-9.7-206.2-10.3-206.3-10.9-206.4L-10.9-206.4z"/>
			<path class="st10" d="M-11.4-201.7c-0.1,0-0.3-0.1-0.3-0.2l0,0c-0.5-1.1-1.2-2.1-2.1-2.9c-0.2-0.1-0.2-0.3-0.1-0.5
				s0.3-0.2,0.5-0.1c0,0,0,0,0,0c1,0.9,1.9,2,2.4,3.2c0.1,0.2,0,0.4-0.2,0.5C-11.3-201.7-11.4-201.7-11.4-201.7L-11.4-201.7z"/>
		</g>
		<path class="st8" d="M26.1-41c0,0-1.2,2.9-1,4.4l0,2.7c0,0-1.3,1,6.9,1.2c0,0,5.2-0.4,5.7-1.8v-2.7c-0.2-1.5-0.5-3-1-4.4l-0.8-6.2
			L35-49.5l0.4,1.7l-1.7-2.7c0,0-4.1-0.4-5.4,0.5l-0.9,2.4l-0.3-1.2c-0.4,1.9-0.5,3.9-0.5,5.8L26.1-41z"/>
		<path class="st3" d="M32-32.4L32-32.4c-1.9,0-3.8-0.1-5.7-0.4c-1-0.2-1.5-0.4-1.6-0.8c0-0.1,0-0.3,0-0.4l0-2.6
			c-0.2-1.4,0.9-4.1,1-4.5l0.3-1.9c-0.1-2,0.1-3.9,0.5-5.9l0.3-1.5l0.5,1.7l0.6-1.5l0.1-0.1c1.1-0.5,2.3-0.7,3.5-0.6
			c1.1,0,2.1,0.1,2.1,0.1l0.2,0l0.8,1.2l-0.5-2.2l2.1,3.7l0.8,6.2c0.4,1.5,0.8,3,1,4.5v0v2.8l0,0.1c-0.2,0.7-1.3,1.3-3.3,1.7
			C33.8-32.6,32.9-32.5,32-32.4L32-32.4z M25.4-33.8c0.3,0.2,1.6,0.6,6.6,0.7c0.9-0.1,1.7-0.2,2.6-0.4c2.2-0.4,2.6-1,2.7-1.2v-2.6
			c-0.2-1.5-0.5-2.9-0.9-4.3l0,0l-0.7-5.1l-2.3-3.5c-0.3,0-1-0.1-1.9-0.1c-1-0.1-2.1,0.1-3.1,0.5l-1.3,3.2L27-47.2
			c-0.2,1.4-0.3,2.7-0.2,4.1l0,0L26.4-41l0,0c0,0-1.2,2.9-1,4.2v0L25.4-33.8z"/>
		<path class="st9" d="M30.7-35L30.7-35c-3.9-0.2-5.3-1.2-5.8-2.1l0.6-0.3c0.3,0.6,1.4,1.6,5.2,1.8c0.2,0,3.9-0.1,6-1.6
			c0.3-0.3,0.5-0.6,0.6-1l0.6,0.2c-0.1,0.5-0.4,0.9-0.8,1.3l0,0C34.8-35,30.8-35,30.7-35L30.7-35z"/>
		<g transform="translate(45.158 159.66)">
			<path class="st10" d="M-19-198.9c-0.2,0-0.3-0.2-0.3-0.3c0-0.1,0.1-0.3,0.2-0.3c0,0,1.7-0.7,3.7-1.3c-1.6-0.3-2.8-0.5-2.9-0.5
				c-0.2,0-0.3-0.2-0.3-0.4c0-0.1,0.1-0.2,0.2-0.3l3.2-1.1c-0.9-0.3-1.7-0.4-2.6-0.5c-0.2,0-0.3-0.2-0.3-0.3c0-0.1,0.1-0.3,0.2-0.3
				c0,0,1.2-0.6,2.7-1.1l-2.2-0.6c-0.2,0-0.3-0.2-0.2-0.4c0-0.1,0.1-0.2,0.2-0.2c1.1-0.4,2.3-0.6,3.5-0.6c1.2,0,2.3,0.2,3.4,0.6
				c0.2,0.1,0.3,0.3,0.2,0.5c-0.1,0.1-0.2,0.2-0.3,0.2c-0.7,0.1-1.5,0.2-2.2,0.4l2.7,0.7c0.2,0,0.3,0.2,0.2,0.4
				c0,0.1-0.1,0.2-0.2,0.2l-2.8,1c1.7,0.6,3.2,1.1,3.2,1.1c0.2,0.1,0.3,0.3,0.2,0.4c-0.1,0.1-0.2,0.2-0.3,0.2h-0.1
				c-1,0.1-1.9,0.2-2.8,0.5c1.4,0.3,2.7,0.8,4,1.4c0.2,0.1,0.2,0.3,0.1,0.5c-0.1,0.1-0.2,0.2-0.3,0.1c-1.8-0.3-3.6-0.4-5.3-0.4
				C-15.9-199.3-17.4-199.2-19-198.9C-19-198.9-19-198.9-19-198.9z M-14.3-200c1.1,0,2.1,0.1,2.9,0.1c-0.7-0.2-1.6-0.5-2.6-0.7
				c-0.7,0.2-1.3,0.4-1.9,0.6C-15.5-200-14.9-200-14.3-200L-14.3-200z M-16.9-201.8c0.7,0.1,1.7,0.3,2.8,0.6
				c0.9-0.3,1.8-0.5,2.8-0.7c-0.7-0.3-1.7-0.6-2.7-0.9L-16.9-201.8z M-16.4-204.2c0.7,0.1,1.5,0.3,2.5,0.6l2.6-0.9l-2.6-0.7
				C-14.9-204.8-15.8-204.5-16.4-204.2L-16.4-204.2z M-15.9-206.3l1.9,0.5c0.7-0.2,1.3-0.4,1.8-0.5c-0.5-0.1-1.1-0.1-1.6-0.1
				C-14.6-206.5-15.2-206.5-15.9-206.3L-15.9-206.3z"/>
			<path class="st10" d="M-18.2-201.4c-0.2,0-0.3-0.2-0.3-0.3c0-0.2,0.1-0.3,0.3-0.3c2.8-0.2,5.7-0.2,8.5,0c0.2,0,0.3,0.2,0.3,0.4
				c0,0.2-0.2,0.3-0.4,0.3c0,0,0,0,0,0C-12.6-201.6-15.4-201.6-18.2-201.4L-18.2-201.4z"/>
			<path class="st10" d="M-17.9-203.7c-0.2,0-0.3-0.2-0.3-0.3c0-0.2,0.1-0.3,0.3-0.3c2.6-0.3,5.1-0.4,7.7-0.5c0.2,0,0.3,0.2,0.3,0.4
				c0,0.2-0.2,0.3-0.3,0.3C-12.8-204.2-15.3-204-17.9-203.7L-17.9-203.7z"/>
		</g>
		<g transform="translate(0.018 32.666)">
			
				<linearGradient id="SVGID_00000011743448558869258910000010825743080331913358_" gradientUnits="userSpaceOnUse" x1="-1047.7722" y1="269.4532" x2="-1046.9103" y2="268.3672" gradientTransform="matrix(16.3109 0 0 -26.8782 17076.0918 7035.2563)">
				<stop  offset="0" style="stop-color:#F0C0A1"/>
				<stop  offset="1" style="stop-color:#ECAD7D"/>
			</linearGradient>
			<path style="fill:url(#SVGID_00000011743448558869258910000010825743080331913358_);" d="M-14.7-206.2c0.4-0.2,0.8-0.2,1.2-0.1
				c2.5,0.6,5.1,3.6,5.1,3.6c0.4,0,0.4-0.5,0.4-0.5c-0.4-0.8-0.7-1.6-0.8-2.5c0.3-1.9,1.7-0.7,1.7-0.7c0,1.9,2.4,5.3,2.4,5.3
				c0.3,1.1,0.2,2.2,0,3.3c-0.2,0.4-0.4,0.8-0.6,1.1l2.3,13.7l0.3,1.4l-0.3,0.7c-0.6,0.5-1.3,0.8-2,0.9c-0.9,0.1-1.7-0.1-2.5-0.5
				c0-1.2-1.5-14-1.5-14c-0.9-1-2-1.9-3.2-2.7c-1-0.9-1.9-1.8-2.6-2.9c0,0-1.4-2.9-3-3c0-0.2,0-0.5,0-0.7l0-0.1c0,0-1.3-0.3-1.2-1
				c0.2-0.4,0.6-0.6,1-0.7l0,0c-0.1-0.1-0.2-0.3-0.2-0.5c0.4-0.6,1-0.9,1.7-0.8C-15.9-206.8-15.3-206.5-14.7-206.2L-14.7-206.2z"/>
		</g>
		
			<linearGradient id="SVGID_00000106855567206374874340000012965310220475149750_" gradientUnits="userSpaceOnUse" x1="-1076.7404" y1="306.1609" x2="-1075.8363" y2="305.765" gradientTransform="matrix(42.178 0 0 -40.7296 45420.125 12357.126)">
			<stop  offset="0" style="stop-color:#FEE41C"/>
			<stop  offset="0" style="stop-color:#FEE31B"/>
			<stop  offset="6.000000e-03" style="stop-color:#FEE10F"/>
			<stop  offset="1.200000e-02" style="stop-color:#FEE10C"/>
			<stop  offset="7.100000e-02" style="stop-color:#F5DB0E"/>
			<stop  offset="0.293" style="stop-color:#DBCA15"/>
			<stop  offset="0.52" style="stop-color:#C8BE1A"/>
			<stop  offset="0.752" style="stop-color:#BCB71D"/>
			<stop  offset="1" style="stop-color:#B9B51F"/>
		</linearGradient>
		<path style="fill:url(#SVGID_00000106855567206374874340000012965310220475149750_);" d="M9.6-124.7c0,0,14.3,4.4,23.3-1.3
			c4.8,9,8.2,18.7,10.2,28.8l0.7,7.2c0,0-1,1.2-4,2c-3.3,1.5-7,2-10.6,1.5c-1.5,0.1-3,0.3-4.4,0.8c0,0-6.9,1.7-12-0.8
			c-1.1-0.2-2.2-0.3-3.3-0.3c-1.3-0.3-2.6-0.7-3.9-1.3c-0.8-0.7-3,0.1-4.1-1.4C1.6-89.7,4.3-111.7,9.6-124.7z"/>
		<path class="st3" d="M33-126.5l0.2,0.3c1.5,2.7,2.8,5.5,4,8.4c2.8,6.6,4.9,13.4,6.2,20.5v0l0.7,7.3L44-89.9c0,0.1-1.1,1.3-4.1,2.1
			c-2.6,1.2-5.4,1.7-8.2,1.7c-0.9,0-1.7-0.1-2.6-0.2c-1.4,0.1-2.9,0.3-4.2,0.7l0,0l0,0c-1.8,0.4-3.6,0.6-5.4,0.6
			c-2.3,0.1-4.7-0.4-6.8-1.4c-1-0.2-2.1-0.3-3.2-0.3h0l0,0c-1.4-0.3-2.7-0.7-4-1.4c-0.4-0.2-0.8-0.3-1.3-0.3
			c-1.1,0.1-2.2-0.4-2.9-1.2l-0.1-0.1l0-0.1c0-0.1,0.7-5.6,2-12.7c1.2-6.5,3.2-15.7,6-22.5l0.1-0.3l0.3,0.1c3.7,1,7.5,1.6,11.3,1.6
			c4.8,0,8.7-1,11.7-2.9L33-126.5z M42.7-97.2c-1.4-7-3.4-13.8-6.2-20.3c-1.8-4.2-3.3-7.1-3.8-8c-3.6,2-7.7,3-11.8,2.8
			c-3.8,0-7.6-0.6-11.2-1.6c-2.7,6.7-4.6,15.7-5.8,22.1c-1.2,6.4-1.9,11.6-2,12.5c0.6,0.6,1.5,0.9,2.3,0.8c0.6,0,1.1,0.1,1.6,0.4
			c1.2,0.6,2.4,1,3.7,1.2c1.1,0,2.2,0.1,3.3,0.3l0,0l0,0c2.1,0.9,4.3,1.4,6.5,1.3c1.7,0,3.5-0.2,5.2-0.6c1.4-0.5,2.9-0.7,4.5-0.8h0
			h0c0.8,0.1,1.7,0.2,2.5,0.2c1.9,0,3.9-0.3,5.7-0.8c0.7-0.2,1.5-0.5,2.2-0.8l0,0l0,0c1.4-0.3,2.7-0.9,3.7-1.8L42.7-97.2z"/>
		<path class="st8" d="M15.5-122.7c0,0-2.8,16.4-3,27.3c0,0,0,4.3,0,6"/>
		<path class="st8" d="M12.8-89.4h-0.6c0-1.6,0-5.9,0-6v0c0.2-10.9,3-27.2,3-27.4l0.6,0.1c0,0.2-2.8,16.5-3,27.3
			C12.8-95.2,12.8-91,12.8-89.4z"/>
		<path class="st8" d="M24.7-122.2c0,0,2,14.9,2.4,21c0,0,0.3,9.3,0.4,11.8"/>
		<path class="st8" d="M27.2-89.4c-0.1-2.4-0.4-11.5-0.4-11.8c-0.4-6-2.4-20.8-2.4-20.9l0.6-0.1c0,0.1,2,15,2.4,21v0
			c0,0.1,0.3,9.4,0.4,11.8L27.2-89.4z"/>
		<path class="st8" d="M30.6-123.7c0.2,0.2,3.4,6.9,5.9,17.2c0,0,1.5,9.1,2.1,15.8"/>
		<path class="st8" d="M38.4-90.7c-0.6-6.5-2.1-15.4-2.1-15.7c-1.3-5.9-3.3-11.6-5.9-17.1c0,0,0,0,0,0l0.5-0.4
			c0.3,0.3,3.5,7.1,6,17.4v0c0,0.1,1.6,9.2,2.1,15.8L38.4-90.7z"/>
		<path class="st8" d="M12.5-122.7c0,0-4.1,14.3-4.8,22.7c0,0-0.6,6.9-0.4,9.3"/>
		<path class="st8" d="M7-90.7c-0.2-2.4,0.4-9,0.4-9.3c0.6-8.4,4.7-22.7,4.8-22.8l0.6,0.2c0,0.1-4.1,14.4-4.8,22.7
			c0,0.1-0.6,6.9-0.4,9.2L7-90.7z"/>
		
			<linearGradient id="SVGID_00000147927144352083425970000007194484763759809937_" gradientUnits="userSpaceOnUse" x1="-1069.3328" y1="305.9115" x2="-1069.5948" y2="304.8835" gradientTransform="matrix(30.482 0 0 -38.1122 32619.3809 11497.8643)">
			<stop  offset="0.544" style="stop-color:#FFFFFF"/>
			<stop  offset="0.643" style="stop-color:#F9F9F9"/>
			<stop  offset="0.771" style="stop-color:#E9E9EA"/>
			<stop  offset="0.914" style="stop-color:#CECFD0"/>
			<stop  offset="1" style="stop-color:#BBBDBE"/>
		</linearGradient>
		<path style="fill:url(#SVGID_00000147927144352083425970000007194484763759809937_);" d="M32.7-160.8c-0.6,1-1.4,1.9-2.4,2.5
			c-2.7,1.9-7.7,2-7.7,2c-5.5-0.1-5.2-4.5-5.2-4.5l-9.9,6.3l3,14.4l0.2,8.5l-1.3,7.1c0,0,3,1.9,11.7,1.8c0,0,7.1,0.2,10.3-2.4
			l-1.5-7.9l5.7-11.8l2.4-13.6L32.7-160.8z"/>
		<path class="st3" d="M17.9-161.5l-0.1,0.7c0,1,0.3,2,0.9,2.7c1,1,2.4,1.5,3.9,1.4c0.2,0,4.9-0.1,7.5-1.9c0.9-0.6,1.7-1.4,2.3-2.4
			l0.1-0.3l5.9,2.5L36-144.8l0,0L30.4-133l1.5,8l-0.2,0.1c-1.7,1.2-3.7,1.9-5.8,2.2c-1.5,0.2-3,0.4-4.5,0.4c-0.1,0-0.2,0-0.3,0
			c-8.7,0.1-11.7-1.8-11.8-1.9l-0.2-0.1l1.4-7.3l-0.2-8.4l-3.1-14.6L17.9-161.5z M37.7-158.3l-4.8-2.1c-0.7,0.9-1.5,1.7-2.4,2.4h0
			c-2.8,1.9-7.7,2-7.9,2h0c-1.6,0.1-3.2-0.5-4.4-1.6c-0.6-0.7-1-1.6-1.1-2.6L8-154.4l3,14.2l0.2,8.5l-1.3,6.9
			c0.7,0.3,1.5,0.6,2.2,0.8c3,0.7,6,1,9,0.9h0c0,0,0.1,0,0.3,0c1.1,0,6.9-0.1,9.7-2.2l-1.5-7.8l5.7-11.9L37.7-158.3z"/>
		<path class="st14" d="M22-124.4c-0.3,0-0.5-0.2-0.5-0.5c0-0.3,0.2-0.5,0.5-0.5c0.9,0,1.9-0.1,2.8-0.2c0.3,0,0.5,0.2,0.5,0.4
			s-0.2,0.5-0.4,0.5C24-124.5,23-124.4,22-124.4L22-124.4z M19.2-124.4L19.2-124.4c-0.9,0-1.9-0.1-2.8-0.2c-0.3,0-0.4-0.3-0.4-0.5
			c0-0.2,0.2-0.4,0.5-0.4c0.9,0.1,1.9,0.2,2.8,0.2c0.3,0,0.5,0.2,0.4,0.5C19.7-124.6,19.5-124.5,19.2-124.4L19.2-124.4z M27.6-124.9
			c-0.3,0-0.5-0.2-0.5-0.5c0-0.2,0.2-0.4,0.4-0.5c0.9-0.2,1.8-0.4,2.7-0.6c0.2-0.1,0.5,0,0.6,0.3c0.1,0.2,0,0.5-0.3,0.6c0,0,0,0,0,0
			C29.5-125.3,28.6-125.1,27.6-124.9C27.6-124.9,27.6-124.9,27.6-124.9L27.6-124.9z M13.7-125C13.7-125,13.6-125,13.7-125
			c-1.8-0.3-2.8-0.5-2.8-0.5c-0.2-0.1-0.4-0.3-0.3-0.6c0.1-0.2,0.3-0.3,0.5-0.3c0,0,1,0.2,2.7,0.5c0.3,0,0.4,0.3,0.4,0.5
			C14.1-125.1,13.9-125,13.7-125L13.7-125z M32.9-126.6c-0.3,0-0.5-0.2-0.5-0.5c0-0.2,0.1-0.3,0.3-0.4l0.1-0.1
			c0.2-0.1,0.5,0,0.6,0.2c0.1,0.2,0,0.5-0.2,0.6l0,0l-0.2,0.1C33-126.6,33-126.6,32.9-126.6L32.9-126.6z"/>
		<path class="st15" d="M17.9-160.8c0,0,2.3-0.5,3.5-5.1l7.1-5.4l-0.7,7.2C25.2-161.6,21.6-160.4,17.9-160.8z"/>
		<path class="st2" d="M46.5-112.7c0,0,3.5-3.5,6.8-2.8c0.4,0.7,0.1,1.6-0.5,2.1c0,0-5.7,2-6.3,1.8L46.5-112.7z"/>
		<path class="st3" d="M46.7-111.4c-0.1,0-0.1,0-0.2,0l-0.2-0.1l0-1.3l0.1-0.1c0.1-0.1,3.1-3,6.2-3c0.3,0,0.6,0,0.9,0.1l0.1,0
			l0.1,0.1c0.4,0.8,0.2,1.8-0.6,2.4l0,0l0,0C52.7-113.1,47.8-111.4,46.7-111.4z M46.8-112.6l0,0.7c2-0.5,4-1.1,5.9-1.8
			c0.5-0.4,0.7-1,0.5-1.6c-0.2,0-0.4-0.1-0.7,0C49.9-115.3,47.3-113,46.8-112.6L46.8-112.6z"/>
		
			<linearGradient id="SVGID_00000087389925739550358210000018419215737359178882_" gradientUnits="userSpaceOnUse" x1="-1034.605" y1="290.5019" x2="-1033.703" y2="290.5019" gradientTransform="matrix(10.55 0 0 -14.428 10834.7939 4083.4824)">
			<stop  offset="0" style="stop-color:#F0C0A1"/>
			<stop  offset="1" style="stop-color:#ECAD7D"/>
		</linearGradient>
		<path style="fill:url(#SVGID_00000087389925739550358210000018419215737359178882_);" d="M47.9-114l1.3,5.4
			c0.5,1.3,1.3,2.5,2.2,3.6l1.1,2.6c0,0,1,0,0.6-2.1c0,0-0.6-2.7-0.2-3.2l2.4,1.5c0.5,0.4,0.9,0.9,1.1,1.5c0,0,0.4,3.2,1.1,4
			c0.3-0.3,0.6-0.6,0.7-1l-0.2-2.9l-0.7-2.4c0,0-2.9-3.1-4.2-4.4c0,0-3.1-1.9-3.2-3.7L47.9-114z"/>
		<path class="st3" d="M50.5-115.7l0,0.6c0,1.3,2.2,2.9,3,3.4l0,0l0,0c1.3,1.3,4.2,4.4,4.2,4.4l0.1,0.1l0.7,2.5l0.2,3l0,0.1
			c-0.1,0.5-0.4,0.9-0.9,1.2l-0.3,0.2l-0.2-0.2c-0.8-0.8-1.2-3.7-1.2-4.2c-0.2-0.5-0.5-1-0.9-1.3l-2-1.2c0,0.8,0.1,1.7,0.3,2.5v0
			c0.2,0.7,0.1,1.5-0.3,2.2c-0.2,0.2-0.5,0.4-0.7,0.4h-0.3l-1.2-2.7c-1-1.1-1.8-2.3-2.3-3.7l0,0l-1.4-5.7L50.5-115.7z M53.1-111.1
			c-0.4-0.2-2.7-1.7-3.2-3.4l-1.5,0.8l1.3,5.1c0.5,1.3,1.2,2.4,2.1,3.4l0.1,0.1l1,2.3c0.2-0.5,0.2-1,0.1-1.5c0-0.1-0.2-0.7-0.3-1.4
			c-0.2-1.5,0-1.9,0.2-2.1l0.2-0.2l2.7,1.6c0.6,0.4,1.1,1,1.3,1.8l0,0v0c0.1,1.2,0.4,2.3,0.8,3.4c0.1-0.1,0.2-0.3,0.2-0.5l-0.2-2.8
			l-0.6-2.3C56.8-107.3,54.3-109.9,53.1-111.1L53.1-111.1z"/>
		<g transform="translate(0 32.441)">
			<path class="st3" d="M-5-179.8L-5-179.8c-0.9,0.1-1.9-0.1-2.7-0.6l-0.1-0.1v-0.1c0-1.1-1.3-12.8-1.5-13.9c-0.9-1-2-1.9-3.1-2.6
				l0,0l0,0c-1-0.9-1.9-1.9-2.7-2.9l0,0c-0.4-0.8-1.6-2.8-2.8-2.9l-0.2,0l0-0.2c-0.1-0.4,0-0.8,0.2-1.2c0.3-0.3,0.8-0.5,1.2-0.4h0
				l0,0c0.1,0.1,3.3,1.8,4.6,3.8c0.3,0.2,0.6,0.3,0.9,0.3h0h0c0.1,0,3,0.4,4.3,1.8l0,0c0.4,0.5,0.7,1.1,0.9,1.8l-0.5,0.1
				c-0.2-0.6-0.4-1.1-0.8-1.6c-1.2-1.2-3.8-1.6-4-1.6c-0.4,0-0.9-0.2-1.3-0.4l-0.1,0l0-0.1c-1.1-1.8-4-3.5-4.4-3.7
				c-0.3-0.1-0.5,0-0.7,0.2c-0.1,0.2-0.2,0.4-0.1,0.6c1.5,0.4,2.9,2.9,3,3.1c0.7,1,1.6,2,2.6,2.8c1.2,0.7,2.3,1.6,3.3,2.7l0.1,0.1
				l0,0.1c0.1,0.5,1.4,12.1,1.5,13.9c0.7,0.3,1.5,0.4,2.3,0.4c0.7-0.1,1.3-0.3,1.8-0.7l0.3-0.6l-0.3-1.3l-2.3-13.8l0-0.1
				c0.2-0.3,0.4-0.7,0.5-1.1c0.2-1,0.3-2.1,0-3.1c-0.2-0.3-2.3-3.3-2.4-5.3c-0.2-0.2-0.5-0.2-0.8-0.2c-0.3,0.1-0.4,0.5-0.4,0.8
				c0.1,0.8,0.3,1.6,0.7,2.3l0.1,0.1l0,0.1c0,0.4-0.3,0.7-0.7,0.7c0,0,0,0,0,0h-0.1l-0.1-0.1c0,0-2.6-2.9-4.9-3.5h0l0,0
				c-0.3-0.1-0.6-0.1-0.9,0l-0.3-0.4c0.4-0.2,0.9-0.3,1.4-0.1c2.3,0.5,4.6,2.9,5.1,3.5c0,0,0-0.1,0.1-0.1c-0.4-0.8-0.7-1.6-0.8-2.5
				v0v0c0-0.5,0.3-1,0.7-1.2c0.5-0.1,1,0,1.4,0.3l0.1,0.1v0.1c0,1.8,2.3,5.1,2.3,5.1l0,0l0,0c0.3,1.1,0.3,2.3,0,3.5v0l0,0
				c-0.2,0.4-0.3,0.7-0.5,1.1l2.3,13.6l0.3,1.5l-0.4,0.8l0,0C-3.5-180.2-4.2-179.9-5-179.8L-5-179.8z"/>
			<path class="st3" d="M-12-202.3c-3.9-3-5.3-3.1-5.3-3.1h0c-0.6-0.1-1.1,0.2-1.4,0.6c0,0.4,0.8,0.6,1,0.7l-0.1,0.5
				c-0.6-0.1-1.5-0.6-1.4-1.3l0,0l0,0c0.4-0.7,1.2-1,1.9-0.9c0.2,0,1.7,0.2,5.6,3.2L-12-202.3z"/>
			<path class="st3" d="M-11.2-203.5c-3.9-3-5.3-3.1-5.3-3.1h0c-0.6-0.1-1.1,0.2-1.4,0.6c0,0.1,0,0.2,0.1,0.3l-0.4,0.3
				c-0.2-0.2-0.3-0.4-0.2-0.7l0,0l0,0c0.4-0.7,1.2-1,1.9-0.9c0.2,0,1.7,0.2,5.6,3.2L-11.2-203.5z"/>
			<path class="st3" d="M-11.9-201.2l-0.5-0.1c0.2-1,0.7-2,1.4-2.8l0.4,0.3C-11.3-203-11.7-202.2-11.9-201.2z"/>
		</g>
		<path class="st17" d="M36.8-144.3l-4.1,9.1c-0.3,2.2-0.2,4.4,0.3,6.6c0.5,2.9,2.9,6.5,3.9,9.6c0,0-2.8,2.9-8.3,3.1
			c0,0-4.4-12.5-5-20c0,0-0.7-11.3-0.4-14.3c3.9-1.2,7.2-3.9,9.4-7.4c0.6-1.1,1.1-2.2,1.3-3.4c0,0,4.5,1.9,5.8,3
			c-2.2,2.8-2.8,12.1-2.8,12.1"/>
		<path class="st3" d="M28.3-115.5l-0.1-0.2c0-0.1-4.4-12.6-5-20.1c0-0.5-0.7-11.3-0.4-14.3l0-0.2l0.2-0.1c1.2-0.4,2.3-0.9,3.3-1.5
			c2.4-1.4,4.4-3.4,5.8-5.7l0,0c0.6-1,1-2.1,1.3-3.3l0.1-0.4l0.4,0.2c0.2,0.1,4.5,1.9,5.9,3.1l0.2,0.2l-0.2,0.3
			c-2.1,2.7-2.7,11.9-2.7,12l-0.7,0c0-0.4,0.6-8.9,2.6-12.1c-1.6-1-3.3-1.9-5.1-2.6c-0.3,1.1-0.7,2.1-1.3,3.1
			c-1.5,2.5-3.6,4.5-6.1,6c-1,0.6-2.1,1.1-3.3,1.5c-0.3,3.2,0.4,13.9,0.4,14c0.5,6.8,4.3,17.9,4.9,19.6c2-0.1,4-0.6,5.8-1.6
			c0.7-0.4,1.3-0.8,1.9-1.3c-0.5-1.3-1-2.6-1.7-3.9c-0.9-1.7-1.6-3.6-2.1-5.5c-0.5-2.2-0.6-4.5-0.3-6.7l0,0l0,0l4.1-9.1l0.6,0.3
			l-4,9c-0.3,2.2-0.2,4.3,0.3,6.5c0.5,1.9,1.2,3.7,2.1,5.3c0.7,1.4,1.3,2.8,1.8,4.2l0.1,0.2l-0.1,0.1c-0.6,0.6-1.4,1.1-2.2,1.5
			c-2,1-4.2,1.6-6.4,1.7L28.3-115.5z"/>
		<path class="st17" d="M1.2-150.3l8.7-6.1c0.9-0.7,1.8-1.3,2.8-1.9l0.9-0.5l-0.3,7.3l-3.4,8.5l-4.9,2.4l-4.4,2.3
			c-2.5,0.2-4.9-1-6.1-3.2l-4.8-13.8c-0.6-2.5,0-3.3,0-3.3v1c2.1,2.6,6.2,0.4,6.2,0.4c1.6-0.8,1.2-3,1.2-3l1.1,1.7l2.7,8.3
			L1.2-150.3z"/>
		<path class="st3" d="M-3.3-161.8l2,3.1l2.6,7.9l8.5-5.9c0.9-0.7,1.9-1.4,2.9-1.9h0l1.4-0.8l-0.3,8l-3.4,8.7l-5,2.5l-4.5,2.3
			l-0.1,0c-0.3,0-0.6,0.1-0.8,0.1c-1.6,0-3.1-0.6-4.2-1.7c-0.5-0.5-1-1.1-1.4-1.7l0,0l-4.8-13.8c-0.6-2.6,0-3.5,0.1-3.6l0.6-0.9v1.9
			c0.6,0.7,1.5,1.1,2.5,1.1c1.1,0,2.2-0.3,3.2-0.8c1.4-0.7,1.1-2.7,1.1-2.7L-3.3-161.8z M-2-158.4l-0.4-0.7
			c-0.1,0.9-0.6,1.7-1.4,2.2c-1.1,0.6-2.3,0.9-3.5,0.9c-1,0-2-0.3-2.8-1c0,0.6,0.1,1.1,0.2,1.7l4.8,13.7c0.3,0.6,0.7,1.1,1.2,1.5
			c1,1,2.4,1.5,3.8,1.5c0.2,0,0.5,0,0.7,0l4.4-2.2l4.8-2.4l3.3-8.4l0.3-6.7L13-158c-1,0.5-1.9,1.2-2.8,1.8l0,0l-8.9,6.2l-0.4,0.3
			L-2-158.4z"/>
		<path class="st18" d="M1.1-150.2l0.6,2.4c0.3,1.7,0.4,3.4,0.4,5.1c0,0,1.6-2.2,0.4-5.9L1.1-150.2z"/>
		<path class="st18" d="M31.4-129.4c0,0,3.6,6.6,3.1,5.6c-3.9-8.5-1.5-12.6-1.5-12.6l3.5-7.9c-1-4.2,2.5-13.8,2.5-13.8l-1.1-0.4
			l-1.4,4.3c-1.5,5.8-3.3,11.6-5.4,17.2C31.1-137,30-132.2,31.4-129.4z"/>
		<path class="st17" d="M43.6-153.5c-0.7-1.2-1.3-1.9-1.3-1.9c-0.8-1.1-1.9-2-3.1-2.7c0,0-2.6,8.4-2.5,12.9l3.5,16.7l6.4,16.8
			c0,0,4.2-2.7,6.7-2.7c0.1,0.3-0.1,0.7-0.4,0.9c0,0,0.9,0.3,0.5-2.1l-5.7-15.6l-2.3-16.4C44.9-149.5,44.4-151.5,43.6-153.5z"/>
		<path class="st3" d="M39-158.6l0.4,0.2c1.3,0.7,2.3,1.7,3.2,2.8l0,0c0,0,0.5,0.8,1.3,1.9l0,0c0.8,2,1.4,4,1.8,6.1v0l2.3,16.4
			l5.7,15.5l0,0c0.2,0.7,0.2,1.5-0.2,2.2c-0.1,0.2-0.4,0.3-0.6,0.3c-0.1,0-0.1,0-0.2,0l-0.6-0.2l0.5-0.4c0.1-0.1,0.2-0.2,0.2-0.3
			c-2.4,0.2-6.1,2.6-6.1,2.6l-0.4,0.2l-6.6-17.3l0,0l-3.5-16.8v0c0-4.5,2.5-12.6,2.6-13L39-158.6z M42-155.2c-0.7-1-1.6-1.8-2.7-2.4
			c-0.5,1.8-2.4,8.5-2.4,12.3l3.5,16.7l6.3,16.4c1.1-0.7,4.3-2.5,6.4-2.5c0-0.2,0-0.5-0.1-0.7L47.3-131l0,0L45-147.4
			c-0.4-2-1-4-1.7-5.9C42.6-154.4,42.1-155.1,42-155.2L42-155.2z"/>
		
			<linearGradient id="SVGID_00000106846921572255694530000016344918949264212641_" gradientUnits="userSpaceOnUse" x1="-1061.7699" y1="304.8203" x2="-1061.0829" y2="303.6753" gradientTransform="matrix(23.1604 0 0 -33.8357 24604.709 10112.2354)">
			<stop  offset="0" style="stop-color:#F1C3A4"/>
			<stop  offset="0.553" style="stop-color:#EEB89F"/>
			<stop  offset="0.817" style="stop-color:#EEAF88"/>
			<stop  offset="0.979" style="stop-color:#DB8756"/>
		</linearGradient>
		<path style="fill:url(#SVGID_00000106846921572255694530000016344918949264212641_);" d="M10.6-194.1c-0.9,3.6-1,7.2-0.4,10.8
			c-0.6,4.8,0.8,9.7,3.9,13.4l3.3,3.3c0,0,1,1.9,4.6,0.4c0,0,3.5-2.1,7.4-4.9c0,0,3.6-4.5,3.5-9.6c0,0,0.1-11-3.8-13.9
			c0,0-3.3-6.8-13.5-4.4C15.7-198.9,13.4-198.7,10.6-194.1z"/>
		<path class="st20" d="M11.8-187.8c-0.4,0-0.7-0.3-0.7-0.7c0-0.1,0-0.3,0.1-0.4c0.6-0.8,1.5-1.4,2.4-1.6c0.8-0.1,1.6,0.2,2.2,0.7
			c0.3,0.2,0.3,0.6,0.1,0.9c-0.2,0.3-0.6,0.3-0.9,0.1c-0.3-0.3-0.8-0.5-1.2-0.4c-0.6,0.2-1.2,0.6-1.5,1.1
			C12.2-187.9,12-187.8,11.8-187.8z"/>
		<path class="st20" d="M26.6-188.2c-0.2,0-0.4-0.1-0.5-0.2c-0.3-0.4-0.7-0.6-1.1-0.7c-0.6,0-1.2,0.3-1.6,0.7
			c-0.3,0.3-0.7,0.3-0.9,0c-0.3-0.3-0.3-0.7,0-0.9c0.7-0.7,1.6-1.1,2.6-1.1c0.8,0.1,1.6,0.5,2.1,1.2c0.2,0.3,0.2,0.7-0.1,0.9
			C26.9-188.2,26.7-188.2,26.6-188.2L26.6-188.2z"/>
		<g transform="translate(30.817 20.027)">
			<path class="st20" d="M-14.8-204.1c-0.2,0-0.4-0.1-0.5-0.3c-0.2-0.4-0.5-0.7-0.9-0.8c0,0,0,0-0.1,0c-0.3-0.1-0.6-0.1-0.8,0.1
				c-0.1,0.1-0.2,0.3-0.3,0.5c0,0.3-0.3,0.6-0.7,0.5c-0.3,0-0.6-0.3-0.5-0.7c0,0,0,0,0,0c0.1-0.5,0.4-1,0.8-1.3
				c0.5-0.3,1.2-0.4,1.8-0.3c0.7,0.2,1.4,0.7,1.7,1.4c0.2,0.3,0.1,0.7-0.2,0.8C-14.6-204.1-14.7-204.1-14.8-204.1L-14.8-204.1z"/>
			<path class="st20" d="M-17.4-205c-0.1,0-0.2,0-0.3-0.1c-0.6-0.4-1.1-1-1.1-1.8c0-0.3,0.3-0.6,0.6-0.6c0.3,0,0.6,0.3,0.6,0.6
				c0,0.3,0.4,0.6,0.5,0.7c0.3,0.2,0.4,0.5,0.2,0.8C-17-205.1-17.2-205-17.4-205L-17.4-205z"/>
			<path class="st20" d="M-17.9-204.5c0,0-0.1,0-0.1,0c-0.8-0.1-1.5-0.7-1.7-1.5c-0.1-0.3,0.1-0.7,0.5-0.7c0.3-0.1,0.7,0.1,0.7,0.5
				l0,0c0.1,0.5,0.7,0.6,0.7,0.6c0.3,0.1,0.6,0.4,0.5,0.7C-17.3-204.7-17.6-204.5-17.9-204.5L-17.9-204.5z"/>
		</g>
		<g transform="translate(41.39 20.294)">
			<path class="st20" d="M-16.5-205c-0.3,0-0.6-0.3-0.6-0.6c0-0.2,0.1-0.4,0.3-0.5c0.1-0.1,0.5-0.4,0.5-0.7c0-0.3,0.2-0.6,0.5-0.7
				c0.3,0,0.6,0.2,0.7,0.5c0,0.7-0.4,1.4-1,1.8C-16.3-205-16.4-205-16.5-205z"/>
		</g>
		<ellipse class="st21" cx="26.6" cy="-178.7" rx="2.7" ry="2.1"/>
		<path class="st21" d="M15.7-178.5c0.3,1.6-0.7,3.2-2.3,3.5c-1.6,0.3-3.2-0.7-3.5-2.3c-0.3-1.6,0.7-3.2,2.3-3.5
			c0.2,0,0.4-0.1,0.6-0.1C14.3-181,15.6-179.9,15.7-178.5z"/>
		<g transform="translate(41.933 21.81)">
			<path class="st20" d="M-16.7-204.7c0,1.2-0.5,2.2-1.2,2.2s-1.2-1-1.2-2.2s0.5-2.2,1.2-2.2S-16.7-205.9-16.7-204.7z"/>
			<path class="st8" d="M-17.1-205.7c0,0.4-0.2,0.7-0.4,0.7s-0.4-0.3-0.4-0.7s0.2-0.7,0.4-0.7S-17.1-206.1-17.1-205.7z"/>
		</g>
		<g transform="translate(32.157 21.796)">
			<path class="st20" d="M-16.7-204.6c0,1.2-0.5,2.2-1.2,2.2s-1.2-1-1.2-2.2s0.5-2.2,1.2-2.2S-16.7-205.9-16.7-204.6z"/>
			<path class="st8" d="M-17.1-205.7c0,0.4-0.2,0.7-0.4,0.7s-0.4-0.3-0.4-0.7s0.2-0.7,0.4-0.7S-17.1-206.1-17.1-205.7z"/>
		</g>
		<g transform="translate(35.064 32.789)">
			<path class="st8" d="M-19-206.9c0,0,2.4,1.6,7.8,0.4c0,0-1.5,3.4-3.8,3.5C-15.1-203-17.7-202.6-19-206.9z"/>
			<path class="st10" d="M-19.5-207.5l0.6,0.4c1.2,0.6,2.6,0.9,4,0.8c1.2,0,2.4-0.1,3.6-0.4l0.5-0.1l-0.2,0.5
				c-0.1,0.1-1.6,3.6-4,3.7c-0.1,0-0.1,0-0.2,0c-0.7,0-2.9-0.3-4.1-4.1L-19.5-207.5z M-14.9-205.8c-1.2,0-2.5-0.2-3.7-0.6
				c1.1,2.9,2.9,3.2,3.4,3.2c0,0,0.1,0,0.1,0h0c1.6-0.1,2.8-2,3.3-2.9C-12.8-205.9-13.9-205.8-14.9-205.8L-14.9-205.8z"/>
			<path class="st10" d="M-11.3-206.5c0,0-1.5,3.4-3.8,3.5c0,0-2.6,0.3-4-3.9C-19-206.9-16-201.5-11.3-206.5z"/>
		</g>
		<path class="st22" d="M17.8-176.9c-0.1,0-0.3,0-0.4-0.1l-0.5-0.3l0,0c-0.7-0.4-0.9-1.3-0.5-2.4v0l0,0c0.2-0.7,0.6-1.9,0.7-2.1
			c0.1-0.4,0.5-0.7,0.9-0.6s0.7,0.5,0.6,0.9l0,0c-0.1,0.5-0.6,2-0.7,2.3v0c-0.1,0.2-0.1,0.5-0.1,0.7l0.4,0.3c0.4,0.2,0.5,0.7,0.3,1
			C18.3-177.1,18.1-176.9,17.8-176.9L17.8-176.9z"/>
		
			<linearGradient id="SVGID_00000030475117093785682710000004524819778867895969_" gradientUnits="userSpaceOnUse" x1="-1026.6342" y1="295.5515" x2="-1026.1642" y2="296.3094" gradientTransform="matrix(11.2051 0 0 -18.81 11510.8643 5375.8193)">
			<stop  offset="0.588" style="stop-color:#401F10"/>
			<stop  offset="0.993" style="stop-color:#200C07"/>
		</linearGradient>
		<path style="fill:url(#SVGID_00000030475117093785682710000004524819778867895969_);" d="M11-189.8c-1.2,2-2.6,3.9-4.2,5.6
			c0.8-1.9,0-5.5,0-5.5c-1.8-8.8,9.6-13.3,9.6-13.3c2.8,0.7,0.6,4.4,0.6,4.4c-1,0.8-1.9,1.8-2.7,2.7C14.3-195.9,13.1-195,11-189.8z"
			/>
		
			<linearGradient id="SVGID_00000151531060640621488950000016429180035712366002_" gradientUnits="userSpaceOnUse" x1="-1072.054" y1="308.988" x2="-1071.694" y2="308.015" gradientTransform="matrix(33.9339 0 0 -57.1052 36405.1484 17434.2734)">
			<stop  offset="0" style="stop-color:#230D07"/>
			<stop  offset="0.152" style="stop-color:#30150B"/>
			<stop  offset="0.369" style="stop-color:#3C1C0E"/>
			<stop  offset="0.588" style="stop-color:#401F10"/>
			<stop  offset="0.993" style="stop-color:#200C07"/>
		</linearGradient>
		<path style="fill:url(#SVGID_00000151531060640621488950000016429180035712366002_);" d="M27.6-206.8c0.1,0,0.7,0.1,0.9,0.2
			c7.3,1.3,13.1,6.8,14.9,14c-0.1,1.8,1.5,4.2,1.5,4.2c2.2,1.5,2.5,8.1,2.5,8.1c0.9,6.5-1.5,9.9-1.5,9.9l-3.7,3.6
			c-1.9,2-1,5.7-1,5.7c0.8,3.8-2.8,6.7-2.8,6.7c-4.5,5.8-9.3,4.4-9.3,4.4c-0.6-0.6-1-1.3-1.3-2.1c-1.4-3.5,1.4-7,1.4-7
			c0.4-1.1,0.5-2.3,0.2-3.4c-2.5-3.1-2-5.7-2-5.7c0.9-3.8,3-7.2,6-9.7c1-5.9-0.5-7.6-0.5-7.6c-1.6-4.1-11.4-8.3-11.4-8.3
			c-9.4-1.7-7.7-7.6-7.7-7.6c0.3-1.6,1.2-3,2.6-3.9c2.1-0.7,2.3-0.6,3.7-1c1.2-0.3,2.5-0.4,3.7-0.5
			C25.1-206.9,26.3-206.9,27.6-206.8z"/>
		<g transform="translate(50.414 21.266)">
			<path class="st25" d="M-19-197.2c0.5,0.6,1.9-0.2,1.9-0.2c4.7-5,2.5-9.2,2.5-9.2c-1.6-1.4-3,3.4-3,3.4l-0.7,2.8L-19-197.2z"/>
			<path class="st26" d="M-17.7-202.6c0,0,1-2.5,2-1.3s0.6,2.9-0.9,4.1C-16.6-199.8-16.1-204.3-17.7-202.6z"/>
		</g>
		
			<linearGradient id="SVGID_00000157309358186498280930000009681653344634468273_" gradientUnits="userSpaceOnUse" x1="-999.9683" y1="292.352" x2="-998.4003" y2="288.387" gradientTransform="matrix(8.046 0 0 -14.469 8071.8657 4019.5918)">
			<stop  offset="0" style="stop-color:#230D07"/>
			<stop  offset="0.152" style="stop-color:#30150B"/>
			<stop  offset="0.369" style="stop-color:#3C1C0E"/>
			<stop  offset="0.588" style="stop-color:#401F10"/>
			<stop  offset="0.993" style="stop-color:#200C07"/>
		</linearGradient>
		<path style="fill:url(#SVGID_00000157309358186498280930000009681653344634468273_);" d="M26.7-191.9c0,0,1.4,0.2,3.6,6.3
			c0.7,1.6,0.9,3.3,0.7,4.9c-0.3,1.2,0.1,2.4,0.9,3.3c0,0,0.3-3.9,1.3-5.6c0,0,1.8-1.9,1.5-3.7C34.7-186.8,31.5-191,26.7-191.9z"/>
		
			<linearGradient id="SVGID_00000141423828543689739550000000732612156064610204_" gradientUnits="userSpaceOnUse" x1="-978.5208" y1="299.4323" x2="-979.1998" y2="298.7094" gradientTransform="matrix(6.63 0 0 -22 6500.6289 6384.1958)">
			<stop  offset="0.588" style="stop-color:#401F10"/>
			<stop  offset="0.993" style="stop-color:#200C07"/>
		</linearGradient>
		<path style="fill:url(#SVGID_00000141423828543689739550000000732612156064610204_);" d="M12.6-199.4c0,0-6,3.9-5.2,17.2
			c0,0-0.2,4.6-1.5,4.8c0,0,3-0.5,3.3-11.4C9.3-188.8,10.1-196.5,12.6-199.4z"/>
		
			<linearGradient id="SVGID_00000038398466740479090360000011258347398138091159_" gradientUnits="userSpaceOnUse" x1="-1064.0629" y1="306.597" x2="-1063.6709" y2="307.168" gradientTransform="matrix(24.8489 0 0 -46.163 26460.7246 13993.6885)">
			<stop  offset="0.162" style="stop-color:#200C07"/>
			<stop  offset="0.493" style="stop-color:#401F10"/>
			<stop  offset="0.993" style="stop-color:#200C07"/>
		</linearGradient>
		<path style="fill:url(#SVGID_00000038398466740479090360000011258347398138091159_);" d="M17-200.5c0,0,18.6-1.4,22.2,16.6
			c0,0,1.9,7.3-1.6,13.1c0,0-4.6,11.8-1.6,16.1c-0.4-3.2,0-6.5,1.1-9.5c0,0,2.1-6.3,3.3-9.8c0,0,4.1-8.1-1.9-17.3
			c0,0-5.6-8.1-17.8-9.5L17-200.5z"/>
		
			<linearGradient id="SVGID_00000142172799604580417020000011538499460122878137_" gradientUnits="userSpaceOnUse" x1="-1065.5614" y1="292.418" x2="-1064.5674" y2="291.786" gradientTransform="matrix(26.0032 0 0 -15.3595 27723.1758 4288.9419)">
			<stop  offset="0.588" style="stop-color:#401F10"/>
			<stop  offset="0.993" style="stop-color:#200C07"/>
		</linearGradient>
		<path style="fill:url(#SVGID_00000142172799604580417020000011538499460122878137_);" d="M15.5-201.4c0,0,11.8-5.7,23.7,8.5
			c1.3,1.5,2.1,3.3,2.3,5.3c0,0,0.4-9.7-13.7-14.9C27.8-202.6,20.8-204.2,15.5-201.4z"/>
		
			<linearGradient id="SVGID_00000174597258837630240450000004011057835111681931_" gradientUnits="userSpaceOnUse" x1="-1062.0822" y1="279.0789" x2="-1062.9362" y2="279.8459" gradientTransform="matrix(24.069 0 0 -9.875 25606.1777 2559.6321)">
			<stop  offset="0.588" style="stop-color:#401F10"/>
			<stop  offset="0.993" style="stop-color:#200C07"/>
		</linearGradient>
		<path style="fill:url(#SVGID_00000174597258837630240450000004011057835111681931_);" d="M16.4-203c0,0,16.5-4.7,24.1,8.1
			c0,0-3.4-9.6-16.1-9.9C24.4-204.8,19.1-204.6,16.4-203z"/>
		
			<linearGradient id="SVGID_00000136407607638857516660000005208322979284322971_" gradientUnits="userSpaceOnUse" x1="-947.657" y1="303.2756" x2="-946.105" y2="303.1766" gradientTransform="matrix(5.1703 0 0 -30.723 4935.8105 9138.2109)">
			<stop  offset="0.588" style="stop-color:#401F10"/>
			<stop  offset="0.993" style="stop-color:#200C07"/>
		</linearGradient>
		<path style="fill:url(#SVGID_00000136407607638857516660000005208322979284322971_);" d="M41.5-193c2.4,4.8,3.1,10.3,1.8,15.6
			c0,0-0.6,6.2-2.8,9.8c-0.9,1.6-1.1,3.5-0.8,5.3c0,0,0.8-5.8,3-8c0,0,2.7-9.3,1.9-14.7C44.6-185,43.8-191.7,41.5-193z"/>
		
			<linearGradient id="SVGID_00000157288316093124171140000000622954798794366135_" gradientUnits="userSpaceOnUse" x1="-953.4786" y1="297.6926" x2="-952.9306" y2="298.6586" gradientTransform="matrix(5.408 0 0 -21.474 5187.4604 6241.7583)">
			<stop  offset="0.588" style="stop-color:#401F10"/>
			<stop  offset="0.993" style="stop-color:#200C07"/>
		</linearGradient>
		<path style="fill:url(#SVGID_00000157288316093124171140000000622954798794366135_);" d="M36.3-176.2c-0.5,1.6-1.3,3.1-2.5,4.4
			c0,0-3.1,3.1-1.8,6.8c1.1,3.4,0.7,7.2-1.2,10.3c0,0,3.3-2,3.1-8.3l-0.4-3.5c0,0-0.5-1.7,1.2-4.1C35.6-172.3,36.2-174.2,36.3-176.2
			z"/>
		
			<linearGradient id="SVGID_00000137093478280113344790000003316530174492167064_" gradientUnits="userSpaceOnUse" x1="-1052.0806" y1="293.6295" x2="-1052.8445" y2="294.5365" gradientTransform="matrix(18.245 0 0 -16.968 19227.4648 4796.1602)">
			<stop  offset="0" style="stop-color:#200C07"/>
			<stop  offset="0.213" style="stop-color:#230E08"/>
			<stop  offset="0.41" style="stop-color:#2E140B"/>
			<stop  offset="0.588" style="stop-color:#401F10"/>
			<stop  offset="0.756" style="stop-color:#31160B"/>
			<stop  offset="0.993" style="stop-color:#200C07"/>
		</linearGradient>
		<path style="fill:url(#SVGID_00000137093478280113344790000003316530174492167064_);" d="M15-200.4c0,0,2.7,4.3,12,6.7
			c0,0,5.7,2.9,5.8,8.1c0,0,2-7.1-6.9-10.1c0,0-11.4-3-10.9-6.9C14.8-201.8,14.8-201,15-200.4z"/>
		<path class="st17" d="M8.8-144.8c-0.4,2,0.4,4.1,1.9,5.4L11-132l-4.3,14c1.1,1.3,5.9,2.2,5.9,2.1s1.3-15.7,1.3-15.7
			c0.1-2.4,1.7-11.9,1.7-11.9c0.5-2.6,1.3-5.1,2.2-7.6c-3.2-2.2-2.1-7.3-1.7-9c0,0-2.7,1.3-3.7,1.9l-0.4,5.2c-0.4,1.4-1,2.8-1.6,4.1
			C9.6-147.6,9.1-146.2,8.8-144.8z"/>
		<path class="st3" d="M16.7-160.6l-0.2,0.7c-0.4,1.4-0.6,2.8-0.5,4.2c-0.1,1.7,0.7,3.4,2.1,4.4l0.2,0.2l-0.1,0.2
			c-0.9,2.5-1.7,5-2.2,7.6v0c0,0.1-1.7,9.4-1.7,11.8v0c-0.5,5.3-1.3,15.4-1.3,15.6c0,0.2-0.2,0.3-0.4,0.3c0,0,0,0,0,0
			c-0.5,0-5-0.9-6.1-2.2l-0.1-0.1l4.3-14.2l-0.2-7.2c-0.4-0.4-0.8-0.9-1.1-1.4c-0.8-1.3-1-2.8-0.8-4.2c0.3-1.5,0.8-2.9,1.7-4.1
			c0.6-1.3,1.1-2.7,1.5-4l0.4-5.3l0.1-0.1c1.1-0.7,3.7-1.9,3.8-1.9L16.7-160.6z M17.4-150.9c-1.4-1.2-2.2-3-2.1-4.8
			c0-1.3,0.1-2.5,0.4-3.7c-0.8,0.4-2.2,1-2.9,1.5l-0.4,5l0,0c-0.5,1.4-1,2.8-1.6,4.2l0,0l0,0c-0.8,1.2-1.3,2.5-1.6,3.8v0v0
			c-0.2,1.3,0,2.6,0.7,3.7c0.3,0.5,0.7,1,1.1,1.3l0.1,0.1l0,0.2l0.2,7.4l0,0.1L7-118.1c1,0.9,4.2,1.7,5.2,1.8
			c0.2-1.9,0.9-11.1,1.3-15.3c0.1-2.4,1.7-11.4,1.7-11.9C15.8-146,16.5-148.5,17.4-150.9L17.4-150.9z"/>
		<path class="st18" d="M13.3-158.6c-0.3,2.6-0.7,5.2-1.3,7.8c0,0-3.1,4.3-3,7.1l0,1.3c0,0-0.9,0.7-0.9-2.5c0.6-2,1.4-3.8,2.4-5.6
			c0,0,1.3-5.6,1.4-7.3L13.3-158.6z"/>
	</g>
	<g transform="translate(859.452 96.263)">
		
			<linearGradient id="SVGID_00000145738727843365915390000009528363265565381527_" gradientUnits="userSpaceOnUse" x1="-704.4647" y1="297.4436" x2="-702.7596" y2="297.3216" gradientTransform="matrix(7.725 0 0 -15.503 5432.144 4564.0669)">
			<stop  offset="0" style="stop-color:#EEB89F"/>
			<stop  offset="0.184" style="stop-color:#EEB79D"/>
			<stop  offset="0.251" style="stop-color:#EEB496"/>
			<stop  offset="0.298" style="stop-color:#EEB08A"/>
			<stop  offset="0.305" style="stop-color:#EEAF88"/>
			<stop  offset="0.346" style="stop-color:#EBAB86"/>
			<stop  offset="0.796" style="stop-color:#D97C63"/>
		</linearGradient>
		
			<rect x="-10.1" y="-54.4" style="fill:url(#SVGID_00000145738727843365915390000009528363265565381527_);" width="7.7" height="15.5"/>
		<path class="st3" d="M-10.4-54.8H-2v16.2h-8.4V-54.8z M-2.7-54.1h-7v14.8h7V-54.1z"/>
		
			<linearGradient id="SVGID_00000114775040886849384310000016080013211162585767_" gradientUnits="userSpaceOnUse" x1="-715.9642" y1="299.8793" x2="-714.2621" y2="299.7563" gradientTransform="matrix(8.74 0 0 -17.402 6268.2935 5169.4229)">
			<stop  offset="0" style="stop-color:#EEB89F"/>
			<stop  offset="0.184" style="stop-color:#EEB79D"/>
			<stop  offset="0.251" style="stop-color:#EEB496"/>
			<stop  offset="0.298" style="stop-color:#EEB08A"/>
			<stop  offset="0.305" style="stop-color:#EEAF88"/>
			<stop  offset="0.346" style="stop-color:#EBAB86"/>
			<stop  offset="0.796" style="stop-color:#D97C63"/>
		</linearGradient>
		
			<rect x="10.5" y="-57.2" style="fill:url(#SVGID_00000114775040886849384310000016080013211162585767_);" width="8.7" height="17.4"/>
		<path class="st3" d="M10.2-57.5h9.4v18.1h-9.4V-57.5z M18.9-56.8h-8.1v16.7h8.1V-56.8z"/>
		<path class="st37" d="M-0.6-164.4l2.9-3.7c0,0,0.5-2.5,6.3-2.4c0,0,4.6-0.3,6.1,3.7l2.3,2.5l-0.6,4.8l-16.6,1.9L-0.6-164.4z"/>
		<g transform="translate(60.002 49.156)">
			<path class="st38" d="M3.1-203.2c-0.3-0.4-0.7-0.6-1.2-0.6c-2.9-0.6-7.1,1.4-7.1,1.4c-0.4-0.2-0.2-0.7-0.2-0.7
				c0.8-0.6,1.5-1.4,2-2.3c0.6-2.1-1.5-1.6-1.5-1.6c-0.9,2.1-5,4.5-5,4.5c-1,1-1.5,3.5-1.5,3.5c0,0.5,0,1,0.1,1.5l-6.7,6.7l-1,1.4
				l0,0.9c0.3,0.9,1.8,1.9,1.8,1.9c2.1,0.8,3,1.3,3,1.3c0.6-1.3,5.9-8.1,5.9-8.1c1.5-0.7,3.1-1.1,4.7-1.3c1.5-0.5,2.9-1.1,4.2-1.9
				c0,0,2.9-2.4,4.6-1.9c0.2-0.2,0.3-0.5,0.3-0.7l0-0.1c0,0,1.5,0.3,1.7-0.5c-0.1-0.5-0.3-0.9-0.7-1.2l0,0c0.2-0.1,0.4-0.2,0.4-0.5
				c-0.1-0.8-0.7-1.4-1.4-1.6C4.7-203.2,3.9-203.2,3.1-203.2L3.1-203.2z"/>
		</g>
		<g transform="translate(60.126 48.924)">
			<path class="st3" d="M-14.1-184.7l-0.3-0.1c0,0-1-0.4-3-1.3l0,0l0,0c-0.1,0-1.6-1-1.9-2l0,0l0-1l1.1-1.5l6.6-6.7
				c-0.1-0.5-0.1-0.9-0.1-1.4v0v0c0-0.1,0.5-2.6,1.6-3.7l0,0l0,0c0,0,4.1-2.4,4.9-4.4l0.1-0.1l0.1,0c0.6-0.2,1.2-0.1,1.6,0.3
				c0.4,0.5,0.5,1.1,0.2,1.6l0,0l0,0c-0.5,0.9-1.2,1.7-2,2.3c0,0,0,0.1,0,0.1c0.8-0.4,4.4-1.9,7.1-1.4c0.6,0,1.1,0.3,1.4,0.7
				L2.9-203c-0.3-0.4-1-0.5-1-0.5h0h0c-2.8-0.5-6.9,1.4-6.9,1.4l-0.1,0.1l-0.1,0c-0.4-0.2-0.6-0.6-0.4-1c0,0,0,0,0,0l0-0.1l0.1-0.1
				c0.8-0.6,1.4-1.3,1.9-2.1c0.1-0.4,0.1-0.8-0.1-1c-0.3-0.2-0.6-0.2-0.9-0.2c-1,2-4.6,4.3-5.1,4.5c-0.7,1-1.2,2.1-1.4,3.3
				c0,0.5,0,0.9,0.1,1.4l0,0.1l-6.8,6.8l-0.9,1.3l0,0.8c0.4,0.7,0.9,1.2,1.6,1.6c1.5,0.6,2.4,1,2.8,1.2c1-1.7,5.6-7.6,5.8-7.9l0-0.1
				l0.1,0c1.5-0.7,3.1-1.1,4.8-1.4c1.4-0.4,2.8-1,4.1-1.8c0.2-0.2,2.8-2.3,4.6-2c0.1-0.2,0.2-0.4,0.1-0.7c-0.1-0.3-0.4-0.5-0.7-0.6
				c-0.5,0-4.4,0.5-6.4,1.9l-0.1,0l-0.1,0c-0.5,0.1-1,0-1.5-0.2c-0.3-0.1-3.3-0.8-5.1-0.1c-0.6,0.3-1.1,0.8-1.6,1.3l-0.5-0.4
				c0.5-0.6,1.1-1.1,1.8-1.5l0,0l0,0c2.1-0.8,5.4,0.1,5.5,0.1l0,0l0,0c0.4,0.1,0.8,0.2,1.2,0.1c2.3-1.6,6.5-2,6.7-2h0.1l0.1,0
				c0.5,0.1,0.9,0.5,1.1,1c0.1,0.5,0,1-0.3,1.4l-0.1,0.2L5-198c-1.3-0.4-3.5,1.2-4.3,1.8l0,0c-1.3,0.8-2.8,1.4-4.3,1.9l0,0h0
				c-1.6,0.2-3.1,0.6-4.6,1.3c-0.5,0.7-5.3,6.8-5.8,8L-14.1-184.7z"/>
			<path class="st3" d="M5.9-198.8c-0.2,0-0.4,0-0.6,0l0.1-0.6c0.3,0,1.2,0.1,1.4-0.3c-0.1-0.6-0.6-1.2-1.3-1.3l0,0
				c-0.1,0-1.7-0.5-7.1,0.9l-0.1-0.6c5.6-1.5,7.3-0.9,7.5-0.8c0.9,0.2,1.5,1,1.6,1.9v0l0,0C7.3-199,6.5-198.8,5.9-198.8z"/>
			<path class="st3" d="M6.6-200.6l-0.2-0.5c0.1,0,0.2-0.1,0.2-0.2c-0.1-0.6-0.6-1.2-1.3-1.3l0,0c-0.1,0-1.7-0.5-7.1,0.9l-0.1-0.6
				c5.7-1.5,7.3-0.9,7.5-0.8c0.9,0.2,1.5,1,1.6,1.9v0l0,0C7.1-201,6.8-200.7,6.6-200.6z"/>
			<path class="st3" d="M-1.6-199l-0.6-0.1c0.2-1.1,0.2-2.2-0.2-3.3l0.6-0.2C-1.4-201.4-1.3-200.1-1.6-199z"/>
		</g>
		<path class="st2" d="M24.2-147.1c1,4.2,2.5,8.2,4.6,12c1.9,5.1,7.3,3.4,7.3,3.4c3.2-0.8,6.2-2.3,8.8-4.4c0-1.8-2.6-7.9-2.6-7.9
			l-6.3,2.7l-1.7-5.6l-2-6.2c-1.1-2.3-2.5-4.5-4.2-6.4l-3.3-2.1L24.2-147.1z"/>
		<path class="st3" d="M24.4-162.4l4,2.5l0,0c1.7,2,3.2,4.2,4.3,6.6l0,0l2,6.3l1.5,5.1l6.3-2.7l0.2,0.4c0.1,0.3,2.6,6.3,2.6,8.1v0.2
			l-0.2,0.1c-2.6,2.1-5.7,3.6-8.9,4.4c-0.7,0.2-1.4,0.3-2.1,0.3c-1.1,0-2.2-0.2-3.1-0.7c-1.2-0.7-2.2-1.8-2.6-3.2
			c-2.1-3.8-3.6-7.9-4.6-12.1l0-0.1L24.4-162.4z M27.8-159.1l-2.6-1.6l-0.6,13.7c1,4.1,2.5,8.1,4.5,11.8l0,0l0,0
			c0.4,1.2,1.2,2.1,2.2,2.7c0.8,0.4,1.7,0.6,2.7,0.6c0.6,0,1.3-0.1,1.9-0.2l0,0c3-0.8,5.9-2.2,8.4-4.1c-0.6-2.4-1.3-4.8-2.3-7.1
			l-6.4,2.7l-1.8-6.1l-2-6.2C30.8-155.2,29.5-157.3,27.8-159.1L27.8-159.1z"/>
		
			<linearGradient id="SVGID_00000180333746677336082180000001184020259402101124_" gradientUnits="userSpaceOnUse" x1="-727.5902" y1="286.9159" x2="-726.5902" y2="286.9159" gradientTransform="matrix(10.075 0 0 -10.5449 7369.9385 2884.8135)">
			<stop  offset="0.29" style="stop-color:#6781A5"/>
			<stop  offset="1" style="stop-color:#2B5C85"/>
		</linearGradient>
		<path style="fill:url(#SVGID_00000180333746677336082180000001184020259402101124_);" d="M44.6-135.4c0,0-0.1,0.1-1.2-0.8
			c0,0-3.2-4.8-3.9-6.8l4-2.9c0,0,1.3-0.2,1.7,0.3c0,0,2.8,4.7,3.9,5.5c0,0,0.3,0.4,0.5,0.3c-1.2,1.4-2.6,2.7-4.2,3.7L44.6-135.4z"
			/>
		<path class="st3" d="M44.5-135c-0.2,0-0.5-0.1-1.5-0.9l0,0l0,0c-0.1-0.2-3.2-4.8-3.9-6.9l-0.1-0.3l4.3-3.1l0.1,0
			c0.2,0,0.5-0.1,0.7-0.1c0.6-0.1,1.1,0.2,1.5,0.6l0,0c0.8,1.3,3,4.8,3.7,5.4l0,0l0,0c0,0.1,0.1,0.1,0.2,0.2c0.2,0,0.4,0.1,0.4,0.3
			c0.1,0.3-0.1,0.5-0.5,0.9c-0.3,0.3-0.6,0.6-1,1c-0.9,0.8-1.9,1.6-2.9,2.3l-0.8,0.6C44.7-135,44.6-135,44.5-135z M43.7-136.5
			c0.3,0.2,0.5,0.4,0.8,0.6l0.6-0.5c1.4-0.9,2.6-2,3.8-3.2c-0.1-0.1-0.1-0.1-0.2-0.2c-1.1-0.9-3.6-5.1-3.9-5.6
			c-0.2-0.2-0.5-0.2-0.7-0.2c-0.1,0-0.3,0-0.4,0l-3.6,2.6C41.1-140.7,42.3-138.6,43.7-136.5L43.7-136.5z"/>
		<path class="st37" d="M36.3-140.1c0,0,0.5,3.7-0.4,5.4c0-2.5-0.2-5-0.5-7.5L36.3-140.1z"/>
		<path class="st37" d="M25.5-149.2l6.7,17.5c0,0-1.8-1.1-1.8-1.2c0,0-5.9-10.3-5.9-12.8S26-157,26-157L25.5-149.2z"/>
		<path class="st7" d="M34.5-30l-1-0.3c0,0-4.9-2.1-5-2.1S17.3-36,17.3-36s-3.5,0.2-5,0.4c0,0-2.4,0.4-2.6,1.4
			c0.9,0.6,1.9,1,2.9,1.2c0,0,4.7,1.4,5.5,1.5c2.7,2.2,6,3.3,9.4,3.2c0,0,5.1,0,6.6-1C34.5-29.4,34.6-29.7,34.5-30z"/>
		<path class="st7" d="M0.1-29.2c0,0,0.9,1.3-1.6,2c0,0-6.9,0.9-10.6-0.6c0,0-1.3-0.5,0-1.7h10.4L0.1-29.2z"/>
		<path class="st8" d="M20.4-42.7c-0.2-0.6-0.4-1.1-0.6-1.7c-0.6-0.4-1.3-0.5-2-0.3c0,0-1.6,0.2-1.9,0.9c0,0.7,0.1,1.5,0.2,2.2"/>
		<path class="st40" d="M15.8-41.5c-0.1-0.8-0.2-1.5-0.2-2.3v-0.1l0-0.1c0.4-0.9,1.9-1.1,2.1-1.2c0.8-0.2,1.6,0,2.3,0.4l0.1,0.1
			l0,0.1c0.2,0.6,0.3,1.1,0.6,1.7L20-42.5c-0.2-0.5-0.4-1.1-0.6-1.7c-0.5-0.2-1.1-0.3-1.7-0.2h0c-0.4,0.1-1.3,0.3-1.6,0.7
			c0,0.7,0.1,1.4,0.2,2.1L15.8-41.5z"/>
		<path class="st8" d="M20.6-42.6l1.6,2.4l5.2,3.5c2.3,1.3,4.5,2.7,6.7,4.2c0.2,0.9,0.2,1.8,0,2.6c0,0-3,1.6-9.3,0.8
			c0,0-4.2-0.7-6.1-2.7c0,0-8-2.6-8.6-3C10-35.4,10-36.2,10-37c0,0,0.3-5,0.3-5.6l0.4-1c0.2,0.7,0.4,1.4,0.8,2c0,0,1.1,0.8,1.7,0.6
			l1.7-0.9l1.1-0.7"/>
		<path class="st3" d="M28.3-28.5c-1.2,0-2.4-0.1-3.6-0.3h0c-0.2,0-4.3-0.7-6.2-2.7c-1.5-0.5-8-2.6-8.6-3l-0.1-0.1l0-0.2
			c-0.1-0.8-0.1-1.6,0-2.4c0.1-1.7,0.3-5.1,0.3-5.5v-0.1l0.8-2l0.3,1c0.1,0.6,0.4,1.2,0.7,1.8c0.4,0.3,0.8,0.5,1.3,0.6l1.6-0.9
			l1.1-0.7l0.4,0.6l-1.1,0.7l-1.7,0.9l0,0c-0.7,0.2-1.8-0.5-2-0.7l0,0c-0.3-0.4-0.5-0.8-0.6-1.2l0,0c0,0.8-0.3,5.3-0.3,5.5v0
			c-0.1,0.7-0.1,1.4,0,2.1c0.9,0.4,5.5,1.9,8.4,2.8l0.1,0l0.1,0.1c1.7,1.8,5.7,2.5,5.9,2.6c2.3,0.4,4.6,0.3,6.9,0
			c0.7-0.1,1.4-0.3,2.1-0.6c0.2-0.7,0.2-1.4,0-2.2c-2.1-1.5-4.3-2.9-6.5-4.1l0,0l0,0L22-39.9l-1.6-2.5l0.6-0.4l1.5,2.4l5.1,3.4
			c2.3,1.3,4.6,2.7,6.7,4.3l0.1,0.1l0,0.1c0.3,0.9,0.3,1.9,0,2.8l0,0.1l-0.1,0.1C32.3-28.7,30.3-28.3,28.3-28.5z"/>
		<path class="st9" d="M27.7-30.9c-1.8,0-3.6-0.2-5.3-0.7l0,0l-4.5-2c0,0-4.2-1.9-5.3-2.2c-0.1,0-0.6-0.1-1.2-0.2
			c-1.2-0.3-1.6-0.6-1.7-0.8l0.6-0.3c0,0,0.2,0.2,1.3,0.5c0.6,0.1,1.2,0.2,1.2,0.2h0l0,0c1.1,0.3,5.2,2.1,5.4,2.2l4.4,2
			c3.4,0.9,7,0.9,10.5,0l0.2,0.6c-1.1,0.3-2.2,0.5-3.4,0.6C29.2-30.9,28.4-30.9,27.7-30.9z"/>
		<g transform="translate(34.933 164.35)">
			<path class="st7" d="M-12.2-199.3c-0.2,0-0.3-0.2-0.3-0.3c0,0,0-0.1,0-0.1c0.2-0.6,0.5-1.2,0.9-1.7c-1.3-0.1-2.5-0.2-3-0.1
				c-0.2,0-0.3-0.1-0.4-0.3c0-0.1,0.1-0.3,0.2-0.3c1-0.4,2-0.8,3.1-1.1c-1.9-0.2-3.8-0.3-5.7-0.1l0,0c-0.2,0-0.4-0.1-0.4-0.3
				c0-0.1,0-0.2,0.1-0.3c0.5-0.5,1-0.9,1.5-1.3c-0.9-0.1-1.8-0.1-2.7-0.1c-0.2,0-0.4-0.1-0.4-0.3c0-0.2,0.1-0.3,0.2-0.3
				c1.7-0.6,3.5-1,5.4-1.1c0.2,0,0.3,0.1,0.4,0.3c0,0.1,0,0.2-0.1,0.3c0,0-0.4,0.3-1,0.8c1.3,0.2,2.4,0.4,2.5,0.4
				c0.2,0,0.3,0.2,0.3,0.4c0,0.2-0.2,0.3-0.4,0.3c-1,0-2,0.2-3,0.5c2.3,0.1,5.4,0.4,5.9,0.5c0.2,0.2,0.3,0.5,0.1,0.7
				c0,0,0,0-0.1,0.1c-0.4,0.3-0.7,0.6-1.1,0.9c1.8,0.1,3.4,0.3,3.6,0.3c0.2,0,0.3,0.2,0.3,0.4c0,0.2-0.2,0.3-0.3,0.3
				c-1.9,0.2-3.7,0.8-5.3,1.7C-12.1-199.3-12.2-199.3-12.2-199.3z M-10.9-201.4c-0.2,0.3-0.4,0.6-0.6,1c0.7-0.3,1.4-0.6,2.1-0.9
				C-9.8-201.3-10.3-201.4-10.9-201.4L-10.9-201.4z M-13-202.2c0.6,0,1.2,0.1,1.8,0.1c0.2-0.3,0.5-0.6,0.8-0.9
				C-11.3-202.8-12.1-202.6-13-202.2L-13-202.2z M-15.4-205.3c-0.2,0.2-0.4,0.3-0.7,0.5c0.4-0.1,0.9-0.3,1.4-0.4
				C-14.8-205.2-15.1-205.2-15.4-205.3L-15.4-205.3z M-16.8-206.1c0.4,0,0.8,0.1,1.3,0.1c0.2-0.2,0.4-0.3,0.6-0.5
				C-15.6-206.4-16.3-206.2-16.8-206.1L-16.8-206.1z"/>
			<path class="st7" d="M-14.5-201.7c-0.2,0-0.3-0.2-0.3-0.3c0,0,0-0.1,0-0.1c0.5-1.2,1.4-2.4,2.4-3.2c0.2-0.1,0.4-0.1,0.5,0.1
				c0.1,0.2,0.1,0.4-0.1,0.5c0,0,0,0,0,0c-0.9,0.8-1.7,1.8-2.2,2.9C-14.2-201.8-14.3-201.7-14.5-201.7z"/>
		</g>
		<path class="st8" d="M-1.2-35.8c0,0,1.2,3,1,4.4l0,2.7c0,0,1.3,1-7,1.2c0,0-5.2-0.4-5.7-1.8V-32c0.2-1.5,0.5-3,1-4.5l0.8-6.3
			l0.9-1.6l-0.4,1.7l1.7-2.7c0,0,4.1-0.4,5.4,0.5l0.9,2.4l0.3-1.2c0.4,1.9,0.5,3.9,0.5,5.8L-1.2-35.8z"/>
		<path class="st3" d="M-7.1-27.2L-7.1-27.2c-0.9-0.1-1.8-0.2-2.7-0.4c-2-0.4-3-1-3.3-1.7l0-0.1V-32v0c0.2-1.5,0.5-3,1-4.5l0.8-6.3
			l2.1-3.7l-0.5,2.2l0.8-1.2l0.2,0c0,0,1-0.1,2.1-0.1c1.2-0.1,2.4,0.1,3.6,0.6l0.1,0.1l0.6,1.5l0.5-1.7l0.3,1.5
			c0.4,1.9,0.5,3.9,0.5,5.9l0.3,1.9c0.1,0.4,1.2,3.1,1.1,4.5l0,2.6c0.1,0.1,0.1,0.3,0.1,0.4c-0.1,0.4-0.6,0.6-1.6,0.8
			C-3.2-27.3-5.2-27.2-7.1-27.2L-7.1-27.2z M-12.4-29.4c0.1,0.2,0.6,0.7,2.7,1.2c0.9,0.2,1.7,0.3,2.6,0.4c5-0.1,6.3-0.5,6.6-0.7
			l0-2.9v0c0.2-1.3-1-4.2-1-4.2l0,0l-0.4-2.1l0,0c0.1-1.4,0-2.8-0.2-4.2l-0.2,0.7l-1.3-3.2c-1-0.4-2-0.5-3.1-0.5
			c-0.8,0-1.6,0.1-1.9,0.1l-2.3,3.5l-0.7,5.1l0,0c-0.4,1.4-0.8,2.9-1,4.3L-12.4-29.4z"/>
		<path class="st9" d="M-5.7-29.8L-5.7-29.8c-0.2,0-4.1,0-6.4-1.7l0,0c-0.4-0.4-0.6-0.8-0.8-1.3l0.6-0.2c0.1,0.4,0.3,0.7,0.6,1
			c2.1,1.5,5.8,1.6,6,1.6c3.8-0.2,4.9-1.2,5.3-1.8l0.6,0.3C-0.4-31-1.8-30-5.7-29.8L-5.7-29.8z"/>
		<g transform="translate(7.713 164.827)">
			<path class="st7" d="M-8.9-198.8C-8.9-198.8-8.9-198.8-8.9-198.8c-1.6-0.3-3.2-0.4-4.7-0.4c-1.8,0-3.6,0.1-5.4,0.4
				c-0.2,0-0.4-0.1-0.4-0.3c0-0.1,0-0.3,0.1-0.3c1.3-0.7,2.6-1.2,4-1.4c-0.9-0.3-1.9-0.4-2.8-0.5h-0.1c-0.2,0-0.3-0.2-0.3-0.3
				c0-0.1,0.1-0.3,0.2-0.3c0,0,1.5-0.6,3.2-1.1l-2.8-1c-0.2-0.1-0.3-0.3-0.2-0.4c0-0.1,0.1-0.2,0.2-0.2l2.7-0.7
				c-0.7-0.2-1.4-0.4-2.2-0.5c-0.2,0-0.3-0.2-0.3-0.4c0-0.1,0.1-0.3,0.2-0.3c1.1-0.4,2.2-0.6,3.4-0.6c1.2,0,2.4,0.2,3.5,0.6
				c0.2,0.1,0.3,0.3,0.2,0.4c0,0.1-0.1,0.2-0.2,0.2l-2.2,0.6c1.5,0.6,2.7,1.1,2.7,1.1c0.2,0.1,0.2,0.3,0.2,0.5
				c-0.1,0.1-0.2,0.2-0.3,0.2c-0.9,0.1-1.8,0.2-2.7,0.5l3.3,1.1c0.2,0.1,0.3,0.3,0.2,0.4c0,0.1-0.1,0.2-0.3,0.2c0,0-1.3,0.2-2.9,0.5
				c2,0.6,3.8,1.3,3.8,1.3c0.2,0.1,0.3,0.3,0.2,0.4C-8.6-198.9-8.7-198.9-8.9-198.8L-8.9-198.8z M-13.9-200.5
				c-1,0.2-1.9,0.5-2.7,0.7c0.9-0.1,1.9-0.1,3-0.1c0.6,0,1.1,0,1.7,0C-12.6-200.1-13.2-200.3-13.9-200.5z M-16.7-201.9
				c0.9,0.2,1.9,0.4,2.8,0.7c1.1-0.2,2.1-0.4,2.8-0.6l-2.9-1C-15-202.5-15.9-202.2-16.7-201.9L-16.7-201.9z M-16.6-204.5l2.6,0.9
				c1-0.3,1.8-0.5,2.5-0.6c-0.7-0.3-1.6-0.6-2.5-0.9L-16.6-204.5z M-15.7-206.4c0.5,0.1,1.1,0.3,1.8,0.5l1.9-0.5
				c-0.7-0.1-1.3-0.2-2-0.2C-14.6-206.5-15.2-206.5-15.7-206.4L-15.7-206.4z"/>
			<path class="st7" d="M-9.7-201.4L-9.7-201.4c-2.8-0.2-5.6-0.2-8.4,0c-0.2,0-0.4-0.1-0.4-0.3c0-0.2,0.1-0.3,0.3-0.4
				c2.8-0.2,5.7-0.2,8.5,0c0.2,0,0.3,0.2,0.3,0.4C-9.4-201.5-9.5-201.4-9.7-201.4L-9.7-201.4z"/>
			<path class="st7" d="M-10-203.7L-10-203.7c-2.6-0.3-5.1-0.4-7.7-0.5c-0.2,0-0.4-0.1-0.4-0.3s0.1-0.4,0.3-0.4c0,0,0,0,0,0
				c2.6,0,5.2,0.2,7.8,0.5c0.2,0,0.3,0.2,0.3,0.4C-9.7-203.8-9.9-203.7-10-203.7L-10-203.7z"/>
		</g>
		<path class="st41" d="M20.5-116.2c0,0,2.1,26.5,1.6,31.9l-0.4,26.7l-1.8,13.2c-3.2,1.1-6.7,1.2-10,0.5c0,0-0.3-22.6,0-26.2
			l1.1-7.5c0.2-2.7-0.2-5.3-1.1-7.8L7.5-96.7c0,0-4.7,11.1-5,13.3c0,0-1.8,10.3-2,12.5c-0.3,1.3-1.7,26.1-1.7,26.1s-6,2.8-9.7,2
			l-0.5-2.1c0,0-1.2-24.5-0.2-27.9s1.7-5.4,1.7-5.4l1.3-12.6l1.3-13.6l3.2-14.1L20.5-116.2z"/>
		<path class="st3" d="M-4.5-119l25.4,2.4l0,0.4c0.1,1.1,2.1,26.5,1.6,32l-0.4,26.7l-1.9,13.5L19.9-44c-2,0.7-4.1,1-6.1,1
			c-1.4,0-2.8-0.2-4.2-0.5l-0.4-0.1v-0.4c0-0.9-0.3-22.7,0-26.3v0l1.1-7.5c0.2-2.6-0.2-5.2-1.1-7.6l0,0l-1.9-9.7
			C6.1-92,3.2-84.9,2.9-83.2v0c0,0.1-1.8,10.3-2,12.5v0l0,0c-0.2,0.9-1.1,16-1.7,26l0,0.3L-1-44.3c-0.2,0.1-4.8,2.2-8.4,2.2
			c-0.5,0-1,0-1.5-0.1l-0.3-0.1l-0.6-2.4v0c0-1-1.2-24.6-0.2-28.1c0.9-3.1,1.5-5.1,1.7-5.4L-9-90.8l1.3-13.6L-4.5-119z M20-115.8
			L-3.7-118l-3.1,13.7l-1.3,13.6L-9.4-78l0,0.1c0,0-0.7,2-1.7,5.4c-0.9,3.3,0.1,26.6,0.2,27.7l0.4,1.8c0.3,0.1,0.7,0.1,1,0.1
			c3,0,6.8-1.6,7.8-2c0.2-3.5,1.3-24.2,1.7-25.8c0.2-2.3,1.9-12,2-12.5c0.3-2.3,4.9-13,5.1-13.4l0.6-1.4l2.5,12.6
			c0.9,2.6,1.3,5.3,1.1,8l-1.1,7.5c-0.3,3.4,0,22.9,0,25.8c1.2,0.2,2.4,0.4,3.6,0.4c1.9,0,3.8-0.3,5.6-0.8l1.8-12.8l0.4-26.7
			C22.1-89.3,20.3-112.5,20-115.8L20-115.8z"/>
		<g transform="translate(18.335 36.088)">
			
				<linearGradient id="SVGID_00000070814319402398212900000014874296391111748481_" gradientUnits="userSpaceOnUse" x1="-776.0976" y1="259.39" x2="-775.0976" y2="259.39" gradientTransform="matrix(16.7183 0 0 -14.2681 12956 3501.238)">
				<stop  offset="0" style="stop-color:#F1C3A4"/>
				<stop  offset="0.153" style="stop-color:#EEB89F"/>
				<stop  offset="0.612" style="stop-color:#E9A384"/>
				<stop  offset="0.995" style="stop-color:#DB8756"/>
			</linearGradient>
			<path style="fill:url(#SVGID_00000070814319402398212900000014874296391111748481_);" d="M-16.1-194.3c-1.6-2.7-3.3-2.1-2.8-6.2
				c0,0,5.4-1.4,5.4-6.2c1.1,0.5,2.3,0.8,3.5,0.9c1.2-0.1,2.4-0.5,3.5-1.2c0,0-0.4,5.1,4.1,6.2c0.6,4.2-0.6,4.6-3.3,6.7
				C-7.7-192.4-14.6-191.8-16.1-194.3z"/>
			<path class="st43" d="M-15.7-202.2l0.6-0.5c1-1,1.6-2.4,1.6-3.9c1.1,0.5,2.3,0.8,3.5,0.9c1.1-0.1,2.2-0.4,3.2-1l0.3,0.3
				c0,0,0,0.1,0,0.2C-6.9-204.2-11.1-199.8-15.7-202.2z"/>
		</g>
		<path class="st44" d="M14.8-164.8l2.3,1.3l1.2,48.9l-22.1-0.2l0.9-48.5l5.3-2.4c0,0,0.6,3.4,5.8,4c0,0,5.3-0.9,4.9-4.3L14.8-164.8
			z"/>
		
			<linearGradient id="SVGID_00000150064649391152913610000003877110785319116680_" gradientUnits="userSpaceOnUse" x1="-772.5782" y1="309.3571" x2="-773.7712" y2="308.6421" gradientTransform="matrix(25.72 0 0 -31.902 19896.4473 9670.1055)">
			<stop  offset="0" style="stop-color:#F1C3A4"/>
			<stop  offset="0.449" style="stop-color:#EEB89F"/>
			<stop  offset="0.833" style="stop-color:#E9A384"/>
			<stop  offset="0.995" style="stop-color:#DB8756"/>
		</linearGradient>
		<path style="fill:url(#SVGID_00000150064649391152913610000003877110785319116680_);" d="M-5.1-196.1c0,0-0.4,14.9,3.6,20.7
			c0,0,3.1,6.7,9.2,7.4l1.4,0c6-1,8.8-7.8,8.8-7.8c3.7-6,2.5-20.9,2.5-20.9c-4.1-1.8-8.4-2.8-12.8-3.2
			C7.6-199.8-0.7-198.8-5.1-196.1z"/>
		<g transform="translate(11.579 17.874)">
			
				<linearGradient id="SVGID_00000025415846806365837070000005537272167757805192_" gradientUnits="userSpaceOnUse" x1="-618.2802" y1="258.2625" x2="-618.5842" y2="257.3965" gradientTransform="matrix(3.8855 0 0 -8.2723 2383.019 1948.2651)">
				<stop  offset="0" style="stop-color:#F1C3A4"/>
				<stop  offset="0.638" style="stop-color:#EEB89F"/>
				<stop  offset="1" style="stop-color:#EEAF88"/>
			</linearGradient>
			<path style="fill:url(#SVGID_00000025415846806365837070000005537272167757805192_);" d="M-16-205.7c0,0-1.2-2.2-2.5-0.7
				s-0.8,7.8,3.3,7.7C-15.2-198.6-15.9-204.2-16-205.7z"/>
			<path class="st22" d="M-15.9-203.4c0,0-0.9-2.2-1.7-1s-0.3,2.6,0.9,3.6C-16.7-200.8-17.3-204.8-15.9-203.4z"/>
		</g>
		<g transform="translate(38.296 17.825)">
			<path class="st25" d="M-18.5-205.7c0,0,1-2.1,2.2-0.7s1,7.2-2.8,7.3C-19-199.1-18.5-204.3-18.5-205.7z"/>
			<path class="st22" d="M-18.4-203.6c0,0,0.7-2.1,1.5-1c0.7,1.1,0.4,2.6-0.7,3.4C-17.6-201.2-17.2-205-18.4-203.6z"/>
		</g>
		<path class="st20" d="M17.6-188.8c0,0-3.7-3.7-7.2,0c0.7,0.1,1.4,0.1,2.1-0.2C14.1-189.5,16-189.5,17.6-188.8z"/>
		<path class="st20" d="M-0.8-188.8c0,0,3.7-3.7,7.2,0c-0.7,0.1-1.4,0.1-2.1-0.2C2.7-189.5,0.8-189.5-0.8-188.8z"/>
		<g transform="translate(20.567 20.26)">
			<path class="st47" d="M-16.5-204.8c0,1.2-0.6,2.1-1.3,2.1s-1.3-0.9-1.3-2.1s0.6-2.1,1.3-2.1S-16.5-205.9-16.5-204.8z"/>
			<path class="st8" d="M-17-205.7c0,0.4-0.2,0.7-0.4,0.7s-0.4-0.3-0.4-0.7s0.2-0.7,0.4-0.7S-17-206.1-17-205.7z"/>
		</g>
		<g transform="translate(32.633 20.26)">
			<path class="st47" d="M-16.5-204.8c0,1.2-0.6,2.1-1.3,2.1s-1.3-0.9-1.3-2.1s0.6-2.1,1.3-2.1S-16.5-205.9-16.5-204.8z"/>
			<path class="st8" d="M-17-205.7c0,0.4-0.2,0.7-0.4,0.7s-0.4-0.3-0.4-0.7s0.2-0.7,0.4-0.7S-17-206.1-17-205.7z"/>
		</g>
		
			<linearGradient id="SVGID_00000018917469713859890040000000905610240072884648_" gradientUnits="userSpaceOnUse" x1="-776.2708" y1="305.5864" x2="-776.6682" y2="304.5405" gradientTransform="matrix(28.8518 0 0 -23.5365 22411.5547 6984.1748)">
			<stop  offset="0" style="stop-color:#31190D"/>
			<stop  offset="0.993" style="stop-color:#070304"/>
		</linearGradient>
		<path style="fill-rule:evenodd;clip-rule:evenodd;fill:url(#SVGID_00000018917469713859890040000000905610240072884648_);" d="
			M-5.1-185.9c-0.6-3.1-2.1-12.8-0.7-13.5s2.9-1.1,1.9-2.2s1.7-5.2,6.4-5.2s11.8,2.5,15,3.3s3,0.6,4,0.1s-1.4,3.1,0.2,3.1
			s0.2,5.5-0.6,11s-1.5,9-2,1.2c-0.5-7.4-1.3-10.3-4.6-8.4c-4.2,2.4-6.1,2.5-12.4-0.1c-5.4-2.2-5.4,6.5-5.8,10.8
			S-4.7-183.4-5.1-185.9z"/>
		<path class="st49" d="M12.8-176.4c-0.6,0-0.7,0.6-2.6,0.6s-3.5,0.2-4.3-0.2s-0.8-0.2-1.5-0.4s-0.9,0.2,0.1,0.4s0.8,0,1.5,0.3
			c1.4,0.3,2.8,0.3,4.3,0.2c1-0.1,1.8-0.4,2.4-0.5S13.5-176.5,12.8-176.4z"/>
		<path class="st2" d="M-9.7-161.5l10.4-4.1l1.7,4.6l4.2,5.6c0.5,3,0.8,6,1,9L7-107.5c0,0-1.6,6.9-2.4,7.7L-7.8-106l0.3-11.5v-17.6
			l-2.2-15.4l-2.1-9.8L-9.7-161.5z"/>
		<path class="st3" d="M1-166.2l1.9,5l4.2,5.7l0,0.1c0.5,3,0.8,6,1,9v0l-0.7,38.9l0,0c0,0-0.4,1.8-0.9,3.6c-1,3.8-1.5,4.2-1.7,4.3
			l-0.2,0.2l-12.9-6.4l0.4-11.7V-135l-2.2-15.3l-2.2-10.1l2.4-1.4l0,0L1-166.2z M6.3-155.2l-4.2-5.6l-1.6-4.3l-10,4l-1.8,1.1
			l2.1,9.6l2.2,15.4v17.6l-0.3,11.2l11.9,5.8c0.5-1.2,1-2.4,1.2-3.7c0.4-1.6,0.8-3.2,0.9-3.5l0.7-38.8
			C7.1-149.4,6.8-152.3,6.3-155.2z"/>
		<path class="st2" d="M24.8-161.6l-9.1-3.6l-1.6,4.2l-4.2,5.6c-0.5,3-0.8,6-1,9l0.7,38.9c0,0,1.6,6.9,2.4,7.7l12.4-6.1l-0.3-11.5
			v-17.6l1.4-16.5l1.7-8L24.8-161.6z"/>
		<path class="st3" d="M15.5-165.8l9.6,3.8l2.7,2.3l-1.8,8.2L24.6-135v17.6l0.4,11.7L12-99.3l-0.2-0.2c-0.2-0.2-0.6-0.6-1.7-4.3
			c-0.5-1.8-0.9-3.5-0.9-3.6l0,0l-0.7-38.9v0c0.1-3,0.5-6,1-9l0-0.1l4.2-5.7L15.5-165.8z M24.6-161.2l-8.6-3.4l-1.4,3.8l-4.2,5.6
			c-0.5,2.9-0.8,5.8-1,8.8l0.7,38.8c0.1,0.3,0.4,1.9,0.9,3.5c0.3,1.3,0.7,2.5,1.2,3.7l11.9-5.8l-0.3-11.2v-17.6l1.4-16.5l0,0
			l1.7-7.7L24.6-161.2z"/>
		<path class="st2" d="M-15.6-121.4c0,0-3.7-6.7-3.5-11.4c0,0,3.7-24,6.8-27.3l1.1-0.6c0,0,2.7,14.2,2.8,19.9l-2.1,8.1
			c0,0,1.3,6.7,1.6,8.8L-15.6-121.4z"/>
		<path class="st3" d="M-15.8-120.9l-0.2-0.3c-0.2-0.3-3.7-6.8-3.5-11.6v0c0-0.1,0.9-6.1,2.2-12.4c1.8-8.6,3.3-13.7,4.6-15.1
			l0.1-0.1l1.7-0.9l0.1,0.6c0.1,0.6,2.7,14.3,2.9,19.9v0.1l-2,8.1c0.2,0.8,1.3,6.7,1.6,8.7l0.1,0.4L-15.8-120.9z M-18.6-132.8
			c-0.2,3.9,2.5,9.4,3.2,10.8l6.1-2.2c-0.4-2.4-1.5-8.4-1.6-8.4l0-0.1l2.1-8.2c-0.2-4.9-2.2-16.4-2.7-19.2l-0.5,0.2
			c-0.8,1-2.3,4.4-4.4,14.7C-17.6-139-18.5-133.2-18.6-132.8L-18.6-132.8z"/>
		<path class="st50" d="M2.2-83.3l5.3-13.4l1.6,6.9l1.6,5.2l0.5-10.7l-0.3-2.6L9-98.2l-4.7,0.2l-0.7,5.8l-0.6,4.6L2.2-83.3z"/>
		<path class="st51" d="M2.3-81.6L3.5-97c0,0,0.3-1.7,1.6-1.9h5.2c0.8,0.2,1.3,0.9,1.3,1.7l-0.9,15.1l-1-14.1c0,0-0.2-1.2-1.1-1.2
			H6.3c-0.6,0.2-1,0.7-1.1,1.4L2.3-81.6z"/>
		<path class="st50" d="M-9.5-78.7c1.6,1.4,3.8,1.7,5.7,0.8l-5.7,1.6c0,0-1,2,3.3,2.3h-3.9c0,0-2.2,3,1.6,3c0,0-2.4-0.5-2.9,0.7
			c0,0-0.2,17.2,0,21.8c0,0-1.9-18.6,0.4-26.2c0,0,1.3-5.8,1.5-8.3V-78.7z"/>
		<path class="st50" d="M10.2-74c0,0-1.3,11.7-0.5,17.3l0,12.7c0,0,0.8,0.7,1.4-5.5v-17.2c0,0,0.2-10.3,0.4-12.3L10.2-74z"/>
		<path class="st14" d="M9.5-159c-0.3,0-0.5-0.2-0.5-0.5c0-0.2,0.2-0.4,0.4-0.5c0.9-0.1,1.8-0.4,2.6-0.7c0.2-0.1,0.5,0,0.6,0.3
			c0.1,0.2,0,0.5-0.3,0.6C11.4-159.4,10.5-159.2,9.5-159C9.5-159,9.5-159,9.5-159z M6.7-159.3c0,0-0.1,0-0.1,0
			c-0.9-0.2-1.9-0.6-2.7-1.1c-0.2-0.1-0.3-0.4-0.1-0.6c0.1-0.2,0.4-0.3,0.6-0.1c0.8,0.5,1.6,0.8,2.4,1c0.2,0.1,0.4,0.3,0.3,0.6
			C7.1-159.4,6.9-159.3,6.7-159.3L6.7-159.3z M14.6-161.1c-0.3,0-0.5-0.2-0.5-0.5c0-0.1,0.1-0.3,0.2-0.4c0.7-0.5,1.3-1.2,1.8-1.9
			c0.1-0.2,0.4-0.3,0.6-0.1c0.2,0.1,0.3,0.4,0.1,0.6c-0.5,0.8-1.2,1.5-2,2.1C14.8-161.1,14.7-161.1,14.6-161.1L14.6-161.1z M2-162.1
			c-0.1,0-0.3-0.1-0.3-0.2C1-163,0.4-163.8,0-164.7c-0.1-0.2,0-0.5,0.3-0.6c0.2-0.1,0.5,0,0.6,0.2l0,0c0.4,0.8,0.9,1.5,1.5,2.2
			c0.2,0.2,0.2,0.5,0,0.7C2.2-162.2,2.1-162.1,2-162.1L2-162.1z"/>
		<path class="st37" d="M-10.3-161.2c0,0,1.1,7.9,2.1,15.4c0.9,6.7,2,13.7,2.8,16.2c0.8,2.2,1.7,4.4,2.7,6.6c0,0-3.6-3.7-4.2-5.9
			c0,0,1.9,22.3,2.7,24l-3.6-1.2l0.3-26.2l-3.7-28.5L-10.3-161.2z"/>
		<path class="st38" d="M-8-113.1c0.6,0.3,1.1,0.7,1.5,1.3c0.7,0.9,0.7,2.2,1.4,3.4s1.5,0,1.2-0.4c-0.3-1.3-0.5-2.7-0.5-4
			c0-0.9-2.4-4-3.7-4.6c-0.6-0.4-1.2-0.9-1.6-1.5c-0.7-0.8-2-5.9-2-5.9l-4.6,1.5c0.6,0.7,2,6.3,2.1,6.9c0.1,0.8,0,1.7,0.1,3.1
			c0.3,2,0.9,3.9,1.7,5.7l2.7,3.7c0,0,3.3,1.6,3.9,1.2c0.7-1.3,0.9-2.8,0.5-4.2L-8-113.1z"/>
		<path class="st3" d="M-6.2-102.1c-1.3-0.2-2.6-0.7-3.8-1.3l-0.1-0.1l-2.8-3.9l0-0.1c-0.8-1.9-1.4-3.9-1.8-5.9
			c-0.1-0.7-0.1-1.4-0.1-2.1c0-0.4,0-0.7,0-1c0-0.2-0.4-1.7-0.8-3.3c-0.2-1.1-0.6-2.2-1.1-3.3l-0.5-0.6l0.8-0.3l5.1-1.7l0.1,0.6
			c0.5,2,1.1,3.9,1.9,5.7c0.4,0.5,0.9,1,1.4,1.4c1,0.6,1.8,1.4,2.6,2.4c0.7,0.8,1.2,1.7,1.5,2.7c0,1.3,0.2,2.5,0.4,3.7
			c0.2,0.4,0.2,0.8,0,1.1c-0.2,0.4-0.6,0.6-1,0.7c-0.2,0-0.4-0.1-0.6-0.2l0.2,0.4c0.5,1.5,0.3,3.2-0.5,4.6l-0.1,0.1l-0.1,0.1
			C-5.7-102.2-5.9-102.1-6.2-102.1z M-9.4-104.3c1,0.5,2.1,0.9,3.2,1.1c0.6-1.1,0.7-2.3,0.3-3.5l-3.2-7.5l1.3,0.6
			c0.7,0.3,1.3,0.8,1.7,1.4c0.4,0.6,0.7,1.2,0.8,1.9c0.2,0.6,0.4,1.1,0.6,1.6c0,0.1,0.1,0.2,0.2,0.2c0,0,0.1-0.1,0.1-0.1
			c-0.4-0.8-0.6-4-0.6-4.3c-0.3-0.8-0.7-1.5-1.3-2.1c-0.6-0.8-1.3-1.5-2.2-2.1c-0.7-0.4-1.3-1-1.8-1.7c-0.6-0.8-1.6-4.1-2-5.6
			l-3.4,1.1c0.4,1,0.7,2,1,3c0.4,1.5,0.8,3.1,0.9,3.5c0,0.4,0,0.7,0,1.1c0,0.7,0,1.3,0.1,2c0.3,1.9,0.9,3.8,1.7,5.5L-9.4-104.3z"/>
		
			<linearGradient id="SVGID_00000080204354424223423910000006525955225263323835_" gradientUnits="userSpaceOnUse" x1="-726.1339" y1="274.3137" x2="-725.1339" y2="274.3137" gradientTransform="matrix(9.8854 0 0 -7.6187 7159.7812 1966.3954)">
			<stop  offset="0.29" style="stop-color:#6781A5"/>
			<stop  offset="1" style="stop-color:#2B5C85"/>
		</linearGradient>
		<path style="fill:url(#SVGID_00000080204354424223423910000006525955225263323835_);" d="M-18.3-126.1c0,0-0.1-0.2,1.3-0.7
			c0,0,5.7-0.7,7.8-0.5l0.8,4.9c0,0-0.4,1.3-1.1,1.4c0,0-5.5,0.5-6.7,1c0,0-0.5,0.1-0.5,0.3c-0.7-1.7-1.2-3.5-1.5-5.4L-18.3-126.1z"
			/>
		<path class="st3" d="M-10.5-127.8c0.4,0,0.9,0,1.3,0.1l0.3,0l0.9,5.3l0,0.1c0,0.2-0.5,1.6-1.4,1.7h0c-1.5,0.1-5.6,0.5-6.5,1
			l-0.1,0l-0.1,0c-0.1,0-0.1,0-0.2,0.1c-0.1,0.2-0.2,0.3-0.4,0.3c-0.3,0-0.5-0.3-0.6-0.8c-0.1-0.4-0.3-0.8-0.4-1.3
			c-0.4-1.2-0.6-2.4-0.8-3.6l-0.2-0.9c0-0.2,0-0.4,0.3-0.6c0.4-0.3,0.8-0.5,1.2-0.6l0.1,0l0.1,0C-14.9-127.5-12.7-127.7-10.5-127.8z
			 M-9.6-126.9c-0.2,0-0.5,0-0.9,0c-2.3,0-6,0.4-6.5,0.5c-0.3,0.1-0.6,0.3-0.9,0.4l0.1,0.8c0.2,1.6,0.7,3.2,1.2,4.8
			c0.1,0,0.2-0.1,0.2-0.1c1.3-0.6,6.1-1,6.7-1c0.3,0,0.5-0.6,0.7-1L-9.6-126.9z"/>
		<path class="st37" d="M-11.2-133.5c0,0-0.3,0.6-2.5,0c0.9,0.8,2,1.4,3.1,1.8c0,0-1.5,1.4-2.8,1c1.1,0.4,2.2,0.7,3.3,0.8l-0.3-2.8
			l0.8-3.3L-11.2-133.5z"/>
		<path class="st37" d="M-0.9-163.5c0,0,1.1,6,3.8,6.9c0,0,3.9,4.4,4.8,6.4l-2.2-7.1l-3.5-4.3l-0.8-3.3L-0.9-163.5z"/>
		
			<linearGradient id="SVGID_00000123403092952358376100000011263629184149490342_" gradientUnits="userSpaceOnUse" x1="-713.9108" y1="300.0252" x2="-712.9108" y2="300.0252" gradientTransform="matrix(8.537 0 0 -17.561 6093.4028 5109.0337)">
			<stop  offset="0.29" style="stop-color:#6781A5"/>
			<stop  offset="1" style="stop-color:#2B5C85"/>
		</linearGradient>
		<path style="fill:url(#SVGID_00000123403092952358376100000011263629184149490342_);" d="M2.3-168.5c0,0-1.2,6.3,1.9,8.8
			c0.9,0.9,1.6,1.9,2.2,2.9c0.4,1.9,0.6,3.9,0.8,5.9c0,0-1.4-4.8-3.3-7.3l-0.8-1.1l-4.4,4.1l0.3-8.3c0.1-0.7,0.3-1.3,0.6-2
			L2.3-168.5z"/>
		<path class="st3" d="M3.1-170l-0.3,1.6c0,0.1-1.1,6.1,1.8,8.3l0,0l0,0c0.9,0.9,1.7,1.9,2.3,3.1l0,0l0,0c0.4,2,0.6,3.9,0.8,5.9v3.1
			l-0.9-3c0,0-1.4-4.8-3.3-7.1l0,0L3-158.7l-4.8,4.5l0.4-9.4v0c0.1-0.7,0.3-1.5,0.7-2.1l0,0L3.1-170z M4-159.4
			c-2.3-1.9-2.4-5.7-2.2-7.7l-1.7,2c-0.2,0.6-0.4,1.1-0.5,1.8l-0.3,7.2l3.9-3.7l1.1,1.5c0.9,1.2,1.6,2.5,2.1,3.8
			c-0.2-1-0.3-1.8-0.3-2C5.5-157.7,4.8-158.6,4-159.4z"/>
		<path class="st37" d="M9-149.5c0,0,3.3-7,4.5-7.8l3.8,3.3l-0.9-6.3l-0.5-4.4c-1.4,2.3-3,4.5-4.7,6.6C11.2-158,8.9-151.3,9-149.5z"
			/>
		
			<linearGradient id="SVGID_00000145770566840306934920000001373849941293983646_" gradientUnits="userSpaceOnUse" x1="-712.7839" y1="300.0428" x2="-713.7139" y2="299.1438" gradientTransform="matrix(8.537 0 0 -17.172 6103.8833 4984.8564)">
			<stop  offset="0.29" style="stop-color:#6781A5"/>
			<stop  offset="1" style="stop-color:#2B5C85"/>
		</linearGradient>
		<path style="fill:url(#SVGID_00000145770566840306934920000001373849941293983646_);" d="M13.9-168.1c0,0,1.1,5.9-1.7,8.4
			c-0.9,0.9-1.6,1.9-2.2,2.9c-0.4,1.9-0.6,3.9-0.8,5.9c0,0,1.4-4.8,3.3-7.3l0.8-1.1l4.4,4.1l-0.3-8.3c-0.1-0.7-0.3-1.3-0.6-2
			L13.9-168.1z"/>
		<path class="st3" d="M13.3-169.3l3.9,3.6l0,0c0.3,0.7,0.5,1.4,0.7,2.1v0l0.4,9.4l-4.8-4.5l-0.6,0.7c-1.9,2.3-3.3,7.1-3.3,7.1
			l-0.9,3v-3.1c0.2-2,0.4-4,0.8-5.9l0,0l0,0c0.6-1.1,1.4-2.2,2.3-3.1l0,0c2.6-2.3,1.6-7.9,1.6-8L13.3-169.3z M16.5-165.2l-2-1.8
			c0.2,1.9,0.2,5.7-2,7.6c-0.8,0.8-1.5,1.7-2.1,2.8c0,0.2-0.2,1-0.3,2c0.5-1.4,1.3-2.6,2.1-3.8l1.1-1.5l3.9,3.7l-0.3-7.2
			C16.9-164,16.7-164.6,16.5-165.2L16.5-165.2z"/>
		<path class="st37" d="M4-102.2c-0.3,0-0.5-0.2-0.5-0.5c0,0,0-0.1,0-0.1l0.1-0.8c0.1-0.3,0.3-0.4,0.6-0.4c0.2,0.1,0.4,0.3,0.4,0.5
			l-0.1,0.8C4.4-102.3,4.2-102.2,4-102.2z M4.6-105.7c-0.3,0-0.5-0.2-0.5-0.5c0,0,0-0.1,0-0.1l0.5-2.7c0.1-0.3,0.3-0.4,0.6-0.4
			c0.2,0.1,0.4,0.3,0.4,0.5l-0.5,2.7C5.1-105.9,4.9-105.7,4.6-105.7L4.6-105.7z M5.4-111.3L5.4-111.3c-0.3,0-0.5-0.2-0.5-0.5
			c0,0,0,0,0,0c0.1-0.8,0.1-1.7,0.2-2.8c0-0.3,0.2-0.5,0.5-0.4c0.3,0,0.5,0.2,0.4,0.5c-0.1,1.1-0.1,2-0.2,2.8
			C5.8-111.4,5.6-111.3,5.4-111.3L5.4-111.3z M5.7-116.8L5.7-116.8c-0.3,0-0.5-0.2-0.5-0.5c0.1-0.9,0.1-1.8,0.2-2.8
			c0-0.3,0.2-0.5,0.5-0.5s0.5,0.2,0.5,0.5c0,0,0,0,0,0c-0.1,1-0.1,1.9-0.2,2.8C6.2-117,6-116.8,5.7-116.8z M6.1-122.4L6.1-122.4
			c-0.3,0-0.5-0.2-0.5-0.5c0,0,0,0,0,0c0-0.4,0-0.6,0-0.7c0-0.5,0-1.2,0-2.1c0-0.3,0.2-0.5,0.5-0.5c0.3,0,0.5,0.2,0.5,0.5
			c0,0.9,0,1.6,0,2.1c0,0,0,0,0,0s0,0.2,0,0.7C6.5-122.6,6.3-122.4,6.1-122.4L6.1-122.4z M6.1-128L6.1-128c-0.3,0-0.5-0.2-0.5-0.5
			c0-0.9,0-1.8,0-2.8c0-0.3,0.2-0.5,0.5-0.5l0,0c0.3,0,0.5,0.2,0.5,0.5c0,1,0,1.9,0,2.8C6.6-128.2,6.4-128,6.1-128L6.1-128z
			 M6.1-133.5c-0.3,0-0.5-0.2-0.5-0.5c0-0.9,0-1.8,0-2.8c0-0.3,0.2-0.5,0.5-0.5l0,0c0.3,0,0.5,0.2,0.5,0.5c0,0.9,0,1.9,0,2.8
			C6.6-133.8,6.4-133.5,6.1-133.5C6.1-133.5,6.1-133.5,6.1-133.5L6.1-133.5z M6.1-139.1c-0.3,0-0.5-0.2-0.5-0.5c0-0.9,0-1.9,0-2.8
			c0-0.3,0.2-0.5,0.5-0.5l0,0l0,0c0.3,0,0.5,0.2,0.5,0.5c0,0.9,0,1.8,0,2.8C6.6-139.3,6.4-139.1,6.1-139.1L6.1-139.1z M6.1-144.7
			c-0.3,0-0.5-0.2-0.5-0.5c0-1,0-1.9,0-2.8c0-0.3,0.2-0.5,0.5-0.5l0,0c0.3,0,0.5,0.2,0.5,0.5c0,0.9,0,1.8,0,2.8
			C6.6-144.9,6.4-144.7,6.1-144.7z M6.1-150.3c-0.3,0-0.5-0.2-0.5-0.5c0-1.7,0-2.8,0-2.8c0-0.3,0.2-0.5,0.5-0.5
			c0.3,0,0.5,0.2,0.5,0.5c0,0,0,1.1,0,2.8C6.6-150.5,6.4-150.3,6.1-150.3C6.1-150.3,6.1-150.3,6.1-150.3L6.1-150.3z"/>
		<path class="st37" d="M12.9-102.2c-0.2,0-0.4-0.2-0.5-0.4l-0.1-0.8c0-0.3,0.1-0.5,0.4-0.5c0.2,0,0.5,0.1,0.5,0.4l0.1,0.8
			C13.4-102.5,13.2-102.2,12.9-102.2C12.9-102.2,12.9-102.2,12.9-102.2L12.9-102.2z M12.3-105.7c-0.2,0-0.4-0.2-0.5-0.4l-0.5-2.7
			c0-0.3,0.1-0.5,0.4-0.5c0.2,0,0.5,0.1,0.5,0.4l0.5,2.7C12.8-106,12.6-105.8,12.3-105.7C12.3-105.7,12.3-105.7,12.3-105.7
			L12.3-105.7z M11.6-111.3c-0.2,0-0.4-0.2-0.5-0.4c-0.1-0.8-0.1-1.7-0.2-2.8c0-0.3,0.2-0.5,0.4-0.5c0.3,0,0.5,0.2,0.5,0.4
			c0.1,1.1,0.1,2,0.2,2.8C12-111.5,11.8-111.3,11.6-111.3C11.6-111.3,11.6-111.3,11.6-111.3L11.6-111.3z M11.2-116.8
			c-0.2,0-0.4-0.2-0.5-0.4c-0.1-0.9-0.1-1.8-0.2-2.8c0-0.3,0.2-0.5,0.4-0.5c0.3,0,0.5,0.2,0.5,0.4c0,0,0,0,0,0
			c0.1,1,0.1,1.9,0.2,2.8C11.7-117.1,11.5-116.8,11.2-116.8L11.2-116.8z M10.9-122.4c-0.2,0-0.5-0.2-0.5-0.4c0-0.4,0-0.7,0-0.7
			s0,0,0,0c0-0.5,0-1.2,0-2.1c0-0.3,0.2-0.5,0.5-0.5c0,0,0,0,0,0l0,0c0.3,0,0.5,0.2,0.5,0.5c0,0.9,0,1.6,0,2.1c0,0,0,0.3,0,0.7
			C11.3-122.6,11.1-122.4,10.9-122.4C10.9-122.4,10.9-122.4,10.9-122.4L10.9-122.4z M10.8-128c-0.3,0-0.5-0.2-0.5-0.5
			c0-0.9,0-1.8,0-2.8c0-0.3,0.2-0.5,0.5-0.5l0,0c0.3,0,0.5,0.2,0.5,0.5c0,1,0,1.9,0,2.8C11.2-128.2,11-128,10.8-128z M10.8-133.5
			L10.8-133.5c-0.3,0-0.5-0.2-0.5-0.5c0-0.9,0-1.9,0-2.8c0-0.3,0.2-0.5,0.5-0.5l0,0c0.3,0,0.5,0.2,0.5,0.5c0,0.9,0,1.9,0,2.8
			C11.2-133.8,11-133.5,10.8-133.5L10.8-133.5z M10.8-139.1L10.8-139.1c-0.3,0-0.5-0.2-0.5-0.5l0,0c0-0.9,0-1.9,0-2.8
			c0-0.3,0.2-0.5,0.5-0.5l0,0c0.3,0,0.5,0.2,0.5,0.5l0,0c0,0.9,0,1.8,0,2.8C11.2-139.3,11-139.1,10.8-139.1
			C10.8-139.1,10.8-139.1,10.8-139.1L10.8-139.1z M10.8-144.7L10.8-144.7c-0.3,0-0.5-0.2-0.5-0.5c0-1,0-1.9,0-2.8
			c0-0.3,0.2-0.5,0.5-0.5l0,0c0.3,0,0.5,0.2,0.5,0.5c0,0.9,0,1.8,0,2.8C11.3-144.9,11-144.7,10.8-144.7L10.8-144.7z M10.8-150.3
			L10.8-150.3c-0.3,0-0.5-0.2-0.5-0.5c0,0,0,0,0,0c0-1.7,0-2.8,0-2.8c0-0.3,0.2-0.5,0.5-0.5c0.3,0,0.5,0.2,0.5,0.5c0,0,0,1.1,0,2.8
			C11.3-150.5,11.1-150.3,10.8-150.3C10.8-150.3,10.8-150.3,10.8-150.3L10.8-150.3z"/>
		<path class="st49" d="M10.5-174.6c-1.1,0.5-2.4,0.5-3.5,0.1c-1-0.4-1.2,0.2-0.1,0.8c1,0.5,2.1,0.5,3.1-0.1
			C11.1-174.3,11-174.9,10.5-174.6z"/>
		<g transform="translate(31.635 60.242)">
			<path class="st37" d="M-9.6-205.4l-0.8,9.3l-3.8,1.4l-4.3-2.3l0.4-9.5l-0.8,9.8l4.7,2.6l4.3-1.9L-9.6-205.4z"/>
			<path class="st37" d="M-10.8-202.8c0,0-4.7,0.2-6.7-1c0,0,1.4,1.5,4.8,1.3C-12.1-202.5-11.4-202.6-10.8-202.8z"/>
			<path class="st55" d="M-9.9-205.8c0,0-5.6,0.2-8-1c0,0,1.7,1.5,5.8,1.3C-11.4-205.5-10.6-205.6-9.9-205.8z"/>
		</g>
		<g transform="translate(13.078 60.303)">
			<path class="st37" d="M-19-205.4l0.8,9.3l3.8,1.4l4.3-2.3l-0.4-9.5l0.8,9.8l-4.7,2.6l-4.3-1.9L-19-205.4z"/>
			<path class="st37" d="M-17.8-202.8c0,0,4.7,0.2,6.7-1c0,0-1.4,1.5-4.8,1.3C-16.6-202.5-17.2-202.6-17.8-202.8z"/>
			<path class="st55" d="M-18.8-205.8c0,0,5.6,0.2,8-1c0,0-1.7,1.5-5.8,1.3C-17.3-205.5-18-205.6-18.8-205.8z"/>
		</g>
		<path class="st22" d="M8.4-178.6c-0.4,0-0.8-0.4-0.8-0.8c0-0.3,0.2-0.6,0.4-0.7l0.5-0.3c0-0.3,0-0.5-0.1-0.8v0
			c-0.1-0.4-0.7-2-0.8-2.5c-0.1-0.4,0.2-0.9,0.7-0.9c0.4-0.1,0.9,0.2,0.9,0.7c0.1,0.3,0.4,1.5,0.7,2.3l0,0v0
			c0.4,1.2,0.2,2.1-0.6,2.6l0,0l-0.5,0.3C8.7-178.7,8.5-178.6,8.4-178.6z"/>
	</g>
</g>
</svg>
