<svg xmlns="http://www.w3.org/2000/svg" width="240" height="240" viewBox="0 0 240 240"><g transform="translate(-566 -79)"><path d="M5.657-5.657,58.824,47.51,111.99-5.657,123.3,5.657,70.137,58.823,123.3,111.99,111.99,123.3,58.824,70.137,5.657,123.3-5.657,111.99,47.51,58.823-5.657,5.657Z" transform="translate(627.569 140.569)" fill="#ff4e00"/><path d="M120,16A104,104,0,1,0,224,120,104.118,104.118,0,0,0,120,16m0-16A120,120,0,1,1,0,120,120,120,0,0,1,120,0Z" transform="translate(566 79)" fill="#ff4e00"/></g></svg>