<svg xmlns="http://www.w3.org/2000/svg" width="288.602" height="55.148" viewBox="0 0 288.602 55.148"><g transform="translate(-578.28 -287.852)"><text transform="translate(581 326)" fill="#ff4e00" font-size="32" font-family="PingFangTC-Semibold, PingFang TC" font-weight="600" letter-spacing="0.02em"><tspan x="0" y="0">答對</tspan><tspan y="0" font-family="Helvetica-Bold, Helvetica" font-weight="700"> </tspan><tspan y="0" font-size="48" font-family="Helvetica-Bold, Helvetica" font-weight="700">3 </tspan><tspan y="0">題即可抽獎</tspan></text><path d="M87.678-38.148a15.71,15.71,0,0,1,10.442,3.461,12.42,12.42,0,0,1,4.41,9.82,11.573,11.573,0,0,1-1.83,6.451,12.689,12.689,0,0,1,2.884,8.409A14.828,14.828,0,0,1,99.548.273c-2.772,3.033-6.742,4.571-11.8,4.571-7.843,0-11.652-3.622-13.466-6.66a17.946,17.946,0,0,1-2.2-8.451A4,4,0,0,1,73.191-13.2a4,4,0,0,1,2.885-1.229H81.06a4.038,4.038,0,0,1-.031-.5V-19.2H76.686a4,4,0,0,1-2.88-1.224,4,4,0,0,1-1.117-2.924A20.836,20.836,0,0,1,73.766-29.3a14.98,14.98,0,0,1,3.595-5.277,13.1,13.1,0,0,1,4.564-2.717A17.241,17.241,0,0,1,87.678-38.148Zm-.746,14.333A4.813,4.813,0,0,0,87.952-24l-.914-.636C87.041-24.549,86.963-24.292,86.931-23.816Zm-.046,15,1.565-.067.074-1.654a6.15,6.15,0,0,0-1.91-.34,4.042,4.042,0,0,1,.025.45A3.8,3.8,0,0,0,86.885-8.818ZM5.6-30.529a4.009,4.009,0,0,1,.87.1l3.168.7A4,4,0,0,1,12.185-27.9h3.079a4,4,0,0,1,4.612-2.5l3.168.7A4,4,0,0,1,25.573-27.9h4.955a3.99,3.99,0,0,1,1.419.259,4,4,0,0,1,.58-.246l2.592-.864a4.021,4.021,0,0,1,.611-.152,3.988,3.988,0,0,1,2.862-1.205h2.976a4.02,4.02,0,0,1,.784.077,4.02,4.02,0,0,1,.784-.077h3.008a3.985,3.985,0,0,1,2.667,1.019A4,4,0,0,1,49.2-29l2.752.768a3.983,3.983,0,0,1,1.653.926,4,4,0,0,1,3.864-2.962h3.264a4,4,0,0,1,4,4v2.495a4,4,0,0,1,2.592,3.745v3.2a4,4,0,0,1-2.592,3.745V-.16a6.968,6.968,0,0,1-7.328,7.392H53.376a4,4,0,0,1-3.41-1.908c-2.952.49-7.7.9-14.869,1.294a4,4,0,0,1-4.172-3.389L30.446.093a4,4,0,0,1,.883-3.168,4,4,0,0,1,.466-.473q-.019-.192-.019-.389V-5.162a4.01,4.01,0,0,1-1.7.793V3.3a4,4,0,0,1-4,4H22.848a3.986,3.986,0,0,1-2.776-1.12H11.928A3.986,3.986,0,0,1,9.152,7.3H5.92a4,4,0,0,1-4-4V-4.637a3.994,3.994,0,0,1-2.5-1.92L-2.209-9.468a4,4,0,0,1-.254-3.366,4,4,0,0,1,2.2-2.279L-.8-15.459A4,4,0,0,1-2.576-18.2a4,4,0,0,1,.852-3.149,18.553,18.553,0,0,0,3.5-6.354A4,4,0,0,1,5.6-30.529Zm261.212.1a4,4,0,0,1,.475.028l2.944.352a4,4,0,0,1,2.233,1.028h4.524a4,4,0,0,1,4,4v2.144a4,4,0,0,1-.542,2.011,11.442,11.442,0,0,1-.792,1.184,4,4,0,0,1,2.231,3.588v2.56a4,4,0,0,1-2.168,3.557,3.991,3.991,0,0,1,1.432,3.067v3.04a3.982,3.982,0,0,1-.446,1.838,4,4,0,0,1,.472,3.861l-1.184,2.912a4,4,0,0,1-5.116,2.236,78.228,78.228,0,0,0-12.419-3.5q-.084-.017-.166-.036C259.7,5.093,256.1,6.363,251.338,7.314a4,4,0,0,1-3.9-1.419,3.988,3.988,0,0,1-2.9,1.24h-3.264a3.99,3.99,0,0,1-2.991-1.344H233.7a3.991,3.991,0,0,1-3.019,1.376h-3.264a3.99,3.99,0,0,1-2.991-1.343,7.671,7.671,0,0,1-4.369,1.247h-2.72a4,4,0,0,1-3.9-3.112L212.7.728a4,4,0,0,1,.981-3.623,4,4,0,0,1,.416-.385,4,4,0,0,1-1.382-2.167l-.179-.73v5.7c0,4.607-2.9,7.584-7.392,7.584h-5.408a4,4,0,0,1-3.892-3.075L195.078.8a4,4,0,0,1-.021-1.757h-1.027A4,4,0,0,1,190.3,1.6h-3.2a4,4,0,0,1-4-4V-3.852c-.332,4.176-3.222,6.828-7.552,6.828h-.256v.288a4,4,0,0,1-4,4h-3.328a3.993,3.993,0,0,1-3.117-1.492,4,4,0,0,1-3.786-1.845c-2.549.884-5.317,1.7-8.269,2.422a3.994,3.994,0,0,1-3.157-.544,3.993,3.993,0,0,1-2.695,1.044h-6.592c-10.829,0-14.172-.814-15.874-1.524q-.4-.176-.776-.373-.13.23-.265.456a4,4,0,0,1-6.073.961L115.021,4.32a4,4,0,0,1-.858-4.954,16.367,16.367,0,0,0,1.894-5.589,3.99,3.99,0,0,1-1.311-2.961V-12.16a3.992,3.992,0,0,1,1.472-3.1V-25.312a4,4,0,0,1,4-4h10.976a4.015,4.015,0,0,1,.85.091,4.026,4.026,0,0,1,.686-.059h14.08a3.985,3.985,0,0,1,2.64.995,3.985,3.985,0,0,1,2.64-.995h12.736a3.986,3.986,0,0,1,1.643.352,3.989,3.989,0,0,1,1.493-.288H179.13a3.986,3.986,0,0,1,2.728,1.075,3.983,3.983,0,0,1,1.816-.435h28.832a4,4,0,0,1,3.5,2.065,4,4,0,0,1,3.986-3.665h3.36a4,4,0,0,1,4,4v1.249h2.88v-1.28a4,4,0,0,1,4-4h3.392a4,4,0,0,1,4,4v1.28h2.912a3.982,3.982,0,0,1,2.016.544v-1.024a4,4,0,0,1,4-4h3.04q.139,0,.275.009a3.982,3.982,0,0,1,2.413-.809h3.136a4,4,0,0,1,3.376,1.853,3.39,3.39,0,0,0,.969-.668A4,4,0,0,1,266.809-30.432Zm-51.789,16.7a4.011,4.011,0,0,1-2.483-2.314v3.894a3.984,3.984,0,0,1,2.262-1.524Z" transform="translate(581 326)" fill="#ff4e00"/><text transform="translate(585 332)" fill="#ff4e00" font-size="32" font-family="PingFangTC-Semibold, PingFang TC" font-weight="600" letter-spacing="0.02em"><tspan x="0" y="0">答對</tspan><tspan y="0" font-family="Helvetica-Bold, Helvetica" font-weight="700"> </tspan><tspan y="0" font-size="48" font-family="Helvetica-Bold, Helvetica" font-weight="700">3 </tspan><tspan y="0">題即可抽獎</tspan></text><path d="M87.678-38.148a15.71,15.71,0,0,1,10.442,3.461,12.42,12.42,0,0,1,4.41,9.82,11.573,11.573,0,0,1-1.83,6.451,12.689,12.689,0,0,1,2.884,8.409A14.828,14.828,0,0,1,99.548.273c-2.772,3.033-6.742,4.571-11.8,4.571-7.843,0-11.652-3.622-13.466-6.66a17.946,17.946,0,0,1-2.2-8.451A4,4,0,0,1,73.191-13.2a4,4,0,0,1,2.885-1.229H81.06a4.038,4.038,0,0,1-.031-.5V-19.2H76.686a4,4,0,0,1-2.88-1.224,4,4,0,0,1-1.117-2.924A20.836,20.836,0,0,1,73.766-29.3a14.98,14.98,0,0,1,3.595-5.277,13.1,13.1,0,0,1,4.564-2.717A17.241,17.241,0,0,1,87.678-38.148Zm-.746,14.333A4.813,4.813,0,0,0,87.952-24l-.914-.636C87.041-24.549,86.963-24.292,86.931-23.816Zm-.046,15,1.565-.067.074-1.654a6.15,6.15,0,0,0-1.91-.34,4.042,4.042,0,0,1,.025.45A3.8,3.8,0,0,0,86.885-8.818ZM5.6-30.529a4.009,4.009,0,0,1,.87.1l3.168.7A4,4,0,0,1,12.185-27.9h3.079a4,4,0,0,1,4.612-2.5l3.168.7A4,4,0,0,1,25.573-27.9h4.955a3.99,3.99,0,0,1,1.419.259,4,4,0,0,1,.58-.246l2.592-.864a4.021,4.021,0,0,1,.611-.152,3.988,3.988,0,0,1,2.862-1.205h2.976a4.02,4.02,0,0,1,.784.077,4.02,4.02,0,0,1,.784-.077h3.008a3.985,3.985,0,0,1,2.667,1.019A4,4,0,0,1,49.2-29l2.752.768a3.983,3.983,0,0,1,1.653.926,4,4,0,0,1,3.864-2.962h3.264a4,4,0,0,1,4,4v2.495a4,4,0,0,1,2.592,3.745v3.2a4,4,0,0,1-2.592,3.745V-.16a6.968,6.968,0,0,1-7.328,7.392H53.376a4,4,0,0,1-3.41-1.908c-2.952.49-7.7.9-14.869,1.294a4,4,0,0,1-4.172-3.389L30.446.093a4,4,0,0,1,.883-3.168,4,4,0,0,1,.466-.473q-.019-.192-.019-.389V-5.162a4.01,4.01,0,0,1-1.7.793V3.3a4,4,0,0,1-4,4H22.848a3.986,3.986,0,0,1-2.776-1.12H11.928A3.986,3.986,0,0,1,9.152,7.3H5.92a4,4,0,0,1-4-4V-4.637a3.994,3.994,0,0,1-2.5-1.92L-2.209-9.468a4,4,0,0,1-.254-3.366,4,4,0,0,1,2.2-2.279L-.8-15.459A4,4,0,0,1-2.576-18.2a4,4,0,0,1,.852-3.149,18.553,18.553,0,0,0,3.5-6.354A4,4,0,0,1,5.6-30.529Zm261.212.1a4,4,0,0,1,.475.028l2.944.352a4,4,0,0,1,2.233,1.028h4.524a4,4,0,0,1,4,4v2.144a4,4,0,0,1-.542,2.011,11.442,11.442,0,0,1-.792,1.184,4,4,0,0,1,2.231,3.588v2.56a4,4,0,0,1-2.168,3.557,3.991,3.991,0,0,1,1.432,3.067v3.04a3.982,3.982,0,0,1-.446,1.838,4,4,0,0,1,.472,3.861l-1.184,2.912a4,4,0,0,1-5.116,2.236,78.228,78.228,0,0,0-12.419-3.5q-.084-.017-.166-.036C259.7,5.093,256.1,6.363,251.338,7.314a4,4,0,0,1-3.9-1.419,3.988,3.988,0,0,1-2.9,1.24h-3.264a3.99,3.99,0,0,1-2.991-1.344H233.7a3.991,3.991,0,0,1-3.019,1.376h-3.264a3.99,3.99,0,0,1-2.991-1.343,7.671,7.671,0,0,1-4.369,1.247h-2.72a4,4,0,0,1-3.9-3.112L212.7.728a4,4,0,0,1,.981-3.623,4,4,0,0,1,.416-.385,4,4,0,0,1-1.382-2.167l-.179-.73v5.7c0,4.607-2.9,7.584-7.392,7.584h-5.408a4,4,0,0,1-3.892-3.075L195.078.8a4,4,0,0,1-.021-1.757h-1.027A4,4,0,0,1,190.3,1.6h-3.2a4,4,0,0,1-4-4V-3.852c-.332,4.176-3.222,6.828-7.552,6.828h-.256v.288a4,4,0,0,1-4,4h-3.328a3.993,3.993,0,0,1-3.117-1.492,4,4,0,0,1-3.786-1.845c-2.549.884-5.317,1.7-8.269,2.422a3.994,3.994,0,0,1-3.157-.544,3.993,3.993,0,0,1-2.695,1.044h-6.592c-10.829,0-14.172-.814-15.874-1.524q-.4-.176-.776-.373-.13.23-.265.456a4,4,0,0,1-6.073.961L115.021,4.32a4,4,0,0,1-.858-4.954,16.367,16.367,0,0,0,1.894-5.589,3.99,3.99,0,0,1-1.311-2.961V-12.16a3.992,3.992,0,0,1,1.472-3.1V-25.312a4,4,0,0,1,4-4h10.976a4.015,4.015,0,0,1,.85.091,4.026,4.026,0,0,1,.686-.059h14.08a3.985,3.985,0,0,1,2.64.995,3.985,3.985,0,0,1,2.64-.995h12.736a3.986,3.986,0,0,1,1.643.352,3.989,3.989,0,0,1,1.493-.288H179.13a3.986,3.986,0,0,1,2.728,1.075,3.983,3.983,0,0,1,1.816-.435h28.832a4,4,0,0,1,3.5,2.065,4,4,0,0,1,3.986-3.665h3.36a4,4,0,0,1,4,4v1.249h2.88v-1.28a4,4,0,0,1,4-4h3.392a4,4,0,0,1,4,4v1.28h2.912a3.982,3.982,0,0,1,2.016.544v-1.024a4,4,0,0,1,4-4h3.04q.139,0,.275.009a3.982,3.982,0,0,1,2.413-.809h3.136a4,4,0,0,1,3.376,1.853,3.39,3.39,0,0,0,.969-.668A4,4,0,0,1,266.809-30.432Zm-51.789,16.7a4.011,4.011,0,0,1-2.483-2.314v3.894a3.984,3.984,0,0,1,2.262-1.524Z" transform="translate(585 332)" fill="#00274d"/><text transform="translate(582 327)" fill="#ffeb0e" font-size="32" font-family="PingFangTC-Semibold, PingFang TC" font-weight="600" letter-spacing="0.02em"><tspan x="0" y="0">答對</tspan><tspan y="0" font-family="Helvetica-Bold, Helvetica" font-weight="700"> </tspan><tspan y="0" font-size="48" font-family="Helvetica-Bold, Helvetica" font-weight="700">3 </tspan><tspan y="0">題即可抽獎</tspan></text></g></svg>